<svg xmlns="http://www.w3.org/2000/svg" xmlns:xlink="http://www.w3.org/1999/xlink" contentStyleType="text/css" data-diagram-type="CLASS" height="388px" preserveAspectRatio="none" style="width:889px;height:388px;background:#333333;" version="1.1" viewBox="0 0 889 388" width="889px" zoomAndPan="magnify"><defs/><g><rect fill="#333333" height="388" style="stroke:none;stroke-width:1;" width="889" x="0" y="0"/><!--entity Federalism--><g class="entity" data-entity="Federalism" data-source-line="23" data-uid="ent0002" id="entity_Federalism"><rect fill="#87CEEB" height="36.2969" rx="10" ry="10" style="stroke:#FFFFFF;stroke-width:0.5;" width="97.2119" x="390.22" y="338.78"/><text fill="#000000" font-family="Sans-Serif" font-size="14" lengthAdjust="spacing" textLength="77.2119" x="400.22" y="361.7751">Federalism</text></g><!--entity Govt India Act 1935--><g class="entity" data-entity="Govt India Act 1935" data-source-line="24" data-uid="ent0003" id="entity_Govt India Act 1935"><rect fill="#87CEEB" height="36.2969" rx="10" ry="10" style="stroke:#FFFFFF;stroke-width:0.5;" width="159.2891" x="263.18" y="7.98"/><text fill="#000000" font-family="Sans-Serif" font-size="14" lengthAdjust="spacing" textLength="33.1885" x="273.18" y="30.9751">Govt</text><text fill="#000000" font-family="Sans-Serif" font-size="14" lengthAdjust="spacing" textLength="4.4502" x="306.3685" y="30.9751">&#160;</text><text fill="#000000" font-family="Sans-Serif" font-size="14" lengthAdjust="spacing" textLength="34.3574" x="310.8187" y="30.9751">India</text><text fill="#000000" font-family="Sans-Serif" font-size="14" lengthAdjust="spacing" textLength="4.4502" x="345.1761" y="30.9751">&#160;</text><text fill="#000000" font-family="Sans-Serif" font-size="14" lengthAdjust="spacing" textLength="22.7637" x="349.6263" y="30.9751">Act</text><text fill="#000000" font-family="Sans-Serif" font-size="14" lengthAdjust="spacing" textLength="4.4502" x="372.39" y="30.9751">&#160;</text><text fill="#000000" font-family="Sans-Serif" font-size="14" lengthAdjust="spacing" textLength="35.6289" x="376.8402" y="30.9751">1935</text></g><!--entity Union List--><g class="entity" data-entity="Union List" data-source-line="25" data-uid="ent0004" id="entity_Union List"><rect fill="#87CEEB" height="36.2969" rx="10" ry="10" style="stroke:#FFFFFF;stroke-width:0.5;" width="89.3711" x="313.14" y="228.51"/><text fill="#000000" font-family="Sans-Serif" font-size="14" lengthAdjust="spacing" textLength="40.4482" x="323.14" y="251.5051">Union</text><text fill="#000000" font-family="Sans-Serif" font-size="14" lengthAdjust="spacing" textLength="4.4502" x="363.5882" y="251.5051">&#160;</text><text fill="#000000" font-family="Sans-Serif" font-size="14" lengthAdjust="spacing" textLength="24.4727" x="368.0384" y="251.5051">List</text></g><!--entity State List--><g class="entity" data-entity="State List" data-source-line="26" data-uid="ent0005" id="entity_State List"><rect fill="#87CEEB" height="36.2969" rx="10" ry="10" style="stroke:#FFFFFF;stroke-width:0.5;" width="85.9805" x="554.84" y="228.51"/><text fill="#000000" font-family="Sans-Serif" font-size="14" lengthAdjust="spacing" textLength="37.0576" x="564.84" y="251.5051">State</text><text fill="#000000" font-family="Sans-Serif" font-size="14" lengthAdjust="spacing" textLength="4.4502" x="601.8976" y="251.5051">&#160;</text><text fill="#000000" font-family="Sans-Serif" font-size="14" lengthAdjust="spacing" textLength="24.4727" x="606.3478" y="251.5051">List</text></g><!--entity Concurrent List--><g class="entity" data-entity="Concurrent List" data-source-line="27" data-uid="ent0006" id="entity_Concurrent List"><rect fill="#87CEEB" height="36.2969" rx="10" ry="10" style="stroke:#FFFFFF;stroke-width:0.5;" width="127.1943" x="136.23" y="228.51"/><text fill="#000000" font-family="Sans-Serif" font-size="14" lengthAdjust="spacing" textLength="78.2715" x="146.23" y="251.5051">Concurrent</text><text fill="#000000" font-family="Sans-Serif" font-size="14" lengthAdjust="spacing" textLength="4.4502" x="224.5015" y="251.5051">&#160;</text><text fill="#000000" font-family="Sans-Serif" font-size="14" lengthAdjust="spacing" textLength="24.4727" x="228.9517" y="251.5051">List</text></g><!--entity Indian Constitution--><g class="entity" data-entity="Indian Constitution" data-source-line="28" data-uid="ent0007" id="entity_Indian Constitution"><rect fill="#87CEEB" height="36.2969" rx="10" ry="10" style="stroke:#FFFFFF;stroke-width:0.5;" width="152.7471" x="418.45" y="118.25"/><text fill="#000000" font-family="Sans-Serif" font-size="14" lengthAdjust="spacing" textLength="43.2305" x="428.45" y="141.2451">Indian</text><text fill="#000000" font-family="Sans-Serif" font-size="14" lengthAdjust="spacing" textLength="4.4502" x="471.6805" y="141.2451">&#160;</text><text fill="#000000" font-family="Sans-Serif" font-size="14" lengthAdjust="spacing" textLength="85.0664" x="476.1307" y="141.2451">Constitution</text></g><g class="entity" data-entity="GMN19" data-source-line="47" data-uid="ent0020" id="entity_GMN19"><path d="M6,16 L6,36.2656 A10,10 0 0 0 16,46.2656 L203.6528,46.2656 A10,10 0 0 0 213.6528,36.2656 L213.6528,31.06 L262.8,27.06 L213.6528,23.06 L213.6528,16 L203.6528,6 L16,6 A10,10 0 0 0 6,16" fill="#FFA500" style="stroke:#444444;stroke-width:0.5;"/><path d="M203.6528,6 L203.6528,11 A5,5 0 0 0 208.6528,16 L213.6528,16 L203.6528,6" fill="#FFA500" style="stroke:#444444;stroke-width:0.5;"/><text fill="#000000" font-family="Sans-Serif" font-size="13" lengthAdjust="spacing" textLength="44.9985" x="12" y="23.0669">Crucial</text><text fill="#000000" font-family="Sans-Serif" font-size="13" lengthAdjust="spacing" textLength="4.1323" x="56.9985" y="23.0669">&#160;</text><text fill="#000000" font-family="Sans-Serif" font-size="13" lengthAdjust="spacing" textLength="59.3569" x="61.1309" y="23.0669">historical</text><text fill="#000000" font-family="Sans-Serif" font-size="13" lengthAdjust="spacing" textLength="4.1323" x="120.4878" y="23.0669">&#160;</text><text fill="#000000" font-family="Sans-Serif" font-size="13" lengthAdjust="spacing" textLength="74.0327" x="124.6201" y="23.0669">antecedent</text><text fill="#000000" font-family="Sans-Serif" font-size="13" lengthAdjust="spacing" textLength="24.4575" x="69.3035" y="38.1997">and</text><text fill="#000000" font-family="Sans-Serif" font-size="13" lengthAdjust="spacing" textLength="4.1323" x="93.761" y="38.1997">&#160;</text><text fill="#000000" font-family="Sans-Serif" font-size="13" lengthAdjust="spacing" textLength="43.4561" x="97.8933" y="38.1997">source</text></g><g class="entity" data-entity="GMN22" data-source-line="51" data-uid="ent0023" id="entity_GMN22"><path d="M65.28,126.26 L65.28,146.5256 A10,10 0 0 0 75.28,156.5256 L256.3694,156.5256 A10,10 0 0 0 266.3694,146.5256 L266.3694,126.26 L256.3694,116.26 L75.28,116.26 A10,10 0 0 0 65.28,126.26" fill="#FFA500" style="stroke:#444444;stroke-width:0.5;"/><path d="M256.3694,116.26 L256.3694,121.26 A5,5 0 0 0 261.3694,126.26 L266.3694,126.26 L256.3694,116.26" fill="#FFA500" style="stroke:#444444;stroke-width:1;"/><text fill="#000000" font-family="Sans-Serif" font-size="13" lengthAdjust="spacing" textLength="46.541" x="71.28" y="133.3269">Powers</text><text fill="#000000" font-family="Sans-Serif" font-size="13" lengthAdjust="spacing" textLength="4.1323" x="117.821" y="133.3269">&#160;</text><text fill="#000000" font-family="Sans-Serif" font-size="13" lengthAdjust="spacing" textLength="60.7661" x="121.9533" y="133.3269">exclusive</text><text fill="#000000" font-family="Sans-Serif" font-size="13" lengthAdjust="spacing" textLength="4.1323" x="182.7195" y="133.3269">&#160;</text><text fill="#000000" font-family="Sans-Serif" font-size="13" lengthAdjust="spacing" textLength="13.0508" x="186.8518" y="133.3269">to</text><text fill="#000000" font-family="Sans-Serif" font-size="13" lengthAdjust="spacing" textLength="4.1323" x="199.9026" y="133.3269">&#160;</text><text fill="#000000" font-family="Sans-Serif" font-size="13" lengthAdjust="spacing" textLength="47.3345" x="204.0349" y="133.3269">Central</text><text fill="#000000" font-family="Sans-Serif" font-size="13" lengthAdjust="spacing" textLength="79.479" x="121.5852" y="148.4597">government</text></g><g class="entity" data-entity="GMN25" data-source-line="55" data-uid="ent0026" id="entity_GMN25"><path d="M690.74,236.53 L690.74,243.06 L641.2,247.06 L690.74,251.06 L690.74,256.7956 A10,10 0 0 0 700.74,266.7956 L868.9055,266.7956 A10,10 0 0 0 878.9055,256.7956 L878.9055,236.53 L868.9055,226.53 L700.74,226.53 A10,10 0 0 0 690.74,236.53" fill="#FFA500" style="stroke:#444444;stroke-width:0.5;"/><path d="M868.9055,226.53 L868.9055,231.53 A5,5 0 0 0 873.9055,236.53 L878.9055,236.53 L868.9055,226.53" fill="#FFA500" style="stroke:#444444;stroke-width:0.5;"/><text fill="#000000" font-family="Sans-Serif" font-size="13" lengthAdjust="spacing" textLength="46.541" x="696.74" y="243.5969">Powers</text><text fill="#000000" font-family="Sans-Serif" font-size="13" lengthAdjust="spacing" textLength="4.1323" x="743.281" y="243.5969">&#160;</text><text fill="#000000" font-family="Sans-Serif" font-size="13" lengthAdjust="spacing" textLength="60.7661" x="747.4133" y="243.5969">exclusive</text><text fill="#000000" font-family="Sans-Serif" font-size="13" lengthAdjust="spacing" textLength="4.1323" x="808.1795" y="243.5969">&#160;</text><text fill="#000000" font-family="Sans-Serif" font-size="13" lengthAdjust="spacing" textLength="13.0508" x="812.3118" y="243.5969">to</text><text fill="#000000" font-family="Sans-Serif" font-size="13" lengthAdjust="spacing" textLength="4.1323" x="825.3626" y="243.5969">&#160;</text><text fill="#000000" font-family="Sans-Serif" font-size="13" lengthAdjust="spacing" textLength="34.4106" x="829.4949" y="243.5969">State</text><text fill="#000000" font-family="Sans-Serif" font-size="13" lengthAdjust="spacing" textLength="86.252" x="737.1968" y="258.7297">governments</text></g><g class="entity" data-entity="GMN28" data-source-line="59" data-uid="ent0029" id="entity_GMN28"><path d="M98.19,346.79 L98.19,367.0556 A10,10 0 0 0 108.19,377.0556 L291.4693,377.0556 A10,10 0 0 0 301.4693,367.0556 L301.4693,346.79 L291.4693,336.79 L203.83,336.79 L199.83,264.87 L195.83,336.79 L108.19,336.79 A10,10 0 0 0 98.19,346.79" fill="#FFA500" style="stroke:#444444;stroke-width:0.5;"/><path d="M291.4693,336.79 L291.4693,341.79 A5,5 0 0 0 296.4693,346.79 L301.4693,346.79 L291.4693,336.79" fill="#FFA500" style="stroke:#444444;stroke-width:0.5;"/><text fill="#000000" font-family="Sans-Serif" font-size="13" lengthAdjust="spacing" textLength="46.541" x="104.19" y="353.8569">Powers</text><text fill="#000000" font-family="Sans-Serif" font-size="13" lengthAdjust="spacing" textLength="4.1323" x="150.731" y="353.8569">&#160;</text><text fill="#000000" font-family="Sans-Serif" font-size="13" lengthAdjust="spacing" textLength="17.875" x="154.8633" y="353.8569">for</text><text fill="#000000" font-family="Sans-Serif" font-size="13" lengthAdjust="spacing" textLength="4.1323" x="172.7383" y="353.8569">&#160;</text><text fill="#000000" font-family="Sans-Serif" font-size="13" lengthAdjust="spacing" textLength="29.542" x="176.8707" y="353.8569">both</text><text fill="#000000" font-family="Sans-Serif" font-size="13" lengthAdjust="spacing" textLength="4.1323" x="206.4127" y="353.8569">&#160;</text><text fill="#000000" font-family="Sans-Serif" font-size="13" lengthAdjust="spacing" textLength="47.3345" x="210.545" y="353.8569">Central</text><text fill="#000000" font-family="Sans-Serif" font-size="13" lengthAdjust="spacing" textLength="4.1323" x="257.8795" y="353.8569">&#160;</text><text fill="#000000" font-family="Sans-Serif" font-size="13" lengthAdjust="spacing" textLength="24.4575" x="262.0118" y="353.8569">and</text><text fill="#000000" font-family="Sans-Serif" font-size="13" lengthAdjust="spacing" textLength="34.4106" x="178.1243" y="368.9897">State</text></g><g class="entity" data-entity="GMN31" data-source-line="63" data-uid="ent0032" id="entity_GMN31"><path d="M472.6,16 L472.6,36.2656 A10,10 0 0 0 482.6,46.2656 L517.9,46.2656 L521.9,117.86 L525.9,46.2656 L655.0565,46.2656 A10,10 0 0 0 665.0565,36.2656 L665.0565,16 L655.0565,6 L482.6,6 A10,10 0 0 0 472.6,16" fill="#FFA500" style="stroke:#444444;stroke-width:0.5;"/><path d="M655.0565,6 L655.0565,11 A5,5 0 0 0 660.0565,16 L665.0565,16 L655.0565,6" fill="#FFA500" style="stroke:#444444;stroke-width:0.5;"/><text fill="#000000" font-family="Sans-Serif" font-size="13" lengthAdjust="spacing" textLength="45.2334" x="478.6" y="23.0669">Adapts</text><text fill="#000000" font-family="Sans-Serif" font-size="13" lengthAdjust="spacing" textLength="4.1323" x="523.8334" y="23.0669">&#160;</text><text fill="#000000" font-family="Sans-Serif" font-size="13" lengthAdjust="spacing" textLength="25.8667" x="527.9657" y="23.0669">lists</text><text fill="#000000" font-family="Sans-Serif" font-size="13" lengthAdjust="spacing" textLength="4.1323" x="553.8324" y="23.0669">&#160;</text><text fill="#000000" font-family="Sans-Serif" font-size="13" lengthAdjust="spacing" textLength="24.4575" x="557.9647" y="23.0669">and</text><text fill="#000000" font-family="Sans-Serif" font-size="13" lengthAdjust="spacing" textLength="4.1323" x="582.4223" y="23.0669">&#160;</text><text fill="#000000" font-family="Sans-Serif" font-size="13" lengthAdjust="spacing" textLength="63.502" x="586.5546" y="23.0669">embodies</text><text fill="#000000" font-family="Sans-Serif" font-size="13" lengthAdjust="spacing" textLength="71.6968" x="528.4799" y="38.1997">Federalism</text></g><g class="entity" data-entity="GMN34" data-source-line="67" data-uid="ent0035" id="entity_GMN34"><path d="M537.64,346.79 L537.64,353.06 L487.78,357.06 L537.64,361.06 L537.64,367.0556 A10,10 0 0 0 547.64,377.0556 L720.0077,377.0556 A10,10 0 0 0 730.0077,367.0556 L730.0077,346.79 L720.0077,336.79 L547.64,336.79 A10,10 0 0 0 537.64,346.79" fill="#FFA500" style="stroke:#444444;stroke-width:0.5;"/><path d="M720.0077,336.79 L720.0077,341.79 A5,5 0 0 0 725.0077,346.79 L730.0077,346.79 L720.0077,336.79" fill="#FFA500" style="stroke:#444444;stroke-width:0.5;"/><text fill="#000000" font-family="Sans-Serif" font-size="13" lengthAdjust="spacing" textLength="30.3735" x="543.64" y="353.8569">Core</text><text fill="#000000" font-family="Sans-Serif" font-size="13" lengthAdjust="spacing" textLength="4.1323" x="574.0135" y="353.8569">&#160;</text><text fill="#000000" font-family="Sans-Serif" font-size="13" lengthAdjust="spacing" textLength="56.0688" x="578.1459" y="353.8569">principle</text><text fill="#000000" font-family="Sans-Serif" font-size="13" lengthAdjust="spacing" textLength="4.1323" x="634.2147" y="353.8569">&#160;</text><text fill="#000000" font-family="Sans-Serif" font-size="13" lengthAdjust="spacing" textLength="76.6606" x="638.347" y="353.8569">Union-State</text><text fill="#000000" font-family="Sans-Serif" font-size="13" lengthAdjust="spacing" textLength="56.5957" x="601.026" y="368.9897">relations</text></g><!--link Govt India Act 1935 to Indian Constitution--><g class="link" data-entity-1="Govt India Act 1935" data-entity-2="Indian Constitution" data-source-line="31" data-uid="lnk8" id="link_Govt India Act 1935_Indian Constitution"><path codeLine="31" d="M413.14,44.61 C413.14,78.25 413.14,146.06 413.14,146.06 C413.14,146.06 408.94,146.06 412,146.06" fill="none" id="Govt India Act 1935-to-Indian Constitution" style="stroke:#FFFFFF;stroke-width:1.5;"/><polygon fill="#FFFFFF" points="418,146.06,409,142.06,413,146.06,409,150.06,418,146.06" style="stroke:#FFFFFF;stroke-width:1.5;"/></g><!--reverse link Govt India Act 1935 to Union List--><g class="link" data-entity-1="Govt India Act 1935" data-entity-2="Union List" data-source-line="32" data-uid="lnk9" id="link_Govt India Act 1935_Union List"><path codeLine="32" d="M372.72,56.55 C372.72,98.06 372.72,186.53 372.72,228.14" fill="none" id="Govt India Act 1935-backto-Union List" style="stroke:#FFFFFF;stroke-width:1.5;"/><polygon fill="#FFFFFF" points="372.72,44.55,368.72,50.55,372.72,56.55,376.72,50.55,372.72,44.55" style="stroke:#FFFFFF;stroke-width:1.5;"/></g><!--reverse link Govt India Act 1935 to State List--><g class="link" data-entity-1="Govt India Act 1935" data-entity-2="State List" data-source-line="33" data-uid="lnk10" id="link_Govt India Act 1935_State List"><path codeLine="33" d="M407.83,56.57 C407.83,108.13 407.83,238.06 407.83,238.06 C407.83,238.06 498.65,238.06 554.71,238.06" fill="none" id="Govt India Act 1935-backto-State List" style="stroke:#FFFFFF;stroke-width:1.5;"/><polygon fill="#FFFFFF" points="407.83,44.57,403.83,50.57,407.83,56.57,411.83,50.57,407.83,44.57" style="stroke:#FFFFFF;stroke-width:1.5;"/></g><!--reverse link Govt India Act 1935 to Concurrent List--><g class="link" data-entity-1="Govt India Act 1935" data-entity-2="Concurrent List" data-source-line="34" data-uid="lnk11" id="link_Govt India Act 1935_Concurrent List"><path codeLine="34" d="M283.92,56.57 C283.92,108.13 283.92,238.06 283.92,238.06 C283.92,238.06 275.29,238.06 263.56,238.06" fill="none" id="Govt India Act 1935-backto-Concurrent List" style="stroke:#FFFFFF;stroke-width:1.5;"/><polygon fill="#FFFFFF" points="283.92,44.57,279.92,50.57,283.92,56.57,287.92,50.57,283.92,44.57" style="stroke:#FFFFFF;stroke-width:1.5;"/></g><!--reverse link Indian Constitution to Union List--><g class="link" data-entity-1="Indian Constitution" data-entity-2="Union List" data-source-line="36" data-uid="lnk12" id="link_Indian Constitution_Union List"><path codeLine="36" d="M435.7,166.67 C435.7,198.1 435.7,247.06 435.7,247.06 C435.7,247.06 419.98,247.06 402.67,247.06" fill="none" id="Indian Constitution-backto-Union List" style="stroke:#FFFFFF;stroke-width:1.5;"/><polygon fill="#FFFFFF" points="435.7,154.67,431.7,160.67,435.7,166.67,439.7,160.67,435.7,154.67" style="stroke:#FFFFFF;stroke-width:1.5;"/></g><!--reverse link Indian Constitution to State List--><g class="link" data-entity-1="Indian Constitution" data-entity-2="State List" data-source-line="37" data-uid="lnk13" id="link_Indian Constitution_State List"><path codeLine="37" d="M563.02,166.6 C563.02,186.91 563.02,207.59 563.02,228.06" fill="none" id="Indian Constitution-backto-State List" style="stroke:#FFFFFF;stroke-width:1.5;"/><polygon fill="#FFFFFF" points="563.02,154.6,559.02,160.6,563.02,166.6,567.02,160.6,563.02,154.6" style="stroke:#FFFFFF;stroke-width:1.5;"/></g><!--reverse link Indian Constitution to Concurrent List--><g class="link" data-entity-1="Indian Constitution" data-entity-2="Concurrent List" data-source-line="38" data-uid="lnk14" id="link_Indian Constitution_Concurrent List"><path codeLine="38" d="M406.04,128.06 C353.52,128.06 305.36,128.06 305.36,128.06 C305.36,128.06 305.36,247.06 305.36,247.06 C305.36,247.06 285.87,247.06 263.65,247.06" fill="none" id="Indian Constitution-backto-Concurrent List" style="stroke:#FFFFFF;stroke-width:1.5;"/><polygon fill="#FFFFFF" points="418.04,128.06,412.04,124.06,406.04,128.06,412.04,132.06,418.04,128.06" style="stroke:#FFFFFF;stroke-width:1.5;"/></g><!--link Indian Constitution to Federalism--><g class="link" data-entity-1="Indian Constitution" data-entity-2="Federalism" data-source-line="39" data-uid="lnk15" id="link_Indian Constitution_Federalism"><path codeLine="39" d="M452.94,154.82 C452.94,196.33 452.94,290.79 452.94,332.4" fill="none" id="Indian Constitution-to-Federalism" style="stroke:#FFFFFF;stroke-width:1.5;"/><polygon fill="#FFFFFF" points="452.94,338.4,456.94,329.4,452.94,333.4,448.94,329.4,452.94,338.4" style="stroke:#FFFFFF;stroke-width:1.5;"/></g><!--link Union List to Federalism--><g class="link" data-entity-1="Union List" data-entity-2="Federalism" data-source-line="41" data-uid="lnk16" id="link_Union List_Federalism"><path codeLine="41" d="M396.37,264.87 C396.37,285.18 396.37,311.86 396.37,332.32" fill="none" id="Union List-to-Federalism" style="stroke:#FFFFFF;stroke-width:1.5;stroke-dasharray:7.0,7.0;"/><polygon fill="#FFFFFF" points="396.37,338.32,400.37,329.32,396.37,333.32,392.37,329.32,396.37,338.32" style="stroke:#FFFFFF;stroke-width:1.5;"/></g><!--link State List to Federalism--><g class="link" data-entity-1="State List" data-entity-2="Federalism" data-source-line="42" data-uid="lnk17" id="link_State List_Federalism"><path codeLine="42" d="M554.61,256.06 C517.58,256.06 470.19,256.06 470.19,256.06 C470.19,256.06 470.19,303.31 470.19,332.43" fill="none" id="State List-to-Federalism" style="stroke:#FFFFFF;stroke-width:1.5;stroke-dasharray:7.0,7.0;"/><polygon fill="#FFFFFF" points="470.19,338.43,474.19,329.43,470.19,333.43,466.19,329.43,470.19,338.43" style="stroke:#FFFFFF;stroke-width:1.5;"/></g><!--link Concurrent List to Federalism--><g class="link" data-entity-1="Concurrent List" data-entity-2="Federalism" data-source-line="43" data-uid="lnk18" id="link_Concurrent List_Federalism"><path codeLine="43" d="M263.79,256.06 C287.74,256.06 309.25,256.06 309.25,256.06 C309.25,256.06 309.25,357.06 309.25,357.06 C309.25,357.06 347.14,357.06 383.84,357.06" fill="none" id="Concurrent List-to-Federalism" style="stroke:#FFFFFF;stroke-width:1.5;stroke-dasharray:7.0,7.0;"/><polygon fill="#FFFFFF" points="389.84,357.06,380.84,353.06,384.84,357.06,380.84,361.06,389.84,357.06" style="stroke:#FFFFFF;stroke-width:1.5;"/></g><!--link GMN22 to Union List--><g class="link" data-entity-1="GMN22" data-entity-2="Union List" data-source-line="51" data-uid="lnk24" id="link_GMN22_Union List"><path d="M266.8,137.06 C306.57,137.06 342.93,137.06 342.93,137.06 C342.93,137.06 342.93,196.8 342.93,228.07" fill="none" id="GMN22-Union List" style="stroke:#FFFFFF;stroke-width:1.5;stroke-dasharray:7.0,7.0;"/></g><!--SRC=[ZLN1Yjim4BtxAuRieL18sEqsR7ifPDDDAPHIo2uzA_BO5f4rPYGdwTztR8T4SUoqFfYWztZpPjx8KTRIlZG7u_B4Rush5AiIDaflSwRQfKkon73ts3uHmng7uK-5G1mAYW17ANgiO7uV7R9os-RmAJuiqNkLuyAQt9Ne0cXv8KUC53DLs_2AXt23vIZWCt6AV3JxiNtwZ7vBgzLYVX_xMJ3JlWFtXGdOXruBexTEJCF3R1w1UrRLRvE60ZvSw1tThyY5dwf4cAoLyzCriiacFNF_uXnziqEM8X7W2vNINiA3J5cFmzMxdZPM9Z1GTnXbr46vtFuF9Hv-Dxda7Np5J5O4q6AJcazER9YiKEZA6bzEuExJq_BbvJc6lz4km7UN6WKB7U3Xy-DyaFVc33duONmOXDT11Ho7b-HqpTnir2YdDU50g3wOK0UfT-QTUsIqgi5yOIgV3FkVJhyCwutmtq-d5ntUeaMTtgBrEqwIuGQlIu_JBagFqwvA3tFR8KNR8GxZa6Up7doHyJLw5V4LHJ9Sf6bx5JnaihvQjbs-Dg1SAXz1gvp6f471OXQ0ik7jJ02MN6kZB1HIYDXe-Qb4IainrybvgbdKq7NraautKDNAnlC6-4LxP0zuqBRsPjVGO2b2uXjosY6tdyA-5fkyw4p6iGohTOopbk-BRIW4Abkrg_HEait8X5YSp3MDjj9ZVGvU0P0KL1My_AjuUJSYM6ueDPBAEQxnTkD89GfYX8gDqwQIMznETjhrUxgf9ws_]--></g></svg>