<svg xmlns="http://www.w3.org/2000/svg" xmlns:xlink="http://www.w3.org/1999/xlink" contentStyleType="text/css" data-diagram-type="CLASS" height="384px" preserveAspectRatio="none" style="width:1323px;height:384px;background:#333333;" version="1.1" viewBox="0 0 1323 384" width="1323px" zoomAndPan="magnify"><defs/><g><rect fill="#333333" height="384" style="stroke:none;stroke-width:1;" width="1323" x="0" y="0"/><!--entity Ballistic Missile--><g class="entity" data-entity="Ballistic Missile" data-source-line="23" data-uid="ent0002" id="entity_Ballistic Missile"><rect fill="#87CEEB" height="36.2969" rx="10" ry="10" style="stroke:#FFFFFF;stroke-width:0.5;" width="125.6221" x="311.03" y="118.25"/><text fill="#000000" font-family="Sans-Serif" font-size="14" lengthAdjust="spacing" textLength="54.2227" x="321.03" y="141.2451">Ballistic</text><text fill="#000000" font-family="Sans-Serif" font-size="14" lengthAdjust="spacing" textLength="4.4502" x="375.2527" y="141.2451">&#160;</text><text fill="#000000" font-family="Sans-Serif" font-size="14" lengthAdjust="spacing" textLength="46.9492" x="379.7029" y="141.2451">Missile</text></g><!--entity Cruise Missile--><g class="entity" data-entity="Cruise Missile" data-source-line="24" data-uid="ent0003" id="entity_Cruise Missile"><rect fill="#87CEEB" height="36.2969" rx="10" ry="10" style="stroke:#FFFFFF;stroke-width:0.5;" width="115.6006" x="971.04" y="118.25"/><text fill="#000000" font-family="Sans-Serif" font-size="14" lengthAdjust="spacing" textLength="44.2012" x="981.04" y="141.2451">Cruise</text><text fill="#000000" font-family="Sans-Serif" font-size="14" lengthAdjust="spacing" textLength="4.4502" x="1025.2412" y="141.2451">&#160;</text><text fill="#000000" font-family="Sans-Serif" font-size="14" lengthAdjust="spacing" textLength="46.9492" x="1029.6914" y="141.2451">Missile</text></g><!--entity Propulsion--><g class="entity" data-entity="Propulsion" data-source-line="25" data-uid="ent0004" id="entity_Propulsion"><rect fill="#87CEEB" height="36.2969" rx="10" ry="10" style="stroke:#FFFFFF;stroke-width:0.5;" width="93.0352" x="167.33" y="226.53"/><text fill="#000000" font-family="Sans-Serif" font-size="14" lengthAdjust="spacing" textLength="73.0352" x="177.33" y="249.5251">Propulsion</text></g><!--entity Range Classification--><g class="entity" data-entity="Range Classification" data-source-line="26" data-uid="ent0005" id="entity_Range Classification"><rect fill="#87CEEB" height="36.2969" rx="10" ry="10" style="stroke:#FFFFFF;stroke-width:0.5;" width="161.7637" x="756.96" y="226.53"/><text fill="#000000" font-family="Sans-Serif" font-size="14" lengthAdjust="spacing" textLength="44.6797" x="766.96" y="249.5251">Range</text><text fill="#000000" font-family="Sans-Serif" font-size="14" lengthAdjust="spacing" textLength="4.4502" x="811.6397" y="249.5251">&#160;</text><text fill="#000000" font-family="Sans-Serif" font-size="14" lengthAdjust="spacing" textLength="92.6338" x="816.0899" y="249.5251">Classification</text></g><!--entity Velocity--><g class="entity" data-entity="Velocity" data-source-line="27" data-uid="ent0006" id="entity_Velocity"><rect fill="#87CEEB" height="36.2969" rx="10" ry="10" style="stroke:#FFFFFF;stroke-width:0.5;" width="76.0068" x="990.84" y="226.53"/><text fill="#000000" font-family="Sans-Serif" font-size="14" lengthAdjust="spacing" textLength="56.0068" x="1000.84" y="249.5251">Velocity</text></g><!--entity Agni-V--><g class="entity" data-entity="Agni-V" data-source-line="28" data-uid="ent0007" id="entity_Agni-V"><rect fill="#87CEEB" height="36.2969" rx="10" ry="10" style="stroke:#FFFFFF;stroke-width:0.5;" width="65.8555" x="150.92" y="7.98"/><text fill="#000000" font-family="Sans-Serif" font-size="14" lengthAdjust="spacing" textLength="45.8555" x="160.92" y="30.9751">Agni-V</text></g><!--entity BrahMos--><g class="entity" data-entity="BrahMos" data-source-line="29" data-uid="ent0008" id="entity_BrahMos"><rect fill="#87CEEB" height="36.2969" rx="10" ry="10" style="stroke:#FFFFFF;stroke-width:0.5;" width="80.751" x="1168.47" y="7.98"/><text fill="#000000" font-family="Sans-Serif" font-size="14" lengthAdjust="spacing" textLength="60.751" x="1178.47" y="30.9751">BrahMos</text></g><!--entity Ballistic Trajectory--><g class="entity" data-entity="Ballistic Trajectory" data-source-line="32" data-uid="ent0009" id="entity_Ballistic Trajectory"><rect fill="#98FB98" height="36.2969" rx="10" ry="10" style="stroke:#FFFFFF;stroke-width:0.5;" width="149.8555" x="309.92" y="226.53"/><text fill="#000000" font-family="Sans-Serif" font-size="14" lengthAdjust="spacing" textLength="54.2227" x="319.92" y="249.5251">Ballistic</text><text fill="#000000" font-family="Sans-Serif" font-size="14" lengthAdjust="spacing" textLength="4.4502" x="374.1427" y="249.5251">&#160;</text><text fill="#000000" font-family="Sans-Serif" font-size="14" lengthAdjust="spacing" textLength="71.1826" x="378.5929" y="249.5251">Trajectory</text></g><!--entity Rocket Propulsion--><g class="entity" data-entity="Rocket Propulsion" data-source-line="33" data-uid="ent0010" id="entity_Rocket Propulsion"><rect fill="#98FB98" height="36.2969" rx="10" ry="10" style="stroke:#FFFFFF;stroke-width:0.5;" width="145.6855" x="7" y="334.81"/><text fill="#000000" font-family="Sans-Serif" font-size="14" lengthAdjust="spacing" textLength="48.2002" x="17" y="357.8051">Rocket</text><text fill="#000000" font-family="Sans-Serif" font-size="14" lengthAdjust="spacing" textLength="4.4502" x="65.2002" y="357.8051">&#160;</text><text fill="#000000" font-family="Sans-Serif" font-size="14" lengthAdjust="spacing" textLength="73.0352" x="69.6504" y="357.8051">Propulsion</text></g><!--entity Jet Propulsion--><g class="entity" data-entity="Jet Propulsion" data-source-line="34" data-uid="ent0011" id="entity_Jet Propulsion"><rect fill="#98FB98" height="36.2969" rx="10" ry="10" style="stroke:#FFFFFF;stroke-width:0.5;" width="115.7168" x="552.98" y="334.81"/><text fill="#000000" font-family="Sans-Serif" font-size="14" lengthAdjust="spacing" textLength="18.2314" x="562.98" y="357.8051">Jet</text><text fill="#000000" font-family="Sans-Serif" font-size="14" lengthAdjust="spacing" textLength="4.4502" x="581.2114" y="357.8051">&#160;</text><text fill="#000000" font-family="Sans-Serif" font-size="14" lengthAdjust="spacing" textLength="73.0352" x="585.6616" y="357.8051">Propulsion</text></g><g class="entity" data-entity="GMN25" data-source-line="56" data-uid="ent0026" id="entity_GMN25"><path d="M486.91,126.26 L486.91,127.09 L436.89,131.09 L486.91,135.09 L486.91,146.5256 A10,10 0 0 0 496.91,156.5256 L676.7806,156.5256 A10,10 0 0 0 686.7806,146.5256 L686.7806,126.26 L676.7806,116.26 L496.91,116.26 A10,10 0 0 0 486.91,126.26" fill="#FFA500" style="stroke:#444444;stroke-width:0.5;"/><path d="M676.7806,116.26 L676.7806,121.26 A5,5 0 0 0 681.7806,126.26 L686.7806,126.26 L676.7806,116.26" fill="#FFA500" style="stroke:#444444;stroke-width:0.5;"/><text fill="#000000" font-family="Sans-Serif" font-size="13" lengthAdjust="spacing" textLength="48.0137" x="492.91" y="133.3269">Follows</text><text fill="#000000" font-family="Sans-Serif" font-size="13" lengthAdjust="spacing" textLength="4.1323" x="540.9237" y="133.3269">&#160;</text><text fill="#000000" font-family="Sans-Serif" font-size="13" lengthAdjust="spacing" textLength="72.9092" x="545.056" y="133.3269">unpowered</text><text fill="#000000" font-family="Sans-Serif" font-size="13" lengthAdjust="spacing" textLength="4.1323" x="617.9652" y="133.3269">&#160;</text><text fill="#000000" font-family="Sans-Serif" font-size="13" lengthAdjust="spacing" textLength="49.6831" x="622.0975" y="133.3269">ballistic</text><text fill="#000000" font-family="Sans-Serif" font-size="13" lengthAdjust="spacing" textLength="29.5547" x="567.568" y="148.4597">path</text></g><g class="entity" data-entity="GMN28" data-source-line="60" data-uid="ent0029" id="entity_GMN28"><path d="M736.9,133.83 L736.9,138.9628 A10,10 0 0 0 746.9,148.9628 L910.7809,148.9628 A10,10 0 0 0 920.7809,138.9628 L920.7809,141.83 L970.55,137.09 L920.7809,133.83 L920.7809,133.83 L910.7809,123.83 L746.9,123.83 A10,10 0 0 0 736.9,133.83" fill="#FFA500" style="stroke:#444444;stroke-width:0.5;"/><path d="M910.7809,123.83 L910.7809,128.83 A5,5 0 0 0 915.7809,133.83 L920.7809,133.83 L910.7809,123.83" fill="#FFA500" style="stroke:#444444;stroke-width:0.5;"/><text fill="#000000" font-family="Sans-Serif" font-size="13" lengthAdjust="spacing" textLength="56.0181" x="742.9" y="140.8969">Powered</text><text fill="#000000" font-family="Sans-Serif" font-size="13" lengthAdjust="spacing" textLength="4.1323" x="798.9181" y="140.8969">&#160;</text><text fill="#000000" font-family="Sans-Serif" font-size="13" lengthAdjust="spacing" textLength="65.2095" x="803.0504" y="140.8969">controlled</text><text fill="#000000" font-family="Sans-Serif" font-size="13" lengthAdjust="spacing" textLength="4.1323" x="868.2599" y="140.8969">&#160;</text><text fill="#000000" font-family="Sans-Serif" font-size="13" lengthAdjust="spacing" textLength="33.3887" x="872.3922" y="140.8969">flight</text></g><g class="entity" data-entity="GMN31" data-source-line="64" data-uid="ent0032" id="entity_GMN31"><path d="M68.85,126.26 L68.85,146.5256 A10,10 0 0 0 78.85,156.5256 L194.34,156.5256 L198.34,226.3 L202.34,156.5256 L250.8432,156.5256 A10,10 0 0 0 260.8432,146.5256 L260.8432,126.26 L250.8432,116.26 L78.85,116.26 A10,10 0 0 0 68.85,126.26" fill="#FFA500" style="stroke:#444444;stroke-width:0.5;"/><path d="M250.8432,116.26 L250.8432,121.26 A5,5 0 0 0 255.8432,126.26 L260.8432,126.26 L250.8432,116.26" fill="#FFA500" style="stroke:#444444;stroke-width:0.5;"/><text fill="#000000" font-family="Sans-Serif" font-size="13" lengthAdjust="spacing" textLength="73.855" x="74.85" y="133.3269">Mechanism</text><text fill="#000000" font-family="Sans-Serif" font-size="13" lengthAdjust="spacing" textLength="4.1323" x="148.705" y="133.3269">&#160;</text><text fill="#000000" font-family="Sans-Serif" font-size="13" lengthAdjust="spacing" textLength="17.875" x="152.8373" y="133.3269">for</text><text fill="#000000" font-family="Sans-Serif" font-size="13" lengthAdjust="spacing" textLength="4.1323" x="170.7123" y="133.3269">&#160;</text><text fill="#000000" font-family="Sans-Serif" font-size="13" lengthAdjust="spacing" textLength="70.9985" x="174.8446" y="133.3269">generating</text><text fill="#000000" font-family="Sans-Serif" font-size="13" lengthAdjust="spacing" textLength="38.7905" x="140.9513" y="148.4597">thrust</text></g><g class="entity" data-entity="GMN34" data-source-line="68" data-uid="ent0035" id="entity_GMN34"><path d="M763.44,342.82 L763.44,363.0856 A10,10 0 0 0 773.44,373.0856 L902.2374,373.0856 A10,10 0 0 0 912.2374,363.0856 L912.2374,342.82 L902.2374,332.82 L841.84,332.82 L837.84,263.04 L833.84,332.82 L773.44,332.82 A10,10 0 0 0 763.44,342.82" fill="#FFA500" style="stroke:#444444;stroke-width:0.5;"/><path d="M902.2374,332.82 L902.2374,337.82 A5,5 0 0 0 907.2374,342.82 L912.2374,342.82 L902.2374,332.82" fill="#FFA500" style="stroke:#444444;stroke-width:0.5;"/><text fill="#000000" font-family="Sans-Serif" font-size="13" lengthAdjust="spacing" textLength="43.5957" x="769.44" y="349.8869">Missile</text><text fill="#000000" font-family="Sans-Serif" font-size="13" lengthAdjust="spacing" textLength="4.1323" x="813.0357" y="349.8869">&#160;</text><text fill="#000000" font-family="Sans-Serif" font-size="13" lengthAdjust="spacing" textLength="36.6958" x="817.168" y="349.8869">reach</text><text fill="#000000" font-family="Sans-Serif" font-size="13" lengthAdjust="spacing" textLength="4.1323" x="853.8638" y="349.8869">&#160;</text><text fill="#000000" font-family="Sans-Serif" font-size="13" lengthAdjust="spacing" textLength="39.2412" x="857.9962" y="349.8869">based</text><text fill="#000000" font-family="Sans-Serif" font-size="13" lengthAdjust="spacing" textLength="68.1421" x="799.2676" y="365.0197">categories</text></g><g class="entity" data-entity="GMN37" data-source-line="72" data-uid="ent0038" id="entity_GMN37"><path d="M266.58,16 L266.58,23.09 L217.01,27.09 L266.58,31.09 L266.58,36.2656 A10,10 0 0 0 276.58,46.2656 L435.1098,46.2656 A10,10 0 0 0 445.1098,36.2656 L445.1098,16 L435.1098,6 L276.58,6 A10,10 0 0 0 266.58,16" fill="#FFA500" style="stroke:#444444;stroke-width:0.5;"/><path d="M435.1098,6 L435.1098,11 A5,5 0 0 0 440.1098,16 L445.1098,16 L435.1098,6" fill="#FFA500" style="stroke:#444444;stroke-width:0.5;"/><text fill="#000000" font-family="Sans-Serif" font-size="13" lengthAdjust="spacing" textLength="103.7144" x="272.58" y="23.0669">Intercontinental</text><text fill="#000000" font-family="Sans-Serif" font-size="13" lengthAdjust="spacing" textLength="4.1323" x="376.2944" y="23.0669">&#160;</text><text fill="#000000" font-family="Sans-Serif" font-size="13" lengthAdjust="spacing" textLength="49.6831" x="380.4267" y="23.0669">ballistic</text><text fill="#000000" font-family="Sans-Serif" font-size="13" lengthAdjust="spacing" textLength="45.043" x="298.6657" y="38.1997">missile</text><text fill="#000000" font-family="Sans-Serif" font-size="13" lengthAdjust="spacing" textLength="4.1323" x="343.7087" y="38.1997">&#160;</text><text fill="#000000" font-family="Sans-Serif" font-size="13" lengthAdjust="spacing" textLength="56.1831" x="347.841" y="38.1997">example</text></g><g class="entity" data-entity="GMN40" data-source-line="76" data-uid="ent0041" id="entity_GMN40"><path d="M933.23,16 L933.23,36.2656 A10,10 0 0 0 943.23,46.2656 L1108.4629,46.2656 A10,10 0 0 0 1118.4629,36.2656 L1118.4629,24.09 L1168.16,20.09 L1118.4629,16.09 L1118.4629,16 L1108.4629,6 L943.23,6 A10,10 0 0 0 933.23,16" fill="#FFA500" style="stroke:#444444;stroke-width:0.5;"/><path d="M1108.4629,6 L1108.4629,11 A5,5 0 0 0 1113.4629,16 L1118.4629,16 L1108.4629,6" fill="#FFA500" style="stroke:#444444;stroke-width:0.5;"/><text fill="#000000" font-family="Sans-Serif" font-size="13" lengthAdjust="spacing" textLength="71.811" x="939.23" y="23.0669">Supersonic</text><text fill="#000000" font-family="Sans-Serif" font-size="13" lengthAdjust="spacing" textLength="4.1323" x="1011.041" y="23.0669">&#160;</text><text fill="#000000" font-family="Sans-Serif" font-size="13" lengthAdjust="spacing" textLength="39.1143" x="1015.1734" y="23.0669">cruise</text><text fill="#000000" font-family="Sans-Serif" font-size="13" lengthAdjust="spacing" textLength="4.1323" x="1054.2876" y="23.0669">&#160;</text><text fill="#000000" font-family="Sans-Serif" font-size="13" lengthAdjust="spacing" textLength="45.043" x="1058.4199" y="23.0669">missile</text><text fill="#000000" font-family="Sans-Serif" font-size="13" lengthAdjust="spacing" textLength="56.1831" x="993.2549" y="38.1997">example</text></g><g class="entity" data-entity="GMN43" data-source-line="80" data-uid="ent0044" id="entity_GMN43"><path d="M1136.85,133.83 L1136.85,138.9628 A10,10 0 0 0 1146.85,148.9628 L1302.828,148.9628 A10,10 0 0 0 1312.828,138.9628 L1312.828,133.83 L1302.828,123.83 L1146.85,123.83 A10,10 0 0 0 1136.85,133.83" fill="#FFA500" style="stroke:#444444;stroke-width:0.5;"/><path d="M1302.828,123.83 L1302.828,128.83 A5,5 0 0 0 1307.828,133.83 L1312.828,133.83 L1302.828,123.83" fill="#FFA500" style="stroke:#444444;stroke-width:1;"/><text fill="#000000" font-family="Sans-Serif" font-size="13" lengthAdjust="spacing" textLength="40.752" x="1142.85" y="140.8969">Speed</text><text fill="#000000" font-family="Sans-Serif" font-size="13" lengthAdjust="spacing" textLength="4.1323" x="1183.602" y="140.8969">&#160;</text><text fill="#000000" font-family="Sans-Serif" font-size="13" lengthAdjust="spacing" textLength="49.3213" x="1187.7343" y="140.8969">relative</text><text fill="#000000" font-family="Sans-Serif" font-size="13" lengthAdjust="spacing" textLength="4.1323" x="1237.0556" y="140.8969">&#160;</text><text fill="#000000" font-family="Sans-Serif" font-size="13" lengthAdjust="spacing" textLength="13.0508" x="1241.1879" y="140.8969">to</text><text fill="#000000" font-family="Sans-Serif" font-size="13" lengthAdjust="spacing" textLength="4.1323" x="1254.2387" y="140.8969">&#160;</text><text fill="#000000" font-family="Sans-Serif" font-size="13" lengthAdjust="spacing" textLength="39.457" x="1258.371" y="140.8969">sound</text></g><g class="entity" data-entity="GMN46" data-source-line="84" data-uid="ent0047" id="entity_GMN46"><path d="M278.44,350.39 L278.44,355.5228 A10,10 0 0 0 288.44,365.5228 L481.2535,365.5228 A10,10 0 0 0 491.2535,355.5228 L491.2535,350.39 L481.2535,340.39 L388.84,340.39 L384.84,263.04 L380.84,340.39 L288.44,340.39 A10,10 0 0 0 278.44,350.39" fill="#FFA500" style="stroke:#444444;stroke-width:0.5;"/><path d="M481.2535,340.39 L481.2535,345.39 A5,5 0 0 0 486.2535,350.39 L491.2535,350.39 L481.2535,340.39" fill="#FFA500" style="stroke:#444444;stroke-width:0.5;"/><text fill="#000000" font-family="Sans-Serif" font-size="13" lengthAdjust="spacing" textLength="29.1421" x="284.44" y="357.4569">Path</text><text fill="#000000" font-family="Sans-Serif" font-size="13" lengthAdjust="spacing" textLength="4.1323" x="313.5821" y="357.4569">&#160;</text><text fill="#000000" font-family="Sans-Serif" font-size="13" lengthAdjust="spacing" textLength="30.9829" x="317.7144" y="357.4569">after</text><text fill="#000000" font-family="Sans-Serif" font-size="13" lengthAdjust="spacing" textLength="4.1323" x="348.6973" y="357.4569">&#160;</text><text fill="#000000" font-family="Sans-Serif" font-size="13" lengthAdjust="spacing" textLength="35.75" x="352.8296" y="357.4569">initial</text><text fill="#000000" font-family="Sans-Serif" font-size="13" lengthAdjust="spacing" textLength="4.1323" x="388.5796" y="357.4569">&#160;</text><text fill="#000000" font-family="Sans-Serif" font-size="13" lengthAdjust="spacing" textLength="40.1807" x="392.712" y="357.4569">power</text><text fill="#000000" font-family="Sans-Serif" font-size="13" lengthAdjust="spacing" textLength="4.1323" x="432.8926" y="357.4569">&#160;</text><text fill="#000000" font-family="Sans-Serif" font-size="13" lengthAdjust="spacing" textLength="39.2285" x="437.025" y="357.4569">phase</text></g><!--link Ballistic Missile to Ballistic Trajectory--><g class="link" data-entity-1="Ballistic Missile" data-entity-2="Ballistic Trajectory" data-source-line="37" data-uid="lnk12" id="link_Ballistic Missile_Ballistic Trajectory"><path codeLine="37" d="M352.91,154.76 C352.91,174.67 352.91,200.27 352.91,220.22" fill="none" id="Ballistic Missile-to-Ballistic Trajectory" style="stroke:#FFFFFF;stroke-width:1.5;"/><polygon fill="#FFFFFF" points="352.91,226.22,356.91,217.22,352.91,221.22,348.91,217.22,352.91,226.22" style="stroke:#FFFFFF;stroke-width:1.5;"/></g><!--reverse link Ballistic Missile to Propulsion--><g class="link" data-entity-1="Ballistic Missile" data-entity-2="Propulsion" data-source-line="38" data-uid="lnk13" id="link_Ballistic Missile_Propulsion"><path codeLine="38" d="M298.68,137.09 C289.01,137.09 294.18,137.09 294.18,137.09 C294.18,137.09 294.18,245.09 294.18,245.09 C294.18,245.09 278.25,245.09 260.57,245.09" fill="none" id="Ballistic Missile-backto-Propulsion" style="stroke:#FFFFFF;stroke-width:1.5;"/><polygon fill="none" points="310.68,137.09,304.68,133.09,298.68,137.09,304.68,141.09,310.68,137.09" style="stroke:#FFFFFF;stroke-width:1.5;"/></g><!--reverse link Cruise Missile to Propulsion--><g class="link" data-entity-1="Cruise Missile" data-entity-2="Propulsion" data-source-line="39" data-uid="lnk14" id="link_Cruise Missile_Propulsion"><path codeLine="39" d="M977.64,166.93 C977.64,178.83 977.64,180.09 977.64,180.09 C977.64,180.09 229.35,180.09 229.35,180.09 C229.35,180.09 229.35,207.25 229.35,226.34" fill="none" id="Cruise Missile-backto-Propulsion" style="stroke:#FFFFFF;stroke-width:1.5;"/><polygon fill="none" points="977.64,154.93,973.64,160.93,977.64,166.93,981.64,160.93,977.64,154.93" style="stroke:#FFFFFF;stroke-width:1.5;"/></g><!--reverse link Ballistic Missile to Range Classification--><g class="link" data-entity-1="Ballistic Missile" data-entity-2="Range Classification" data-source-line="40" data-uid="lnk15" id="link_Ballistic Missile_Range Classification"><path codeLine="40" d="M449.14,143.09 C468.76,143.09 473.34,143.09 473.34,143.09 C473.34,143.09 473.34,245.09 473.34,245.09 C473.34,245.09 649.07,245.09 756.49,245.09" fill="none" id="Ballistic Missile-backto-Range Classification" style="stroke:#FFFFFF;stroke-width:1.5;"/><polygon fill="none" points="437.14,143.09,443.14,147.09,449.14,143.09,443.14,139.09,437.14,143.09" style="stroke:#FFFFFF;stroke-width:1.5;"/></g><!--reverse link Cruise Missile to Range Classification--><g class="link" data-entity-1="Cruise Missile" data-entity-2="Range Classification" data-source-line="41" data-uid="lnk16" id="link_Cruise Missile_Range Classification"><path codeLine="41" d="M984.24,166.83 C984.24,197.84 984.24,245.09 984.24,245.09 C984.24,245.09 952.87,245.09 919.18,245.09" fill="none" id="Cruise Missile-backto-Range Classification" style="stroke:#FFFFFF;stroke-width:1.5;"/><polygon fill="none" points="984.24,154.83,980.24,160.83,984.24,166.83,988.24,160.83,984.24,154.83" style="stroke:#FFFFFF;stroke-width:1.5;"/></g><!--reverse link Ballistic Missile to Velocity--><g class="link" data-entity-1="Ballistic Missile" data-entity-2="Velocity" data-source-line="42" data-uid="lnk17" id="link_Ballistic Missile_Velocity"><path codeLine="42" d="M394.78,166.89 C394.78,186.94 394.78,204.09 394.78,204.09 C394.78,204.09 1016.17,204.09 1016.17,204.09 C1016.17,204.09 1016.17,215.54 1016.17,226.28" fill="none" id="Ballistic Missile-backto-Velocity" style="stroke:#FFFFFF;stroke-width:1.5;"/><polygon fill="none" points="394.78,154.89,390.78,160.89,394.78,166.89,398.78,160.89,394.78,154.89" style="stroke:#FFFFFF;stroke-width:1.5;"/></g><!--reverse link Cruise Missile to Velocity--><g class="link" data-entity-1="Cruise Missile" data-entity-2="Velocity" data-source-line="43" data-uid="lnk18" id="link_Cruise Missile_Velocity"><path codeLine="43" d="M1041.51,166.76 C1041.51,186.67 1041.51,206.27 1041.51,226.22" fill="none" id="Cruise Missile-backto-Velocity" style="stroke:#FFFFFF;stroke-width:1.5;"/><polygon fill="none" points="1041.51,154.76,1037.51,160.76,1041.51,166.76,1045.51,160.76,1041.51,154.76" style="stroke:#FFFFFF;stroke-width:1.5;"/></g><!--reverse link Propulsion to Rocket Propulsion--><g class="link" data-entity-1="Propulsion" data-entity-2="Rocket Propulsion" data-source-line="45" data-uid="lnk19" id="link_Propulsion_Rocket Propulsion"><path codeLine="45" d="M154.83,245.09 C127.64,245.09 110.77,245.09 110.77,245.09 C110.77,245.09 110.77,303.88 110.77,334.66" fill="none" id="Propulsion-backto-Rocket Propulsion" style="stroke:#FFFFFF;stroke-width:1.5;"/><polygon fill="#FFFFFF" points="166.83,245.09,160.83,241.09,154.83,245.09,160.83,249.09,166.83,245.09" style="stroke:#FFFFFF;stroke-width:1.5;"/></g><!--reverse link Propulsion to Jet Propulsion--><g class="link" data-entity-1="Propulsion" data-entity-2="Jet Propulsion" data-source-line="46" data-uid="lnk20" id="link_Propulsion_Jet Propulsion"><path codeLine="46" d="M213.84,275.06 C213.84,290.51 213.84,298.09 213.84,298.09 C213.84,298.09 610.84,298.09 610.84,298.09 C610.84,298.09 610.84,318.46 610.84,334.38" fill="none" id="Propulsion-backto-Jet Propulsion" style="stroke:#FFFFFF;stroke-width:1.5;"/><polygon fill="#FFFFFF" points="213.84,263.06,209.84,269.06,213.84,275.06,217.84,269.06,213.84,263.06" style="stroke:#FFFFFF;stroke-width:1.5;"/></g><!--link Agni-V to Ballistic Missile--><g class="link" data-entity-1="Agni-V" data-entity-2="Ballistic Missile" data-source-line="48" data-uid="lnk21" id="link_Agni-V_Ballistic Missile"><path codeLine="48" d="M183.84,44.43 C183.84,64.25 183.84,93.09 183.84,93.09 C183.84,93.09 373.84,93.09 373.84,93.09 C373.84,93.09 373.84,100.04 373.84,111.78" fill="none" id="Agni-V-to-Ballistic Missile" style="stroke:#FFFFFF;stroke-width:1.5;stroke-dasharray:7.0,7.0;"/><polygon fill="#FFFFFF" points="373.84,117.78,377.84,108.78,373.84,112.78,369.84,108.78,373.84,117.78" style="stroke:#FFFFFF;stroke-width:1.5;"/></g><!--link BrahMos to Cruise Missile--><g class="link" data-entity-1="BrahMos" data-entity-2="Cruise Missile" data-source-line="49" data-uid="lnk22" id="link_BrahMos_Cruise Missile"><path codeLine="49" d="M1168.25,33.09 C1147.95,33.09 1127.66,33.09 1127.66,33.09 C1127.66,33.09 1127.66,137.09 1127.66,137.09 C1127.66,137.09 1114.4,137.09 1092.89,137.09" fill="none" id="BrahMos-to-Cruise Missile" style="stroke:#FFFFFF;stroke-width:1.5;stroke-dasharray:7.0,7.0;"/><polygon fill="#FFFFFF" points="1086.89,137.09,1095.89,141.09,1091.89,137.09,1095.89,133.09,1086.89,137.09" style="stroke:#FFFFFF;stroke-width:1.5;"/></g><!--link Agni-V to Rocket Propulsion--><g class="link" data-entity-1="Agni-V" data-entity-2="Rocket Propulsion" data-source-line="51" data-uid="lnk23" id="link_Agni-V_Rocket Propulsion"><path codeLine="51" d="M150.73,27.09 C107.68,27.09 37.92,27.09 37.92,27.09 C37.92,27.09 37.92,259.57 37.92,328.5" fill="none" id="Agni-V-to-Rocket Propulsion" style="stroke:#FFFFFF;stroke-width:1.5;"/><polygon fill="#FFFFFF" points="37.92,334.5,41.92,325.5,37.92,329.5,33.92,325.5,37.92,334.5" style="stroke:#FFFFFF;stroke-width:1.5;"/></g><!--link BrahMos to Jet Propulsion--><g class="link" data-entity-1="BrahMos" data-entity-2="Jet Propulsion" data-source-line="52" data-uid="lnk24" id="link_BrahMos_Jet Propulsion"><path codeLine="52" d="M1208.84,44.77 C1208.84,56.75 1208.84,70.09 1208.84,70.09 C1208.84,70.09 711.84,70.09 711.84,70.09 C711.84,70.09 711.84,353.09 711.84,353.09 C711.84,353.09 697.46,353.09 675.01,353.09" fill="none" id="BrahMos-to-Jet Propulsion" style="stroke:#FFFFFF;stroke-width:1.5;"/><polygon fill="#FFFFFF" points="669.01,353.09,678.01,357.09,674.01,353.09,678.01,349.09,669.01,353.09" style="stroke:#FFFFFF;stroke-width:1.5;"/></g><!--link GMN43 to Velocity--><g class="link" data-entity-1="GMN43" data-entity-2="Velocity" data-source-line="80" data-uid="lnk45" id="link_GMN43_Velocity"><path d="M1224.84,149.29 C1224.84,178.08 1224.84,245.09 1224.84,245.09 C1224.84,245.09 1124.14,245.09 1067.1,245.09" fill="none" id="GMN43-Velocity" style="stroke:#FFFFFF;stroke-width:1.5;stroke-dasharray:7.0,7.0;"/></g><!--SRC=[ZLLDR-8m4BtdLupeeT9ALDsFgksb4g0YxKfTLQLgpyQP95uSsngRfVttEp41Gd3QvG0ey_BcpPiPMsXjDxLwKwRC_4eP9qZKi1HoLP9TctncjIKu-nu_7OHM1iExGx0KAji969kZHmTNbvs79CogUNZTVLYZzwB4YLQbgT44aFo5r47aM8Yr3i_u5Zv06HjmQYb7QiN-Y9y-eb_IV3wvkkpgcH3PpJQugLJ0VkYvKd9bM3HylRZg13SatAlAGmNVZlXQzNDhmczH8umMmlZn0aaLevwupp2jRZ98dAGJy9N8xOQR1uNG7jFPjpKjDJkGo9kE4ieWJAd_1z8rV-jSTWwJfGyaP82PDH9TyDaU3wEfq5hve2GyAE-LnX6StLpFxk-dNTICrihZXv17icwjlR8c6NxYNuIP5inGA2d24F05jPKgl2U3azAeyKioD2LHFLX_Y77bh4dobE10nSya_l1pIqsosvlvzFRcIBALAmnmLDWfwjS0XDC_eOvr-aevdwMi7e_l1WGbuNOyFZ8wEsdCAMA89jcG0S81x13rleK3T8TuTZGsNsAk4zSJe9xfpBERZ8kBkzHGPuVvY8YUhWv1R4bAn9uW8auKdCE2jonWoLcRXGR7Iuhnd2oQbHLQyFPbCKIgh0BO8gaKO6wRgy33sZYxGSAyURk5EH6g34qUSsHREet5bgrV5S1ZIo3vx22cvR-5RhBtEO9raQ9R4y03oaeOvUjOGubywd7p-OmB5Qtz2SdIXc3ho9CU6TXfuoDBo8hhyesunZPBYlUqHtWmgcqFC_niBfsc7hxtJ12wOqxTakERg9t6GPzshMIsnTeXUMluRRbrxnEIdL678MOIXrm6nNN_sq30DzV41_QaTvxxnUq5KN25e8mAYikBCm2kOglsXFy0]--></g></svg>