<svg xmlns="http://www.w3.org/2000/svg" xmlns:xlink="http://www.w3.org/1999/xlink" contentStyleType="text/css" data-diagram-type="CLASS" height="604px" preserveAspectRatio="none" style="width:819px;height:604px;background:#333333;" version="1.1" viewBox="0 0 819 604" width="819px" zoomAndPan="magnify"><defs/><g><rect fill="#333333" height="604" style="stroke:none;stroke-width:1;" width="819" x="0" y="0"/><!--entity Hydrology--><g class="entity" data-entity="Hydrology" data-source-line="23" data-uid="ent0002" id="entity_Hydrology"><rect fill="#87CEEB" height="36.2969" rx="10" ry="10" style="stroke:#FFFFFF;stroke-width:0.5;" width="91.6475" x="7" y="7.99"/><text fill="#000000" font-family="Sans-Serif" font-size="14" lengthAdjust="spacing" textLength="71.6475" x="17" y="30.9851">Hydrology</text></g><!--entity Civil Engineering--><g class="entity" data-entity="Civil Engineering" data-source-line="24" data-uid="ent0003" id="entity_Civil Engineering"><rect fill="#87CEEB" height="36.2969" rx="10" ry="10" style="stroke:#FFFFFF;stroke-width:0.5;" width="138.1797" x="675.73" y="7.99"/><text fill="#000000" font-family="Sans-Serif" font-size="14" lengthAdjust="spacing" textLength="29.7295" x="685.73" y="30.9851">Civil</text><text fill="#000000" font-family="Sans-Serif" font-size="14" lengthAdjust="spacing" textLength="4.4502" x="715.4595" y="30.9851">&#160;</text><text fill="#000000" font-family="Sans-Serif" font-size="14" lengthAdjust="spacing" textLength="84" x="719.9097" y="30.9851">Engineering</text></g><!--entity Dams--><g class="entity" data-entity="Dams" data-source-line="27" data-uid="ent0004" id="entity_Dams"><rect fill="#98FB98" height="36.2969" rx="10" ry="10" style="stroke:#FFFFFF;stroke-width:0.5;" width="60.291" x="128.68" y="118.25"/><text fill="#000000" font-family="Sans-Serif" font-size="14" lengthAdjust="spacing" textLength="40.291" x="138.68" y="141.2451">Dams</text></g><!--entity Channels--><g class="entity" data-entity="Channels" data-source-line="28" data-uid="ent0005" id="entity_Channels"><rect fill="#98FB98" height="36.2969" rx="10" ry="10" style="stroke:#FFFFFF;stroke-width:0.5;" width="84.7705" x="325.44" y="226.54"/><text fill="#000000" font-family="Sans-Serif" font-size="14" lengthAdjust="spacing" textLength="64.7705" x="335.44" y="249.5351">Channels</text></g><!--entity Reservoirs--><g class="entity" data-entity="Reservoirs" data-source-line="29" data-uid="ent0006" id="entity_Reservoirs"><rect fill="#98FB98" height="36.2969" rx="10" ry="10" style="stroke:#FFFFFF;stroke-width:0.5;" width="93.7939" x="320.93" y="334.82"/><text fill="#000000" font-family="Sans-Serif" font-size="14" lengthAdjust="spacing" textLength="73.7939" x="330.93" y="357.8151">Reservoirs</text></g><!--entity Dholavira--><g class="entity" data-entity="Dholavira" data-source-line="32" data-uid="ent0007" id="entity_Dholavira"><rect fill="#F5DEB3" height="36.2969" rx="10" ry="10" style="stroke:#FFFFFF;stroke-width:0.5;" width="87.1973" x="324.23" y="445.08"/><text fill="#000000" font-family="Sans-Serif" font-size="14" lengthAdjust="spacing" textLength="67.1973" x="334.23" y="468.0751">Dholavira</text></g><!--entity Urban Planning--><g class="entity" data-entity="Urban Planning" data-source-line="35" data-uid="ent0008" id="entity_Urban Planning"><rect fill="#E6E6FA" height="36.2969" rx="10" ry="10" style="stroke:#FFFFFF;stroke-width:0.5;" width="127.0986" x="100.27" y="555.35"/><text fill="#000000" font-family="Sans-Serif" font-size="14" lengthAdjust="spacing" textLength="42.3418" x="110.27" y="578.3451">Urban</text><text fill="#000000" font-family="Sans-Serif" font-size="14" lengthAdjust="spacing" textLength="4.4502" x="152.6118" y="578.3451">&#160;</text><text fill="#000000" font-family="Sans-Serif" font-size="14" lengthAdjust="spacing" textLength="60.3066" x="157.062" y="578.3451">Planning</text></g><g class="entity" data-entity="GMN19" data-source-line="53" data-uid="ent0020" id="entity_GMN19"><path d="M238.48,126.27 L238.48,132.63 L189.42,136.63 L238.48,140.63 L238.48,146.5356 A10,10 0 0 0 248.48,156.5356 L425.1577,156.5356 A10,10 0 0 0 435.1577,146.5356 L435.1577,126.27 L425.1577,116.27 L248.48,116.27 A10,10 0 0 0 238.48,126.27" fill="#FFA500" style="stroke:#444444;stroke-width:0.5;"/><path d="M425.1577,116.27 L425.1577,121.27 A5,5 0 0 0 430.1577,126.27 L435.1577,126.27 L425.1577,116.27" fill="#FFA500" style="stroke:#444444;stroke-width:0.5;"/><text fill="#000000" font-family="Sans-Serif" font-size="13" lengthAdjust="spacing" textLength="47.2773" x="244.48" y="133.3369">Control</text><text fill="#000000" font-family="Sans-Serif" font-size="13" lengthAdjust="spacing" textLength="4.1323" x="291.7573" y="133.3369">&#160;</text><text fill="#000000" font-family="Sans-Serif" font-size="13" lengthAdjust="spacing" textLength="24.4575" x="295.8897" y="133.3369">and</text><text fill="#000000" font-family="Sans-Serif" font-size="13" lengthAdjust="spacing" textLength="4.1323" x="320.3472" y="133.3369">&#160;</text><text fill="#000000" font-family="Sans-Serif" font-size="13" lengthAdjust="spacing" textLength="54.5073" x="324.4795" y="133.3369">regulate</text><text fill="#000000" font-family="Sans-Serif" font-size="13" lengthAdjust="spacing" textLength="4.1323" x="378.9868" y="133.3369">&#160;</text><text fill="#000000" font-family="Sans-Serif" font-size="13" lengthAdjust="spacing" textLength="37.0386" x="383.1192" y="133.3369">water</text><text fill="#000000" font-family="Sans-Serif" font-size="13" lengthAdjust="spacing" textLength="26.7744" x="318.9317" y="148.4697">flow</text></g><g class="entity" data-entity="GMN22" data-source-line="57" data-uid="ent0023" id="entity_GMN22"><path d="M484.87,126.27 L484.87,146.5356 A10,10 0 0 0 494.87,156.5356 L658.7763,156.5356 A10,10 0 0 0 668.7763,146.5356 L668.7763,126.27 L658.7763,116.27 L494.87,116.27 A10,10 0 0 0 484.87,126.27" fill="#FFA500" style="stroke:#444444;stroke-width:0.5;"/><path d="M658.7763,116.27 L658.7763,121.27 A5,5 0 0 0 663.7763,126.27 L668.7763,126.27 L658.7763,116.27" fill="#FFA500" style="stroke:#444444;stroke-width:1;"/><text fill="#000000" font-family="Sans-Serif" font-size="13" lengthAdjust="spacing" textLength="74.147" x="490.87" y="133.3369">Engineered</text><text fill="#000000" font-family="Sans-Serif" font-size="13" lengthAdjust="spacing" textLength="4.1323" x="565.017" y="133.3369">&#160;</text><text fill="#000000" font-family="Sans-Serif" font-size="13" lengthAdjust="spacing" textLength="62.6196" x="569.1493" y="133.3369">pathways</text><text fill="#000000" font-family="Sans-Serif" font-size="13" lengthAdjust="spacing" textLength="4.1323" x="631.7689" y="133.3369">&#160;</text><text fill="#000000" font-family="Sans-Serif" font-size="13" lengthAdjust="spacing" textLength="17.875" x="635.9013" y="133.3369">for</text><text fill="#000000" font-family="Sans-Serif" font-size="13" lengthAdjust="spacing" textLength="37.0386" x="512.6996" y="148.4697">water</text><text fill="#000000" font-family="Sans-Serif" font-size="13" lengthAdjust="spacing" textLength="4.1323" x="549.7382" y="148.4697">&#160;</text><text fill="#000000" font-family="Sans-Serif" font-size="13" lengthAdjust="spacing" textLength="78.0762" x="553.8705" y="148.4697">conveyance</text></g><g class="entity" data-entity="GMN25" data-source-line="61" data-uid="ent0026" id="entity_GMN25"><path d="M93.13,342.83 L93.13,363.0956 A10,10 0 0 0 103.13,373.0956 L260.5172,373.0956 A10,10 0 0 0 270.5172,363.0956 L270.5172,357.63 L320.66,353.63 L270.5172,349.63 L270.5172,342.83 L260.5172,332.83 L103.13,332.83 A10,10 0 0 0 93.13,342.83" fill="#FFA500" style="stroke:#444444;stroke-width:0.5;"/><path d="M260.5172,332.83 L260.5172,337.83 A5,5 0 0 0 265.5172,342.83 L270.5172,342.83 L260.5172,332.83" fill="#FFA500" style="stroke:#444444;stroke-width:0.5;"/><text fill="#000000" font-family="Sans-Serif" font-size="13" lengthAdjust="spacing" textLength="53.4727" x="99.13" y="349.8969">Artificial</text><text fill="#000000" font-family="Sans-Serif" font-size="13" lengthAdjust="spacing" textLength="4.1323" x="152.6027" y="349.8969">&#160;</text><text fill="#000000" font-family="Sans-Serif" font-size="13" lengthAdjust="spacing" textLength="35.604" x="156.735" y="349.8969">tanks</text><text fill="#000000" font-family="Sans-Serif" font-size="13" lengthAdjust="spacing" textLength="4.1323" x="192.339" y="349.8969">&#160;</text><text fill="#000000" font-family="Sans-Serif" font-size="13" lengthAdjust="spacing" textLength="17.875" x="196.4713" y="349.8969">for</text><text fill="#000000" font-family="Sans-Serif" font-size="13" lengthAdjust="spacing" textLength="4.1323" x="214.3463" y="349.8969">&#160;</text><text fill="#000000" font-family="Sans-Serif" font-size="13" lengthAdjust="spacing" textLength="37.0386" x="218.4786" y="349.8969">water</text><text fill="#000000" font-family="Sans-Serif" font-size="13" lengthAdjust="spacing" textLength="49.3848" x="152.6312" y="365.0297">storage</text></g><g class="entity" data-entity="GMN28" data-source-line="65" data-uid="ent0029" id="entity_GMN28"><path d="M277,563.36 L277,583.6256 A10,10 0 0 0 287,593.6256 L472.6406,593.6256 A10,10 0 0 0 482.6406,583.6256 L482.6406,563.36 L472.6406,553.36 L371.82,553.36 L367.82,481.44 L363.82,553.36 L287,553.36 A10,10 0 0 0 277,563.36" fill="#FFA500" style="stroke:#444444;stroke-width:0.5;"/><path d="M472.6406,553.36 L472.6406,558.36 A5,5 0 0 0 477.6406,563.36 L482.6406,563.36 L472.6406,553.36" fill="#FFA500" style="stroke:#444444;stroke-width:0.5;"/><text fill="#000000" font-family="Sans-Serif" font-size="13" lengthAdjust="spacing" textLength="49.2261" x="283" y="570.4269">Ancient</text><text fill="#000000" font-family="Sans-Serif" font-size="13" lengthAdjust="spacing" textLength="4.1323" x="332.2261" y="570.4269">&#160;</text><text fill="#000000" font-family="Sans-Serif" font-size="13" lengthAdjust="spacing" textLength="31.9224" x="336.3584" y="570.4269">town</text><text fill="#000000" font-family="Sans-Serif" font-size="13" lengthAdjust="spacing" textLength="4.1323" x="368.2808" y="570.4269">&#160;</text><text fill="#000000" font-family="Sans-Serif" font-size="13" lengthAdjust="spacing" textLength="27.5806" x="372.4131" y="570.4269">with</text><text fill="#000000" font-family="Sans-Serif" font-size="13" lengthAdjust="spacing" textLength="4.1323" x="399.9937" y="570.4269">&#160;</text><text fill="#000000" font-family="Sans-Serif" font-size="13" lengthAdjust="spacing" textLength="63.5146" x="404.126" y="570.4269">advanced</text><text fill="#000000" font-family="Sans-Serif" font-size="13" lengthAdjust="spacing" textLength="37.0386" x="320.1274" y="585.5597">water</text><text fill="#000000" font-family="Sans-Serif" font-size="13" lengthAdjust="spacing" textLength="4.1323" x="357.166" y="585.5597">&#160;</text><text fill="#000000" font-family="Sans-Serif" font-size="13" lengthAdjust="spacing" textLength="69.2148" x="361.2983" y="585.5597">harvesting</text></g><g class="entity" data-entity="GMN31" data-source-line="69" data-uid="ent0032" id="entity_GMN31"><path d="M148.5,16 L148.5,16.63 L99.04,20.63 L148.5,24.63 L148.5,36.2656 A10,10 0 0 0 158.5,46.2656 L337.1392,46.2656 A10,10 0 0 0 347.1392,36.2656 L347.1392,16 L337.1392,6 L158.5,6 A10,10 0 0 0 148.5,16" fill="#FFA500" style="stroke:#444444;stroke-width:0.5;"/><path d="M337.1392,6 L337.1392,11 A5,5 0 0 0 342.1392,16 L347.1392,16 L337.1392,6" fill="#FFA500" style="stroke:#444444;stroke-width:0.5;"/><text fill="#000000" font-family="Sans-Serif" font-size="13" lengthAdjust="spacing" textLength="59.2935" x="154.5" y="23.0669">Scientific</text><text fill="#000000" font-family="Sans-Serif" font-size="13" lengthAdjust="spacing" textLength="4.1323" x="213.7935" y="23.0669">&#160;</text><text fill="#000000" font-family="Sans-Serif" font-size="13" lengthAdjust="spacing" textLength="36.0547" x="217.9258" y="23.0669">study</text><text fill="#000000" font-family="Sans-Serif" font-size="13" lengthAdjust="spacing" textLength="4.1323" x="253.9805" y="23.0669">&#160;</text><text fill="#000000" font-family="Sans-Serif" font-size="13" lengthAdjust="spacing" textLength="12.5303" x="258.1128" y="23.0669">of</text><text fill="#000000" font-family="Sans-Serif" font-size="13" lengthAdjust="spacing" textLength="4.1323" x="270.6431" y="23.0669">&#160;</text><text fill="#000000" font-family="Sans-Serif" font-size="13" lengthAdjust="spacing" textLength="37.0386" x="274.7754" y="23.0669">water</text><text fill="#000000" font-family="Sans-Serif" font-size="13" lengthAdjust="spacing" textLength="4.1323" x="311.814" y="23.0669">&#160;</text><text fill="#000000" font-family="Sans-Serif" font-size="13" lengthAdjust="spacing" textLength="16.1929" x="315.9463" y="23.0669">on</text><text fill="#000000" font-family="Sans-Serif" font-size="13" lengthAdjust="spacing" textLength="34.8613" x="225.8889" y="38.1997">Earth</text></g><g class="entity" data-entity="GMN34" data-source-line="73" data-uid="ent0035" id="entity_GMN34"><path d="M446.1,16 L446.1,36.2656 A10,10 0 0 0 456.1,46.2656 L615.5502,46.2656 A10,10 0 0 0 625.5502,36.2656 L625.5502,30.63 L675.45,26.63 L625.5502,22.63 L625.5502,16 L615.5502,6 L456.1,6 A10,10 0 0 0 446.1,16" fill="#FFA500" style="stroke:#444444;stroke-width:0.5;"/><path d="M615.5502,6 L615.5502,11 A5,5 0 0 0 620.5502,16 L625.5502,16 L615.5502,6" fill="#FFA500" style="stroke:#444444;stroke-width:0.5;"/><text fill="#000000" font-family="Sans-Serif" font-size="13" lengthAdjust="spacing" textLength="44.8843" x="452.1" y="23.0669">Design</text><text fill="#000000" font-family="Sans-Serif" font-size="13" lengthAdjust="spacing" textLength="4.1323" x="496.9843" y="23.0669">&#160;</text><text fill="#000000" font-family="Sans-Serif" font-size="13" lengthAdjust="spacing" textLength="24.4575" x="501.1166" y="23.0669">and</text><text fill="#000000" font-family="Sans-Serif" font-size="13" lengthAdjust="spacing" textLength="4.1323" x="525.5741" y="23.0669">&#160;</text><text fill="#000000" font-family="Sans-Serif" font-size="13" lengthAdjust="spacing" textLength="80.8438" x="529.7064" y="23.0669">construction</text><text fill="#000000" font-family="Sans-Serif" font-size="13" lengthAdjust="spacing" textLength="62.8418" x="499.9042" y="38.1997">principles</text></g><g class="entity" data-entity="GMN37" data-source-line="77" data-uid="ent0038" id="entity_GMN37"><path d="M65.4,453.1 L65.4,473.3656 A10,10 0 0 0 75.4,483.3656 L159.82,483.3656 L163.82,554.96 L167.82,483.3656 L252.2491,483.3656 A10,10 0 0 0 262.2491,473.3656 L262.2491,453.1 L252.2491,443.1 L75.4,443.1 A10,10 0 0 0 65.4,453.1" fill="#FFA500" style="stroke:#444444;stroke-width:0.5;"/><path d="M252.2491,443.1 L252.2491,448.1 A5,5 0 0 0 257.2491,453.1 L262.2491,453.1 L252.2491,443.1" fill="#FFA500" style="stroke:#444444;stroke-width:0.5;"/><text fill="#000000" font-family="Sans-Serif" font-size="13" lengthAdjust="spacing" textLength="83.3384" x="71.4" y="460.1669">Organization</text><text fill="#000000" font-family="Sans-Serif" font-size="13" lengthAdjust="spacing" textLength="4.1323" x="154.7384" y="460.1669">&#160;</text><text fill="#000000" font-family="Sans-Serif" font-size="13" lengthAdjust="spacing" textLength="24.4575" x="158.8707" y="460.1669">and</text><text fill="#000000" font-family="Sans-Serif" font-size="13" lengthAdjust="spacing" textLength="4.1323" x="183.3282" y="460.1669">&#160;</text><text fill="#000000" font-family="Sans-Serif" font-size="13" lengthAdjust="spacing" textLength="43.126" x="187.4605" y="460.1669">design</text><text fill="#000000" font-family="Sans-Serif" font-size="13" lengthAdjust="spacing" textLength="4.1323" x="230.5865" y="460.1669">&#160;</text><text fill="#000000" font-family="Sans-Serif" font-size="13" lengthAdjust="spacing" textLength="12.5303" x="234.7188" y="460.1669">of</text><text fill="#000000" font-family="Sans-Serif" font-size="13" lengthAdjust="spacing" textLength="77.3462" x="120.6515" y="475.2997">settlements</text></g><!--link Dams to Channels--><g class="link" data-entity-1="Dams" data-entity-2="Channels" data-source-line="38" data-uid="lnk9" id="link_Dams_Channels"><path codeLine="38" d="M158.82,154.86 C158.82,184.55 158.82,239.63 158.82,239.63 C158.82,239.63 257.88,239.63 319.03,239.63" fill="none" id="Dams-to-Channels" style="stroke:#FFFFFF;stroke-width:1.5;"/><polygon fill="#FFFFFF" points="325.03,239.63,316.03,235.63,320.03,239.63,316.03,243.63,325.03,239.63" style="stroke:#FFFFFF;stroke-width:1.5;"/></g><!--link Channels to Reservoirs--><g class="link" data-entity-1="Channels" data-entity-2="Reservoirs" data-source-line="39" data-uid="lnk10" id="link_Channels_Reservoirs"><path codeLine="39" d="M381.95,263.05 C381.95,282.96 381.95,308.56 381.95,328.51" fill="none" id="Channels-to-Reservoirs" style="stroke:#FFFFFF;stroke-width:1.5;"/><polygon fill="#FFFFFF" points="381.95,334.51,385.95,325.51,381.95,329.51,377.95,325.51,381.95,334.51" style="stroke:#FFFFFF;stroke-width:1.5;"/></g><!--link Reservoirs to Dholavira--><g class="link" data-entity-1="Reservoirs" data-entity-2="Dholavira" data-source-line="40" data-uid="lnk11" id="link_Reservoirs_Dholavira"><path codeLine="40" d="M367.82,371.17 C367.82,391.48 367.82,418.16 367.82,438.63" fill="none" id="Reservoirs-to-Dholavira" style="stroke:#FFFFFF;stroke-width:1.5;"/><polygon fill="#FFFFFF" points="367.82,444.63,371.82,435.63,367.82,439.63,363.82,435.63,367.82,444.63" style="stroke:#FFFFFF;stroke-width:1.5;"/></g><!--link Dholavira to Urban Planning--><g class="link" data-entity-1="Dholavira" data-entity-2="Urban Planning" data-source-line="41" data-uid="lnk12" id="link_Dholavira_Urban Planning"><path codeLine="41" d="M323.92,463.63 C296.5,463.63 266.38,463.63 266.38,463.63 C266.38,463.63 266.38,573.63 266.38,573.63 C266.38,573.63 254.47,573.63 233.61,573.63" fill="none" id="Dholavira-to-Urban Planning" style="stroke:#FFFFFF;stroke-width:1.5;"/><polygon fill="#FFFFFF" points="227.61,573.63,236.61,577.63,232.61,573.63,236.61,569.63,227.61,573.63" style="stroke:#FFFFFF;stroke-width:1.5;"/></g><!--link Hydrology to Dams--><g class="link" data-entity-1="Hydrology" data-entity-2="Dams" data-source-line="43" data-uid="lnk13" id="link_Hydrology_Dams"><path codeLine="43" d="M98.97,32.63 C119.27,32.63 138.59,32.63 138.59,32.63 C138.59,32.63 138.59,82 138.59,111.85" fill="none" id="Hydrology-to-Dams" style="stroke:#FFFFFF;stroke-width:1.5;stroke-dasharray:7.0,7.0;"/><polygon fill="#FFFFFF" points="138.59,117.85,142.59,108.85,138.59,112.85,134.59,108.85,138.59,117.85" style="stroke:#FFFFFF;stroke-width:1.5;"/></g><!--link Hydrology to Channels--><g class="link" data-entity-1="Hydrology" data-entity-2="Channels" data-source-line="44" data-uid="lnk14" id="link_Hydrology_Channels"><path codeLine="44" d="M83.89,44.59 C83.89,98.44 83.89,251.63 83.89,251.63 C83.89,251.63 239.69,251.63 319.01,251.63" fill="none" id="Hydrology-to-Channels" style="stroke:#FFFFFF;stroke-width:1.5;stroke-dasharray:7.0,7.0;"/><polygon fill="#FFFFFF" points="325.01,251.63,316.01,247.63,320.01,251.63,316.01,255.63,325.01,251.63" style="stroke:#FFFFFF;stroke-width:1.5;"/></g><!--link Hydrology to Reservoirs--><g class="link" data-entity-1="Hydrology" data-entity-2="Reservoirs" data-source-line="45" data-uid="lnk15" id="link_Hydrology_Reservoirs"><path codeLine="45" d="M74.64,44.44 C74.64,105.54 74.64,298.63 74.64,298.63 C74.64,298.63 353.7,298.63 353.7,298.63 C353.7,298.63 353.7,312.81 353.7,328.57" fill="none" id="Hydrology-to-Reservoirs" style="stroke:#FFFFFF;stroke-width:1.5;stroke-dasharray:7.0,7.0;"/><polygon fill="#FFFFFF" points="353.7,334.57,357.7,325.57,353.7,329.57,349.7,325.57,353.7,334.57" style="stroke:#FFFFFF;stroke-width:1.5;"/></g><!--link Civil Engineering to Dams--><g class="link" data-entity-1="Civil Engineering" data-entity-2="Dams" data-source-line="47" data-uid="lnk16" id="link_Civil Engineering_Dams"><path codeLine="47" d="M710.28,44.62 C710.28,60.76 710.28,81.63 710.28,81.63 C710.28,81.63 168.74,81.63 168.74,81.63 C168.74,81.63 168.74,95.97 168.74,111.86" fill="none" id="Civil Engineering-to-Dams" style="stroke:#FFFFFF;stroke-width:1.5;stroke-dasharray:7.0,7.0;"/><polygon fill="#FFFFFF" points="168.74,117.86,172.74,108.86,168.74,112.86,164.74,108.86,168.74,117.86" style="stroke:#FFFFFF;stroke-width:1.5;"/></g><!--link Civil Engineering to Channels--><g class="link" data-entity-1="Civil Engineering" data-entity-2="Channels" data-source-line="48" data-uid="lnk17" id="link_Civil Engineering_Channels"><path codeLine="48" d="M744.82,44.59 C744.82,98.44 744.82,251.63 744.82,251.63 C744.82,251.63 515.51,251.63 416.7,251.63" fill="none" id="Civil Engineering-to-Channels" style="stroke:#FFFFFF;stroke-width:1.5;stroke-dasharray:7.0,7.0;"/><polygon fill="#FFFFFF" points="410.7,251.63,419.7,255.63,415.7,251.63,419.7,247.63,410.7,251.63" style="stroke:#FFFFFF;stroke-width:1.5;"/></g><!--link Civil Engineering to Reservoirs--><g class="link" data-entity-1="Civil Engineering" data-entity-2="Reservoirs" data-source-line="49" data-uid="lnk18" id="link_Civil Engineering_Reservoirs"><path codeLine="49" d="M779.37,44.68 C779.37,113.96 779.37,353.63 779.37,353.63 C779.37,353.63 529.13,353.63 421.03,353.63" fill="none" id="Civil Engineering-to-Reservoirs" style="stroke:#FFFFFF;stroke-width:1.5;stroke-dasharray:7.0,7.0;"/><polygon fill="#FFFFFF" points="415.03,353.63,424.03,357.63,420.03,353.63,424.03,349.63,415.03,353.63" style="stroke:#FFFFFF;stroke-width:1.5;"/></g><!--link GMN22 to Channels--><g class="link" data-entity-1="GMN22" data-entity-2="Channels" data-source-line="57" data-uid="lnk24" id="link_GMN22_Channels"><path d="M576.82,156.8 C576.82,186.88 576.82,239.63 576.82,239.63 C576.82,239.63 471.77,239.63 410.62,239.63" fill="none" id="GMN22-Channels" style="stroke:#FFFFFF;stroke-width:1.5;stroke-dasharray:7.0,7.0;"/></g><!--SRC=[ZLLDRvj04BtpAqRE8QT4QLFdeuT8jeFLKnl5gNeUmm1RBxjeTmsXlxx3ueQ5s6qv87dUp9it7unHIjsKubMeFB8xeIeqMC8Marrkz5wbAosrWRDh_mGUKYXoRKMWZIjq02YTagKAvbU1qQ3QTSRRq5YIjPZJGefSbQGS9FmY4tYabE5UkXTwTN_nKjhHKfkKp47i9_zCFQObhTUB-LMePs6CRdgmAOIZAVHIY6IdM3Hyk9m7O6Em-Y5ILy374Tz1_LehznLBWja6bRtOa17PR2BkNpu7tKQHuIG1O0jCTSF3WmobfUFP-vgsaZjm9Eznr53YKENoVrp2vlUTYyvXXOvoRThFiDXQPp1niD8geSf5Ru4m-zAcXkFoTWPdTxUhE5w6w4hKGaAiSbusRedA1wzHXYUZ4vvB6Fg8fMNl-xlrylvkn5cWKYIFWy-ykgRMmWJmADCtawCIlz09hKRf2Ysn5WOvRZr_Z9VNaxZjJtOMDOL1tyqM5Jn95jJN5j_4D-j55_bCqkUmXQXiTAZcuk8Xq1y5fNWa41-DAl7ee30ArNfi8YIAmhbSNZuSsldU78YPGg6QwDWaGzvJS5Zi2PTHddFOyAfnqqNYznigtbdgpaRaVngH5mvqzYSnT3lfM3UWIdcXypstdQ3Xbu6CBsD4REz2evx0wSg73yBWJHEbKA4h6cmjPDsdu5aIhMfgaJT_oYKfwxM49G3V6YSoaGYKuBgp6N1PfmrVp2dHLZkdoxwiOShCf1BHNKod6mMDu0E5QTqfIGzy1PgQhEjk_uHoQDGmLsRSUC9E7clPfstdqLDf1J7oNy798j_FZ_aUoV9PzytdFl6Ps2VTraF53ece9DbJ0vYkB8m-JS-OzkJiRSavwTTWuFiD]--></g></svg>