<svg xmlns="http://www.w3.org/2000/svg" xmlns:xlink="http://www.w3.org/1999/xlink" contentStyleType="text/css" data-diagram-type="CLASS" height="481px" preserveAspectRatio="none" style="width:818px;height:481px;background:#333333;" version="1.1" viewBox="0 0 818 481" width="818px" zoomAndPan="magnify"><defs/><g><rect fill="#333333" height="481" style="stroke:none;stroke-width:1;" width="818" x="0" y="0"/><!--entity Central Government--><g class="entity" data-entity="Central Government" data-source-line="23" data-uid="ent0002" id="entity_Central Government"><rect fill="#F5DEB3" height="36.2969" rx="10" ry="10" style="stroke:#FFFFFF;stroke-width:0.5;" width="162.9805" x="348.65" y="116.26"/><text fill="#000000" font-family="Sans-Serif" font-size="14" lengthAdjust="spacing" textLength="50.9756" x="358.65" y="139.2551">Central</text><text fill="#000000" font-family="Sans-Serif" font-size="14" lengthAdjust="spacing" textLength="4.4502" x="409.6256" y="139.2551">&#160;</text><text fill="#000000" font-family="Sans-Serif" font-size="14" lengthAdjust="spacing" textLength="87.5547" x="414.0758" y="139.2551">Government</text></g><!--entity State Protection--><g class="entity" data-entity="State Protection" data-source-line="26" data-uid="ent0003" id="entity_State Protection"><rect fill="#87CEEB" height="36.2969" rx="10" ry="10" style="stroke:#FFFFFF;stroke-width:0.5;" width="132.8887" x="592.7" y="224.55"/><text fill="#000000" font-family="Sans-Serif" font-size="14" lengthAdjust="spacing" textLength="37.0576" x="602.7" y="247.5451">State</text><text fill="#000000" font-family="Sans-Serif" font-size="14" lengthAdjust="spacing" textLength="4.4502" x="639.7576" y="247.5451">&#160;</text><text fill="#000000" font-family="Sans-Serif" font-size="14" lengthAdjust="spacing" textLength="71.3809" x="644.2078" y="247.5451">Protection</text></g><!--entity Preventive Detention--><g class="entity" data-entity="Preventive Detention" data-source-line="27" data-uid="ent0004" id="entity_Preventive Detention"><rect fill="#87CEEB" height="36.2969" rx="10" ry="10" style="stroke:#FFFFFF;stroke-width:0.5;" width="168.4971" x="245.89" y="224.55"/><text fill="#000000" font-family="Sans-Serif" font-size="14" lengthAdjust="spacing" textLength="74.8604" x="255.89" y="247.5451">Preventive</text><text fill="#000000" font-family="Sans-Serif" font-size="14" lengthAdjust="spacing" textLength="4.4502" x="330.7504" y="247.5451">&#160;</text><text fill="#000000" font-family="Sans-Serif" font-size="14" lengthAdjust="spacing" textLength="69.1865" x="335.2005" y="247.5451">Detention</text></g><!--entity Legal Counsel--><g class="entity" data-entity="Legal Counsel" data-source-line="28" data-uid="ent0005" id="entity_Legal Counsel"><rect fill="#87CEEB" height="36.2969" rx="10" ry="10" style="stroke:#FFFFFF;stroke-width:0.5;" width="118.1025" x="207.09" y="332.83"/><text fill="#000000" font-family="Sans-Serif" font-size="14" lengthAdjust="spacing" textLength="37.7686" x="217.09" y="355.8251">Legal</text><text fill="#000000" font-family="Sans-Serif" font-size="14" lengthAdjust="spacing" textLength="4.4502" x="254.8586" y="355.8251">&#160;</text><text fill="#000000" font-family="Sans-Serif" font-size="14" lengthAdjust="spacing" textLength="55.8838" x="259.3088" y="355.8251">Counsel</text></g><!--entity Evidence Admissibility--><g class="entity" data-entity="Evidence Admissibility" data-source-line="29" data-uid="ent0006" id="entity_Evidence Admissibility"><rect fill="#87CEEB" height="36.2969" rx="10" ry="10" style="stroke:#FFFFFF;stroke-width:0.5;" width="176.9531" x="177.67" y="439.12"/><text fill="#000000" font-family="Sans-Serif" font-size="14" lengthAdjust="spacing" textLength="63.7041" x="187.67" y="462.1151">Evidence</text><text fill="#000000" font-family="Sans-Serif" font-size="14" lengthAdjust="spacing" textLength="4.4502" x="251.3741" y="462.1151">&#160;</text><text fill="#000000" font-family="Sans-Serif" font-size="14" lengthAdjust="spacing" textLength="88.7988" x="255.8243" y="462.1151">Admissibility</text></g><!--entity Prevention of Terrorism Act--><g class="entity" data-entity="Prevention of Terrorism Act" data-source-line="30" data-uid="ent0007" id="entity_Prevention of Terrorism Act"><rect fill="#87CEEB" height="36.2969" rx="10" ry="10" style="stroke:#FFFFFF;stroke-width:0.5;" width="212.8281" x="374.73" y="332.83"/><text fill="#000000" font-family="Sans-Serif" font-size="14" lengthAdjust="spacing" textLength="75.4004" x="384.73" y="355.8251">Prevention</text><text fill="#000000" font-family="Sans-Serif" font-size="14" lengthAdjust="spacing" textLength="4.4502" x="460.1304" y="355.8251">&#160;</text><text fill="#000000" font-family="Sans-Serif" font-size="14" lengthAdjust="spacing" textLength="13.4941" x="464.5806" y="355.8251">of</text><text fill="#000000" font-family="Sans-Serif" font-size="14" lengthAdjust="spacing" textLength="4.4502" x="478.0747" y="355.8251">&#160;</text><text fill="#000000" font-family="Sans-Serif" font-size="14" lengthAdjust="spacing" textLength="67.8193" x="482.5249" y="355.8251">Terrorism</text><text fill="#000000" font-family="Sans-Serif" font-size="14" lengthAdjust="spacing" textLength="4.4502" x="550.3443" y="355.8251">&#160;</text><text fill="#000000" font-family="Sans-Serif" font-size="14" lengthAdjust="spacing" textLength="22.7637" x="554.7945" y="355.8251">Act</text></g><!--entity Internal Disturbances--><g class="entity" data-entity="Internal Disturbances" data-source-line="33" data-uid="ent0008" id="entity_Internal Disturbances"><rect fill="#FFE4E1" height="36.2969" rx="10" ry="10" style="stroke:#FFFFFF;stroke-width:0.5;" width="170.6777" x="637.8" y="332.83"/><text fill="#000000" font-family="Sans-Serif" font-size="14" lengthAdjust="spacing" textLength="54.2021" x="647.8" y="355.8251">Internal</text><text fill="#000000" font-family="Sans-Serif" font-size="14" lengthAdjust="spacing" textLength="4.4502" x="702.0021" y="355.8251">&#160;</text><text fill="#000000" font-family="Sans-Serif" font-size="14" lengthAdjust="spacing" textLength="92.0254" x="706.4523" y="355.8251">Disturbances</text></g><g class="entity" data-entity="GMN15" data-source-line="45" data-uid="ent0016" id="entity_GMN15"><path d="M329.01,16 L329.01,36.2656 A10,10 0 0 0 339.01,46.2656 L426.14,46.2656 L430.14,116.03 L434.14,46.2656 L521.2673,46.2656 A10,10 0 0 0 531.2673,36.2656 L531.2673,16 L521.2673,6 L339.01,6 A10,10 0 0 0 329.01,16" fill="#FFA500" style="stroke:#444444;stroke-width:0.5;"/><path d="M521.2673,6 L521.2673,11 A5,5 0 0 0 526.2673,16 L531.2673,16 L521.2673,6" fill="#FFA500" style="stroke:#444444;stroke-width:0.5;"/><text fill="#000000" font-family="Sans-Serif" font-size="13" lengthAdjust="spacing" textLength="90.5684" x="335.01" y="23.0669">Constitutional</text><text fill="#000000" font-family="Sans-Serif" font-size="13" lengthAdjust="spacing" textLength="4.1323" x="425.5784" y="23.0669">&#160;</text><text fill="#000000" font-family="Sans-Serif" font-size="13" lengthAdjust="spacing" textLength="64.5493" x="429.7107" y="23.0669">obligation</text><text fill="#000000" font-family="Sans-Serif" font-size="13" lengthAdjust="spacing" textLength="4.1323" x="494.26" y="23.0669">&#160;</text><text fill="#000000" font-family="Sans-Serif" font-size="13" lengthAdjust="spacing" textLength="17.875" x="498.3923" y="23.0669">for</text><text fill="#000000" font-family="Sans-Serif" font-size="13" lengthAdjust="spacing" textLength="32.9316" x="373.7593" y="38.1997">state</text><text fill="#000000" font-family="Sans-Serif" font-size="13" lengthAdjust="spacing" textLength="4.1323" x="406.6909" y="38.1997">&#160;</text><text fill="#000000" font-family="Sans-Serif" font-size="13" lengthAdjust="spacing" textLength="66.6948" x="410.8232" y="38.1997">protection</text></g><g class="entity" data-entity="GMN18" data-source-line="49" data-uid="ent0019" id="entity_GMN18"><path d="M6,232.56 L6,252.8256 A10,10 0 0 0 16,262.8256 L186.2856,262.8256 A10,10 0 0 0 196.2856,252.8256 L196.2856,247.42 L245.42,243.42 L196.2856,239.42 L196.2856,232.56 L186.2856,222.56 L16,222.56 A10,10 0 0 0 6,232.56" fill="#FFA500" style="stroke:#444444;stroke-width:0.5;"/><path d="M186.2856,222.56 L186.2856,227.56 A5,5 0 0 0 191.2856,232.56 L196.2856,232.56 L186.2856,222.56" fill="#FFA500" style="stroke:#444444;stroke-width:0.5;"/><text fill="#000000" font-family="Sans-Serif" font-size="13" lengthAdjust="spacing" textLength="35.0708" x="12" y="239.6269">Legal</text><text fill="#000000" font-family="Sans-Serif" font-size="13" lengthAdjust="spacing" textLength="4.1323" x="47.0708" y="239.6269">&#160;</text><text fill="#000000" font-family="Sans-Serif" font-size="13" lengthAdjust="spacing" textLength="59.4331" x="51.2031" y="239.6269">provision</text><text fill="#000000" font-family="Sans-Serif" font-size="13" lengthAdjust="spacing" textLength="4.1323" x="110.6362" y="239.6269">&#160;</text><text fill="#000000" font-family="Sans-Serif" font-size="13" lengthAdjust="spacing" textLength="66.5171" x="114.7686" y="239.6269">restricting</text><text fill="#000000" font-family="Sans-Serif" font-size="13" lengthAdjust="spacing" textLength="41.6089" x="75.8384" y="254.7597">liberty</text></g><g class="entity" data-entity="GMN21" data-source-line="53" data-uid="ent0022" id="entity_GMN21"><path d="M404.33,454.71 L404.33,458.42 L355.03,462.42 L404.33,466.42 L404.33,459.8428 A10,10 0 0 0 414.33,469.8428 L589.9604,469.8428 A10,10 0 0 0 599.9604,459.8428 L599.9604,454.71 L589.9604,444.71 L414.33,444.71 A10,10 0 0 0 404.33,454.71" fill="#FFA500" style="stroke:#444444;stroke-width:0.5;"/><path d="M589.9604,444.71 L589.9604,449.71 A5,5 0 0 0 594.9604,454.71 L599.9604,454.71 L589.9604,444.71" fill="#FFA500" style="stroke:#444444;stroke-width:0.5;"/><text fill="#000000" font-family="Sans-Serif" font-size="13" lengthAdjust="spacing" textLength="35.6548" x="410.33" y="461.7769">Rules</text><text fill="#000000" font-family="Sans-Serif" font-size="13" lengthAdjust="spacing" textLength="4.1323" x="445.9848" y="461.7769">&#160;</text><text fill="#000000" font-family="Sans-Serif" font-size="13" lengthAdjust="spacing" textLength="17.875" x="450.1171" y="461.7769">for</text><text fill="#000000" font-family="Sans-Serif" font-size="13" lengthAdjust="spacing" textLength="4.1323" x="467.9921" y="461.7769">&#160;</text><text fill="#000000" font-family="Sans-Serif" font-size="13" lengthAdjust="spacing" textLength="58.938" x="472.1244" y="461.7769">evidence</text><text fill="#000000" font-family="Sans-Serif" font-size="13" lengthAdjust="spacing" textLength="4.1323" x="531.0624" y="461.7769">&#160;</text><text fill="#000000" font-family="Sans-Serif" font-size="13" lengthAdjust="spacing" textLength="11.8511" x="535.1947" y="461.7769">in</text><text fill="#000000" font-family="Sans-Serif" font-size="13" lengthAdjust="spacing" textLength="4.1323" x="547.0458" y="461.7769">&#160;</text><text fill="#000000" font-family="Sans-Serif" font-size="13" lengthAdjust="spacing" textLength="33.7822" x="551.1781" y="461.7769">court</text></g><g class="entity" data-entity="GMN24" data-source-line="57" data-uid="ent0025" id="entity_GMN24"><path d="M650.33,454.71 L650.33,459.8428 A10,10 0 0 0 660.33,469.8428 L797.9633,469.8428 A10,10 0 0 0 807.9633,459.8428 L807.9633,454.71 L797.9633,444.71 L660.33,444.71 A10,10 0 0 0 650.33,454.71" fill="#FFA500" style="stroke:#444444;stroke-width:0.5;"/><path d="M797.9633,444.71 L797.9633,449.71 A5,5 0 0 0 802.9633,454.71 L807.9633,454.71 L797.9633,444.71" fill="#FFA500" style="stroke:#444444;stroke-width:1;"/><text fill="#000000" font-family="Sans-Serif" font-size="13" lengthAdjust="spacing" textLength="61.1089" x="656.33" y="461.7769">Repealed</text><text fill="#000000" font-family="Sans-Serif" font-size="13" lengthAdjust="spacing" textLength="4.1323" x="717.4389" y="461.7769">&#160;</text><text fill="#000000" font-family="Sans-Serif" font-size="13" lengthAdjust="spacing" textLength="22.2104" x="721.5712" y="461.7769">law</text><text fill="#000000" font-family="Sans-Serif" font-size="13" lengthAdjust="spacing" textLength="4.1323" x="743.7817" y="461.7769">&#160;</text><text fill="#000000" font-family="Sans-Serif" font-size="13" lengthAdjust="spacing" textLength="45.0493" x="747.914" y="461.7769">(POTA)</text></g><!--link Central Government to State Protection--><g class="link" data-entity-1="Central Government" data-entity-2="State Protection" data-source-line="36" data-uid="lnk9" id="link_Central Government_State Protection"><path codeLine="36" d="M463.01,152.9 C463.01,184 463.01,243.42 463.01,243.42 C463.01,243.42 529.61,243.42 586.47,243.42" fill="none" id="Central Government-to-State Protection" style="stroke:#FFFFFF;stroke-width:1.5;"/><polygon fill="#FFFFFF" points="592.47,243.42,583.47,239.42,587.47,243.42,583.47,247.42,592.47,243.42" style="stroke:#FFFFFF;stroke-width:1.5;"/></g><!--link State Protection to Internal Disturbances--><g class="link" data-entity-1="State Protection" data-entity-2="Internal Disturbances" data-source-line="37" data-uid="lnk10" id="link_State Protection_Internal Disturbances"><path codeLine="37" d="M681.7,261.06 C681.7,280.97 681.7,306.57 681.7,326.52" fill="none" id="State Protection-to-Internal Disturbances" style="stroke:#FFFFFF;stroke-width:1.5;"/><polygon fill="#FFFFFF" points="681.7,332.52,685.7,323.52,681.7,327.52,677.7,323.52,681.7,332.52" style="stroke:#FFFFFF;stroke-width:1.5;"/></g><!--link Central Government to Preventive Detention--><g class="link" data-entity-1="Central Government" data-entity-2="Preventive Detention" data-source-line="38" data-uid="lnk11" id="link_Central Government_Preventive Detention"><path codeLine="38" d="M381.52,152.78 C381.52,172.69 381.52,198.29 381.52,218.23" fill="none" id="Central Government-to-Preventive Detention" style="stroke:#FFFFFF;stroke-width:1.5;"/><polygon fill="#FFFFFF" points="381.52,224.23,385.52,215.23,381.52,219.23,377.52,215.23,381.52,224.23" style="stroke:#FFFFFF;stroke-width:1.5;"/></g><!--link Preventive Detention to Legal Counsel--><g class="link" data-entity-1="Preventive Detention" data-entity-2="Legal Counsel" data-source-line="39" data-uid="lnk12" id="link_Preventive Detention_Legal Counsel"><path codeLine="39" d="M285.54,261.06 C285.54,280.97 285.54,306.57 285.54,326.52" fill="none" id="Preventive Detention-to-Legal Counsel" style="stroke:#FF0000;stroke-width:1.5;"/><polygon fill="#FF0000" points="285.54,332.52,289.54,323.52,285.54,327.52,281.54,323.52,285.54,332.52" style="stroke:#FF0000;stroke-width:1.5;"/></g><!--link Legal Counsel to Evidence Admissibility--><g class="link" data-entity-1="Legal Counsel" data-entity-2="Evidence Admissibility" data-source-line="40" data-uid="lnk13" id="link_Legal Counsel_Evidence Admissibility"><path codeLine="40" d="M266.14,369.49 C266.14,389 266.14,413.54 266.14,432.97" fill="none" id="Legal Counsel-to-Evidence Admissibility" style="stroke:#FFFFFF;stroke-width:1.5;"/><polygon fill="#FFFFFF" points="266.14,438.97,270.14,429.97,266.14,433.97,262.14,429.97,266.14,438.97" style="stroke:#FFFFFF;stroke-width:1.5;"/></g><!--link Prevention of Terrorism Act to Evidence Admissibility--><g class="link" data-entity-1="Prevention of Terrorism Act" data-entity-2="Evidence Admissibility" data-source-line="41" data-uid="lnk14" id="link_Prevention of Terrorism Act_Evidence Admissibility"><path codeLine="41" d="M389.53,369.29 C389.53,398.76 389.53,453.42 389.53,453.42 C389.53,453.42 380.45,453.42 360.83,453.42" fill="none" id="Prevention of Terrorism Act-to-Evidence Admissibility" style="stroke:#FFFFFF;stroke-width:1.5;"/><polygon fill="#FFFFFF" points="354.83,453.42,363.83,457.42,359.83,453.42,363.83,449.42,354.83,453.42" style="stroke:#FFFFFF;stroke-width:1.5;"/></g><!--link Prevention of Terrorism Act to GMN24--><g class="link" data-entity-1="Prevention of Terrorism Act" data-entity-2="GMN24" data-source-line="57" data-uid="lnk26" id="link_Prevention of Terrorism Act_GMN24"><path d="M587.97,351.42 C605.93,351.42 618.88,351.42 618.88,351.42 C618.88,351.42 618.88,457.42 618.88,457.42 C618.88,457.42 632.36,457.42 649.89,457.42" fill="none" id="Prevention of Terrorism Act-GMN24" style="stroke:#FFFFFF;stroke-width:1.5;stroke-dasharray:7.0,7.0;"/></g><!--SRC=[ZPJ1Rjim38RlVWeYFMmxP6ZN1Xrs692cpZ1WQ8icm0x33hBDs4GKoQ2OfDdJZtAopZ6SR3uOXlZh9_c9ih7MRrVqGgvCmf9SRTYi83FvicI_TiN4MyzmSTqyBOKbXxAh4JnBvLi1vmiCMCFeihN8nYtZucrxSOKXc1B7bagtGYUGwmkvfIXmOTPMvlWYPrJE2zvvBf0FnTuqJrVHRMaw7Oyks_MCcVrs7znM9DWDpIlAbqwBXglterPmowR-JeLKyE78xr3zr3jvC2k4mSouC9mXqsBGAUvVcaFTx90rIIiGAbFuhHuUB8mDs9zztrDcbK1FtlueOox6bVP_96tuUtB96vWOmTBpxXCyScaS_J92tYMlcs0mqODaO-6Bto0tPplGKndTftVNnmRZBAWm5vXubsCjeUqo4zN14sitUSoW7Xzl9sbwrnOzCMxKdpO8zoZnwuJm6vPQqKHn1xIzYdH31MePC2vM509bP4bsPxDw1tu1SzGXOWewJRdyrHzrcaPzs-9hd7Md9TrJa3LdHZE7Y6cQtgHNSVCpsePigAWEII_KuV1p3wUa1rsZxCzvnhgNRd82-l371MFnC-uxXfrquJVU9t0dv-6UtQhGPjg8CgSS7dn4e9EDiQ4aNWeGNqVFleOJY4COX6GTKslGP_fdQau05Zh_eM5Qlp9Dq1NDLKlstXONqfZtGmFOGr233OLeogZ3J-gbTznIXYoxhYTJMUrDJxKCyBos69eAyO-67EH-pTAroxo8NnqLsGSvccADnc81rcpXxTFZVFpkrUmt]--></g></svg>