<svg xmlns="http://www.w3.org/2000/svg" xmlns:xlink="http://www.w3.org/1999/xlink" contentStyleType="text/css" data-diagram-type="CLASS" height="323px" preserveAspectRatio="none" style="width:1046px;height:323px;background:#333333;" version="1.1" viewBox="0 0 1046 323" width="1046px" zoomAndPan="magnify"><defs/><g><rect fill="#333333" height="323" style="stroke:none;stroke-width:1;" width="1046" x="0" y="0"/><!--entity Hepatitis B--><g class="entity" data-entity="Hepatitis B" data-source-line="23" data-uid="ent0002" id="entity_Hepatitis B"><rect fill="#87CEEB" height="36.2969" rx="10" ry="10" style="stroke:#FFFFFF;stroke-width:0.5;" width="96.7129" x="260.62" y="163.65"/><text fill="#000000" font-family="Sans-Serif" font-size="14" lengthAdjust="spacing" textLength="62.6582" x="270.62" y="186.6451">Hepatitis</text><text fill="#000000" font-family="Sans-Serif" font-size="14" lengthAdjust="spacing" textLength="4.4502" x="333.2782" y="186.6451">&#160;</text><text fill="#000000" font-family="Sans-Serif" font-size="14" lengthAdjust="spacing" textLength="9.6045" x="337.7284" y="186.6451">B</text></g><!--entity HIV/AIDS--><g class="entity" data-entity="HIV/AIDS" data-source-line="24" data-uid="ent0003" id="entity_HIV/AIDS"><rect fill="#87CEEB" height="36.2969" rx="10" ry="10" style="stroke:#FFFFFF;stroke-width:0.5;" width="82.3232" x="957.81" y="30.69"/><text fill="#000000" font-family="Sans-Serif" font-size="14" lengthAdjust="spacing" textLength="62.3232" x="967.81" y="53.6851">HIV/AIDS</text></g><!--entity Liver Cancer--><g class="entity" data-entity="Liver Cancer" data-source-line="25" data-uid="ent0004" id="entity_Liver Cancer"><rect fill="#87CEEB" height="36.2969" rx="10" ry="10" style="stroke:#FFFFFF;stroke-width:0.5;" width="108.0879" x="49.93" y="273.92"/><text fill="#000000" font-family="Sans-Serif" font-size="14" lengthAdjust="spacing" textLength="34.3438" x="59.93" y="296.9151">Liver</text><text fill="#000000" font-family="Sans-Serif" font-size="14" lengthAdjust="spacing" textLength="4.4502" x="94.2738" y="296.9151">&#160;</text><text fill="#000000" font-family="Sans-Serif" font-size="14" lengthAdjust="spacing" textLength="49.2939" x="98.7239" y="296.9151">Cancer</text></g><!--entity Hepatitis B Vaccine--><g class="entity" data-entity="Hepatitis B Vaccine" data-source-line="28" data-uid="ent0005" id="entity_Hepatitis B Vaccine"><rect fill="#98FB98" height="36.2969" rx="10" ry="10" style="stroke:#FFFFFF;stroke-width:0.5;" width="156.0898" x="230.93" y="30.69"/><text fill="#000000" font-family="Sans-Serif" font-size="14" lengthAdjust="spacing" textLength="62.6582" x="240.93" y="53.6851">Hepatitis</text><text fill="#000000" font-family="Sans-Serif" font-size="14" lengthAdjust="spacing" textLength="4.4502" x="303.5882" y="53.6851">&#160;</text><text fill="#000000" font-family="Sans-Serif" font-size="14" lengthAdjust="spacing" textLength="9.6045" x="308.0384" y="53.6851">B</text><text fill="#000000" font-family="Sans-Serif" font-size="14" lengthAdjust="spacing" textLength="4.4502" x="317.6429" y="53.6851">&#160;</text><text fill="#000000" font-family="Sans-Serif" font-size="14" lengthAdjust="spacing" textLength="54.9268" x="322.0931" y="53.6851">Vaccine</text></g><g class="entity" data-entity="GMN8" data-source-line="36" data-uid="ent0009" id="entity_GMN8"><path d="M436.93,46.27 L436.93,45.2 L387.23,49.2 L436.93,53.2 L436.93,51.4028 A10,10 0 0 0 446.93,61.4028 L645.0184,61.4028 A10,10 0 0 0 655.0184,51.4028 L655.0184,46.27 L645.0184,36.27 L446.93,36.27 A10,10 0 0 0 436.93,46.27" fill="#FFA500" style="stroke:#444444;stroke-width:0.5;"/><path d="M645.0184,36.27 L645.0184,41.27 A5,5 0 0 0 650.0184,46.27 L655.0184,46.27 L645.0184,36.27" fill="#FFA500" style="stroke:#444444;stroke-width:0.5;"/><text fill="#000000" font-family="Sans-Serif" font-size="13" lengthAdjust="spacing" textLength="56.9829" x="442.93" y="53.3369">Prevents</text><text fill="#000000" font-family="Sans-Serif" font-size="13" lengthAdjust="spacing" textLength="4.1323" x="499.9129" y="53.3369">&#160;</text><text fill="#000000" font-family="Sans-Serif" font-size="13" lengthAdjust="spacing" textLength="58.1826" x="504.0452" y="53.3369">Hepatitis</text><text fill="#000000" font-family="Sans-Serif" font-size="13" lengthAdjust="spacing" textLength="4.1323" x="562.2279" y="53.3369">&#160;</text><text fill="#000000" font-family="Sans-Serif" font-size="13" lengthAdjust="spacing" textLength="8.9185" x="566.3602" y="53.3369">B</text><text fill="#000000" font-family="Sans-Serif" font-size="13" lengthAdjust="spacing" textLength="4.1323" x="575.2786" y="53.3369">&#160;</text><text fill="#000000" font-family="Sans-Serif" font-size="13" lengthAdjust="spacing" textLength="60.6074" x="579.411" y="53.3369">infection.</text></g><g class="entity" data-entity="GMN11" data-source-line="40" data-uid="ent0012" id="entity_GMN11"><path d="M207.62,281.93 L207.62,302.1956 A10,10 0 0 0 217.62,312.1956 L418.3236,312.1956 A10,10 0 0 0 428.3236,302.1956 L428.3236,281.93 L418.3236,271.93 L329.09,271.93 L325.09,200.01 L321.09,271.93 L217.62,271.93 A10,10 0 0 0 207.62,281.93" fill="#FFA500" style="stroke:#444444;stroke-width:0.5;"/><path d="M418.3236,271.93 L418.3236,276.93 A5,5 0 0 0 423.3236,281.93 L428.3236,281.93 L418.3236,271.93" fill="#FFA500" style="stroke:#444444;stroke-width:0.5;"/><text fill="#000000" font-family="Sans-Serif" font-size="13" lengthAdjust="spacing" textLength="29.4277" x="219.3932" y="288.9969">Viral</text><text fill="#000000" font-family="Sans-Serif" font-size="13" lengthAdjust="spacing" textLength="4.1323" x="248.8209" y="288.9969">&#160;</text><text fill="#000000" font-family="Sans-Serif" font-size="13" lengthAdjust="spacing" textLength="56.4751" x="252.9533" y="288.9969">infection</text><text fill="#000000" font-family="Sans-Serif" font-size="13" lengthAdjust="spacing" textLength="4.1323" x="309.4283" y="288.9969">&#160;</text><text fill="#000000" font-family="Sans-Serif" font-size="13" lengthAdjust="spacing" textLength="57.4653" x="313.5607" y="288.9969">affecting</text><text fill="#000000" font-family="Sans-Serif" font-size="13" lengthAdjust="spacing" textLength="4.1323" x="371.026" y="288.9969">&#160;</text><text fill="#000000" font-family="Sans-Serif" font-size="13" lengthAdjust="spacing" textLength="32.3921" x="375.1583" y="288.9969">liver.</text><text fill="#000000" font-family="Sans-Serif" font-size="13" lengthAdjust="spacing" textLength="32.5127" x="213.62" y="304.1297">More</text><text fill="#000000" font-family="Sans-Serif" font-size="13" lengthAdjust="spacing" textLength="4.1323" x="246.1327" y="304.1297">&#160;</text><text fill="#000000" font-family="Sans-Serif" font-size="13" lengthAdjust="spacing" textLength="63.248" x="250.265" y="304.1297">infectious</text><text fill="#000000" font-family="Sans-Serif" font-size="13" lengthAdjust="spacing" textLength="4.1323" x="313.5131" y="304.1297">&#160;</text><text fill="#000000" font-family="Sans-Serif" font-size="13" lengthAdjust="spacing" textLength="29.542" x="317.6454" y="304.1297">than</text><text fill="#000000" font-family="Sans-Serif" font-size="13" lengthAdjust="spacing" textLength="4.1323" x="347.1874" y="304.1297">&#160;</text><text fill="#000000" font-family="Sans-Serif" font-size="13" lengthAdjust="spacing" textLength="62.0039" x="351.3197" y="304.1297">HIV/AIDS.</text></g><g class="entity" data-entity="GMN14" data-source-line="45" data-uid="ent0015" id="entity_GMN14"><path d="M704.6,16 L704.6,81.6641 A10,10 0 0 0 714.6,91.6641 L897.3397,91.6641 A10,10 0 0 0 907.3397,81.6641 L907.3397,53.2 L957.52,49.2 L907.3397,45.2 L907.3397,16 L897.3397,6 L714.6,6 A10,10 0 0 0 704.6,16" fill="#FFA500" style="stroke:#444444;stroke-width:0.5;"/><path d="M897.3397,6 L897.3397,11 A5,5 0 0 0 902.3397,16 L907.3397,16 L897.3397,6" fill="#FFA500" style="stroke:#444444;stroke-width:0.5;"/><text fill="#000000" font-family="Sans-Serif" font-size="13" lengthAdjust="spacing" textLength="46.8838" x="716.0272" y="23.0669">Human</text><text fill="#000000" font-family="Sans-Serif" font-size="13" lengthAdjust="spacing" textLength="4.1323" x="762.911" y="23.0669">&#160;</text><text fill="#000000" font-family="Sans-Serif" font-size="13" lengthAdjust="spacing" textLength="119.8691" x="767.0434" y="23.0669">Immunodeficiency</text><text fill="#000000" font-family="Sans-Serif" font-size="13" lengthAdjust="spacing" textLength="32.8618" x="785.039" y="38.1997">Virus</text><text fill="#000000" font-family="Sans-Serif" font-size="13" lengthAdjust="spacing" textLength="57.7383" x="710.6" y="53.3325">Acquired</text><text fill="#000000" font-family="Sans-Serif" font-size="13" lengthAdjust="spacing" textLength="4.1323" x="768.3383" y="53.3325">&#160;</text><text fill="#000000" font-family="Sans-Serif" font-size="13" lengthAdjust="spacing" textLength="119.8691" x="772.4706" y="53.3325">Immunodeficiency</text><text fill="#000000" font-family="Sans-Serif" font-size="13" lengthAdjust="spacing" textLength="70.5288" x="766.2055" y="68.4653">Syndrome.</text><text fill="#000000" font-family="Sans-Serif" font-size="13" lengthAdjust="spacing" textLength="28.7866" x="712.8788" y="83.5981">Less</text><text fill="#000000" font-family="Sans-Serif" font-size="13" lengthAdjust="spacing" textLength="4.1323" x="741.6654" y="83.5981">&#160;</text><text fill="#000000" font-family="Sans-Serif" font-size="13" lengthAdjust="spacing" textLength="63.248" x="745.7978" y="83.5981">infectious</text><text fill="#000000" font-family="Sans-Serif" font-size="13" lengthAdjust="spacing" textLength="4.1323" x="809.0458" y="83.5981">&#160;</text><text fill="#000000" font-family="Sans-Serif" font-size="13" lengthAdjust="spacing" textLength="29.542" x="813.1781" y="83.5981">than</text><text fill="#000000" font-family="Sans-Serif" font-size="13" lengthAdjust="spacing" textLength="4.1323" x="842.7201" y="83.5981">&#160;</text><text fill="#000000" font-family="Sans-Serif" font-size="13" lengthAdjust="spacing" textLength="26.0254" x="846.8524" y="83.5981">Hep</text><text fill="#000000" font-family="Sans-Serif" font-size="13" lengthAdjust="spacing" textLength="4.1323" x="872.8778" y="83.5981">&#160;</text><text fill="#000000" font-family="Sans-Serif" font-size="13" lengthAdjust="spacing" textLength="13.0508" x="877.0102" y="83.5981">B.</text></g><g class="entity" data-entity="GMN17" data-source-line="51" data-uid="ent0018" id="entity_GMN17"><path d="M6,171.67 L6,191.9356 A10,10 0 0 0 16,201.9356 L81.96,201.9356 L85.96,273.53 L89.96,201.9356 L191.9478,201.9356 A10,10 0 0 0 201.9478,191.9356 L201.9478,171.67 L191.9478,161.67 L16,161.67 A10,10 0 0 0 6,171.67" fill="#FFA500" style="stroke:#444444;stroke-width:0.5;"/><path d="M191.9478,161.67 L191.9478,166.67 A5,5 0 0 0 196.9478,171.67 L201.9478,171.67 L191.9478,161.67" fill="#FFA500" style="stroke:#444444;stroke-width:0.5;"/><text fill="#000000" font-family="Sans-Serif" font-size="13" lengthAdjust="spacing" textLength="45.2842" x="12" y="178.7369">Severe</text><text fill="#000000" font-family="Sans-Serif" font-size="13" lengthAdjust="spacing" textLength="4.1323" x="57.2842" y="178.7369">&#160;</text><text fill="#000000" font-family="Sans-Serif" font-size="13" lengthAdjust="spacing" textLength="57.0527" x="61.4165" y="178.7369">outcome</text><text fill="#000000" font-family="Sans-Serif" font-size="13" lengthAdjust="spacing" textLength="4.1323" x="118.4692" y="178.7369">&#160;</text><text fill="#000000" font-family="Sans-Serif" font-size="13" lengthAdjust="spacing" textLength="12.5303" x="122.6016" y="178.7369">of</text><text fill="#000000" font-family="Sans-Serif" font-size="13" lengthAdjust="spacing" textLength="4.1323" x="135.1318" y="178.7369">&#160;</text><text fill="#000000" font-family="Sans-Serif" font-size="13" lengthAdjust="spacing" textLength="47.6836" x="139.2642" y="178.7369">chronic</text><text fill="#000000" font-family="Sans-Serif" font-size="13" lengthAdjust="spacing" textLength="58.1826" x="31.4873" y="193.8697">Hepatitis</text><text fill="#000000" font-family="Sans-Serif" font-size="13" lengthAdjust="spacing" textLength="4.1323" x="89.6699" y="193.8697">&#160;</text><text fill="#000000" font-family="Sans-Serif" font-size="13" lengthAdjust="spacing" textLength="8.9185" x="93.8022" y="193.8697">B</text><text fill="#000000" font-family="Sans-Serif" font-size="13" lengthAdjust="spacing" textLength="4.1323" x="102.7207" y="193.8697">&#160;</text><text fill="#000000" font-family="Sans-Serif" font-size="13" lengthAdjust="spacing" textLength="60.6074" x="106.853" y="193.8697">infection.</text></g><!--link Hepatitis B to Liver Cancer--><g class="link" data-entity-1="Hepatitis B" data-entity-2="Liver Cancer" data-source-line="31" data-uid="lnk6" id="link_Hepatitis B_Liver Cancer"><path codeLine="31" d="M292.86,200.25 C292.86,216.36 292.86,237.2 292.86,237.2 C292.86,237.2 121.99,237.2 121.99,237.2 C121.99,237.2 121.99,251.57 121.99,267.49" fill="none" id="Hepatitis B-to-Liver Cancer" style="stroke:#FFFFFF;stroke-width:1.5;"/><polygon fill="#FFFFFF" points="121.99,273.49,125.99,264.49,121.99,268.49,117.99,264.49,121.99,273.49" style="stroke:#FFFFFF;stroke-width:1.5;"/></g><!--link Hepatitis B Vaccine to Hepatitis B--><g class="link" data-entity-1="Hepatitis B Vaccine" data-entity-2="Hepatitis B" data-source-line="32" data-uid="lnk7" id="link_Hepatitis B Vaccine_Hepatitis B"><path codeLine="32" d="M308.97,67.32 C308.97,92.73 308.97,132.15 308.97,157.47" fill="none" id="Hepatitis B Vaccine-to-Hepatitis B" style="stroke:#FF0000;stroke-width:1.5;"/><polygon fill="#FF0000" points="308.97,163.47,312.97,154.47,308.97,158.47,304.97,154.47,308.97,163.47" style="stroke:#FF0000;stroke-width:1.5;"/></g><!--SRC=[ZLHDRzf04BtxLupWqFO0JJzGoAKIaA0WfLLL8dgeUXZMOtl5UjUTNOVatsVMaCGOcjO7X7RUllVcpTXeZDkM-bxRFF4RRIjaB66DQfEpgsqwSyOnz3yrJmjXjANmK14u3eLh5QnBoLC5exFM8QFTnCFpzc59tcDE4wDpMv8DeEI7k8L8ASFQX5kw3w-Wh0iqTPmIxyr-RfukejlIV3uPdRNzJ9ZTTbVS5ZfGjtHRQBMnOXe-34UjufQn-gdJKC370xwz-xcpuHkM1BqbMZzO4kkirp7tBypUDrjY4MaLV86fsyhm84FZwRJwhgUraGHEw9wkCgc0DZV_0sc7lqikUGEJjG-CAi3CMKLLyF3sKdj2J_vTydmLUjTKOT11UvZse3y-drrTJG_gYzNxoU9oUR9ue-yaaHcA0hy0HFqxEoMJ8b5Tn7MvawNHplvD6LQeb6oqS5oCvzEBSUJuGGRZ9L_eoYU7HWU3Bntrv3JVu5UVAVqTuMs2oB-KV0BbMZMZW4hYfMR3inWsciWBQ5DGCW9v1P86nZel0hZijFy4f7MAtNferxNDf75fPfYGC4QcPCUtTY6uiaiOYLQQqRpS1CoQVx9h9ZO-5CXNn_ICg3s40YqyJUn8ob2sT_uqKw6uhakvioZBEduvCgqqMVKGnMilvOdwKsj9y1YnVB0fkvAYZvluLXxva0_EzCX4S5NZuN1u04j9JPfnTL126Y6gO6UrYXvVJ_8H]--></g></svg>