<svg xmlns="http://www.w3.org/2000/svg" xmlns:xlink="http://www.w3.org/1999/xlink" contentStyleType="text/css" data-diagram-type="CLASS" height="490px" preserveAspectRatio="none" style="width:2053px;height:490px;background:#333333;" version="1.1" viewBox="0 0 2053 490" width="2053px" zoomAndPan="magnify"><defs/><g><rect fill="#333333" height="490" style="stroke:none;stroke-width:1;" width="2053" x="0" y="0"/><!--entity Seed Replacement Rate--><g class="entity" data-entity="Seed Replacement Rate" data-source-line="23" data-uid="ent0002" id="entity_Seed Replacement Rate"><rect fill="#87CEEB" height="36.2969" rx="10" ry="10" style="stroke:#FFFFFF;stroke-width:0.5;" width="188.9297" x="1154.24" y="116.27"/><text fill="#000000" font-family="Sans-Serif" font-size="14" lengthAdjust="spacing" textLength="35" x="1164.24" y="139.2651">Seed</text><text fill="#000000" font-family="Sans-Serif" font-size="14" lengthAdjust="spacing" textLength="4.4502" x="1199.24" y="139.2651">&#160;</text><text fill="#000000" font-family="Sans-Serif" font-size="14" lengthAdjust="spacing" textLength="92.6201" x="1203.6902" y="139.2651">Replacement</text><text fill="#000000" font-family="Sans-Serif" font-size="14" lengthAdjust="spacing" textLength="4.4502" x="1296.3103" y="139.2651">&#160;</text><text fill="#000000" font-family="Sans-Serif" font-size="14" lengthAdjust="spacing" textLength="32.4092" x="1300.7605" y="139.2651">Rate</text></g><!--entity Enhanced Productivity--><g class="entity" data-entity="Enhanced Productivity" data-source-line="24" data-uid="ent0003" id="entity_Enhanced Productivity"><rect fill="#E6E6FA" height="36.2969" rx="10" ry="10" style="stroke:#FFFFFF;stroke-width:0.5;" width="177.2402" x="1160.09" y="224.55"/><text fill="#000000" font-family="Sans-Serif" font-size="14" lengthAdjust="spacing" textLength="69.2412" x="1170.09" y="247.5451">Enhanced</text><text fill="#000000" font-family="Sans-Serif" font-size="14" lengthAdjust="spacing" textLength="4.4502" x="1239.3312" y="247.5451">&#160;</text><text fill="#000000" font-family="Sans-Serif" font-size="14" lengthAdjust="spacing" textLength="83.5488" x="1243.7814" y="247.5451">Productivity</text></g><!--entity Food Security--><g class="entity" data-entity="Food Security" data-source-line="25" data-uid="ent0004" id="entity_Food Security"><rect fill="#E6E6FA" height="36.2969" rx="10" ry="10" style="stroke:#FFFFFF;stroke-width:0.5;" width="116.0107" x="1190.7" y="332.83"/><text fill="#000000" font-family="Sans-Serif" font-size="14" lengthAdjust="spacing" textLength="34.0703" x="1200.7" y="355.8251">Food</text><text fill="#000000" font-family="Sans-Serif" font-size="14" lengthAdjust="spacing" textLength="4.4502" x="1234.7703" y="355.8251">&#160;</text><text fill="#000000" font-family="Sans-Serif" font-size="14" lengthAdjust="spacing" textLength="57.4902" x="1239.2205" y="355.8251">Security</text></g><!--entity Farmer Awareness--><g class="entity" data-entity="Farmer Awareness" data-source-line="26" data-uid="ent0005" id="entity_Farmer Awareness"><rect fill="#87CEEB" height="36.2969" rx="10" ry="10" style="stroke:#FFFFFF;stroke-width:0.5;" width="150.8945" x="273.26" y="7.98"/><text fill="#000000" font-family="Sans-Serif" font-size="14" lengthAdjust="spacing" textLength="50.3945" x="283.26" y="30.9751">Farmer</text><text fill="#000000" font-family="Sans-Serif" font-size="14" lengthAdjust="spacing" textLength="4.4502" x="333.6545" y="30.9751">&#160;</text><text fill="#000000" font-family="Sans-Serif" font-size="14" lengthAdjust="spacing" textLength="76.0498" x="338.1047" y="30.9751">Awareness</text></g><!--entity Seed Availability--><g class="entity" data-entity="Seed Availability" data-source-line="27" data-uid="ent0006" id="entity_Seed Availability"><rect fill="#87CEEB" height="36.2969" rx="10" ry="10" style="stroke:#FFFFFF;stroke-width:0.5;" width="136.5801" x="474.42" y="7.98"/><text fill="#000000" font-family="Sans-Serif" font-size="14" lengthAdjust="spacing" textLength="35" x="484.42" y="30.9751">Seed</text><text fill="#000000" font-family="Sans-Serif" font-size="14" lengthAdjust="spacing" textLength="4.4502" x="519.42" y="30.9751">&#160;</text><text fill="#000000" font-family="Sans-Serif" font-size="14" lengthAdjust="spacing" textLength="77.1299" x="523.8702" y="30.9751">Availability</text></g><!--entity Financial Constraints--><g class="entity" data-entity="Financial Constraints" data-source-line="28" data-uid="ent0007" id="entity_Financial Constraints"><rect fill="#87CEEB" height="36.2969" rx="10" ry="10" style="stroke:#FFFFFF;stroke-width:0.5;" width="166.6514" x="1165.38" y="7.98"/><text fill="#000000" font-family="Sans-Serif" font-size="14" lengthAdjust="spacing" textLength="62.3232" x="1175.38" y="30.9751">Financial</text><text fill="#000000" font-family="Sans-Serif" font-size="14" lengthAdjust="spacing" textLength="4.4502" x="1237.7032" y="30.9751">&#160;</text><text fill="#000000" font-family="Sans-Serif" font-size="14" lengthAdjust="spacing" textLength="79.8779" x="1242.1534" y="30.9751">Constraints</text></g><!--entity Infrastructure Limitations--><g class="entity" data-entity="Infrastructure Limitations" data-source-line="29" data-uid="ent0008" id="entity_Infrastructure Limitations"><rect fill="#87CEEB" height="36.2969" rx="10" ry="10" style="stroke:#FFFFFF;stroke-width:0.5;" width="197.9531" x="1381.73" y="7.98"/><text fill="#000000" font-family="Sans-Serif" font-size="14" lengthAdjust="spacing" textLength="96.1064" x="1391.73" y="30.9751">Infrastructure</text><text fill="#000000" font-family="Sans-Serif" font-size="14" lengthAdjust="spacing" textLength="4.4502" x="1487.8364" y="30.9751">&#160;</text><text fill="#000000" font-family="Sans-Serif" font-size="14" lengthAdjust="spacing" textLength="77.3965" x="1492.2866" y="30.9751">Limitations</text></g><g class="entity" data-entity="GMN15" data-source-line="42" data-uid="ent0016" id="entity_GMN15"><path d="M1865.09,23.57 L1865.09,28.7028 A10,10 0 0 0 1875.09,38.7028 L2032.3312,38.7028 A10,10 0 0 0 2042.3312,28.7028 L2042.3312,23.57 L2032.3312,13.57 L1875.09,13.57 A10,10 0 0 0 1865.09,23.57" fill="#FFA500" style="stroke:#444444;stroke-width:0.5;"/><path d="M2032.3312,13.57 L2032.3312,18.57 A5,5 0 0 0 2037.3312,23.57 L2042.3312,23.57 L2032.3312,13.57" fill="#FFA500" style="stroke:#444444;stroke-width:1;"/><text fill="#000000" font-family="Sans-Serif" font-size="13" lengthAdjust="spacing" textLength="26.3174" x="1871.09" y="30.6369">SRR</text><text fill="#000000" font-family="Sans-Serif" font-size="13" lengthAdjust="spacing" textLength="4.1323" x="1897.4074" y="30.6369">&#160;</text><text fill="#000000" font-family="Sans-Serif" font-size="13" lengthAdjust="spacing" textLength="57.0083" x="1901.5397" y="30.6369">acronym</text><text fill="#000000" font-family="Sans-Serif" font-size="13" lengthAdjust="spacing" textLength="4.1323" x="1958.548" y="30.6369">&#160;</text><text fill="#000000" font-family="Sans-Serif" font-size="13" lengthAdjust="spacing" textLength="64.6509" x="1962.6803" y="30.6369">expanded</text></g><g class="entity" data-entity="GMN18" data-source-line="46" data-uid="ent0019" id="entity_GMN18"><path d="M6,23.57 L6,28.7028 A10,10 0 0 0 16,38.7028 L213.4155,38.7028 A10,10 0 0 0 223.4155,28.7028 L223.4155,31.57 L272.81,26.39 L223.4155,23.57 L223.4155,23.57 L213.4155,13.57 L16,13.57 A10,10 0 0 0 6,23.57" fill="#FFA500" style="stroke:#444444;stroke-width:0.5;"/><path d="M213.4155,13.57 L213.4155,18.57 A5,5 0 0 0 218.4155,23.57 L223.4155,23.57 L213.4155,13.57" fill="#FFA500" style="stroke:#444444;stroke-width:0.5;"/><text fill="#000000" font-family="Sans-Serif" font-size="13" lengthAdjust="spacing" textLength="48.4771" x="12" y="30.6369">Limited</text><text fill="#000000" font-family="Sans-Serif" font-size="13" lengthAdjust="spacing" textLength="4.1323" x="60.4771" y="30.6369">&#160;</text><text fill="#000000" font-family="Sans-Serif" font-size="13" lengthAdjust="spacing" textLength="70.4653" x="64.6094" y="30.6369">knowledge</text><text fill="#000000" font-family="Sans-Serif" font-size="13" lengthAdjust="spacing" textLength="4.1323" x="135.0747" y="30.6369">&#160;</text><text fill="#000000" font-family="Sans-Serif" font-size="13" lengthAdjust="spacing" textLength="12.5303" x="139.207" y="30.6369">of</text><text fill="#000000" font-family="Sans-Serif" font-size="13" lengthAdjust="spacing" textLength="4.1323" x="151.7373" y="30.6369">&#160;</text><text fill="#000000" font-family="Sans-Serif" font-size="13" lengthAdjust="spacing" textLength="52.5459" x="155.8696" y="30.6369">benefits</text></g><g class="entity" data-entity="GMN21" data-source-line="50" data-uid="ent0022" id="entity_GMN21"><path d="M661.41,16 L661.41,22.39 L611.21,26.39 L661.41,30.39 L661.41,36.2656 A10,10 0 0 0 671.41,46.2656 L836.0081,46.2656 A10,10 0 0 0 846.0081,36.2656 L846.0081,16 L836.0081,6 L671.41,6 A10,10 0 0 0 661.41,16" fill="#FFA500" style="stroke:#444444;stroke-width:0.5;"/><path d="M836.0081,6 L836.0081,11 A5,5 0 0 0 841.0081,16 L846.0081,16 L836.0081,6" fill="#FFA500" style="stroke:#444444;stroke-width:0.5;"/><text fill="#000000" font-family="Sans-Serif" font-size="13" lengthAdjust="spacing" textLength="71.9443" x="667.41" y="23.0669">Insufficient</text><text fill="#000000" font-family="Sans-Serif" font-size="13" lengthAdjust="spacing" textLength="4.1323" x="739.3543" y="23.0669">&#160;</text><text fill="#000000" font-family="Sans-Serif" font-size="13" lengthAdjust="spacing" textLength="70.0908" x="743.4867" y="23.0669">production</text><text fill="#000000" font-family="Sans-Serif" font-size="13" lengthAdjust="spacing" textLength="4.1323" x="813.5775" y="23.0669">&#160;</text><text fill="#000000" font-family="Sans-Serif" font-size="13" lengthAdjust="spacing" textLength="13.2983" x="817.7098" y="23.0669">or</text><text fill="#000000" font-family="Sans-Serif" font-size="13" lengthAdjust="spacing" textLength="74.0835" x="712.1673" y="38.1997">distribution</text></g><g class="entity" data-entity="GMN24" data-source-line="54" data-uid="ent0025" id="entity_GMN24"><path d="M896.17,23.57 L896.17,28.7028 A10,10 0 0 0 906.17,38.7028 L1105.2486,38.7028 A10,10 0 0 0 1115.2486,28.7028 L1115.2486,31.57 L1164.91,26.39 L1115.2486,23.57 L1115.2486,23.57 L1105.2486,13.57 L906.17,13.57 A10,10 0 0 0 896.17,23.57" fill="#FFA500" style="stroke:#444444;stroke-width:0.5;"/><path d="M1105.2486,13.57 L1105.2486,18.57 A5,5 0 0 0 1110.2486,23.57 L1115.2486,23.57 L1105.2486,13.57" fill="#FFA500" style="stroke:#444444;stroke-width:0.5;"/><text fill="#000000" font-family="Sans-Serif" font-size="13" lengthAdjust="spacing" textLength="28.9009" x="902.17" y="30.6369">Cost</text><text fill="#000000" font-family="Sans-Serif" font-size="13" lengthAdjust="spacing" textLength="4.1323" x="931.0709" y="30.6369">&#160;</text><text fill="#000000" font-family="Sans-Serif" font-size="13" lengthAdjust="spacing" textLength="48.458" x="935.2032" y="30.6369">hinders</text><text fill="#000000" font-family="Sans-Serif" font-size="13" lengthAdjust="spacing" textLength="4.1323" x="983.6612" y="30.6369">&#160;</text><text fill="#000000" font-family="Sans-Serif" font-size="13" lengthAdjust="spacing" textLength="57.6558" x="987.7935" y="30.6369">marginal</text><text fill="#000000" font-family="Sans-Serif" font-size="13" lengthAdjust="spacing" textLength="4.1323" x="1045.4493" y="30.6369">&#160;</text><text fill="#000000" font-family="Sans-Serif" font-size="13" lengthAdjust="spacing" textLength="50.667" x="1049.5816" y="30.6369">farmers</text></g><g class="entity" data-entity="GMN27" data-source-line="58" data-uid="ent0028" id="entity_GMN27"><path d="M1630.09,16 L1630.09,22.39 L1579.84,26.39 L1630.09,30.39 L1630.09,36.2656 A10,10 0 0 0 1640.09,46.2656 L1805.3293,46.2656 A10,10 0 0 0 1815.3293,36.2656 L1815.3293,16 L1805.3293,6 L1640.09,6 A10,10 0 0 0 1630.09,16" fill="#FFA500" style="stroke:#444444;stroke-width:0.5;"/><path d="M1805.3293,6 L1805.3293,11 A5,5 0 0 0 1810.3293,16 L1815.3293,16 L1805.3293,6" fill="#FFA500" style="stroke:#444444;stroke-width:0.5;"/><text fill="#000000" font-family="Sans-Serif" font-size="13" lengthAdjust="spacing" textLength="29.0913" x="1636.09" y="23.0669">Poor</text><text fill="#000000" font-family="Sans-Serif" font-size="13" lengthAdjust="spacing" textLength="4.1323" x="1665.1813" y="23.0669">&#160;</text><text fill="#000000" font-family="Sans-Serif" font-size="13" lengthAdjust="spacing" textLength="49.3848" x="1669.3136" y="23.0669">storage</text><text fill="#000000" font-family="Sans-Serif" font-size="13" lengthAdjust="spacing" textLength="4.1323" x="1718.6984" y="23.0669">&#160;</text><text fill="#000000" font-family="Sans-Serif" font-size="13" lengthAdjust="spacing" textLength="13.2983" x="1722.8307" y="23.0669">or</text><text fill="#000000" font-family="Sans-Serif" font-size="13" lengthAdjust="spacing" textLength="4.1323" x="1736.1291" y="23.0669">&#160;</text><text fill="#000000" font-family="Sans-Serif" font-size="13" lengthAdjust="spacing" textLength="60.0679" x="1740.2614" y="23.0669">transport</text><text fill="#000000" font-family="Sans-Serif" font-size="13" lengthAdjust="spacing" textLength="59.5664" x="1688.4264" y="38.1997">networks</text></g><g class="entity" data-entity="GMN30" data-source-line="62" data-uid="ent0031" id="entity_GMN30"><path d="M1387.5,232.56 L1387.5,239.39 L1337.67,243.39 L1387.5,247.39 L1387.5,252.8256 A10,10 0 0 0 1397.5,262.8256 L1575.917,262.8256 A10,10 0 0 0 1585.917,252.8256 L1585.917,232.56 L1575.917,222.56 L1397.5,222.56 A10,10 0 0 0 1387.5,232.56" fill="#FFA500" style="stroke:#444444;stroke-width:0.5;"/><path d="M1575.917,222.56 L1575.917,227.56 A5,5 0 0 0 1580.917,232.56 L1585.917,232.56 L1575.917,222.56" fill="#FFA500" style="stroke:#444444;stroke-width:0.5;"/><text fill="#000000" font-family="Sans-Serif" font-size="13" lengthAdjust="spacing" textLength="33.4395" x="1393.5" y="239.6269">From</text><text fill="#000000" font-family="Sans-Serif" font-size="13" lengthAdjust="spacing" textLength="4.1323" x="1426.9395" y="239.6269">&#160;</text><text fill="#000000" font-family="Sans-Serif" font-size="13" lengthAdjust="spacing" textLength="39.7871" x="1431.0718" y="239.6269">better</text><text fill="#000000" font-family="Sans-Serif" font-size="13" lengthAdjust="spacing" textLength="4.1323" x="1470.8589" y="239.6269">&#160;</text><text fill="#000000" font-family="Sans-Serif" font-size="13" lengthAdjust="spacing" textLength="31.021" x="1474.9912" y="239.6269">seed</text><text fill="#000000" font-family="Sans-Serif" font-size="13" lengthAdjust="spacing" textLength="4.1323" x="1506.0122" y="239.6269">&#160;</text><text fill="#000000" font-family="Sans-Serif" font-size="13" lengthAdjust="spacing" textLength="33.8901" x="1510.1445" y="239.6269">traits</text><text fill="#000000" font-family="Sans-Serif" font-size="13" lengthAdjust="spacing" textLength="4.1323" x="1544.0347" y="239.6269">&#160;</text><text fill="#000000" font-family="Sans-Serif" font-size="13" lengthAdjust="spacing" textLength="22.75" x="1548.167" y="239.6269">like</text><text fill="#000000" font-family="Sans-Serif" font-size="13" lengthAdjust="spacing" textLength="31.167" x="1466.625" y="254.7597">yield</text></g><g class="entity" data-entity="GMN33" data-source-line="66" data-uid="ent0034" id="entity_GMN33"><path d="M1146.34,449.12 L1146.34,469.3856 A10,10 0 0 0 1156.34,479.3856 L1341.0729,479.3856 A10,10 0 0 0 1351.0729,469.3856 L1351.0729,449.12 L1341.0729,439.12 L1252.71,439.12 L1248.71,369.34 L1244.71,439.12 L1156.34,439.12 A10,10 0 0 0 1146.34,449.12" fill="#FFA500" style="stroke:#444444;stroke-width:0.5;"/><path d="M1341.0729,439.12 L1341.0729,444.12 A5,5 0 0 0 1346.0729,449.12 L1351.0729,449.12 L1341.0729,439.12" fill="#FFA500" style="stroke:#444444;stroke-width:0.5;"/><text fill="#000000" font-family="Sans-Serif" font-size="13" lengthAdjust="spacing" textLength="71.6206" x="1152.34" y="456.1869">Availability</text><text fill="#000000" font-family="Sans-Serif" font-size="13" lengthAdjust="spacing" textLength="4.1323" x="1223.9606" y="456.1869">&#160;</text><text fill="#000000" font-family="Sans-Serif" font-size="13" lengthAdjust="spacing" textLength="12.5303" x="1228.0929" y="456.1869">of</text><text fill="#000000" font-family="Sans-Serif" font-size="13" lengthAdjust="spacing" textLength="4.1323" x="1240.6232" y="456.1869">&#160;</text><text fill="#000000" font-family="Sans-Serif" font-size="13" lengthAdjust="spacing" textLength="59.8711" x="1244.7555" y="456.1869">sufficient</text><text fill="#000000" font-family="Sans-Serif" font-size="13" lengthAdjust="spacing" textLength="4.1323" x="1304.6266" y="456.1869">&#160;</text><text fill="#000000" font-family="Sans-Serif" font-size="13" lengthAdjust="spacing" textLength="27.314" x="1308.7589" y="456.1869">safe</text><text fill="#000000" font-family="Sans-Serif" font-size="13" lengthAdjust="spacing" textLength="28.7358" x="1229.8385" y="471.3197">food</text></g><!--link Seed Replacement Rate to Enhanced Productivity--><g class="link" data-entity-1="Seed Replacement Rate" data-entity-2="Enhanced Productivity" data-source-line="32" data-uid="lnk9" id="link_Seed Replacement Rate_Enhanced Productivity"><path codeLine="32" d="M1248.71,152.78 C1248.71,172.69 1248.71,198.29 1248.71,218.24" fill="none" id="Seed Replacement Rate-to-Enhanced Productivity" style="stroke:#FFFFFF;stroke-width:1.5;"/><polygon fill="#FFFFFF" points="1248.71,224.24,1252.71,215.24,1248.71,219.24,1244.71,215.24,1248.71,224.24" style="stroke:#FFFFFF;stroke-width:1.5;"/></g><!--link Enhanced Productivity to Food Security--><g class="link" data-entity-1="Enhanced Productivity" data-entity-2="Food Security" data-source-line="33" data-uid="lnk10" id="link_Enhanced Productivity_Food Security"><path codeLine="33" d="M1248.71,261.06 C1248.71,280.97 1248.71,306.57 1248.71,326.52" fill="none" id="Enhanced Productivity-to-Food Security" style="stroke:#FFFFFF;stroke-width:1.5;"/><polygon fill="#FFFFFF" points="1248.71,332.52,1252.71,323.52,1248.71,327.52,1244.71,323.52,1248.71,332.52" style="stroke:#FFFFFF;stroke-width:1.5;"/></g><!--link Farmer Awareness to Seed Replacement Rate--><g class="link" data-entity-1="Farmer Awareness" data-entity-2="Seed Replacement Rate" data-source-line="35" data-uid="lnk11" id="link_Farmer Awareness_Seed Replacement Rate"><path codeLine="35" d="M348.71,44.65 C348.71,77.23 348.71,141.39 348.71,141.39 C348.71,141.39 917.02,141.39 1148.09,141.39" fill="none" id="Farmer Awareness-to-Seed Replacement Rate" style="stroke:#FF0000;stroke-width:1.5;"/><polygon fill="#FF0000" points="1154.09,141.39,1145.09,137.39,1149.09,141.39,1145.09,145.39,1154.09,141.39" style="stroke:#FF0000;stroke-width:1.5;"/></g><!--link Seed Availability to Seed Replacement Rate--><g class="link" data-entity-1="Seed Availability" data-entity-2="Seed Replacement Rate" data-source-line="36" data-uid="lnk12" id="link_Seed Availability_Seed Replacement Rate"><path codeLine="36" d="M542.71,44.41 C542.71,73.83 542.71,128.39 542.71,128.39 C542.71,128.39 955.32,128.39 1147.86,128.39" fill="none" id="Seed Availability-to-Seed Replacement Rate" style="stroke:#FF0000;stroke-width:1.5;"/><polygon fill="#FF0000" points="1153.86,128.39,1144.86,124.39,1148.86,128.39,1144.86,132.39,1153.86,128.39" style="stroke:#FF0000;stroke-width:1.5;"/></g><!--link Financial Constraints to Seed Replacement Rate--><g class="link" data-entity-1="Financial Constraints" data-entity-2="Seed Replacement Rate" data-source-line="37" data-uid="lnk13" id="link_Financial Constraints_Seed Replacement Rate"><path codeLine="37" d="M1248.71,44.5 C1248.71,64.41 1248.71,90.01 1248.71,109.95" fill="none" id="Financial Constraints-to-Seed Replacement Rate" style="stroke:#FF0000;stroke-width:1.5;"/><polygon fill="#FF0000" points="1248.71,115.95,1252.71,106.95,1248.71,110.95,1244.71,106.95,1248.71,115.95" style="stroke:#FF0000;stroke-width:1.5;"/></g><!--link Infrastructure Limitations to Seed Replacement Rate--><g class="link" data-entity-1="Infrastructure Limitations" data-entity-2="Seed Replacement Rate" data-source-line="38" data-uid="lnk14" id="link_Infrastructure Limitations_Seed Replacement Rate"><path codeLine="38" d="M1381.32,26.39 C1356.9,26.39 1337.6,26.39 1337.6,26.39 C1337.6,26.39 1337.6,79.27 1337.6,110.09" fill="none" id="Infrastructure Limitations-to-Seed Replacement Rate" style="stroke:#FF0000;stroke-width:1.5;"/><polygon fill="#FF0000" points="1337.6,116.09,1341.6,107.09,1337.6,111.09,1333.6,107.09,1337.6,116.09" style="stroke:#FF0000;stroke-width:1.5;"/></g><!--link GMN15 to Seed Replacement Rate--><g class="link" data-entity-1="GMN15" data-entity-2="Seed Replacement Rate" data-source-line="42" data-uid="lnk17" id="link_GMN15_Seed Replacement Rate"><path d="M1953.71,39.09 C1953.71,68.04 1953.71,135.39 1953.71,135.39 C1953.71,135.39 1535.69,135.39 1343.42,135.39" fill="none" id="GMN15-Seed Replacement Rate" style="stroke:#FFFFFF;stroke-width:1.5;stroke-dasharray:7.0,7.0;"/></g><!--SRC=[ZLLDRzim3BtxLn3jOQSCtKVRdGQaGG8K68eYAR33i8DYqJPXMJGefMx-_MWdQvt4Jkk30OkFZu-FicISuwQY5_9v4ahojH5JmTgaPIwyyNR6ZWKkltLF3-78OzpM22onu5x0iyM0DLnVzHR5-B9TlEqlLXY2oN7gAFSL-WYflb1w28kPsRZuX2_n3Cfpn3iMYx8N-xrxZX77BIqMq-khlfwf23UxO5DGnEFGKq5fwLKqVFbytGisOkhVP6C1Nm_uzkeNxEE3gH0kLiQ7oGg5ieiZSUzXzhh5esYHNY0KndAZmuFCk833rNSzhPqwC51tE2gOHkDpzn58t_oTSyadc9c8EGjXI5w1sXwYXINMIeNTD9SAku3B7xUp-VokZvpxmlXKqO_2TfD6UgQuLUJyPdwpcFQH2sOBAqmtCeemKgbpqyO8jWCSBDX9cpuRScPDRaTrYbgGLrba7CpOXoY6V1pck_UP64MezeqW_AAAeecaMMzmzMc9RhTQK1sICOCcavzZbYHZLdKvX-OaoO0Nap-NWlPlYnwkdWnvyu6i4Qy-a7dEk_VJrTMLLjFzHoayw3Q7n_-8fDtr4Ba6paRp0LRB9PXKs6yhm9VQU8isGM-xdoRPaJZCOiTougWIT8gLlFJSEBGvjiYrXZEAuPX9A2_Ycw03dvNhteTDbb5AhS9wFsBsUlA29JM9rflsUrpVu1YKUCOXGa7Qd0IeZEGAT7gGjEsS4NbcE4hwoAehH1RJDYsWzNoezPO0lJ0Qbl8CyyW61rW8wwM4KGz-2Ar7RHSnw2rK8cm9tSbqrXoZvdJz7_u2S61mY-ZP6qo6a6d2Azy_]--></g></svg>