<svg xmlns="http://www.w3.org/2000/svg" xmlns:xlink="http://www.w3.org/1999/xlink" contentStyleType="text/css" data-diagram-type="CLASS" height="395px" preserveAspectRatio="none" style="width:1541px;height:395px;background:#333333;" version="1.1" viewBox="0 0 1541 395" width="1541px" zoomAndPan="magnify"><defs/><g><rect fill="#333333" height="395" style="stroke:none;stroke-width:1;" width="1541" x="0" y="0"/><!--entity President India--><g class="entity" data-entity="President India" data-source-line="23" data-uid="ent0002" id="entity_President India"><rect fill="#F5DEB3" height="36.2969" rx="10" ry="10" style="stroke:#FFFFFF;stroke-width:0.5;" width="124.665" x="7" y="7.99"/><text fill="#000000" font-family="Sans-Serif" font-size="14" lengthAdjust="spacing" textLength="65.8574" x="17" y="30.9851">President</text><text fill="#000000" font-family="Sans-Serif" font-size="14" lengthAdjust="spacing" textLength="4.4502" x="82.8574" y="30.9851">&#160;</text><text fill="#000000" font-family="Sans-Serif" font-size="14" lengthAdjust="spacing" textLength="34.3574" x="87.3076" y="30.9851">India</text></g><!--entity Supreme Court India--><g class="entity" data-entity="Supreme Court India" data-source-line="24" data-uid="ent0003" id="entity_Supreme Court India"><rect fill="#F5DEB3" height="36.2969" rx="10" ry="10" style="stroke:#FFFFFF;stroke-width:0.5;" width="164.9834" x="653.84" y="7.99"/><text fill="#000000" font-family="Sans-Serif" font-size="14" lengthAdjust="spacing" textLength="63.2666" x="663.84" y="30.9851">Supreme</text><text fill="#000000" font-family="Sans-Serif" font-size="14" lengthAdjust="spacing" textLength="4.4502" x="727.1066" y="30.9851">&#160;</text><text fill="#000000" font-family="Sans-Serif" font-size="14" lengthAdjust="spacing" textLength="38.459" x="731.5568" y="30.9851">Court</text><text fill="#000000" font-family="Sans-Serif" font-size="14" lengthAdjust="spacing" textLength="4.4502" x="770.0158" y="30.9851">&#160;</text><text fill="#000000" font-family="Sans-Serif" font-size="14" lengthAdjust="spacing" textLength="34.3574" x="774.466" y="30.9851">India</text></g><!--entity Legislative Assemblies--><g class="entity" data-entity="Legislative Assemblies" data-source-line="25" data-uid="ent0004" id="entity_Legislative Assemblies"><rect fill="#F5DEB3" height="36.2969" rx="10" ry="10" style="stroke:#FFFFFF;stroke-width:0.5;" width="178.6689" x="869" y="7.99"/><text fill="#000000" font-family="Sans-Serif" font-size="14" lengthAdjust="spacing" textLength="75.2295" x="879" y="30.9851">Legislative</text><text fill="#000000" font-family="Sans-Serif" font-size="14" lengthAdjust="spacing" textLength="4.4502" x="954.2295" y="30.9851">&#160;</text><text fill="#000000" font-family="Sans-Serif" font-size="14" lengthAdjust="spacing" textLength="78.9893" x="958.6797" y="30.9851">Assemblies</text></g><!--entity Presidential Election--><g class="entity" data-entity="Presidential Election" data-source-line="28" data-uid="ent0005" id="entity_Presidential Election"><rect fill="#98FB98" height="36.2969" rx="10" ry="10" style="stroke:#FFFFFF;stroke-width:0.5;" width="162.5293" x="877.07" y="116.27"/><text fill="#000000" font-family="Sans-Serif" font-size="14" lengthAdjust="spacing" textLength="82.2158" x="887.07" y="139.2651">Presidential</text><text fill="#000000" font-family="Sans-Serif" font-size="14" lengthAdjust="spacing" textLength="4.4502" x="969.2858" y="139.2651">&#160;</text><text fill="#000000" font-family="Sans-Serif" font-size="14" lengthAdjust="spacing" textLength="55.8633" x="973.736" y="139.2651">Election</text></g><!--entity Presidential Assent--><g class="entity" data-entity="Presidential Assent" data-source-line="29" data-uid="ent0006" id="entity_Presidential Assent"><rect fill="#98FB98" height="36.2969" rx="10" ry="10" style="stroke:#FFFFFF;stroke-width:0.5;" width="153.8066" x="813.43" y="338.41"/><text fill="#000000" font-family="Sans-Serif" font-size="14" lengthAdjust="spacing" textLength="82.2158" x="823.43" y="361.4051">Presidential</text><text fill="#000000" font-family="Sans-Serif" font-size="14" lengthAdjust="spacing" textLength="4.4502" x="905.6458" y="361.4051">&#160;</text><text fill="#000000" font-family="Sans-Serif" font-size="14" lengthAdjust="spacing" textLength="47.1406" x="910.096" y="361.4051">Assent</text></g><!--entity Acts President--><g class="entity" data-entity="Acts President" data-source-line="32" data-uid="ent0007" id="entity_Acts President"><rect fill="#87CEEB" height="36.2969" rx="10" ry="10" style="stroke:#FFFFFF;stroke-width:0.5;" width="120.3652" x="966.15" y="222.56"/><text fill="#000000" font-family="Sans-Serif" font-size="14" lengthAdjust="spacing" textLength="30.0576" x="976.15" y="245.5551">Acts</text><text fill="#000000" font-family="Sans-Serif" font-size="14" lengthAdjust="spacing" textLength="4.4502" x="1006.2076" y="245.5551">&#160;</text><text fill="#000000" font-family="Sans-Serif" font-size="14" lengthAdjust="spacing" textLength="65.8574" x="1010.6578" y="245.5551">President</text></g><g class="entity" data-entity="GMN15" data-source-line="45" data-uid="ent0016" id="entity_GMN15"><path d="M182.1,23.57 L182.1,22.26 L132.14,26.26 L182.1,30.26 L182.1,28.7028 A10,10 0 0 0 192.1,38.7028 L350.56,38.7028 A10,10 0 0 0 360.56,28.7028 L360.56,23.57 L350.56,13.57 L192.1,13.57 A10,10 0 0 0 182.1,23.57" fill="#FFA500" style="stroke:#444444;stroke-width:0.5;"/><path d="M350.56,13.57 L350.56,18.57 A5,5 0 0 0 355.56,23.57 L360.56,23.57 L350.56,13.57" fill="#FFA500" style="stroke:#444444;stroke-width:0.5;"/><text fill="#000000" font-family="Sans-Serif" font-size="13" lengthAdjust="spacing" textLength="33.9917" x="188.1" y="30.6369">Head</text><text fill="#000000" font-family="Sans-Serif" font-size="13" lengthAdjust="spacing" textLength="4.1323" x="222.0917" y="30.6369">&#160;</text><text fill="#000000" font-family="Sans-Serif" font-size="13" lengthAdjust="spacing" textLength="12.5303" x="226.224" y="30.6369">of</text><text fill="#000000" font-family="Sans-Serif" font-size="13" lengthAdjust="spacing" textLength="4.1323" x="238.7543" y="30.6369">&#160;</text><text fill="#000000" font-family="Sans-Serif" font-size="13" lengthAdjust="spacing" textLength="21.3345" x="242.8866" y="30.6369">the</text><text fill="#000000" font-family="Sans-Serif" font-size="13" lengthAdjust="spacing" textLength="4.1323" x="264.2211" y="30.6369">&#160;</text><text fill="#000000" font-family="Sans-Serif" font-size="13" lengthAdjust="spacing" textLength="40.1426" x="268.3534" y="30.6369">Indian</text><text fill="#000000" font-family="Sans-Serif" font-size="13" lengthAdjust="spacing" textLength="4.1323" x="308.496" y="30.6369">&#160;</text><text fill="#000000" font-family="Sans-Serif" font-size="13" lengthAdjust="spacing" textLength="32.9316" x="312.6283" y="30.6369">state</text></g><g class="entity" data-entity="GMN18" data-source-line="49" data-uid="ent0019" id="entity_GMN18"><path d="M1366.53,16 L1366.53,36.2656 A10,10 0 0 0 1376.53,46.2656 L1520.1428,46.2656 A10,10 0 0 0 1530.1428,36.2656 L1530.1428,16 L1520.1428,6 L1376.53,6 A10,10 0 0 0 1366.53,16" fill="#FFA500" style="stroke:#444444;stroke-width:0.5;"/><path d="M1520.1428,6 L1520.1428,11 A5,5 0 0 0 1525.1428,16 L1530.1428,16 L1520.1428,6" fill="#FFA500" style="stroke:#444444;stroke-width:1;"/><text fill="#000000" font-family="Sans-Serif" font-size="13" lengthAdjust="spacing" textLength="35.0708" x="1372.53" y="23.0669">Legal</text><text fill="#000000" font-family="Sans-Serif" font-size="13" lengthAdjust="spacing" textLength="4.1323" x="1407.6008" y="23.0669">&#160;</text><text fill="#000000" font-family="Sans-Serif" font-size="13" lengthAdjust="spacing" textLength="50.2417" x="1411.7331" y="23.0669">process</text><text fill="#000000" font-family="Sans-Serif" font-size="13" lengthAdjust="spacing" textLength="4.1323" x="1461.9748" y="23.0669">&#160;</text><text fill="#000000" font-family="Sans-Serif" font-size="13" lengthAdjust="spacing" textLength="13.0508" x="1466.1071" y="23.0669">to</text><text fill="#000000" font-family="Sans-Serif" font-size="13" lengthAdjust="spacing" textLength="4.1323" x="1479.1579" y="23.0669">&#160;</text><text fill="#000000" font-family="Sans-Serif" font-size="13" lengthAdjust="spacing" textLength="31.8525" x="1483.2903" y="23.0669">elect</text><text fill="#000000" font-family="Sans-Serif" font-size="13" lengthAdjust="spacing" textLength="61.1533" x="1413.2597" y="38.1997">President</text></g><g class="entity" data-entity="GMN21" data-source-line="53" data-uid="ent0022" id="entity_GMN21"><path d="M410.46,16 L410.46,36.2656 A10,10 0 0 0 420.46,46.2656 L594.2115,46.2656 A10,10 0 0 0 604.2115,36.2656 L604.2115,30.26 L653.53,26.26 L604.2115,22.26 L604.2115,16 L594.2115,6 L420.46,6 A10,10 0 0 0 410.46,16" fill="#FFA500" style="stroke:#444444;stroke-width:0.5;"/><path d="M594.2115,6 L594.2115,11 A5,5 0 0 0 599.2115,16 L604.2115,16 L594.2115,6" fill="#FFA500" style="stroke:#444444;stroke-width:0.5;"/><text fill="#000000" font-family="Sans-Serif" font-size="13" lengthAdjust="spacing" textLength="57.8335" x="416.46" y="23.0669">Resolves</text><text fill="#000000" font-family="Sans-Serif" font-size="13" lengthAdjust="spacing" textLength="4.1323" x="474.2935" y="23.0669">&#160;</text><text fill="#000000" font-family="Sans-Serif" font-size="13" lengthAdjust="spacing" textLength="51.6572" x="478.4258" y="23.0669">election</text><text fill="#000000" font-family="Sans-Serif" font-size="13" lengthAdjust="spacing" textLength="4.1323" x="530.083" y="23.0669">&#160;</text><text fill="#000000" font-family="Sans-Serif" font-size="13" lengthAdjust="spacing" textLength="54.9961" x="534.2154" y="23.0669">disputes</text><text fill="#000000" font-family="Sans-Serif" font-size="13" lengthAdjust="spacing" textLength="25.2827" x="420.2527" y="38.1997">Can</text><text fill="#000000" font-family="Sans-Serif" font-size="13" lengthAdjust="spacing" textLength="4.1323" x="445.5354" y="38.1997">&#160;</text><text fill="#000000" font-family="Sans-Serif" font-size="13" lengthAdjust="spacing" textLength="48.3184" x="449.6678" y="38.1997">declare</text><text fill="#000000" font-family="Sans-Serif" font-size="13" lengthAdjust="spacing" textLength="4.1323" x="497.9861" y="38.1997">&#160;</text><text fill="#000000" font-family="Sans-Serif" font-size="13" lengthAdjust="spacing" textLength="51.6572" x="502.1184" y="38.1997">election</text><text fill="#000000" font-family="Sans-Serif" font-size="13" lengthAdjust="spacing" textLength="4.1323" x="553.7757" y="38.1997">&#160;</text><text fill="#000000" font-family="Sans-Serif" font-size="13" lengthAdjust="spacing" textLength="27.5107" x="557.908" y="38.1997">void</text></g><g class="entity" data-entity="GMN24" data-source-line="58" data-uid="ent0025" id="entity_GMN24"><path d="M1017.16,338.86 L1017.16,374.2584 A10,10 0 0 0 1027.16,384.2584 L1217.4979,384.2584 A10,10 0 0 0 1227.4979,374.2584 L1227.4979,338.86 L1217.4979,328.86 L1055.84,328.86 L1051.84,259.33 L1047.84,328.86 L1027.16,328.86 A10,10 0 0 0 1017.16,338.86" fill="#FFA500" style="stroke:#444444;stroke-width:0.5;"/><path d="M1217.4979,328.86 L1217.4979,333.86 A5,5 0 0 0 1222.4979,338.86 L1227.4979,338.86 L1217.4979,328.86" fill="#FFA500" style="stroke:#444444;stroke-width:0.5;"/><text fill="#000000" font-family="Sans-Serif" font-size="13" lengthAdjust="spacing" textLength="45.335" x="1023.16" y="345.9269">Official</text><text fill="#000000" font-family="Sans-Serif" font-size="13" lengthAdjust="spacing" textLength="4.1323" x="1068.495" y="345.9269">&#160;</text><text fill="#000000" font-family="Sans-Serif" font-size="13" lengthAdjust="spacing" textLength="46.7886" x="1072.6273" y="345.9269">actions</text><text fill="#000000" font-family="Sans-Serif" font-size="13" lengthAdjust="spacing" textLength="4.1323" x="1119.4159" y="345.9269">&#160;</text><text fill="#000000" font-family="Sans-Serif" font-size="13" lengthAdjust="spacing" textLength="24.4575" x="1123.5482" y="345.9269">and</text><text fill="#000000" font-family="Sans-Serif" font-size="13" lengthAdjust="spacing" textLength="4.1323" x="1148.0057" y="345.9269">&#160;</text><text fill="#000000" font-family="Sans-Serif" font-size="13" lengthAdjust="spacing" textLength="60.3599" x="1152.138" y="345.9269">decisions</text><text fill="#000000" font-family="Sans-Serif" font-size="13" lengthAdjust="spacing" textLength="48.7373" x="1041.9745" y="361.0597">Validity</text><text fill="#000000" font-family="Sans-Serif" font-size="13" lengthAdjust="spacing" textLength="4.1323" x="1090.7118" y="361.0597">&#160;</text><text fill="#000000" font-family="Sans-Serif" font-size="13" lengthAdjust="spacing" textLength="82.1768" x="1094.8441" y="361.0597">independent</text><text fill="#000000" font-family="Sans-Serif" font-size="13" lengthAdjust="spacing" textLength="4.1323" x="1177.0208" y="361.0597">&#160;</text><text fill="#000000" font-family="Sans-Serif" font-size="13" lengthAdjust="spacing" textLength="12.5303" x="1181.1532" y="361.0597">of</text><text fill="#000000" font-family="Sans-Serif" font-size="13" lengthAdjust="spacing" textLength="51.6572" x="1092.0003" y="376.1925">election</text></g><g class="entity" data-entity="GMN27" data-source-line="63" data-uid="ent0028" id="entity_GMN27"><path d="M1098.09,23.57 L1098.09,22.26 L1047.88,26.26 L1098.09,30.26 L1098.09,28.7028 A10,10 0 0 0 1108.09,38.7028 L1306.5719,38.7028 A10,10 0 0 0 1316.5719,28.7028 L1316.5719,23.57 L1306.5719,13.57 L1108.09,13.57 A10,10 0 0 0 1098.09,23.57" fill="#FFA500" style="stroke:#444444;stroke-width:0.5;"/><path d="M1306.5719,13.57 L1306.5719,18.57 A5,5 0 0 0 1311.5719,23.57 L1316.5719,23.57 L1306.5719,13.57" fill="#FFA500" style="stroke:#444444;stroke-width:0.5;"/><text fill="#000000" font-family="Sans-Serif" font-size="13" lengthAdjust="spacing" textLength="69.9321" x="1104.09" y="30.6369">Participate</text><text fill="#000000" font-family="Sans-Serif" font-size="13" lengthAdjust="spacing" textLength="4.1323" x="1174.0221" y="30.6369">&#160;</text><text fill="#000000" font-family="Sans-Serif" font-size="13" lengthAdjust="spacing" textLength="11.8511" x="1178.1545" y="30.6369">in</text><text fill="#000000" font-family="Sans-Serif" font-size="13" lengthAdjust="spacing" textLength="4.1323" x="1190.0055" y="30.6369">&#160;</text><text fill="#000000" font-family="Sans-Serif" font-size="13" lengthAdjust="spacing" textLength="56.729" x="1194.1379" y="30.6369">electoral</text><text fill="#000000" font-family="Sans-Serif" font-size="13" lengthAdjust="spacing" textLength="4.1323" x="1250.8669" y="30.6369">&#160;</text><text fill="#000000" font-family="Sans-Serif" font-size="13" lengthAdjust="spacing" textLength="46.5728" x="1254.9992" y="30.6369">college</text></g><g class="entity" data-entity="GMN30" data-source-line="67" data-uid="ent0031" id="entity_GMN30"><path d="M577.66,346.43 L577.66,366.6956 A10,10 0 0 0 587.66,376.6956 L753.0008,376.6956 A10,10 0 0 0 763.0008,366.6956 L763.0008,361.26 L812.95,357.26 L763.0008,353.26 L763.0008,346.43 L753.0008,336.43 L587.66,336.43 A10,10 0 0 0 577.66,346.43" fill="#FFA500" style="stroke:#444444;stroke-width:0.5;"/><path d="M753.0008,336.43 L753.0008,341.43 A5,5 0 0 0 758.0008,346.43 L763.0008,346.43 L753.0008,336.43" fill="#FFA500" style="stroke:#444444;stroke-width:0.5;"/><text fill="#000000" font-family="Sans-Serif" font-size="13" lengthAdjust="spacing" textLength="57.9668" x="583.66" y="353.4969">Approval</text><text fill="#000000" font-family="Sans-Serif" font-size="13" lengthAdjust="spacing" textLength="4.1323" x="641.6268" y="353.4969">&#160;</text><text fill="#000000" font-family="Sans-Serif" font-size="13" lengthAdjust="spacing" textLength="50.2417" x="645.7591" y="353.4969">process</text><text fill="#000000" font-family="Sans-Serif" font-size="13" lengthAdjust="spacing" textLength="4.1323" x="696.0008" y="353.4969">&#160;</text><text fill="#000000" font-family="Sans-Serif" font-size="13" lengthAdjust="spacing" textLength="17.875" x="700.1331" y="353.4969">for</text><text fill="#000000" font-family="Sans-Serif" font-size="13" lengthAdjust="spacing" textLength="4.1323" x="718.0081" y="353.4969">&#160;</text><text fill="#000000" font-family="Sans-Serif" font-size="13" lengthAdjust="spacing" textLength="25.8604" x="722.1405" y="353.4969">bills</text><text fill="#000000" font-family="Sans-Serif" font-size="13" lengthAdjust="spacing" textLength="17.6782" x="589.3126" y="368.6297">No</text><text fill="#000000" font-family="Sans-Serif" font-size="13" lengthAdjust="spacing" textLength="4.1323" x="606.9908" y="368.6297">&#160;</text><text fill="#000000" font-family="Sans-Serif" font-size="13" lengthAdjust="spacing" textLength="58.2207" x="611.1231" y="368.6297">specified</text><text fill="#000000" font-family="Sans-Serif" font-size="13" lengthAdjust="spacing" textLength="4.1323" x="669.3438" y="368.6297">&#160;</text><text fill="#000000" font-family="Sans-Serif" font-size="13" lengthAdjust="spacing" textLength="29.3706" x="673.4762" y="368.6297">time</text><text fill="#000000" font-family="Sans-Serif" font-size="13" lengthAdjust="spacing" textLength="4.1323" x="702.8468" y="368.6297">&#160;</text><text fill="#000000" font-family="Sans-Serif" font-size="13" lengthAdjust="spacing" textLength="35.3691" x="706.9791" y="368.6297">limits</text></g><!--link Presidential Election to Supreme Court India--><g class="link" data-entity-1="Presidential Election" data-entity-2="Supreme Court India" data-source-line="35" data-uid="lnk8" id="link_Presidential Election_Supreme Court India"><path codeLine="35" d="M876.65,141.26 C829.64,141.26 779.81,141.26 779.81,141.26 C779.81,141.26 779.81,83.17 779.81,50.63" fill="none" id="Presidential Election-to-Supreme Court India" style="stroke:#FFFFFF;stroke-width:1.5;stroke-dasharray:7.0,7.0;"/><polygon fill="#FFFFFF" points="779.81,44.63,775.81,53.63,779.81,49.63,783.81,53.63,779.81,44.63" style="stroke:#FFFFFF;stroke-width:1.5;"/></g><!--link Supreme Court India to Presidential Election--><g class="link" data-entity-1="Supreme Court India" data-entity-2="Presidential Election" data-source-line="36" data-uid="lnk9" id="link_Supreme Court India_Presidential Election"><path codeLine="36" d="M796.62,44.57 C796.62,74.23 796.62,129.26 796.62,129.26 C796.62,129.26 830.73,129.26 871,129.26" fill="none" id="Supreme Court India-to-Presidential Election" style="stroke:#FFFFFF;stroke-width:1.5;"/><polygon fill="#FFFFFF" points="877,129.26,868,125.26,872,129.26,868,133.26,877,129.26" style="stroke:#FFFFFF;stroke-width:1.5;"/></g><!--link Presidential Election to Acts President--><g class="link" data-entity-1="Presidential Election" data-entity-2="Acts President" data-source-line="37" data-uid="lnk10" id="link_Presidential Election_Acts President"><path codeLine="37" d="M1002.87,152.93 C1002.87,172.44 1002.87,196.98 1002.87,216.41" fill="none" id="Presidential Election-to-Acts President" style="stroke:#FFFFFF;stroke-width:1.5;stroke-dasharray:7.0,7.0;"/><polygon fill="#FFFFFF" points="1002.87,222.41,1006.87,213.41,1002.87,217.41,998.87,213.41,1002.87,222.41" style="stroke:#FFFFFF;stroke-width:1.5;"/></g><!--link Legislative Assemblies to Presidential Election--><g class="link" data-entity-1="Legislative Assemblies" data-entity-2="Presidential Election" data-source-line="38" data-uid="lnk11" id="link_Legislative Assemblies_Presidential Election"><path codeLine="38" d="M931.24,44.5 C931.24,64.42 931.24,90.01 931.24,109.96" fill="none" id="Legislative Assemblies-to-Presidential Election" style="stroke:#FFFFFF;stroke-width:1.5;stroke-dasharray:7.0,7.0;"/><polygon fill="#FFFFFF" points="931.24,115.96,935.24,106.96,931.24,110.96,927.24,106.96,931.24,115.96" style="stroke:#FFFFFF;stroke-width:1.5;"/></g><!--link Legislative Assemblies to Presidential Election--><g class="link" data-entity-1="Legislative Assemblies" data-entity-2="Presidential Election" data-source-line="39" data-uid="lnk12" id="link_Legislative Assemblies_Presidential Election"><path codeLine="39" d="M985.42,44.5 C985.42,64.42 985.42,90.01 985.42,109.96" fill="none" id="Legislative Assemblies-to-Presidential Election-1" style="stroke:#FF0000;stroke-width:1.5;"/><polygon fill="#FF0000" points="985.42,115.96,989.42,106.96,985.42,110.96,981.42,106.96,985.42,115.96" style="stroke:#FF0000;stroke-width:1.5;"/></g><!--reverse link Acts President to Presidential Assent--><g class="link" data-entity-1="Acts President" data-entity-2="Presidential Assent" data-source-line="40" data-uid="lnk13" id="link_Acts President_Presidential Assent"><path codeLine="40" d="M992.2,271.18 C992.2,304.04 992.2,357.26 992.2,357.26 C992.2,357.26 981.75,357.26 967.54,357.26" fill="none" id="Acts President-backto-Presidential Assent" style="stroke:#FFFFFF;stroke-width:1.5;"/><polygon fill="none" points="992.2,259.18,988.2,265.18,992.2,271.18,996.2,265.18,992.2,259.18" style="stroke:#FFFFFF;stroke-width:1.5;"/></g><!--link Presidential Election to Presidential Assent--><g class="link" data-entity-1="Presidential Election" data-entity-2="Presidential Assent" data-source-line="41" data-uid="lnk14" id="link_Presidential Election_Presidential Assent"><path codeLine="41" d="M921.61,152.97 C921.61,194.89 921.61,290.49 921.61,332.21" fill="none" id="Presidential Election-to-Presidential Assent" style="stroke:#FFFFFF;stroke-width:1.5;stroke-dasharray:7.0,7.0;"/><polygon fill="#FFFFFF" points="921.61,338.21,925.61,329.21,921.61,333.21,917.61,329.21,921.61,338.21" style="stroke:#FFFFFF;stroke-width:1.5;"/></g><!--link GMN18 to Presidential Election--><g class="link" data-entity-1="GMN18" data-entity-2="Presidential Election" data-source-line="49" data-uid="lnk20" id="link_GMN18_Presidential Election"><path d="M1448.33,46.66 C1448.33,78.27 1448.33,135.26 1448.33,135.26 C1448.33,135.26 1179.48,135.26 1040.07,135.26" fill="none" id="GMN18-Presidential Election" style="stroke:#FFFFFF;stroke-width:1.5;stroke-dasharray:7.0,7.0;"/></g><!--SRC=[ZLJ1Rjim3BtxAuZsi5EARbtGzj02IPPW0uQsM8hjCEoWMBHDH9O4YKdQVVreksqSpyxcGu28Z-yzFj5MnhXTIKzayoIkoNeLL0ahbQxpu3PMpvnn0KulwgU5C6IHdps22rouLi4wZH4zZCzRXq7PTNLusJuiCKQLuyHGRakq3AdyO6WXD6PgO_WHd_W8oZh6gGiQmulPZ_NJHNH7MYmcu_Esdqa8RjSKTmKnTakF1QLhAwRX_TcuLTm5vN-GvW8-7F2zk5yuotUgH3XPAXj7ImoKdNJC_GlpuZjO32BIAiH2QRUJouDCcOZzwirCAoC9zEZsLmEch6nk_WVI3hz9Bda7zo5Nbduh9cTZyeQ5auU0aNHrar-i9dKYDp7-D9zUj37BZGyeSSpS9Xp3VSMSeX6DBS8aHYnNXZ3keUBZ8RXKxWpxFP0oC3TI49VITdsrc5vV3I8h2SjxdD1FLf63IbcisXGz7yXCKexmnY1zLvUp-NnQzNr3qqHJa8_9aA6pizl-C9B-Y6vkReU6EwxHSPeC9bkZXnI6caO_JmFgNwCZhTset6ZK7_xnENex9EwbN1ABkxHUU_2oobXzJPBwRw2yO73PtykP07n6fQiQ5zWSMeWiP0bQNRCb3GaxVqXnE260f2Cdljb7WGDMnVtGNKA3MMEgTm50LYWwiyNOy8W8Q8f-mxBg03EngJ4rAk2-ldMakoehn-pAMgUx103tMKPfDOUg2I8eQHPQYlLR3V1T6TB4pq1MenVgAZhXUfNigksJ7jWLuNnGWKNLIyP2sr2v82PIPmpcE9XJx-K3JBnalcr5drKVCpAc6k3EGVGoK4QeWKbIDbIIlCQl8dy0]--></g></svg>