<svg xmlns="http://www.w3.org/2000/svg" xmlns:xlink="http://www.w3.org/1999/xlink" contentStyleType="text/css" data-diagram-type="CLASS" height="277px" preserveAspectRatio="none" style="width:1511px;height:277px;background:#333333;" version="1.1" viewBox="0 0 1511 277" width="1511px" zoomAndPan="magnify"><defs/><g><rect fill="#333333" height="277" style="stroke:none;stroke-width:1;" width="1511" x="0" y="0"/><!--entity AI Algorithms--><g class="entity" data-entity="AI Algorithms" data-source-line="23" data-uid="ent0002" id="entity_AI Algorithms"><rect fill="#98FB98" height="36.2969" rx="10" ry="10" style="stroke:#FFFFFF;stroke-width:0.5;" width="114.0146" x="323.75" y="7.99"/><text fill="#000000" font-family="Sans-Serif" font-size="14" lengthAdjust="spacing" textLength="13.7061" x="333.75" y="30.9851">AI</text><text fill="#000000" font-family="Sans-Serif" font-size="14" lengthAdjust="spacing" textLength="4.4502" x="347.4561" y="30.9851">&#160;</text><text fill="#000000" font-family="Sans-Serif" font-size="14" lengthAdjust="spacing" textLength="75.8584" x="351.9063" y="30.9851">Algorithms</text></g><!--entity Industrial Optimization--><g class="entity" data-entity="Industrial Optimization" data-source-line="24" data-uid="ent0003" id="entity_Industrial Optimization"><rect fill="#98FB98" height="36.2969" rx="10" ry="10" style="stroke:#FFFFFF;stroke-width:0.5;" width="179.667" x="396.93" y="118.25"/><text fill="#000000" font-family="Sans-Serif" font-size="14" lengthAdjust="spacing" textLength="65.6592" x="406.93" y="141.2451">Industrial</text><text fill="#000000" font-family="Sans-Serif" font-size="14" lengthAdjust="spacing" textLength="4.4502" x="472.5892" y="141.2451">&#160;</text><text fill="#000000" font-family="Sans-Serif" font-size="14" lengthAdjust="spacing" textLength="89.5576" x="477.0394" y="141.2451">Optimization</text></g><!--entity Content Generation--><g class="entity" data-entity="Content Generation" data-source-line="25" data-uid="ent0004" id="entity_Content Generation"><rect fill="#98FB98" height="36.2969" rx="10" ry="10" style="stroke:#FFFFFF;stroke-width:0.5;" width="158.2295" x="1124.64" y="118.25"/><text fill="#000000" font-family="Sans-Serif" font-size="14" lengthAdjust="spacing" textLength="55.6787" x="1134.64" y="141.2451">Content</text><text fill="#000000" font-family="Sans-Serif" font-size="14" lengthAdjust="spacing" textLength="4.4502" x="1190.3187" y="141.2451">&#160;</text><text fill="#000000" font-family="Sans-Serif" font-size="14" lengthAdjust="spacing" textLength="78.1006" x="1194.7689" y="141.2451">Generation</text></g><!--entity Medical Diagnosis--><g class="entity" data-entity="Medical Diagnosis" data-source-line="26" data-uid="ent0005" id="entity_Medical Diagnosis"><rect fill="#98FB98" height="36.2969" rx="10" ry="10" style="stroke:#FFFFFF;stroke-width:0.5;" width="146.1367" x="200.69" y="118.25"/><text fill="#000000" font-family="Sans-Serif" font-size="14" lengthAdjust="spacing" textLength="53.6348" x="210.69" y="141.2451">Medical</text><text fill="#000000" font-family="Sans-Serif" font-size="14" lengthAdjust="spacing" textLength="4.4502" x="264.3248" y="141.2451">&#160;</text><text fill="#000000" font-family="Sans-Serif" font-size="14" lengthAdjust="spacing" textLength="68.0518" x="268.775" y="141.2451">Diagnosis</text></g><!--entity Speech Synthesis--><g class="entity" data-entity="Speech Synthesis" data-source-line="27" data-uid="ent0006" id="entity_Speech Synthesis"><rect fill="#98FB98" height="36.2969" rx="10" ry="10" style="stroke:#FFFFFF;stroke-width:0.5;" width="143.5186" x="7" y="118.25"/><text fill="#000000" font-family="Sans-Serif" font-size="14" lengthAdjust="spacing" textLength="51.5703" x="17" y="141.2451">Speech</text><text fill="#000000" font-family="Sans-Serif" font-size="14" lengthAdjust="spacing" textLength="4.4502" x="68.5703" y="141.2451">&#160;</text><text fill="#000000" font-family="Sans-Serif" font-size="14" lengthAdjust="spacing" textLength="67.498" x="73.0205" y="141.2451">Synthesis</text></g><!--entity Energy Consumption--><g class="entity" data-entity="Energy Consumption" data-source-line="28" data-uid="ent0007" id="entity_Energy Consumption"><rect fill="#E6E6FA" height="36.2969" rx="10" ry="10" style="stroke:#FFFFFF;stroke-width:0.5;" width="166.4326" x="294.54" y="228.52"/><text fill="#000000" font-family="Sans-Serif" font-size="14" lengthAdjust="spacing" textLength="49.2598" x="304.54" y="251.5151">Energy</text><text fill="#000000" font-family="Sans-Serif" font-size="14" lengthAdjust="spacing" textLength="4.4502" x="353.7998" y="251.5151">&#160;</text><text fill="#000000" font-family="Sans-Serif" font-size="14" lengthAdjust="spacing" textLength="92.7227" x="358.25" y="251.5151">Consumption</text></g><g class="entity" data-entity="GMN13" data-source-line="39" data-uid="ent0014" id="entity_GMN13"><path d="M487.84,16 L487.84,22.8 L438.24,26.8 L487.84,30.8 L487.84,36.2656 A10,10 0 0 0 497.84,46.2656 L655.6779,46.2656 A10,10 0 0 0 665.6779,36.2656 L665.6779,16 L655.6779,6 L497.84,6 A10,10 0 0 0 487.84,16" fill="#FFA500" style="stroke:#444444;stroke-width:0.5;"/><path d="M655.6779,6 L655.6779,11 A5,5 0 0 0 660.6779,16 L665.6779,16 L655.6779,6" fill="#FFA500" style="stroke:#444444;stroke-width:0.5;"/><text fill="#000000" font-family="Sans-Serif" font-size="13" lengthAdjust="spacing" textLength="95.729" x="493.84" y="23.0669">Computational</text><text fill="#000000" font-family="Sans-Serif" font-size="13" lengthAdjust="spacing" textLength="4.1323" x="589.569" y="23.0669">&#160;</text><text fill="#000000" font-family="Sans-Serif" font-size="13" lengthAdjust="spacing" textLength="56.9766" x="593.7013" y="23.0669">methods</text><text fill="#000000" font-family="Sans-Serif" font-size="13" lengthAdjust="spacing" textLength="45.0049" x="506.7543" y="38.1997">driving</text><text fill="#000000" font-family="Sans-Serif" font-size="13" lengthAdjust="spacing" textLength="4.1323" x="551.7592" y="38.1997">&#160;</text><text fill="#000000" font-family="Sans-Serif" font-size="13" lengthAdjust="spacing" textLength="12.7271" x="555.8915" y="38.1997">AI</text><text fill="#000000" font-family="Sans-Serif" font-size="13" lengthAdjust="spacing" textLength="4.1323" x="568.6186" y="38.1997">&#160;</text><text fill="#000000" font-family="Sans-Serif" font-size="13" lengthAdjust="spacing" textLength="65.0127" x="572.7509" y="38.1997">processes</text></g><g class="entity" data-entity="GMN16" data-source-line="43" data-uid="ent0017" id="entity_GMN16"><path d="M1117.58,16 L1117.58,36.2656 A10,10 0 0 0 1127.58,46.2656 L1226.13,46.2656 L1230.13,117.86 L1234.13,46.2656 L1279.9462,46.2656 A10,10 0 0 0 1289.9462,36.2656 L1289.9462,16 L1279.9462,6 L1127.58,6 A10,10 0 0 0 1117.58,16" fill="#FFA500" style="stroke:#444444;stroke-width:0.5;"/><path d="M1279.9462,6 L1279.9462,11 A5,5 0 0 0 1284.9462,16 L1289.9462,16 L1279.9462,6" fill="#FFA500" style="stroke:#444444;stroke-width:0.5;"/><text fill="#000000" font-family="Sans-Serif" font-size="13" lengthAdjust="spacing" textLength="12.7271" x="1123.58" y="23.0669">AI</text><text fill="#000000" font-family="Sans-Serif" font-size="13" lengthAdjust="spacing" textLength="4.1323" x="1136.3071" y="23.0669">&#160;</text><text fill="#000000" font-family="Sans-Serif" font-size="13" lengthAdjust="spacing" textLength="53.6567" x="1140.4394" y="23.0669">creating</text><text fill="#000000" font-family="Sans-Serif" font-size="13" lengthAdjust="spacing" textLength="4.1323" x="1194.0961" y="23.0669">&#160;</text><text fill="#000000" font-family="Sans-Serif" font-size="13" lengthAdjust="spacing" textLength="30.0181" x="1198.2284" y="23.0669">text,</text><text fill="#000000" font-family="Sans-Serif" font-size="13" lengthAdjust="spacing" textLength="4.1323" x="1228.2465" y="23.0669">&#160;</text><text fill="#000000" font-family="Sans-Serif" font-size="13" lengthAdjust="spacing" textLength="42.5674" x="1232.3788" y="23.0669">music,</text><text fill="#000000" font-family="Sans-Serif" font-size="13" lengthAdjust="spacing" textLength="47.2646" x="1175.6308" y="38.1997">images</text></g><g class="entity" data-entity="GMN19" data-source-line="47" data-uid="ent0020" id="entity_GMN19"><path d="M879.24,126.27 L879.24,146.5356 A10,10 0 0 0 889.24,156.5356 L1064.28,156.5356 A10,10 0 0 0 1074.28,146.5356 L1074.28,126.27 L1064.28,116.27 L889.24,116.27 A10,10 0 0 0 879.24,126.27" fill="#FFA500" style="stroke:#444444;stroke-width:0.5;"/><path d="M1064.28,116.27 L1064.28,121.27 A5,5 0 0 0 1069.28,126.27 L1074.28,126.27 L1064.28,116.27" fill="#FFA500" style="stroke:#444444;stroke-width:1;"/><text fill="#000000" font-family="Sans-Serif" font-size="13" lengthAdjust="spacing" textLength="36.3911" x="885.24" y="133.3369">Using</text><text fill="#000000" font-family="Sans-Serif" font-size="13" lengthAdjust="spacing" textLength="4.1323" x="921.6311" y="133.3369">&#160;</text><text fill="#000000" font-family="Sans-Serif" font-size="13" lengthAdjust="spacing" textLength="12.7271" x="925.7634" y="133.3369">AI</text><text fill="#000000" font-family="Sans-Serif" font-size="13" lengthAdjust="spacing" textLength="4.1323" x="938.4905" y="133.3369">&#160;</text><text fill="#000000" font-family="Sans-Serif" font-size="13" lengthAdjust="spacing" textLength="13.0508" x="942.6228" y="133.3369">to</text><text fill="#000000" font-family="Sans-Serif" font-size="13" lengthAdjust="spacing" textLength="4.1323" x="955.6736" y="133.3369">&#160;</text><text fill="#000000" font-family="Sans-Serif" font-size="13" lengthAdjust="spacing" textLength="49.0801" x="959.8059" y="133.3369">identify</text><text fill="#000000" font-family="Sans-Serif" font-size="13" lengthAdjust="spacing" textLength="4.1323" x="1008.886" y="133.3369">&#160;</text><text fill="#000000" font-family="Sans-Serif" font-size="13" lengthAdjust="spacing" textLength="46.2617" x="1013.0183" y="133.3369">patient</text><text fill="#000000" font-family="Sans-Serif" font-size="13" lengthAdjust="spacing" textLength="56.145" x="944.1875" y="148.4697">diseases</text></g><g class="entity" data-entity="GMN22" data-source-line="51" data-uid="ent0023" id="entity_GMN22"><path d="M511.01,236.53 L511.01,256.7956 A10,10 0 0 0 521.01,266.7956 L670.5071,266.7956 A10,10 0 0 0 680.5071,256.7956 L680.5071,236.53 L670.5071,226.53 L547.8,226.53 L543.8,154.61 L539.8,226.53 L521.01,226.53 A10,10 0 0 0 511.01,236.53" fill="#FFA500" style="stroke:#444444;stroke-width:0.5;"/><path d="M670.5071,226.53 L670.5071,231.53 A5,5 0 0 0 675.5071,236.53 L680.5071,236.53 L670.5071,226.53" fill="#FFA500" style="stroke:#444444;stroke-width:0.5;"/><text fill="#000000" font-family="Sans-Serif" font-size="13" lengthAdjust="spacing" textLength="56.8052" x="517.01" y="243.5969">Applying</text><text fill="#000000" font-family="Sans-Serif" font-size="13" lengthAdjust="spacing" textLength="4.1323" x="573.8152" y="243.5969">&#160;</text><text fill="#000000" font-family="Sans-Serif" font-size="13" lengthAdjust="spacing" textLength="12.7271" x="577.9475" y="243.5969">AI</text><text fill="#000000" font-family="Sans-Serif" font-size="13" lengthAdjust="spacing" textLength="4.1323" x="590.6746" y="243.5969">&#160;</text><text fill="#000000" font-family="Sans-Serif" font-size="13" lengthAdjust="spacing" textLength="13.0508" x="594.8069" y="243.5969">to</text><text fill="#000000" font-family="Sans-Serif" font-size="13" lengthAdjust="spacing" textLength="4.1323" x="607.8577" y="243.5969">&#160;</text><text fill="#000000" font-family="Sans-Serif" font-size="13" lengthAdjust="spacing" textLength="53.5171" x="611.99" y="243.5969">improve</text><text fill="#000000" font-family="Sans-Serif" font-size="13" lengthAdjust="spacing" textLength="53.2505" x="531.2668" y="258.7297">industry</text><text fill="#000000" font-family="Sans-Serif" font-size="13" lengthAdjust="spacing" textLength="4.1323" x="584.5173" y="258.7297">&#160;</text><text fill="#000000" font-family="Sans-Serif" font-size="13" lengthAdjust="spacing" textLength="62.6006" x="588.6496" y="258.7297">efficiency</text></g><g class="entity" data-entity="GMN25" data-source-line="55" data-uid="ent0026" id="entity_GMN25"><path d="M626.68,126.27 L626.68,146.5356 A10,10 0 0 0 636.68,156.5356 L818.8358,156.5356 A10,10 0 0 0 828.8358,146.5356 L828.8358,126.27 L818.8358,116.27 L636.68,116.27 A10,10 0 0 0 626.68,126.27" fill="#FFA500" style="stroke:#444444;stroke-width:0.5;"/><path d="M818.8358,116.27 L818.8358,121.27 A5,5 0 0 0 823.8358,126.27 L828.8358,126.27 L818.8358,116.27" fill="#FFA500" style="stroke:#444444;stroke-width:1;"/><text fill="#000000" font-family="Sans-Serif" font-size="13" lengthAdjust="spacing" textLength="71.5063" x="632.68" y="133.3369">Converting</text><text fill="#000000" font-family="Sans-Serif" font-size="13" lengthAdjust="spacing" textLength="4.1323" x="704.1863" y="133.3369">&#160;</text><text fill="#000000" font-family="Sans-Serif" font-size="13" lengthAdjust="spacing" textLength="25.8857" x="708.3187" y="133.3369">text</text><text fill="#000000" font-family="Sans-Serif" font-size="13" lengthAdjust="spacing" textLength="4.1323" x="734.2044" y="133.3369">&#160;</text><text fill="#000000" font-family="Sans-Serif" font-size="13" lengthAdjust="spacing" textLength="24.9019" x="738.3367" y="133.3369">into</text><text fill="#000000" font-family="Sans-Serif" font-size="13" lengthAdjust="spacing" textLength="4.1323" x="763.2386" y="133.3369">&#160;</text><text fill="#000000" font-family="Sans-Serif" font-size="13" lengthAdjust="spacing" textLength="46.4648" x="767.3709" y="133.3369">natural</text><text fill="#000000" font-family="Sans-Serif" font-size="13" lengthAdjust="spacing" textLength="59.5601" x="668.2078" y="148.4697">sounding</text><text fill="#000000" font-family="Sans-Serif" font-size="13" lengthAdjust="spacing" textLength="4.1323" x="727.7679" y="148.4697">&#160;</text><text fill="#000000" font-family="Sans-Serif" font-size="13" lengthAdjust="spacing" textLength="46.4077" x="731.9002" y="148.4697">speech</text></g><g class="entity" data-entity="GMN28" data-source-line="59" data-uid="ent0029" id="entity_GMN28"><path d="M77.38,236.53 L77.38,256.7956 A10,10 0 0 0 87.38,266.7956 L234.1285,266.7956 A10,10 0 0 0 244.1285,256.7956 L244.1285,250.8 L294.21,246.8 L244.1285,242.8 L244.1285,236.53 L234.1285,226.53 L87.38,226.53 A10,10 0 0 0 77.38,236.53" fill="#FFA500" style="stroke:#444444;stroke-width:0.5;"/><path d="M234.1285,226.53 L234.1285,231.53 A5,5 0 0 0 239.1285,236.53 L244.1285,236.53 L234.1285,226.53" fill="#FFA500" style="stroke:#444444;stroke-width:0.5;"/><text fill="#000000" font-family="Sans-Serif" font-size="13" lengthAdjust="spacing" textLength="56.9194" x="83.38" y="243.5969">Reduced</text><text fill="#000000" font-family="Sans-Serif" font-size="13" lengthAdjust="spacing" textLength="4.1323" x="140.2994" y="243.5969">&#160;</text><text fill="#000000" font-family="Sans-Serif" font-size="13" lengthAdjust="spacing" textLength="14.7393" x="144.4318" y="243.5969">as</text><text fill="#000000" font-family="Sans-Serif" font-size="13" lengthAdjust="spacing" textLength="4.1323" x="159.171" y="243.5969">&#160;</text><text fill="#000000" font-family="Sans-Serif" font-size="13" lengthAdjust="spacing" textLength="7.9663" x="163.3033" y="243.5969">a</text><text fill="#000000" font-family="Sans-Serif" font-size="13" lengthAdjust="spacing" textLength="4.1323" x="171.2696" y="243.5969">&#160;</text><text fill="#000000" font-family="Sans-Serif" font-size="13" lengthAdjust="spacing" textLength="37.064" x="175.402" y="243.5969">result</text><text fill="#000000" font-family="Sans-Serif" font-size="13" lengthAdjust="spacing" textLength="4.1323" x="212.4659" y="243.5969">&#160;</text><text fill="#000000" font-family="Sans-Serif" font-size="13" lengthAdjust="spacing" textLength="12.5303" x="216.5983" y="243.5969">of</text><text fill="#000000" font-family="Sans-Serif" font-size="13" lengthAdjust="spacing" textLength="80.8818" x="115.8133" y="258.7297">optimization</text></g><g class="entity" data-entity="AcronymNote" data-source-line="62" data-uid="ent0031" id="entity_AcronymNote"><path d="M1339.47,16 L1339.47,36.2656 A10,10 0 0 0 1349.47,46.2656 L1490.0423,46.2656 A10,10 0 0 0 1500.0423,36.2656 L1500.0423,16 L1490.0423,6 L1349.47,6 A10,10 0 0 0 1339.47,16" fill="#FFA500" style="stroke:#444444;stroke-width:0.5;"/><path d="M1490.0423,6 L1490.0423,11 A5,5 0 0 0 1495.0423,16 L1500.0423,16 L1490.0423,6" fill="#FFA500" style="stroke:#444444;stroke-width:1;"/><text fill="#000000" font-family="Sans-Serif" font-size="13" lengthAdjust="spacing" textLength="12.7271" x="1345.47" y="23.0669">AI</text><text fill="#000000" font-family="Sans-Serif" font-size="13" lengthAdjust="spacing" textLength="4.1323" x="1358.1971" y="23.0669">&#160;</text><text fill="#000000" font-family="Sans-Serif" font-size="13" lengthAdjust="spacing" textLength="43.1006" x="1362.3294" y="23.0669">stands</text><text fill="#000000" font-family="Sans-Serif" font-size="13" lengthAdjust="spacing" textLength="4.1323" x="1405.43" y="23.0669">&#160;</text><text fill="#000000" font-family="Sans-Serif" font-size="13" lengthAdjust="spacing" textLength="17.875" x="1409.5623" y="23.0669">for</text><text fill="#000000" font-family="Sans-Serif" font-size="13" lengthAdjust="spacing" textLength="4.1323" x="1427.4373" y="23.0669">&#160;</text><text fill="#000000" font-family="Sans-Serif" font-size="13" lengthAdjust="spacing" textLength="53.4727" x="1431.5696" y="23.0669">Artificial</text><text fill="#000000" font-family="Sans-Serif" font-size="13" lengthAdjust="spacing" textLength="75.6387" x="1377.4368" y="38.1997">Intelligence</text></g><!--link AI Algorithms to Industrial Optimization--><g class="link" data-entity-1="AI Algorithms" data-entity-2="Industrial Optimization" data-source-line="31" data-uid="lnk8" id="link_AI Algorithms_Industrial Optimization"><path codeLine="31" d="M410.54,44.34 C410.54,64.65 410.54,91.33 410.54,111.8" fill="none" id="AI Algorithms-to-Industrial Optimization" style="stroke:#FFFFFF;stroke-width:1.5;"/><polygon fill="#FFFFFF" points="410.54,117.8,414.54,108.8,410.54,112.8,406.54,108.8,410.54,117.8" style="stroke:#FFFFFF;stroke-width:1.5;"/></g><!--link Industrial Optimization to Energy Consumption--><g class="link" data-entity-1="Industrial Optimization" data-entity-2="Energy Consumption" data-source-line="32" data-uid="lnk9" id="link_Industrial Optimization_Energy Consumption"><path codeLine="32" d="M428.95,154.61 C428.95,174.92 428.95,201.6 428.95,222.06" fill="none" id="Industrial Optimization-to-Energy Consumption" style="stroke:#FFFFFF;stroke-width:1.5;"/><polygon fill="#FFFFFF" points="428.95,228.06,432.95,219.06,428.95,223.06,424.95,219.06,428.95,228.06" style="stroke:#FFFFFF;stroke-width:1.5;"/></g><!--link AI Algorithms to Content Generation--><g class="link" data-entity-1="AI Algorithms" data-entity-2="Content Generation" data-source-line="33" data-uid="lnk10" id="link_AI Algorithms_Content Generation"><path codeLine="33" d="M424.15,44.65 C424.15,56.55 424.15,69.8 424.15,69.8 C424.15,69.8 1177.39,69.8 1177.39,69.8 C1177.39,69.8 1177.39,92.14 1177.39,111.85" fill="none" id="AI Algorithms-to-Content Generation" style="stroke:#FFFFFF;stroke-width:1.5;"/><polygon fill="#FFFFFF" points="1177.39,117.85,1181.39,108.85,1177.39,112.85,1173.39,108.85,1177.39,117.85" style="stroke:#FFFFFF;stroke-width:1.5;"/></g><!--link AI Algorithms to Medical Diagnosis--><g class="link" data-entity-1="AI Algorithms" data-entity-2="Medical Diagnosis" data-source-line="34" data-uid="lnk11" id="link_AI Algorithms_Medical Diagnosis"><path codeLine="34" d="M331.44,44.34 C331.44,64.65 331.44,91.33 331.44,111.8" fill="none" id="AI Algorithms-to-Medical Diagnosis" style="stroke:#FFFFFF;stroke-width:1.5;"/><polygon fill="#FFFFFF" points="331.44,117.8,335.44,108.8,331.44,112.8,327.44,108.8,331.44,117.8" style="stroke:#FFFFFF;stroke-width:1.5;"/></g><!--link AI Algorithms to Speech Synthesis--><g class="link" data-entity-1="AI Algorithms" data-entity-2="Speech Synthesis" data-source-line="35" data-uid="lnk12" id="link_AI Algorithms_Speech Synthesis"><path codeLine="35" d="M323.6,26.8 C236.05,26.8 78.76,26.8 78.76,26.8 C78.76,26.8 78.76,80.54 78.76,111.81" fill="none" id="AI Algorithms-to-Speech Synthesis" style="stroke:#FFFFFF;stroke-width:1.5;"/><polygon fill="#FFFFFF" points="78.76,117.81,82.76,108.81,78.76,112.81,74.76,108.81,78.76,117.81" style="stroke:#FFFFFF;stroke-width:1.5;"/></g><!--link GMN19 to Medical Diagnosis--><g class="link" data-entity-1="GMN19" data-entity-2="Medical Diagnosis" data-source-line="47" data-uid="lnk21" id="link_GMN19_Medical Diagnosis"><path d="M976.76,116.1 C976.76,105.13 976.76,93.8 976.76,93.8 C976.76,93.8 339.14,93.8 339.14,93.8 C339.14,93.8 339.14,106.54 339.14,118.09" fill="none" id="GMN19-Medical Diagnosis" style="stroke:#FFFFFF;stroke-width:1.5;stroke-dasharray:7.0,7.0;"/></g><!--link Speech Synthesis to GMN25--><g class="link" data-entity-1="Speech Synthesis" data-entity-2="GMN25" data-source-line="55" data-uid="lnk27" id="link_Speech Synthesis_GMN25"><path d="M113.95,154.85 C113.95,170.96 113.95,191.8 113.95,191.8 C113.95,191.8 653.59,191.8 653.59,191.8 C653.59,191.8 653.59,172.78 653.59,157.03" fill="none" id="Speech Synthesis-GMN25" style="stroke:#FFFFFF;stroke-width:1.5;stroke-dasharray:7.0,7.0;"/></g><!--SRC=[ZLJ9Rjim4BthAmREeHUdI9UaoQM0ajX53as1EaNFZ3YI1kO6aegZVds7af6eCjrM1mFcFBvbEAHGokuqFPDfYh0buuGN6Xv5jMsyxOoyiSfwEFamV1E48eEnTmZMnzPE2iPA3EZW_6oow8NPfiLFqqMD8OW6IqMDqMWYLFo3VeAGM8jEnGTyZdz16Hlnsdg9Vc_su_3D4VD8wtLvVZRrKtflTsDnrrB4UUcXfMfhs3IyUti-AUwyS3z9nXRU_y6tTx-s9juBZR3O21DED-YfNipC_Gkpz-qDUXQP548hfDtnuK4jLC2y-fZfKN47ChhvgiSg2jEe_u5CcpzshdW3jrZpY00gJASMYXSqBCexA5LZFSLMXmMSN5skhwykfuWx8xiGFGa5trmaJRz496kos1iscERY2t9tZiE-egIA-Mv9DCO6oWjl76BLmgOtiSLZe1KBDJsmSEYqsokkBbONwtAItACQt8IMN2ZceKzFFn-FMHnlmB0lOo0laEbD7dZOdJpke3yfS2dbC4q1Qfw0Aca-Hn16WgYyDRqEI-0m8cAJH5GFZaS9PP4sWQUcZM3h-LmKm06rw-BWcxrfv9T61f2UdjB4CznvM_65n52W6JqK8scqRg3CDG3IpieZ_sMMv7K9kWjKBO4qFqW7P0hhqM2cIm0_mjvCj42InQZcW4oUT2K551b_ZpP6gmVIeqF0FfrJ_OHTSzud11ftz81rJHNhLFsS_xMfXoUM-cgUqB_4Pq9cDo9sdas4zDQaKXXs7cr6RWW1lgFi-6X1111y1G8_GGbj9ydcZEdS0zyjESvFoSPIBBPonuUd-E7dXBX8bEKuJ_Tfs_u1_mq0]--></g></svg>