<svg xmlns="http://www.w3.org/2000/svg" xmlns:xlink="http://www.w3.org/1999/xlink" contentStyleType="text/css" data-diagram-type="CLASS" height="306px" preserveAspectRatio="none" style="width:1291px;height:306px;background:#333333;" version="1.1" viewBox="0 0 1291 306" width="1291px" zoomAndPan="magnify"><defs/><g><rect fill="#333333" height="306" style="stroke:none;stroke-width:1;" width="1291" x="0" y="0"/><!--entity National Development Council--><g class="entity" data-entity="National Development Council" data-source-line="23" data-uid="ent0002" id="entity_National Development Council"><rect fill="#F5DEB3" height="52.5938" rx="10" ry="10" style="stroke:#FFFFFF;stroke-width:0.5;" width="177.0352" x="242.15" y="7"/><text fill="#000000" font-family="Sans-Serif" font-size="14" lengthAdjust="spacing" textLength="58.3379" x="252.15" y="29.9951">National</text><text fill="#000000" font-family="Sans-Serif" font-size="14" lengthAdjust="spacing" textLength="4.4502" x="310.4879" y="29.9951">&#160;</text><text fill="#000000" font-family="Sans-Serif" font-size="14" lengthAdjust="spacing" textLength="94.2471" x="314.9381" y="29.9951">Development</text><text fill="#000000" font-family="Sans-Serif" font-size="14" lengthAdjust="spacing" textLength="51.5635" x="304.8858" y="46.292">Council</text></g><!--entity Planning Commission--><g class="entity" data-entity="Planning Commission" data-source-line="24" data-uid="ent0003" id="entity_Planning Commission"><rect fill="#F5DEB3" height="36.2969" rx="10" ry="10" style="stroke:#FFFFFF;stroke-width:0.5;" width="170.1787" x="903.58" y="15.15"/><text fill="#000000" font-family="Sans-Serif" font-size="14" lengthAdjust="spacing" textLength="60.3066" x="913.58" y="38.1451">Planning</text><text fill="#000000" font-family="Sans-Serif" font-size="14" lengthAdjust="spacing" textLength="4.4502" x="973.8866" y="38.1451">&#160;</text><text fill="#000000" font-family="Sans-Serif" font-size="14" lengthAdjust="spacing" textLength="85.4219" x="978.3368" y="38.1451">Commission</text></g><!--entity Panchayats--><g class="entity" data-entity="Panchayats" data-source-line="25" data-uid="ent0004" id="entity_Panchayats"><rect fill="#F5DEB3" height="36.2969" rx="10" ry="10" style="stroke:#FFFFFF;stroke-width:0.5;" width="100.6914" x="463.32" y="139.15"/><text fill="#000000" font-family="Sans-Serif" font-size="14" lengthAdjust="spacing" textLength="80.6914" x="473.32" y="162.1451">Panchayats</text></g><!--entity Economic and Social Planning--><g class="entity" data-entity="Economic and Social Planning" data-source-line="28" data-uid="ent0005" id="entity_Economic and Social Planning"><rect fill="#87CEEB" height="52.5938" rx="10" ry="10" style="stroke:#FFFFFF;stroke-width:0.5;" width="164.5186" x="248.41" y="131"/><text fill="#000000" font-family="Sans-Serif" font-size="14" lengthAdjust="spacing" textLength="67.7715" x="258.41" y="153.9951">Economic</text><text fill="#000000" font-family="Sans-Serif" font-size="14" lengthAdjust="spacing" textLength="4.4502" x="326.1815" y="153.9951">&#160;</text><text fill="#000000" font-family="Sans-Serif" font-size="14" lengthAdjust="spacing" textLength="26.3389" x="330.6317" y="153.9951">and</text><text fill="#000000" font-family="Sans-Serif" font-size="14" lengthAdjust="spacing" textLength="4.4502" x="356.9705" y="153.9951">&#160;</text><text fill="#000000" font-family="Sans-Serif" font-size="14" lengthAdjust="spacing" textLength="41.5078" x="361.4207" y="153.9951">Social</text><text fill="#000000" font-family="Sans-Serif" font-size="14" lengthAdjust="spacing" textLength="60.3066" x="300.516" y="170.292">Planning</text></g><!--entity Concurrent List--><g class="entity" data-entity="Concurrent List" data-source-line="29" data-uid="ent0006" id="entity_Concurrent List"><rect fill="#87CEEB" height="36.2969" rx="10" ry="10" style="stroke:#FFFFFF;stroke-width:0.5;" width="127.1943" x="267.07" y="256.98"/><text fill="#000000" font-family="Sans-Serif" font-size="14" lengthAdjust="spacing" textLength="78.2715" x="277.07" y="279.9751">Concurrent</text><text fill="#000000" font-family="Sans-Serif" font-size="14" lengthAdjust="spacing" textLength="4.4502" x="355.3415" y="279.9751">&#160;</text><text fill="#000000" font-family="Sans-Serif" font-size="14" lengthAdjust="spacing" textLength="24.4727" x="359.7917" y="279.9751">List</text></g><!--entity Economic Development--><g class="entity" data-entity="Economic Development" data-source-line="32" data-uid="ent0007" id="entity_Economic Development"><rect fill="#E6E6FA" height="36.2969" rx="10" ry="10" style="stroke:#FFFFFF;stroke-width:0.5;" width="186.4688" x="606.44" y="256.98"/><text fill="#000000" font-family="Sans-Serif" font-size="14" lengthAdjust="spacing" textLength="67.7715" x="616.44" y="279.9751">Economic</text><text fill="#000000" font-family="Sans-Serif" font-size="14" lengthAdjust="spacing" textLength="4.4502" x="684.2115" y="279.9751">&#160;</text><text fill="#000000" font-family="Sans-Serif" font-size="14" lengthAdjust="spacing" textLength="94.2471" x="688.6617" y="279.9751">Development</text></g><!--entity Social Justice--><g class="entity" data-entity="Social Justice" data-source-line="33" data-uid="ent0008" id="entity_Social Justice"><rect fill="#E6E6FA" height="36.2969" rx="10" ry="10" style="stroke:#FFFFFF;stroke-width:0.5;" width="111.9434" x="444.7" y="256.98"/><text fill="#000000" font-family="Sans-Serif" font-size="14" lengthAdjust="spacing" textLength="41.5078" x="454.7" y="279.9751">Social</text><text fill="#000000" font-family="Sans-Serif" font-size="14" lengthAdjust="spacing" textLength="4.4502" x="496.2078" y="279.9751">&#160;</text><text fill="#000000" font-family="Sans-Serif" font-size="14" lengthAdjust="spacing" textLength="45.9854" x="500.658" y="279.9751">Justice</text></g><g class="entity" data-entity="GMN17" data-source-line="47" data-uid="ent0018" id="entity_GMN17"><path d="M469.49,23.17 L469.49,30.26 L419.59,34.26 L469.49,38.26 L469.49,43.4356 A10,10 0 0 0 479.49,53.4356 L655.8567,53.4356 A10,10 0 0 0 665.8567,43.4356 L665.8567,23.17 L655.8567,13.17 L479.49,13.17 A10,10 0 0 0 469.49,23.17" fill="#FFA500" style="stroke:#444444;stroke-width:0.5;"/><path d="M655.8567,13.17 L655.8567,18.17 A5,5 0 0 0 660.8567,23.17 L665.8567,23.17 L655.8567,13.17" fill="#FFA500" style="stroke:#444444;stroke-width:0.5;"/><text fill="#000000" font-family="Sans-Serif" font-size="13" lengthAdjust="spacing" textLength="33.1919" x="475.49" y="30.2369">NDC:</text><text fill="#000000" font-family="Sans-Serif" font-size="13" lengthAdjust="spacing" textLength="4.1323" x="508.6819" y="30.2369">&#160;</text><text fill="#000000" font-family="Sans-Serif" font-size="13" lengthAdjust="spacing" textLength="72.1982" x="512.8142" y="30.2369">Historically</text><text fill="#000000" font-family="Sans-Serif" font-size="13" lengthAdjust="spacing" textLength="4.1323" x="585.0125" y="30.2369">&#160;</text><text fill="#000000" font-family="Sans-Serif" font-size="13" lengthAdjust="spacing" textLength="61.7119" x="589.1448" y="30.2369">approved</text><text fill="#000000" font-family="Sans-Serif" font-size="13" lengthAdjust="spacing" textLength="57.5732" x="514.8994" y="45.3697">five-year</text><text fill="#000000" font-family="Sans-Serif" font-size="13" lengthAdjust="spacing" textLength="4.1323" x="572.4727" y="45.3697">&#160;</text><text fill="#000000" font-family="Sans-Serif" font-size="13" lengthAdjust="spacing" textLength="34.8423" x="576.605" y="45.3697">plans</text></g><g class="entity" data-entity="GMN20" data-source-line="51" data-uid="ent0021" id="entity_GMN20"><path d="M1072.67,147.16 L1072.67,167.4256 A10,10 0 0 0 1082.67,177.4256 L1270.6783,177.4256 A10,10 0 0 0 1280.6783,167.4256 L1280.6783,147.16 L1270.6783,137.16 L1082.67,137.16 A10,10 0 0 0 1072.67,147.16" fill="#FFA500" style="stroke:#444444;stroke-width:0.5;"/><path d="M1270.6783,137.16 L1270.6783,142.16 A5,5 0 0 0 1275.6783,147.16 L1280.6783,147.16 L1270.6783,137.16" fill="#FFA500" style="stroke:#444444;stroke-width:1;"/><text fill="#000000" font-family="Sans-Serif" font-size="13" lengthAdjust="spacing" textLength="72.1982" x="1078.67" y="154.2269">Historically</text><text fill="#000000" font-family="Sans-Serif" font-size="13" lengthAdjust="spacing" textLength="4.1323" x="1150.8682" y="154.2269">&#160;</text><text fill="#000000" font-family="Sans-Serif" font-size="13" lengthAdjust="spacing" textLength="71.7031" x="1155.0006" y="154.2269">formulated</text><text fill="#000000" font-family="Sans-Serif" font-size="13" lengthAdjust="spacing" textLength="4.1323" x="1226.7037" y="154.2269">&#160;</text><text fill="#000000" font-family="Sans-Serif" font-size="13" lengthAdjust="spacing" textLength="34.8423" x="1230.836" y="154.2269">plans</text><text fill="#000000" font-family="Sans-Serif" font-size="13" lengthAdjust="spacing" textLength="60.2583" x="1094.828" y="169.3597">Replaced</text><text fill="#000000" font-family="Sans-Serif" font-size="13" lengthAdjust="spacing" textLength="4.1323" x="1155.0863" y="169.3597">&#160;</text><text fill="#000000" font-family="Sans-Serif" font-size="13" lengthAdjust="spacing" textLength="15.9453" x="1159.2186" y="169.3597">by</text><text fill="#000000" font-family="Sans-Serif" font-size="13" lengthAdjust="spacing" textLength="4.1323" x="1175.1639" y="169.3597">&#160;</text><text fill="#000000" font-family="Sans-Serif" font-size="13" lengthAdjust="spacing" textLength="25.3335" x="1179.2962" y="169.3597">NITI</text><text fill="#000000" font-family="Sans-Serif" font-size="13" lengthAdjust="spacing" textLength="4.1323" x="1204.6297" y="169.3597">&#160;</text><text fill="#000000" font-family="Sans-Serif" font-size="13" lengthAdjust="spacing" textLength="40.7583" x="1208.762" y="169.3597">Aayog</text></g><g class="entity" data-entity="GMN23" data-source-line="56" data-uid="ent0024" id="entity_GMN23"><path d="M6,264.99 L6,285.2556 A10,10 0 0 0 16,295.2556 L207.3408,295.2556 A10,10 0 0 0 217.3408,285.2556 L217.3408,279.26 L266.83,275.26 L217.3408,271.26 L217.3408,264.99 L207.3408,254.99 L16,254.99 A10,10 0 0 0 6,264.99" fill="#FFA500" style="stroke:#444444;stroke-width:0.5;"/><path d="M207.3408,254.99 L207.3408,259.99 A5,5 0 0 0 212.3408,264.99 L217.3408,264.99 L207.3408,254.99" fill="#FFA500" style="stroke:#444444;stroke-width:0.5;"/><text fill="#000000" font-family="Sans-Serif" font-size="13" lengthAdjust="spacing" textLength="41.4756" x="12" y="272.0569">Allows</text><text fill="#000000" font-family="Sans-Serif" font-size="13" lengthAdjust="spacing" textLength="4.1323" x="53.4756" y="272.0569">&#160;</text><text fill="#000000" font-family="Sans-Serif" font-size="13" lengthAdjust="spacing" textLength="29.542" x="57.6079" y="272.0569">both</text><text fill="#000000" font-family="Sans-Serif" font-size="13" lengthAdjust="spacing" textLength="4.1323" x="87.1499" y="272.0569">&#160;</text><text fill="#000000" font-family="Sans-Serif" font-size="13" lengthAdjust="spacing" textLength="45.4048" x="91.2822" y="272.0569">central</text><text fill="#000000" font-family="Sans-Serif" font-size="13" lengthAdjust="spacing" textLength="4.1323" x="136.687" y="272.0569">&#160;</text><text fill="#000000" font-family="Sans-Serif" font-size="13" lengthAdjust="spacing" textLength="24.4575" x="140.8193" y="272.0569">and</text><text fill="#000000" font-family="Sans-Serif" font-size="13" lengthAdjust="spacing" textLength="4.1323" x="165.2769" y="272.0569">&#160;</text><text fill="#000000" font-family="Sans-Serif" font-size="13" lengthAdjust="spacing" textLength="32.9316" x="169.4092" y="272.0569">state</text><text fill="#000000" font-family="Sans-Serif" font-size="13" lengthAdjust="spacing" textLength="66.7266" x="73.8071" y="287.1897">legislation</text></g><g class="entity" data-entity="GMN26" data-source-line="60" data-uid="ent0027" id="entity_GMN26"><path d="M853.04,147.16 L853.04,167.4256 A10,10 0 0 0 863.04,177.4256 L1012.2959,177.4256 A10,10 0 0 0 1022.2959,167.4256 L1022.2959,147.16 L1012.2959,137.16 L863.04,137.16 A10,10 0 0 0 853.04,147.16" fill="#FFA500" style="stroke:#444444;stroke-width:0.5;"/><path d="M1012.2959,137.16 L1012.2959,142.16 A5,5 0 0 0 1017.2959,147.16 L1022.2959,147.16 L1012.2959,137.16" fill="#FFA500" style="stroke:#444444;stroke-width:1;"/><text fill="#000000" font-family="Sans-Serif" font-size="13" lengthAdjust="spacing" textLength="24.2163" x="859.04" y="154.2269">Key</text><text fill="#000000" font-family="Sans-Serif" font-size="13" lengthAdjust="spacing" textLength="4.1323" x="883.2563" y="154.2269">&#160;</text><text fill="#000000" font-family="Sans-Serif" font-size="13" lengthAdjust="spacing" textLength="56.4116" x="887.3886" y="154.2269">planning</text><text fill="#000000" font-family="Sans-Serif" font-size="13" lengthAdjust="spacing" textLength="4.1323" x="943.8003" y="154.2269">&#160;</text><text fill="#000000" font-family="Sans-Serif" font-size="13" lengthAdjust="spacing" textLength="59.3633" x="947.9326" y="154.2269">objective</text><text fill="#000000" font-family="Sans-Serif" font-size="13" lengthAdjust="spacing" textLength="50.9399" x="872.7097" y="169.3597">focused</text><text fill="#000000" font-family="Sans-Serif" font-size="13" lengthAdjust="spacing" textLength="4.1323" x="923.6496" y="169.3597">&#160;</text><text fill="#000000" font-family="Sans-Serif" font-size="13" lengthAdjust="spacing" textLength="16.1929" x="927.7819" y="169.3597">on</text><text fill="#000000" font-family="Sans-Serif" font-size="13" lengthAdjust="spacing" textLength="4.1323" x="943.9748" y="169.3597">&#160;</text><text fill="#000000" font-family="Sans-Serif" font-size="13" lengthAdjust="spacing" textLength="45.519" x="948.1071" y="169.3597">growth</text></g><g class="entity" data-entity="GMN29" data-source-line="64" data-uid="ent0030" id="entity_GMN29"><path d="M614.08,139.6 L614.08,147.26 L564.4,151.26 L614.08,155.26 L614.08,174.9984 A10,10 0 0 0 624.08,184.9984 L793.2675,184.9984 A10,10 0 0 0 803.2675,174.9984 L803.2675,139.6 L793.2675,129.6 L624.08,129.6 A10,10 0 0 0 614.08,139.6" fill="#FFA500" style="stroke:#444444;stroke-width:0.5;"/><path d="M793.2675,129.6 L793.2675,134.6 A5,5 0 0 0 798.2675,139.6 L803.2675,139.6 L793.2675,129.6" fill="#FFA500" style="stroke:#444444;stroke-width:0.5;"/><text fill="#000000" font-family="Sans-Serif" font-size="13" lengthAdjust="spacing" textLength="33.9219" x="638.5295" y="146.6669">Local</text><text fill="#000000" font-family="Sans-Serif" font-size="13" lengthAdjust="spacing" textLength="4.1323" x="672.4513" y="146.6669">&#160;</text><text fill="#000000" font-family="Sans-Serif" font-size="13" lengthAdjust="spacing" textLength="93.2344" x="676.5837" y="146.6669">self-governing</text><text fill="#000000" font-family="Sans-Serif" font-size="13" lengthAdjust="spacing" textLength="72.3442" x="668.0016" y="161.7997">institutions</text><text fill="#000000" font-family="Sans-Serif" font-size="13" lengthAdjust="spacing" textLength="64.9873" x="620.08" y="176.9325">Mandated</text><text fill="#000000" font-family="Sans-Serif" font-size="13" lengthAdjust="spacing" textLength="4.1323" x="685.0673" y="176.9325">&#160;</text><text fill="#000000" font-family="Sans-Serif" font-size="13" lengthAdjust="spacing" textLength="15.9453" x="689.1996" y="176.9325">by</text><text fill="#000000" font-family="Sans-Serif" font-size="13" lengthAdjust="spacing" textLength="4.1323" x="705.1449" y="176.9325">&#160;</text><text fill="#000000" font-family="Sans-Serif" font-size="13" lengthAdjust="spacing" textLength="78.9902" x="709.2773" y="176.9325">Constitution</text></g><!--link Planning Commission to Economic and Social Planning--><g class="link" data-entity-1="Planning Commission" data-entity-2="Economic and Social Planning" data-source-line="36" data-uid="lnk9" id="link_Planning Commission_Economic and Social Planning"><path codeLine="36" d="M962.94,51.89 C962.94,70.14 962.94,95.26 962.94,95.26 C962.94,95.26 358.09,95.26 358.09,95.26 C358.09,95.26 358.09,107.81 358.09,124.63" fill="none" id="Planning Commission-to-Economic and Social Planning" style="stroke:#FFFFFF;stroke-width:1.5;"/><polygon fill="#FFFFFF" points="358.09,130.63,362.09,121.63,358.09,125.63,354.09,121.63,358.09,130.63" style="stroke:#FFFFFF;stroke-width:1.5;"/></g><!--link National Development Council to Economic and Social Planning--><g class="link" data-entity-1="National Development Council" data-entity-2="Economic and Social Planning" data-source-line="37" data-uid="lnk10" id="link_National Development Council_Economic and Social Planning"><path codeLine="37" d="M303.25,59.9 C303.25,80.82 303.25,103.83 303.25,124.74" fill="none" id="National Development Council-to-Economic and Social Planning" style="stroke:#FFFFFF;stroke-width:1.5;"/><polygon fill="#FFFFFF" points="303.25,130.74,307.25,121.74,303.25,125.74,299.25,121.74,303.25,130.74" style="stroke:#FFFFFF;stroke-width:1.5;"/></g><!--link Economic and Social Planning to Concurrent List--><g class="link" data-entity-1="Economic and Social Planning" data-entity-2="Concurrent List" data-source-line="38" data-uid="lnk11" id="link_Economic and Social Planning_Concurrent List"><path codeLine="38" d="M351.87,184.03 C351.87,206.17 351.87,231.05 351.87,250.56" fill="none" id="Economic and Social Planning-to-Concurrent List" style="stroke:#FFFFFF;stroke-width:1.5;"/><polygon fill="#FFFFFF" points="351.87,256.56,355.87,247.56,351.87,251.56,347.87,247.56,351.87,256.56" style="stroke:#FFFFFF;stroke-width:1.5;"/></g><!--link Concurrent List to Economic and Social Planning--><g class="link" data-entity-1="Concurrent List" data-entity-2="Economic and Social Planning" data-source-line="39" data-uid="lnk12" id="link_Concurrent List_Economic and Social Planning"><path codeLine="39" d="M309.47,256.72 C309.47,237.17 309.47,212.09 309.47,189.89" fill="none" id="Concurrent List-to-Economic and Social Planning" style="stroke:#FFFFFF;stroke-width:1.5;"/><polygon fill="#FFFFFF" points="309.47,183.89,305.47,192.89,309.47,188.89,313.47,192.89,309.47,183.89" style="stroke:#FFFFFF;stroke-width:1.5;"/></g><!--link Panchayats to Economic Development--><g class="link" data-entity-1="Panchayats" data-entity-2="Economic Development" data-source-line="40" data-uid="lnk13" id="link_Panchayats_Economic Development"><path codeLine="40" d="M564.32,164.26 C588.2,164.26 611.53,164.26 611.53,164.26 C611.53,164.26 611.53,219.33 611.53,250.82" fill="none" id="Panchayats-to-Economic Development" style="stroke:#FFFFFF;stroke-width:1.5;"/><polygon fill="#FFFFFF" points="611.53,256.82,615.53,247.82,611.53,251.82,607.53,247.82,611.53,256.82" style="stroke:#FFFFFF;stroke-width:1.5;"/></g><!--link Panchayats to Social Justice--><g class="link" data-entity-1="Panchayats" data-entity-2="Social Justice" data-source-line="41" data-uid="lnk14" id="link_Panchayats_Social Justice"><path codeLine="41" d="M509.98,175.71 C509.98,197.84 509.98,228.77 509.98,250.85" fill="none" id="Panchayats-to-Social Justice" style="stroke:#FFFFFF;stroke-width:1.5;"/><polygon fill="#FFFFFF" points="509.98,256.85,513.98,247.85,509.98,251.85,505.98,247.85,509.98,256.85" style="stroke:#FFFFFF;stroke-width:1.5;"/></g><!--reverse link Economic and Social Planning to Economic Development--><g class="link" data-entity-1="Economic and Social Planning" data-entity-2="Economic Development" data-source-line="42" data-uid="lnk15" id="link_Economic and Social Planning_Economic Development"><path codeLine="42" d="M425.42,178.26 C507.46,178.26 608.98,178.26 608.98,178.26 C608.98,178.26 608.98,228.85 608.98,256.91" fill="none" id="Economic and Social Planning-backto-Economic Development" style="stroke:#FFFFFF;stroke-width:1.5;"/><polygon fill="#FFFFFF" points="413.42,178.26,419.42,182.26,425.42,178.26,419.42,174.26,413.42,178.26" style="stroke:#FFFFFF;stroke-width:1.5;"/></g><!--reverse link Economic and Social Planning to Social Justice--><g class="link" data-entity-1="Economic and Social Planning" data-entity-2="Social Justice" data-source-line="43" data-uid="lnk16" id="link_Economic and Social Planning_Social Justice"><path codeLine="43" d="M425.28,181.26 C447.75,181.26 454.01,181.26 454.01,181.26 C454.01,181.26 454.01,229.23 454.01,256.58" fill="none" id="Economic and Social Planning-backto-Social Justice" style="stroke:#FFFFFF;stroke-width:1.5;"/><polygon fill="#FFFFFF" points="413.28,181.26,419.28,185.26,425.28,181.26,419.28,177.26,413.28,181.26" style="stroke:#FFFFFF;stroke-width:1.5;"/></g><!--link Planning Commission to GMN20--><g class="link" data-entity-1="Planning Commission" data-entity-2="GMN20" data-source-line="51" data-uid="lnk22" id="link_Planning Commission_GMN20"><path d="M1047.48,51.74 C1047.48,86.5 1047.48,158.26 1047.48,158.26 C1047.48,158.26 1057.7,158.26 1072.39,158.26" fill="none" id="Planning Commission-GMN20" style="stroke:#FFFFFF;stroke-width:1.5;stroke-dasharray:7.0,7.0;"/></g><!--link GMN26 to Economic Development--><g class="link" data-entity-1="GMN26" data-entity-2="Economic Development" data-source-line="60" data-uid="lnk28" id="link_GMN26_Economic Development"><path d="M937.67,177.84 C937.67,211.64 937.67,275.26 937.67,275.26 C937.67,275.26 859.99,275.26 793.39,275.26" fill="none" id="GMN26-Economic Development" style="stroke:#FFFFFF;stroke-width:1.5;stroke-dasharray:7.0,7.0;"/></g><!--SRC=[ZLLDRzim3BtxLn3POS003zswj4E13d3J1Ei-ic4fiBCYqxOMMJGakQdtwqVRQQEuNbCVV139znuVALjeJTjItIkJHswZJ2MiA64jv2QtL9jqHfeil3hjdY13AuE-gH38-eA2WA4K7LOmFGaEhJ2Rzl0yF2pHEP5ZebLkIZGU9B_G1XafPgBM_XRl_JDPXZnUaKtHxiH-w9vXnh2bnIAPdeHw4cjfsmUtXV8u3DqMIcuCYuPtRwT1S6j5zLkble3t1tWxzGioVYbAXCbA61UlqAfiCX1tB6UdsngqJ184N25IslBm81FQuJXxtzDQimCZlEDHYz8Ba-kNf8Jczyv5hs4cFEPacmluONDXr5_X5HaNFLR1PDaT2GtNU8UQgcwyCsvLAZtX0KslvrUdOS5FBOnfcvrHMIhdk7eyJnXPY4PujmyVI4hMpbiXMpOZiV87ikQI39LAWZ0fh4WgLlZ0p7WVpsVp-LLOq8BKrhRgloddzpc7Dgp_S8cwmt6om0C6c9_DpnP9cBWJygLsNadSfp37BzIzkOMgN3JkKXn_Ej9PT6GUBq5utheEOMXMzDI-oylZJE683vM5Hexa3NmyflbD7FyN-mMLGpQUreetZtU2ovPy0zi2YIrWr5v8i2elF51sv7P40ClhsGLyPiF8AYcqRa1KbQKxJ27ZBOiR51OgbkCYP7qjUjHphCbxAZkIiLrXx0FOZ6nPyuOnS0y7l75LApk5TGFBcziRI4H3-P17OzQtycJc04dxtt6jbABxebjkjBNHUT5LvihrIpq4zLHrcECp0VYAJIUpwueUxXmt8Ml7Wia0_mMslXZYxeqFLeRnlX6x00vr5kTihkrmbU5v-hh_eW5yP-MTFsm7z_eOU-Ju1m00]--></g></svg>