<svg xmlns="http://www.w3.org/2000/svg" xmlns:xlink="http://www.w3.org/1999/xlink" contentStyleType="text/css" data-diagram-type="CLASS" height="384px" preserveAspectRatio="none" style="width:560px;height:384px;background:#333333;" version="1.1" viewBox="0 0 560 384" width="560px" zoomAndPan="magnify"><defs/><g><rect fill="#333333" height="384" style="stroke:none;stroke-width:1;" width="560" x="0" y="0"/><!--entity Indus River--><g class="entity" data-entity="Indus River" data-source-line="23" data-uid="ent0002" id="entity_Indus River"><rect fill="#98FB98" height="36.2969" rx="10" ry="10" style="stroke:#FFFFFF;stroke-width:0.5;" width="98.7773" x="245.56" y="334.81"/><text fill="#000000" font-family="Sans-Serif" font-size="14" lengthAdjust="spacing" textLength="38.0557" x="255.56" y="357.8051">Indus</text><text fill="#000000" font-family="Sans-Serif" font-size="14" lengthAdjust="spacing" textLength="4.4502" x="293.6157" y="357.8051">&#160;</text><text fill="#000000" font-family="Sans-Serif" font-size="14" lengthAdjust="spacing" textLength="36.2715" x="298.0659" y="357.8051">River</text></g><!--entity Chenab River--><g class="entity" data-entity="Chenab River" data-source-line="24" data-uid="ent0003" id="entity_Chenab River"><rect fill="#98FB98" height="36.2969" rx="10" ry="10" style="stroke:#FFFFFF;stroke-width:0.5;" width="114.3223" x="237.79" y="224.54"/><text fill="#000000" font-family="Sans-Serif" font-size="14" lengthAdjust="spacing" textLength="53.6006" x="247.79" y="247.5351">Chenab</text><text fill="#000000" font-family="Sans-Serif" font-size="14" lengthAdjust="spacing" textLength="4.4502" x="301.3906" y="247.5351">&#160;</text><text fill="#000000" font-family="Sans-Serif" font-size="14" lengthAdjust="spacing" textLength="36.2715" x="305.8408" y="247.5351">River</text></g><!--entity Jhelum River--><g class="entity" data-entity="Jhelum River" data-source-line="25" data-uid="ent0004" id="entity_Jhelum River"><rect fill="#98FB98" height="36.2969" rx="10" ry="10" style="stroke:#FFFFFF;stroke-width:0.5;" width="108.7373" x="94.58" y="116.26"/><text fill="#000000" font-family="Sans-Serif" font-size="14" lengthAdjust="spacing" textLength="48.0156" x="104.58" y="139.2551">Jhelum</text><text fill="#000000" font-family="Sans-Serif" font-size="14" lengthAdjust="spacing" textLength="4.4502" x="152.5956" y="139.2551">&#160;</text><text fill="#000000" font-family="Sans-Serif" font-size="14" lengthAdjust="spacing" textLength="36.2715" x="157.0458" y="139.2551">River</text></g><!--entity Ravi River--><g class="entity" data-entity="Ravi River" data-source-line="26" data-uid="ent0005" id="entity_Ravi River"><rect fill="#98FB98" height="36.2969" rx="10" ry="10" style="stroke:#FFFFFF;stroke-width:0.5;" width="91.2031" x="253.35" y="116.26"/><text fill="#000000" font-family="Sans-Serif" font-size="14" lengthAdjust="spacing" textLength="30.4814" x="263.35" y="139.2551">Ravi</text><text fill="#000000" font-family="Sans-Serif" font-size="14" lengthAdjust="spacing" textLength="4.4502" x="293.8314" y="139.2551">&#160;</text><text fill="#000000" font-family="Sans-Serif" font-size="14" lengthAdjust="spacing" textLength="36.2715" x="298.2816" y="139.2551">River</text></g><!--entity Sutlej River--><g class="entity" data-entity="Sutlej River" data-source-line="27" data-uid="ent0006" id="entity_Sutlej River"><rect fill="#98FB98" height="36.2969" rx="10" ry="10" style="stroke:#FFFFFF;stroke-width:0.5;" width="100.3633" x="401.77" y="116.26"/><text fill="#000000" font-family="Sans-Serif" font-size="14" lengthAdjust="spacing" textLength="39.6416" x="411.77" y="139.2551">Sutlej</text><text fill="#000000" font-family="Sans-Serif" font-size="14" lengthAdjust="spacing" textLength="4.4502" x="451.4116" y="139.2551">&#160;</text><text fill="#000000" font-family="Sans-Serif" font-size="14" lengthAdjust="spacing" textLength="36.2715" x="455.8618" y="139.2551">River</text></g><g class="entity" data-entity="GMN11" data-source-line="37" data-uid="ent0012" id="entity_GMN11"><path d="M393.9,342.82 L393.9,349.09 L344.73,353.09 L393.9,357.09 L393.9,363.0856 A10,10 0 0 0 403.9,373.0856 L539.9908,373.0856 A10,10 0 0 0 549.9908,363.0856 L549.9908,342.82 L539.9908,332.82 L403.9,332.82 A10,10 0 0 0 393.9,342.82" fill="#FFA500" style="stroke:#444444;stroke-width:0.5;"/><path d="M539.9908,332.82 L539.9908,337.82 A5,5 0 0 0 544.9908,342.82 L549.9908,342.82 L539.9908,332.82" fill="#FFA500" style="stroke:#444444;stroke-width:0.5;"/><text fill="#000000" font-family="Sans-Serif" font-size="13" lengthAdjust="spacing" textLength="50.4639" x="399.9" y="349.8869">Primary</text><text fill="#000000" font-family="Sans-Serif" font-size="13" lengthAdjust="spacing" textLength="4.1323" x="450.3639" y="349.8869">&#160;</text><text fill="#000000" font-family="Sans-Serif" font-size="13" lengthAdjust="spacing" textLength="80.4946" x="454.4962" y="349.8869">watercourse</text><text fill="#000000" font-family="Sans-Serif" font-size="13" lengthAdjust="spacing" textLength="12.5303" x="422.8817" y="365.0197">of</text><text fill="#000000" font-family="Sans-Serif" font-size="13" lengthAdjust="spacing" textLength="4.1323" x="435.412" y="365.0197">&#160;</text><text fill="#000000" font-family="Sans-Serif" font-size="13" lengthAdjust="spacing" textLength="21.3345" x="439.5443" y="365.0197">the</text><text fill="#000000" font-family="Sans-Serif" font-size="13" lengthAdjust="spacing" textLength="4.1323" x="460.8788" y="365.0197">&#160;</text><text fill="#000000" font-family="Sans-Serif" font-size="13" lengthAdjust="spacing" textLength="46.998" x="465.0111" y="365.0197">system</text></g><g class="entity" data-entity="GMN14" data-source-line="42" data-uid="ent0015" id="entity_GMN14"><path d="M6,232.56 L6,252.8256 A10,10 0 0 0 16,262.8256 L177.9004,262.8256 A10,10 0 0 0 187.9004,252.8256 L187.9004,247.09 L237.33,243.09 L187.9004,239.09 L187.9004,232.56 L177.9004,222.56 L16,222.56 A10,10 0 0 0 6,232.56" fill="#FFA500" style="stroke:#444444;stroke-width:0.5;"/><path d="M177.9004,222.56 L177.9004,227.56 A5,5 0 0 0 182.9004,232.56 L187.9004,232.56 L177.9004,222.56" fill="#FFA500" style="stroke:#444444;stroke-width:0.5;"/><text fill="#000000" font-family="Sans-Serif" font-size="13" lengthAdjust="spacing" textLength="36.0928" x="12" y="239.6269">Major</text><text fill="#000000" font-family="Sans-Serif" font-size="13" lengthAdjust="spacing" textLength="4.1323" x="48.0928" y="239.6269">&#160;</text><text fill="#000000" font-family="Sans-Serif" font-size="13" lengthAdjust="spacing" textLength="56.6465" x="52.2251" y="239.6269">tributary</text><text fill="#000000" font-family="Sans-Serif" font-size="13" lengthAdjust="spacing" textLength="4.1323" x="108.8716" y="239.6269">&#160;</text><text fill="#000000" font-family="Sans-Serif" font-size="13" lengthAdjust="spacing" textLength="59.8965" x="113.0039" y="239.6269">receiving</text><text fill="#000000" font-family="Sans-Serif" font-size="13" lengthAdjust="spacing" textLength="43.8115" x="30.4399" y="254.7597">waters</text><text fill="#000000" font-family="Sans-Serif" font-size="13" lengthAdjust="spacing" textLength="4.1323" x="74.2515" y="254.7597">&#160;</text><text fill="#000000" font-family="Sans-Serif" font-size="13" lengthAdjust="spacing" textLength="30.5386" x="78.3838" y="254.7597">from</text><text fill="#000000" font-family="Sans-Serif" font-size="13" lengthAdjust="spacing" textLength="4.1323" x="108.9224" y="254.7597">&#160;</text><text fill="#000000" font-family="Sans-Serif" font-size="13" lengthAdjust="spacing" textLength="41.4058" x="113.0547" y="254.7597">others</text></g><g class="entity" data-entity="GMN17" data-source-line="47" data-uid="ent0018" id="entity_GMN17"><path d="M100.11,16 L100.11,36.2656 A10,10 0 0 0 110.11,46.2656 L144.95,46.2656 L148.95,116.03 L152.95,46.2656 L187.7833,46.2656 A10,10 0 0 0 197.7833,36.2656 L197.7833,16 L187.7833,6 L110.11,6 A10,10 0 0 0 100.11,16" fill="#FFA500" style="stroke:#444444;stroke-width:0.5;"/><path d="M187.7833,6 L187.7833,11 A5,5 0 0 0 192.7833,16 L197.7833,16 L187.7833,6" fill="#FFA500" style="stroke:#444444;stroke-width:0.5;"/><text fill="#000000" font-family="Sans-Serif" font-size="13" lengthAdjust="spacing" textLength="59.4902" x="106.11" y="23.0669">Tributary</text><text fill="#000000" font-family="Sans-Serif" font-size="13" lengthAdjust="spacing" textLength="4.1323" x="165.6002" y="23.0669">&#160;</text><text fill="#000000" font-family="Sans-Serif" font-size="13" lengthAdjust="spacing" textLength="13.0508" x="169.7326" y="23.0669">to</text><text fill="#000000" font-family="Sans-Serif" font-size="13" lengthAdjust="spacing" textLength="21.3345" x="106.8273" y="38.1997">the</text><text fill="#000000" font-family="Sans-Serif" font-size="13" lengthAdjust="spacing" textLength="4.1323" x="128.1618" y="38.1997">&#160;</text><text fill="#000000" font-family="Sans-Serif" font-size="13" lengthAdjust="spacing" textLength="49.772" x="132.2941" y="38.1997">Chenab</text></g><g class="entity" data-entity="GMN20" data-source-line="52" data-uid="ent0021" id="entity_GMN20"><path d="M402.03,232.56 L402.03,252.8256 A10,10 0 0 0 412.03,262.8256 L497.8664,262.8256 A10,10 0 0 0 507.8664,252.8256 L507.8664,232.56 L497.8664,222.56 L456.08,222.56 L452.08,152.78 L448.08,222.56 L412.03,222.56 A10,10 0 0 0 402.03,232.56" fill="#FFA500" style="stroke:#444444;stroke-width:0.5;"/><path d="M497.8664,222.56 L497.8664,227.56 A5,5 0 0 0 502.8664,232.56 L507.8664,232.56 L497.8664,222.56" fill="#FFA500" style="stroke:#444444;stroke-width:0.5;"/><text fill="#000000" font-family="Sans-Serif" font-size="13" lengthAdjust="spacing" textLength="50.5146" x="408.03" y="239.6269">Directly</text><text fill="#000000" font-family="Sans-Serif" font-size="13" lengthAdjust="spacing" textLength="4.1323" x="458.5446" y="239.6269">&#160;</text><text fill="#000000" font-family="Sans-Serif" font-size="13" lengthAdjust="spacing" textLength="30.1895" x="462.677" y="239.6269">joins</text><text fill="#000000" font-family="Sans-Serif" font-size="13" lengthAdjust="spacing" textLength="21.3345" x="412.8288" y="254.7597">the</text><text fill="#000000" font-family="Sans-Serif" font-size="13" lengthAdjust="spacing" textLength="4.1323" x="434.1633" y="254.7597">&#160;</text><text fill="#000000" font-family="Sans-Serif" font-size="13" lengthAdjust="spacing" textLength="49.772" x="438.2956" y="254.7597">Chenab</text></g><!--link Jhelum River to Chenab River--><g class="link" data-entity-1="Jhelum River" data-entity-2="Chenab River" data-source-line="30" data-uid="lnk7" id="link_Jhelum River_Chenab River"><path codeLine="30" d="M203.75,135.09 C225.56,135.09 245.57,135.09 245.57,135.09 C245.57,135.09 245.57,187.74 245.57,218.44" fill="none" id="Jhelum River-to-Chenab River" style="stroke:#FFFFFF;stroke-width:1.5;"/><polygon fill="#FFFFFF" points="245.57,224.44,249.57,215.44,245.57,219.44,241.57,215.44,245.57,224.44" style="stroke:#FFFFFF;stroke-width:1.5;"/></g><!--link Ravi River to Chenab River--><g class="link" data-entity-1="Ravi River" data-entity-2="Chenab River" data-source-line="31" data-uid="lnk8" id="link_Ravi River_Chenab River"><path codeLine="31" d="M298.95,152.78 C298.95,172.69 298.95,198.29 298.95,218.23" fill="none" id="Ravi River-to-Chenab River" style="stroke:#FFFFFF;stroke-width:1.5;"/><polygon fill="#FFFFFF" points="298.95,224.23,302.95,215.23,298.95,219.23,294.95,215.23,298.95,224.23" style="stroke:#FFFFFF;stroke-width:1.5;"/></g><!--link Sutlej River to Chenab River--><g class="link" data-entity-1="Sutlej River" data-entity-2="Chenab River" data-source-line="32" data-uid="lnk9" id="link_Sutlej River_Chenab River"><path codeLine="32" d="M401.36,135.09 C375.05,135.09 348.33,135.09 348.33,135.09 C348.33,135.09 348.33,187.74 348.33,218.44" fill="none" id="Sutlej River-to-Chenab River" style="stroke:#FFFFFF;stroke-width:1.5;"/><polygon fill="#FFFFFF" points="348.33,224.44,352.33,215.44,348.33,219.44,344.33,215.44,348.33,224.44" style="stroke:#FFFFFF;stroke-width:1.5;"/></g><!--link Chenab River to Indus River--><g class="link" data-entity-1="Chenab River" data-entity-2="Indus River" data-source-line="33" data-uid="lnk10" id="link_Chenab River_Indus River"><path codeLine="33" d="M294.95,260.9 C294.95,281.21 294.95,307.89 294.95,328.35" fill="none" id="Chenab River-to-Indus River" style="stroke:#FFFFFF;stroke-width:1.5;"/><polygon fill="#FFFFFF" points="294.95,334.35,298.95,325.35,294.95,329.35,290.95,325.35,294.95,334.35" style="stroke:#FFFFFF;stroke-width:1.5;"/></g><!--SRC=[ZLHDRzim3BtxLn3fOQSCtKUmzZ8WoH1W0rOKJO2T5PksbSYYGT5ny-ydsKKX2qOs7moOx_7naPIiZA6-qQ_QLfaxQzigLWqSLNwkc3fRRCaGmzsNuOaOHbkKQuj0B3L5WAK27RQmke-2hEmv1B_5mGQTKnMkZQviWrOWzo_aY55WgJeZ1toL6onBWXlY0ldDxDVXIHbfIxlTUdKV-rapKp-2VQq5K-XGw_nilMduz74LWJshzeykf8RF4xqtzpkoygGQXCLUMRVS8-joaPZx5-VDDrjaNoG2NAqAwltoe5J6uNpriQUZyHEOgJkFCkQYR6N-Xn8FVvnSzW5Uz0NPmHAUcV8mjAqIh8YlsNiUB7xQedCZTG5tZm-xpUD3Z6zhjEfuW_2hHjCrDmWlwg9lmFjE39vIGh2FHeacwshTXYvs_fh03nrIVJHB2Y-NtnEpsQJo73ujFSUOTZymue45ctlXC5QTmvDV9ppx5U5mIqg_YuqookQOXKq3wweMe3BH0ByVtIY-Gk-5EAUE_J62G9GQmLsTO9EXBORpaerQ1ijHQceOuBSw-Rh2-jX9qFJZGdq9_nOOzHsKJ0sGrsQNoWgrW-fajZxpyAudv3-3hx5mAd0aaQ1U9elrIUFgp1LEfAsRL_aB]--></g></svg>