<svg xmlns="http://www.w3.org/2000/svg" xmlns:xlink="http://www.w3.org/1999/xlink" contentStyleType="text/css" data-diagram-type="CLASS" height="403px" preserveAspectRatio="none" style="width:1331px;height:403px;background:#333333;" version="1.1" viewBox="0 0 1331 403" width="1331px" zoomAndPan="magnify"><defs/><g><rect fill="#333333" height="403" style="stroke:none;stroke-width:1;" width="1331" x="0" y="0"/><!--entity IREDA--><g class="entity" data-entity="IREDA" data-source-line="23" data-uid="ent0002" id="entity_IREDA"><rect fill="#F5DEB3" height="36.2969" rx="10" ry="10" style="stroke:#FFFFFF;stroke-width:0.5;" width="63.0596" x="680.75" y="118.25"/><text fill="#000000" font-family="Sans-Serif" font-size="14" lengthAdjust="spacing" textLength="43.0596" x="690.75" y="141.2451">IREDA</text></g><!--entity NBFC--><g class="entity" data-entity="NBFC" data-source-line="24" data-uid="ent0003" id="entity_NBFC"><rect fill="#98FB98" height="36.2969" rx="10" ry="10" style="stroke:#FFFFFF;stroke-width:0.5;" width="57.9053" x="84.32" y="228.52"/><text fill="#000000" font-family="Sans-Serif" font-size="14" lengthAdjust="spacing" textLength="37.9053" x="94.32" y="251.5151">NBFC</text></g><!--entity Public Limited Company--><g class="entity" data-entity="Public Limited Company" data-source-line="25" data-uid="ent0004" id="entity_Public Limited Company"><rect fill="#87CEEB" height="36.2969" rx="10" ry="10" style="stroke:#FFFFFF;stroke-width:0.5;" width="189.3877" x="870.58" y="228.52"/><text fill="#000000" font-family="Sans-Serif" font-size="14" lengthAdjust="spacing" textLength="41.6787" x="880.58" y="251.5151">Public</text><text fill="#000000" font-family="Sans-Serif" font-size="14" lengthAdjust="spacing" textLength="4.4502" x="922.2587" y="251.5151">&#160;</text><text fill="#000000" font-family="Sans-Serif" font-size="14" lengthAdjust="spacing" textLength="52.2061" x="926.7089" y="251.5151">Limited</text><text fill="#000000" font-family="Sans-Serif" font-size="14" lengthAdjust="spacing" textLength="4.4502" x="978.915" y="251.5151">&#160;</text><text fill="#000000" font-family="Sans-Serif" font-size="14" lengthAdjust="spacing" textLength="66.6025" x="983.3652" y="251.5151">Company</text></g><!--entity Renewable Goals--><g class="entity" data-entity="Renewable Goals" data-source-line="26" data-uid="ent0005" id="entity_Renewable Goals"><rect fill="#E6E6FA" height="36.2969" rx="10" ry="10" style="stroke:#FFFFFF;stroke-width:0.5;" width="140.873" x="477.84" y="346.35"/><text fill="#000000" font-family="Sans-Serif" font-size="14" lengthAdjust="spacing" textLength="77.2461" x="487.84" y="369.3451">Renewable</text><text fill="#000000" font-family="Sans-Serif" font-size="14" lengthAdjust="spacing" textLength="4.4502" x="565.0861" y="369.3451">&#160;</text><text fill="#000000" font-family="Sans-Serif" font-size="14" lengthAdjust="spacing" textLength="39.1768" x="569.5363" y="369.3451">Goals</text></g><!--entity Organization Structure--><g class="entity" data-entity="Organization Structure" data-source-line="27" data-uid="ent0006" id="entity_Organization Structure"><rect fill="#87CEEB" height="36.2969" rx="10" ry="10" style="stroke:#FFFFFF;stroke-width:0.5;" width="179.6328" x="622.46" y="7.99"/><text fill="#000000" font-family="Sans-Serif" font-size="14" lengthAdjust="spacing" textLength="89.749" x="632.46" y="30.9851">Organization</text><text fill="#000000" font-family="Sans-Serif" font-size="14" lengthAdjust="spacing" textLength="4.4502" x="722.209" y="30.9851">&#160;</text><text fill="#000000" font-family="Sans-Serif" font-size="14" lengthAdjust="spacing" textLength="65.4336" x="726.6592" y="30.9851">Structure</text></g><!--entity Operational Mandate--><g class="entity" data-entity="Operational Mandate" data-source-line="28" data-uid="ent0007" id="entity_Operational Mandate"><rect fill="#87CEEB" height="36.2969" rx="10" ry="10" style="stroke:#FFFFFF;stroke-width:0.5;" width="167.6904" x="438.43" y="228.52"/><text fill="#000000" font-family="Sans-Serif" font-size="14" lengthAdjust="spacing" textLength="82.1406" x="448.43" y="251.5151">Operational</text><text fill="#000000" font-family="Sans-Serif" font-size="14" lengthAdjust="spacing" textLength="4.4502" x="530.5706" y="251.5151">&#160;</text><text fill="#000000" font-family="Sans-Serif" font-size="14" lengthAdjust="spacing" textLength="61.0996" x="535.0208" y="251.5151">Mandate</text></g><!--entity Government Agency--><g class="entity" data-entity="Government Agency" data-source-line="29" data-uid="ent0008" id="entity_Government Agency"><rect fill="#87CEEB" height="36.2969" rx="10" ry="10" style="stroke:#FFFFFF;stroke-width:0.5;" width="163.9375" x="656.31" y="228.52"/><text fill="#000000" font-family="Sans-Serif" font-size="14" lengthAdjust="spacing" textLength="87.5547" x="666.31" y="251.5151">Government</text><text fill="#000000" font-family="Sans-Serif" font-size="14" lengthAdjust="spacing" textLength="4.4502" x="753.8647" y="251.5151">&#160;</text><text fill="#000000" font-family="Sans-Serif" font-size="14" lengthAdjust="spacing" textLength="51.9326" x="758.3149" y="251.5151">Agency</text></g><g class="entity" data-entity="GMN19" data-source-line="48" data-uid="ent0020" id="entity_GMN19"><path d="M1133.84,126.27 L1133.84,146.5356 A10,10 0 0 0 1143.84,156.5356 L1310.717,156.5356 A10,10 0 0 0 1320.717,146.5356 L1320.717,126.27 L1310.717,116.27 L1143.84,116.27 A10,10 0 0 0 1133.84,126.27" fill="#FFA500" style="stroke:#444444;stroke-width:0.5;"/><path d="M1310.717,116.27 L1310.717,121.27 A5,5 0 0 0 1315.717,126.27 L1320.717,126.27 L1310.717,116.27" fill="#FFA500" style="stroke:#444444;stroke-width:1;"/><text fill="#000000" font-family="Sans-Serif" font-size="13" lengthAdjust="spacing" textLength="40.1426" x="1139.84" y="133.3369">Indian</text><text fill="#000000" font-family="Sans-Serif" font-size="13" lengthAdjust="spacing" textLength="4.1323" x="1179.9826" y="133.3369">&#160;</text><text fill="#000000" font-family="Sans-Serif" font-size="13" lengthAdjust="spacing" textLength="71.7285" x="1184.1149" y="133.3369">Renewable</text><text fill="#000000" font-family="Sans-Serif" font-size="13" lengthAdjust="spacing" textLength="4.1323" x="1255.8434" y="133.3369">&#160;</text><text fill="#000000" font-family="Sans-Serif" font-size="13" lengthAdjust="spacing" textLength="45.7412" x="1259.9757" y="133.3369">Energy</text><text fill="#000000" font-family="Sans-Serif" font-size="13" lengthAdjust="spacing" textLength="87.5151" x="1152.8432" y="148.4697">Development</text><text fill="#000000" font-family="Sans-Serif" font-size="13" lengthAdjust="spacing" textLength="4.1323" x="1240.3583" y="148.4697">&#160;</text><text fill="#000000" font-family="Sans-Serif" font-size="13" lengthAdjust="spacing" textLength="48.2231" x="1244.4906" y="148.4697">Agency</text></g><g class="entity" data-entity="GMN22" data-source-line="53" data-uid="ent0023" id="entity_GMN22"><path d="M6,346.8 L6,382.1984 A10,10 0 0 0 16,392.1984 L200.5552,392.1984 A10,10 0 0 0 210.5552,382.1984 L210.5552,346.8 L200.5552,336.8 L107.63,336.8 L103.63,265.08 L99.63,336.8 L16,336.8 A10,10 0 0 0 6,346.8" fill="#FFA500" style="stroke:#444444;stroke-width:0.5;"/><path d="M200.5552,336.8 L200.5552,341.8 A5,5 0 0 0 205.5552,346.8 L210.5552,346.8 L200.5552,336.8" fill="#FFA500" style="stroke:#444444;stroke-width:0.5;"/><text fill="#000000" font-family="Sans-Serif" font-size="13" lengthAdjust="spacing" textLength="83.3638" x="31.0938" y="353.8669">Non-Banking</text><text fill="#000000" font-family="Sans-Serif" font-size="13" lengthAdjust="spacing" textLength="4.1323" x="114.4575" y="353.8669">&#160;</text><text fill="#000000" font-family="Sans-Serif" font-size="13" lengthAdjust="spacing" textLength="57.8716" x="118.5898" y="353.8669">Financial</text><text fill="#000000" font-family="Sans-Serif" font-size="13" lengthAdjust="spacing" textLength="61.8452" x="72.855" y="368.9997">Company</text><text fill="#000000" font-family="Sans-Serif" font-size="13" lengthAdjust="spacing" textLength="55.4658" x="12" y="384.1325">Provides</text><text fill="#000000" font-family="Sans-Serif" font-size="13" lengthAdjust="spacing" textLength="4.1323" x="67.4658" y="384.1325">&#160;</text><text fill="#000000" font-family="Sans-Serif" font-size="13" lengthAdjust="spacing" textLength="72.0459" x="71.5981" y="384.1325">specialized</text><text fill="#000000" font-family="Sans-Serif" font-size="13" lengthAdjust="spacing" textLength="4.1323" x="143.644" y="384.1325">&#160;</text><text fill="#000000" font-family="Sans-Serif" font-size="13" lengthAdjust="spacing" textLength="47.7788" x="147.7764" y="384.1325">finance</text></g><g class="entity" data-entity="GMN25" data-source-line="58" data-uid="ent0026" id="entity_GMN25"><path d="M896.46,126.27 L896.46,146.5356 A10,10 0 0 0 906.46,156.5356 L974.21,156.5356 L978.21,228.13 L982.21,156.5356 L1074.105,156.5356 A10,10 0 0 0 1084.105,146.5356 L1084.105,126.27 L1074.105,116.27 L906.46,116.27 A10,10 0 0 0 896.46,126.27" fill="#FFA500" style="stroke:#444444;stroke-width:0.5;"/><path d="M1074.105,116.27 L1074.105,121.27 A5,5 0 0 0 1079.105,126.27 L1084.105,126.27 L1074.105,116.27" fill="#FFA500" style="stroke:#444444;stroke-width:0.5;"/><text fill="#000000" font-family="Sans-Serif" font-size="13" lengthAdjust="spacing" textLength="35.0708" x="902.46" y="133.3369">Legal</text><text fill="#000000" font-family="Sans-Serif" font-size="13" lengthAdjust="spacing" textLength="4.1323" x="937.5308" y="133.3369">&#160;</text><text fill="#000000" font-family="Sans-Serif" font-size="13" lengthAdjust="spacing" textLength="59.2808" x="941.6631" y="133.3369">structure</text><text fill="#000000" font-family="Sans-Serif" font-size="13" lengthAdjust="spacing" textLength="4.1323" x="1000.9439" y="133.3369">&#160;</text><text fill="#000000" font-family="Sans-Serif" font-size="13" lengthAdjust="spacing" textLength="64.0288" x="1005.0762" y="133.3369">indicating</text><text fill="#000000" font-family="Sans-Serif" font-size="13" lengthAdjust="spacing" textLength="79.479" x="910.4549" y="148.4697">government</text><text fill="#000000" font-family="Sans-Serif" font-size="13" lengthAdjust="spacing" textLength="4.1323" x="989.9339" y="148.4697">&#160;</text><text fill="#000000" font-family="Sans-Serif" font-size="13" lengthAdjust="spacing" textLength="67.0439" x="994.0662" y="148.4697">ownership</text></g><g class="entity" data-entity="GMN28" data-source-line="63" data-uid="ent0029" id="entity_GMN28"><path d="M260.55,354.37 L260.55,374.6356 A10,10 0 0 0 270.55,384.6356 L417.9968,384.6356 A10,10 0 0 0 427.9968,374.6356 L427.9968,369.2 L477.63,365.2 L427.9968,361.2 L427.9968,354.37 L417.9968,344.37 L270.55,344.37 A10,10 0 0 0 260.55,354.37" fill="#FFA500" style="stroke:#444444;stroke-width:0.5;"/><path d="M417.9968,344.37 L417.9968,349.37 A5,5 0 0 0 422.9968,354.37 L427.9968,354.37 L417.9968,344.37" fill="#FFA500" style="stroke:#444444;stroke-width:0.5;"/><text fill="#000000" font-family="Sans-Serif" font-size="13" lengthAdjust="spacing" textLength="54.1709" x="266.55" y="361.4369">National</text><text fill="#000000" font-family="Sans-Serif" font-size="13" lengthAdjust="spacing" textLength="4.1323" x="320.7209" y="361.4369">&#160;</text><text fill="#000000" font-family="Sans-Serif" font-size="13" lengthAdjust="spacing" textLength="66.1362" x="324.8532" y="361.4369">objectives</text><text fill="#000000" font-family="Sans-Serif" font-size="13" lengthAdjust="spacing" textLength="4.1323" x="390.9895" y="361.4369">&#160;</text><text fill="#000000" font-family="Sans-Serif" font-size="13" lengthAdjust="spacing" textLength="17.875" x="395.1218" y="361.4369">for</text><text fill="#000000" font-family="Sans-Serif" font-size="13" lengthAdjust="spacing" textLength="34.9629" x="272.1328" y="376.5697">clean</text><text fill="#000000" font-family="Sans-Serif" font-size="13" lengthAdjust="spacing" textLength="4.1323" x="307.0957" y="376.5697">&#160;</text><text fill="#000000" font-family="Sans-Serif" font-size="13" lengthAdjust="spacing" textLength="45.5254" x="311.228" y="376.5697">energy</text><text fill="#000000" font-family="Sans-Serif" font-size="13" lengthAdjust="spacing" textLength="4.1323" x="356.7534" y="376.5697">&#160;</text><text fill="#000000" font-family="Sans-Serif" font-size="13" lengthAdjust="spacing" textLength="46.5283" x="360.8857" y="376.5697">targets</text></g><g class="entity" data-entity="GMN31" data-source-line="68" data-uid="ent0032" id="entity_GMN31"><path d="M851.82,16 L851.82,16.2 L802.55,20.2 L851.82,24.2 L851.82,36.2656 A10,10 0 0 0 861.82,46.2656 L1036.7331,46.2656 A10,10 0 0 0 1046.7331,36.2656 L1046.7331,16 L1036.7331,6 L861.82,6 A10,10 0 0 0 851.82,16" fill="#FFA500" style="stroke:#444444;stroke-width:0.5;"/><path d="M1036.7331,6 L1036.7331,11 A5,5 0 0 0 1041.7331,16 L1046.7331,16 L1036.7331,6" fill="#FFA500" style="stroke:#444444;stroke-width:0.5;"/><text fill="#000000" font-family="Sans-Serif" font-size="13" lengthAdjust="spacing" textLength="49.207" x="857.82" y="23.0669">Defines</text><text fill="#000000" font-family="Sans-Serif" font-size="13" lengthAdjust="spacing" textLength="4.1323" x="907.027" y="23.0669">&#160;</text><text fill="#000000" font-family="Sans-Serif" font-size="13" lengthAdjust="spacing" textLength="50.3306" x="911.1594" y="23.0669">IREDA's</text><text fill="#000000" font-family="Sans-Serif" font-size="13" lengthAdjust="spacing" textLength="4.1323" x="961.4899" y="23.0669">&#160;</text><text fill="#000000" font-family="Sans-Serif" font-size="13" lengthAdjust="spacing" textLength="31.4399" x="965.6222" y="23.0669">legal</text><text fill="#000000" font-family="Sans-Serif" font-size="13" lengthAdjust="spacing" textLength="4.1323" x="997.0622" y="23.0669">&#160;</text><text fill="#000000" font-family="Sans-Serif" font-size="13" lengthAdjust="spacing" textLength="30.5386" x="1001.1945" y="23.0669">form</text><text fill="#000000" font-family="Sans-Serif" font-size="13" lengthAdjust="spacing" textLength="24.4575" x="876.8979" y="38.1997">and</text><text fill="#000000" font-family="Sans-Serif" font-size="13" lengthAdjust="spacing" textLength="4.1323" x="901.3554" y="38.1997">&#160;</text><text fill="#000000" font-family="Sans-Serif" font-size="13" lengthAdjust="spacing" textLength="73.9946" x="905.4877" y="38.1997">operational</text><text fill="#000000" font-family="Sans-Serif" font-size="13" lengthAdjust="spacing" textLength="4.1323" x="979.4824" y="38.1997">&#160;</text><text fill="#000000" font-family="Sans-Serif" font-size="13" lengthAdjust="spacing" textLength="29.0405" x="983.6147" y="38.1997">type</text></g><g class="entity" data-entity="GMN34" data-source-line="73" data-uid="ent0035" id="entity_GMN34"><path d="M192.12,236.54 L192.12,256.8056 A10,10 0 0 0 202.12,266.8056 L378.4359,266.8056 A10,10 0 0 0 388.4359,256.8056 L388.4359,251.2 L438.03,247.2 L388.4359,243.2 L388.4359,236.54 L378.4359,226.54 L202.12,226.54 A10,10 0 0 0 192.12,236.54" fill="#FFA500" style="stroke:#444444;stroke-width:0.5;"/><path d="M378.4359,226.54 L378.4359,231.54 A5,5 0 0 0 383.4359,236.54 L388.4359,236.54 L378.4359,226.54" fill="#FFA500" style="stroke:#444444;stroke-width:0.5;"/><text fill="#000000" font-family="Sans-Serif" font-size="13" lengthAdjust="spacing" textLength="63.9082" x="198.12" y="243.6069">Describes</text><text fill="#000000" font-family="Sans-Serif" font-size="13" lengthAdjust="spacing" textLength="4.1323" x="262.0282" y="243.6069">&#160;</text><text fill="#000000" font-family="Sans-Serif" font-size="13" lengthAdjust="spacing" textLength="50.3306" x="266.1605" y="243.6069">IREDA's</text><text fill="#000000" font-family="Sans-Serif" font-size="13" lengthAdjust="spacing" textLength="4.1323" x="316.4911" y="243.6069">&#160;</text><text fill="#000000" font-family="Sans-Serif" font-size="13" lengthAdjust="spacing" textLength="52.8125" x="320.6234" y="243.6069">purpose</text><text fill="#000000" font-family="Sans-Serif" font-size="13" lengthAdjust="spacing" textLength="24.4575" x="218.204" y="258.7397">and</text><text fill="#000000" font-family="Sans-Serif" font-size="13" lengthAdjust="spacing" textLength="4.1323" x="242.6615" y="258.7397">&#160;</text><text fill="#000000" font-family="Sans-Serif" font-size="13" lengthAdjust="spacing" textLength="57.6875" x="246.7938" y="258.7397">intended</text><text fill="#000000" font-family="Sans-Serif" font-size="13" lengthAdjust="spacing" textLength="4.1323" x="304.4813" y="258.7397">&#160;</text><text fill="#000000" font-family="Sans-Serif" font-size="13" lengthAdjust="spacing" textLength="44.7383" x="308.6137" y="258.7397">impact</text></g><g class="entity" data-entity="GMN37" data-source-line="78" data-uid="ent0038" id="entity_GMN37"><path d="M668.61,354.37 L668.61,374.6356 A10,10 0 0 0 678.61,384.6356 L807.9533,384.6356 A10,10 0 0 0 817.9533,374.6356 L817.9533,354.37 L807.9533,344.37 L747.28,344.37 L743.28,265.08 L739.28,344.37 L678.61,344.37 A10,10 0 0 0 668.61,354.37" fill="#FFA500" style="stroke:#444444;stroke-width:0.5;"/><path d="M807.9533,344.37 L807.9533,349.37 A5,5 0 0 0 812.9533,354.37 L817.9533,354.37 L807.9533,344.37" fill="#FFA500" style="stroke:#444444;stroke-width:0.5;"/><text fill="#000000" font-family="Sans-Serif" font-size="13" lengthAdjust="spacing" textLength="17.1323" x="674.61" y="361.4369">An</text><text fill="#000000" font-family="Sans-Serif" font-size="13" lengthAdjust="spacing" textLength="4.1323" x="691.7423" y="361.4369">&#160;</text><text fill="#000000" font-family="Sans-Serif" font-size="13" lengthAdjust="spacing" textLength="37.7368" x="695.8746" y="361.4369">entity</text><text fill="#000000" font-family="Sans-Serif" font-size="13" lengthAdjust="spacing" textLength="4.1323" x="733.6115" y="361.4369">&#160;</text><text fill="#000000" font-family="Sans-Serif" font-size="13" lengthAdjust="spacing" textLength="65.2095" x="737.7438" y="361.4369">controlled</text><text fill="#000000" font-family="Sans-Serif" font-size="13" lengthAdjust="spacing" textLength="15.9453" x="676.2699" y="376.5697">by</text><text fill="#000000" font-family="Sans-Serif" font-size="13" lengthAdjust="spacing" textLength="4.1323" x="692.2152" y="376.5697">&#160;</text><text fill="#000000" font-family="Sans-Serif" font-size="13" lengthAdjust="spacing" textLength="21.3345" x="696.3475" y="376.5697">the</text><text fill="#000000" font-family="Sans-Serif" font-size="13" lengthAdjust="spacing" textLength="4.1323" x="717.682" y="376.5697">&#160;</text><text fill="#000000" font-family="Sans-Serif" font-size="13" lengthAdjust="spacing" textLength="79.479" x="721.8143" y="376.5697">government</text></g><!--reverse link Organization Structure to IREDA--><g class="link" data-entity-1="Organization Structure" data-entity-2="IREDA" data-source-line="32" data-uid="lnk9" id="link_Organization Structure_IREDA"><path codeLine="32" d="M712.28,56.35 C712.28,76.65 712.28,97.33 712.28,117.8" fill="none" id="Organization Structure-backto-IREDA" style="stroke:#FFFFFF;stroke-width:1.5;"/><polygon fill="#FFFFFF" points="712.28,44.35,708.28,50.35,712.28,56.35,716.28,50.35,712.28,44.35" style="stroke:#FFFFFF;stroke-width:1.5;"/></g><!--reverse link Organization Structure to Public Limited Company--><g class="link" data-entity-1="Organization Structure" data-entity-2="Public Limited Company" data-source-line="33" data-uid="lnk10" id="link_Organization Structure_Public Limited Company"><path codeLine="33" d="M814.54,32.2 C833.58,32.2 836.03,32.2 836.03,32.2 C836.03,32.2 836.03,247.2 836.03,247.2 C836.03,247.2 850.79,247.2 870.33,247.2" fill="none" id="Organization Structure-backto-Public Limited Company" style="stroke:#FFFFFF;stroke-width:1.5;"/><polygon fill="#FFFFFF" points="802.54,32.2,808.54,36.2,814.54,32.2,808.54,28.2,802.54,32.2" style="stroke:#FFFFFF;stroke-width:1.5;"/></g><!--reverse link Organization Structure to NBFC--><g class="link" data-entity-1="Organization Structure" data-entity-2="NBFC" data-source-line="34" data-uid="lnk11" id="link_Organization Structure_NBFC"><path codeLine="34" d="M610.14,26.2 C440.71,26.2 103.63,26.2 103.63,26.2 C103.63,26.2 103.63,175.26 103.63,228.25" fill="none" id="Organization Structure-backto-NBFC" style="stroke:#FFFFFF;stroke-width:1.5;"/><polygon fill="#FFFFFF" points="622.14,26.2,616.14,22.2,610.14,26.2,616.14,30.2,622.14,26.2" style="stroke:#FFFFFF;stroke-width:1.5;"/></g><!--reverse link Operational Mandate to Renewable Goals--><g class="link" data-entity-1="Operational Mandate" data-entity-2="Renewable Goals" data-source-line="36" data-uid="lnk12" id="link_Operational Mandate_Renewable Goals"><path codeLine="36" d="M563.36,277.08 C563.36,299.22 563.36,324.14 563.36,346.22" fill="none" id="Operational Mandate-backto-Renewable Goals" style="stroke:#FFFFFF;stroke-width:1.5;"/><polygon fill="#FFFFFF" points="563.36,265.08,559.36,271.08,563.36,277.08,567.36,271.08,563.36,265.08" style="stroke:#FFFFFF;stroke-width:1.5;"/></g><!--link IREDA to NBFC--><g class="link" data-entity-1="IREDA" data-entity-2="NBFC" data-source-line="38" data-uid="lnk13" id="link_IREDA_NBFC"><path codeLine="38" d="M680.59,137.2 C558.18,137.2 122.93,137.2 122.93,137.2 C122.93,137.2 122.93,190.87 122.93,222.1" fill="none" id="IREDA-to-NBFC" style="stroke:#FFFFFF;stroke-width:1.5;"/><polygon fill="#FFFFFF" points="122.93,228.1,126.93,219.1,122.93,223.1,118.93,219.1,122.93,228.1" style="stroke:#FFFFFF;stroke-width:1.5;"/></g><!--link IREDA to Public Limited Company--><g class="link" data-entity-1="IREDA" data-entity-2="Public Limited Company" data-source-line="39" data-uid="lnk14" id="link_IREDA_Public Limited Company"><path codeLine="39" d="M744.09,137.2 C793.61,137.2 883.52,137.2 883.52,137.2 C883.52,137.2 883.52,190.87 883.52,222.1" fill="none" id="IREDA-to-Public Limited Company" style="stroke:#FFFFFF;stroke-width:1.5;"/><polygon fill="#FFFFFF" points="883.52,228.1,887.52,219.1,883.52,223.1,879.52,219.1,883.52,228.1" style="stroke:#FFFFFF;stroke-width:1.5;"/></g><!--link IREDA to Government Agency--><g class="link" data-entity-1="IREDA" data-entity-2="Government Agency" data-source-line="40" data-uid="lnk15" id="link_IREDA_Government Agency"><path codeLine="40" d="M701.77,154.61 C701.77,174.92 701.77,201.6 701.77,222.06" fill="none" id="IREDA-to-Government Agency" style="stroke:#FFFFFF;stroke-width:1.5;"/><polygon fill="#FFFFFF" points="701.77,228.06,705.77,219.06,701.77,223.06,697.77,219.06,701.77,228.06" style="stroke:#FFFFFF;stroke-width:1.5;"/></g><!--link Public Limited Company to Renewable Goals--><g class="link" data-entity-1="Public Limited Company" data-entity-2="Renewable Goals" data-source-line="42" data-uid="lnk16" id="link_Public Limited Company_Renewable Goals"><path codeLine="42" d="M965.28,265.12 C965.28,285.12 965.28,314.2 965.28,314.2 C965.28,314.2 614.52,314.2 614.52,314.2 C614.52,314.2 614.52,325.7 614.52,340.06" fill="none" id="Public Limited Company-to-Renewable Goals" style="stroke:#FFFFFF;stroke-width:1.5;"/><polygon fill="#FFFFFF" points="614.52,346.06,618.52,337.06,614.52,341.06,610.52,337.06,614.52,346.06" style="stroke:#FFFFFF;stroke-width:1.5;"/></g><!--link NBFC to Renewable Goals--><g class="link" data-entity-1="NBFC" data-entity-2="Renewable Goals" data-source-line="43" data-uid="lnk17" id="link_NBFC_Renewable Goals"><path codeLine="43" d="M122.93,265.13 C122.93,276.99 122.93,290.2 122.93,290.2 C122.93,290.2 520.6,290.2 520.6,290.2 C520.6,290.2 520.6,318.13 520.6,340.13" fill="none" id="NBFC-to-Renewable Goals" style="stroke:#FFFFFF;stroke-width:1.5;stroke-dasharray:7.0,7.0;"/><polygon fill="#FFFFFF" points="520.6,346.13,524.6,337.13,520.6,341.13,516.6,337.13,520.6,346.13" style="stroke:#FFFFFF;stroke-width:1.5;"/></g><!--link Government Agency to Renewable Goals--><g class="link" data-entity-1="Government Agency" data-entity-2="Renewable Goals" data-source-line="44" data-uid="lnk18" id="link_Government Agency_Renewable Goals"><path codeLine="44" d="M656.15,247.2 C631.24,247.2 610.32,247.2 610.32,247.2 C610.32,247.2 610.32,306.84 610.32,339.91" fill="none" id="Government Agency-to-Renewable Goals" style="stroke:#FFFFFF;stroke-width:1.5;"/><polygon fill="#FFFFFF" points="610.32,345.91,614.32,336.91,610.32,340.91,606.32,336.91,610.32,345.91" style="stroke:#FFFFFF;stroke-width:1.5;"/></g><!--link IREDA to GMN19--><g class="link" data-entity-1="IREDA" data-entity-2="GMN19" data-source-line="48" data-uid="lnk21" id="link_IREDA_GMN19"><path d="M722.79,154.98 C722.79,171.21 722.79,192.2 722.79,192.2 C722.79,192.2 1227.28,192.2 1227.28,192.2 C1227.28,192.2 1227.28,172.79 1227.28,156.86" fill="none" id="IREDA-GMN19" style="stroke:#FFFFFF;stroke-width:1.5;stroke-dasharray:7.0,7.0;"/></g><!--SRC=[ZLLDJ-Cm4BtdLuow1wILMh7Bbey3I6cR8YGM423jsKacYRUE7TbkG_drEt5QQa82cqDKULxVl7apup0XL5to5oxpmAouh9Xc9SGiMULQhMKwLq9f-7RY7WyXk4IxhH2KjeNo0bAbQB22wR5tg9bSDOTd_c69nh0SGy5pMQAqaD0BjOT8CMDhOP_nnNw2aihYJEaKzKxiB_Tq4TsIbijmUkph2RLMTHki2swn6tekUBAI91f-JAPUiDQi-iDJMy3FTtmxzKibxHqh4KPFJ9hn4sgUZJhYliBiT6k9cf9u0LEmLDNKFCYOCDYVlQqf5kH0Jzx-gCR4CfcB_u7uvhVE1KUmm8n612A1JTTCy8Q6qSrZj0X7r87f8fgT-96xsN9EWOlpvUpYt0yyh6F14xZb9T6dC5TbnUIMeETdyoYQ-T17b5Ypc7vUA_A4CD5fTBeCVSozpfdahyno9U79wdLYrnfxwUuhr0x71FncCcMs7tUjDgZR2Grpb8adxk368mh7PGfUcM1GnlVnUE_I5w01NxxubxCv2FfhSuYkYGJUTMqyljeJl3iQLEA3Fff4n4EzlRoywX6ocv79f3VOquL-6kf9cAPmHqjWeEQql6GIrP-JaWSQT3UrGRCZe7bUM53PMqi0RcJAcOG3QqIRcMyfii0D2bLv2WAKgLkseAMBbRMgT7ojZK0gv7X6LsIpnqikcKmuTMHd1CKVjDfmkbR1LDY4-2lvb3aWTkcjgXptK3y0RZ4dThEV2U1KJ49ZG5y0WFnWeAgfg6PIkoa4PgqV7robKlRpfEA_j1nyGwepfIcI22JBq1a5bkaSwLReC1-i7fXVvt2pIWPSCuuCgMdAeHmb1Mc8GNbJtNoY1kNtZRzBO1BDOoz5jTQLejkrvUVq_P4fUSh9qiH-qj-USGS86nCijrj8w6hLIWXCwJWcKmhq_7_Z_GS0]--></g></svg>