<svg xmlns="http://www.w3.org/2000/svg" xmlns:xlink="http://www.w3.org/1999/xlink" contentStyleType="text/css" data-diagram-type="CLASS" height="486px" preserveAspectRatio="none" style="width:1262px;height:486px;background:#333333;" version="1.1" viewBox="0 0 1262 486" width="1262px" zoomAndPan="magnify"><defs/><g><rect fill="#333333" height="486" style="stroke:none;stroke-width:1;" width="1262" x="0" y="0"/><!--entity Indus River System--><g class="entity" data-entity="Indus River System" data-source-line="23" data-uid="ent0002" id="entity_Indus River System"><rect fill="#87CEEB" height="36.2969" rx="10" ry="10" style="stroke:#FFFFFF;stroke-width:0.5;" width="155.4336" x="650.28" y="116.26"/><text fill="#000000" font-family="Sans-Serif" font-size="14" lengthAdjust="spacing" textLength="38.0557" x="660.28" y="139.2551">Indus</text><text fill="#000000" font-family="Sans-Serif" font-size="14" lengthAdjust="spacing" textLength="4.4502" x="698.3357" y="139.2551">&#160;</text><text fill="#000000" font-family="Sans-Serif" font-size="14" lengthAdjust="spacing" textLength="36.2715" x="702.7859" y="139.2551">River</text><text fill="#000000" font-family="Sans-Serif" font-size="14" lengthAdjust="spacing" textLength="4.4502" x="739.0573" y="139.2551">&#160;</text><text fill="#000000" font-family="Sans-Serif" font-size="14" lengthAdjust="spacing" textLength="52.2061" x="743.5075" y="139.2551">System</text></g><!--entity Indus River--><g class="entity" data-entity="Indus River" data-source-line="24" data-uid="ent0003" id="entity_Indus River"><rect fill="#98FB98" height="36.2969" rx="10" ry="10" style="stroke:#FFFFFF;stroke-width:0.5;" width="98.7773" x="904.61" y="437.14"/><text fill="#000000" font-family="Sans-Serif" font-size="14" lengthAdjust="spacing" textLength="38.0557" x="914.61" y="460.1351">Indus</text><text fill="#000000" font-family="Sans-Serif" font-size="14" lengthAdjust="spacing" textLength="4.4502" x="952.6657" y="460.1351">&#160;</text><text fill="#000000" font-family="Sans-Serif" font-size="14" lengthAdjust="spacing" textLength="36.2715" x="957.1159" y="460.1351">River</text></g><!--entity Jhelum River--><g class="entity" data-entity="Jhelum River" data-source-line="25" data-uid="ent0004" id="entity_Jhelum River"><rect fill="#98FB98" height="36.2969" rx="10" ry="10" style="stroke:#FFFFFF;stroke-width:0.5;" width="108.7373" x="803.63" y="222.56"/><text fill="#000000" font-family="Sans-Serif" font-size="14" lengthAdjust="spacing" textLength="48.0156" x="813.63" y="245.5551">Jhelum</text><text fill="#000000" font-family="Sans-Serif" font-size="14" lengthAdjust="spacing" textLength="4.4502" x="861.6456" y="245.5551">&#160;</text><text fill="#000000" font-family="Sans-Serif" font-size="14" lengthAdjust="spacing" textLength="36.2715" x="866.0958" y="245.5551">River</text></g><!--entity Chenab River--><g class="entity" data-entity="Chenab River" data-source-line="26" data-uid="ent0005" id="entity_Chenab River"><rect fill="#98FB98" height="36.2969" rx="10" ry="10" style="stroke:#FFFFFF;stroke-width:0.5;" width="114.3223" x="670.84" y="328.86"/><text fill="#000000" font-family="Sans-Serif" font-size="14" lengthAdjust="spacing" textLength="53.6006" x="680.84" y="351.8551">Chenab</text><text fill="#000000" font-family="Sans-Serif" font-size="14" lengthAdjust="spacing" textLength="4.4502" x="734.4406" y="351.8551">&#160;</text><text fill="#000000" font-family="Sans-Serif" font-size="14" lengthAdjust="spacing" textLength="36.2715" x="738.8908" y="351.8551">River</text></g><!--entity Ravi River--><g class="entity" data-entity="Ravi River" data-source-line="27" data-uid="ent0006" id="entity_Ravi River"><rect fill="#98FB98" height="36.2969" rx="10" ry="10" style="stroke:#FFFFFF;stroke-width:0.5;" width="91.2031" x="208.4" y="222.56"/><text fill="#000000" font-family="Sans-Serif" font-size="14" lengthAdjust="spacing" textLength="30.4814" x="218.4" y="245.5551">Ravi</text><text fill="#000000" font-family="Sans-Serif" font-size="14" lengthAdjust="spacing" textLength="4.4502" x="248.8814" y="245.5551">&#160;</text><text fill="#000000" font-family="Sans-Serif" font-size="14" lengthAdjust="spacing" textLength="36.2715" x="253.3316" y="245.5551">River</text></g><!--entity Sutlej River--><g class="entity" data-entity="Sutlej River" data-source-line="28" data-uid="ent0007" id="entity_Sutlej River"><rect fill="#98FB98" height="36.2969" rx="10" ry="10" style="stroke:#FFFFFF;stroke-width:0.5;" width="100.3633" x="551.82" y="222.56"/><text fill="#000000" font-family="Sans-Serif" font-size="14" lengthAdjust="spacing" textLength="39.6416" x="561.82" y="245.5551">Sutlej</text><text fill="#000000" font-family="Sans-Serif" font-size="14" lengthAdjust="spacing" textLength="4.4502" x="601.4616" y="245.5551">&#160;</text><text fill="#000000" font-family="Sans-Serif" font-size="14" lengthAdjust="spacing" textLength="36.2715" x="605.9118" y="245.5551">River</text></g><g class="entity" data-entity="GMN17" data-source-line="45" data-uid="ent0018" id="entity_GMN17"><path d="M629.78,16 L629.78,36.2656 A10,10 0 0 0 639.78,46.2656 L724,46.2656 L728,116.03 L732,46.2656 L816.2102,46.2656 A10,10 0 0 0 826.2102,36.2656 L826.2102,16 L816.2102,6 L639.78,6 A10,10 0 0 0 629.78,16" fill="#FFA500" style="stroke:#444444;stroke-width:0.5;"/><path d="M816.2102,6 L816.2102,11 A5,5 0 0 0 821.2102,16 L826.2102,16 L816.2102,6" fill="#FFA500" style="stroke:#444444;stroke-width:0.5;"/><text fill="#000000" font-family="Sans-Serif" font-size="13" lengthAdjust="spacing" textLength="101.8418" x="635.78" y="23.0669">Comprehensive</text><text fill="#000000" font-family="Sans-Serif" font-size="13" lengthAdjust="spacing" textLength="4.1323" x="737.6218" y="23.0669">&#160;</text><text fill="#000000" font-family="Sans-Serif" font-size="13" lengthAdjust="spacing" textLength="52.7935" x="741.7541" y="23.0669">network</text><text fill="#000000" font-family="Sans-Serif" font-size="13" lengthAdjust="spacing" textLength="4.1323" x="794.5476" y="23.0669">&#160;</text><text fill="#000000" font-family="Sans-Serif" font-size="13" lengthAdjust="spacing" textLength="12.5303" x="798.6799" y="23.0669">of</text><text fill="#000000" font-family="Sans-Serif" font-size="13" lengthAdjust="spacing" textLength="36.7656" x="705.1123" y="38.1997">rivers</text></g><g class="entity" data-entity="GMN20" data-source-line="49" data-uid="ent0021" id="entity_GMN20"><path d="M1052.89,445.15 L1052.89,451.42 L1003.71,455.42 L1052.89,459.42 L1052.89,465.4156 A10,10 0 0 0 1062.89,475.4156 L1241.1102,475.4156 A10,10 0 0 0 1251.1102,465.4156 L1251.1102,445.15 L1241.1102,435.15 L1062.89,435.15 A10,10 0 0 0 1052.89,445.15" fill="#FFA500" style="stroke:#444444;stroke-width:0.5;"/><path d="M1241.1102,435.15 L1241.1102,440.15 A5,5 0 0 0 1246.1102,445.15 L1251.1102,445.15 L1241.1102,435.15" fill="#FFA500" style="stroke:#444444;stroke-width:0.5;"/><text fill="#000000" font-family="Sans-Serif" font-size="13" lengthAdjust="spacing" textLength="50.4639" x="1058.89" y="452.2169">Primary</text><text fill="#000000" font-family="Sans-Serif" font-size="13" lengthAdjust="spacing" textLength="4.1323" x="1109.3539" y="452.2169">&#160;</text><text fill="#000000" font-family="Sans-Serif" font-size="13" lengthAdjust="spacing" textLength="80.4946" x="1113.4862" y="452.2169">watercourse</text><text fill="#000000" font-family="Sans-Serif" font-size="13" lengthAdjust="spacing" textLength="4.1323" x="1193.9808" y="452.2169">&#160;</text><text fill="#000000" font-family="Sans-Serif" font-size="13" lengthAdjust="spacing" textLength="12.5303" x="1198.1131" y="452.2169">of</text><text fill="#000000" font-family="Sans-Serif" font-size="13" lengthAdjust="spacing" textLength="4.1323" x="1210.6434" y="452.2169">&#160;</text><text fill="#000000" font-family="Sans-Serif" font-size="13" lengthAdjust="spacing" textLength="21.3345" x="1214.7757" y="452.2169">the</text><text fill="#000000" font-family="Sans-Serif" font-size="13" lengthAdjust="spacing" textLength="46.998" x="1124.0011" y="467.3497">system</text></g><g class="entity" data-entity="GMN23" data-source-line="53" data-uid="ent0024" id="entity_GMN23"><path d="M636.18,445.15 L636.18,465.4156 A10,10 0 0 0 646.18,475.4156 L809.8196,475.4156 A10,10 0 0 0 819.8196,465.4156 L819.8196,445.15 L809.8196,435.15 L732,435.15 L728,365.37 L724,435.15 L646.18,435.15 A10,10 0 0 0 636.18,445.15" fill="#FFA500" style="stroke:#444444;stroke-width:0.5;"/><path d="M809.8196,435.15 L809.8196,440.15 A5,5 0 0 0 814.8196,445.15 L819.8196,445.15 L809.8196,435.15" fill="#FFA500" style="stroke:#444444;stroke-width:0.5;"/><text fill="#000000" font-family="Sans-Serif" font-size="13" lengthAdjust="spacing" textLength="58.2524" x="642.18" y="452.2169">Receives</text><text fill="#000000" font-family="Sans-Serif" font-size="13" lengthAdjust="spacing" textLength="4.1323" x="700.4324" y="452.2169">&#160;</text><text fill="#000000" font-family="Sans-Serif" font-size="13" lengthAdjust="spacing" textLength="26.7744" x="704.5648" y="452.2169">flow</text><text fill="#000000" font-family="Sans-Serif" font-size="13" lengthAdjust="spacing" textLength="4.1323" x="731.3392" y="452.2169">&#160;</text><text fill="#000000" font-family="Sans-Serif" font-size="13" lengthAdjust="spacing" textLength="30.5386" x="735.4715" y="452.2169">from</text><text fill="#000000" font-family="Sans-Serif" font-size="13" lengthAdjust="spacing" textLength="4.1323" x="766.0101" y="452.2169">&#160;</text><text fill="#000000" font-family="Sans-Serif" font-size="13" lengthAdjust="spacing" textLength="34.6772" x="770.1424" y="452.2169">three</text><text fill="#000000" font-family="Sans-Serif" font-size="13" lengthAdjust="spacing" textLength="67.3359" x="689.8319" y="467.3497">tributaries</text></g><g class="entity" data-entity="GMN26" data-source-line="57" data-uid="ent0027" id="entity_GMN26"><path d="M350,238.14 L350,243.2728 A10,10 0 0 0 360,253.2728 L491.9966,253.2728 A10,10 0 0 0 501.9966,243.2728 L501.9966,238.14 L491.9966,228.14 L360,228.14 A10,10 0 0 0 350,238.14" fill="#FFA500" style="stroke:#444444;stroke-width:0.5;"/><path d="M491.9966,228.14 L491.9966,233.14 A5,5 0 0 0 496.9966,238.14 L501.9966,238.14 L491.9966,228.14" fill="#FFA500" style="stroke:#444444;stroke-width:1;"/><text fill="#000000" font-family="Sans-Serif" font-size="13" lengthAdjust="spacing" textLength="36.0928" x="356" y="245.2069">Major</text><text fill="#000000" font-family="Sans-Serif" font-size="13" lengthAdjust="spacing" textLength="4.1323" x="392.0928" y="245.2069">&#160;</text><text fill="#000000" font-family="Sans-Serif" font-size="13" lengthAdjust="spacing" textLength="56.6465" x="396.2251" y="245.2069">tributary</text><text fill="#000000" font-family="Sans-Serif" font-size="13" lengthAdjust="spacing" textLength="4.1323" x="452.8716" y="245.2069">&#160;</text><text fill="#000000" font-family="Sans-Serif" font-size="13" lengthAdjust="spacing" textLength="29.9927" x="457.0039" y="245.2069">river</text></g><g class="entity" data-entity="GMN29" data-source-line="61" data-uid="ent0030" id="entity_GMN29"><path d="M1064,238.14 L1064,243.2728 A10,10 0 0 0 1074,253.2728 L1205.9966,253.2728 A10,10 0 0 0 1215.9966,243.2728 L1215.9966,238.14 L1205.9966,228.14 L1074,228.14 A10,10 0 0 0 1064,238.14" fill="#FFA500" style="stroke:#444444;stroke-width:0.5;"/><path d="M1205.9966,228.14 L1205.9966,233.14 A5,5 0 0 0 1210.9966,238.14 L1215.9966,238.14 L1205.9966,228.14" fill="#FFA500" style="stroke:#444444;stroke-width:1;"/><text fill="#000000" font-family="Sans-Serif" font-size="13" lengthAdjust="spacing" textLength="36.0928" x="1070" y="245.2069">Major</text><text fill="#000000" font-family="Sans-Serif" font-size="13" lengthAdjust="spacing" textLength="4.1323" x="1106.0928" y="245.2069">&#160;</text><text fill="#000000" font-family="Sans-Serif" font-size="13" lengthAdjust="spacing" textLength="56.6465" x="1110.2251" y="245.2069">tributary</text><text fill="#000000" font-family="Sans-Serif" font-size="13" lengthAdjust="spacing" textLength="4.1323" x="1166.8716" y="245.2069">&#160;</text><text fill="#000000" font-family="Sans-Serif" font-size="13" lengthAdjust="spacing" textLength="29.9927" x="1171.0039" y="245.2069">river</text></g><g class="entity" data-entity="GMN32" data-source-line="65" data-uid="ent0033" id="entity_GMN32"><path d="M6,238.14 L6,243.2728 A10,10 0 0 0 16,253.2728 L147.9966,253.2728 A10,10 0 0 0 157.9966,243.2728 L157.9966,238.14 L147.9966,228.14 L16,228.14 A10,10 0 0 0 6,238.14" fill="#FFA500" style="stroke:#444444;stroke-width:0.5;"/><path d="M147.9966,228.14 L147.9966,233.14 A5,5 0 0 0 152.9966,238.14 L157.9966,238.14 L147.9966,228.14" fill="#FFA500" style="stroke:#444444;stroke-width:1;"/><text fill="#000000" font-family="Sans-Serif" font-size="13" lengthAdjust="spacing" textLength="36.0928" x="12" y="245.2069">Major</text><text fill="#000000" font-family="Sans-Serif" font-size="13" lengthAdjust="spacing" textLength="4.1323" x="48.0928" y="245.2069">&#160;</text><text fill="#000000" font-family="Sans-Serif" font-size="13" lengthAdjust="spacing" textLength="56.6465" x="52.2251" y="245.2069">tributary</text><text fill="#000000" font-family="Sans-Serif" font-size="13" lengthAdjust="spacing" textLength="4.1323" x="108.8716" y="245.2069">&#160;</text><text fill="#000000" font-family="Sans-Serif" font-size="13" lengthAdjust="spacing" textLength="29.9927" x="113.0039" y="245.2069">river</text></g><!--link Jhelum River to Chenab River--><g class="link" data-entity-1="Jhelum River" data-entity-2="Chenab River" data-source-line="31" data-uid="lnk8" id="link_Jhelum River_Chenab River"><path codeLine="31" d="M814.42,259.18 C814.42,288.26 814.42,341.42 814.42,341.42 C814.42,341.42 807.5,341.42 791.64,341.42" fill="none" id="Jhelum River-to-Chenab River" style="stroke:#FFFFFF;stroke-width:1.5;"/><polygon fill="#FFFFFF" points="785.64,341.42,794.64,345.42,790.64,341.42,794.64,337.42,785.64,341.42" style="stroke:#FFFFFF;stroke-width:1.5;"/></g><!--link Ravi River to Chenab River--><g class="link" data-entity-1="Ravi River" data-entity-2="Chenab River" data-source-line="32" data-uid="lnk9" id="link_Ravi River_Chenab River"><path codeLine="32" d="M254,259.32 C254,291.33 254,353.42 254,353.42 C254,353.42 538.03,353.42 664.35,353.42" fill="none" id="Ravi River-to-Chenab River" style="stroke:#FFFFFF;stroke-width:1.5;"/><polygon fill="#FFFFFF" points="670.35,353.42,661.35,349.42,665.35,353.42,661.35,357.42,670.35,353.42" style="stroke:#FFFFFF;stroke-width:1.5;"/></g><!--link Sutlej River to Chenab River--><g class="link" data-entity-1="Sutlej River" data-entity-2="Chenab River" data-source-line="33" data-uid="lnk10" id="link_Sutlej River_Chenab River"><path codeLine="33" d="M644.18,259.18 C644.18,288.26 644.18,341.42 644.18,341.42 C644.18,341.42 649.97,341.42 664.7,341.42" fill="none" id="Sutlej River-to-Chenab River" style="stroke:#FFFFFF;stroke-width:1.5;"/><polygon fill="#FFFFFF" points="670.7,341.42,661.7,337.42,665.7,341.42,661.7,345.42,670.7,341.42" style="stroke:#FFFFFF;stroke-width:1.5;"/></g><!--link Chenab River to Indus River--><g class="link" data-entity-1="Chenab River" data-entity-2="Indus River" data-source-line="34" data-uid="lnk11" id="link_Chenab River_Indus River"><path codeLine="34" d="M785.6,353.42 C838.42,353.42 908.49,353.42 908.49,353.42 C908.49,353.42 908.49,401.77 908.49,431.08" fill="none" id="Chenab River-to-Indus River" style="stroke:#FFFFFF;stroke-width:1.5;"/><polygon fill="#FFFFFF" points="908.49,437.08,912.49,428.08,908.49,432.08,904.49,428.08,908.49,437.08" style="stroke:#FFFFFF;stroke-width:1.5;"/></g><!--reverse link Indus River System to Indus River--><g class="link" data-entity-1="Indus River System" data-entity-2="Indus River" data-source-line="37" data-uid="lnk12" id="link_Indus River System_Indus River"><path codeLine="37" d="M818.15,134.42 C884.79,134.42 957.88,134.42 957.88,134.42 C957.88,134.42 957.88,368.17 957.88,436.65" fill="none" id="Indus River System-backto-Indus River" style="stroke:#FFFFFF;stroke-width:1.5;"/><polygon fill="#FFFFFF" points="806.15,134.42,812.15,138.42,818.15,134.42,812.15,130.42,806.15,134.42" style="stroke:#FFFFFF;stroke-width:1.5;"/></g><!--reverse link Indus River System to Chenab River--><g class="link" data-entity-1="Indus River System" data-entity-2="Chenab River" data-source-line="38" data-uid="lnk13" id="link_Indus River System_Chenab River"><path codeLine="38" d="M728,164.91 C728,205.11 728,288.1 728,328.4" fill="none" id="Indus River System-backto-Chenab River" style="stroke:#FFFFFF;stroke-width:1.5;"/><polygon fill="#FFFFFF" points="728,152.91,724,158.91,728,164.91,732,158.91,728,152.91" style="stroke:#FFFFFF;stroke-width:1.5;"/></g><!--reverse link Indus River System to Jhelum River--><g class="link" data-entity-1="Indus River System" data-entity-2="Jhelum River" data-source-line="39" data-uid="lnk14" id="link_Indus River System_Jhelum River"><path codeLine="39" d="M794.39,164.94 C794.39,194.1 794.39,235.42 794.39,235.42 C794.39,235.42 797.89,235.42 803.24,235.42" fill="none" id="Indus River System-backto-Jhelum River" style="stroke:#FFFFFF;stroke-width:1.5;"/><polygon fill="#FFFFFF" points="794.39,152.94,790.39,158.94,794.39,164.94,798.39,158.94,794.39,152.94" style="stroke:#FFFFFF;stroke-width:1.5;"/></g><!--reverse link Indus River System to Ravi River--><g class="link" data-entity-1="Indus River System" data-entity-2="Ravi River" data-source-line="40" data-uid="lnk15" id="link_Indus River System_Ravi River"><path codeLine="40" d="M637.91,134.42 C506.94,134.42 269.2,134.42 269.2,134.42 C269.2,134.42 269.2,191.74 269.2,222.19" fill="none" id="Indus River System-backto-Ravi River" style="stroke:#FFFFFF;stroke-width:1.5;"/><polygon fill="#FFFFFF" points="649.91,134.42,643.91,130.42,637.91,134.42,643.91,138.42,649.91,134.42" style="stroke:#FFFFFF;stroke-width:1.5;"/></g><!--reverse link Indus River System to Sutlej River--><g class="link" data-entity-1="Indus River System" data-entity-2="Sutlej River" data-source-line="41" data-uid="lnk16" id="link_Indus River System_Sutlej River"><path codeLine="41" d="M661.51,164.82 C661.51,196.84 661.51,247.42 661.51,247.42 C661.51,247.42 657.9,247.42 652.47,247.42" fill="none" id="Indus River System-backto-Sutlej River" style="stroke:#FFFFFF;stroke-width:1.5;"/><polygon fill="#FFFFFF" points="661.51,152.82,657.51,158.82,661.51,164.82,665.51,158.82,661.51,152.82" style="stroke:#FFFFFF;stroke-width:1.5;"/></g><!--link GMN26 to Jhelum River--><g class="link" data-entity-1="GMN26" data-entity-2="Jhelum River" data-source-line="57" data-uid="lnk28" id="link_GMN26_Jhelum River"><path d="M426,253.71 C426,269.61 426,294.42 426,294.42 C426,294.42 809.03,294.42 809.03,294.42 C809.03,294.42 809.03,274.73 809.03,259.19" fill="none" id="GMN26-Jhelum River" style="stroke:#FFFFFF;stroke-width:1.5;stroke-dasharray:7.0,7.0;"/></g><!--link Ravi River to GMN29--><g class="link" data-entity-1="Ravi River" data-entity-2="GMN29" data-source-line="61" data-uid="lnk31" id="link_Ravi River_GMN29"><path d="M238.8,222.11 C238.8,203.13 238.8,176.42 238.8,176.42 C238.8,176.42 1140,176.42 1140,176.42 C1140,176.42 1140,208.91 1140,227.7" fill="none" id="Ravi River-GMN29" style="stroke:#FFFFFF;stroke-width:1.5;stroke-dasharray:7.0,7.0;"/></g><!--link GMN32 to Sutlej River--><g class="link" data-entity-1="GMN32" data-entity-2="Sutlej River" data-source-line="65" data-uid="lnk34" id="link_GMN32_Sutlej River"><path d="M82,227.64 C82,215.55 82,199.42 82,199.42 C82,199.42 590.8,199.42 590.8,199.42 C590.8,199.42 590.8,211.42 590.8,222.48" fill="none" id="GMN32-Sutlej River" style="stroke:#FFFFFF;stroke-width:1.5;stroke-dasharray:7.0,7.0;"/></g><!--SRC=[ZLHDRwCm4BtpAqRfOJyaLjsFgEbbfIHAf5rfgogfj6S71d1ZR3GsfVdtEq1Q6I-XvO2Gt_FCUyzZX5AcAUMpr7baZr9NWaG91v4SSpArJjT66OAhxztZCPJKw4uLWY5N60_G9aMB5SollKKI-jWktlYB9LehSbmgcUiIjOE4NqWU8yLCrCezuBERO6dZS6KeHJgB_T4z8IEqjDqkvzU-dYMHQNgmAQJ347eeP7BKB1g-VfbxO4EY-YjJLy2tGRsp-gtHxawK2BEzq3RU8ybi5eXxYtFMJHg9ctY0BKHg6Zuyo8IoEDwzztHGdC18tt6KC752v-ez53_yFhde0smKjiTberSQp7xfjBQmaqziOt-o3iiPN2rkrflDwWADyTl5TdMxyF7V1Qgwd22i2zJYC47OYISv0Uzhf_0n9B2f7IhXfD6sa9M5Zrk-Ev-YG4yS_mmKH8D-O_YmuHXZQAbZ-36DY5kRiZ9MjYkiSIpwpt4SLBbC2-HSv0socE1vYKom1hcq7lUEXCDS9d37umltF9BTc4NjD8Cp5PXiTCuYW3OGGlPX6G3-VJM6ZYsVMgADKAVTfOZwOYJpmeNbsZht94j19sXO2IMc9eijpHK8jciMLZeOvqpPbHh627nc2VAtXOn72J9YcYi8sGh9G-q4IVnFcCAirpNC6k2FUEGR-BBprFkwRCi_WdTkVcqzF9YtTly3]--></g></svg>