<svg xmlns="http://www.w3.org/2000/svg" xmlns:xlink="http://www.w3.org/1999/xlink" contentStyleType="text/css" data-diagram-type="CLASS" height="687px" preserveAspectRatio="none" style="width:778px;height:687px;background:#333333;" version="1.1" viewBox="0 0 778 687" width="778px" zoomAndPan="magnify"><defs/><g><rect fill="#333333" height="687" style="stroke:none;stroke-width:1;" width="778" x="0" y="0"/><!--entity Mangrove Ecosystems--><g class="entity" data-entity="Mangrove Ecosystems" data-source-line="23" data-uid="ent0002" id="entity_Mangrove Ecosystems"><rect fill="#87CEEB" height="36.2969" rx="10" ry="10" style="stroke:#FFFFFF;stroke-width:0.5;" width="177.1035" x="7" y="7.98"/><text fill="#000000" font-family="Sans-Serif" font-size="14" lengthAdjust="spacing" textLength="69.6377" x="17" y="30.9751">Mangrove</text><text fill="#000000" font-family="Sans-Serif" font-size="14" lengthAdjust="spacing" textLength="0" x="86.6377" y="30.9751">&#160;</text><text fill="#000000" font-family="Sans-Serif" font-size="14" lengthAdjust="spacing" textLength="83.0156" x="91.0879" y="30.9751">Ecosystems</text></g><!--entity Coastal Protection--><g class="entity" data-entity="Coastal Protection" data-source-line="24" data-uid="ent0003" id="entity_Coastal Protection"><rect fill="#E6E6FA" height="36.2969" rx="10" ry="10" style="stroke:#FFFFFF;stroke-width:0.5;" width="148.0029" x="149.55" y="545.42"/><text fill="#000000" font-family="Sans-Serif" font-size="14" lengthAdjust="spacing" textLength="52.1719" x="159.55" y="568.4151">Coastal</text><text fill="#000000" font-family="Sans-Serif" font-size="14" lengthAdjust="spacing" textLength="0" x="211.7219" y="568.4151">&#160;</text><text fill="#000000" font-family="Sans-Serif" font-size="14" lengthAdjust="spacing" textLength="71.3809" x="216.1721" y="568.4151">Protection</text></g><!--entity Natural Buffer--><g class="entity" data-entity="Natural Buffer" data-source-line="25" data-uid="ent0004" id="entity_Natural Buffer"><rect fill="#87CEEB" height="36.2969" rx="10" ry="10" style="stroke:#FFFFFF;stroke-width:0.5;" width="118.793" x="373.16" y="439.12"/><text fill="#000000" font-family="Sans-Serif" font-size="14" lengthAdjust="spacing" textLength="51.6387" x="383.16" y="462.1151">Natural</text><text fill="#000000" font-family="Sans-Serif" font-size="14" lengthAdjust="spacing" textLength="0" x="434.7987" y="462.1151">&#160;</text><text fill="#000000" font-family="Sans-Serif" font-size="14" lengthAdjust="spacing" textLength="42.7041" x="439.2489" y="462.1151">Buffer</text></g><!--entity Root System--><g class="entity" data-entity="Root System" data-source-line="26" data-uid="ent0005" id="entity_Root System"><rect fill="#98FB98" height="36.2969" rx="10" ry="10" style="stroke:#FFFFFF;stroke-width:0.5;" width="109.0039" x="250.05" y="116.26"/><text fill="#000000" font-family="Sans-Serif" font-size="14" lengthAdjust="spacing" textLength="32.3477" x="260.05" y="139.2551">Root</text><text fill="#000000" font-family="Sans-Serif" font-size="14" lengthAdjust="spacing" textLength="0" x="292.3977" y="139.2551">&#160;</text><text fill="#000000" font-family="Sans-Serif" font-size="14" lengthAdjust="spacing" textLength="52.2061" x="296.8479" y="139.2551">System</text></g><!--entity Sediment Stabilization--><g class="entity" data-entity="Sediment Stabilization" data-source-line="27" data-uid="ent0006" id="entity_Sediment Stabilization"><rect fill="#98FB98" height="36.2969" rx="10" ry="10" style="stroke:#FFFFFF;stroke-width:0.5;" width="170.2471" x="219.43" y="224.55"/><text fill="#000000" font-family="Sans-Serif" font-size="14" lengthAdjust="spacing" textLength="66.8896" x="229.43" y="247.5451">Sediment</text><text fill="#000000" font-family="Sans-Serif" font-size="14" lengthAdjust="spacing" textLength="0" x="296.3196" y="247.5451">&#160;</text><text fill="#000000" font-family="Sans-Serif" font-size="14" lengthAdjust="spacing" textLength="78.9072" x="300.7698" y="247.5451">Stabilization</text></g><!--entity Wave Attenuation--><g class="entity" data-entity="Wave Attenuation" data-source-line="28" data-uid="ent0007" id="entity_Wave Attenuation"><rect fill="#98FB98" height="36.2969" rx="10" ry="10" style="stroke:#FFFFFF;stroke-width:0.5;" width="146.082" x="359.51" y="332.83"/><text fill="#000000" font-family="Sans-Serif" font-size="14" lengthAdjust="spacing" textLength="39.3203" x="369.51" y="355.8251">Wave</text><text fill="#000000" font-family="Sans-Serif" font-size="14" lengthAdjust="spacing" textLength="0" x="408.8303" y="355.8251">&#160;</text><text fill="#000000" font-family="Sans-Serif" font-size="14" lengthAdjust="spacing" textLength="82.3115" x="413.2805" y="355.8251">Attenuation</text></g><g class="entity" data-entity="GMN14" data-source-line="40" data-uid="ent0015" id="entity_GMN14"><path d="M234.59,16 L234.59,22.85 L184.31,26.85 L234.59,30.85 L234.59,36.2656 A10,10 0 0 0 244.59,46.2656 L366.5129,46.2656 A10,10 0 0 0 376.5129,36.2656 L376.5129,16 L366.5129,6 L244.59,6 A10,10 0 0 0 234.59,16" fill="#FFA500" style="stroke:#444444;stroke-width:0.5;"/><path d="M366.5129,6 L366.5129,11 A5,5 0 0 0 371.5129,16 L376.5129,16 L366.5129,6" fill="#FFA500" style="stroke:#444444;stroke-width:0.5;"/><text fill="#000000" font-family="Sans-Serif" font-size="13" lengthAdjust="spacing" textLength="59.0522" x="251.8857" y="23.0669">Intertidal</text><text fill="#000000" font-family="Sans-Serif" font-size="13" lengthAdjust="spacing" textLength="0" x="310.9379" y="23.0669">&#160;</text><text fill="#000000" font-family="Sans-Serif" font-size="13" lengthAdjust="spacing" textLength="35.147" x="315.0702" y="23.0669">zone,</text><text fill="#000000" font-family="Sans-Serif" font-size="13" lengthAdjust="spacing" textLength="79.4473" x="240.59" y="38.1997">salt-tolerant</text><text fill="#000000" font-family="Sans-Serif" font-size="13" lengthAdjust="spacing" textLength="0" x="320.0373" y="38.1997">&#160;</text><text fill="#000000" font-family="Sans-Serif" font-size="13" lengthAdjust="spacing" textLength="37.3433" x="324.1696" y="38.1997">trees.</text></g><g class="entity" data-entity="GMN17" data-source-line="45" data-uid="ent0018" id="entity_GMN17"><path d="M601.22,232.56 L601.22,252.8256 A10,10 0 0 0 611.22,262.8256 L749.888,262.8256 A10,10 0 0 0 759.888,252.8256 L759.888,232.56 L749.888,222.56 L611.22,222.56 A10,10 0 0 0 601.22,232.56" fill="#FFA500" style="stroke:#444444;stroke-width:0.5;"/><path d="M749.888,222.56 L749.888,227.56 A5,5 0 0 0 754.888,232.56 L759.888,232.56 L749.888,222.56" fill="#FFA500" style="stroke:#444444;stroke-width:1;"/><text fill="#000000" font-family="Sans-Serif" font-size="13" lengthAdjust="spacing" textLength="61.9976" x="607.22" y="239.6269">Stabilizes</text><text fill="#000000" font-family="Sans-Serif" font-size="13" lengthAdjust="spacing" textLength="0" x="669.2176" y="239.6269">&#160;</text><text fill="#000000" font-family="Sans-Serif" font-size="13" lengthAdjust="spacing" textLength="71.5381" x="673.3499" y="239.6269">sediments,</text><text fill="#000000" font-family="Sans-Serif" font-size="13" lengthAdjust="spacing" textLength="51.7524" x="622.1084" y="254.7597">reduces</text><text fill="#000000" font-family="Sans-Serif" font-size="13" lengthAdjust="spacing" textLength="0" x="673.8609" y="254.7597">&#160;</text><text fill="#000000" font-family="Sans-Serif" font-size="13" lengthAdjust="spacing" textLength="52.0063" x="677.9932" y="254.7597">erosion.</text></g><g class="entity" data-entity="GMN20" data-source-line="50" data-uid="ent0021" id="entity_GMN20"><path d="M439.67,232.56 L439.67,238.85 L390,242.85 L439.67,246.85 L439.67,252.8256 A10,10 0 0 0 449.67,262.8256 L541.4415,262.8256 A10,10 0 0 0 551.4415,252.8256 L551.4415,232.56 L541.4415,222.56 L449.67,222.56 A10,10 0 0 0 439.67,232.56" fill="#FFA500" style="stroke:#444444;stroke-width:0.5;"/><path d="M541.4415,222.56 L541.4415,227.56 A5,5 0 0 0 546.4415,232.56 L551.4415,232.56 L541.4415,222.56" fill="#FFA500" style="stroke:#444444;stroke-width:0.5;"/><text fill="#000000" font-family="Sans-Serif" font-size="13" lengthAdjust="spacing" textLength="52.5903" x="449.6532" y="239.6269">Anchors</text><text fill="#000000" font-family="Sans-Serif" font-size="13" lengthAdjust="spacing" textLength="0" x="502.2435" y="239.6269">&#160;</text><text fill="#000000" font-family="Sans-Serif" font-size="13" lengthAdjust="spacing" textLength="26.0825" x="506.3758" y="239.6269">soil,</text><text fill="#000000" font-family="Sans-Serif" font-size="13" lengthAdjust="spacing" textLength="57.3955" x="445.67" y="254.7597">prevents</text><text fill="#000000" font-family="Sans-Serif" font-size="13" lengthAdjust="spacing" textLength="0" x="503.0655" y="254.7597">&#160;</text><text fill="#000000" font-family="Sans-Serif" font-size="13" lengthAdjust="spacing" textLength="29.2437" x="507.1978" y="254.7597">loss.</text></g><g class="entity" data-entity="GMN23" data-source-line="55" data-uid="ent0024" id="entity_GMN23"><path d="M91.79,348.41 L91.79,353.5428 A10,10 0 0 0 101.79,363.5428 L299.3134,363.5428 A10,10 0 0 0 309.3134,353.5428 L309.3134,356.41 L359.33,351.85 L309.3134,348.41 L309.3134,348.41 L299.3134,338.41 L101.79,338.41 A10,10 0 0 0 91.79,348.41" fill="#FFA500" style="stroke:#444444;stroke-width:0.5;"/><path d="M299.3134,338.41 L299.3134,343.41 A5,5 0 0 0 304.3134,348.41 L309.3134,348.41 L299.3134,338.41" fill="#FFA500" style="stroke:#444444;stroke-width:0.5;"/><text fill="#000000" font-family="Sans-Serif" font-size="13" lengthAdjust="spacing" textLength="55.4404" x="97.79" y="355.4769">Reduces</text><text fill="#000000" font-family="Sans-Serif" font-size="13" lengthAdjust="spacing" textLength="0" x="153.2304" y="355.4769">&#160;</text><text fill="#000000" font-family="Sans-Serif" font-size="13" lengthAdjust="spacing" textLength="34.29" x="157.3628" y="355.4769">wave</text><text fill="#000000" font-family="Sans-Serif" font-size="13" lengthAdjust="spacing" textLength="0" x="191.6528" y="355.4769">&#160;</text><text fill="#000000" font-family="Sans-Serif" font-size="13" lengthAdjust="spacing" textLength="45.5254" x="195.7851" y="355.4769">energy</text><text fill="#000000" font-family="Sans-Serif" font-size="13" lengthAdjust="spacing" textLength="0" x="241.3105" y="355.4769">&#160;</text><text fill="#000000" font-family="Sans-Serif" font-size="13" lengthAdjust="spacing" textLength="48.8706" x="245.4428" y="355.4769">impact.</text></g><g class="entity" data-entity="GMN26" data-source-line="59" data-uid="ent0027" id="entity_GMN26"><path d="M555.96,348.41 L555.96,353.5428 A10,10 0 0 0 565.96,363.5428 L757.1358,363.5428 A10,10 0 0 0 767.1358,353.5428 L767.1358,348.41 L757.1358,338.41 L565.96,338.41 A10,10 0 0 0 555.96,348.41" fill="#FFA500" style="stroke:#444444;stroke-width:0.5;"/><path d="M757.1358,338.41 L757.1358,343.41 A5,5 0 0 0 762.1358,348.41 L767.1358,348.41 L757.1358,338.41" fill="#FFA500" style="stroke:#444444;stroke-width:1;"/><text fill="#000000" font-family="Sans-Serif" font-size="13" lengthAdjust="spacing" textLength="44.5288" x="561.96" y="355.4769">Barrier</text><text fill="#000000" font-family="Sans-Serif" font-size="13" lengthAdjust="spacing" textLength="0" x="606.4888" y="355.4769">&#160;</text><text fill="#000000" font-family="Sans-Serif" font-size="13" lengthAdjust="spacing" textLength="47.9058" x="610.6211" y="355.4769">against</text><text fill="#000000" font-family="Sans-Serif" font-size="13" lengthAdjust="spacing" textLength="0" x="658.5269" y="355.4769">&#160;</text><text fill="#000000" font-family="Sans-Serif" font-size="13" lengthAdjust="spacing" textLength="37.832" x="662.6592" y="355.4769">storm</text><text fill="#000000" font-family="Sans-Serif" font-size="13" lengthAdjust="spacing" textLength="0" x="700.4913" y="355.4769">&#160;</text><text fill="#000000" font-family="Sans-Serif" font-size="13" lengthAdjust="spacing" textLength="47.5122" x="704.6236" y="355.4769">surges.</text></g><g class="entity" data-entity="GMN29" data-source-line="63" data-uid="ent0030" id="entity_GMN29"><path d="M142.24,661.72 L142.24,666.8528 A10,10 0 0 0 152.24,676.8528 L294.8562,676.8528 A10,10 0 0 0 304.8562,666.8528 L304.8562,661.72 L294.8562,651.72 L227.55,651.72 L223.55,582.04 L219.55,651.72 L152.24,651.72 A10,10 0 0 0 142.24,661.72" fill="#FFA500" style="stroke:#444444;stroke-width:0.5;"/><path d="M294.8562,651.72 L294.8562,656.72 A5,5 0 0 0 299.8562,661.72 L304.8562,661.72 L294.8562,651.72" fill="#FFA500" style="stroke:#444444;stroke-width:0.5;"/><text fill="#000000" font-family="Sans-Serif" font-size="13" lengthAdjust="spacing" textLength="53.2505" x="148.24" y="668.7869">Protects</text><text fill="#000000" font-family="Sans-Serif" font-size="13" lengthAdjust="spacing" textLength="0" x="201.4905" y="668.7869">&#160;</text><text fill="#000000" font-family="Sans-Serif" font-size="13" lengthAdjust="spacing" textLength="39.9204" x="205.6228" y="668.7869">inland</text><text fill="#000000" font-family="Sans-Serif" font-size="13" lengthAdjust="spacing" textLength="0" x="245.5432" y="668.7869">&#160;</text><text fill="#000000" font-family="Sans-Serif" font-size="13" lengthAdjust="spacing" textLength="40.1807" x="249.6755" y="668.7869">areas.</text></g><!--reverse link Mangrove Ecosystems to Root System--><g class="link" data-entity-1="Mangrove Ecosystems" data-entity-2="Root System" data-source-line="31" data-uid="lnk8" id="link_Mangrove Ecosystems_Root System"><path codeLine="31" d="M137.95,56.57 C137.95,87.59 137.95,134.85 137.95,134.85 C137.95,134.85 201.41,134.85 250,134.85" fill="none" id="Mangrove Ecosystems-backto-Root System" style="stroke:#FFFFFF;stroke-width:1.5;"/><polygon fill="none" points="137.95,44.57,133.95,50.57,137.95,56.57,141.95,50.57,137.95,44.57" style="stroke:#FFFFFF;stroke-width:1.5;"/></g><!--link Mangrove Ecosystems to Coastal Protection--><g class="link" data-entity-1="Mangrove Ecosystems" data-entity-2="Coastal Protection" data-source-line="32" data-uid="lnk9" id="link_Mangrove Ecosystems_Coastal Protection"><path codeLine="32" d="M49.4,44.64 C49.4,139.19 49.4,563.85 49.4,563.85 C49.4,563.85 95.85,563.85 143.19,563.85" fill="none" id="Mangrove Ecosystems-to-Coastal Protection" style="stroke:#FFFFFF;stroke-width:1.5;"/><polygon fill="#FFFFFF" points="149.19,563.85,140.19,559.85,144.19,563.85,140.19,567.85,149.19,563.85" style="stroke:#FFFFFF;stroke-width:1.5;"/></g><!--link Root System to Sediment Stabilization--><g class="link" data-entity-1="Root System" data-entity-2="Sediment Stabilization" data-source-line="33" data-uid="lnk10" id="link_Root System_Sediment Stabilization"><path codeLine="33" d="M304.55,152.78 C304.55,172.69 304.55,198.29 304.55,218.24" fill="none" id="Root System-to-Sediment Stabilization" style="stroke:#FFFFFF;stroke-width:1.5;"/><polygon fill="#FFFFFF" points="304.55,224.24,308.55,215.24,304.55,219.24,300.55,215.24,304.55,224.24" style="stroke:#FFFFFF;stroke-width:1.5;"/></g><!--link Sediment Stabilization to Wave Attenuation--><g class="link" data-entity-1="Sediment Stabilization" data-entity-2="Wave Attenuation" data-source-line="34" data-uid="lnk11" id="link_Sediment Stabilization_Wave Attenuation"><path codeLine="34" d="M374.59,261.06 C374.59,280.97 374.59,306.57 374.59,326.52" fill="none" id="Sediment Stabilization-to-Wave Attenuation" style="stroke:#FFFFFF;stroke-width:1.5;"/><polygon fill="#FFFFFF" points="374.59,332.52,378.59,323.52,374.59,327.52,370.59,323.52,374.59,332.52" style="stroke:#FFFFFF;stroke-width:1.5;"/></g><!--link Wave Attenuation to Natural Buffer--><g class="link" data-entity-1="Wave Attenuation" data-entity-2="Natural Buffer" data-source-line="35" data-uid="lnk12" id="link_Wave Attenuation_Natural Buffer"><path codeLine="35" d="M432.55,369.49 C432.55,389 432.55,413.54 432.55,432.97" fill="none" id="Wave Attenuation-to-Natural Buffer" style="stroke:#FFFFFF;stroke-width:1.5;"/><polygon fill="#FFFFFF" points="432.55,438.97,436.55,429.97,432.55,433.97,428.55,429.97,432.55,438.97" style="stroke:#FFFFFF;stroke-width:1.5;"/></g><!--link Natural Buffer to Coastal Protection--><g class="link" data-entity-1="Natural Buffer" data-entity-2="Coastal Protection" data-source-line="36" data-uid="lnk13" id="link_Natural Buffer_Coastal Protection"><path codeLine="36" d="M432.55,475.84 C432.55,506.37 432.55,563.85 432.55,563.85 C432.55,563.85 363.9,563.85 303.83,563.85" fill="none" id="Natural Buffer-to-Coastal Protection" style="stroke:#FFFFFF;stroke-width:1.5;"/><polygon fill="#FFFFFF" points="297.83,563.85,306.83,567.85,302.83,563.85,306.83,559.85,297.83,563.85" style="stroke:#FFFFFF;stroke-width:1.5;"/></g><!--link Root System to GMN17--><g class="link" data-entity-1="Root System" data-entity-2="GMN17" data-source-line="45" data-uid="lnk19" id="link_Root System_GMN17"><path d="M359.23,134.85 C463.51,134.85 680.55,134.85 680.55,134.85 C680.55,134.85 680.55,190.87 680.55,222.16" fill="none" id="Root System-GMN17" style="stroke:#FFFFFF;stroke-width:1.5;stroke-dasharray:7.0,7.0;"/></g><!--link GMN26 to Natural Buffer--><g class="link" data-entity-1="GMN26" data-entity-2="Natural Buffer" data-source-line="59" data-uid="lnk28" id="link_GMN26_Natural Buffer"><path d="M661.55,363.65 C661.55,391.96 661.55,457.85 661.55,457.85 C661.55,457.85 560.27,457.85 492.42,457.85" fill="none" id="GMN26-Natural Buffer" style="stroke:#FFFFFF;stroke-width:1.5;stroke-dasharray:7.0,7.0;"/></g><!--SRC=[ZLJBRjj03BphAmZdq4iTf8-yBWNir0PwQ1340NAc9KfQUBKKk5ISvEkxMZkfBCbfTR0XSdOu75ABrlAsCi_65OdV65UZO0LhJ3U5SEEo6xOiSF8jFXs4DOxqfIPWqP8x2SSPUQhX_AmJ57IRDdZP3LRaFHOqiwPm5Jc5DFoGT10PvTXOVQ1d_G3bM6dEaf7inNwFJn_HRscvd9sVTVNCH7YxIsvBezHFFPGctRWW6hwSddUIMy7wqMHQmjS3lhtw9JkznOfWiaBdfoiIaqzwulw5sUiMHnAAT1A-n8otONYGe_KqNdtNqze61qRgZcU5KaLNsF-1TCtVEPTyWeMbEAwVb1jdrB3poVi9cFmE_y9F18kK_OjNglm4JgukRnQBUHTtm-WLBTn9a9ksD06sk5XSB6TTs2rg8m4sR_ASP9JfdbbX5Kk5_FNLSdvzrSslA3DHyKfnRQnvnNsr8VGHW_2PAhcc1mgDtvEDGL-QsYVZZV9qUYZe26uw_J5gGNBOJOGTqPySRIoU6hIIZ7GNaJsBau7dHyK6KrOgg5IO56v37Ex2AiNrIDej1355gS3v-5ea0B_QJrvD5eXVsT7d4F9eTQfiATmj2Yf4_ZGXbyMzJdQyQrRbAX8Vc0tlLf07lxV7jwn2MPE680dxe7t0-5VfCRi1PYujMG8n6zjora9FBJzOzaEDbl8TuN0I47Pf9sVRvYXy_SKBcAh6L0SyodMawOy9O8uY9bmSMA1nNi4hIxWv6Ya-jcnibF3svi4uY-4i2c67vWy0]--></g></svg>