<svg xmlns="http://www.w3.org/2000/svg" xmlns:xlink="http://www.w3.org/1999/xlink" contentStyleType="text/css" data-diagram-type="CLASS" height="490px" preserveAspectRatio="none" style="width:1168px;height:490px;background:#333333;" version="1.1" viewBox="0 0 1168 490" width="1168px" zoomAndPan="magnify"><defs/><g><rect fill="#333333" height="490" style="stroke:none;stroke-width:1;" width="1168" x="0" y="0"/><!--entity Ballistic Missile--><g class="entity" data-entity="Ballistic Missile" data-source-line="23" data-uid="ent0002" id="entity_Ballistic Missile"><rect fill="#87CEEB" height="36.2969" rx="10" ry="10" style="stroke:#FFFFFF;stroke-width:0.5;" width="125.6221" x="375.12" y="226.53"/><text fill="#000000" font-family="Sans-Serif" font-size="14" lengthAdjust="spacing" textLength="54.2227" x="385.12" y="249.5251">Ballistic</text><text fill="#000000" font-family="Sans-Serif" font-size="14" lengthAdjust="spacing" textLength="4.4502" x="439.3427" y="249.5251">&#160;</text><text fill="#000000" font-family="Sans-Serif" font-size="14" lengthAdjust="spacing" textLength="46.9492" x="443.7929" y="249.5251">Missile</text></g><!--entity Cruise Missile--><g class="entity" data-entity="Cruise Missile" data-source-line="24" data-uid="ent0003" id="entity_Cruise Missile"><rect fill="#87CEEB" height="36.2969" rx="10" ry="10" style="stroke:#FFFFFF;stroke-width:0.5;" width="115.6006" x="790.13" y="118.25"/><text fill="#000000" font-family="Sans-Serif" font-size="14" lengthAdjust="spacing" textLength="44.2012" x="800.13" y="141.2451">Cruise</text><text fill="#000000" font-family="Sans-Serif" font-size="14" lengthAdjust="spacing" textLength="4.4502" x="844.3312" y="141.2451">&#160;</text><text fill="#000000" font-family="Sans-Serif" font-size="14" lengthAdjust="spacing" textLength="46.9492" x="848.7814" y="141.2451">Missile</text></g><!--entity ICBM--><g class="entity" data-entity="ICBM" data-source-line="25" data-uid="ent0004" id="entity_ICBM"><rect fill="#87CEEB" height="36.2969" rx="10" ry="10" style="stroke:#FFFFFF;stroke-width:0.5;" width="55.5879" x="98.13" y="332.83"/><text fill="#000000" font-family="Sans-Serif" font-size="14" lengthAdjust="spacing" textLength="35.5879" x="108.13" y="355.8251">ICBM</text></g><!--entity MRBM--><g class="entity" data-entity="MRBM" data-source-line="26" data-uid="ent0005" id="entity_MRBM"><rect fill="#87CEEB" height="36.2969" rx="10" ry="10" style="stroke:#FFFFFF;stroke-width:0.5;" width="63.4902" x="406.18" y="332.83"/><text fill="#000000" font-family="Sans-Serif" font-size="14" lengthAdjust="spacing" textLength="43.4902" x="416.18" y="355.8251">MRBM</text></g><!--entity Rocket Propulsion--><g class="entity" data-entity="Rocket Propulsion" data-source-line="29" data-uid="ent0006" id="entity_Rocket Propulsion"><rect fill="#98FB98" height="36.2969" rx="10" ry="10" style="stroke:#FFFFFF;stroke-width:0.5;" width="145.6855" x="365.08" y="118.25"/><text fill="#000000" font-family="Sans-Serif" font-size="14" lengthAdjust="spacing" textLength="48.2002" x="375.08" y="141.2451">Rocket</text><text fill="#000000" font-family="Sans-Serif" font-size="14" lengthAdjust="spacing" textLength="4.4502" x="423.2802" y="141.2451">&#160;</text><text fill="#000000" font-family="Sans-Serif" font-size="14" lengthAdjust="spacing" textLength="73.0352" x="427.7304" y="141.2451">Propulsion</text></g><!--entity Jet Propulsion--><g class="entity" data-entity="Jet Propulsion" data-source-line="30" data-uid="ent0007" id="entity_Jet Propulsion"><rect fill="#98FB98" height="36.2969" rx="10" ry="10" style="stroke:#FFFFFF;stroke-width:0.5;" width="115.7168" x="968.07" y="7.98"/><text fill="#000000" font-family="Sans-Serif" font-size="14" lengthAdjust="spacing" textLength="18.2314" x="978.07" y="30.9751">Jet</text><text fill="#000000" font-family="Sans-Serif" font-size="14" lengthAdjust="spacing" textLength="4.4502" x="996.3014" y="30.9751">&#160;</text><text fill="#000000" font-family="Sans-Serif" font-size="14" lengthAdjust="spacing" textLength="73.0352" x="1000.7516" y="30.9751">Propulsion</text></g><!--entity Agni-V--><g class="entity" data-entity="Agni-V" data-source-line="33" data-uid="ent0008" id="entity_Agni-V"><rect fill="#F5DEB3" height="36.2969" rx="10" ry="10" style="stroke:#FFFFFF;stroke-width:0.5;" width="65.8555" x="7" y="226.53"/><text fill="#000000" font-family="Sans-Serif" font-size="14" lengthAdjust="spacing" textLength="45.8555" x="17" y="249.5251">Agni-V</text></g><!--entity BrahMos--><g class="entity" data-entity="BrahMos" data-source-line="34" data-uid="ent0009" id="entity_BrahMos"><rect fill="#F5DEB3" height="36.2969" rx="10" ry="10" style="stroke:#FFFFFF;stroke-width:0.5;" width="80.751" x="807.55" y="7.98"/><text fill="#000000" font-family="Sans-Serif" font-size="14" lengthAdjust="spacing" textLength="60.751" x="817.55" y="30.9751">BrahMos</text></g><g class="entity" data-entity="GMN16" data-source-line="52" data-uid="ent0017" id="entity_GMN16"><path d="M550.56,242.11 L550.56,241.39 L500.98,245.39 L550.56,249.39 L550.56,247.2428 A10,10 0 0 0 560.56,257.2428 L753.2973,257.2428 A10,10 0 0 0 763.2973,247.2428 L763.2973,242.11 L753.2973,232.11 L560.56,232.11 A10,10 0 0 0 550.56,242.11" fill="#FFA500" style="stroke:#444444;stroke-width:0.5;"/><path d="M753.2973,232.11 L753.2973,237.11 A5,5 0 0 0 758.2973,242.11 L763.2973,242.11 L753.2973,232.11" fill="#FFA500" style="stroke:#444444;stroke-width:0.5;"/><text fill="#000000" font-family="Sans-Serif" font-size="13" lengthAdjust="spacing" textLength="48.0137" x="556.56" y="249.1769">Follows</text><text fill="#000000" font-family="Sans-Serif" font-size="13" lengthAdjust="spacing" textLength="4.1323" x="604.5737" y="249.1769">&#160;</text><text fill="#000000" font-family="Sans-Serif" font-size="13" lengthAdjust="spacing" textLength="7.9663" x="608.706" y="249.1769">a</text><text fill="#000000" font-family="Sans-Serif" font-size="13" lengthAdjust="spacing" textLength="4.1323" x="616.6723" y="249.1769">&#160;</text><text fill="#000000" font-family="Sans-Serif" font-size="13" lengthAdjust="spacing" textLength="60.106" x="620.8046" y="249.1769">parabolic</text><text fill="#000000" font-family="Sans-Serif" font-size="13" lengthAdjust="spacing" textLength="4.1323" x="680.9106" y="249.1769">&#160;</text><text fill="#000000" font-family="Sans-Serif" font-size="13" lengthAdjust="spacing" textLength="63.2544" x="685.0429" y="249.1769">trajectory</text></g><g class="entity" data-entity="GMN19" data-source-line="56" data-uid="ent0020" id="entity_GMN19"><path d="M587.57,126.27 L587.57,146.5356 A10,10 0 0 0 597.57,156.5356 L730.2902,156.5356 A10,10 0 0 0 740.2902,146.5356 L740.2902,141.39 L789.86,137.39 L740.2902,133.39 L740.2902,126.27 L730.2902,116.27 L597.57,116.27 A10,10 0 0 0 587.57,126.27" fill="#FFA500" style="stroke:#444444;stroke-width:0.5;"/><path d="M730.2902,116.27 L730.2902,121.27 A5,5 0 0 0 735.2902,126.27 L740.2902,126.27 L730.2902,116.27" fill="#FFA500" style="stroke:#444444;stroke-width:0.5;"/><text fill="#000000" font-family="Sans-Serif" font-size="13" lengthAdjust="spacing" textLength="54.9517" x="593.57" y="133.3369">Sustains</text><text fill="#000000" font-family="Sans-Serif" font-size="13" lengthAdjust="spacing" textLength="4.1323" x="648.5217" y="133.3369">&#160;</text><text fill="#000000" font-family="Sans-Serif" font-size="13" lengthAdjust="spacing" textLength="33.3887" x="652.654" y="133.3369">flight</text><text fill="#000000" font-family="Sans-Serif" font-size="13" lengthAdjust="spacing" textLength="4.1323" x="686.0427" y="133.3369">&#160;</text><text fill="#000000" font-family="Sans-Serif" font-size="13" lengthAdjust="spacing" textLength="35.1152" x="690.175" y="133.3369">using</text><text fill="#000000" font-family="Sans-Serif" font-size="13" lengthAdjust="spacing" textLength="84.8364" x="606.497" y="148.4697">aerodynamic</text><text fill="#000000" font-family="Sans-Serif" font-size="13" lengthAdjust="spacing" textLength="4.1323" x="691.3334" y="148.4697">&#160;</text><text fill="#000000" font-family="Sans-Serif" font-size="13" lengthAdjust="spacing" textLength="16.8975" x="695.4658" y="148.4697">lift</text></g><g class="entity" data-entity="GMN22" data-source-line="60" data-uid="ent0023" id="entity_GMN22"><path d="M349.28,16 L349.28,36.2656 A10,10 0 0 0 359.28,46.2656 L433.93,46.2656 L437.93,117.86 L441.93,46.2656 L516.5847,46.2656 A10,10 0 0 0 526.5847,36.2656 L526.5847,16 L516.5847,6 L359.28,6 A10,10 0 0 0 349.28,16" fill="#FFA500" style="stroke:#444444;stroke-width:0.5;"/><path d="M516.5847,6 L516.5847,11 A5,5 0 0 0 521.5847,16 L526.5847,16 L516.5847,6" fill="#FFA500" style="stroke:#444444;stroke-width:0.5;"/><text fill="#000000" font-family="Sans-Serif" font-size="13" lengthAdjust="spacing" textLength="46.541" x="355.28" y="23.0669">Powers</text><text fill="#000000" font-family="Sans-Serif" font-size="13" lengthAdjust="spacing" textLength="4.1323" x="401.821" y="23.0669">&#160;</text><text fill="#000000" font-family="Sans-Serif" font-size="13" lengthAdjust="spacing" textLength="49.6831" x="405.9533" y="23.0669">ballistic</text><text fill="#000000" font-family="Sans-Serif" font-size="13" lengthAdjust="spacing" textLength="4.1323" x="455.6364" y="23.0669">&#160;</text><text fill="#000000" font-family="Sans-Serif" font-size="13" lengthAdjust="spacing" textLength="51.8159" x="459.7688" y="23.0669">missiles</text><text fill="#000000" font-family="Sans-Serif" font-size="13" lengthAdjust="spacing" textLength="72.6553" x="378.3442" y="38.1997">throughout</text><text fill="#000000" font-family="Sans-Serif" font-size="13" lengthAdjust="spacing" textLength="4.1323" x="450.9995" y="38.1997">&#160;</text><text fill="#000000" font-family="Sans-Serif" font-size="13" lengthAdjust="spacing" textLength="33.3887" x="455.1318" y="38.1997">flight</text></g><g class="entity" data-entity="GMN25" data-source-line="64" data-uid="ent0026" id="entity_GMN25"><path d="M956,126.27 L956,146.5356 A10,10 0 0 0 966,156.5356 L1147.8511,156.5356 A10,10 0 0 0 1157.8511,146.5356 L1157.8511,126.27 L1147.8511,116.27 L1029.93,116.27 L1025.93,44.34 L1021.93,116.27 L966,116.27 A10,10 0 0 0 956,126.27" fill="#FFA500" style="stroke:#444444;stroke-width:0.5;"/><path d="M1147.8511,116.27 L1147.8511,121.27 A5,5 0 0 0 1152.8511,126.27 L1157.8511,126.27 L1147.8511,116.27" fill="#FFA500" style="stroke:#444444;stroke-width:0.5;"/><text fill="#000000" font-family="Sans-Serif" font-size="13" lengthAdjust="spacing" textLength="46.541" x="962" y="133.3369">Powers</text><text fill="#000000" font-family="Sans-Serif" font-size="13" lengthAdjust="spacing" textLength="4.1323" x="1008.541" y="133.3369">&#160;</text><text fill="#000000" font-family="Sans-Serif" font-size="13" lengthAdjust="spacing" textLength="39.1143" x="1012.6733" y="133.3369">cruise</text><text fill="#000000" font-family="Sans-Serif" font-size="13" lengthAdjust="spacing" textLength="4.1323" x="1051.7876" y="133.3369">&#160;</text><text fill="#000000" font-family="Sans-Serif" font-size="13" lengthAdjust="spacing" textLength="51.8159" x="1055.9199" y="133.3369">missiles</text><text fill="#000000" font-family="Sans-Serif" font-size="13" lengthAdjust="spacing" textLength="4.1323" x="1107.7358" y="133.3369">&#160;</text><text fill="#000000" font-family="Sans-Serif" font-size="13" lengthAdjust="spacing" textLength="30.9829" x="1111.8682" y="133.3369">after</text><text fill="#000000" font-family="Sans-Serif" font-size="13" lengthAdjust="spacing" textLength="43.4434" x="1030.7039" y="148.4697">launch</text></g><g class="entity" data-entity="GMN28" data-source-line="68" data-uid="ent0029" id="entity_GMN28"><path d="M36.33,449.12 L36.33,469.3856 A10,10 0 0 0 46.33,479.3856 L205.5263,479.3856 A10,10 0 0 0 215.5263,469.3856 L215.5263,449.12 L205.5263,439.12 L129.93,439.12 L125.93,369.34 L121.93,439.12 L46.33,439.12 A10,10 0 0 0 36.33,449.12" fill="#FFA500" style="stroke:#444444;stroke-width:0.5;"/><path d="M205.5263,439.12 L205.5263,444.12 A5,5 0 0 0 210.5263,449.12 L215.5263,449.12 L205.5263,439.12" fill="#FFA500" style="stroke:#444444;stroke-width:0.5;"/><text fill="#000000" font-family="Sans-Serif" font-size="13" lengthAdjust="spacing" textLength="103.7144" x="42.33" y="456.1869">Intercontinental</text><text fill="#000000" font-family="Sans-Serif" font-size="13" lengthAdjust="spacing" textLength="4.1323" x="146.0444" y="456.1869">&#160;</text><text fill="#000000" font-family="Sans-Serif" font-size="13" lengthAdjust="spacing" textLength="50.3496" x="150.1767" y="456.1869">Ballistic</text><text fill="#000000" font-family="Sans-Serif" font-size="13" lengthAdjust="spacing" textLength="43.5957" x="52.6354" y="471.3197">Missile</text><text fill="#000000" font-family="Sans-Serif" font-size="13" lengthAdjust="spacing" textLength="4.1323" x="96.2311" y="471.3197">&#160;</text><text fill="#000000" font-family="Sans-Serif" font-size="13" lengthAdjust="spacing" textLength="47.9248" x="100.3634" y="471.3197">longest</text><text fill="#000000" font-family="Sans-Serif" font-size="13" lengthAdjust="spacing" textLength="4.1323" x="148.2883" y="471.3197">&#160;</text><text fill="#000000" font-family="Sans-Serif" font-size="13" lengthAdjust="spacing" textLength="37.8003" x="152.4206" y="471.3197">range</text></g><g class="entity" data-entity="GMN31" data-source-line="72" data-uid="ent0032" id="entity_GMN31"><path d="M351.11,449.12 L351.11,469.3856 A10,10 0 0 0 361.11,479.3856 L514.7521,479.3856 A10,10 0 0 0 524.7521,469.3856 L524.7521,449.12 L514.7521,439.12 L441.93,439.12 L437.93,369.34 L433.93,439.12 L361.11,439.12 A10,10 0 0 0 351.11,449.12" fill="#FFA500" style="stroke:#444444;stroke-width:0.5;"/><path d="M514.7521,439.12 L514.7521,444.12 A5,5 0 0 0 519.7521,449.12 L524.7521,449.12 L514.7521,439.12" fill="#FFA500" style="stroke:#444444;stroke-width:0.5;"/><text fill="#000000" font-family="Sans-Serif" font-size="13" lengthAdjust="spacing" textLength="98.1602" x="357.11" y="456.1869">Medium-Range</text><text fill="#000000" font-family="Sans-Serif" font-size="13" lengthAdjust="spacing" textLength="4.1323" x="455.2702" y="456.1869">&#160;</text><text fill="#000000" font-family="Sans-Serif" font-size="13" lengthAdjust="spacing" textLength="50.3496" x="459.4025" y="456.1869">Ballistic</text><text fill="#000000" font-family="Sans-Serif" font-size="13" lengthAdjust="spacing" textLength="43.5957" x="365.7777" y="471.3197">Missile</text><text fill="#000000" font-family="Sans-Serif" font-size="13" lengthAdjust="spacing" textLength="4.1323" x="409.3734" y="471.3197">&#160;</text><text fill="#000000" font-family="Sans-Serif" font-size="13" lengthAdjust="spacing" textLength="46.7505" x="413.5058" y="471.3197">shorter</text><text fill="#000000" font-family="Sans-Serif" font-size="13" lengthAdjust="spacing" textLength="4.1323" x="460.2562" y="471.3197">&#160;</text><text fill="#000000" font-family="Sans-Serif" font-size="13" lengthAdjust="spacing" textLength="36.6958" x="464.3886" y="471.3197">reach</text></g><g class="entity" data-entity="GMN34" data-source-line="76" data-uid="ent0035" id="entity_GMN34"><path d="M122.57,242.11 L122.57,237.39 L73.25,241.39 L122.57,245.39 L122.57,247.2428 A10,10 0 0 0 132.57,257.2428 L315.278,257.2428 A10,10 0 0 0 325.278,247.2428 L325.278,242.11 L315.278,232.11 L132.57,232.11 A10,10 0 0 0 122.57,242.11" fill="#FFA500" style="stroke:#444444;stroke-width:0.5;"/><path d="M315.278,232.11 L315.278,237.11 A5,5 0 0 0 320.278,242.11 L325.278,242.11 L315.278,232.11" fill="#FFA500" style="stroke:#444444;stroke-width:0.5;"/><text fill="#000000" font-family="Sans-Serif" font-size="13" lengthAdjust="spacing" textLength="56.3989" x="128.57" y="249.1769">Example</text><text fill="#000000" font-family="Sans-Serif" font-size="13" lengthAdjust="spacing" textLength="4.1323" x="184.9689" y="249.1769">&#160;</text><text fill="#000000" font-family="Sans-Serif" font-size="13" lengthAdjust="spacing" textLength="12.5303" x="189.1013" y="249.1769">of</text><text fill="#000000" font-family="Sans-Serif" font-size="13" lengthAdjust="spacing" textLength="4.1323" x="201.6315" y="249.1769">&#160;</text><text fill="#000000" font-family="Sans-Serif" font-size="13" lengthAdjust="spacing" textLength="16.2056" x="205.7638" y="249.1769">an</text><text fill="#000000" font-family="Sans-Serif" font-size="13" lengthAdjust="spacing" textLength="4.1323" x="221.9694" y="249.1769">&#160;</text><text fill="#000000" font-family="Sans-Serif" font-size="13" lengthAdjust="spacing" textLength="33.0459" x="226.1017" y="249.1769">ICBM</text><text fill="#000000" font-family="Sans-Serif" font-size="13" lengthAdjust="spacing" textLength="4.1323" x="259.1476" y="249.1769">&#160;</text><text fill="#000000" font-family="Sans-Serif" font-size="13" lengthAdjust="spacing" textLength="46.998" x="263.28" y="249.1769">system</text></g><g class="entity" data-entity="GMN37" data-source-line="80" data-uid="ent0038" id="entity_GMN37"><path d="M576.62,16 L576.62,36.2656 A10,10 0 0 0 586.62,46.2656 L747.2445,46.2656 A10,10 0 0 0 757.2445,36.2656 L757.2445,30.39 L807.45,26.39 L757.2445,22.39 L757.2445,16 L747.2445,6 L586.62,6 A10,10 0 0 0 576.62,16" fill="#FFA500" style="stroke:#444444;stroke-width:0.5;"/><path d="M747.2445,6 L747.2445,11 A5,5 0 0 0 752.2445,16 L757.2445,16 L747.2445,6" fill="#FFA500" style="stroke:#444444;stroke-width:0.5;"/><text fill="#000000" font-family="Sans-Serif" font-size="13" lengthAdjust="spacing" textLength="56.3989" x="582.62" y="23.0669">Example</text><text fill="#000000" font-family="Sans-Serif" font-size="13" lengthAdjust="spacing" textLength="4.1323" x="639.0189" y="23.0669">&#160;</text><text fill="#000000" font-family="Sans-Serif" font-size="13" lengthAdjust="spacing" textLength="12.5303" x="643.1513" y="23.0669">of</text><text fill="#000000" font-family="Sans-Serif" font-size="13" lengthAdjust="spacing" textLength="4.1323" x="655.6815" y="23.0669">&#160;</text><text fill="#000000" font-family="Sans-Serif" font-size="13" lengthAdjust="spacing" textLength="7.9663" x="659.8138" y="23.0669">a</text><text fill="#000000" font-family="Sans-Serif" font-size="13" lengthAdjust="spacing" textLength="4.1323" x="667.7802" y="23.0669">&#160;</text><text fill="#000000" font-family="Sans-Serif" font-size="13" lengthAdjust="spacing" textLength="70.332" x="671.9125" y="23.0669">supersonic</text><text fill="#000000" font-family="Sans-Serif" font-size="13" lengthAdjust="spacing" textLength="39.1143" x="618.2875" y="38.1997">cruise</text><text fill="#000000" font-family="Sans-Serif" font-size="13" lengthAdjust="spacing" textLength="4.1323" x="657.4017" y="38.1997">&#160;</text><text fill="#000000" font-family="Sans-Serif" font-size="13" lengthAdjust="spacing" textLength="45.043" x="661.5341" y="38.1997">missile</text></g><!--link Rocket Propulsion to Ballistic Missile--><g class="link" data-entity-1="Rocket Propulsion" data-entity-2="Ballistic Missile" data-source-line="39" data-uid="lnk10" id="link_Rocket Propulsion_Ballistic Missile"><path codeLine="39" d="M437.93,154.77 C437.93,174.68 437.93,200.27 437.93,220.22" fill="none" id="Rocket Propulsion-to-Ballistic Missile" style="stroke:#FFFFFF;stroke-width:1.5;"/><polygon fill="#FFFFFF" points="437.93,226.22,441.93,217.22,437.93,221.22,433.93,217.22,437.93,226.22" style="stroke:#FFFFFF;stroke-width:1.5;"/></g><!--link Jet Propulsion to Cruise Missile--><g class="link" data-entity-1="Jet Propulsion" data-entity-2="Cruise Missile" data-source-line="40" data-uid="lnk11" id="link_Jet Propulsion_Cruise Missile"><path codeLine="40" d="M967.88,26.39 C933.67,26.39 897.02,26.39 897.02,26.39 C897.02,26.39 897.02,80.99 897.02,112.23" fill="none" id="Jet Propulsion-to-Cruise Missile" style="stroke:#FFFFFF;stroke-width:1.5;"/><polygon fill="#FFFFFF" points="897.02,118.23,901.02,109.23,897.02,113.23,893.02,109.23,897.02,118.23" style="stroke:#FFFFFF;stroke-width:1.5;"/></g><!--reverse link Ballistic Missile to ICBM--><g class="link" data-entity-1="Ballistic Missile" data-entity-2="ICBM" data-source-line="43" data-uid="lnk12" id="link_Ballistic Missile_ICBM"><path codeLine="43" d="M390.65,275.27 C390.65,305.84 390.65,351.39 390.65,351.39 C390.65,351.39 221.72,351.39 153.76,351.39" fill="none" id="Ballistic Missile-backto-ICBM" style="stroke:#FFFFFF;stroke-width:1.5;"/><polygon fill="none" points="390.65,263.27,386.65,269.27,390.65,275.27,394.65,269.27,390.65,263.27" style="stroke:#FFFFFF;stroke-width:1.5;"/></g><!--reverse link Ballistic Missile to MRBM--><g class="link" data-entity-1="Ballistic Missile" data-entity-2="MRBM" data-source-line="44" data-uid="lnk13" id="link_Ballistic Missile_MRBM"><path codeLine="44" d="M437.93,275.19 C437.93,294.7 437.93,313.24 437.93,332.67" fill="none" id="Ballistic Missile-backto-MRBM" style="stroke:#FFFFFF;stroke-width:1.5;"/><polygon fill="none" points="437.93,263.19,433.93,269.19,437.93,275.19,441.93,269.19,437.93,263.19" style="stroke:#FFFFFF;stroke-width:1.5;"/></g><!--reverse link Agni-V to ICBM--><g class="link" data-entity-1="Agni-V" data-entity-2="ICBM" data-source-line="47" data-uid="lnk14" id="link_Agni-V_ICBM"><path codeLine="47" d="M85.08,249.39 C103.34,249.39 110.35,249.39 110.35,249.39 C110.35,249.39 110.35,303.02 110.35,332.34" fill="none" id="Agni-V-backto-ICBM" style="stroke:#FFFFFF;stroke-width:1.5;"/><polygon fill="#FFFFFF" points="73.08,249.39,79.08,253.39,85.08,249.39,79.08,245.39,73.08,249.39" style="stroke:#FFFFFF;stroke-width:1.5;"/></g><!--reverse link BrahMos to Cruise Missile--><g class="link" data-entity-1="BrahMos" data-entity-2="Cruise Missile" data-source-line="48" data-uid="lnk15" id="link_BrahMos_Cruise Missile"><path codeLine="48" d="M847.93,56.34 C847.93,76.65 847.93,97.33 847.93,117.79" fill="none" id="BrahMos-backto-Cruise Missile" style="stroke:#FFFFFF;stroke-width:1.5;"/><polygon fill="#FFFFFF" points="847.93,44.34,843.93,50.34,847.93,56.34,851.93,50.34,847.93,44.34" style="stroke:#FFFFFF;stroke-width:1.5;"/></g><!--SRC=[ZLN1Rjf04BtxAqR9eL8bshGfIj939Q0W9H9j155xNkonlMMzO-skI-ZNTzOsi1X3om71plYzD_Dcra8fsXJoLUeiickfIs540IiHhpD3bKucfCZ0zMtz2JAKrEYs9G8PbrCGq9IWnHA6Dy6X4Nhj3-_2mmAj5HcEbCnqWTf1p5zeWem4Kr4fzuAlxaAM9eTZCWcQLkod-jFDw9Oqcus6Dw6UaJ6qQOARN3hiXbvo6QyrYuOFxuP1S6D4-LCcBeUFHtYj-XbfzqqK25TBeUrWYKQcLnrn_yffTHkDXac2WCr5GXis3rAXBFQpDpMj57UWXxS_QZ1sGcVgVrB2vZUTYzx0Q6MT4R632UaOIsS_mrnQAnN22y-D1Q4Jc0Y76Hc9DjgZmTLOA2Mja_7kYIkulh-RJAVZC6jYAcdnOihZP3pl3SmNOO3LFXkAsLbabVoph9ILf66EFDl9aRO5nMjqGHB3FDpFnW_tOTRJcHHc-cuoeUKVuJZ0RCiIOvaUIeNbrZeiZZX7cPQ37umo6twTZc-FMcL4FYTxY3730bM3dilIjiNjAYgQYa3gL5N8na3Hylfbjb5VVOF1bpvFefCgwyIEBPv_7b90BdwZln0oXFXWVv_fD1Yq7fuFrqvwadqZsu9um0m2legYz7yeRUZVXvoxnhuDYNOThGzxgbdoM3C4C_aDWfAt0kkBAVKx8fJWhaProCWiTvwvhti0C_9tB-i4lqyhKXncx5_iBfbjXBmV7YPgm1Ic3LPN4i2oiav8RI5LDMDb_OKWq52orQ9WM2LJrmLqLDPufuupv3Djq5XVJgjxtrMNysMKvLIvbgwBkoBdgAYXdyxXnaqD1wjIlj91YKh7-GMynYA0H_y6YFbYufUGTaB1INz14G-OTSsWNO1ivWTurHDP5OD5FPUdS3RdznnBD2XE5HvyRWUAyQRDuFbJeS4B1rjlzbbVTuFNUHXiLNBBIBEQuxRjaVu2]--></g></svg>