<svg xmlns="http://www.w3.org/2000/svg" xmlns:xlink="http://www.w3.org/1999/xlink" contentStyleType="text/css" data-diagram-type="CLASS" height="522px" preserveAspectRatio="none" style="width:1591px;height:522px;background:#333333;" version="1.1" viewBox="0 0 1591 522" width="1591px" zoomAndPan="magnify"><defs/><g><rect fill="#333333" height="522" style="stroke:none;stroke-width:1;" width="1591" x="0" y="0"/><!--entity Global Compact for Migration--><g class="entity" data-entity="Global Compact for Migration" data-source-line="23" data-uid="ent0002" id="entity_Global Compact for Migration"><rect fill="#87CEEB" height="52.5938" rx="10" ry="10" style="stroke:#FFFFFF;stroke-width:0.5;" width="155.4404" x="690.68" y="116.26"/><text fill="#000000" font-family="Sans-Serif" font-size="14" lengthAdjust="spacing" textLength="44.6592" x="700.68" y="139.2551">Global</text><text fill="#000000" font-family="Sans-Serif" font-size="14" lengthAdjust="spacing" textLength="4.4502" x="745.3392" y="139.2551">&#160;</text><text fill="#000000" font-family="Sans-Serif" font-size="14" lengthAdjust="spacing" textLength="62.6309" x="749.7894" y="139.2551">Compact</text><text fill="#000000" font-family="Sans-Serif" font-size="14" lengthAdjust="spacing" textLength="4.4502" x="812.4202" y="139.2551">&#160;</text><text fill="#000000" font-family="Sans-Serif" font-size="14" lengthAdjust="spacing" textLength="19.25" x="816.8704" y="139.2551">for</text><text fill="#000000" font-family="Sans-Serif" font-size="14" lengthAdjust="spacing" textLength="66.0078" x="735.3963" y="155.552">Migration</text></g><!--entity Sovereignty--><g class="entity" data-entity="Sovereignty" data-source-line="24" data-uid="ent0003" id="entity_Sovereignty"><rect fill="#87CEEB" height="36.2969" rx="10" ry="10" style="stroke:#FFFFFF;stroke-width:0.5;" width="104.1436" x="1027.33" y="7.98"/><text fill="#000000" font-family="Sans-Serif" font-size="14" lengthAdjust="spacing" textLength="84.1436" x="1037.33" y="30.9751">Sovereignty</text></g><!--entity Binding Agreements--><g class="entity" data-entity="Binding Agreements" data-source-line="25" data-uid="ent0004" id="entity_Binding Agreements"><rect fill="#87CEEB" height="36.2969" rx="10" ry="10" style="stroke:#FFFFFF;stroke-width:0.5;" width="162.707" x="1423.05" y="7.98"/><text fill="#000000" font-family="Sans-Serif" font-size="14" lengthAdjust="spacing" textLength="52.9033" x="1433.05" y="30.9751">Binding</text><text fill="#000000" font-family="Sans-Serif" font-size="14" lengthAdjust="spacing" textLength="4.4502" x="1485.9533" y="30.9751">&#160;</text><text fill="#000000" font-family="Sans-Serif" font-size="14" lengthAdjust="spacing" textLength="85.3535" x="1490.4035" y="30.9751">Agreements</text></g><!--entity UN Member States--><g class="entity" data-entity="UN Member States" data-source-line="28" data-uid="ent0005" id="entity_UN Member States"><rect fill="#F5DEB3" height="36.2969" rx="10" ry="10" style="stroke:#FFFFFF;stroke-width:0.5;" width="151.5576" x="1224.63" y="363.43"/><text fill="#000000" font-family="Sans-Serif" font-size="14" lengthAdjust="spacing" textLength="20.7197" x="1234.63" y="386.4251">UN</text><text fill="#000000" font-family="Sans-Serif" font-size="14" lengthAdjust="spacing" textLength="4.4502" x="1255.3497" y="386.4251">&#160;</text><text fill="#000000" font-family="Sans-Serif" font-size="14" lengthAdjust="spacing" textLength="57.5859" x="1259.7999" y="386.4251">Member</text><text fill="#000000" font-family="Sans-Serif" font-size="14" lengthAdjust="spacing" textLength="4.4502" x="1317.3859" y="386.4251">&#160;</text><text fill="#000000" font-family="Sans-Serif" font-size="14" lengthAdjust="spacing" textLength="44.3516" x="1321.8361" y="386.4251">States</text></g><!--entity Internally Displaced Persons--><g class="entity" data-entity="Internally Displaced Persons" data-source-line="29" data-uid="ent0006" id="entity_Internally Displaced Persons"><rect fill="#F5DEB3" height="36.2969" rx="10" ry="10" style="stroke:#FFFFFF;stroke-width:0.5;" width="218.6318" x="844.09" y="247"/><text fill="#000000" font-family="Sans-Serif" font-size="14" lengthAdjust="spacing" textLength="66.377" x="854.09" y="269.9951">Internally</text><text fill="#000000" font-family="Sans-Serif" font-size="14" lengthAdjust="spacing" textLength="4.4502" x="920.467" y="269.9951">&#160;</text><text fill="#000000" font-family="Sans-Serif" font-size="14" lengthAdjust="spacing" textLength="68.5166" x="924.9171" y="269.9951">Displaced</text><text fill="#000000" font-family="Sans-Serif" font-size="14" lengthAdjust="spacing" textLength="4.4502" x="993.4338" y="269.9951">&#160;</text><text fill="#000000" font-family="Sans-Serif" font-size="14" lengthAdjust="spacing" textLength="54.8379" x="997.8839" y="269.9951">Persons</text></g><!--entity International Migration--><g class="entity" data-entity="International Migration" data-source-line="32" data-uid="ent0007" id="entity_International Migration"><rect fill="#98FB98" height="36.2969" rx="10" ry="10" style="stroke:#FFFFFF;stroke-width:0.5;" width="180.0566" x="254.38" y="363.43"/><text fill="#000000" font-family="Sans-Serif" font-size="14" lengthAdjust="spacing" textLength="89.5986" x="264.38" y="386.4251">International</text><text fill="#000000" font-family="Sans-Serif" font-size="14" lengthAdjust="spacing" textLength="4.4502" x="353.9786" y="386.4251">&#160;</text><text fill="#000000" font-family="Sans-Serif" font-size="14" lengthAdjust="spacing" textLength="66.0078" x="358.4288" y="386.4251">Migration</text></g><!--entity Migration Governance--><g class="entity" data-entity="Migration Governance" data-source-line="33" data-uid="ent0008" id="entity_Migration Governance"><rect fill="#98FB98" height="36.2969" rx="10" ry="10" style="stroke:#FFFFFF;stroke-width:0.5;" width="175.1621" x="256.82" y="247"/><text fill="#000000" font-family="Sans-Serif" font-size="14" lengthAdjust="spacing" textLength="66.0078" x="266.82" y="269.9951">Migration</text><text fill="#000000" font-family="Sans-Serif" font-size="14" lengthAdjust="spacing" textLength="4.4502" x="332.8278" y="269.9951">&#160;</text><text fill="#000000" font-family="Sans-Serif" font-size="14" lengthAdjust="spacing" textLength="84.7041" x="337.278" y="269.9951">Governance</text></g><!--entity Objectives and Commitments--><g class="entity" data-entity="Objectives and Commitments" data-source-line="36" data-uid="ent0009" id="entity_Objectives and Commitments"><rect fill="#E6E6FA" height="52.5938" rx="10" ry="10" style="stroke:#FFFFFF;stroke-width:0.5;" width="124.4668" x="1149.17" y="238.85"/><text fill="#000000" font-family="Sans-Serif" font-size="14" lengthAdjust="spacing" textLength="73.6777" x="1159.17" y="261.8451">Objectives</text><text fill="#000000" font-family="Sans-Serif" font-size="14" lengthAdjust="spacing" textLength="4.4502" x="1232.8477" y="261.8451">&#160;</text><text fill="#000000" font-family="Sans-Serif" font-size="14" lengthAdjust="spacing" textLength="26.3389" x="1237.2979" y="261.8451">and</text><text fill="#000000" font-family="Sans-Serif" font-size="14" lengthAdjust="spacing" textLength="98.9023" x="1161.9522" y="278.142">Commitments</text></g><g class="entity" data-entity="GMN18" data-source-line="50" data-uid="ent0019" id="entity_GMN18"><path d="M896.25,132.43 L896.25,131.98 L846.53,135.98 L896.25,139.98 L896.25,152.6956 A10,10 0 0 0 906.25,162.6956 L1048.5679,162.6956 A10,10 0 0 0 1058.5679,152.6956 L1058.5679,132.43 L1048.5679,122.43 L906.25,122.43 A10,10 0 0 0 896.25,132.43" fill="#FFA500" style="stroke:#444444;stroke-width:0.5;"/><path d="M1048.5679,122.43 L1048.5679,127.43 A5,5 0 0 0 1053.5679,132.43 L1058.5679,132.43 L1048.5679,122.43" fill="#FFA500" style="stroke:#444444;stroke-width:0.5;"/><text fill="#000000" font-family="Sans-Serif" font-size="13" lengthAdjust="spacing" textLength="34.7471" x="902.25" y="139.4969">GCM:</text><text fill="#000000" font-family="Sans-Serif" font-size="13" lengthAdjust="spacing" textLength="4.1323" x="936.9971" y="139.4969">&#160;</text><text fill="#000000" font-family="Sans-Serif" font-size="13" lengthAdjust="spacing" textLength="79.0664" x="941.1294" y="139.4969">Non-binding</text><text fill="#000000" font-family="Sans-Serif" font-size="13" lengthAdjust="spacing" textLength="4.1323" x="1020.1958" y="139.4969">&#160;</text><text fill="#000000" font-family="Sans-Serif" font-size="13" lengthAdjust="spacing" textLength="19.2397" x="1024.3281" y="139.4969">UN</text><text fill="#000000" font-family="Sans-Serif" font-size="13" lengthAdjust="spacing" textLength="71.5571" x="937.1304" y="154.6297">agreement</text></g><g class="entity" data-entity="GMN21" data-source-line="54" data-uid="ent0022" id="entity_GMN21"><path d="M793.69,16 L793.69,36.2656 A10,10 0 0 0 803.69,46.2656 L967.1265,46.2656 A10,10 0 0 0 977.1265,36.2656 L977.1265,30.98 L1026.84,26.98 L977.1265,22.98 L977.1265,16 L967.1265,6 L803.69,6 A10,10 0 0 0 793.69,16" fill="#FFA500" style="stroke:#444444;stroke-width:0.5;"/><path d="M967.1265,6 L967.1265,11 A5,5 0 0 0 972.1265,16 L977.1265,16 L967.1265,6" fill="#FFA500" style="stroke:#444444;stroke-width:0.5;"/><text fill="#000000" font-family="Sans-Serif" font-size="13" lengthAdjust="spacing" textLength="82.3989" x="799.69" y="23.0669">Independent</text><text fill="#000000" font-family="Sans-Serif" font-size="13" lengthAdjust="spacing" textLength="4.1323" x="882.0889" y="23.0669">&#160;</text><text fill="#000000" font-family="Sans-Serif" font-size="13" lengthAdjust="spacing" textLength="59.2427" x="886.2213" y="23.0669">authority</text><text fill="#000000" font-family="Sans-Serif" font-size="13" lengthAdjust="spacing" textLength="4.1323" x="945.4639" y="23.0669">&#160;</text><text fill="#000000" font-family="Sans-Serif" font-size="13" lengthAdjust="spacing" textLength="12.5303" x="949.5963" y="23.0669">of</text><text fill="#000000" font-family="Sans-Serif" font-size="13" lengthAdjust="spacing" textLength="39.7046" x="861.056" y="38.1997">states</text></g><g class="entity" data-entity="GMN24" data-source-line="58" data-uid="ent0025" id="entity_GMN24"><path d="M1203.2,481.71 L1203.2,501.9756 A10,10 0 0 0 1213.2,511.9756 L1387.6053,511.9756 A10,10 0 0 0 1397.6053,501.9756 L1397.6053,481.71 L1387.6053,471.71 L1304.41,471.71 L1300.41,399.79 L1296.41,471.71 L1213.2,471.71 A10,10 0 0 0 1203.2,481.71" fill="#FFA500" style="stroke:#444444;stroke-width:0.5;"/><path d="M1387.6053,471.71 L1387.6053,476.71 A5,5 0 0 0 1392.6053,481.71 L1397.6053,481.71 L1387.6053,471.71" fill="#FFA500" style="stroke:#444444;stroke-width:0.5;"/><text fill="#000000" font-family="Sans-Serif" font-size="13" lengthAdjust="spacing" textLength="82.0371" x="1209.2" y="488.7769">Participating</text><text fill="#000000" font-family="Sans-Serif" font-size="13" lengthAdjust="spacing" textLength="4.1323" x="1291.2371" y="488.7769">&#160;</text><text fill="#000000" font-family="Sans-Serif" font-size="13" lengthAdjust="spacing" textLength="47.8804" x="1295.3694" y="488.7769">nations</text><text fill="#000000" font-family="Sans-Serif" font-size="13" lengthAdjust="spacing" textLength="4.1323" x="1343.2498" y="488.7769">&#160;</text><text fill="#000000" font-family="Sans-Serif" font-size="13" lengthAdjust="spacing" textLength="11.8511" x="1347.3821" y="488.7769">in</text><text fill="#000000" font-family="Sans-Serif" font-size="13" lengthAdjust="spacing" textLength="4.1323" x="1359.2332" y="488.7769">&#160;</text><text fill="#000000" font-family="Sans-Serif" font-size="13" lengthAdjust="spacing" textLength="19.2397" x="1363.3655" y="488.7769">UN</text><text fill="#000000" font-family="Sans-Serif" font-size="13" lengthAdjust="spacing" textLength="46.998" x="1272.4036" y="503.9097">system</text></g><g class="entity" data-entity="GMN27" data-source-line="62" data-uid="ent0028" id="entity_GMN27"><path d="M6,255.02 L6,275.2856 A10,10 0 0 0 16,285.2856 L196.8101,285.2856 A10,10 0 0 0 206.8101,275.2856 L206.8101,255.02 L196.8101,245.02 L16,245.02 A10,10 0 0 0 6,255.02" fill="#FFA500" style="stroke:#444444;stroke-width:0.5;"/><path d="M196.8101,245.02 L196.8101,250.02 A5,5 0 0 0 201.8101,255.02 L206.8101,255.02 L196.8101,245.02" fill="#FFA500" style="stroke:#444444;stroke-width:1;"/><text fill="#000000" font-family="Sans-Serif" font-size="13" lengthAdjust="spacing" textLength="68.8594" x="12" y="262.0869">Movement</text><text fill="#000000" font-family="Sans-Serif" font-size="13" lengthAdjust="spacing" textLength="4.1323" x="80.8594" y="262.0869">&#160;</text><text fill="#000000" font-family="Sans-Serif" font-size="13" lengthAdjust="spacing" textLength="12.5303" x="84.9917" y="262.0869">of</text><text fill="#000000" font-family="Sans-Serif" font-size="13" lengthAdjust="spacing" textLength="4.1323" x="97.522" y="262.0869">&#160;</text><text fill="#000000" font-family="Sans-Serif" font-size="13" lengthAdjust="spacing" textLength="44.0654" x="101.6543" y="262.0869">people</text><text fill="#000000" font-family="Sans-Serif" font-size="13" lengthAdjust="spacing" textLength="4.1323" x="145.7197" y="262.0869">&#160;</text><text fill="#000000" font-family="Sans-Serif" font-size="13" lengthAdjust="spacing" textLength="41.958" x="149.8521" y="262.0869">across</text><text fill="#000000" font-family="Sans-Serif" font-size="13" lengthAdjust="spacing" textLength="49.918" x="76.946" y="277.2197">borders</text></g><g class="entity" data-entity="GMN30" data-source-line="66" data-uid="ent0031" id="entity_GMN30"><path d="M481.99,255.02 L481.99,261.98 L432.48,265.98 L481.99,269.98 L481.99,275.2856 A10,10 0 0 0 491.99,285.2856 L682.8103,285.2856 A10,10 0 0 0 692.8103,275.2856 L692.8103,255.02 L682.8103,245.02 L491.99,245.02 A10,10 0 0 0 481.99,255.02" fill="#FFA500" style="stroke:#444444;stroke-width:0.5;"/><path d="M682.8103,245.02 L682.8103,250.02 A5,5 0 0 0 687.8103,255.02 L692.8103,255.02 L682.8103,245.02" fill="#FFA500" style="stroke:#444444;stroke-width:0.5;"/><text fill="#000000" font-family="Sans-Serif" font-size="13" lengthAdjust="spacing" textLength="48.5469" x="487.99" y="262.0869">Policies</text><text fill="#000000" font-family="Sans-Serif" font-size="13" lengthAdjust="spacing" textLength="4.1323" x="536.5369" y="262.0869">&#160;</text><text fill="#000000" font-family="Sans-Serif" font-size="13" lengthAdjust="spacing" textLength="13.0508" x="540.6692" y="262.0869">to</text><text fill="#000000" font-family="Sans-Serif" font-size="13" lengthAdjust="spacing" textLength="4.1323" x="553.72" y="262.0869">&#160;</text><text fill="#000000" font-family="Sans-Serif" font-size="13" lengthAdjust="spacing" textLength="53.0854" x="557.8523" y="262.0869">manage</text><text fill="#000000" font-family="Sans-Serif" font-size="13" lengthAdjust="spacing" textLength="4.1323" x="610.9378" y="262.0869">&#160;</text><text fill="#000000" font-family="Sans-Serif" font-size="13" lengthAdjust="spacing" textLength="62.7402" x="615.0701" y="262.0869">migration</text><text fill="#000000" font-family="Sans-Serif" font-size="13" lengthAdjust="spacing" textLength="33.5474" x="566.1265" y="277.2197">flows</text></g><g class="entity" data-entity="GMN33" data-source-line="70" data-uid="ent0034" id="entity_GMN33"><path d="M847.81,371.45 L847.81,391.7156 A10,10 0 0 0 857.81,401.7156 L1048.9921,401.7156 A10,10 0 0 0 1058.9921,391.7156 L1058.9921,371.45 L1048.9921,361.45 L957.41,361.45 L953.41,283.6 L949.41,361.45 L857.81,361.45 A10,10 0 0 0 847.81,371.45" fill="#FFA500" style="stroke:#444444;stroke-width:0.5;"/><path d="M1048.9921,361.45 L1048.9921,366.45 A5,5 0 0 0 1053.9921,371.45 L1058.9921,371.45 L1048.9921,361.45" fill="#FFA500" style="stroke:#444444;stroke-width:0.5;"/><text fill="#000000" font-family="Sans-Serif" font-size="13" lengthAdjust="spacing" textLength="32.8364" x="853.81" y="378.5169">IDPs:</text><text fill="#000000" font-family="Sans-Serif" font-size="13" lengthAdjust="spacing" textLength="4.1323" x="886.6464" y="378.5169">&#160;</text><text fill="#000000" font-family="Sans-Serif" font-size="13" lengthAdjust="spacing" textLength="43.6528" x="890.7788" y="378.5169">People</text><text fill="#000000" font-family="Sans-Serif" font-size="13" lengthAdjust="spacing" textLength="4.1323" x="934.4316" y="378.5169">&#160;</text><text fill="#000000" font-family="Sans-Serif" font-size="13" lengthAdjust="spacing" textLength="61.8643" x="938.5639" y="378.5169">displaced</text><text fill="#000000" font-family="Sans-Serif" font-size="13" lengthAdjust="spacing" textLength="4.1323" x="1000.4282" y="378.5169">&#160;</text><text fill="#000000" font-family="Sans-Serif" font-size="13" lengthAdjust="spacing" textLength="39.4316" x="1004.5605" y="378.5169">within</text><text fill="#000000" font-family="Sans-Serif" font-size="13" lengthAdjust="spacing" textLength="49.7148" x="924.0436" y="393.6497">country</text></g><g class="entity" data-entity="GMN36" data-source-line="74" data-uid="ent0037" id="entity_GMN36"><path d="M1108.46,139.99 L1108.46,145.1228 A10,10 0 0 0 1118.46,155.1228 L1228.15,155.1228 L1232.15,238.63 L1236.15,155.1228 L1304.3418,155.1228 A10,10 0 0 0 1314.3418,145.1228 L1314.3418,139.99 L1304.3418,129.99 L1118.46,129.99 A10,10 0 0 0 1108.46,139.99" fill="#FFA500" style="stroke:#444444;stroke-width:0.5;"/><path d="M1304.3418,129.99 L1304.3418,134.99 A5,5 0 0 0 1309.3418,139.99 L1314.3418,139.99 L1304.3418,129.99" fill="#FFA500" style="stroke:#444444;stroke-width:0.5;"/><text fill="#000000" font-family="Sans-Serif" font-size="13" lengthAdjust="spacing" textLength="42.6626" x="1114.46" y="147.0569">Stated</text><text fill="#000000" font-family="Sans-Serif" font-size="13" lengthAdjust="spacing" textLength="4.1323" x="1157.1226" y="147.0569">&#160;</text><text fill="#000000" font-family="Sans-Serif" font-size="13" lengthAdjust="spacing" textLength="34.5566" x="1161.2549" y="147.0569">goals</text><text fill="#000000" font-family="Sans-Serif" font-size="13" lengthAdjust="spacing" textLength="4.1323" x="1195.8116" y="147.0569">&#160;</text><text fill="#000000" font-family="Sans-Serif" font-size="13" lengthAdjust="spacing" textLength="39.4316" x="1199.9439" y="147.0569">within</text><text fill="#000000" font-family="Sans-Serif" font-size="13" lengthAdjust="spacing" textLength="4.1323" x="1239.3755" y="147.0569">&#160;</text><text fill="#000000" font-family="Sans-Serif" font-size="13" lengthAdjust="spacing" textLength="21.3345" x="1243.5079" y="147.0569">the</text><text fill="#000000" font-family="Sans-Serif" font-size="13" lengthAdjust="spacing" textLength="4.1323" x="1264.8423" y="147.0569">&#160;</text><text fill="#000000" font-family="Sans-Serif" font-size="13" lengthAdjust="spacing" textLength="30.3672" x="1268.9746" y="147.0569">GCM</text></g><g class="entity" data-entity="GMN39" data-source-line="78" data-uid="ent0040" id="entity_GMN39"><path d="M1181.77,23.56 L1181.77,28.6928 A10,10 0 0 0 1191.77,38.6928 L1363.0332,38.6928 A10,10 0 0 0 1373.0332,28.6928 L1373.0332,31.56 L1422.8,26.98 L1373.0332,23.56 L1373.0332,23.56 L1363.0332,13.56 L1191.77,13.56 A10,10 0 0 0 1181.77,23.56" fill="#FFA500" style="stroke:#444444;stroke-width:0.5;"/><path d="M1363.0332,13.56 L1363.0332,18.56 A5,5 0 0 0 1368.0332,23.56 L1373.0332,23.56 L1363.0332,13.56" fill="#FFA500" style="stroke:#444444;stroke-width:0.5;"/><text fill="#000000" font-family="Sans-Serif" font-size="13" lengthAdjust="spacing" textLength="46.376" x="1187.77" y="30.6269">Legally</text><text fill="#000000" font-family="Sans-Serif" font-size="13" lengthAdjust="spacing" textLength="4.1323" x="1234.146" y="30.6269">&#160;</text><text fill="#000000" font-family="Sans-Serif" font-size="13" lengthAdjust="spacing" textLength="65.7363" x="1238.2783" y="30.6269">obligatory</text><text fill="#000000" font-family="Sans-Serif" font-size="13" lengthAdjust="spacing" textLength="4.1323" x="1304.0146" y="30.6269">&#160;</text><text fill="#000000" font-family="Sans-Serif" font-size="13" lengthAdjust="spacing" textLength="49.8862" x="1308.147" y="30.6269">treaties</text></g><!--link Global Compact for Migration to International Migration--><g class="link" data-entity-1="Global Compact for Migration" data-entity-2="International Migration" data-source-line="39" data-uid="lnk10" id="link_Global Compact for Migration_International Migration"><path codeLine="39" d="M743.24,169.1 C743.24,231.43 743.24,381.98 743.24,381.98 C743.24,381.98 558.58,381.98 440.91,381.98" fill="none" id="Global Compact for Migration-to-International Migration" style="stroke:#FFFFFF;stroke-width:1.5;stroke-dasharray:7.0,7.0;"/><polygon fill="#FFFFFF" points="434.91,381.98,443.91,385.98,439.91,381.98,443.91,377.98,434.91,381.98" style="stroke:#FFFFFF;stroke-width:1.5;"/></g><!--link Global Compact for Migration to Migration Governance--><g class="link" data-entity-1="Global Compact for Migration" data-entity-2="Migration Governance" data-source-line="40" data-uid="lnk11" id="link_Global Compact for Migration_Migration Governance"><path codeLine="40" d="M690.64,142.98 C568.23,142.98 344.41,142.98 344.41,142.98 C344.41,142.98 344.41,206.42 344.41,240.6" fill="none" id="Global Compact for Migration-to-Migration Governance" style="stroke:#FFFFFF;stroke-width:1.5;"/><polygon fill="#FFFFFF" points="344.41,246.6,348.41,237.6,344.41,241.6,340.41,237.6,344.41,246.6" style="stroke:#FFFFFF;stroke-width:1.5;"/></g><!--reverse link Global Compact for Migration to Objectives and Commitments--><g class="link" data-entity-1="Global Compact for Migration" data-entity-2="Objectives and Commitments" data-source-line="41" data-uid="lnk12" id="link_Global Compact for Migration_Objectives and Commitments"><path codeLine="41" d="M793.66,181.32 C793.66,197.87 793.66,203.98 793.66,203.98 C793.66,203.98 1190.66,203.98 1190.66,203.98 C1190.66,203.98 1190.66,222.01 1190.66,238.5" fill="none" id="Global Compact for Migration-backto-Objectives and Commitments" style="stroke:#FFFFFF;stroke-width:1.5;"/><polygon fill="#FFFFFF" points="793.66,169.32,789.66,175.32,793.66,181.32,797.66,175.32,793.66,169.32" style="stroke:#FFFFFF;stroke-width:1.5;"/></g><!--link Objectives and Commitments to UN Member States--><g class="link" data-entity-1="Objectives and Commitments" data-entity-2="UN Member States" data-source-line="42" data-uid="lnk13" id="link_Objectives and Commitments_UN Member States"><path codeLine="42" d="M1249.13,291.86 C1249.13,313.62 1249.13,337.77 1249.13,356.97" fill="none" id="Objectives and Commitments-to-UN Member States" style="stroke:#FFFFFF;stroke-width:1.5;stroke-dasharray:7.0,7.0;"/><polygon fill="#FFFFFF" points="1249.13,362.97,1253.13,353.97,1249.13,357.97,1245.13,353.97,1249.13,362.97" style="stroke:#FFFFFF;stroke-width:1.5;"/></g><!--link Sovereignty to UN Member States--><g class="link" data-entity-1="Sovereignty" data-entity-2="UN Member States" data-source-line="43" data-uid="lnk14" id="link_Sovereignty_UN Member States"><path codeLine="43" d="M1085.59,44.76 C1085.59,117.98 1085.59,381.98 1085.59,381.98 C1085.59,381.98 1156.57,381.98 1218.37,381.98" fill="none" id="Sovereignty-to-UN Member States" style="stroke:#FFFFFF;stroke-width:1.5;"/><polygon fill="#FFFFFF" points="1224.37,381.98,1215.37,377.98,1219.37,381.98,1215.37,385.98,1224.37,381.98" style="stroke:#FFFFFF;stroke-width:1.5;"/></g><!--link Sovereignty to Global Compact for Migration--><g class="link" data-entity-1="Sovereignty" data-entity-2="Global Compact for Migration" data-source-line="44" data-uid="lnk15" id="link_Sovereignty_Global Compact for Migration"><path codeLine="44" d="M1042.95,44.73 C1042.95,60.97 1042.95,81.98 1042.95,81.98 C1042.95,81.98 819.91,81.98 819.91,81.98 C819.91,81.98 819.91,93.58 819.91,109.81" fill="none" id="Sovereignty-to-Global Compact for Migration" style="stroke:#FFFFFF;stroke-width:1.5;stroke-dasharray:7.0,7.0;"/><polygon fill="#FFFFFF" points="819.91,115.81,823.91,106.81,819.91,110.81,815.91,106.81,819.91,115.81" style="stroke:#FFFFFF;stroke-width:1.5;"/></g><!--link Global Compact for Migration to Internally Displaced Persons--><g class="link" data-entity-1="Global Compact for Migration" data-entity-2="Internally Displaced Persons" data-source-line="45" data-uid="lnk16" id="link_Global Compact for Migration_Internally Displaced Persons"><path codeLine="45" d="M846.57,149.98 C860.77,149.98 871.19,149.98 871.19,149.98 C871.19,149.98 871.19,208.09 871.19,240.65" fill="none" id="Global Compact for Migration-to-Internally Displaced Persons" style="stroke:#FFFFFF;stroke-width:1.5;stroke-dasharray:7.0,7.0;"/><polygon fill="#FFFFFF" points="871.19,246.65,875.19,237.65,871.19,241.65,867.19,237.65,871.19,246.65" style="stroke:#FFFFFF;stroke-width:1.5;"/></g><!--link Migration Governance to International Migration--><g class="link" data-entity-1="Migration Governance" data-entity-2="International Migration" data-source-line="46" data-uid="lnk17" id="link_Migration Governance_International Migration"><path codeLine="46" d="M344.41,283.6 C344.41,305.4 344.41,335.46 344.41,357.22" fill="none" id="Migration Governance-to-International Migration" style="stroke:#FFFFFF;stroke-width:1.5;"/><polygon fill="#FFFFFF" points="344.41,363.22,348.41,354.22,344.41,358.22,340.41,354.22,344.41,363.22" style="stroke:#FFFFFF;stroke-width:1.5;"/></g><!--link GMN27 to International Migration--><g class="link" data-entity-1="GMN27" data-entity-2="International Migration" data-source-line="62" data-uid="lnk29" id="link_GMN27_International Migration"><path d="M106.41,285.77 C106.41,319.31 106.41,381.98 106.41,381.98 C106.41,381.98 186.76,381.98 254.09,381.98" fill="none" id="GMN27-International Migration" style="stroke:#FFFFFF;stroke-width:1.5;stroke-dasharray:7.0,7.0;"/></g><!--SRC=[bLLDRzim3BtxLn3fOS20TDswVW8ja6yKMBfWwR2pRDEs5bao9BPPzkj7AMdYf4xI-U23-FZq-4X9GYapB-KVgVF8pQIkX1Kbn2APvTOywxHdbB5mSXw-6a99ZRIe48obmjG2sgJei8ABizgY5Nhc5w_gYoKw9tBiA9dh4ZL1mZ-qDKIAcNXMz8H_w01A6yAkiIdQbTYluTj5x9Oq77OkpkfwEjQQ-J8uBoJXRkYfaCbCisZuV7fH2ywjg7x9b0huiiMtKZyqcXv5YT2Q2ktQKxGoQ-s8EuPPwROQBMzI2xX2f6REpODCA8VDkozhYXKxqB1lSzHYGaBdwZsGklbBvw8Fq8aTMP4Gz8nEi28NhV7G6YaJ2yMXilAGZ1F7ChU2fD4jEBc-wWq6tNh2rBoWHHu1MZJ6krAdteLERX7zcBWDZCLyjxdGyc_WT_09HcnejQNevoECiOpPtoa9Gfy-lEWFkkTrq8EVF2sKMa1Vkehzm1GcQ1spRX9uluar2GyAkePihu5hhzTxSptitbpNiUieZ7pbMh276w2lAFxDQFcolSLc5OHElR-bf5Sx1fU3os779_z0jRIYaEp2aMwSdjxlrtuikTs-trFCiSoFxVR1UgA3nGRHRteQRS_HtTqxG87feDJ_CR1vTA8z_GxkxRMU6_d8PzY5_VYK4L-JmOa-PbBBqE38dtAmCYy8J7Qi481HRtpBhBeThmuKsoDUprI4JEu9eoMjmcp9MZUCIHvqYXLZ_Mqjdlbvi98M7kY2mxiqiI4oPI1wsmo0YR0a4rcnHjQZLsTOQY_DBHnXkKj8fWfiUvq36BFYy9emha9JyU4HYJLyjyVXCdiZScDXypIpJgDO9hU339H2yyi6vHgQyIjxgF33uy6MzYVkbXU2qdIDc4igs8c4dmUoYtq-73f5i7GwXTpm0_9AI0NwKTZRy8Rhbfc-OHugC34_reACNG1PP0DgFVy7]--></g></svg>