<svg xmlns="http://www.w3.org/2000/svg" xmlns:xlink="http://www.w3.org/1999/xlink" contentStyleType="text/css" data-diagram-type="CLASS" height="391px" preserveAspectRatio="none" style="width:1162px;height:391px;background:#333333;" version="1.1" viewBox="0 0 1162 391" width="1162px" zoomAndPan="magnify"><defs/><g><rect fill="#333333" height="391" style="stroke:none;stroke-width:1;" width="1162" x="0" y="0"/><!--entity National Security--><g class="entity" data-entity="National Security" data-source-line="23" data-uid="ent0002" id="entity_National Security"><rect fill="#87CEEB" height="36.2969" rx="10" ry="10" style="stroke:#FFFFFF;stroke-width:0.5;" width="140.2783" x="174.73" y="349.12"/><text fill="#000000" font-family="Sans-Serif" font-size="14" lengthAdjust="spacing" textLength="58.3379" x="184.73" y="372.1151">National</text><text fill="#000000" font-family="Sans-Serif" font-size="14" lengthAdjust="spacing" textLength="4.4502" x="243.0679" y="372.1151">&#160;</text><text fill="#000000" font-family="Sans-Serif" font-size="14" lengthAdjust="spacing" textLength="57.4902" x="247.5181" y="372.1151">Security</text></g><!--entity Directive Principles--><g class="entity" data-entity="Directive Principles" data-source-line="24" data-uid="ent0003" id="entity_Directive Principles"><rect fill="#87CEEB" height="36.2969" rx="10" ry="10" style="stroke:#FFFFFF;stroke-width:0.5;" width="154.6953" x="881.52" y="7.98"/><text fill="#000000" font-family="Sans-Serif" font-size="14" lengthAdjust="spacing" textLength="63.0137" x="891.52" y="30.9751">Directive</text><text fill="#000000" font-family="Sans-Serif" font-size="14" lengthAdjust="spacing" textLength="4.4502" x="954.5337" y="30.9751">&#160;</text><text fill="#000000" font-family="Sans-Serif" font-size="14" lengthAdjust="spacing" textLength="67.2314" x="958.9839" y="30.9751">Principles</text></g><!--entity Promotion of Peace--><g class="entity" data-entity="Promotion of Peace" data-source-line="25" data-uid="ent0004" id="entity_Promotion of Peace"><rect fill="#87CEEB" height="36.2969" rx="10" ry="10" style="stroke:#FFFFFF;stroke-width:0.5;" width="156.124" x="777.81" y="124.41"/><text fill="#000000" font-family="Sans-Serif" font-size="14" lengthAdjust="spacing" textLength="71.7842" x="787.81" y="147.4051">Promotion</text><text fill="#000000" font-family="Sans-Serif" font-size="14" lengthAdjust="spacing" textLength="4.4502" x="859.5942" y="147.4051">&#160;</text><text fill="#000000" font-family="Sans-Serif" font-size="14" lengthAdjust="spacing" textLength="13.4941" x="864.0444" y="147.4051">of</text><text fill="#000000" font-family="Sans-Serif" font-size="14" lengthAdjust="spacing" textLength="4.4502" x="877.5385" y="147.4051">&#160;</text><text fill="#000000" font-family="Sans-Serif" font-size="14" lengthAdjust="spacing" textLength="41.9453" x="881.9887" y="147.4051">Peace</text></g><!--entity Fundamental Duties--><g class="entity" data-entity="Fundamental Duties" data-source-line="26" data-uid="ent0005" id="entity_Fundamental Duties"><rect fill="#87CEEB" height="36.2969" rx="10" ry="10" style="stroke:#FFFFFF;stroke-width:0.5;" width="161.7363" x="7" y="124.41"/><text fill="#000000" font-family="Sans-Serif" font-size="14" lengthAdjust="spacing" textLength="92.3467" x="17" y="147.4051">Fundamental</text><text fill="#000000" font-family="Sans-Serif" font-size="14" lengthAdjust="spacing" textLength="4.4502" x="109.3467" y="147.4051">&#160;</text><text fill="#000000" font-family="Sans-Serif" font-size="14" lengthAdjust="spacing" textLength="44.9395" x="113.7969" y="147.4051">Duties</text></g><!--entity International Agreements--><g class="entity" data-entity="International Agreements" data-source-line="27" data-uid="ent0006" id="entity_International Agreements"><rect fill="#87CEEB" height="36.2969" rx="10" ry="10" style="stroke:#FFFFFF;stroke-width:0.5;" width="199.4023" x="145.17" y="7.98"/><text fill="#000000" font-family="Sans-Serif" font-size="14" lengthAdjust="spacing" textLength="89.5986" x="155.17" y="30.9751">International</text><text fill="#000000" font-family="Sans-Serif" font-size="14" lengthAdjust="spacing" textLength="4.4502" x="244.7686" y="30.9751">&#160;</text><text fill="#000000" font-family="Sans-Serif" font-size="14" lengthAdjust="spacing" textLength="85.3535" x="249.2188" y="30.9751">Agreements</text></g><!--entity Conflict Resolution--><g class="entity" data-entity="Conflict Resolution" data-source-line="30" data-uid="ent0007" id="entity_Conflict Resolution"><rect fill="#98FB98" height="36.2969" rx="10" ry="10" style="stroke:#FFFFFF;stroke-width:0.5;" width="151.3389" x="321.2" y="124.41"/><text fill="#000000" font-family="Sans-Serif" font-size="14" lengthAdjust="spacing" textLength="53.1084" x="331.2" y="147.4051">Conflict</text><text fill="#000000" font-family="Sans-Serif" font-size="14" lengthAdjust="spacing" textLength="4.4502" x="384.3084" y="147.4051">&#160;</text><text fill="#000000" font-family="Sans-Serif" font-size="14" lengthAdjust="spacing" textLength="73.7803" x="388.7586" y="147.4051">Resolution</text></g><!--entity International Peace--><g class="entity" data-entity="International Peace" data-source-line="33" data-uid="ent0008" id="entity_International Peace"><rect fill="#E6E6FA" height="36.2969" rx="10" ry="10" style="stroke:#FFFFFF;stroke-width:0.5;" width="155.9941" x="166.87" y="240.84"/><text fill="#000000" font-family="Sans-Serif" font-size="14" lengthAdjust="spacing" textLength="89.5986" x="176.87" y="263.8351">International</text><text fill="#000000" font-family="Sans-Serif" font-size="14" lengthAdjust="spacing" textLength="4.4502" x="266.4686" y="263.8351">&#160;</text><text fill="#000000" font-family="Sans-Serif" font-size="14" lengthAdjust="spacing" textLength="41.9453" x="270.9188" y="263.8351">Peace</text></g><!--entity Just and Honorable Relations--><g class="entity" data-entity="Just and Honorable Relations" data-source-line="34" data-uid="ent0009" id="entity_Just and Honorable Relations"><rect fill="#E6E6FA" height="52.5938" rx="10" ry="10" style="stroke:#FFFFFF;stroke-width:0.5;" width="153.2803" x="984.23" y="116.26"/><text fill="#000000" font-family="Sans-Serif" font-size="14" lengthAdjust="spacing" textLength="25.7852" x="994.23" y="139.2551">Just</text><text fill="#000000" font-family="Sans-Serif" font-size="14" lengthAdjust="spacing" textLength="4.4502" x="1020.0152" y="139.2551">&#160;</text><text fill="#000000" font-family="Sans-Serif" font-size="14" lengthAdjust="spacing" textLength="26.3389" x="1024.4654" y="139.2551">and</text><text fill="#000000" font-family="Sans-Serif" font-size="14" lengthAdjust="spacing" textLength="4.4502" x="1050.8042" y="139.2551">&#160;</text><text fill="#000000" font-family="Sans-Serif" font-size="14" lengthAdjust="spacing" textLength="72.2559" x="1055.2544" y="139.2551">Honorable</text><text fill="#000000" font-family="Sans-Serif" font-size="14" lengthAdjust="spacing" textLength="64.9209" x="1028.4097" y="155.552">Relations</text></g><g class="entity" data-entity="GMN17" data-source-line="47" data-uid="ent0018" id="entity_GMN17"><path d="M372.99,248.86 L372.99,261.42 L323.33,265.42 L372.99,269.42 L372.99,269.1256 A10,10 0 0 0 382.99,279.1256 L562.7463,279.1256 A10,10 0 0 0 572.7463,269.1256 L572.7463,248.86 L562.7463,238.86 L382.99,238.86 A10,10 0 0 0 372.99,248.86" fill="#FFA500" style="stroke:#444444;stroke-width:0.5;"/><path d="M562.7463,238.86 L562.7463,243.86 A5,5 0 0 0 567.7463,248.86 L572.7463,248.86 L562.7463,238.86" fill="#FFA500" style="stroke:#444444;stroke-width:0.5;"/><text fill="#000000" font-family="Sans-Serif" font-size="13" lengthAdjust="spacing" textLength="80.0693" x="378.99" y="255.9269">Overarching</text><text fill="#000000" font-family="Sans-Serif" font-size="13" lengthAdjust="spacing" textLength="4.1323" x="459.0593" y="255.9269">&#160;</text><text fill="#000000" font-family="Sans-Serif" font-size="13" lengthAdjust="spacing" textLength="27.7837" x="463.1917" y="255.9269">goal</text><text fill="#000000" font-family="Sans-Serif" font-size="13" lengthAdjust="spacing" textLength="4.1323" x="490.9754" y="255.9269">&#160;</text><text fill="#000000" font-family="Sans-Serif" font-size="13" lengthAdjust="spacing" textLength="12.5303" x="495.1077" y="255.9269">of</text><text fill="#000000" font-family="Sans-Serif" font-size="13" lengthAdjust="spacing" textLength="4.1323" x="507.6379" y="255.9269">&#160;</text><text fill="#000000" font-family="Sans-Serif" font-size="13" lengthAdjust="spacing" textLength="45.9761" x="511.7703" y="255.9269">foreign</text><text fill="#000000" font-family="Sans-Serif" font-size="13" lengthAdjust="spacing" textLength="38.27" x="449.2332" y="271.0597">policy</text></g><g class="entity" data-entity="GMN20" data-source-line="51" data-uid="ent0021" id="entity_GMN20"><path d="M627.72,16 L627.72,36.2656 A10,10 0 0 0 637.72,46.2656 L822.0149,46.2656 A10,10 0 0 0 832.0149,36.2656 L832.0149,30.42 L881.24,26.42 L832.0149,22.42 L832.0149,16 L822.0149,6 L637.72,6 A10,10 0 0 0 627.72,16" fill="#FFA500" style="stroke:#444444;stroke-width:0.5;"/><path d="M822.0149,6 L822.0149,11 A5,5 0 0 0 827.0149,16 L832.0149,16 L822.0149,6" fill="#FFA500" style="stroke:#444444;stroke-width:0.5;"/><text fill="#000000" font-family="Sans-Serif" font-size="13" lengthAdjust="spacing" textLength="90.5684" x="633.72" y="23.0669">Constitutional</text><text fill="#000000" font-family="Sans-Serif" font-size="13" lengthAdjust="spacing" textLength="4.1323" x="724.2884" y="23.0669">&#160;</text><text fill="#000000" font-family="Sans-Serif" font-size="13" lengthAdjust="spacing" textLength="66.5869" x="728.4207" y="23.0669">guidelines</text><text fill="#000000" font-family="Sans-Serif" font-size="13" lengthAdjust="spacing" textLength="4.1323" x="795.0076" y="23.0669">&#160;</text><text fill="#000000" font-family="Sans-Serif" font-size="13" lengthAdjust="spacing" textLength="17.875" x="799.1399" y="23.0669">for</text><text fill="#000000" font-family="Sans-Serif" font-size="13" lengthAdjust="spacing" textLength="34.4106" x="708.1621" y="38.1997">State</text></g><g class="entity" data-entity="GMN23" data-source-line="55" data-uid="ent0024" id="entity_GMN23"><path d="M394.25,16 L394.25,36.2656 A10,10 0 0 0 404.25,46.2656 L429.39,46.2656 L433.39,124.14 L437.39,46.2656 L567.4897,46.2656 A10,10 0 0 0 577.4897,36.2656 L577.4897,16 L567.4897,6 L404.25,6 A10,10 0 0 0 394.25,16" fill="#FFA500" style="stroke:#444444;stroke-width:0.5;"/><path d="M567.4897,6 L567.4897,11 A5,5 0 0 0 572.4897,16 L577.4897,16 L567.4897,6" fill="#FFA500" style="stroke:#444444;stroke-width:0.5;"/><text fill="#000000" font-family="Sans-Serif" font-size="13" lengthAdjust="spacing" textLength="47.6138" x="400.25" y="23.0669">Solving</text><text fill="#000000" font-family="Sans-Serif" font-size="13" lengthAdjust="spacing" textLength="4.1323" x="447.8638" y="23.0669">&#160;</text><text fill="#000000" font-family="Sans-Serif" font-size="13" lengthAdjust="spacing" textLength="54.9961" x="451.9961" y="23.0669">disputes</text><text fill="#000000" font-family="Sans-Serif" font-size="13" lengthAdjust="spacing" textLength="4.1323" x="506.9922" y="23.0669">&#160;</text><text fill="#000000" font-family="Sans-Serif" font-size="13" lengthAdjust="spacing" textLength="51.3652" x="511.1245" y="23.0669">through</text><text fill="#000000" font-family="Sans-Serif" font-size="13" lengthAdjust="spacing" textLength="67.1519" x="447.7939" y="38.1997">diplomacy</text></g><g class="entity" data-entity="GMN26" data-source-line="59" data-uid="ent0027" id="entity_GMN26"><path d="M969.82,248.86 L969.82,269.1256 A10,10 0 0 0 979.82,279.1256 L1141.9172,279.1256 A10,10 0 0 0 1151.9172,269.1256 L1151.9172,248.86 L1141.9172,238.86 L1064.87,238.86 L1060.87,169.27 L1056.87,238.86 L979.82,238.86 A10,10 0 0 0 969.82,248.86" fill="#FFA500" style="stroke:#444444;stroke-width:0.5;"/><path d="M1141.9172,238.86 L1141.9172,243.86 A5,5 0 0 0 1146.9172,248.86 L1151.9172,248.86 L1141.9172,238.86" fill="#FFA500" style="stroke:#444444;stroke-width:0.5;"/><text fill="#000000" font-family="Sans-Serif" font-size="13" lengthAdjust="spacing" textLength="34.4106" x="975.82" y="255.9269">State</text><text fill="#000000" font-family="Sans-Serif" font-size="13" lengthAdjust="spacing" textLength="4.1323" x="1010.2306" y="255.9269">&#160;</text><text fill="#000000" font-family="Sans-Serif" font-size="13" lengthAdjust="spacing" textLength="52.0762" x="1014.363" y="255.9269">conduct</text><text fill="#000000" font-family="Sans-Serif" font-size="13" lengthAdjust="spacing" textLength="4.1323" x="1066.4391" y="255.9269">&#160;</text><text fill="#000000" font-family="Sans-Serif" font-size="13" lengthAdjust="spacing" textLength="27.5806" x="1070.5715" y="255.9269">with</text><text fill="#000000" font-family="Sans-Serif" font-size="13" lengthAdjust="spacing" textLength="4.1323" x="1098.152" y="255.9269">&#160;</text><text fill="#000000" font-family="Sans-Serif" font-size="13" lengthAdjust="spacing" textLength="34.6328" x="1102.2844" y="255.9269">other</text><text fill="#000000" font-family="Sans-Serif" font-size="13" lengthAdjust="spacing" textLength="47.8804" x="1032.4284" y="271.0597">nations</text></g><!--link International Peace to National Security--><g class="link" data-entity-1="International Peace" data-entity-2="National Security" data-source-line="37" data-uid="lnk10" id="link_International Peace_National Security"><path codeLine="37" d="M244.87,277.36 C244.87,297.27 244.87,322.87 244.87,342.81" fill="none" id="International Peace-to-National Security" style="stroke:#FFFFFF;stroke-width:1.5;"/><polygon fill="#FFFFFF" points="244.87,348.81,248.87,339.81,244.87,343.81,240.87,339.81,244.87,348.81" style="stroke:#FFFFFF;stroke-width:1.5;"/></g><!--reverse link Directive Principles to Promotion of Peace--><g class="link" data-entity-1="Directive Principles" data-entity-2="Promotion of Peace" data-source-line="38" data-uid="lnk11" id="link_Directive Principles_Promotion of Peace"><path codeLine="38" d="M907.73,56.58 C907.73,78.38 907.73,102.43 907.73,124.2" fill="none" id="Directive Principles-backto-Promotion of Peace" style="stroke:#FFFFFF;stroke-width:1.5;"/><polygon fill="#FFFFFF" points="907.73,44.58,903.73,50.58,907.73,56.58,911.73,50.58,907.73,44.58" style="stroke:#FFFFFF;stroke-width:1.5;"/></g><!--link Directive Principles to Just and Honorable Relations--><g class="link" data-entity-1="Directive Principles" data-entity-2="Just and Honorable Relations" data-source-line="39" data-uid="lnk12" id="link_Directive Principles_Just and Honorable Relations"><path codeLine="39" d="M1010.22,44.58 C1010.22,63.82 1010.22,88.15 1010.22,109.97" fill="none" id="Directive Principles-to-Just and Honorable Relations" style="stroke:#FFFFFF;stroke-width:1.5;"/><polygon fill="#FFFFFF" points="1010.22,115.97,1014.22,106.97,1010.22,110.97,1006.22,106.97,1010.22,115.97" style="stroke:#FFFFFF;stroke-width:1.5;"/></g><!--link International Agreements to International Peace--><g class="link" data-entity-1="International Agreements" data-entity-2="International Peace" data-source-line="40" data-uid="lnk13" id="link_International Agreements_International Peace"><path codeLine="40" d="M270.38,44.4 C270.38,87.83 270.38,190.82 270.38,234.48" fill="none" id="International Agreements-to-International Peace" style="stroke:#FFFFFF;stroke-width:1.5;"/><polygon fill="#FFFFFF" points="270.38,240.48,274.38,231.48,270.38,235.48,266.38,231.48,270.38,240.48" style="stroke:#FFFFFF;stroke-width:1.5;"/></g><!--link International Agreements to Conflict Resolution--><g class="link" data-entity-1="International Agreements" data-entity-2="Conflict Resolution" data-source-line="41" data-uid="lnk14" id="link_International Agreements_Conflict Resolution"><path codeLine="41" d="M332.88,44.58 C332.88,66.38 332.88,96.43 332.88,118.2" fill="none" id="International Agreements-to-Conflict Resolution" style="stroke:#FFFFFF;stroke-width:1.5;"/><polygon fill="#FFFFFF" points="332.88,124.2,336.88,115.2,332.88,119.2,328.88,115.2,332.88,124.2" style="stroke:#FFFFFF;stroke-width:1.5;"/></g><!--link Conflict Resolution to International Peace--><g class="link" data-entity-1="Conflict Resolution" data-entity-2="International Peace" data-source-line="42" data-uid="lnk15" id="link_Conflict Resolution_International Peace"><path codeLine="42" d="M347.93,160.87 C347.93,192.35 347.93,253.42 347.93,253.42 C347.93,253.42 343.48,253.42 329.24,253.42" fill="none" id="Conflict Resolution-to-International Peace" style="stroke:#FFFFFF;stroke-width:1.5;"/><polygon fill="#FFFFFF" points="323.24,253.42,332.24,257.42,328.24,253.42,332.24,249.42,323.24,253.42" style="stroke:#FFFFFF;stroke-width:1.5;"/></g><!--link Fundamental Duties to International Peace--><g class="link" data-entity-1="Fundamental Duties" data-entity-2="International Peace" data-source-line="43" data-uid="lnk16" id="link_Fundamental Duties_International Peace"><path codeLine="43" d="M169.02,143.42 C196.12,143.42 219.56,143.42 219.56,143.42 C219.56,143.42 219.56,201.75 219.56,234.42" fill="none" id="Fundamental Duties-to-International Peace" style="stroke:#FFFFFF;stroke-width:1.5;"/><polygon fill="#FFFFFF" points="219.56,240.42,223.56,231.42,219.56,235.42,215.56,231.42,219.56,240.42" style="stroke:#FFFFFF;stroke-width:1.5;"/></g><!--SRC=[ZLHDRzim3BtxLn3fOS203Dr7ltOOaAO9jXtQeYcmioBJjXPPD2IwQVxzA3ljd4n9vuC1au-FZu-obBMqhispSMKMLiOrogiQbaglIa-jowTaoSF9v-uP8Anno9i6WJnND4WuoZ5W0sUdWw1NRXM35yDWZI6e4YVMbAv6nw3bXNw0oB5GhUL7VEOZA4UCr-Hpz5knNxfd7x4_qdm-EJiTwfbuJ-i-kQuCutxgiJ9wvKGqVFnmDaYklMf-cPmh-BJ3jrK_9yUtgaOOBPGBumLwKupsnBs5sUhs3hqq6IH2fN9Qo_AWK3PWkdi_qzAA0uc-wQn7pSgLzdyWG_Dxvx9tC5MC9VdDLvWi0tkb6QRaD3OSijTA6DqgDkIKXGNgrXlUZE3ayc8wcrqFKJScVfWdX7jld3QDnP04tdkgAJ825N2FIcCIDXSxLJnDqlYcPNE0xKSyQUv5uQJqYB5e0DuPL9fhEHwuCw0CNLWZqpzW8Dj6BYc_kfnVNrtkbjyjV_T3XiCQNaQQdS_EvvCXxcSR69JBuJivycefiGUqNLtuMo0DNwELQKAMvX-FlwLManrOnFlnE6dz8Nn7VrHmTiJxhZeb-ysYr2woz8QED4aTdiDmSNmXnr-MR7Jtpq4Z_r4dA-i-lIahZfwbwm7kdj0hhwlubvSa6S4Mv54kH6X8b6yo51iZMTPJMYnwngJzGYaZ1pRSRbkLhSantkWX4ejUaRlFoTHqb4aF0HPadwB0t8IcPI7YIYwjif90OwbM_ufS4ZFL7UVnem2z8D3aybOQhurSjSILt8MzMU6L-Wy0]--></g></svg>