<svg xmlns="http://www.w3.org/2000/svg" xmlns:xlink="http://www.w3.org/1999/xlink" contentStyleType="text/css" data-diagram-type="CLASS" height="619px" preserveAspectRatio="none" style="width:1220px;height:619px;background:#333333;" version="1.1" viewBox="0 0 1220 619" width="1220px" zoomAndPan="magnify"><defs/><g><rect fill="#333333" height="619" style="stroke:none;stroke-width:1;" width="1220" x="0" y="0"/><!--entity Financial Losses--><g class="entity" data-entity="Financial Losses" data-source-line="23" data-uid="ent0002" id="entity_Financial Losses"><rect fill="#87CEEB" height="36.2969" rx="10" ry="10" style="stroke:#FFFFFF;stroke-width:0.5;" width="133.6338" x="818.73" y="570.48"/><text fill="#000000" font-family="Sans-Serif" font-size="14" lengthAdjust="spacing" textLength="62.3232" x="828.73" y="593.4751">Financial</text><text fill="#000000" font-family="Sans-Serif" font-size="14" lengthAdjust="spacing" textLength="4.4502" x="891.0532" y="593.4751">&#160;</text><text fill="#000000" font-family="Sans-Serif" font-size="14" lengthAdjust="spacing" textLength="46.8604" x="895.5034" y="593.4751">Losses</text></g><!--entity Premium Payment--><g class="entity" data-entity="Premium Payment" data-source-line="24" data-uid="ent0003" id="entity_Premium Payment"><rect fill="#87CEEB" height="36.2969" rx="10" ry="10" style="stroke:#FFFFFF;stroke-width:0.5;" width="149.2197" x="623.94" y="131.4"/><text fill="#000000" font-family="Sans-Serif" font-size="14" lengthAdjust="spacing" textLength="62.8496" x="633.94" y="154.3951">Premium</text><text fill="#000000" font-family="Sans-Serif" font-size="14" lengthAdjust="spacing" textLength="4.4502" x="696.7896" y="154.3951">&#160;</text><text fill="#000000" font-family="Sans-Serif" font-size="14" lengthAdjust="spacing" textLength="61.9199" x="701.2398" y="154.3951">Payment</text></g><!--entity Financial Compensation--><g class="entity" data-entity="Financial Compensation" data-source-line="25" data-uid="ent0004" id="entity_Financial Compensation"><rect fill="#87CEEB" height="36.2969" rx="10" ry="10" style="stroke:#FFFFFF;stroke-width:0.5;" width="187.8154" x="604.64" y="349.95"/><text fill="#000000" font-family="Sans-Serif" font-size="14" lengthAdjust="spacing" textLength="62.3232" x="614.64" y="372.9451">Financial</text><text fill="#000000" font-family="Sans-Serif" font-size="14" lengthAdjust="spacing" textLength="4.4502" x="676.9632" y="372.9451">&#160;</text><text fill="#000000" font-family="Sans-Serif" font-size="14" lengthAdjust="spacing" textLength="101.042" x="681.4134" y="372.9451">Compensation</text></g><!--entity Risk Mitigation--><g class="entity" data-entity="Risk Mitigation" data-source-line="26" data-uid="ent0005" id="entity_Risk Mitigation"><rect fill="#87CEEB" height="36.2969" rx="10" ry="10" style="stroke:#FFFFFF;stroke-width:0.5;" width="123.0996" x="432" y="349.95"/><text fill="#000000" font-family="Sans-Serif" font-size="14" lengthAdjust="spacing" textLength="29.0186" x="442" y="372.9451">Risk</text><text fill="#000000" font-family="Sans-Serif" font-size="14" lengthAdjust="spacing" textLength="4.4502" x="471.0186" y="372.9451">&#160;</text><text fill="#000000" font-family="Sans-Serif" font-size="14" lengthAdjust="spacing" textLength="69.6309" x="475.4688" y="372.9451">Mitigation</text></g><!--entity Government Subsidies--><g class="entity" data-entity="Government Subsidies" data-source-line="27" data-uid="ent0006" id="entity_Government Subsidies"><rect fill="#87CEEB" height="36.2969" rx="10" ry="10" style="stroke:#FFFFFF;stroke-width:0.5;" width="178.5186" x="493.29" y="15.55"/><text fill="#000000" font-family="Sans-Serif" font-size="14" lengthAdjust="spacing" textLength="87.5547" x="503.29" y="38.5451">Government</text><text fill="#000000" font-family="Sans-Serif" font-size="14" lengthAdjust="spacing" textLength="4.4502" x="590.8447" y="38.5451">&#160;</text><text fill="#000000" font-family="Sans-Serif" font-size="14" lengthAdjust="spacing" textLength="66.5137" x="595.2949" y="38.5451">Subsidies</text></g><!--entity Unforeseen Events--><g class="entity" data-entity="Unforeseen Events" data-source-line="30" data-uid="ent0007" id="entity_Unforeseen Events"><rect fill="#FFE4E1" height="36.2969" rx="10" ry="10" style="stroke:#FFFFFF;stroke-width:0.5;" width="152.2275" x="842.43" y="349.95"/><text fill="#000000" font-family="Sans-Serif" font-size="14" lengthAdjust="spacing" textLength="80.377" x="852.43" y="372.9451">Unforeseen</text><text fill="#000000" font-family="Sans-Serif" font-size="14" lengthAdjust="spacing" textLength="4.4502" x="932.807" y="372.9451">&#160;</text><text fill="#000000" font-family="Sans-Serif" font-size="14" lengthAdjust="spacing" textLength="47.4004" x="937.2571" y="372.9451">Events</text></g><!--entity Post-Harvest Losses--><g class="entity" data-entity="Post-Harvest Losses" data-source-line="31" data-uid="ent0008" id="entity_Post-Harvest Losses"><rect fill="#FFE4E1" height="36.2969" rx="10" ry="10" style="stroke:#FFFFFF;stroke-width:0.5;" width="160.6973" x="961.2" y="460.21"/><text fill="#000000" font-family="Sans-Serif" font-size="14" lengthAdjust="spacing" textLength="89.3867" x="971.2" y="483.2051">Post-Harvest</text><text fill="#000000" font-family="Sans-Serif" font-size="14" lengthAdjust="spacing" textLength="4.4502" x="1060.5867" y="483.2051">&#160;</text><text fill="#000000" font-family="Sans-Serif" font-size="14" lengthAdjust="spacing" textLength="46.8604" x="1065.0369" y="483.2051">Losses</text></g><!--entity Crop Insurance--><g class="entity" data-entity="Crop Insurance" data-source-line="34" data-uid="ent0009" id="entity_Crop Insurance"><rect fill="#98FB98" height="36.2969" rx="10" ry="10" style="stroke:#FFFFFF;stroke-width:0.5;" width="126.1211" x="635.49" y="239.68"/><text fill="#000000" font-family="Sans-Serif" font-size="14" lengthAdjust="spacing" textLength="32.9834" x="645.49" y="262.6751">Crop</text><text fill="#000000" font-family="Sans-Serif" font-size="14" lengthAdjust="spacing" textLength="4.4502" x="678.4734" y="262.6751">&#160;</text><text fill="#000000" font-family="Sans-Serif" font-size="14" lengthAdjust="spacing" textLength="68.6875" x="682.9236" y="262.6751">Insurance</text></g><!--entity Farmer Welfare--><g class="entity" data-entity="Farmer Welfare" data-source-line="37" data-uid="ent0010" id="entity_Farmer Welfare"><rect fill="#E6E6FA" height="36.2969" rx="10" ry="10" style="stroke:#FFFFFF;stroke-width:0.5;" width="129.0674" x="429.01" y="460.21"/><text fill="#000000" font-family="Sans-Serif" font-size="14" lengthAdjust="spacing" textLength="50.3945" x="439.01" y="483.2051">Farmer</text><text fill="#000000" font-family="Sans-Serif" font-size="14" lengthAdjust="spacing" textLength="4.4502" x="489.4045" y="483.2051">&#160;</text><text fill="#000000" font-family="Sans-Serif" font-size="14" lengthAdjust="spacing" textLength="54.2227" x="493.8547" y="483.2051">Welfare</text></g><g class="entity" data-entity="GMN21" data-source-line="53" data-uid="ent0022" id="entity_GMN21"><path d="M811.38,247.7 L811.38,248.76 L761.85,252.76 L811.38,256.76 L811.38,267.9656 A10,10 0 0 0 821.38,277.9656 L997.7086,277.9656 A10,10 0 0 0 1007.7086,267.9656 L1007.7086,247.7 L997.7086,237.7 L821.38,237.7 A10,10 0 0 0 811.38,247.7" fill="#FFA500" style="stroke:#444444;stroke-width:0.5;"/><path d="M997.7086,237.7 L997.7086,242.7 A5,5 0 0 0 1002.7086,247.7 L1007.7086,247.7 L997.7086,237.7" fill="#FFA500" style="stroke:#444444;stroke-width:0.5;"/><text fill="#000000" font-family="Sans-Serif" font-size="13" lengthAdjust="spacing" textLength="47.7725" x="829.3644" y="254.7669">PMFBY:</text><text fill="#000000" font-family="Sans-Serif" font-size="13" lengthAdjust="spacing" textLength="4.1323" x="877.1368" y="254.7669">&#160;</text><text fill="#000000" font-family="Sans-Serif" font-size="13" lengthAdjust="spacing" textLength="53.8472" x="881.2692" y="254.7669">Pradhan</text><text fill="#000000" font-family="Sans-Serif" font-size="13" lengthAdjust="spacing" textLength="4.1323" x="935.1163" y="254.7669">&#160;</text><text fill="#000000" font-family="Sans-Serif" font-size="13" lengthAdjust="spacing" textLength="41.4756" x="939.2487" y="254.7669">Mantri</text><text fill="#000000" font-family="Sans-Serif" font-size="13" lengthAdjust="spacing" textLength="33.7949" x="817.38" y="269.8997">Fasal</text><text fill="#000000" font-family="Sans-Serif" font-size="13" lengthAdjust="spacing" textLength="4.1323" x="851.1749" y="269.8997">&#160;</text><text fill="#000000" font-family="Sans-Serif" font-size="13" lengthAdjust="spacing" textLength="33.1602" x="855.3072" y="269.8997">Bima</text><text fill="#000000" font-family="Sans-Serif" font-size="13" lengthAdjust="spacing" textLength="4.1323" x="888.4674" y="269.8997">&#160;</text><text fill="#000000" font-family="Sans-Serif" font-size="13" lengthAdjust="spacing" textLength="43.6782" x="892.5997" y="269.8997">Yojana</text><text fill="#000000" font-family="Sans-Serif" font-size="13" lengthAdjust="spacing" textLength="4.1323" x="936.2779" y="269.8997">&#160;</text><text fill="#000000" font-family="Sans-Serif" font-size="13" lengthAdjust="spacing" textLength="52.2983" x="940.4103" y="269.8997">Scheme</text></g><g class="entity" data-entity="GMN24" data-source-line="58" data-uid="ent0025" id="entity_GMN24"><path d="M721.32,16 L721.32,51.3984 A10,10 0 0 0 731.32,61.3984 L743.24,61.3984 L747.24,131.16 L751.24,61.3984 L897.7717,61.3984 A10,10 0 0 0 907.7717,51.3984 L907.7717,16 L897.7717,6 L731.32,6 A10,10 0 0 0 721.32,16" fill="#FFA500" style="stroke:#444444;stroke-width:0.5;"/><path d="M897.7717,6 L897.7717,11 A5,5 0 0 0 902.7717,16 L907.7717,16 L897.7717,6" fill="#FFA500" style="stroke:#444444;stroke-width:0.5;"/><text fill="#000000" font-family="Sans-Serif" font-size="13" lengthAdjust="spacing" textLength="58.3604" x="727.32" y="23.0669">Premium</text><text fill="#000000" font-family="Sans-Serif" font-size="13" lengthAdjust="spacing" textLength="4.1323" x="785.6804" y="23.0669">&#160;</text><text fill="#000000" font-family="Sans-Serif" font-size="13" lengthAdjust="spacing" textLength="28.082" x="789.8127" y="23.0669">paid</text><text fill="#000000" font-family="Sans-Serif" font-size="13" lengthAdjust="spacing" textLength="4.1323" x="817.8947" y="23.0669">&#160;</text><text fill="#000000" font-family="Sans-Serif" font-size="13" lengthAdjust="spacing" textLength="15.9453" x="822.027" y="23.0669">by</text><text fill="#000000" font-family="Sans-Serif" font-size="13" lengthAdjust="spacing" textLength="4.1323" x="837.9723" y="23.0669">&#160;</text><text fill="#000000" font-family="Sans-Serif" font-size="13" lengthAdjust="spacing" textLength="50.667" x="842.1047" y="23.0669">farmers</text><text fill="#000000" font-family="Sans-Serif" font-size="13" lengthAdjust="spacing" textLength="52.7427" x="737.2763" y="38.1997">Partially</text><text fill="#000000" font-family="Sans-Serif" font-size="13" lengthAdjust="spacing" textLength="4.1323" x="790.019" y="38.1997">&#160;</text><text fill="#000000" font-family="Sans-Serif" font-size="13" lengthAdjust="spacing" textLength="68.5864" x="794.1513" y="38.1997">subsidized</text><text fill="#000000" font-family="Sans-Serif" font-size="13" lengthAdjust="spacing" textLength="4.1323" x="862.7377" y="38.1997">&#160;</text><text fill="#000000" font-family="Sans-Serif" font-size="13" lengthAdjust="spacing" textLength="15.9453" x="866.87" y="38.1997">by</text><text fill="#000000" font-family="Sans-Serif" font-size="13" lengthAdjust="spacing" textLength="79.479" x="770.3063" y="53.3325">government</text></g><g class="entity" data-entity="GMN27" data-source-line="63" data-uid="ent0028" id="entity_GMN27"><path d="M1044.36,357.96 L1044.36,364.76 L995.11,368.76 L1044.36,372.76 L1044.36,378.2256 A10,10 0 0 0 1054.36,388.2256 L1198.7409,388.2256 A10,10 0 0 0 1208.7409,378.2256 L1208.7409,357.96 L1198.7409,347.96 L1054.36,347.96 A10,10 0 0 0 1044.36,357.96" fill="#FFA500" style="stroke:#444444;stroke-width:0.5;"/><path d="M1198.7409,347.96 L1198.7409,352.96 A5,5 0 0 0 1203.7409,357.96 L1208.7409,357.96 L1198.7409,347.96" fill="#FFA500" style="stroke:#444444;stroke-width:0.5;"/><text fill="#000000" font-family="Sans-Serif" font-size="13" lengthAdjust="spacing" textLength="54.0947" x="1050.36" y="365.0269">Includes</text><text fill="#000000" font-family="Sans-Serif" font-size="13" lengthAdjust="spacing" textLength="4.1323" x="1104.4547" y="365.0269">&#160;</text><text fill="#000000" font-family="Sans-Serif" font-size="13" lengthAdjust="spacing" textLength="56.564" x="1108.5871" y="365.0269">cyclones</text><text fill="#000000" font-family="Sans-Serif" font-size="13" lengthAdjust="spacing" textLength="4.1323" x="1165.151" y="365.0269">&#160;</text><text fill="#000000" font-family="Sans-Serif" font-size="13" lengthAdjust="spacing" textLength="24.4575" x="1169.2833" y="365.0269">and</text><text fill="#000000" font-family="Sans-Serif" font-size="13" lengthAdjust="spacing" textLength="73.7598" x="1067.1369" y="380.1597">unseasonal</text><text fill="#000000" font-family="Sans-Serif" font-size="13" lengthAdjust="spacing" textLength="4.1323" x="1140.8966" y="380.1597">&#160;</text><text fill="#000000" font-family="Sans-Serif" font-size="13" lengthAdjust="spacing" textLength="31.9351" x="1145.0289" y="380.1597">rains</text></g><g class="entity" data-entity="GMN30" data-source-line="68" data-uid="ent0031" id="entity_GMN30"><path d="M1001.88,578.49 L1001.88,598.7556 A10,10 0 0 0 1011.88,608.7556 L1199.2091,608.7556 A10,10 0 0 0 1209.2091,598.7556 L1209.2091,578.49 L1199.2091,568.49 L1065.89,568.49 L1061.89,496.57 L1057.89,568.49 L1011.88,568.49 A10,10 0 0 0 1001.88,578.49" fill="#FFA500" style="stroke:#444444;stroke-width:0.5;"/><path d="M1199.2091,568.49 L1199.2091,573.49 A5,5 0 0 0 1204.2091,578.49 L1209.2091,578.49 L1199.2091,568.49" fill="#FFA500" style="stroke:#444444;stroke-width:0.5;"/><text fill="#000000" font-family="Sans-Serif" font-size="13" lengthAdjust="spacing" textLength="43.5132" x="1029.7604" y="585.5569">Losses</text><text fill="#000000" font-family="Sans-Serif" font-size="13" lengthAdjust="spacing" textLength="4.1323" x="1073.2736" y="585.5569">&#160;</text><text fill="#000000" font-family="Sans-Serif" font-size="13" lengthAdjust="spacing" textLength="24.4893" x="1077.4059" y="585.5569">due</text><text fill="#000000" font-family="Sans-Serif" font-size="13" lengthAdjust="spacing" textLength="4.1323" x="1101.8951" y="585.5569">&#160;</text><text fill="#000000" font-family="Sans-Serif" font-size="13" lengthAdjust="spacing" textLength="13.0508" x="1106.0275" y="585.5569">to</text><text fill="#000000" font-family="Sans-Serif" font-size="13" lengthAdjust="spacing" textLength="4.1323" x="1119.0782" y="585.5569">&#160;</text><text fill="#000000" font-family="Sans-Serif" font-size="13" lengthAdjust="spacing" textLength="49.1182" x="1123.2106" y="585.5569">specific</text><text fill="#000000" font-family="Sans-Serif" font-size="13" lengthAdjust="spacing" textLength="81.8784" x="1007.88" y="600.6897">post-harvest</text><text fill="#000000" font-family="Sans-Serif" font-size="13" lengthAdjust="spacing" textLength="4.1323" x="1089.7584" y="600.6897">&#160;</text><text fill="#000000" font-family="Sans-Serif" font-size="13" lengthAdjust="spacing" textLength="43.7988" x="1093.8907" y="600.6897">events</text><text fill="#000000" font-family="Sans-Serif" font-size="13" lengthAdjust="spacing" textLength="4.1323" x="1137.6896" y="600.6897">&#160;</text><text fill="#000000" font-family="Sans-Serif" font-size="13" lengthAdjust="spacing" textLength="52.3872" x="1141.8219" y="600.6897">covered</text></g><g class="entity" data-entity="GMN33" data-source-line="73" data-uid="ent0034" id="entity_GMN33"><path d="M619.54,468.23 L619.54,488.4956 A10,10 0 0 0 629.54,498.4956 L767.5478,498.4956 A10,10 0 0 0 777.5478,488.4956 L777.5478,468.23 L767.5478,458.23 L702.55,458.23 L698.55,386.3 L694.55,458.23 L629.54,458.23 A10,10 0 0 0 619.54,468.23" fill="#FFA500" style="stroke:#444444;stroke-width:0.5;"/><path d="M767.5478,458.23 L767.5478,463.23 A5,5 0 0 0 772.5478,468.23 L777.5478,468.23 L767.5478,458.23" fill="#FFA500" style="stroke:#444444;stroke-width:0.5;"/><text fill="#000000" font-family="Sans-Serif" font-size="13" lengthAdjust="spacing" textLength="44.7891" x="629.9008" y="475.2969">Payout</text><text fill="#000000" font-family="Sans-Serif" font-size="13" lengthAdjust="spacing" textLength="4.1323" x="674.6899" y="475.2969">&#160;</text><text fill="#000000" font-family="Sans-Serif" font-size="13" lengthAdjust="spacing" textLength="57.3574" x="678.8222" y="475.2969">provided</text><text fill="#000000" font-family="Sans-Serif" font-size="13" lengthAdjust="spacing" textLength="4.1323" x="736.1796" y="475.2969">&#160;</text><text fill="#000000" font-family="Sans-Serif" font-size="13" lengthAdjust="spacing" textLength="17.875" x="740.312" y="475.2969">for</text><text fill="#000000" font-family="Sans-Serif" font-size="13" lengthAdjust="spacing" textLength="46.9473" x="625.54" y="490.4297">eligible</text><text fill="#000000" font-family="Sans-Serif" font-size="13" lengthAdjust="spacing" textLength="4.1323" x="672.4873" y="490.4297">&#160;</text><text fill="#000000" font-family="Sans-Serif" font-size="13" lengthAdjust="spacing" textLength="28.6978" x="676.6196" y="490.4297">crop</text><text fill="#000000" font-family="Sans-Serif" font-size="13" lengthAdjust="spacing" textLength="4.1323" x="705.3173" y="490.4297">&#160;</text><text fill="#000000" font-family="Sans-Serif" font-size="13" lengthAdjust="spacing" textLength="53.0981" x="709.4497" y="490.4297">damage</text></g><g class="entity" data-entity="GMN36" data-source-line="78" data-uid="ent0037" id="entity_GMN36"><path d="M223.34,357.96 L223.34,378.2256 A10,10 0 0 0 233.34,388.2256 L371.7414,388.2256 A10,10 0 0 0 381.7414,378.2256 L381.7414,372.76 L431.51,368.76 L381.7414,364.76 L381.7414,357.96 L371.7414,347.96 L233.34,347.96 A10,10 0 0 0 223.34,357.96" fill="#FFA500" style="stroke:#444444;stroke-width:0.5;"/><path d="M371.7414,347.96 L371.7414,352.96 A5,5 0 0 0 376.7414,357.96 L381.7414,357.96 L371.7414,347.96" fill="#FFA500" style="stroke:#444444;stroke-width:0.5;"/><text fill="#000000" font-family="Sans-Serif" font-size="13" lengthAdjust="spacing" textLength="55.4658" x="229.4067" y="365.0269">Provides</text><text fill="#000000" font-family="Sans-Serif" font-size="13" lengthAdjust="spacing" textLength="4.1323" x="284.8725" y="365.0269">&#160;</text><text fill="#000000" font-family="Sans-Serif" font-size="13" lengthAdjust="spacing" textLength="7.9663" x="289.0048" y="365.0269">a</text><text fill="#000000" font-family="Sans-Serif" font-size="13" lengthAdjust="spacing" textLength="4.1323" x="296.9711" y="365.0269">&#160;</text><text fill="#000000" font-family="Sans-Serif" font-size="13" lengthAdjust="spacing" textLength="40.1045" x="301.1034" y="365.0269">safety</text><text fill="#000000" font-family="Sans-Serif" font-size="13" lengthAdjust="spacing" textLength="4.1323" x="341.2079" y="365.0269">&#160;</text><text fill="#000000" font-family="Sans-Serif" font-size="13" lengthAdjust="spacing" textLength="21.3345" x="345.3402" y="365.0269">net</text><text fill="#000000" font-family="Sans-Serif" font-size="13" lengthAdjust="spacing" textLength="47.9058" x="229.34" y="380.1597">against</text><text fill="#000000" font-family="Sans-Serif" font-size="13" lengthAdjust="spacing" textLength="4.1323" x="277.2458" y="380.1597">&#160;</text><text fill="#000000" font-family="Sans-Serif" font-size="13" lengthAdjust="spacing" textLength="85.3633" x="281.3781" y="380.1597">uncertainties</text></g><g class="entity" data-entity="GMN39" data-source-line="83" data-uid="ent0040" id="entity_GMN39"><path d="M6,357.96 L6,378.2256 A10,10 0 0 0 16,388.2256 L163.0913,388.2256 A10,10 0 0 0 173.0913,378.2256 L173.0913,357.96 L163.0913,347.96 L16,347.96 A10,10 0 0 0 6,357.96" fill="#FFA500" style="stroke:#444444;stroke-width:0.5;"/><path d="M163.0913,347.96 L163.0913,352.96 A5,5 0 0 0 168.0913,357.96 L173.0913,357.96 L163.0913,347.96" fill="#FFA500" style="stroke:#444444;stroke-width:1;"/><text fill="#000000" font-family="Sans-Serif" font-size="13" lengthAdjust="spacing" textLength="24.1782" x="12" y="365.0269">The</text><text fill="#000000" font-family="Sans-Serif" font-size="13" lengthAdjust="spacing" textLength="4.1323" x="36.1782" y="365.0269">&#160;</text><text fill="#000000" font-family="Sans-Serif" font-size="13" lengthAdjust="spacing" textLength="54.2852" x="40.3105" y="365.0269">ultimate</text><text fill="#000000" font-family="Sans-Serif" font-size="13" lengthAdjust="spacing" textLength="4.1323" x="94.5957" y="365.0269">&#160;</text><text fill="#000000" font-family="Sans-Serif" font-size="13" lengthAdjust="spacing" textLength="59.3633" x="98.728" y="365.0269">objective</text><text fill="#000000" font-family="Sans-Serif" font-size="13" lengthAdjust="spacing" textLength="12.5303" x="38.5713" y="380.1597">of</text><text fill="#000000" font-family="Sans-Serif" font-size="13" lengthAdjust="spacing" textLength="4.1323" x="51.1016" y="380.1597">&#160;</text><text fill="#000000" font-family="Sans-Serif" font-size="13" lengthAdjust="spacing" textLength="21.3345" x="55.2339" y="380.1597">the</text><text fill="#000000" font-family="Sans-Serif" font-size="13" lengthAdjust="spacing" textLength="4.1323" x="76.5684" y="380.1597">&#160;</text><text fill="#000000" font-family="Sans-Serif" font-size="13" lengthAdjust="spacing" textLength="50.8193" x="80.7007" y="380.1597">scheme</text></g><!--link Crop Insurance to Unforeseen Events--><g class="link" data-entity-1="Crop Insurance" data-entity-2="Unforeseen Events" data-source-line="40" data-uid="lnk11" id="link_Crop Insurance_Unforeseen Events"><path codeLine="40" d="M761.95,264.76 C783.35,264.76 801.92,264.76 801.92,264.76 C801.92,264.76 801.92,368.76 801.92,368.76 C801.92,368.76 814.07,368.76 836.05,368.76" fill="none" id="Crop Insurance-to-Unforeseen Events" style="stroke:#FFFFFF;stroke-width:1.5;stroke-dasharray:7.0,7.0;"/><polygon fill="#FFFFFF" points="842.05,368.76,833.05,364.76,837.05,368.76,833.05,372.76,842.05,368.76" style="stroke:#FFFFFF;stroke-width:1.5;"/></g><!--link Unforeseen Events to Financial Losses--><g class="link" data-entity-1="Unforeseen Events" data-entity-2="Financial Losses" data-source-line="41" data-uid="lnk12" id="link_Unforeseen Events_Financial Losses"><path codeLine="41" d="M897.4,386.52 C897.4,428.03 897.4,522.49 897.4,564.1" fill="none" id="Unforeseen Events-to-Financial Losses" style="stroke:#FFFFFF;stroke-width:1.5;"/><polygon fill="#FFFFFF" points="897.4,570.1,901.4,561.1,897.4,565.1,893.4,561.1,897.4,570.1" style="stroke:#FFFFFF;stroke-width:1.5;"/></g><!--link Unforeseen Events to Post-Harvest Losses--><g class="link" data-entity-1="Unforeseen Events" data-entity-2="Post-Harvest Losses" data-source-line="42" data-uid="lnk13" id="link_Unforeseen Events_Post-Harvest Losses"><path codeLine="42" d="M977.93,386.3 C977.93,406.61 977.93,433.29 977.93,453.76" fill="none" id="Unforeseen Events-to-Post-Harvest Losses" style="stroke:#FFFFFF;stroke-width:1.5;"/><polygon fill="#FFFFFF" points="977.93,459.76,981.93,450.76,977.93,454.76,973.93,450.76,977.93,459.76" style="stroke:#FFFFFF;stroke-width:1.5;"/></g><!--link Post-Harvest Losses to Financial Losses--><g class="link" data-entity-1="Post-Harvest Losses" data-entity-2="Financial Losses" data-source-line="43" data-uid="lnk14" id="link_Post-Harvest Losses_Financial Losses"><path codeLine="43" d="M981.54,496.59 C981.54,527.95 981.54,588.76 981.54,588.76 C981.54,588.76 974.87,588.76 958.74,588.76" fill="none" id="Post-Harvest Losses-to-Financial Losses" style="stroke:#FFFFFF;stroke-width:1.5;"/><polygon fill="#FFFFFF" points="952.74,588.76,961.74,592.76,957.74,588.76,961.74,584.76,952.74,588.76" style="stroke:#FFFFFF;stroke-width:1.5;"/></g><!--link Crop Insurance to Financial Compensation--><g class="link" data-entity-1="Crop Insurance" data-entity-2="Financial Compensation" data-source-line="44" data-uid="lnk15" id="link_Crop Insurance_Financial Compensation"><path codeLine="44" d="M698.55,276.04 C698.55,296.35 698.55,323.03 698.55,343.49" fill="none" id="Crop Insurance-to-Financial Compensation" style="stroke:#FFFFFF;stroke-width:1.5;"/><polygon fill="#FFFFFF" points="698.55,349.49,702.55,340.49,698.55,344.49,694.55,340.49,698.55,349.49" style="stroke:#FFFFFF;stroke-width:1.5;"/></g><!--link Financial Compensation to Farmer Welfare--><g class="link" data-entity-1="Financial Compensation" data-entity-2="Farmer Welfare" data-source-line="45" data-uid="lnk16" id="link_Financial Compensation_Farmer Welfare"><path codeLine="45" d="M612.09,386.37 C612.09,417.8 612.09,478.76 612.09,478.76 C612.09,478.76 592.04,478.76 564.37,478.76" fill="none" id="Financial Compensation-to-Farmer Welfare" style="stroke:#FFFFFF;stroke-width:1.5;"/><polygon fill="#FFFFFF" points="558.37,478.76,567.37,482.76,563.37,478.76,567.37,474.76,558.37,478.76" style="stroke:#FFFFFF;stroke-width:1.5;"/></g><!--link Crop Insurance to Risk Mitigation--><g class="link" data-entity-1="Crop Insurance" data-entity-2="Risk Mitigation" data-source-line="46" data-uid="lnk17" id="link_Crop Insurance_Risk Mitigation"><path codeLine="46" d="M635.11,258.76 C585.25,258.76 524.19,258.76 524.19,258.76 C524.19,258.76 524.19,312.35 524.19,343.55" fill="none" id="Crop Insurance-to-Risk Mitigation" style="stroke:#FFFFFF;stroke-width:1.5;"/><polygon fill="#FFFFFF" points="524.19,349.55,528.19,340.55,524.19,344.55,520.19,340.55,524.19,349.55" style="stroke:#FFFFFF;stroke-width:1.5;"/></g><!--link Risk Mitigation to Farmer Welfare--><g class="link" data-entity-1="Risk Mitigation" data-entity-2="Farmer Welfare" data-source-line="47" data-uid="lnk18" id="link_Risk Mitigation_Farmer Welfare"><path codeLine="47" d="M493.55,386.3 C493.55,406.61 493.55,433.29 493.55,453.76" fill="none" id="Risk Mitigation-to-Farmer Welfare" style="stroke:#FFFFFF;stroke-width:1.5;"/><polygon fill="#FFFFFF" points="493.55,459.76,497.55,450.76,493.55,454.76,489.55,450.76,493.55,459.76" style="stroke:#FFFFFF;stroke-width:1.5;"/></g><!--link Premium Payment to Crop Insurance--><g class="link" data-entity-1="Premium Payment" data-entity-2="Crop Insurance" data-source-line="48" data-uid="lnk19" id="link_Premium Payment_Crop Insurance"><path codeLine="48" d="M698.55,167.92 C698.55,187.83 698.55,213.42 698.55,233.37" fill="none" id="Premium Payment-to-Crop Insurance" style="stroke:#FFFFFF;stroke-width:1.5;"/><polygon fill="#FFFFFF" points="698.55,239.37,702.55,230.37,698.55,234.37,694.55,230.37,698.55,239.37" style="stroke:#FFFFFF;stroke-width:1.5;"/></g><!--link Government Subsidies to Premium Payment--><g class="link" data-entity-1="Government Subsidies" data-entity-2="Premium Payment" data-source-line="49" data-uid="lnk20" id="link_Government Subsidies_Premium Payment"><path codeLine="49" d="M647.87,52.31 C647.87,73.93 647.87,103.38 647.87,124.98" fill="none" id="Government Subsidies-to-Premium Payment" style="stroke:#FFFFFF;stroke-width:1.5;"/><polygon fill="#FFFFFF" points="647.87,130.98,651.87,121.98,647.87,125.98,643.87,121.98,647.87,130.98" style="stroke:#FFFFFF;stroke-width:1.5;"/></g><!--link GMN39 to Farmer Welfare--><g class="link" data-entity-1="GMN39" data-entity-2="Farmer Welfare" data-source-line="83" data-uid="lnk41" id="link_GMN39_Farmer Welfare"><path d="M89.55,388.65 C89.55,420.65 89.55,478.76 89.55,478.76 C89.55,478.76 314.43,478.76 428.64,478.76" fill="none" id="GMN39-Farmer Welfare" style="stroke:#FFFFFF;stroke-width:1.5;stroke-dasharray:7.0,7.0;"/></g><!--SRC=[ZLNBRjim4BphAnREeUqXGT8shm89O1jMMw19ZJX5aEEQMacC9L8WAJlkrtSfgOaaosbrC0pkx6E6GnApJ6zo-InL4jYLL0KQp669OfKONQfegZDjuE1JzRKGcLJajWM1DYxLhO3I4LaguFIujMXGhVpYUNin9sineN4c4vMJSY3uXqmB4L6CPURkwTczWLBQqKIRY4mpxEVgwoFwbC9mV7hSdcTiZDxKmKqg7VL3zwaKAyL3mydHQIkuCLWyoCYbyB5Jhva-rChTOaumMg2oXmioCXxrXliNffdRA3BSf1MmAKPwmvi7CMQMXhlNd9OPAp3GTpXgI3XKIVO_aBRujNB1EvYYeqIRxHSOBwqpA1nCjH9KE1kyPC8eb0gLa9Z13sqjsH4SN9nFPxD96pGtbCioXpbklGK6CQ-5fZelI5bqKgj1w9sqAxYHJYRxCL_rcanjk4Mvj3AIxTaw_6PhHdL8_LAnDdmAI3N1aRVRxFFifCDAMtVu3SsQh7jbt-0w7UP62_BnTlhKw0A-ArlouHB4cPSNuUJoeflvS_d46NBTJGtHvEoa1yfYD3vrTZOx2yS-zOwoIXIRoi86EqsEZgw7w0L3b0yFhmVsTpzqI8zWMALzfVlZzd0TPmHxBNDrTRsZqPxQVIi5k-OQhhPZwQfShqUmnuQrNBqAVlTk-KnRUB_WyyOEa0BcV6R9Xpy4_ho3aKdgGCUxhG3cD-7aqPiDenGLtA1oHl9wY9ObciWSuL4_eK9OY9IB1gIYwXO9wjgE2_hAEuDnwMQfG1d1SikNbPV3-WWQnpkGRS7M_7vJXKXUYFVRl58Oy24m9P6L_0I1s8fCytKDg29UBvKbj5en5ODIsNxPfNPEvpM18ID2ym-YqbC5Mv2GiHGSA3m-RV1KJGB2pq_H6rtssT9hijMbWyBejOnO3cR9gyGle5poyHL-voBC-UtibyyehgNPyQNVWweSwm4MOtwyWLzmNiV4o-5O8476yN_77jktjtqV0zod1FpEi3iOflzUDnnWkEEOxNhb3m00]--></g></svg>