<svg xmlns="http://www.w3.org/2000/svg" xmlns:xlink="http://www.w3.org/1999/xlink" contentStyleType="text/css" data-diagram-type="CLASS" height="509px" preserveAspectRatio="none" style="width:1895px;height:509px;background:#333333;" version="1.1" viewBox="0 0 1895 509" width="1895px" zoomAndPan="magnify"><defs/><g><rect fill="#333333" height="509" style="stroke:none;stroke-width:1;" width="1895" x="0" y="0"/><!--entity Himalayan Glaciers--><g class="entity" data-entity="Himalayan Glaciers" data-source-line="23" data-uid="ent0002" id="entity_Himalayan Glaciers"><rect fill="#87CEEB" height="36.2969" rx="10" ry="10" style="stroke:#FFFFFF;stroke-width:0.5;" width="155.8574" x="994.9" y="118.25"/><text fill="#000000" font-family="Sans-Serif" font-size="14" lengthAdjust="spacing" textLength="74.8398" x="1004.9" y="141.2451">Himalayan</text><text fill="#000000" font-family="Sans-Serif" font-size="14" lengthAdjust="spacing" textLength="4.4502" x="1079.7398" y="141.2451">&#160;</text><text fill="#000000" font-family="Sans-Serif" font-size="14" lengthAdjust="spacing" textLength="56.5674" x="1084.19" y="141.2451">Glaciers</text></g><!--entity Siachen Glacier--><g class="entity" data-entity="Siachen Glacier" data-source-line="24" data-uid="ent0003" id="entity_Siachen Glacier"><rect fill="#87CEEB" height="36.2969" rx="10" ry="10" style="stroke:#FFFFFF;stroke-width:0.5;" width="129.1357" x="1008.26" y="226.53"/><text fill="#000000" font-family="Sans-Serif" font-size="14" lengthAdjust="spacing" textLength="55.4121" x="1018.26" y="249.5251">Siachen</text><text fill="#000000" font-family="Sans-Serif" font-size="14" lengthAdjust="spacing" textLength="4.4502" x="1073.6721" y="249.5251">&#160;</text><text fill="#000000" font-family="Sans-Serif" font-size="14" lengthAdjust="spacing" textLength="49.2734" x="1078.1223" y="249.5251">Glacier</text></g><!--entity Aksai Chin--><g class="entity" data-entity="Aksai Chin" data-source-line="25" data-uid="ent0004" id="entity_Aksai Chin"><rect fill="#87CEEB" height="36.2969" rx="10" ry="10" style="stroke:#FFFFFF;stroke-width:0.5;" width="93.3086" x="1130.17" y="342.38"/><text fill="#000000" font-family="Sans-Serif" font-size="14" lengthAdjust="spacing" textLength="37.4473" x="1140.17" y="365.3751">Aksai</text><text fill="#000000" font-family="Sans-Serif" font-size="14" lengthAdjust="spacing" textLength="4.4502" x="1177.6173" y="365.3751">&#160;</text><text fill="#000000" font-family="Sans-Serif" font-size="14" lengthAdjust="spacing" textLength="31.4111" x="1182.0675" y="365.3751">Chin</text></g><!--entity Leh--><g class="entity" data-entity="Leh" data-source-line="26" data-uid="ent0005" id="entity_Leh"><rect fill="#87CEEB" height="36.2969" rx="10" ry="10" style="stroke:#FFFFFF;stroke-width:0.5;" width="45.2861" x="1273.18" y="342.38"/><text fill="#000000" font-family="Sans-Serif" font-size="14" lengthAdjust="spacing" textLength="25.2861" x="1283.18" y="365.3751">Leh</text></g><!--entity Gilgit--><g class="entity" data-entity="Gilgit" data-source-line="27" data-uid="ent0006" id="entity_Gilgit"><rect fill="#87CEEB" height="36.2969" rx="10" ry="10" style="stroke:#FFFFFF;stroke-width:0.5;" width="56.8936" x="753.38" y="342.38"/><text fill="#000000" font-family="Sans-Serif" font-size="14" lengthAdjust="spacing" textLength="36.8936" x="763.38" y="365.3751">Gilgit</text></g><!--entity Nubra Valley--><g class="entity" data-entity="Nubra Valley" data-source-line="28" data-uid="ent0007" id="entity_Nubra Valley"><rect fill="#87CEEB" height="36.2969" rx="10" ry="10" style="stroke:#FFFFFF;stroke-width:0.5;" width="109.8516" x="1368.9" y="342.38"/><text fill="#000000" font-family="Sans-Serif" font-size="14" lengthAdjust="spacing" textLength="42.5674" x="1378.9" y="365.3751">Nubra</text><text fill="#000000" font-family="Sans-Serif" font-size="14" lengthAdjust="spacing" textLength="4.4502" x="1421.4674" y="365.3751">&#160;</text><text fill="#000000" font-family="Sans-Serif" font-size="14" lengthAdjust="spacing" textLength="42.834" x="1425.9176" y="365.3751">Valley</text></g><!--entity Climate Change--><g class="entity" data-entity="Climate Change" data-source-line="29" data-uid="ent0008" id="entity_Climate Change"><rect fill="#87CEEB" height="36.2969" rx="10" ry="10" style="stroke:#FFFFFF;stroke-width:0.5;" width="131.9248" x="82.86" y="226.53"/><text fill="#000000" font-family="Sans-Serif" font-size="14" lengthAdjust="spacing" textLength="53.874" x="92.86" y="249.5251">Climate</text><text fill="#000000" font-family="Sans-Serif" font-size="14" lengthAdjust="spacing" textLength="4.4502" x="146.734" y="249.5251">&#160;</text><text fill="#000000" font-family="Sans-Serif" font-size="14" lengthAdjust="spacing" textLength="53.6006" x="151.1842" y="249.5251">Change</text></g><!--entity Hydrology--><g class="entity" data-entity="Hydrology" data-source-line="30" data-uid="ent0009" id="entity_Hydrology"><rect fill="#87CEEB" height="36.2969" rx="10" ry="10" style="stroke:#FFFFFF;stroke-width:0.5;" width="91.6475" x="7" y="460.21"/><text fill="#000000" font-family="Sans-Serif" font-size="14" lengthAdjust="spacing" textLength="71.6475" x="17" y="483.2051">Hydrology</text></g><!--entity Glacial Melt--><g class="entity" data-entity="Glacial Melt" data-source-line="33" data-uid="ent0010" id="entity_Glacial Melt"><rect fill="#98FB98" height="36.2969" rx="10" ry="10" style="stroke:#FFFFFF;stroke-width:0.5;" width="101.8945" x="97.88" y="342.38"/><text fill="#000000" font-family="Sans-Serif" font-size="14" lengthAdjust="spacing" textLength="47.373" x="107.88" y="365.3751">Glacial</text><text fill="#000000" font-family="Sans-Serif" font-size="14" lengthAdjust="spacing" textLength="4.4502" x="155.253" y="365.3751">&#160;</text><text fill="#000000" font-family="Sans-Serif" font-size="14" lengthAdjust="spacing" textLength="30.0713" x="159.7032" y="365.3751">Melt</text></g><g class="entity" data-entity="GMN19" data-source-line="47" data-uid="ent0020" id="entity_GMN19"><path d="M985.21,16 L985.21,36.2656 A10,10 0 0 0 995.21,46.2656 L1068.82,46.2656 L1072.82,117.86 L1076.82,46.2656 L1150.4327,46.2656 A10,10 0 0 0 1160.4327,36.2656 L1160.4327,16 L1150.4327,6 L995.21,6 A10,10 0 0 0 985.21,16" fill="#FFA500" style="stroke:#444444;stroke-width:0.5;"/><path d="M1150.4327,6 L1150.4327,11 A5,5 0 0 0 1155.4327,16 L1160.4327,16 L1150.4327,6" fill="#FFA500" style="stroke:#444444;stroke-width:0.5;"/><text fill="#000000" font-family="Sans-Serif" font-size="13" lengthAdjust="spacing" textLength="36.8037" x="991.21" y="23.0669">Large</text><text fill="#000000" font-family="Sans-Serif" font-size="13" lengthAdjust="spacing" textLength="4.1323" x="1028.0137" y="23.0669">&#160;</text><text fill="#000000" font-family="Sans-Serif" font-size="13" lengthAdjust="spacing" textLength="18.7573" x="1032.146" y="23.0669">ice</text><text fill="#000000" font-family="Sans-Serif" font-size="13" lengthAdjust="spacing" textLength="4.1323" x="1050.9034" y="23.0669">&#160;</text><text fill="#000000" font-family="Sans-Serif" font-size="13" lengthAdjust="spacing" textLength="48.9468" x="1055.0357" y="23.0669">masses</text><text fill="#000000" font-family="Sans-Serif" font-size="13" lengthAdjust="spacing" textLength="4.1323" x="1103.9825" y="23.0669">&#160;</text><text fill="#000000" font-family="Sans-Serif" font-size="13" lengthAdjust="spacing" textLength="11.8511" x="1108.1148" y="23.0669">in</text><text fill="#000000" font-family="Sans-Serif" font-size="13" lengthAdjust="spacing" textLength="4.1323" x="1119.9659" y="23.0669">&#160;</text><text fill="#000000" font-family="Sans-Serif" font-size="13" lengthAdjust="spacing" textLength="21.3345" x="1124.0982" y="23.0669">the</text><text fill="#000000" font-family="Sans-Serif" font-size="13" lengthAdjust="spacing" textLength="68.0278" x="1034.3074" y="38.1997">Himalayas</text></g><g class="entity" data-entity="GMN22" data-source-line="51" data-uid="ent0023" id="entity_GMN22"><path d="M859.83,350.39 L859.83,370.6556 A10,10 0 0 0 869.83,380.6556 L1069.81,380.6556 A10,10 0 0 0 1079.81,370.6556 L1079.81,350.39 L1069.81,340.39 L1048.03,340.39 L1044.03,263.29 L1040.03,340.39 L869.83,340.39 A10,10 0 0 0 859.83,350.39" fill="#FFA500" style="stroke:#444444;stroke-width:0.5;"/><path d="M1069.81,340.39 L1069.81,345.39 A5,5 0 0 0 1074.81,350.39 L1079.81,350.39 L1069.81,340.39" fill="#FFA500" style="stroke:#444444;stroke-width:0.5;"/><text fill="#000000" font-family="Sans-Serif" font-size="13" lengthAdjust="spacing" textLength="48.3628" x="865.83" y="357.4569">World's</text><text fill="#000000" font-family="Sans-Serif" font-size="13" lengthAdjust="spacing" textLength="4.1323" x="914.1928" y="357.4569">&#160;</text><text fill="#000000" font-family="Sans-Serif" font-size="13" lengthAdjust="spacing" textLength="46.3633" x="918.3251" y="357.4569">second</text><text fill="#000000" font-family="Sans-Serif" font-size="13" lengthAdjust="spacing" textLength="4.1323" x="964.6884" y="357.4569">&#160;</text><text fill="#000000" font-family="Sans-Serif" font-size="13" lengthAdjust="spacing" textLength="47.9248" x="968.8207" y="357.4569">longest</text><text fill="#000000" font-family="Sans-Serif" font-size="13" lengthAdjust="spacing" textLength="4.1323" x="1016.7455" y="357.4569">&#160;</text><text fill="#000000" font-family="Sans-Serif" font-size="13" lengthAdjust="spacing" textLength="43.9321" x="1020.8779" y="357.4569">glacier</text><text fill="#000000" font-family="Sans-Serif" font-size="13" lengthAdjust="spacing" textLength="47.9248" x="896.5749" y="372.5897">outside</text><text fill="#000000" font-family="Sans-Serif" font-size="13" lengthAdjust="spacing" textLength="4.1323" x="944.4997" y="372.5897">&#160;</text><text fill="#000000" font-family="Sans-Serif" font-size="13" lengthAdjust="spacing" textLength="33.1284" x="948.632" y="372.5897">polar</text><text fill="#000000" font-family="Sans-Serif" font-size="13" lengthAdjust="spacing" textLength="4.1323" x="981.7604" y="372.5897">&#160;</text><text fill="#000000" font-family="Sans-Serif" font-size="13" lengthAdjust="spacing" textLength="48.1724" x="985.8927" y="372.5897">regions</text></g><g class="entity" data-entity="GMN25" data-source-line="56" data-uid="ent0026" id="entity_GMN25"><path d="M1528.4,342.83 L1528.4,378.2284 A10,10 0 0 0 1538.4,388.2284 L1655.2511,388.2284 A10,10 0 0 0 1665.2511,378.2284 L1665.2511,342.83 L1655.2511,332.83 L1538.4,332.83 A10,10 0 0 0 1528.4,342.83" fill="#FFA500" style="stroke:#444444;stroke-width:0.5;"/><path d="M1655.2511,332.83 L1655.2511,337.83 A5,5 0 0 0 1660.2511,342.83 L1665.2511,342.83 L1655.2511,332.83" fill="#FFA500" style="stroke:#444444;stroke-width:1;"/><text fill="#000000" font-family="Sans-Serif" font-size="13" lengthAdjust="spacing" textLength="58.2334" x="1534.4" y="349.8969">Disputed</text><text fill="#000000" font-family="Sans-Serif" font-size="13" lengthAdjust="spacing" textLength="4.1323" x="1592.6334" y="349.8969">&#160;</text><text fill="#000000" font-family="Sans-Serif" font-size="13" lengthAdjust="spacing" textLength="53.4854" x="1596.7657" y="349.8969">territory</text><text fill="#000000" font-family="Sans-Serif" font-size="13" lengthAdjust="spacing" textLength="85.8076" x="1549.4217" y="365.0297">administered</text><text fill="#000000" font-family="Sans-Serif" font-size="13" lengthAdjust="spacing" textLength="15.9453" x="1563.7198" y="380.1625">by</text><text fill="#000000" font-family="Sans-Serif" font-size="13" lengthAdjust="spacing" textLength="4.1323" x="1579.6651" y="380.1625">&#160;</text><text fill="#000000" font-family="Sans-Serif" font-size="13" lengthAdjust="spacing" textLength="37.1338" x="1583.7975" y="380.1625">China</text></g><g class="entity" data-entity="GMN28" data-source-line="61" data-uid="ent0029" id="entity_GMN28"><path d="M506.02,357.96 L506.02,363.0928 A10,10 0 0 0 516.02,373.0928 L693.6372,373.0928 A10,10 0 0 0 703.6372,363.0928 L703.6372,357.96 L693.6372,347.96 L516.02,347.96 A10,10 0 0 0 506.02,357.96" fill="#FFA500" style="stroke:#444444;stroke-width:0.5;"/><path d="M693.6372,347.96 L693.6372,352.96 A5,5 0 0 0 698.6372,357.96 L703.6372,357.96 L693.6372,347.96" fill="#FFA500" style="stroke:#444444;stroke-width:1;"/><text fill="#000000" font-family="Sans-Serif" font-size="13" lengthAdjust="spacing" textLength="36.0928" x="512.02" y="365.0269">Major</text><text fill="#000000" font-family="Sans-Serif" font-size="13" lengthAdjust="spacing" textLength="4.1323" x="548.1128" y="365.0269">&#160;</text><text fill="#000000" font-family="Sans-Serif" font-size="13" lengthAdjust="spacing" textLength="23.5498" x="552.2451" y="365.0269">city</text><text fill="#000000" font-family="Sans-Serif" font-size="13" lengthAdjust="spacing" textLength="4.1323" x="575.7949" y="365.0269">&#160;</text><text fill="#000000" font-family="Sans-Serif" font-size="13" lengthAdjust="spacing" textLength="11.8511" x="579.9272" y="365.0269">in</text><text fill="#000000" font-family="Sans-Serif" font-size="13" lengthAdjust="spacing" textLength="4.1323" x="591.7783" y="365.0269">&#160;</text><text fill="#000000" font-family="Sans-Serif" font-size="13" lengthAdjust="spacing" textLength="47.1948" x="595.9106" y="365.0269">Ladakh</text><text fill="#000000" font-family="Sans-Serif" font-size="13" lengthAdjust="spacing" textLength="4.1323" x="643.1054" y="365.0269">&#160;</text><text fill="#000000" font-family="Sans-Serif" font-size="13" lengthAdjust="spacing" textLength="41.3994" x="647.2378" y="365.0269">region</text></g><g class="entity" data-entity="GMN31" data-source-line="65" data-uid="ent0032" id="entity_GMN31"><path d="M249.28,357.96 L249.28,363.0928 A10,10 0 0 0 259.28,373.0928 L446.3742,373.0928 A10,10 0 0 0 456.3742,363.0928 L456.3742,357.96 L446.3742,347.96 L259.28,347.96 A10,10 0 0 0 249.28,357.96" fill="#FFA500" style="stroke:#444444;stroke-width:0.5;"/><path d="M446.3742,347.96 L446.3742,352.96 A5,5 0 0 0 451.3742,357.96 L456.3742,357.96 L446.3742,347.96" fill="#FFA500" style="stroke:#444444;stroke-width:1;"/><text fill="#000000" font-family="Sans-Serif" font-size="13" lengthAdjust="spacing" textLength="24.2163" x="255.28" y="365.0269">Key</text><text fill="#000000" font-family="Sans-Serif" font-size="13" lengthAdjust="spacing" textLength="4.1323" x="279.4963" y="365.0269">&#160;</text><text fill="#000000" font-family="Sans-Serif" font-size="13" lengthAdjust="spacing" textLength="41.3994" x="283.6286" y="365.0269">region</text><text fill="#000000" font-family="Sans-Serif" font-size="13" lengthAdjust="spacing" textLength="4.1323" x="325.028" y="365.0269">&#160;</text><text fill="#000000" font-family="Sans-Serif" font-size="13" lengthAdjust="spacing" textLength="11.8511" x="329.1604" y="365.0269">in</text><text fill="#000000" font-family="Sans-Serif" font-size="13" lengthAdjust="spacing" textLength="4.1323" x="341.0114" y="365.0269">&#160;</text><text fill="#000000" font-family="Sans-Serif" font-size="13" lengthAdjust="spacing" textLength="96.2305" x="345.1438" y="365.0269">Gilgit-Baltistan</text></g><g class="entity" data-entity="GMN34" data-source-line="69" data-uid="ent0035" id="entity_GMN34"><path d="M1714.81,350.39 L1714.81,370.6556 A10,10 0 0 0 1724.81,380.6556 L1874.8403,380.6556 A10,10 0 0 0 1884.8403,370.6556 L1884.8403,350.39 L1874.8403,340.39 L1724.81,340.39 A10,10 0 0 0 1714.81,350.39" fill="#FFA500" style="stroke:#444444;stroke-width:0.5;"/><path d="M1874.8403,340.39 L1874.8403,345.39 A5,5 0 0 0 1879.8403,350.39 L1884.8403,350.39 L1874.8403,340.39" fill="#FFA500" style="stroke:#444444;stroke-width:1;"/><text fill="#000000" font-family="Sans-Serif" font-size="13" lengthAdjust="spacing" textLength="39.7744" x="1720.81" y="357.4569">Valley</text><text fill="#000000" font-family="Sans-Serif" font-size="13" lengthAdjust="spacing" textLength="4.1323" x="1760.5844" y="357.4569">&#160;</text><text fill="#000000" font-family="Sans-Serif" font-size="13" lengthAdjust="spacing" textLength="48.0264" x="1764.7167" y="357.4569">located</text><text fill="#000000" font-family="Sans-Serif" font-size="13" lengthAdjust="spacing" textLength="4.1323" x="1812.7431" y="357.4569">&#160;</text><text fill="#000000" font-family="Sans-Serif" font-size="13" lengthAdjust="spacing" textLength="36.3022" x="1816.8754" y="357.4569">south</text><text fill="#000000" font-family="Sans-Serif" font-size="13" lengthAdjust="spacing" textLength="4.1323" x="1853.1777" y="357.4569">&#160;</text><text fill="#000000" font-family="Sans-Serif" font-size="13" lengthAdjust="spacing" textLength="12.5303" x="1857.31" y="357.4569">of</text><text fill="#000000" font-family="Sans-Serif" font-size="13" lengthAdjust="spacing" textLength="51.4541" x="1744.655" y="372.5897">Siachen</text><text fill="#000000" font-family="Sans-Serif" font-size="13" lengthAdjust="spacing" textLength="4.1323" x="1796.1091" y="372.5897">&#160;</text><text fill="#000000" font-family="Sans-Serif" font-size="13" lengthAdjust="spacing" textLength="45.7539" x="1800.2414" y="372.5897">Glacier</text></g><g class="entity" data-entity="GMN37" data-source-line="74" data-uid="ent0038" id="entity_GMN37"><path d="M49.84,126.26 L49.84,146.5256 A10,10 0 0 0 59.84,156.5256 L144.82,156.5256 L148.82,226.3 L152.82,156.5256 L237.8063,156.5256 A10,10 0 0 0 247.8063,146.5256 L247.8063,126.26 L237.8063,116.26 L59.84,116.26 A10,10 0 0 0 49.84,126.26" fill="#FFA500" style="stroke:#444444;stroke-width:0.5;"/><path d="M237.8063,116.26 L237.8063,121.26 A5,5 0 0 0 242.8063,126.26 L247.8063,126.26 L237.8063,116.26" fill="#FFA500" style="stroke:#444444;stroke-width:0.5;"/><text fill="#000000" font-family="Sans-Serif" font-size="13" lengthAdjust="spacing" textLength="50.4639" x="55.84" y="133.3269">Primary</text><text fill="#000000" font-family="Sans-Serif" font-size="13" lengthAdjust="spacing" textLength="4.1323" x="106.3039" y="133.3269">&#160;</text><text fill="#000000" font-family="Sans-Serif" font-size="13" lengthAdjust="spacing" textLength="38.2446" x="110.4362" y="133.3269">driver</text><text fill="#000000" font-family="Sans-Serif" font-size="13" lengthAdjust="spacing" textLength="4.1323" x="148.6808" y="133.3269">&#160;</text><text fill="#000000" font-family="Sans-Serif" font-size="13" lengthAdjust="spacing" textLength="12.5303" x="152.8131" y="133.3269">of</text><text fill="#000000" font-family="Sans-Serif" font-size="13" lengthAdjust="spacing" textLength="4.1323" x="165.3434" y="133.3269">&#160;</text><text fill="#000000" font-family="Sans-Serif" font-size="13" lengthAdjust="spacing" textLength="63.3306" x="169.4757" y="133.3269">increased</text><text fill="#000000" font-family="Sans-Serif" font-size="13" lengthAdjust="spacing" textLength="42.1675" x="96.4364" y="148.4597">glacial</text><text fill="#000000" font-family="Sans-Serif" font-size="13" lengthAdjust="spacing" textLength="4.1323" x="138.6039" y="148.4597">&#160;</text><text fill="#000000" font-family="Sans-Serif" font-size="13" lengthAdjust="spacing" textLength="49.4736" x="142.7362" y="148.4597">melting</text></g><g class="entity" data-entity="GMN40" data-source-line="79" data-uid="ent0041" id="entity_GMN40"><path d="M148.64,468.22 L148.64,488.4856 A10,10 0 0 0 158.64,498.4856 L331.014,498.4856 A10,10 0 0 0 341.014,488.4856 L341.014,468.22 L331.014,458.22 L178.2,458.22 L174.2,378.94 L170.2,458.22 L158.64,458.22 A10,10 0 0 0 148.64,468.22" fill="#FFA500" style="stroke:#444444;stroke-width:0.5;"/><path d="M331.014,458.22 L331.014,463.22 A5,5 0 0 0 336.014,468.22 L341.014,468.22 L331.014,458.22" fill="#FFA500" style="stroke:#444444;stroke-width:0.5;"/><text fill="#000000" font-family="Sans-Serif" font-size="13" lengthAdjust="spacing" textLength="48.0264" x="154.64" y="475.2869">Melting</text><text fill="#000000" font-family="Sans-Serif" font-size="13" lengthAdjust="spacing" textLength="4.1323" x="202.6664" y="475.2869">&#160;</text><text fill="#000000" font-family="Sans-Serif" font-size="13" lengthAdjust="spacing" textLength="50.2417" x="206.7987" y="475.2869">process</text><text fill="#000000" font-family="Sans-Serif" font-size="13" lengthAdjust="spacing" textLength="4.1323" x="257.0404" y="475.2869">&#160;</text><text fill="#000000" font-family="Sans-Serif" font-size="13" lengthAdjust="spacing" textLength="64.8413" x="261.1727" y="475.2869">impacting</text><text fill="#000000" font-family="Sans-Serif" font-size="13" lengthAdjust="spacing" textLength="21.3345" x="189.0094" y="490.4197">the</text><text fill="#000000" font-family="Sans-Serif" font-size="13" lengthAdjust="spacing" textLength="4.1323" x="210.3439" y="490.4197">&#160;</text><text fill="#000000" font-family="Sans-Serif" font-size="13" lengthAdjust="spacing" textLength="54.2788" x="214.4762" y="490.4197">glacier's</text><text fill="#000000" font-family="Sans-Serif" font-size="13" lengthAdjust="spacing" textLength="4.1323" x="268.755" y="490.4197">&#160;</text><text fill="#000000" font-family="Sans-Serif" font-size="13" lengthAdjust="spacing" textLength="18.7573" x="272.8873" y="490.4197">ice</text></g><g class="entity" data-entity="GMN43" data-source-line="84" data-uid="ent0044" id="entity_GMN43"><path d="M390.71,468.22 L390.71,488.4856 A10,10 0 0 0 400.71,498.4856 L586.941,498.4856 A10,10 0 0 0 596.941,488.4856 L596.941,468.22 L586.941,458.22 L400.71,458.22 A10,10 0 0 0 390.71,468.22" fill="#FFA500" style="stroke:#444444;stroke-width:0.5;"/><path d="M586.941,458.22 L586.941,463.22 A5,5 0 0 0 591.941,468.22 L596.941,468.22 L586.941,458.22" fill="#FFA500" style="stroke:#444444;stroke-width:1;"/><text fill="#000000" font-family="Sans-Serif" font-size="13" lengthAdjust="spacing" textLength="51.7334" x="396.71" y="475.2869">Impacts</text><text fill="#000000" font-family="Sans-Serif" font-size="13" lengthAdjust="spacing" textLength="4.1323" x="448.4434" y="475.2869">&#160;</text><text fill="#000000" font-family="Sans-Serif" font-size="13" lengthAdjust="spacing" textLength="30.291" x="452.5757" y="475.2869">local</text><text fill="#000000" font-family="Sans-Serif" font-size="13" lengthAdjust="spacing" textLength="4.1323" x="482.8667" y="475.2869">&#160;</text><text fill="#000000" font-family="Sans-Serif" font-size="13" lengthAdjust="spacing" textLength="37.0386" x="486.9991" y="475.2869">water</text><text fill="#000000" font-family="Sans-Serif" font-size="13" lengthAdjust="spacing" textLength="4.1323" x="524.0376" y="475.2869">&#160;</text><text fill="#000000" font-family="Sans-Serif" font-size="13" lengthAdjust="spacing" textLength="53.771" x="528.17" y="475.2869">systems</text><text fill="#000000" font-family="Sans-Serif" font-size="13" lengthAdjust="spacing" textLength="24.4575" x="443.2447" y="490.4197">and</text><text fill="#000000" font-family="Sans-Serif" font-size="13" lengthAdjust="spacing" textLength="4.1323" x="467.7022" y="490.4197">&#160;</text><text fill="#000000" font-family="Sans-Serif" font-size="13" lengthAdjust="spacing" textLength="63.5718" x="471.8345" y="490.4197">resources</text></g><!--reverse link Himalayan Glaciers to Siachen Glacier--><g class="link" data-entity-1="Himalayan Glaciers" data-entity-2="Siachen Glacier" data-source-line="36" data-uid="lnk11" id="link_Himalayan Glaciers_Siachen Glacier"><path codeLine="36" d="M1072.82,166.76 C1072.82,186.68 1072.82,206.27 1072.82,226.22" fill="none" id="Himalayan Glaciers-backto-Siachen Glacier" style="stroke:#FFFFFF;stroke-width:1.5;"/><polygon fill="none" points="1072.82,154.76,1068.82,160.76,1072.82,166.76,1076.82,160.76,1072.82,154.76" style="stroke:#FFFFFF;stroke-width:1.5;"/></g><!--link Siachen Glacier to Aksai Chin--><g class="link" data-entity-1="Siachen Glacier" data-entity-2="Aksai Chin" data-source-line="37" data-uid="lnk12" id="link_Siachen Glacier_Aksai Chin"><path codeLine="37" d="M1133.78,263.29 C1133.78,284.91 1133.78,314.36 1133.78,335.96" fill="none" id="Siachen Glacier-to-Aksai Chin" style="stroke:#FFFFFF;stroke-width:1.5;"/><polygon fill="#FFFFFF" points="1133.78,341.96,1137.78,332.96,1133.78,336.96,1129.78,332.96,1133.78,341.96" style="stroke:#FFFFFF;stroke-width:1.5;"/></g><!--link Siachen Glacier to Leh--><g class="link" data-entity-1="Siachen Glacier" data-entity-2="Leh" data-source-line="38" data-uid="lnk13" id="link_Siachen Glacier_Leh"><path codeLine="38" d="M1137.62,251.49 C1203.47,251.49 1295.82,251.49 1295.82,251.49 C1295.82,251.49 1295.82,304.92 1295.82,336.03" fill="none" id="Siachen Glacier-to-Leh" style="stroke:#FFFFFF;stroke-width:1.5;"/><polygon fill="#FFFFFF" points="1295.82,342.03,1299.82,333.03,1295.82,337.03,1291.82,333.03,1295.82,342.03" style="stroke:#FFFFFF;stroke-width:1.5;"/></g><!--link Siachen Glacier to Gilgit--><g class="link" data-entity-1="Siachen Glacier" data-entity-2="Gilgit" data-source-line="39" data-uid="lnk14" id="link_Siachen Glacier_Gilgit"><path codeLine="39" d="M1007.88,251.49 C922.12,251.49 781.82,251.49 781.82,251.49 C781.82,251.49 781.82,304.92 781.82,336.03" fill="none" id="Siachen Glacier-to-Gilgit" style="stroke:#FFFFFF;stroke-width:1.5;"/><polygon fill="#FFFFFF" points="781.82,342.03,785.82,333.03,781.82,337.03,777.82,333.03,781.82,342.03" style="stroke:#FFFFFF;stroke-width:1.5;"/></g><!--link Siachen Glacier to Nubra Valley--><g class="link" data-entity-1="Siachen Glacier" data-entity-2="Nubra Valley" data-source-line="40" data-uid="lnk15" id="link_Siachen Glacier_Nubra Valley"><path codeLine="40" d="M1137.61,239.49 C1239.03,239.49 1423.82,239.49 1423.82,239.49 C1423.82,239.49 1423.82,301.93 1423.82,335.88" fill="none" id="Siachen Glacier-to-Nubra Valley" style="stroke:#FFFFFF;stroke-width:1.5;"/><polygon fill="#FFFFFF" points="1423.82,341.88,1427.82,332.88,1423.82,336.88,1419.82,332.88,1423.82,341.88" style="stroke:#FFFFFF;stroke-width:1.5;"/></g><!--link Siachen Glacier to Glacial Melt--><g class="link" data-entity-1="Siachen Glacier" data-entity-2="Glacial Melt" data-source-line="41" data-uid="lnk16" id="link_Siachen Glacier_Glacial Melt"><path codeLine="41" d="M1007.84,239.49 C810.45,239.49 231.3,239.49 231.3,239.49 C231.3,239.49 231.3,361.49 231.3,361.49 C231.3,361.49 222.89,361.49 206.12,361.49" fill="none" id="Siachen Glacier-to-Glacial Melt" style="stroke:#FFFFFF;stroke-width:1.5;"/><polygon fill="#FFFFFF" points="200.12,361.49,209.12,365.49,205.12,361.49,209.12,357.49,200.12,361.49" style="stroke:#FFFFFF;stroke-width:1.5;"/></g><!--link Climate Change to Glacial Melt--><g class="link" data-entity-1="Climate Change" data-entity-2="Glacial Melt" data-source-line="42" data-uid="lnk17" id="link_Climate Change_Glacial Melt"><path codeLine="42" d="M148.82,263.29 C148.82,284.91 148.82,314.36 148.82,335.96" fill="none" id="Climate Change-to-Glacial Melt" style="stroke:#FFFFFF;stroke-width:1.5;"/><polygon fill="#FFFFFF" points="148.82,341.96,152.82,332.96,148.82,336.96,144.82,332.96,148.82,341.96" style="stroke:#FFFFFF;stroke-width:1.5;"/></g><!--link Glacial Melt to Hydrology--><g class="link" data-entity-1="Glacial Melt" data-entity-2="Hydrology" data-source-line="43" data-uid="lnk18" id="link_Glacial Melt_Hydrology"><path codeLine="43" d="M97.39,361.49 C91.68,361.49 87.87,361.49 87.87,361.49 C87.87,361.49 87.87,420.89 87.87,453.84" fill="none" id="Glacial Melt-to-Hydrology" style="stroke:#FFFFFF;stroke-width:1.5;"/><polygon fill="#FFFFFF" points="87.87,459.84,91.87,450.84,87.87,454.84,83.87,450.84,87.87,459.84" style="stroke:#FFFFFF;stroke-width:1.5;"/></g><!--link Aksai Chin to GMN25--><g class="link" data-entity-1="Aksai Chin" data-entity-2="GMN25" data-source-line="56" data-uid="lnk27" id="link_Aksai Chin_GMN25"><path d="M1191.96,341.93 C1191.96,339.31 1191.96,337.49 1191.96,337.49 C1191.96,337.49 1412.63,337.49 1528.14,337.49" fill="none" id="Aksai Chin-GMN25" style="stroke:#FFFFFF;stroke-width:1.5;stroke-dasharray:7.0,7.0;"/></g><!--link GMN28 to Leh--><g class="link" data-entity-1="GMN28" data-entity-2="Leh" data-source-line="61" data-uid="lnk30" id="link_GMN28_Leh"><path d="M650.29,373.35 C650.29,378.61 650.29,383.49 650.29,383.49 C650.29,383.49 1295.82,383.49 1295.82,383.49 C1295.82,383.49 1295.82,381.67 1295.82,379.06" fill="none" id="GMN28-Leh" style="stroke:#FFFFFF;stroke-width:1.5;stroke-dasharray:7.0,7.0;"/></g><!--link GMN31 to Gilgit--><g class="link" data-entity-1="GMN31" data-entity-2="Gilgit" data-source-line="65" data-uid="lnk33" id="link_GMN31_Gilgit"><path d="M434.48,373.51 C434.48,380 434.48,386.49 434.48,386.49 C434.48,386.49 781.82,386.49 781.82,386.49 C781.82,386.49 781.82,383.28 781.82,379.12" fill="none" id="GMN31-Gilgit" style="stroke:#FFFFFF;stroke-width:1.5;stroke-dasharray:7.0,7.0;"/></g><!--link Nubra Valley to GMN34--><g class="link" data-entity-1="Nubra Valley" data-entity-2="GMN34" data-source-line="69" data-uid="lnk36" id="link_Nubra Valley_GMN34"><path d="M1423.82,379.06 C1423.82,401.26 1423.82,435.49 1423.82,435.49 C1423.82,435.49 1799.82,435.49 1799.82,435.49 C1799.82,435.49 1799.82,403.21 1799.82,381.01" fill="none" id="Nubra Valley-GMN34" style="stroke:#FFFFFF;stroke-width:1.5;stroke-dasharray:7.0,7.0;"/></g><!--link Hydrology to GMN43--><g class="link" data-entity-1="Hydrology" data-entity-2="GMN43" data-source-line="84" data-uid="lnk45" id="link_Hydrology_GMN43"><path d="M92.87,460.01 C92.87,440.52 92.87,412.49 92.87,412.49 C92.87,412.49 412.6,412.49 412.6,412.49 C412.6,412.49 412.6,438.54 412.6,457.88" fill="none" id="Hydrology-GMN43" style="stroke:#FFFFFF;stroke-width:1.5;stroke-dasharray:7.0,7.0;"/></g><!--SRC=[ZPLDJzj048Rl_XMZSE2KbduWe198IKgWAY3Ke7AUs1DxclMkjRjfyB_lU6sGxTXjVKYYcNVduvdn1fKo-vnVMAUHsx8kq68EQuotgJKxdIoCCXQEFeMdfL2ioPS5WR4-Cos7DWavAk3qf6MqgBULyQnjpCavJ6ccEDKvQG-nV91jAHBQu4xv9thnVr5fusbkR4AsAVPpUFgAValBvUpqf5tFp5gphvtxZ3trNKyPnrijHSE7TwSjvzvYySo9p-1Z9rvJ_T9e_u0vmMI5sarNP7apwHNtBqrJjzLa9KdBuJ9Cp5w61njKZeQprpsjbH0Oo3lijHHxrAdw7qaRVaqkEeO5UagDBR_0REsynTZ3mkYO2k_WFToGIGMR44K5rzgpPtBHMqIOt7AE2alKS2DfcQoRmD7vsUBwUjwMhHZZZDv4WvhPrY738cCzwBwZRD1-mofbF-XwsAqjmazKYif1mK99-PuagHXeK79R9bQ8fQq07MgFriIoQrqgeKqXTa-ggkpYV3c_EA_E_I25ders6HSk6gHdfjD3Nj4XmUdqgiDiJ59n6_CrxCRS7NwZCTgzHWT8XpHTF9UNLstC5QQLBA80vZXiFnIYft2fRAhz5cIoe55mULE0sGpkOGHmXpObu9WWnsf6m1fyHl2gTX7f9EI8wd1huxt9GyI34G0y6wkIOmUEOYFdb94EdOUqLeZ0xBpZH0es2gsyU6arwduEosdcGuhsz02-iYjsdXAGQzEob-q2J7BMxCH0YIZMPH1ZFwAYJHqmp1hW7dy9fvXzMJLyXmbkiwQQqQElgm3mdSf6N9skxTCvAY-5e1xlfhijqFmIIZ5MNJc1aubGF3sq_P2lC-sjaXnyj68HBedbttB5YeXrR0bTm9CsQvNBMbN_a-EpxUuZXE_gSYxgbnauB-GYh690s9TcmZ9wsQLn0gqb1lWMOhZGluAzD6B1bJBBt8aN9OObOM8buLl4Fm00]--></g></svg>