<svg xmlns="http://www.w3.org/2000/svg" xmlns:xlink="http://www.w3.org/1999/xlink" contentStyleType="text/css" data-diagram-type="CLASS" height="258px" preserveAspectRatio="none" style="width:2536px;height:258px;background:#333333;" version="1.1" viewBox="0 0 2536 258" width="2536px" zoomAndPan="magnify"><defs/><g><rect fill="#333333" height="258" style="stroke:none;stroke-width:1;" width="2536" x="0" y="0"/><!--entity Dhruv--><g class="entity" data-entity="Dhruv" data-source-line="23" data-uid="ent0002" id="entity_Dhruv"><rect fill="#98FB98" height="36.2969" rx="10" ry="10" style="stroke:#FFFFFF;stroke-width:0.5;" width="62.5674" x="276.68" y="7.99"/><text fill="#000000" font-family="Sans-Serif" font-size="14" lengthAdjust="spacing" textLength="42.5674" x="286.68" y="30.9851">Dhruv</text></g><!--entity Ground Operations--><g class="entity" data-entity="Ground Operations" data-source-line="24" data-uid="ent0003" id="entity_Ground Operations"><rect fill="#98FB98" height="36.2969" rx="10" ry="10" style="stroke:#FFFFFF;stroke-width:0.5;" width="153.2188" x="235.35" y="116.27"/><text fill="#000000" font-family="Sans-Serif" font-size="14" lengthAdjust="spacing" textLength="51.8027" x="245.35" y="139.2651">Ground</text><text fill="#000000" font-family="Sans-Serif" font-size="14" lengthAdjust="spacing" textLength="4.4502" x="297.1527" y="139.2651">&#160;</text><text fill="#000000" font-family="Sans-Serif" font-size="14" lengthAdjust="spacing" textLength="76.9658" x="301.6029" y="139.2651">Operations</text></g><!--entity Aerial Reconnaissance--><g class="entity" data-entity="Aerial Reconnaissance" data-source-line="25" data-uid="ent0004" id="entity_Aerial Reconnaissance"><rect fill="#98FB98" height="36.2969" rx="10" ry="10" style="stroke:#FFFFFF;stroke-width:0.5;" width="177.9238" x="7" y="116.27"/><text fill="#000000" font-family="Sans-Serif" font-size="14" lengthAdjust="spacing" textLength="40.3047" x="17" y="139.2651">Aerial</text><text fill="#000000" font-family="Sans-Serif" font-size="14" lengthAdjust="spacing" textLength="4.4502" x="57.3047" y="139.2651">&#160;</text><text fill="#000000" font-family="Sans-Serif" font-size="14" lengthAdjust="spacing" textLength="113.1689" x="61.7549" y="139.2651">Reconnaissance</text></g><!--entity Underwater Warfare--><g class="entity" data-entity="Underwater Warfare" data-source-line="26" data-uid="ent0005" id="entity_Underwater Warfare"><rect fill="#98FB98" height="36.2969" rx="10" ry="10" style="stroke:#FFFFFF;stroke-width:0.5;" width="162.7686" x="2147.58" y="116.27"/><text fill="#000000" font-family="Sans-Serif" font-size="14" lengthAdjust="spacing" textLength="82.2637" x="2157.58" y="139.2651">Underwater</text><text fill="#000000" font-family="Sans-Serif" font-size="14" lengthAdjust="spacing" textLength="4.4502" x="2239.8437" y="139.2651">&#160;</text><text fill="#000000" font-family="Sans-Serif" font-size="14" lengthAdjust="spacing" textLength="56.0547" x="2244.2939" y="139.2651">Warfare</text></g><!--entity Aircraft Warship--><g class="entity" data-entity="Aircraft Warship" data-source-line="29" data-uid="ent0006" id="entity_Aircraft Warship"><rect fill="#F5DEB3" height="36.2969" rx="10" ry="10" style="stroke:#FFFFFF;stroke-width:0.5;" width="133.2441" x="1143.34" y="7.99"/><text fill="#000000" font-family="Sans-Serif" font-size="14" lengthAdjust="spacing" textLength="51.6729" x="1153.34" y="30.9851">Aircraft</text><text fill="#000000" font-family="Sans-Serif" font-size="14" lengthAdjust="spacing" textLength="4.4502" x="1205.0129" y="30.9851">&#160;</text><text fill="#000000" font-family="Sans-Serif" font-size="14" lengthAdjust="spacing" textLength="57.1211" x="1209.463" y="30.9851">Warship</text></g><!--entity Missile Submarine--><g class="entity" data-entity="Missile Submarine" data-source-line="30" data-uid="ent0007" id="entity_Missile Submarine"><rect fill="#F5DEB3" height="36.2969" rx="10" ry="10" style="stroke:#FFFFFF;stroke-width:0.5;" width="147.3945" x="1914.26" y="7.99"/><text fill="#000000" font-family="Sans-Serif" font-size="14" lengthAdjust="spacing" textLength="46.9492" x="1924.26" y="30.9851">Missile</text><text fill="#000000" font-family="Sans-Serif" font-size="14" lengthAdjust="spacing" textLength="4.4502" x="1971.2092" y="30.9851">&#160;</text><text fill="#000000" font-family="Sans-Serif" font-size="14" lengthAdjust="spacing" textLength="75.9951" x="1975.6594" y="30.9851">Submarine</text></g><!--entity ICBM--><g class="entity" data-entity="ICBM" data-source-line="31" data-uid="ent0008" id="entity_ICBM"><rect fill="#F5DEB3" height="36.2969" rx="10" ry="10" style="stroke:#FFFFFF;stroke-width:0.5;" width="55.5879" x="1764.17" y="7.99"/><text fill="#000000" font-family="Sans-Serif" font-size="14" lengthAdjust="spacing" textLength="35.5879" x="1774.17" y="30.9851">ICBM</text></g><!--entity Tactical Operations--><g class="entity" data-entity="Tactical Operations" data-source-line="34" data-uid="ent0009" id="entity_Tactical Operations"><rect fill="#E6E6FA" height="36.2969" rx="10" ry="10" style="stroke:#FFFFFF;stroke-width:0.5;" width="155.7891" x="650.07" y="116.27"/><text fill="#000000" font-family="Sans-Serif" font-size="14" lengthAdjust="spacing" textLength="54.373" x="660.07" y="139.2651">Tactical</text><text fill="#000000" font-family="Sans-Serif" font-size="14" lengthAdjust="spacing" textLength="4.4502" x="714.443" y="139.2651">&#160;</text><text fill="#000000" font-family="Sans-Serif" font-size="14" lengthAdjust="spacing" textLength="76.9658" x="718.8932" y="139.2651">Operations</text></g><!--entity Naval Power--><g class="entity" data-entity="Naval Power" data-source-line="35" data-uid="ent0010" id="entity_Naval Power"><rect fill="#E6E6FA" height="36.2969" rx="10" ry="10" style="stroke:#FFFFFF;stroke-width:0.5;" width="107.083" x="1044.42" y="116.27"/><text fill="#000000" font-family="Sans-Serif" font-size="14" lengthAdjust="spacing" textLength="39.8057" x="1054.42" y="139.2651">Naval</text><text fill="#000000" font-family="Sans-Serif" font-size="14" lengthAdjust="spacing" textLength="4.4502" x="1094.2257" y="139.2651">&#160;</text><text fill="#000000" font-family="Sans-Serif" font-size="14" lengthAdjust="spacing" textLength="42.8271" x="1098.6759" y="139.2651">Power</text></g><!--entity Strategic Deterrence--><g class="entity" data-entity="Strategic Deterrence" data-source-line="36" data-uid="ent0011" id="entity_Strategic Deterrence"><rect fill="#E6E6FA" height="36.2969" rx="10" ry="10" style="stroke:#FFFFFF;stroke-width:0.5;" width="166.542" x="1662.69" y="116.27"/><text fill="#000000" font-family="Sans-Serif" font-size="14" lengthAdjust="spacing" textLength="63.2871" x="1672.69" y="139.2651">Strategic</text><text fill="#000000" font-family="Sans-Serif" font-size="14" lengthAdjust="spacing" textLength="4.4502" x="1735.9771" y="139.2651">&#160;</text><text fill="#000000" font-family="Sans-Serif" font-size="14" lengthAdjust="spacing" textLength="78.8047" x="1740.4273" y="139.2651">Deterrence</text></g><g class="entity" data-entity="GMN20" data-source-line="53" data-uid="ent0021" id="entity_GMN20"><path d="M389.49,23.57 L389.49,22.7 L339.37,26.7 L389.49,30.7 L389.49,28.7028 A10,10 0 0 0 399.49,38.7028 L572.429,38.7028 A10,10 0 0 0 582.429,28.7028 L582.429,23.57 L572.429,13.57 L399.49,13.57 A10,10 0 0 0 389.49,23.57" fill="#FFA500" style="stroke:#444444;stroke-width:0.5;"/><path d="M572.429,13.57 L572.429,18.57 A5,5 0 0 0 577.429,23.57 L582.429,23.57 L572.429,13.57" fill="#FFA500" style="stroke:#444444;stroke-width:0.5;"/><text fill="#000000" font-family="Sans-Serif" font-size="13" lengthAdjust="spacing" textLength="64.4414" x="395.49" y="30.6369">Advanced</text><text fill="#000000" font-family="Sans-Serif" font-size="13" lengthAdjust="spacing" textLength="4.1323" x="459.9314" y="30.6369">&#160;</text><text fill="#000000" font-family="Sans-Serif" font-size="13" lengthAdjust="spacing" textLength="32.4429" x="464.0637" y="30.6369">Light</text><text fill="#000000" font-family="Sans-Serif" font-size="13" lengthAdjust="spacing" textLength="4.1323" x="496.5066" y="30.6369">&#160;</text><text fill="#000000" font-family="Sans-Serif" font-size="13" lengthAdjust="spacing" textLength="66.79" x="500.6389" y="30.6369">Helicopter</text></g><g class="entity" data-entity="GMN23" data-source-line="57" data-uid="ent0024" id="entity_GMN23"><path d="M632.79,23.57 L632.79,28.7028 A10,10 0 0 0 642.79,38.7028 L749.93,38.7028 L753.93,115.79 L757.93,38.7028 L819.125,38.7028 A10,10 0 0 0 829.125,28.7028 L829.125,23.57 L819.125,13.57 L642.79,13.57 A10,10 0 0 0 632.79,23.57" fill="#FFA500" style="stroke:#444444;stroke-width:0.5;"/><path d="M819.125,13.57 L819.125,18.57 A5,5 0 0 0 824.125,23.57 L829.125,23.57 L819.125,13.57" fill="#FFA500" style="stroke:#444444;stroke-width:0.5;"/><text fill="#000000" font-family="Sans-Serif" font-size="13" lengthAdjust="spacing" textLength="70.6812" x="638.79" y="30.6369">Short-term</text><text fill="#000000" font-family="Sans-Serif" font-size="13" lengthAdjust="spacing" textLength="4.1323" x="709.4712" y="30.6369">&#160;</text><text fill="#000000" font-family="Sans-Serif" font-size="13" lengthAdjust="spacing" textLength="49.6006" x="713.6035" y="30.6369">military</text><text fill="#000000" font-family="Sans-Serif" font-size="13" lengthAdjust="spacing" textLength="4.1323" x="763.2041" y="30.6369">&#160;</text><text fill="#000000" font-family="Sans-Serif" font-size="13" lengthAdjust="spacing" textLength="46.7886" x="767.3364" y="30.6369">actions</text></g><g class="entity" data-entity="GMN26" data-source-line="61" data-uid="ent0027" id="entity_GMN26"><path d="M225.66,232.57 L225.66,237.7028 A10,10 0 0 0 235.66,247.7028 L388.2611,247.7028 A10,10 0 0 0 398.2611,237.7028 L398.2611,232.57 L388.2611,222.57 L315.96,222.57 L311.96,152.89 L307.96,222.57 L235.66,222.57 A10,10 0 0 0 225.66,232.57" fill="#FFA500" style="stroke:#444444;stroke-width:0.5;"/><path d="M388.2611,222.57 L388.2611,227.57 A5,5 0 0 0 393.2611,232.57 L398.2611,232.57 L388.2611,222.57" fill="#FFA500" style="stroke:#444444;stroke-width:0.5;"/><text fill="#000000" font-family="Sans-Serif" font-size="13" lengthAdjust="spacing" textLength="48.1533" x="231.66" y="239.6369">Military</text><text fill="#000000" font-family="Sans-Serif" font-size="13" lengthAdjust="spacing" textLength="4.1323" x="279.8133" y="239.6369">&#160;</text><text fill="#000000" font-family="Sans-Serif" font-size="13" lengthAdjust="spacing" textLength="46.7886" x="283.9456" y="239.6369">actions</text><text fill="#000000" font-family="Sans-Serif" font-size="13" lengthAdjust="spacing" textLength="4.1323" x="330.7342" y="239.6369">&#160;</text><text fill="#000000" font-family="Sans-Serif" font-size="13" lengthAdjust="spacing" textLength="16.1929" x="334.8665" y="239.6369">on</text><text fill="#000000" font-family="Sans-Serif" font-size="13" lengthAdjust="spacing" textLength="4.1323" x="351.0594" y="239.6369">&#160;</text><text fill="#000000" font-family="Sans-Serif" font-size="13" lengthAdjust="spacing" textLength="28.0693" x="355.1917" y="239.6369">land</text></g><g class="entity" data-entity="GMN29" data-source-line="65" data-uid="ent0030" id="entity_GMN29"><path d="M438.89,131.85 L438.89,136.9828 A10,10 0 0 0 448.89,146.9828 L583.0257,146.9828 A10,10 0 0 0 593.0257,136.9828 L593.0257,131.85 L583.0257,121.85 L448.89,121.85 A10,10 0 0 0 438.89,131.85" fill="#FFA500" style="stroke:#444444;stroke-width:0.5;"/><path d="M583.0257,121.85 L583.0257,126.85 A5,5 0 0 0 588.0257,131.85 L593.0257,131.85 L583.0257,121.85" fill="#FFA500" style="stroke:#444444;stroke-width:1;"/><text fill="#000000" font-family="Sans-Serif" font-size="13" lengthAdjust="spacing" textLength="44.7192" x="444.89" y="138.9169">Gather</text><text fill="#000000" font-family="Sans-Serif" font-size="13" lengthAdjust="spacing" textLength="4.1323" x="489.6092" y="138.9169">&#160;</text><text fill="#000000" font-family="Sans-Serif" font-size="13" lengthAdjust="spacing" textLength="28.5581" x="493.7416" y="138.9169">intel</text><text fill="#000000" font-family="Sans-Serif" font-size="13" lengthAdjust="spacing" textLength="4.1323" x="522.2997" y="138.9169">&#160;</text><text fill="#000000" font-family="Sans-Serif" font-size="13" lengthAdjust="spacing" textLength="30.5386" x="526.432" y="138.9169">from</text><text fill="#000000" font-family="Sans-Serif" font-size="13" lengthAdjust="spacing" textLength="4.1323" x="556.9706" y="138.9169">&#160;</text><text fill="#000000" font-family="Sans-Serif" font-size="13" lengthAdjust="spacing" textLength="16.9229" x="561.1029" y="138.9169">air</text></g><g class="entity" data-entity="GMN32" data-source-line="69" data-uid="ent0033" id="entity_GMN32"><path d="M1326.85,23.57 L1326.85,22.7 L1276.87,26.7 L1326.85,30.7 L1326.85,28.7028 A10,10 0 0 0 1336.85,38.7028 L1475.08,38.7028 A10,10 0 0 0 1485.08,28.7028 L1485.08,23.57 L1475.08,13.57 L1336.85,13.57 A10,10 0 0 0 1326.85,23.57" fill="#FFA500" style="stroke:#444444;stroke-width:0.5;"/><path d="M1475.08,13.57 L1475.08,18.57 A5,5 0 0 0 1480.08,23.57 L1485.08,23.57 L1475.08,13.57" fill="#FFA500" style="stroke:#444444;stroke-width:0.5;"/><text fill="#000000" font-family="Sans-Serif" font-size="13" lengthAdjust="spacing" textLength="36.9624" x="1332.85" y="30.6369">Naval</text><text fill="#000000" font-family="Sans-Serif" font-size="13" lengthAdjust="spacing" textLength="4.1323" x="1369.8124" y="30.6369">&#160;</text><text fill="#000000" font-family="Sans-Serif" font-size="13" lengthAdjust="spacing" textLength="44.0908" x="1373.9447" y="30.6369">mobile</text><text fill="#000000" font-family="Sans-Serif" font-size="13" lengthAdjust="spacing" textLength="4.1323" x="1418.0355" y="30.6369">&#160;</text><text fill="#000000" font-family="Sans-Serif" font-size="13" lengthAdjust="spacing" textLength="47.9121" x="1422.1679" y="30.6369">airbase</text></g><g class="entity" data-entity="GMN35" data-source-line="73" data-uid="ent0036" id="entity_GMN35"><path d="M1878.76,131.85 L1878.76,136.9828 A10,10 0 0 0 1888.76,146.9828 L2087.1658,146.9828 A10,10 0 0 0 2097.1658,136.9828 L2097.1658,131.85 L2087.1658,121.85 L1991.96,121.85 L1987.96,44.51 L1983.96,121.85 L1888.76,121.85 A10,10 0 0 0 1878.76,131.85" fill="#FFA500" style="stroke:#444444;stroke-width:0.5;"/><path d="M2087.1658,121.85 L2087.1658,126.85 A5,5 0 0 0 2092.1658,131.85 L2097.1658,131.85 L2087.1658,121.85" fill="#FFA500" style="stroke:#444444;stroke-width:0.5;"/><text fill="#000000" font-family="Sans-Serif" font-size="13" lengthAdjust="spacing" textLength="76.3877" x="1884.76" y="138.9169">Underwater</text><text fill="#000000" font-family="Sans-Serif" font-size="13" lengthAdjust="spacing" textLength="4.1323" x="1961.1477" y="138.9169">&#160;</text><text fill="#000000" font-family="Sans-Serif" font-size="13" lengthAdjust="spacing" textLength="57.2876" x="1965.28" y="138.9169">strategic</text><text fill="#000000" font-family="Sans-Serif" font-size="13" lengthAdjust="spacing" textLength="4.1323" x="2022.5676" y="138.9169">&#160;</text><text fill="#000000" font-family="Sans-Serif" font-size="13" lengthAdjust="spacing" textLength="55.4658" x="2026.6999" y="138.9169">platform</text></g><g class="entity" data-entity="GMN38" data-source-line="77" data-uid="ent0039" id="entity_GMN38"><path d="M1535.36,16 L1535.36,36.2656 A10,10 0 0 0 1545.36,46.2656 L1704.5563,46.2656 A10,10 0 0 0 1714.5563,36.2656 L1714.5563,30.7 L1763.69,26.7 L1714.5563,22.7 L1714.5563,16 L1704.5563,6 L1545.36,6 A10,10 0 0 0 1535.36,16" fill="#FFA500" style="stroke:#444444;stroke-width:0.5;"/><path d="M1704.5563,6 L1704.5563,11 A5,5 0 0 0 1709.5563,16 L1714.5563,16 L1704.5563,6" fill="#FFA500" style="stroke:#444444;stroke-width:0.5;"/><text fill="#000000" font-family="Sans-Serif" font-size="13" lengthAdjust="spacing" textLength="103.7144" x="1541.36" y="23.0669">Intercontinental</text><text fill="#000000" font-family="Sans-Serif" font-size="13" lengthAdjust="spacing" textLength="4.1323" x="1645.0744" y="23.0669">&#160;</text><text fill="#000000" font-family="Sans-Serif" font-size="13" lengthAdjust="spacing" textLength="50.3496" x="1649.2067" y="23.0669">Ballistic</text><text fill="#000000" font-family="Sans-Serif" font-size="13" lengthAdjust="spacing" textLength="43.5957" x="1598.6603" y="38.1997">Missile</text></g><g class="entity" data-entity="GMN41" data-source-line="81" data-uid="ent0042" id="entity_GMN41"><path d="M879.07,23.57 L879.07,28.7028 A10,10 0 0 0 889.07,38.7028 L1064.64,38.7028 L1068.64,115.79 L1072.64,38.7028 L1082.8547,38.7028 A10,10 0 0 0 1092.8547,28.7028 L1092.8547,23.57 L1082.8547,13.57 L889.07,13.57 A10,10 0 0 0 879.07,23.57" fill="#FFA500" style="stroke:#444444;stroke-width:0.5;"/><path d="M1082.8547,13.57 L1082.8547,18.57 A5,5 0 0 0 1087.8547,23.57 L1092.8547,23.57 L1082.8547,13.57" fill="#FFA500" style="stroke:#444444;stroke-width:0.5;"/><text fill="#000000" font-family="Sans-Serif" font-size="13" lengthAdjust="spacing" textLength="52.9395" x="885.07" y="30.6369">Nation's</text><text fill="#000000" font-family="Sans-Serif" font-size="13" lengthAdjust="spacing" textLength="4.1323" x="938.0095" y="30.6369">&#160;</text><text fill="#000000" font-family="Sans-Serif" font-size="13" lengthAdjust="spacing" textLength="22.7373" x="942.1418" y="30.6369">sea</text><text fill="#000000" font-family="Sans-Serif" font-size="13" lengthAdjust="spacing" textLength="4.1323" x="964.8791" y="30.6369">&#160;</text><text fill="#000000" font-family="Sans-Serif" font-size="13" lengthAdjust="spacing" textLength="49.8291" x="969.0114" y="30.6369">warfare</text><text fill="#000000" font-family="Sans-Serif" font-size="13" lengthAdjust="spacing" textLength="4.1323" x="1018.8405" y="30.6369">&#160;</text><text fill="#000000" font-family="Sans-Serif" font-size="13" lengthAdjust="spacing" textLength="54.8818" x="1022.9728" y="30.6369">capacity</text></g><g class="entity" data-entity="GMN44" data-source-line="85" data-uid="ent0045" id="entity_GMN44"><path d="M2360.1,131.85 L2360.1,130.7 L2310.78,134.7 L2360.1,138.7 L2360.1,136.9828 A10,10 0 0 0 2370.1,146.9828 L2515.8139,146.9828 A10,10 0 0 0 2525.8139,136.9828 L2525.8139,131.85 L2515.8139,121.85 L2370.1,121.85 A10,10 0 0 0 2360.1,131.85" fill="#FFA500" style="stroke:#444444;stroke-width:0.5;"/><path d="M2515.8139,121.85 L2515.8139,126.85 A5,5 0 0 0 2520.8139,131.85 L2525.8139,131.85 L2515.8139,121.85" fill="#FFA500" style="stroke:#444444;stroke-width:0.5;"/><text fill="#000000" font-family="Sans-Serif" font-size="13" lengthAdjust="spacing" textLength="48.1533" x="2366.1" y="138.9169">Military</text><text fill="#000000" font-family="Sans-Serif" font-size="13" lengthAdjust="spacing" textLength="4.1323" x="2414.2533" y="138.9169">&#160;</text><text fill="#000000" font-family="Sans-Serif" font-size="13" lengthAdjust="spacing" textLength="22.9785" x="2418.3856" y="138.9169">ops</text><text fill="#000000" font-family="Sans-Serif" font-size="13" lengthAdjust="spacing" textLength="4.1323" x="2441.3642" y="138.9169">&#160;</text><text fill="#000000" font-family="Sans-Serif" font-size="13" lengthAdjust="spacing" textLength="38.4478" x="2445.4965" y="138.9169">below</text><text fill="#000000" font-family="Sans-Serif" font-size="13" lengthAdjust="spacing" textLength="4.1323" x="2483.9442" y="138.9169">&#160;</text><text fill="#000000" font-family="Sans-Serif" font-size="13" lengthAdjust="spacing" textLength="22.7373" x="2488.0766" y="138.9169">sea</text></g><g class="entity" data-entity="GMN47" data-source-line="89" data-uid="ent0048" id="entity_GMN47"><path d="M1429.25,131.85 L1429.25,136.9828 A10,10 0 0 0 1439.25,146.9828 L1602.6738,146.9828 A10,10 0 0 0 1612.6738,136.9828 L1612.6738,139.85 L1662.25,134.7 L1612.6738,131.85 L1612.6738,131.85 L1602.6738,121.85 L1439.25,121.85 A10,10 0 0 0 1429.25,131.85" fill="#FFA500" style="stroke:#444444;stroke-width:0.5;"/><path d="M1602.6738,121.85 L1602.6738,126.85 A5,5 0 0 0 1607.6738,131.85 L1612.6738,131.85 L1602.6738,121.85" fill="#FFA500" style="stroke:#444444;stroke-width:0.5;"/><text fill="#000000" font-family="Sans-Serif" font-size="13" lengthAdjust="spacing" textLength="50.21" x="1435.25" y="138.9169">Prevent</text><text fill="#000000" font-family="Sans-Serif" font-size="13" lengthAdjust="spacing" textLength="4.1323" x="1485.46" y="138.9169">&#160;</text><text fill="#000000" font-family="Sans-Serif" font-size="13" lengthAdjust="spacing" textLength="40.8027" x="1489.5923" y="138.9169">attack</text><text fill="#000000" font-family="Sans-Serif" font-size="13" lengthAdjust="spacing" textLength="4.1323" x="1530.395" y="138.9169">&#160;</text><text fill="#000000" font-family="Sans-Serif" font-size="13" lengthAdjust="spacing" textLength="19.2715" x="1534.5273" y="138.9169">via</text><text fill="#000000" font-family="Sans-Serif" font-size="13" lengthAdjust="spacing" textLength="4.1323" x="1553.7988" y="138.9169">&#160;</text><text fill="#000000" font-family="Sans-Serif" font-size="13" lengthAdjust="spacing" textLength="39.7427" x="1557.9312" y="138.9169">threat</text></g><!--link Dhruv to Tactical Operations--><g class="link" data-entity-1="Dhruv" data-entity-2="Tactical Operations" data-source-line="39" data-uid="lnk12" id="link_Dhruv_Tactical Operations"><path codeLine="39" d="M318.39,44.64 C318.39,60.8 318.39,81.7 318.39,81.7 C318.39,81.7 702,81.7 702,81.7 C702,81.7 702,94.78 702,109.98" fill="none" id="Dhruv-to-Tactical Operations" style="stroke:#FFFFFF;stroke-width:1.5;"/><polygon fill="#FFFFFF" points="702,115.98,706,106.98,702,110.98,698,106.98,702,115.98" style="stroke:#FFFFFF;stroke-width:1.5;"/></g><!--link Dhruv to Ground Operations--><g class="link" data-entity-1="Dhruv" data-entity-2="Ground Operations" data-source-line="40" data-uid="lnk13" id="link_Dhruv_Ground Operations"><path codeLine="40" d="M297.53,44.51 C297.53,64.42 297.53,90.01 297.53,109.96" fill="none" id="Dhruv-to-Ground Operations" style="stroke:#FFFFFF;stroke-width:1.5;"/><polygon fill="#FFFFFF" points="297.53,115.96,301.53,106.96,297.53,110.96,293.53,106.96,297.53,115.96" style="stroke:#FFFFFF;stroke-width:1.5;"/></g><!--link Dhruv to Aerial Reconnaissance--><g class="link" data-entity-1="Dhruv" data-entity-2="Aerial Reconnaissance" data-source-line="41" data-uid="lnk14" id="link_Dhruv_Aerial Reconnaissance"><path codeLine="41" d="M276.37,26.7 C210.87,26.7 66.31,26.7 66.31,26.7 C66.31,26.7 66.31,79.41 66.31,110.15" fill="none" id="Dhruv-to-Aerial Reconnaissance" style="stroke:#FFFFFF;stroke-width:1.5;"/><polygon fill="#FFFFFF" points="66.31,116.15,70.31,107.15,66.31,111.15,62.31,107.15,66.31,116.15" style="stroke:#FFFFFF;stroke-width:1.5;"/></g><!--link Aircraft Warship to Naval Power--><g class="link" data-entity-1="Aircraft Warship" data-entity-2="Naval Power" data-source-line="43" data-uid="lnk15" id="link_Aircraft Warship_Naval Power"><path codeLine="43" d="M1147.42,44.51 C1147.42,64.42 1147.42,90.01 1147.42,109.96" fill="none" id="Aircraft Warship-to-Naval Power" style="stroke:#FFFFFF;stroke-width:1.5;"/><polygon fill="#FFFFFF" points="1147.42,115.96,1151.42,106.96,1147.42,110.96,1143.42,106.96,1147.42,115.96" style="stroke:#FFFFFF;stroke-width:1.5;"/></g><!--link Aircraft Warship to Strategic Deterrence--><g class="link" data-entity-1="Aircraft Warship" data-entity-2="Strategic Deterrence" data-source-line="44" data-uid="lnk16" id="link_Aircraft Warship_Strategic Deterrence"><path codeLine="44" d="M1214.04,44.52 C1214.04,54.45 1214.04,64.7 1214.04,64.7 C1214.04,64.7 1688.63,64.7 1688.63,64.7 C1688.63,64.7 1688.63,89.44 1688.63,110.1" fill="none" id="Aircraft Warship-to-Strategic Deterrence" style="stroke:#FFFFFF;stroke-width:1.5;"/><polygon fill="#FFFFFF" points="1688.63,116.1,1692.63,107.1,1688.63,111.1,1684.63,107.1,1688.63,116.1" style="stroke:#FFFFFF;stroke-width:1.5;"/></g><!--link Missile Submarine to Underwater Warfare--><g class="link" data-entity-1="Missile Submarine" data-entity-2="Underwater Warfare" data-source-line="46" data-uid="lnk17" id="link_Missile Submarine_Underwater Warfare"><path codeLine="46" d="M2061.91,26.7 C2132.75,26.7 2228.96,26.7 2228.96,26.7 C2228.96,26.7 2228.96,79.41 2228.96,110.15" fill="none" id="Missile Submarine-to-Underwater Warfare" style="stroke:#FFFFFF;stroke-width:1.5;"/><polygon fill="#FFFFFF" points="2228.96,116.15,2232.96,107.15,2228.96,111.15,2224.96,107.15,2228.96,116.15" style="stroke:#FFFFFF;stroke-width:1.5;"/></g><!--link Missile Submarine to Strategic Deterrence--><g class="link" data-entity-1="Missile Submarine" data-entity-2="Strategic Deterrence" data-source-line="47" data-uid="lnk18" id="link_Missile Submarine_Strategic Deterrence"><path codeLine="47" d="M1913.88,26.7 C1870.63,26.7 1824.49,26.7 1824.49,26.7 C1824.49,26.7 1824.49,79.41 1824.49,110.15" fill="none" id="Missile Submarine-to-Strategic Deterrence" style="stroke:#FFFFFF;stroke-width:1.5;"/><polygon fill="#FFFFFF" points="1824.49,116.15,1828.49,107.15,1824.49,111.15,1820.49,107.15,1824.49,116.15" style="stroke:#FFFFFF;stroke-width:1.5;"/></g><!--link ICBM to Strategic Deterrence--><g class="link" data-entity-1="ICBM" data-entity-2="Strategic Deterrence" data-source-line="49" data-uid="lnk19" id="link_ICBM_Strategic Deterrence"><path codeLine="49" d="M1791.96,44.51 C1791.96,64.42 1791.96,90.01 1791.96,109.96" fill="none" id="ICBM-to-Strategic Deterrence" style="stroke:#FFFFFF;stroke-width:1.5;"/><polygon fill="#FFFFFF" points="1791.96,115.96,1795.96,106.96,1791.96,110.96,1787.96,106.96,1791.96,115.96" style="stroke:#FFFFFF;stroke-width:1.5;"/></g><!--link GMN29 to Aerial Reconnaissance--><g class="link" data-entity-1="GMN29" data-entity-2="Aerial Reconnaissance" data-source-line="65" data-uid="lnk31" id="link_GMN29_Aerial Reconnaissance"><path d="M510.66,121.49 C510.66,111.62 510.66,99.7 510.66,99.7 C510.66,99.7 125.62,99.7 125.62,99.7 C125.62,99.7 125.62,107.59 125.62,115.84" fill="none" id="GMN29-Aerial Reconnaissance" style="stroke:#FFFFFF;stroke-width:1.5;stroke-dasharray:7.0,7.0;"/></g><!--SRC=[ZLLDJzj04BtxLup2WLCgMXeAbK1AW52ayY52nNbiZ-DjrhlMx2Q6_lgExH3iiA7r8OeyRzxCcpUxHgrjLQXdPUQHMoXJ8cC1CIQBETkbIS-jjWnxXytJGMXboB-K19PzRZi1OrDoLCBeeFEIqIpgbz-wBmjo3kSqrcfk2Z8U4laXxY1Iod2f_ICz-mzGndgQM4w9ryr-RPvjnBQawNGyEkZsCsQsLHkiSkLfE_IOgsHXf6du_6dK2LQCvPDAVGvVUdphxgVM-5ii20OpD6uu8rRPOAkvVs7MVRCXbYATWCinjPMO1nbgH-7ghQPOomG2TSDHfiIZcUl_WNI7tqukseTpz3It_F8TxjacCZLoqIO31XSvBrS3s3ivdavEZhkHgqOit9N4w9KrBeWQouXGmmCbrXXKiaaceI3obv7cAkc6uGavG-x0UdtUyHoD-jCMxTLId31clivtkIebVpgwk9mSTa4tqeEIFxDbN23BwGYYhiydDs-1Vlduj-3KgZ-dHvHtYIZjpUFowF9eEkxYRd4be7jR4GVZCyzr9PN01SaecDfnhO7Io0Ffbbu4kkZLdzFJit0F6yHmU1Roh1yFknL5WT4s5RjgGg26D2X9E0DEDAI1HGY2FoHl3MpuTa3suIrGdp4evTnGStLbzIb2NOjF0Lqfza0piAW1ifhd7cpsUZeYW76wQj4_czWFqYgnPNt_aSoxpehQN6_B9ZFe5S0ibtjwA7boxIgjFF8BrCXwqxUOOkkzBHgoWAq0DrlvO0s8f7IRHrFMYjbXFi0L-bpCK7AVQyXOYg9w9-njAE_MG2ZQHIbiN7iesJ7A9RXRq7ktXQEp5sxZd9ZcnQvYfwfc4IJxkluQYJ8lRCPBCnFKMZan0TRLTbdLM_9QIZtEVGUE4AfsGI714XFbNtPF9RJL7PDiwI0c-SRNj3l5X5SPvEgcLRsuwBtS_R1I23vdGhzX-Wi0]--></g></svg>