<svg xmlns="http://www.w3.org/2000/svg" xmlns:xlink="http://www.w3.org/1999/xlink" contentStyleType="text/css" data-diagram-type="CLASS" height="490px" preserveAspectRatio="none" style="width:1172px;height:490px;background:#333333;" version="1.1" viewBox="0 0 1172 490" width="1172px" zoomAndPan="magnify"><defs/><g><rect fill="#333333" height="490" style="stroke:none;stroke-width:1;" width="1172" x="0" y="0"/><!--entity Sthaviravada--><g class="entity" data-entity="Sthaviravada" data-source-line="23" data-uid="ent0002" id="entity_Sthaviravada"><rect fill="#87CEEB" height="36.2969" rx="10" ry="10" style="stroke:#FFFFFF;stroke-width:0.5;" width="112.668" x="436.59" y="116.27"/><text fill="#000000" font-family="Sans-Serif" font-size="14" lengthAdjust="spacing" textLength="92.668" x="446.59" y="139.2651">Sthaviravada</text></g><!--entity Mahasanghika--><g class="entity" data-entity="Mahasanghika" data-source-line="24" data-uid="ent0003" id="entity_Mahasanghika"><rect fill="#87CEEB" height="36.2969" rx="10" ry="10" style="stroke:#FFFFFF;stroke-width:0.5;" width="121.1924" x="432.33" y="222.56"/><text fill="#000000" font-family="Sans-Serif" font-size="14" lengthAdjust="spacing" textLength="101.1924" x="442.33" y="245.5551">Mahasanghika</text></g><!--entity Mahayana Buddhism--><g class="entity" data-entity="Mahayana Buddhism" data-source-line="25" data-uid="ent0004" id="entity_Mahayana Buddhism"><rect fill="#87CEEB" height="36.2969" rx="10" ry="10" style="stroke:#FFFFFF;stroke-width:0.5;" width="166.8223" x="409.51" y="441.11"/><text fill="#000000" font-family="Sans-Serif" font-size="14" lengthAdjust="spacing" textLength="72.4268" x="419.51" y="464.1051">Mahayana</text><text fill="#000000" font-family="Sans-Serif" font-size="14" lengthAdjust="spacing" textLength="4.4502" x="491.9368" y="464.1051">&#160;</text><text fill="#000000" font-family="Sans-Serif" font-size="14" lengthAdjust="spacing" textLength="69.9453" x="496.387" y="464.1051">Buddhism</text></g><!--entity Lokottaravadin--><g class="entity" data-entity="Lokottaravadin" data-source-line="26" data-uid="ent0005" id="entity_Lokottaravadin"><rect fill="#87CEEB" height="36.2969" rx="10" ry="10" style="stroke:#FFFFFF;stroke-width:0.5;" width="125.4443" x="210.2" y="330.84"/><text fill="#000000" font-family="Sans-Serif" font-size="14" lengthAdjust="spacing" textLength="105.4443" x="220.2" y="353.8351">Lokottaravadin</text></g><!--entity Deification of Buddha--><g class="entity" data-entity="Deification of Buddha" data-source-line="27" data-uid="ent0006" id="entity_Deification of Buddha"><rect fill="#98FB98" height="36.2969" rx="10" ry="10" style="stroke:#FFFFFF;stroke-width:0.5;" width="171.293" x="488.28" y="330.84"/><text fill="#000000" font-family="Sans-Serif" font-size="14" lengthAdjust="spacing" textLength="75.1953" x="498.28" y="353.8351">Deification</text><text fill="#000000" font-family="Sans-Serif" font-size="14" lengthAdjust="spacing" textLength="4.4502" x="573.4753" y="353.8351">&#160;</text><text fill="#000000" font-family="Sans-Serif" font-size="14" lengthAdjust="spacing" textLength="13.4941" x="577.9255" y="353.8351">of</text><text fill="#000000" font-family="Sans-Serif" font-size="14" lengthAdjust="spacing" textLength="4.4502" x="591.4196" y="353.8351">&#160;</text><text fill="#000000" font-family="Sans-Serif" font-size="14" lengthAdjust="spacing" textLength="53.7031" x="595.8698" y="353.8351">Buddha</text></g><g class="entity" data-entity="GMN12" data-source-line="38" data-uid="ent0013" id="entity_GMN12"><path d="M401.07,16 L401.07,36.2656 A10,10 0 0 0 411.07,46.2656 L488.92,46.2656 L492.92,116.03 L496.92,46.2656 L574.7731,46.2656 A10,10 0 0 0 584.7731,36.2656 L584.7731,16 L574.7731,6 L411.07,6 A10,10 0 0 0 401.07,16" fill="#FFA500" style="stroke:#444444;stroke-width:0.5;"/><path d="M574.7731,6 L574.7731,11 A5,5 0 0 0 579.7731,16 L584.7731,16 L574.7731,6" fill="#FFA500" style="stroke:#444444;stroke-width:0.5;"/><text fill="#000000" font-family="Sans-Serif" font-size="13" lengthAdjust="spacing" textLength="36.9624" x="407.07" y="23.0669">Early,</text><text fill="#000000" font-family="Sans-Serif" font-size="13" lengthAdjust="spacing" textLength="4.1323" x="444.0324" y="23.0669">&#160;</text><text fill="#000000" font-family="Sans-Serif" font-size="13" lengthAdjust="spacing" textLength="33.96" x="448.1647" y="23.0669">more</text><text fill="#000000" font-family="Sans-Serif" font-size="13" lengthAdjust="spacing" textLength="4.1323" x="482.1247" y="23.0669">&#160;</text><text fill="#000000" font-family="Sans-Serif" font-size="13" lengthAdjust="spacing" textLength="83.5161" x="486.257" y="23.0669">conservative</text><text fill="#000000" font-family="Sans-Serif" font-size="13" lengthAdjust="spacing" textLength="41.6787" x="467.5822" y="38.1997">school</text></g><g class="entity" data-entity="GMN15" data-source-line="42" data-uid="ent0016" id="entity_GMN15"><path d="M960.84,338.86 L960.84,359.1256 A10,10 0 0 0 970.84,369.1256 L1151.0089,369.1256 A10,10 0 0 0 1161.0089,359.1256 L1161.0089,338.86 L1151.0089,328.86 L970.84,328.86 A10,10 0 0 0 960.84,338.86" fill="#FFA500" style="stroke:#444444;stroke-width:0.5;"/><path d="M1151.0089,328.86 L1151.0089,333.86 A5,5 0 0 0 1156.0089,338.86 L1161.0089,338.86 L1151.0089,328.86" fill="#FFA500" style="stroke:#444444;stroke-width:1;"/><text fill="#000000" font-family="Sans-Serif" font-size="13" lengthAdjust="spacing" textLength="59.1602" x="966.84" y="345.9269">Diverged</text><text fill="#000000" font-family="Sans-Serif" font-size="13" lengthAdjust="spacing" textLength="4.1323" x="1026.0002" y="345.9269">&#160;</text><text fill="#000000" font-family="Sans-Serif" font-size="13" lengthAdjust="spacing" textLength="16.1929" x="1030.1325" y="345.9269">on</text><text fill="#000000" font-family="Sans-Serif" font-size="13" lengthAdjust="spacing" textLength="4.1323" x="1046.3254" y="345.9269">&#160;</text><text fill="#000000" font-family="Sans-Serif" font-size="13" lengthAdjust="spacing" textLength="59.4521" x="1050.4577" y="345.9269">monastic</text><text fill="#000000" font-family="Sans-Serif" font-size="13" lengthAdjust="spacing" textLength="4.1323" x="1109.9098" y="345.9269">&#160;</text><text fill="#000000" font-family="Sans-Serif" font-size="13" lengthAdjust="spacing" textLength="31.9668" x="1114.0421" y="345.9269">rules</text><text fill="#000000" font-family="Sans-Serif" font-size="13" lengthAdjust="spacing" textLength="61.9849" x="981.1476" y="361.0597">Precursor</text><text fill="#000000" font-family="Sans-Serif" font-size="13" lengthAdjust="spacing" textLength="4.1323" x="1043.1325" y="361.0597">&#160;</text><text fill="#000000" font-family="Sans-Serif" font-size="13" lengthAdjust="spacing" textLength="13.0508" x="1047.2648" y="361.0597">to</text><text fill="#000000" font-family="Sans-Serif" font-size="13" lengthAdjust="spacing" textLength="4.1323" x="1060.3156" y="361.0597">&#160;</text><text fill="#000000" font-family="Sans-Serif" font-size="13" lengthAdjust="spacing" textLength="67.2534" x="1064.4479" y="361.0597">Mahayana</text></g><g class="entity" data-entity="GMN18" data-source-line="47" data-uid="ent0019" id="entity_GMN18"><path d="M626.57,449.12 L626.57,455.39 L576.53,459.39 L626.57,463.39 L626.57,469.3856 A10,10 0 0 0 636.57,479.3856 L793.2717,479.3856 A10,10 0 0 0 803.2717,469.3856 L803.2717,449.12 L793.2717,439.12 L636.57,439.12 A10,10 0 0 0 626.57,449.12" fill="#FFA500" style="stroke:#444444;stroke-width:0.5;"/><path d="M793.2717,439.12 L793.2717,444.12 A5,5 0 0 0 798.2717,449.12 L803.2717,449.12 L793.2717,439.12" fill="#FFA500" style="stroke:#444444;stroke-width:0.5;"/><text fill="#000000" font-family="Sans-Serif" font-size="13" lengthAdjust="spacing" textLength="33.6489" x="632.57" y="456.1869">Later</text><text fill="#000000" font-family="Sans-Serif" font-size="13" lengthAdjust="spacing" textLength="4.1323" x="666.2189" y="456.1869">&#160;</text><text fill="#000000" font-family="Sans-Serif" font-size="13" lengthAdjust="spacing" textLength="41.6787" x="670.3513" y="456.1869">school</text><text fill="#000000" font-family="Sans-Serif" font-size="13" lengthAdjust="spacing" textLength="4.1323" x="712.03" y="456.1869">&#160;</text><text fill="#000000" font-family="Sans-Serif" font-size="13" lengthAdjust="spacing" textLength="27.5806" x="716.1623" y="456.1869">with</text><text fill="#000000" font-family="Sans-Serif" font-size="13" lengthAdjust="spacing" textLength="4.1323" x="743.7429" y="456.1869">&#160;</text><text fill="#000000" font-family="Sans-Serif" font-size="13" lengthAdjust="spacing" textLength="40.3965" x="747.8752" y="456.1869">liberal</text><text fill="#000000" font-family="Sans-Serif" font-size="13" lengthAdjust="spacing" textLength="96.624" x="662.1088" y="471.3197">interpretations</text></g><g class="entity" data-entity="GMN21" data-source-line="51" data-uid="ent0022" id="entity_GMN21"><path d="M6,338.86 L6,359.1256 A10,10 0 0 0 16,369.1256 L149.8438,369.1256 A10,10 0 0 0 159.8438,359.1256 L159.8438,353.39 L209.95,349.39 L159.8438,345.39 L159.8438,338.86 L149.8438,328.86 L16,328.86 A10,10 0 0 0 6,338.86" fill="#FFA500" style="stroke:#444444;stroke-width:0.5;"/><path d="M149.8438,328.86 L149.8438,333.86 A5,5 0 0 0 154.8438,338.86 L159.8438,338.86 L149.8438,328.86" fill="#FFA500" style="stroke:#444444;stroke-width:0.5;"/><text fill="#000000" font-family="Sans-Serif" font-size="13" lengthAdjust="spacing" textLength="67.0249" x="12" y="345.9269">Derivative</text><text fill="#000000" font-family="Sans-Serif" font-size="13" lengthAdjust="spacing" textLength="4.1323" x="79.0249" y="345.9269">&#160;</text><text fill="#000000" font-family="Sans-Serif" font-size="13" lengthAdjust="spacing" textLength="27.0156" x="83.1572" y="345.9269">sect</text><text fill="#000000" font-family="Sans-Serif" font-size="13" lengthAdjust="spacing" textLength="4.1323" x="110.1729" y="345.9269">&#160;</text><text fill="#000000" font-family="Sans-Serif" font-size="13" lengthAdjust="spacing" textLength="30.5386" x="114.3052" y="345.9269">from</text><text fill="#000000" font-family="Sans-Serif" font-size="13" lengthAdjust="spacing" textLength="93.9644" x="31.4397" y="361.0597">Mahasanghika</text></g><g class="entity" data-entity="GMN24" data-source-line="55" data-uid="ent0025" id="entity_GMN24"><path d="M709.13,338.86 L709.13,345.39 L659.79,349.39 L709.13,353.39 L709.13,359.1256 A10,10 0 0 0 719.13,369.1256 L900.7145,369.1256 A10,10 0 0 0 910.7145,359.1256 L910.7145,338.86 L900.7145,328.86 L719.13,328.86 A10,10 0 0 0 709.13,338.86" fill="#FFA500" style="stroke:#444444;stroke-width:0.5;"/><path d="M900.7145,328.86 L900.7145,333.86 A5,5 0 0 0 905.7145,338.86 L910.7145,338.86 L900.7145,328.86" fill="#FFA500" style="stroke:#444444;stroke-width:0.5;"/><text fill="#000000" font-family="Sans-Serif" font-size="13" lengthAdjust="spacing" textLength="24.2163" x="715.13" y="345.9269">Key</text><text fill="#000000" font-family="Sans-Serif" font-size="13" lengthAdjust="spacing" textLength="4.1323" x="739.3463" y="345.9269">&#160;</text><text fill="#000000" font-family="Sans-Serif" font-size="13" lengthAdjust="spacing" textLength="51.835" x="743.4786" y="345.9269">concept</text><text fill="#000000" font-family="Sans-Serif" font-size="13" lengthAdjust="spacing" textLength="4.1323" x="795.3136" y="345.9269">&#160;</text><text fill="#000000" font-family="Sans-Serif" font-size="13" lengthAdjust="spacing" textLength="79.0854" x="799.4459" y="345.9269">contributing</text><text fill="#000000" font-family="Sans-Serif" font-size="13" lengthAdjust="spacing" textLength="4.1323" x="878.5314" y="345.9269">&#160;</text><text fill="#000000" font-family="Sans-Serif" font-size="13" lengthAdjust="spacing" textLength="13.0508" x="882.6637" y="345.9269">to</text><text fill="#000000" font-family="Sans-Serif" font-size="13" lengthAdjust="spacing" textLength="67.2534" x="771.7955" y="361.0597">Mahayana</text></g><!--link Sthaviravada to Mahasanghika--><g class="link" data-entity-1="Sthaviravada" data-entity-2="Mahasanghika" data-source-line="30" data-uid="lnk7" id="link_Sthaviravada_Mahasanghika"><path codeLine="30" d="M492.92,152.93 C492.92,172.44 492.92,196.98 492.92,216.41" fill="none" id="Sthaviravada-to-Mahasanghika" style="stroke:#FFFFFF;stroke-width:1.5;"/><polygon fill="#FFFFFF" points="492.92,222.41,496.92,213.41,492.92,217.41,488.92,213.41,492.92,222.41" style="stroke:#FFFFFF;stroke-width:1.5;"/></g><!--link Mahasanghika to Mahayana Buddhism--><g class="link" data-entity-1="Mahasanghika" data-entity-2="Mahayana Buddhism" data-source-line="31" data-uid="lnk8" id="link_Mahasanghika_Mahayana Buddhism"><path codeLine="31" d="M469.63,259.34 C469.63,300.63 469.63,393.43 469.63,434.67" fill="none" id="Mahasanghika-to-Mahayana Buddhism" style="stroke:#FFFFFF;stroke-width:1.5;"/><polygon fill="#FFFFFF" points="469.63,440.67,473.63,431.67,469.63,435.67,465.63,431.67,469.63,440.67" style="stroke:#FFFFFF;stroke-width:1.5;"/></g><!--link Mahasanghika to Lokottaravadin--><g class="link" data-entity-1="Mahasanghika" data-entity-2="Lokottaravadin" data-source-line="32" data-uid="lnk9" id="link_Mahasanghika_Lokottaravadin"><path codeLine="32" d="M450.98,259.15 C450.98,290.15 450.98,349.39 450.98,349.39 C450.98,349.39 393.17,349.39 341.95,349.39" fill="none" id="Mahasanghika-to-Lokottaravadin" style="stroke:#FFFFFF;stroke-width:1.5;"/><polygon fill="#FFFFFF" points="335.95,349.39,344.95,353.39,340.95,349.39,344.95,345.39,335.95,349.39" style="stroke:#FFFFFF;stroke-width:1.5;"/></g><!--link Mahasanghika to Deification of Buddha--><g class="link" data-entity-1="Mahasanghika" data-entity-2="Deification of Buddha" data-source-line="33" data-uid="lnk10" id="link_Mahasanghika_Deification of Buddha"><path codeLine="33" d="M520.9,259.08 C520.9,278.99 520.9,304.59 520.9,324.53" fill="none" id="Mahasanghika-to-Deification of Buddha" style="stroke:#FFFFFF;stroke-width:1.5;"/><polygon fill="#FFFFFF" points="520.9,330.53,524.9,321.53,520.9,325.53,516.9,321.53,520.9,330.53" style="stroke:#FFFFFF;stroke-width:1.5;"/></g><!--link Deification of Buddha to Mahayana Buddhism--><g class="link" data-entity-1="Deification of Buddha" data-entity-2="Mahayana Buddhism" data-source-line="34" data-uid="lnk11" id="link_Deification of Buddha_Mahayana Buddhism"><path codeLine="34" d="M532.3,367.2 C532.3,387.51 532.3,414.19 532.3,434.65" fill="none" id="Deification of Buddha-to-Mahayana Buddhism" style="stroke:#FFFFFF;stroke-width:1.5;stroke-dasharray:7.0,7.0;"/><polygon fill="#FFFFFF" points="532.3,440.65,536.3,431.65,532.3,435.65,528.3,431.65,532.3,440.65" style="stroke:#FFFFFF;stroke-width:1.5;"/></g><!--link Mahasanghika to GMN15--><g class="link" data-entity-1="Mahasanghika" data-entity-2="GMN15" data-source-line="42" data-uid="lnk17" id="link_Mahasanghika_GMN15"><path d="M553.98,241.39 C700.68,241.39 1060.92,241.39 1060.92,241.39 C1060.92,241.39 1060.92,297.28 1060.92,328.5" fill="none" id="Mahasanghika-GMN15" style="stroke:#FFFFFF;stroke-width:1.5;stroke-dasharray:7.0,7.0;"/></g><!--SRC=[ZLHDRzf04BtxLuoIGoyDIZ-Ya1ug0O5Bqwfg8lKys6DxnNh7cXqW_FkEROACPThk0SpEyvltvWFqdlULUtMXIEB6XHe5ArXZkYc4jo5Ri6U1wq_jwI6y2wI7ce15I-u50cSKgOQxszwbODWqb_VzoufYn89ctXMXeg2GsWT93v5HZbklB_IgVq45LfgpP2H7iP_RCqGCBQrMixlRlfwP2E-xuBvqIiFGI-dIJJ3Hy65ormlk1UlVBjCIFfxn7TMlEEWFh0YkdZ74csSIbryDnFqBSzGjWSIIz0Ann8ptrZp8qKSQpzvvMdkhm4ZUyQXGgXWA_p-GVl6xoYNlO85A1SlX2ypMKGLJXGM7b6gDW263dyAfrP9YSk8nzrhYpWdkCCChk9xUBvRBUH_m7KkCzbowpMN00GF2V9jbfOlLAEg9DwoARI8NHY6Fv7ANeZeEm7b7rwHycAxc3zF6uI_oRJYMhex9GFlDpTU1scGW_eGubpiA6-WTnOmBJYuPcKp6qvknPskNDS-bxOn0RNsdPlMIzgTotV2S-qq0bYZ-y1ug5eBKgaAoiwGxWfYMp3uXQtf3a7GqQpF4LSjqNYQ0HtjB2ih055SSCAf9aQstMG6R6qgt4ctKbE5D_v1SN57gYNlW4E39xCbH5-oTRQvtQnBqu9h_bbf8kyuEUJtb7Usm8IRQTlRDi4qHv6Bk-iukQxpGEO1lT6XAsInDywtYrbjjbdtC-Xy0]--></g></svg>