<svg xmlns="http://www.w3.org/2000/svg" xmlns:xlink="http://www.w3.org/1999/xlink" contentStyleType="text/css" data-diagram-type="CLASS" height="393px" preserveAspectRatio="none" style="width:1199px;height:393px;background:#333333;" version="1.1" viewBox="0 0 1199 393" width="1199px" zoomAndPan="magnify"><defs/><g><rect fill="#333333" height="393" style="stroke:none;stroke-width:1;" width="1199" x="0" y="0"/><!--entity Quit India Resolution--><g class="entity" data-entity="Quit India Resolution" data-source-line="23" data-uid="ent0002" id="entity_Quit India Resolution"><rect fill="#87CEEB" height="36.2969" rx="10" ry="10" style="stroke:#FFFFFF;stroke-width:0.5;" width="166.3096" x="628.76" y="129.59"/><text fill="#000000" font-family="Sans-Serif" font-size="14" lengthAdjust="spacing" textLength="29.2715" x="638.76" y="152.5851">Quit</text><text fill="#000000" font-family="Sans-Serif" font-size="14" lengthAdjust="spacing" textLength="4.4502" x="668.0315" y="152.5851">&#160;</text><text fill="#000000" font-family="Sans-Serif" font-size="14" lengthAdjust="spacing" textLength="34.3574" x="672.4817" y="152.5851">India</text><text fill="#000000" font-family="Sans-Serif" font-size="14" lengthAdjust="spacing" textLength="4.4502" x="706.8391" y="152.5851">&#160;</text><text fill="#000000" font-family="Sans-Serif" font-size="14" lengthAdjust="spacing" textLength="73.7803" x="711.2893" y="152.5851">Resolution</text></g><!--entity All India Congress Committee--><g class="entity" data-entity="All India Congress Committee" data-source-line="24" data-uid="ent0003" id="entity_All India Congress Committee"><rect fill="#F5DEB3" height="52.5938" rx="10" ry="10" style="stroke:#FFFFFF;stroke-width:0.5;" width="145.6719" x="220.08" y="7"/><text fill="#000000" font-family="Sans-Serif" font-size="14" lengthAdjust="spacing" textLength="17.3564" x="230.08" y="29.9951">All</text><text fill="#000000" font-family="Sans-Serif" font-size="14" lengthAdjust="spacing" textLength="4.4502" x="247.4364" y="29.9951">&#160;</text><text fill="#000000" font-family="Sans-Serif" font-size="14" lengthAdjust="spacing" textLength="34.3574" x="251.8866" y="29.9951">India</text><text fill="#000000" font-family="Sans-Serif" font-size="14" lengthAdjust="spacing" textLength="4.4502" x="286.2441" y="29.9951">&#160;</text><text fill="#000000" font-family="Sans-Serif" font-size="14" lengthAdjust="spacing" textLength="65.0576" x="290.6943" y="29.9951">Congress</text><text fill="#000000" font-family="Sans-Serif" font-size="14" lengthAdjust="spacing" textLength="77.7109" x="254.0605" y="46.292">Committee</text></g><!--entity British Rule in India--><g class="entity" data-entity="British Rule in India" data-source-line="25" data-uid="ent0004" id="entity_British Rule in India"><rect fill="#87CEEB" height="36.2969" rx="10" ry="10" style="stroke:#FFFFFF;stroke-width:0.5;" width="156.3701" x="554.73" y="344.17"/><text fill="#000000" font-family="Sans-Serif" font-size="14" lengthAdjust="spacing" textLength="44.7959" x="564.73" y="367.1651">British</text><text fill="#000000" font-family="Sans-Serif" font-size="14" lengthAdjust="spacing" textLength="4.4502" x="609.5259" y="367.1651">&#160;</text><text fill="#000000" font-family="Sans-Serif" font-size="14" lengthAdjust="spacing" textLength="31.1035" x="613.9761" y="367.1651">Rule</text><text fill="#000000" font-family="Sans-Serif" font-size="14" lengthAdjust="spacing" textLength="4.4502" x="645.0796" y="367.1651">&#160;</text><text fill="#000000" font-family="Sans-Serif" font-size="14" lengthAdjust="spacing" textLength="12.7627" x="649.5298" y="367.1651">in</text><text fill="#000000" font-family="Sans-Serif" font-size="14" lengthAdjust="spacing" textLength="4.4502" x="662.2925" y="367.1651">&#160;</text><text fill="#000000" font-family="Sans-Serif" font-size="14" lengthAdjust="spacing" textLength="34.3574" x="666.7427" y="367.1651">India</text></g><!--entity Cripps Offer--><g class="entity" data-entity="Cripps Offer" data-source-line="26" data-uid="ent0005" id="entity_Cripps Offer"><rect fill="#87CEEB" height="36.2969" rx="10" ry="10" style="stroke:#FFFFFF;stroke-width:0.5;" width="104.1846" x="659.82" y="15.15"/><text fill="#000000" font-family="Sans-Serif" font-size="14" lengthAdjust="spacing" textLength="44.4883" x="669.82" y="38.1451">Cripps</text><text fill="#000000" font-family="Sans-Serif" font-size="14" lengthAdjust="spacing" textLength="4.4502" x="714.3083" y="38.1451">&#160;</text><text fill="#000000" font-family="Sans-Serif" font-size="14" lengthAdjust="spacing" textLength="35.2461" x="718.7585" y="38.1451">Offer</text></g><!--entity Quit India Movement--><g class="entity" data-entity="Quit India Movement" data-source-line="27" data-uid="ent0006" id="entity_Quit India Movement"><rect fill="#FFE4E1" height="36.2969" rx="10" ry="10" style="stroke:#FFFFFF;stroke-width:0.5;" width="166.6855" x="708.57" y="235.89"/><text fill="#000000" font-family="Sans-Serif" font-size="14" lengthAdjust="spacing" textLength="29.2715" x="718.57" y="258.8851">Quit</text><text fill="#000000" font-family="Sans-Serif" font-size="14" lengthAdjust="spacing" textLength="4.4502" x="747.8415" y="258.8851">&#160;</text><text fill="#000000" font-family="Sans-Serif" font-size="14" lengthAdjust="spacing" textLength="34.3574" x="752.2917" y="258.8851">India</text><text fill="#000000" font-family="Sans-Serif" font-size="14" lengthAdjust="spacing" textLength="4.4502" x="786.6491" y="258.8851">&#160;</text><text fill="#000000" font-family="Sans-Serif" font-size="14" lengthAdjust="spacing" textLength="74.1563" x="791.0993" y="258.8851">Movement</text></g><g class="entity" data-entity="GMN12" data-source-line="38" data-uid="ent0013" id="entity_GMN12"><path d="M814.28,23.16 L814.28,43.4256 A10,10 0 0 0 824.28,53.4256 L945.549,53.4256 A10,10 0 0 0 955.549,43.4256 L955.549,23.16 L945.549,13.16 L824.28,13.16 A10,10 0 0 0 814.28,23.16" fill="#FFA500" style="stroke:#444444;stroke-width:0.5;"/><path d="M945.549,13.16 L945.549,18.16 A5,5 0 0 0 950.549,23.16 L955.549,23.16 L945.549,13.16" fill="#FFA500" style="stroke:#444444;stroke-width:1;"/><text fill="#000000" font-family="Sans-Serif" font-size="13" lengthAdjust="spacing" textLength="24.2671" x="820.28" y="30.2269">Call</text><text fill="#000000" font-family="Sans-Serif" font-size="13" lengthAdjust="spacing" textLength="4.1323" x="844.5471" y="30.2269">&#160;</text><text fill="#000000" font-family="Sans-Serif" font-size="13" lengthAdjust="spacing" textLength="17.875" x="848.6794" y="30.2269">for</text><text fill="#000000" font-family="Sans-Serif" font-size="13" lengthAdjust="spacing" textLength="4.1323" x="866.5544" y="30.2269">&#160;</text><text fill="#000000" font-family="Sans-Serif" font-size="13" lengthAdjust="spacing" textLength="69.8623" x="870.6867" y="30.2269">immediate</text><text fill="#000000" font-family="Sans-Serif" font-size="13" lengthAdjust="spacing" textLength="92.2251" x="834.302" y="45.3597">independence</text></g><g class="entity" data-entity="GMN15" data-source-line="42" data-uid="ent0016" id="entity_GMN15"><path d="M6,23.16 L6,43.4256 A10,10 0 0 0 16,53.4256 L159.8223,53.4256 A10,10 0 0 0 169.8223,43.4256 L169.8223,37.45 L219.63,33.45 L169.8223,29.45 L169.8223,23.16 L159.8223,13.16 L16,13.16 A10,10 0 0 0 6,23.16" fill="#FFA500" style="stroke:#444444;stroke-width:0.5;"/><path d="M159.8223,13.16 L159.8223,18.16 A5,5 0 0 0 164.8223,23.16 L169.8223,23.16 L159.8223,13.16" fill="#FFA500" style="stroke:#444444;stroke-width:0.5;"/><text fill="#000000" font-family="Sans-Serif" font-size="13" lengthAdjust="spacing" textLength="30.8813" x="31.2874" y="30.2269">AICC</text><text fill="#000000" font-family="Sans-Serif" font-size="13" lengthAdjust="spacing" textLength="4.1323" x="62.1687" y="30.2269">&#160;</text><text fill="#000000" font-family="Sans-Serif" font-size="13" lengthAdjust="spacing" textLength="4.6909" x="66.301" y="30.2269">-</text><text fill="#000000" font-family="Sans-Serif" font-size="13" lengthAdjust="spacing" textLength="4.1323" x="70.9919" y="30.2269">&#160;</text><text fill="#000000" font-family="Sans-Serif" font-size="13" lengthAdjust="spacing" textLength="60.4106" x="75.1243" y="30.2269">Congress</text><text fill="#000000" font-family="Sans-Serif" font-size="13" lengthAdjust="spacing" textLength="106.5391" x="12" y="45.3597">decision-making</text><text fill="#000000" font-family="Sans-Serif" font-size="13" lengthAdjust="spacing" textLength="4.1323" x="118.5391" y="45.3597">&#160;</text><text fill="#000000" font-family="Sans-Serif" font-size="13" lengthAdjust="spacing" textLength="32.1509" x="122.6714" y="45.3597">body</text></g><g class="entity" data-entity="GMN18" data-source-line="46" data-uid="ent0019" id="entity_GMN18"><path d="M760.76,352.18 L760.76,364.45 L711.42,368.45 L760.76,372.45 L760.76,372.4456 A10,10 0 0 0 770.76,382.4456 L955.0613,382.4456 A10,10 0 0 0 965.0613,372.4456 L965.0613,352.18 L955.0613,342.18 L770.76,342.18 A10,10 0 0 0 760.76,352.18" fill="#FFA500" style="stroke:#444444;stroke-width:0.5;"/><path d="M955.0613,342.18 L955.0613,347.18 A5,5 0 0 0 960.0613,352.18 L965.0613,352.18 L955.0613,342.18" fill="#FFA500" style="stroke:#444444;stroke-width:0.5;"/><text fill="#000000" font-family="Sans-Serif" font-size="13" lengthAdjust="spacing" textLength="48.4771" x="766.76" y="359.2469">System</text><text fill="#000000" font-family="Sans-Serif" font-size="13" lengthAdjust="spacing" textLength="4.1323" x="815.2371" y="359.2469">&#160;</text><text fill="#000000" font-family="Sans-Serif" font-size="13" lengthAdjust="spacing" textLength="64.8223" x="819.3694" y="359.2469">resolution</text><text fill="#000000" font-family="Sans-Serif" font-size="13" lengthAdjust="spacing" textLength="4.1323" x="884.1916" y="359.2469">&#160;</text><text fill="#000000" font-family="Sans-Serif" font-size="13" lengthAdjust="spacing" textLength="44.5542" x="888.324" y="359.2469">sought</text><text fill="#000000" font-family="Sans-Serif" font-size="13" lengthAdjust="spacing" textLength="4.1323" x="932.8782" y="359.2469">&#160;</text><text fill="#000000" font-family="Sans-Serif" font-size="13" lengthAdjust="spacing" textLength="13.0508" x="937.0105" y="359.2469">to</text><text fill="#000000" font-family="Sans-Serif" font-size="13" lengthAdjust="spacing" textLength="64.2129" x="826.3042" y="374.3797">dismantle</text></g><g class="entity" data-entity="GMN21" data-source-line="50" data-uid="ent0022" id="entity_GMN21"><path d="M416.24,23.16 L416.24,43.4256 A10,10 0 0 0 426.24,53.4256 L599.5789,53.4256 A10,10 0 0 0 609.5789,43.4256 L609.5789,37.45 L659.55,33.45 L609.5789,29.45 L609.5789,23.16 L599.5789,13.16 L426.24,13.16 A10,10 0 0 0 416.24,23.16" fill="#FFA500" style="stroke:#444444;stroke-width:0.5;"/><path d="M599.5789,13.16 L599.5789,18.16 A5,5 0 0 0 604.5789,23.16 L609.5789,23.16 L599.5789,13.16" fill="#FFA500" style="stroke:#444444;stroke-width:0.5;"/><text fill="#000000" font-family="Sans-Serif" font-size="13" lengthAdjust="spacing" textLength="60.3662" x="422.24" y="30.2269">Proposed</text><text fill="#000000" font-family="Sans-Serif" font-size="13" lengthAdjust="spacing" textLength="4.1323" x="482.6062" y="30.2269">&#160;</text><text fill="#000000" font-family="Sans-Serif" font-size="13" lengthAdjust="spacing" textLength="62.2832" x="486.7385" y="30.2269">Dominion</text><text fill="#000000" font-family="Sans-Serif" font-size="13" lengthAdjust="spacing" textLength="4.1323" x="549.0217" y="30.2269">&#160;</text><text fill="#000000" font-family="Sans-Serif" font-size="13" lengthAdjust="spacing" textLength="41.4248" x="553.1541" y="30.2269">Status</text><text fill="#000000" font-family="Sans-Serif" font-size="13" lengthAdjust="spacing" textLength="30.9829" x="474.1638" y="45.3597">after</text><text fill="#000000" font-family="Sans-Serif" font-size="13" lengthAdjust="spacing" textLength="4.1323" x="505.1467" y="45.3597">&#160;</text><text fill="#000000" font-family="Sans-Serif" font-size="13" lengthAdjust="spacing" textLength="33.376" x="509.2791" y="45.3597">WWII</text></g><g class="entity" data-entity="GMN24" data-source-line="54" data-uid="ent0025" id="entity_GMN24"><path d="M1015.03,352.18 L1015.03,372.4456 A10,10 0 0 0 1025.03,382.4456 L1178.7863,382.4456 A10,10 0 0 0 1188.7863,372.4456 L1188.7863,352.18 L1178.7863,342.18 L1025.03,342.18 A10,10 0 0 0 1015.03,352.18" fill="#FFA500" style="stroke:#444444;stroke-width:0.5;"/><path d="M1178.7863,342.18 L1178.7863,347.18 A5,5 0 0 0 1183.7863,352.18 L1188.7863,352.18 L1178.7863,342.18" fill="#FFA500" style="stroke:#444444;stroke-width:1;"/><text fill="#000000" font-family="Sans-Serif" font-size="13" lengthAdjust="spacing" textLength="32.7285" x="1021.03" y="359.2469">Mass</text><text fill="#000000" font-family="Sans-Serif" font-size="13" lengthAdjust="spacing" textLength="4.1323" x="1053.7585" y="359.2469">&#160;</text><text fill="#000000" font-family="Sans-Serif" font-size="13" lengthAdjust="spacing" textLength="25.6763" x="1057.8908" y="359.2469">civil</text><text fill="#000000" font-family="Sans-Serif" font-size="13" lengthAdjust="spacing" textLength="4.1323" x="1083.5671" y="359.2469">&#160;</text><text fill="#000000" font-family="Sans-Serif" font-size="13" lengthAdjust="spacing" textLength="86.0869" x="1087.6994" y="359.2469">disobedience</text><text fill="#000000" font-family="Sans-Serif" font-size="13" lengthAdjust="spacing" textLength="64.0986" x="1065.3589" y="374.3797">campaign</text></g><!--link All India Congress Committee to Quit India Resolution--><g class="link" data-entity-1="All India Congress Committee" data-entity-2="Quit India Resolution" data-source-line="30" data-uid="lnk7" id="link_All India Congress Committee_Quit India Resolution"><path codeLine="30" d="M292.91,60 C292.91,94.02 292.91,148.45 292.91,148.45 C292.91,148.45 500.14,148.45 622.38,148.45" fill="none" id="All India Congress Committee-to-Quit India Resolution" style="stroke:#FFFFFF;stroke-width:1.5;stroke-dasharray:7.0,7.0;"/><polygon fill="#FFFFFF" points="628.38,148.45,619.38,144.45,623.38,148.45,619.38,152.45,628.38,148.45" style="stroke:#FFFFFF;stroke-width:1.5;"/></g><!--link Cripps Offer to Quit India Resolution--><g class="link" data-entity-1="Cripps Offer" data-entity-2="Quit India Resolution" data-source-line="31" data-uid="lnk8" id="link_Cripps Offer_Quit India Resolution"><path codeLine="31" d="M711.91,51.94 C711.91,73.22 711.91,101.83 711.91,123.1" fill="none" id="Cripps Offer-to-Quit India Resolution" style="stroke:#FFFFFF;stroke-width:1.5;"/><polygon fill="#FFFFFF" points="711.91,129.1,715.91,120.1,711.91,124.1,707.91,120.1,711.91,129.1" style="stroke:#FFFFFF;stroke-width:1.5;"/></g><!--link Quit India Resolution to British Rule in India--><g class="link" data-entity-1="Quit India Resolution" data-entity-2="British Rule in India" data-source-line="32" data-uid="lnk9" id="link_Quit India Resolution_British Rule in India"><path codeLine="32" d="M668.66,166.03 C668.66,206.47 668.66,297.09 668.66,337.76" fill="none" id="Quit India Resolution-to-British Rule in India" style="stroke:#FFFFFF;stroke-width:1.5;"/><polygon fill="#FFFFFF" points="668.66,343.76,672.66,334.76,668.66,338.76,664.66,334.76,668.66,343.76" style="stroke:#FFFFFF;stroke-width:1.5;"/></g><!--link Quit India Resolution to Quit India Movement--><g class="link" data-entity-1="Quit India Resolution" data-entity-2="Quit India Movement" data-source-line="33" data-uid="lnk10" id="link_Quit India Resolution_Quit India Movement"><path codeLine="33" d="M751.82,166.25 C751.82,185.76 751.82,210.3 751.82,229.73" fill="none" id="Quit India Resolution-to-Quit India Movement" style="stroke:#FFFFFF;stroke-width:1.5;"/><polygon fill="#FFFFFF" points="751.82,235.73,755.82,226.73,751.82,230.73,747.82,226.73,751.82,235.73" style="stroke:#FFFFFF;stroke-width:1.5;"/></g><!--link Quit India Movement to British Rule in India--><g class="link" data-entity-1="Quit India Movement" data-entity-2="British Rule in India" data-source-line="34" data-uid="lnk11" id="link_Quit India Movement_British Rule in India"><path codeLine="34" d="M735.93,272.35 C735.93,301.8 735.93,356.45 735.93,356.45 C735.93,356.45 731.61,356.45 717.51,356.45" fill="none" id="Quit India Movement-to-British Rule in India" style="stroke:#FFFFFF;stroke-width:1.5;"/><polygon fill="#FFFFFF" points="711.51,356.45,720.51,360.45,716.51,356.45,720.51,352.45,711.51,356.45" style="stroke:#FFFFFF;stroke-width:1.5;"/></g><!--link GMN12 to Quit India Resolution--><g class="link" data-entity-1="GMN12" data-entity-2="Quit India Resolution" data-source-line="38" data-uid="lnk14" id="link_GMN12_Quit India Resolution"><path d="M814.04,33.45 C794.98,33.45 779.53,33.45 779.53,33.45 C779.53,33.45 779.53,96.74 779.53,129.12" fill="none" id="GMN12-Quit India Resolution" style="stroke:#FFFFFF;stroke-width:1.5;stroke-dasharray:7.0,7.0;"/></g><!--link Quit India Movement to GMN24--><g class="link" data-entity-1="Quit India Movement" data-entity-2="GMN24" data-source-line="54" data-uid="lnk26" id="link_Quit India Movement_GMN24"><path d="M875.39,254.45 C967.21,254.45 1101.91,254.45 1101.91,254.45 C1101.91,254.45 1101.91,310.48 1101.91,341.77" fill="none" id="Quit India Movement-GMN24" style="stroke:#FFFFFF;stroke-width:1.5;stroke-dasharray:7.0,7.0;"/></g><!--SRC=[ZLHDJ-D03BtdLrZbiASYMAZO2qXjQAKUs0-An7cQE8dLoJYQSIZy-_MaNGXHMpQ7L1q_F_izUsAivMrDh-JA96p8DSQR6jOcsvIUMvUdRDd3sLNtz12M7CfRWy1UAku57ESOi879HU_G6xU9XpVzmnf3C2LEBPMkHYUGwGjz3v5ZOLehJ_Wg9r2E1MViS_JxPg-xPuWOIbeiffEBVZzJxtcx2suh4Xo6dYhADawRXilpII-uzQPvfbmg-Fw9Rz_zWftyD3N2Q6LS6A_GKp4QDFSLPj-tT-YrI2yGAfFpLeS7XR413rVVQLfRTU10tSDHZvaOLzh_WVJDtpcNV8EvnJYkeBiKC0Tse7cj9EzPCFhJai3IvMJW4GFRLeZT2Cv-tAJp-QoFd5gx1wRiIXzda79TamYY9Ymcz_FPLJzXvaaeLF3OwZzok-I3rAcdfWdmgoZG7mJqkdpWbqvKBBcONyylez17j2Os7YfI7XFK-P1vMgje-YVw2m7dvtV7t4W63TxUde0UCNGylZlcoEcSGzAJmuQSgg4chSGRmPAoRksWqLNg4g68YsMiSHc2SJbakcvwtPCE9jm05qVr0gH6VOqKLDUeOObbSsnGNygOw6zNCDdnMIoa8pmv3kMTBjCKnX_173CAMdDScqsyR6lEtuRadifgntx41e3LMn2C5-UV1WZSnYnXo2dKneaztlIdHL2stvuRZdVhdcjoaMqbHbhTmK8_aF3yl5mEkTOimlNGqu_P0ZmObPlH2zdO4UiMKtGICbCtHZ_1xun_0G00]--></g></svg>