<svg xmlns="http://www.w3.org/2000/svg" xmlns:xlink="http://www.w3.org/1999/xlink" contentStyleType="text/css" data-diagram-type="CLASS" height="702px" preserveAspectRatio="none" style="width:999px;height:702px;background:#333333;" version="1.1" viewBox="0 0 999 702" width="999px" zoomAndPan="magnify"><defs/><g><rect fill="#333333" height="702" style="stroke:none;stroke-width:1;" width="999" x="0" y="0"/><!--entity Global Oil Market--><g class="entity" data-entity="Global Oil Market" data-source-line="23" data-uid="ent0002" id="entity_Global Oil Market"><rect fill="#87CEEB" height="36.2969" rx="10" ry="10" style="stroke:#FFFFFF;stroke-width:0.5;" width="140.9824" x="357.24" y="660.65"/><text fill="#000000" font-family="Sans-Serif" font-size="14" lengthAdjust="spacing" textLength="44.6592" x="367.24" y="683.6451">Global</text><text fill="#000000" font-family="Sans-Serif" font-size="14" lengthAdjust="spacing" textLength="4.4502" x="411.8992" y="683.6451">&#160;</text><text fill="#000000" font-family="Sans-Serif" font-size="14" lengthAdjust="spacing" textLength="18.7988" x="416.3494" y="683.6451">Oil</text><text fill="#000000" font-family="Sans-Serif" font-size="14" lengthAdjust="spacing" textLength="4.4502" x="435.1482" y="683.6451">&#160;</text><text fill="#000000" font-family="Sans-Serif" font-size="14" lengthAdjust="spacing" textLength="48.624" x="439.5984" y="683.6451">Market</text></g><!--entity Brent Crude--><g class="entity" data-entity="Brent Crude" data-source-line="24" data-uid="ent0003" id="entity_Brent Crude"><rect fill="#87CEEB" height="36.2969" rx="10" ry="10" style="stroke:#FFFFFF;stroke-width:0.5;" width="104.6904" x="585.39" y="223.56"/><text fill="#000000" font-family="Sans-Serif" font-size="14" lengthAdjust="spacing" textLength="38.3359" x="595.39" y="246.5551">Brent</text><text fill="#000000" font-family="Sans-Serif" font-size="14" lengthAdjust="spacing" textLength="4.4502" x="633.7259" y="246.5551">&#160;</text><text fill="#000000" font-family="Sans-Serif" font-size="14" lengthAdjust="spacing" textLength="41.9043" x="638.1761" y="246.5551">Crude</text></g><!--entity Price Indicator--><g class="entity" data-entity="Price Indicator" data-source-line="25" data-uid="ent0004" id="entity_Price Indicator"><rect fill="#87CEEB" height="36.2969" rx="10" ry="10" style="stroke:#FFFFFF;stroke-width:0.5;" width="120.7139" x="374.38" y="331.84"/><text fill="#000000" font-family="Sans-Serif" font-size="14" lengthAdjust="spacing" textLength="34.3984" x="384.38" y="354.8351">Price</text><text fill="#000000" font-family="Sans-Serif" font-size="14" lengthAdjust="spacing" textLength="4.4502" x="418.7784" y="354.8351">&#160;</text><text fill="#000000" font-family="Sans-Serif" font-size="14" lengthAdjust="spacing" textLength="61.8652" x="423.2286" y="354.8351">Indicator</text></g><!--entity Supply and Demand--><g class="entity" data-entity="Supply and Demand" data-source-line="26" data-uid="ent0005" id="entity_Supply and Demand"><rect fill="#87CEEB" height="36.2969" rx="10" ry="10" style="stroke:#FFFFFF;stroke-width:0.5;" width="162.3174" x="452.58" y="552.37"/><text fill="#000000" font-family="Sans-Serif" font-size="14" lengthAdjust="spacing" textLength="47.708" x="462.58" y="575.3651">Supply</text><text fill="#000000" font-family="Sans-Serif" font-size="14" lengthAdjust="spacing" textLength="4.4502" x="510.288" y="575.3651">&#160;</text><text fill="#000000" font-family="Sans-Serif" font-size="14" lengthAdjust="spacing" textLength="26.3389" x="514.7382" y="575.3651">and</text><text fill="#000000" font-family="Sans-Serif" font-size="14" lengthAdjust="spacing" textLength="4.4502" x="541.0771" y="575.3651">&#160;</text><text fill="#000000" font-family="Sans-Serif" font-size="14" lengthAdjust="spacing" textLength="59.3701" x="545.5273" y="575.3651">Demand</text></g><!--entity Geographic Location--><g class="entity" data-entity="Geographic Location" data-source-line="27" data-uid="ent0006" id="entity_Geographic Location"><rect fill="#87CEEB" height="36.2969" rx="10" ry="10" style="stroke:#FFFFFF;stroke-width:0.5;" width="164.5049" x="411.48" y="7"/><text fill="#000000" font-family="Sans-Serif" font-size="14" lengthAdjust="spacing" textLength="80.5957" x="421.48" y="29.9951">Geographic</text><text fill="#000000" font-family="Sans-Serif" font-size="14" lengthAdjust="spacing" textLength="4.4502" x="502.0757" y="29.9951">&#160;</text><text fill="#000000" font-family="Sans-Serif" font-size="14" lengthAdjust="spacing" textLength="59.459" x="506.5259" y="29.9951">Location</text></g><!--entity Oil Extraction--><g class="entity" data-entity="Oil Extraction" data-source-line="28" data-uid="ent0007" id="entity_Oil Extraction"><rect fill="#98FB98" height="36.2969" rx="10" ry="10" style="stroke:#FFFFFF;stroke-width:0.5;" width="114.7188" x="241.38" y="115.28"/><text fill="#000000" font-family="Sans-Serif" font-size="14" lengthAdjust="spacing" textLength="18.7988" x="251.38" y="138.2751">Oil</text><text fill="#000000" font-family="Sans-Serif" font-size="14" lengthAdjust="spacing" textLength="4.4502" x="270.1788" y="138.2751">&#160;</text><text fill="#000000" font-family="Sans-Serif" font-size="14" lengthAdjust="spacing" textLength="71.4697" x="274.629" y="138.2751">Extraction</text></g><!--entity Oil Pricing Mechanisms--><g class="entity" data-entity="Oil Pricing Mechanisms" data-source-line="29" data-uid="ent0008" id="entity_Oil Pricing Mechanisms"><rect fill="#98FB98" height="36.2969" rx="10" ry="10" style="stroke:#FFFFFF;stroke-width:0.5;" width="181.9639" x="275.75" y="442.11"/><text fill="#000000" font-family="Sans-Serif" font-size="14" lengthAdjust="spacing" textLength="18.7988" x="285.75" y="465.1051">Oil</text><text fill="#000000" font-family="Sans-Serif" font-size="14" lengthAdjust="spacing" textLength="4.4502" x="304.5488" y="465.1051">&#160;</text><text fill="#000000" font-family="Sans-Serif" font-size="14" lengthAdjust="spacing" textLength="47.4346" x="308.999" y="465.1051">Pricing</text><text fill="#000000" font-family="Sans-Serif" font-size="14" lengthAdjust="spacing" textLength="4.4502" x="356.4336" y="465.1051">&#160;</text><text fill="#000000" font-family="Sans-Serif" font-size="14" lengthAdjust="spacing" textLength="86.8301" x="360.8838" y="465.1051">Mechanisms</text></g><g class="entity" data-entity="GMN21" data-source-line="49" data-uid="ent0022" id="entity_GMN21"><path d="M625.62,22.58 L625.62,17.95 L576.24,21.95 L625.62,25.95 L625.62,27.7128 A10,10 0 0 0 635.62,37.7128 L819.8514,37.7128 A10,10 0 0 0 829.8514,27.7128 L829.8514,22.58 L819.8514,12.58 L635.62,12.58 A10,10 0 0 0 625.62,22.58" fill="#FFA500" style="stroke:#444444;stroke-width:0.5;"/><path d="M819.8514,12.58 L819.8514,17.58 A5,5 0 0 0 824.8514,22.58 L829.8514,22.58 L819.8514,12.58" fill="#FFA500" style="stroke:#444444;stroke-width:0.5;"/><text fill="#000000" font-family="Sans-Serif" font-size="13" lengthAdjust="spacing" textLength="45.0874" x="631.62" y="29.6469">Region</text><text fill="#000000" font-family="Sans-Serif" font-size="13" lengthAdjust="spacing" textLength="4.1323" x="676.7074" y="29.6469">&#160;</text><text fill="#000000" font-family="Sans-Serif" font-size="13" lengthAdjust="spacing" textLength="40.2124" x="680.8397" y="29.6469">where</text><text fill="#000000" font-family="Sans-Serif" font-size="13" lengthAdjust="spacing" textLength="4.1323" x="721.0521" y="29.6469">&#160;</text><text fill="#000000" font-family="Sans-Serif" font-size="13" lengthAdjust="spacing" textLength="15.1772" x="725.1845" y="29.6469">oil</text><text fill="#000000" font-family="Sans-Serif" font-size="13" lengthAdjust="spacing" textLength="4.1323" x="740.3617" y="29.6469">&#160;</text><text fill="#000000" font-family="Sans-Serif" font-size="13" lengthAdjust="spacing" textLength="10.3848" x="744.494" y="29.6469">is</text><text fill="#000000" font-family="Sans-Serif" font-size="13" lengthAdjust="spacing" textLength="4.1323" x="754.8788" y="29.6469">&#160;</text><text fill="#000000" font-family="Sans-Serif" font-size="13" lengthAdjust="spacing" textLength="55.8403" x="759.0111" y="29.6469">sourced.</text></g><g class="entity" data-entity="GMN24" data-source-line="53" data-uid="ent0025" id="entity_GMN24"><path d="M406.06,123.29 L406.06,129.95 L356.39,133.95 L406.06,137.95 L406.06,143.5556 A10,10 0 0 0 416.06,153.5556 L603.4208,153.5556 A10,10 0 0 0 613.4208,143.5556 L613.4208,123.29 L603.4208,113.29 L416.06,113.29 A10,10 0 0 0 406.06,123.29" fill="#FFA500" style="stroke:#444444;stroke-width:0.5;"/><path d="M603.4208,113.29 L603.4208,118.29 A5,5 0 0 0 608.4208,123.29 L613.4208,123.29 L603.4208,113.29" fill="#FFA500" style="stroke:#444444;stroke-width:0.5;"/><text fill="#000000" font-family="Sans-Serif" font-size="13" lengthAdjust="spacing" textLength="49.8291" x="412.06" y="130.3569">Process</text><text fill="#000000" font-family="Sans-Serif" font-size="13" lengthAdjust="spacing" textLength="4.1323" x="461.8891" y="130.3569">&#160;</text><text fill="#000000" font-family="Sans-Serif" font-size="13" lengthAdjust="spacing" textLength="12.5303" x="466.0214" y="130.3569">of</text><text fill="#000000" font-family="Sans-Serif" font-size="13" lengthAdjust="spacing" textLength="4.1323" x="478.5517" y="130.3569">&#160;</text><text fill="#000000" font-family="Sans-Serif" font-size="13" lengthAdjust="spacing" textLength="61.7563" x="482.684" y="130.3569">removing</text><text fill="#000000" font-family="Sans-Serif" font-size="13" lengthAdjust="spacing" textLength="4.1323" x="544.4404" y="130.3569">&#160;</text><text fill="#000000" font-family="Sans-Serif" font-size="13" lengthAdjust="spacing" textLength="15.1772" x="548.5727" y="130.3569">oil</text><text fill="#000000" font-family="Sans-Serif" font-size="13" lengthAdjust="spacing" textLength="4.1323" x="563.7499" y="130.3569">&#160;</text><text fill="#000000" font-family="Sans-Serif" font-size="13" lengthAdjust="spacing" textLength="30.5386" x="567.8823" y="130.3569">from</text><text fill="#000000" font-family="Sans-Serif" font-size="13" lengthAdjust="spacing" textLength="50.4131" x="480.0339" y="145.4897">ground.</text></g><g class="entity" data-entity="GMN27" data-source-line="57" data-uid="ent0028" id="entity_GMN27"><path d="M544.83,339.86 L544.83,360.1256 A10,10 0 0 0 554.83,370.1256 L720.6469,370.1256 A10,10 0 0 0 730.6469,360.1256 L730.6469,339.86 L720.6469,329.86 L641.74,329.86 L637.74,260.08 L633.74,329.86 L554.83,329.86 A10,10 0 0 0 544.83,339.86" fill="#FFA500" style="stroke:#444444;stroke-width:0.5;"/><path d="M720.6469,329.86 L720.6469,334.86 A5,5 0 0 0 725.6469,339.86 L730.6469,339.86 L720.6469,329.86" fill="#FFA500" style="stroke:#444444;stroke-width:0.5;"/><text fill="#000000" font-family="Sans-Serif" font-size="13" lengthAdjust="spacing" textLength="24.2163" x="550.83" y="346.9269">Key</text><text fill="#000000" font-family="Sans-Serif" font-size="13" lengthAdjust="spacing" textLength="4.1323" x="575.0463" y="346.9269">&#160;</text><text fill="#000000" font-family="Sans-Serif" font-size="13" lengthAdjust="spacing" textLength="39.6475" x="579.1786" y="346.9269">global</text><text fill="#000000" font-family="Sans-Serif" font-size="13" lengthAdjust="spacing" textLength="4.1323" x="618.8261" y="346.9269">&#160;</text><text fill="#000000" font-family="Sans-Serif" font-size="13" lengthAdjust="spacing" textLength="15.1772" x="622.9584" y="346.9269">oil</text><text fill="#000000" font-family="Sans-Serif" font-size="13" lengthAdjust="spacing" textLength="4.1323" x="638.1357" y="346.9269">&#160;</text><text fill="#000000" font-family="Sans-Serif" font-size="13" lengthAdjust="spacing" textLength="73.3789" x="642.268" y="346.9269">benchmark</text><text fill="#000000" font-family="Sans-Serif" font-size="13" lengthAdjust="spacing" textLength="62.0229" x="602.227" y="362.0597">standard.</text></g><g class="entity" data-entity="GMN30" data-source-line="61" data-uid="ent0031" id="entity_GMN30"><path d="M780.61,339.86 L780.61,360.1256 A10,10 0 0 0 790.61,370.1256 L978.8595,370.1256 A10,10 0 0 0 988.8595,360.1256 L988.8595,339.86 L978.8595,329.86 L790.61,329.86 A10,10 0 0 0 780.61,339.86" fill="#FFA500" style="stroke:#444444;stroke-width:0.5;"/><path d="M978.8595,329.86 L978.8595,334.86 A5,5 0 0 0 983.8595,339.86 L988.8595,339.86 L978.8595,329.86" fill="#FFA500" style="stroke:#444444;stroke-width:1;"/><text fill="#000000" font-family="Sans-Serif" font-size="13" lengthAdjust="spacing" textLength="84.3921" x="786.61" y="346.9269">Benchmark's</text><text fill="#000000" font-family="Sans-Serif" font-size="13" lengthAdjust="spacing" textLength="4.1323" x="871.0021" y="346.9269">&#160;</text><text fill="#000000" font-family="Sans-Serif" font-size="13" lengthAdjust="spacing" textLength="24.9082" x="875.1344" y="346.9269">role</text><text fill="#000000" font-family="Sans-Serif" font-size="13" lengthAdjust="spacing" textLength="4.1323" x="900.0426" y="346.9269">&#160;</text><text fill="#000000" font-family="Sans-Serif" font-size="13" lengthAdjust="spacing" textLength="11.8511" x="904.1749" y="346.9269">in</text><text fill="#000000" font-family="Sans-Serif" font-size="13" lengthAdjust="spacing" textLength="4.1323" x="916.026" y="346.9269">&#160;</text><text fill="#000000" font-family="Sans-Serif" font-size="13" lengthAdjust="spacing" textLength="53.7012" x="920.1583" y="346.9269">showing</text><text fill="#000000" font-family="Sans-Serif" font-size="13" lengthAdjust="spacing" textLength="43.2593" x="858.6051" y="362.0597">prices.</text></g><g class="entity" data-entity="GMN33" data-source-line="65" data-uid="ent0034" id="entity_GMN33"><path d="M6,450.12 L6,470.3856 A10,10 0 0 0 16,480.3856 L215.4722,480.3856 A10,10 0 0 0 225.4722,470.3856 L225.4722,464.95 L275.53,460.95 L225.4722,456.95 L225.4722,450.12 L215.4722,440.12 L16,440.12 A10,10 0 0 0 6,450.12" fill="#FFA500" style="stroke:#444444;stroke-width:0.5;"/><path d="M215.4722,440.12 L215.4722,445.12 A5,5 0 0 0 220.4722,450.12 L225.4722,450.12 L215.4722,440.12" fill="#FFA500" style="stroke:#444444;stroke-width:0.5;"/><text fill="#000000" font-family="Sans-Serif" font-size="13" lengthAdjust="spacing" textLength="55.25" x="12" y="457.1869">Systems</text><text fill="#000000" font-family="Sans-Serif" font-size="13" lengthAdjust="spacing" textLength="4.1323" x="67.25" y="457.1869">&#160;</text><text fill="#000000" font-family="Sans-Serif" font-size="13" lengthAdjust="spacing" textLength="31.2622" x="71.3823" y="457.1869">used</text><text fill="#000000" font-family="Sans-Serif" font-size="13" lengthAdjust="spacing" textLength="4.1323" x="102.6445" y="457.1869">&#160;</text><text fill="#000000" font-family="Sans-Serif" font-size="13" lengthAdjust="spacing" textLength="13.0508" x="106.7769" y="457.1869">to</text><text fill="#000000" font-family="Sans-Serif" font-size="13" lengthAdjust="spacing" textLength="4.1323" x="119.8276" y="457.1869">&#160;</text><text fill="#000000" font-family="Sans-Serif" font-size="13" lengthAdjust="spacing" textLength="67.2026" x="123.96" y="457.1869">determine</text><text fill="#000000" font-family="Sans-Serif" font-size="13" lengthAdjust="spacing" textLength="4.1323" x="191.1626" y="457.1869">&#160;</text><text fill="#000000" font-family="Sans-Serif" font-size="13" lengthAdjust="spacing" textLength="15.1772" x="195.2949" y="457.1869">oil</text><text fill="#000000" font-family="Sans-Serif" font-size="13" lengthAdjust="spacing" textLength="43.2593" x="89.6064" y="472.3197">prices.</text></g><g class="entity" data-entity="GMN36" data-source-line="69" data-uid="ent0037" id="entity_GMN36"><path d="M664.81,560.39 L664.81,566.95 L615.39,570.95 L664.81,574.95 L664.81,580.6556 A10,10 0 0 0 674.81,590.6556 L836.6533,590.6556 A10,10 0 0 0 846.6533,580.6556 L846.6533,560.39 L836.6533,550.39 L674.81,550.39 A10,10 0 0 0 664.81,560.39" fill="#FFA500" style="stroke:#444444;stroke-width:0.5;"/><path d="M836.6533,550.39 L836.6533,555.39 A5,5 0 0 0 841.6533,560.39 L846.6533,560.39 L836.6533,550.39" fill="#FFA500" style="stroke:#444444;stroke-width:0.5;"/><text fill="#000000" font-family="Sans-Serif" font-size="13" lengthAdjust="spacing" textLength="42.6943" x="670.81" y="567.4569">Forces</text><text fill="#000000" font-family="Sans-Serif" font-size="13" lengthAdjust="spacing" textLength="4.1323" x="713.5043" y="567.4569">&#160;</text><text fill="#000000" font-family="Sans-Serif" font-size="13" lengthAdjust="spacing" textLength="63.2861" x="717.6367" y="567.4569">balancing</text><text fill="#000000" font-family="Sans-Serif" font-size="13" lengthAdjust="spacing" textLength="4.1323" x="780.9228" y="567.4569">&#160;</text><text fill="#000000" font-family="Sans-Serif" font-size="13" lengthAdjust="spacing" textLength="46.5981" x="785.0551" y="567.4569">market</text><text fill="#000000" font-family="Sans-Serif" font-size="13" lengthAdjust="spacing" textLength="54.1963" x="689.5292" y="582.5897">quantity</text><text fill="#000000" font-family="Sans-Serif" font-size="13" lengthAdjust="spacing" textLength="4.1323" x="743.7255" y="582.5897">&#160;</text><text fill="#000000" font-family="Sans-Serif" font-size="13" lengthAdjust="spacing" textLength="24.4575" x="747.8579" y="582.5897">and</text><text fill="#000000" font-family="Sans-Serif" font-size="13" lengthAdjust="spacing" textLength="4.1323" x="772.3154" y="582.5897">&#160;</text><text fill="#000000" font-family="Sans-Serif" font-size="13" lengthAdjust="spacing" textLength="36.4863" x="776.4477" y="582.5897">price.</text></g><g class="entity" data-entity="GMN39" data-source-line="73" data-uid="ent0040" id="entity_GMN39"><path d="M242.78,560.39 L242.78,580.6556 A10,10 0 0 0 252.78,590.6556 L375.97,590.6556 L379.97,660.42 L383.97,590.6556 L392.6858,590.6556 A10,10 0 0 0 402.6858,580.6556 L402.6858,560.39 L392.6858,550.39 L252.78,550.39 A10,10 0 0 0 242.78,560.39" fill="#FFA500" style="stroke:#444444;stroke-width:0.5;"/><path d="M392.6858,550.39 L392.6858,555.39 A5,5 0 0 0 397.6858,560.39 L402.6858,560.39 L392.6858,550.39" fill="#FFA500" style="stroke:#444444;stroke-width:0.5;"/><text fill="#000000" font-family="Sans-Serif" font-size="13" lengthAdjust="spacing" textLength="46.4585" x="248.78" y="567.4569">Overall</text><text fill="#000000" font-family="Sans-Serif" font-size="13" lengthAdjust="spacing" textLength="4.1323" x="295.2385" y="567.4569">&#160;</text><text fill="#000000" font-family="Sans-Serif" font-size="13" lengthAdjust="spacing" textLength="46.998" x="299.3708" y="567.4569">system</text><text fill="#000000" font-family="Sans-Serif" font-size="13" lengthAdjust="spacing" textLength="4.1323" x="346.3689" y="567.4569">&#160;</text><text fill="#000000" font-family="Sans-Serif" font-size="13" lengthAdjust="spacing" textLength="17.875" x="350.5012" y="567.4569">for</text><text fill="#000000" font-family="Sans-Serif" font-size="13" lengthAdjust="spacing" textLength="4.1323" x="368.3762" y="567.4569">&#160;</text><text fill="#000000" font-family="Sans-Serif" font-size="13" lengthAdjust="spacing" textLength="15.1772" x="372.5085" y="567.4569">oil</text><text fill="#000000" font-family="Sans-Serif" font-size="13" lengthAdjust="spacing" textLength="94.8975" x="270.7842" y="582.5897">buying/selling.</text></g><!--link Geographic Location to Oil Extraction--><g class="link" data-entity-1="Geographic Location" data-entity-2="Oil Extraction" data-source-line="32" data-uid="lnk9" id="link_Geographic Location_Oil Extraction"><path codeLine="32" d="M411.04,25.95 C357.89,25.95 298.74,25.95 298.74,25.95 C298.74,25.95 298.74,78.53 298.74,109.19" fill="none" id="Geographic Location-to-Oil Extraction" style="stroke:#FFFFFF;stroke-width:1.5;"/><polygon fill="#FFFFFF" points="298.74,115.19,302.74,106.19,298.74,110.19,294.74,106.19,298.74,115.19" style="stroke:#FFFFFF;stroke-width:1.5;"/></g><!--link Oil Extraction to Brent Crude--><g class="link" data-entity-1="Oil Extraction" data-entity-2="Brent Crude" data-source-line="33" data-uid="lnk10" id="link_Oil Extraction_Brent Crude"><path codeLine="33" d="M329.32,151.68 C329.32,180.41 329.32,232.95 329.32,232.95 C329.32,232.95 490.98,232.95 579.07,232.95" fill="none" id="Oil Extraction-to-Brent Crude" style="stroke:#FFFFFF;stroke-width:1.5;"/><polygon fill="#FFFFFF" points="585.07,232.95,576.07,228.95,580.07,232.95,576.07,236.95,585.07,232.95" style="stroke:#FFFFFF;stroke-width:1.5;"/></g><!--link Geographic Location to Brent Crude--><g class="link" data-entity-1="Geographic Location" data-entity-2="Brent Crude" data-source-line="34" data-uid="lnk11" id="link_Geographic Location_Brent Crude"><path codeLine="34" d="M576.23,29.95 C599.94,29.95 619.52,29.95 619.52,29.95 C619.52,29.95 619.52,165.77 619.52,217.29" fill="none" id="Geographic Location-to-Brent Crude" style="stroke:#FFFFFF;stroke-width:1.5;"/><polygon fill="#FFFFFF" points="619.52,223.29,623.52,214.29,619.52,218.29,615.52,214.29,619.52,223.29" style="stroke:#FFFFFF;stroke-width:1.5;"/></g><!--link Brent Crude to Price Indicator--><g class="link" data-entity-1="Brent Crude" data-entity-2="Price Indicator" data-source-line="35" data-uid="lnk12" id="link_Brent Crude_Price Indicator"><path codeLine="35" d="M585.1,250.95 C529.75,250.95 450.57,250.95 450.57,250.95 C450.57,250.95 450.57,296.67 450.57,325.36" fill="none" id="Brent Crude-to-Price Indicator" style="stroke:#FFFFFF;stroke-width:1.5;"/><polygon fill="#FFFFFF" points="450.57,331.36,454.57,322.36,450.57,326.36,446.57,322.36,450.57,331.36" style="stroke:#FFFFFF;stroke-width:1.5;"/></g><!--link Price Indicator to Oil Pricing Mechanisms--><g class="link" data-entity-1="Price Indicator" data-entity-2="Oil Pricing Mechanisms" data-source-line="36" data-uid="lnk13" id="link_Price Indicator_Oil Pricing Mechanisms"><path codeLine="36" d="M416.05,368.2 C416.05,388.51 416.05,415.18 416.05,435.65" fill="none" id="Price Indicator-to-Oil Pricing Mechanisms" style="stroke:#FFFFFF;stroke-width:1.5;"/><polygon fill="#FFFFFF" points="416.05,441.65,420.05,432.65,416.05,436.65,412.05,432.65,416.05,441.65" style="stroke:#FFFFFF;stroke-width:1.5;"/></g><!--link Oil Pricing Mechanisms to Supply and Demand--><g class="link" data-entity-1="Oil Pricing Mechanisms" data-entity-2="Supply and Demand" data-source-line="37" data-uid="lnk14" id="link_Oil Pricing Mechanisms_Supply and Demand"><path codeLine="37" d="M458.11,466.95 C462.54,466.95 465.19,466.95 465.19,466.95 C465.19,466.95 465.19,516.21 465.19,546" fill="none" id="Oil Pricing Mechanisms-to-Supply and Demand" style="stroke:#FFFFFF;stroke-width:1.5;"/><polygon fill="#FFFFFF" points="465.19,552,469.19,543,465.19,547,461.19,543,465.19,552" style="stroke:#FFFFFF;stroke-width:1.5;"/></g><!--link Supply and Demand to Oil Pricing Mechanisms--><g class="link" data-entity-1="Supply and Demand" data-entity-2="Oil Pricing Mechanisms" data-source-line="39" data-uid="lnk16" id="link_Supply and Demand_Oil Pricing Mechanisms"><path codeLine="39" d="M472.67,551.95 C472.67,519.28 472.67,454.95 472.67,454.95 C472.67,454.95 472.85,454.95 463.94,454.95" fill="none" id="Supply and Demand-to-Oil Pricing Mechanisms" style="stroke:#FFFFFF;stroke-width:1.5;"/><polygon fill="#FFFFFF" points="457.94,454.95,466.94,458.95,462.94,454.95,466.94,450.95,457.94,454.95" style="stroke:#FFFFFF;stroke-width:1.5;"/></g><!--link Oil Extraction to Oil Pricing Mechanisms--><g class="link" data-entity-1="Oil Extraction" data-entity-2="Oil Pricing Mechanisms" data-source-line="38" data-uid="lnk15" id="link_Oil Extraction_Oil Pricing Mechanisms"><path codeLine="38" d="M302.53,151.93 C302.53,209.46 302.53,378.7 302.53,435.95" fill="none" id="Oil Extraction-to-Oil Pricing Mechanisms" style="stroke:#FFFFFF;stroke-width:1.5;"/><polygon fill="#FFFFFF" points="302.53,441.95,306.53,432.95,302.53,436.95,298.53,432.95,302.53,441.95" style="stroke:#FFFFFF;stroke-width:1.5;"/></g><!--link Price Indicator to Supply and Demand--><g class="link" data-entity-1="Price Indicator" data-entity-2="Supply and Demand" data-source-line="40" data-uid="lnk17" id="link_Price Indicator_Supply and Demand"><path codeLine="40" d="M480.14,368.41 C480.14,409.92 480.14,504.39 480.14,545.99" fill="none" id="Price Indicator-to-Supply and Demand" style="stroke:#FFFFFF;stroke-width:1.5;"/><polygon fill="#FFFFFF" points="480.14,551.99,484.14,542.99,480.14,546.99,476.14,542.99,480.14,551.99" style="stroke:#FFFFFF;stroke-width:1.5;"/></g><!--link Brent Crude to Global Oil Market--><g class="link" data-entity-1="Brent Crude" data-entity-2="Global Oil Market" data-source-line="43" data-uid="lnk18" id="link_Brent Crude_Global Oil Market"><path codeLine="43" d="M585.29,241.95 C475.9,241.95 233.42,241.95 233.42,241.95 C233.42,241.95 233.42,678.95 233.42,678.95 C233.42,678.95 295.25,678.95 350.76,678.95" fill="none" id="Brent Crude-to-Global Oil Market" style="stroke:#FFFFFF;stroke-width:1.5;"/><polygon fill="#FFFFFF" points="356.76,678.95,347.76,674.95,351.76,678.95,347.76,682.95,356.76,678.95" style="stroke:#FFFFFF;stroke-width:1.5;"/></g><!--link Oil Pricing Mechanisms to Global Oil Market--><g class="link" data-entity-1="Oil Pricing Mechanisms" data-entity-2="Global Oil Market" data-source-line="44" data-uid="lnk19" id="link_Oil Pricing Mechanisms_Global Oil Market"><path codeLine="44" d="M427.63,478.89 C427.63,520.18 427.63,612.97 427.63,654.22" fill="none" id="Oil Pricing Mechanisms-to-Global Oil Market" style="stroke:#FFFFFF;stroke-width:1.5;"/><polygon fill="#FFFFFF" points="427.63,660.22,431.63,651.22,427.63,655.22,423.63,651.22,427.63,660.22" style="stroke:#FFFFFF;stroke-width:1.5;"/></g><!--link Supply and Demand to Global Oil Market--><g class="link" data-entity-1="Supply and Demand" data-entity-2="Global Oil Market" data-source-line="45" data-uid="lnk20" id="link_Supply and Demand_Global Oil Market"><path codeLine="45" d="M475.4,588.89 C475.4,608.8 475.4,634.4 475.4,654.34" fill="none" id="Supply and Demand-to-Global Oil Market" style="stroke:#FFFFFF;stroke-width:1.5;"/><polygon fill="#FFFFFF" points="475.4,660.34,479.4,651.34,475.4,655.34,471.4,651.34,475.4,660.34" style="stroke:#FFFFFF;stroke-width:1.5;"/></g><!--link Price Indicator to GMN30--><g class="link" data-entity-1="Price Indicator" data-entity-2="GMN30" data-source-line="61" data-uid="lnk32" id="link_Price Indicator_GMN30"><path d="M487.62,368.62 C487.62,384.9 487.62,405.95 487.62,405.95 C487.62,405.95 813.63,405.95 813.63,405.95 C813.63,405.95 813.63,386.48 813.63,370.51" fill="none" id="Price Indicator-GMN30" style="stroke:#FFFFFF;stroke-width:1.5;stroke-dasharray:7.0,7.0;"/></g><!--SRC=[ZLRBRjim4BphAnRE8QUawID8SYbWkt5Gj6cAEa3FjBIM25DSTKd5SR- -Iyc9PObsweCCQ8UpmvabRMKChKlzh6sUk9MsbM9LmaAbgvofjjcK336SV6m-7OJH5lscGY3s1NKAbZ9qMC7bHUSbAxiABw-wBqjqJkKuDZgt9LeFgJoGEuWCbwes_X6V_H6K9OyJuWnvA_PJy-aZ-bkQpSQN5rqzOsPQjyLreJtsIu-5JbTMHCFxyyjESSsg-gqpNy27FRwj-XbP_qEL2AEvikviZgoNevwujp1RtMoHfKcdu0gLqLh2WwKo3kFTspqjZ3WGwHklCgPUsTpy3wHhVkjSSWfVS2aZ0cWmfEPaf1ncG1PIvJ4drd-LrsIJLnOOtHbQA0CFsi2zuXNw4PnSNqrlRoTTr8J354ovpZ1Q_yawHVXgCosTYAEOULrLPWFAPgApbAyewWufbsmbTlXEQICtYWk2RvyzgtGBkRcUJMwk-v0WB2HrZscXh7Qbsq5tXZ6QffChTEL0EGdIfQmNOfwsu0kKhwhsILpTsTddWPva8B11TNqynhQFstE_gVVzJeO9lAgAM90SzAPPDKpgm7OEqaUoFhuWBZyYH4ARahMICgJ4A8-o8jjCkwScAdf2LiP0sOnppBtXpBzXI6p1eIr6iA9vd6NWn3qvXf9sk0OSBENefaQnzYsDB5CsnIHKWNLUUA1b_4Ga0B-4IKxska1nWQIRTk2evXIpymI5Bj0aVRB-c89icj9mlqgLiQIdO42WMpALq5xU0xu5UI_LGBWtgG3VS0Dvwq0WMQ1DYn24R5wsgFYOji5G0qnUrfywkOzDE8To_RQNRnNWRi1dSBdRQcpM0EORvx5qK8VRKQOcG_bnAyD543I_nHiPIe0PYV5k6s7es4uV_AcLzIy1Dym3OazLc_DmS00UjiFi6idDo3I-rXjfyiwXaVy4-Oxo7m00]--></g></svg>