<svg xmlns="http://www.w3.org/2000/svg" xmlns:xlink="http://www.w3.org/1999/xlink" contentStyleType="text/css" data-diagram-type="CLASS" height="608px" preserveAspectRatio="none" style="width:2188px;height:608px;background:#333333;" version="1.1" viewBox="0 0 2188 608" width="2188px" zoomAndPan="magnify"><defs/><g><rect fill="#333333" height="608" style="stroke:none;stroke-width:1;" width="2188" x="0" y="0"/><!--entity Agni-IV Missile--><g class="entity" data-entity="Agni-IV Missile" data-source-line="23" data-uid="ent0002" id="entity_Agni-IV Missile"><rect fill="#98FB98" height="36.2969" rx="10" ry="10" style="stroke:#FFFFFF;stroke-width:0.5;" width="121.3838" x="977.15" y="7.98"/><text fill="#000000" font-family="Sans-Serif" font-size="14" lengthAdjust="spacing" textLength="49.9844" x="987.15" y="30.9751">Agni-IV</text><text fill="#000000" font-family="Sans-Serif" font-size="14" lengthAdjust="spacing" textLength="4.4502" x="1037.1344" y="30.9751">&#160;</text><text fill="#000000" font-family="Sans-Serif" font-size="14" lengthAdjust="spacing" textLength="46.9492" x="1041.5846" y="30.9751">Missile</text></g><!--entity Surface-to-Surface--><g class="entity" data-entity="Surface-to-Surface" data-source-line="26" data-uid="ent0003" id="entity_Surface-to-Surface"><rect fill="#98FB98" height="36.2969" rx="10" ry="10" style="stroke:#FFFFFF;stroke-width:0.5;" width="150.8262" x="608.43" y="118.25"/><text fill="#000000" font-family="Sans-Serif" font-size="14" lengthAdjust="spacing" textLength="130.8262" x="618.43" y="141.2451">Surface-to-Surface</text></g><!--entity Range--><g class="entity" data-entity="Range" data-source-line="27" data-uid="ent0004" id="entity_Range"><rect fill="#87CEEB" height="36.2969" rx="10" ry="10" style="stroke:#FFFFFF;stroke-width:0.5;" width="64.6797" x="810.5" y="228.51"/><text fill="#000000" font-family="Sans-Serif" font-size="14" lengthAdjust="spacing" textLength="44.6797" x="820.5" y="251.5051">Range</text></g><!--entity Nuclear Warhead Delivery--><g class="entity" data-entity="Nuclear Warhead Delivery" data-source-line="28" data-uid="ent0005" id="entity_Nuclear Warhead Delivery"><rect fill="#87CEEB" height="36.2969" rx="10" ry="10" style="stroke:#FFFFFF;stroke-width:0.5;" width="204.0234" x="1515.83" y="338.78"/><text fill="#000000" font-family="Sans-Serif" font-size="14" lengthAdjust="spacing" textLength="53.8809" x="1525.83" y="361.7751">Nuclear</text><text fill="#000000" font-family="Sans-Serif" font-size="14" lengthAdjust="spacing" textLength="4.4502" x="1579.7109" y="361.7751">&#160;</text><text fill="#000000" font-family="Sans-Serif" font-size="14" lengthAdjust="spacing" textLength="63.1299" x="1584.1611" y="361.7751">Warhead</text><text fill="#000000" font-family="Sans-Serif" font-size="14" lengthAdjust="spacing" textLength="4.4502" x="1647.2909" y="361.7751">&#160;</text><text fill="#000000" font-family="Sans-Serif" font-size="14" lengthAdjust="spacing" textLength="58.1123" x="1651.7411" y="361.7751">Delivery</text></g><!--entity Fuel Propellant--><g class="entity" data-entity="Fuel Propellant" data-source-line="29" data-uid="ent0006" id="entity_Fuel Propellant"><rect fill="#87CEEB" height="36.2969" rx="10" ry="10" style="stroke:#FFFFFF;stroke-width:0.5;" width="124.8633" x="1179.41" y="118.25"/><text fill="#000000" font-family="Sans-Serif" font-size="14" lengthAdjust="spacing" textLength="29.4287" x="1189.41" y="141.2451">Fuel</text><text fill="#000000" font-family="Sans-Serif" font-size="14" lengthAdjust="spacing" textLength="4.4502" x="1218.8387" y="141.2451">&#160;</text><text fill="#000000" font-family="Sans-Serif" font-size="14" lengthAdjust="spacing" textLength="70.9844" x="1223.2889" y="141.2451">Propellant</text></g><!--entity Payload Capacity--><g class="entity" data-entity="Payload Capacity" data-source-line="30" data-uid="ent0007" id="entity_Payload Capacity"><rect fill="#87CEEB" height="36.2969" rx="10" ry="10" style="stroke:#FFFFFF;stroke-width:0.5;" width="140.8594" x="1164.41" y="228.51"/><text fill="#000000" font-family="Sans-Serif" font-size="14" lengthAdjust="spacing" textLength="55.2275" x="1174.41" y="251.5051">Payload</text><text fill="#000000" font-family="Sans-Serif" font-size="14" lengthAdjust="spacing" textLength="4.4502" x="1229.6375" y="251.5051">&#160;</text><text fill="#000000" font-family="Sans-Serif" font-size="14" lengthAdjust="spacing" textLength="61.1816" x="1234.0877" y="251.5051">Capacity</text></g><!--entity Strategic Importance--><g class="entity" data-entity="Strategic Importance" data-source-line="33" data-uid="ent0008" id="entity_Strategic Importance"><rect fill="#87CEEB" height="36.2969" rx="10" ry="10" style="stroke:#FFFFFF;stroke-width:0.5;" width="167.9639" x="491.86" y="338.78"/><text fill="#000000" font-family="Sans-Serif" font-size="14" lengthAdjust="spacing" textLength="63.2871" x="501.86" y="361.7751">Strategic</text><text fill="#000000" font-family="Sans-Serif" font-size="14" lengthAdjust="spacing" textLength="4.4502" x="565.1471" y="361.7751">&#160;</text><text fill="#000000" font-family="Sans-Serif" font-size="14" lengthAdjust="spacing" textLength="80.2266" x="569.5973" y="361.7751">Importance</text></g><!--entity Operational Deployment--><g class="entity" data-entity="Operational Deployment" data-source-line="34" data-uid="ent0009" id="entity_Operational Deployment"><rect fill="#87CEEB" height="36.2969" rx="10" ry="10" style="stroke:#FFFFFF;stroke-width:0.5;" width="192.2246" x="249.73" y="338.78"/><text fill="#000000" font-family="Sans-Serif" font-size="14" lengthAdjust="spacing" textLength="82.1406" x="259.73" y="361.7751">Operational</text><text fill="#000000" font-family="Sans-Serif" font-size="14" lengthAdjust="spacing" textLength="4.4502" x="341.8706" y="361.7751">&#160;</text><text fill="#000000" font-family="Sans-Serif" font-size="14" lengthAdjust="spacing" textLength="85.6338" x="346.3208" y="361.7751">Deployment</text></g><!--entity Nuclear Deterrence--><g class="entity" data-entity="Nuclear Deterrence" data-source-line="35" data-uid="ent0010" id="entity_Nuclear Deterrence"><rect fill="#87CEEB" height="36.2969" rx="10" ry="10" style="stroke:#FFFFFF;stroke-width:0.5;" width="157.1357" x="1524.28" y="449.04"/><text fill="#000000" font-family="Sans-Serif" font-size="14" lengthAdjust="spacing" textLength="53.8809" x="1534.28" y="472.0351">Nuclear</text><text fill="#000000" font-family="Sans-Serif" font-size="14" lengthAdjust="spacing" textLength="4.4502" x="1588.1609" y="472.0351">&#160;</text><text fill="#000000" font-family="Sans-Serif" font-size="14" lengthAdjust="spacing" textLength="78.8047" x="1592.6111" y="472.0351">Deterrence</text></g><!--entity Proliferation Arms Control--><g class="entity" data-entity="Proliferation Arms Control" data-source-line="36" data-uid="ent0011" id="entity_Proliferation Arms Control"><rect fill="#87CEEB" height="36.2969" rx="10" ry="10" style="stroke:#FFFFFF;stroke-width:0.5;" width="201.3164" x="1731.19" y="449.04"/><text fill="#000000" font-family="Sans-Serif" font-size="14" lengthAdjust="spacing" textLength="85.2373" x="1741.19" y="472.0351">Proliferation</text><text fill="#000000" font-family="Sans-Serif" font-size="14" lengthAdjust="spacing" textLength="4.4502" x="1826.4273" y="472.0351">&#160;</text><text fill="#000000" font-family="Sans-Serif" font-size="14" lengthAdjust="spacing" textLength="36.2646" x="1830.8775" y="472.0351">Arms</text><text fill="#000000" font-family="Sans-Serif" font-size="14" lengthAdjust="spacing" textLength="4.4502" x="1867.1421" y="472.0351">&#160;</text><text fill="#000000" font-family="Sans-Serif" font-size="14" lengthAdjust="spacing" textLength="50.9141" x="1871.5923" y="472.0351">Control</text></g><!--entity Geopolitical Impact--><g class="entity" data-entity="Geopolitical Impact" data-source-line="37" data-uid="ent0012" id="entity_Geopolitical Impact"><rect fill="#87CEEB" height="36.2969" rx="10" ry="10" style="stroke:#FFFFFF;stroke-width:0.5;" width="155.6729" x="971.01" y="338.78"/><text fill="#000000" font-family="Sans-Serif" font-size="14" lengthAdjust="spacing" textLength="82.8037" x="981.01" y="361.7751">Geopolitical</text><text fill="#000000" font-family="Sans-Serif" font-size="14" lengthAdjust="spacing" textLength="4.4502" x="1063.8137" y="361.7751">&#160;</text><text fill="#000000" font-family="Sans-Serif" font-size="14" lengthAdjust="spacing" textLength="48.4189" x="1068.2639" y="361.7751">Impact</text></g><!--entity Regional Power Dynamics--><g class="entity" data-entity="Regional Power Dynamics" data-source-line="38" data-uid="ent0013" id="entity_Regional Power Dynamics"><rect fill="#87CEEB" height="36.2969" rx="10" ry="10" style="stroke:#FFFFFF;stroke-width:0.5;" width="201.7881" x="947.95" y="449.04"/><text fill="#000000" font-family="Sans-Serif" font-size="14" lengthAdjust="spacing" textLength="61.0244" x="957.95" y="472.0351">Regional</text><text fill="#000000" font-family="Sans-Serif" font-size="14" lengthAdjust="spacing" textLength="4.4502" x="1018.9744" y="472.0351">&#160;</text><text fill="#000000" font-family="Sans-Serif" font-size="14" lengthAdjust="spacing" textLength="42.8271" x="1023.4246" y="472.0351">Power</text><text fill="#000000" font-family="Sans-Serif" font-size="14" lengthAdjust="spacing" textLength="4.4502" x="1066.2518" y="472.0351">&#160;</text><text fill="#000000" font-family="Sans-Serif" font-size="14" lengthAdjust="spacing" textLength="69.0361" x="1070.702" y="472.0351">Dynamics</text></g><g class="entity" data-entity="GMN27" data-source-line="62" data-uid="ent0028" id="entity_GMN27"><path d="M1149.02,16 L1149.02,16.59 L1098.83,20.59 L1149.02,24.59 L1149.02,36.2656 A10,10 0 0 0 1159.02,46.2656 L1330.664,46.2656 A10,10 0 0 0 1340.664,36.2656 L1340.664,16 L1330.664,6 L1159.02,6 A10,10 0 0 0 1149.02,16" fill="#FFA500" style="stroke:#444444;stroke-width:0.5;"/><path d="M1330.664,6 L1330.664,11 A5,5 0 0 0 1335.664,16 L1340.664,16 L1330.664,6" fill="#FFA500" style="stroke:#444444;stroke-width:0.5;"/><text fill="#000000" font-family="Sans-Serif" font-size="13" lengthAdjust="spacing" textLength="40.1426" x="1155.02" y="23.0669">Indian</text><text fill="#000000" font-family="Sans-Serif" font-size="13" lengthAdjust="spacing" textLength="4.1323" x="1195.1626" y="23.0669">&#160;</text><text fill="#000000" font-family="Sans-Serif" font-size="13" lengthAdjust="spacing" textLength="126.3691" x="1199.2949" y="23.0669">intermediate-range</text><text fill="#000000" font-family="Sans-Serif" font-size="13" lengthAdjust="spacing" textLength="49.6831" x="1163.2815" y="38.1997">ballistic</text><text fill="#000000" font-family="Sans-Serif" font-size="13" lengthAdjust="spacing" textLength="4.1323" x="1212.9646" y="38.1997">&#160;</text><text fill="#000000" font-family="Sans-Serif" font-size="13" lengthAdjust="spacing" textLength="45.043" x="1217.0969" y="38.1997">missile</text><text fill="#000000" font-family="Sans-Serif" font-size="13" lengthAdjust="spacing" textLength="4.1323" x="1262.1399" y="38.1997">&#160;</text><text fill="#000000" font-family="Sans-Serif" font-size="13" lengthAdjust="spacing" textLength="51.1304" x="1266.2722" y="38.1997">system.</text></g><g class="entity" data-entity="GMN30" data-source-line="66" data-uid="ent0031" id="entity_GMN30"><path d="M910.39,126.26 L910.39,146.5256 A10,10 0 0 0 920.39,156.5256 L1119.3036,156.5256 A10,10 0 0 0 1129.3036,146.5256 L1129.3036,126.26 L1119.3036,116.26 L920.39,116.26 A10,10 0 0 0 910.39,126.26" fill="#FFA500" style="stroke:#444444;stroke-width:0.5;"/><path d="M1119.3036,116.26 L1119.3036,121.26 A5,5 0 0 0 1124.3036,126.26 L1129.3036,126.26 L1119.3036,116.26" fill="#FFA500" style="stroke:#444444;stroke-width:1;"/><text fill="#000000" font-family="Sans-Serif" font-size="13" lengthAdjust="spacing" textLength="64.0542" x="916.39" y="133.3269">Maximum</text><text fill="#000000" font-family="Sans-Serif" font-size="13" lengthAdjust="spacing" textLength="4.1323" x="980.4442" y="133.3269">&#160;</text><text fill="#000000" font-family="Sans-Serif" font-size="13" lengthAdjust="spacing" textLength="55.085" x="984.5765" y="133.3269">distance</text><text fill="#000000" font-family="Sans-Serif" font-size="13" lengthAdjust="spacing" textLength="4.1323" x="1039.6615" y="133.3269">&#160;</text><text fill="#000000" font-family="Sans-Serif" font-size="13" lengthAdjust="spacing" textLength="21.3345" x="1043.7938" y="133.3269">the</text><text fill="#000000" font-family="Sans-Serif" font-size="13" lengthAdjust="spacing" textLength="4.1323" x="1065.1283" y="133.3269">&#160;</text><text fill="#000000" font-family="Sans-Serif" font-size="13" lengthAdjust="spacing" textLength="45.043" x="1069.2606" y="133.3269">missile</text><text fill="#000000" font-family="Sans-Serif" font-size="13" lengthAdjust="spacing" textLength="23.353" x="980.6822" y="148.4597">can</text><text fill="#000000" font-family="Sans-Serif" font-size="13" lengthAdjust="spacing" textLength="4.1323" x="1004.0353" y="148.4597">&#160;</text><text fill="#000000" font-family="Sans-Serif" font-size="13" lengthAdjust="spacing" textLength="41.8438" x="1008.1676" y="148.4597">travel.</text></g><g class="entity" data-entity="GMN33" data-source-line="70" data-uid="ent0034" id="entity_GMN33"><path d="M1271.94,346.79 L1271.94,367.0556 A10,10 0 0 0 1281.94,377.0556 L1455.7549,377.0556 A10,10 0 0 0 1465.7549,367.0556 L1465.7549,361.59 L1515.64,357.59 L1465.7549,353.59 L1465.7549,346.79 L1455.7549,336.79 L1281.94,336.79 A10,10 0 0 0 1271.94,346.79" fill="#FFA500" style="stroke:#444444;stroke-width:0.5;"/><path d="M1455.7549,336.79 L1455.7549,341.79 A5,5 0 0 0 1460.7549,346.79 L1465.7549,346.79 L1455.7549,336.79" fill="#FFA500" style="stroke:#444444;stroke-width:0.5;"/><text fill="#000000" font-family="Sans-Serif" font-size="13" lengthAdjust="spacing" textLength="40.771" x="1277.94" y="353.8569">Ability</text><text fill="#000000" font-family="Sans-Serif" font-size="13" lengthAdjust="spacing" textLength="4.1323" x="1318.711" y="353.8569">&#160;</text><text fill="#000000" font-family="Sans-Serif" font-size="13" lengthAdjust="spacing" textLength="13.0508" x="1322.8433" y="353.8569">to</text><text fill="#000000" font-family="Sans-Serif" font-size="13" lengthAdjust="spacing" textLength="4.1323" x="1335.8941" y="353.8569">&#160;</text><text fill="#000000" font-family="Sans-Serif" font-size="13" lengthAdjust="spacing" textLength="33.4966" x="1340.0264" y="353.8569">carry</text><text fill="#000000" font-family="Sans-Serif" font-size="13" lengthAdjust="spacing" textLength="4.1323" x="1373.523" y="353.8569">&#160;</text><text fill="#000000" font-family="Sans-Serif" font-size="13" lengthAdjust="spacing" textLength="24.4575" x="1377.6553" y="353.8569">and</text><text fill="#000000" font-family="Sans-Serif" font-size="13" lengthAdjust="spacing" textLength="4.1323" x="1402.1129" y="353.8569">&#160;</text><text fill="#000000" font-family="Sans-Serif" font-size="13" lengthAdjust="spacing" textLength="44.5098" x="1406.2452" y="353.8569">deliver</text><text fill="#000000" font-family="Sans-Serif" font-size="13" lengthAdjust="spacing" textLength="48.5469" x="1304.3558" y="368.9897">nuclear</text><text fill="#000000" font-family="Sans-Serif" font-size="13" lengthAdjust="spacing" textLength="4.1323" x="1352.9026" y="368.9897">&#160;</text><text fill="#000000" font-family="Sans-Serif" font-size="13" lengthAdjust="spacing" textLength="67.3042" x="1357.035" y="368.9897">warheads.</text></g><g class="entity" data-entity="GMN36" data-source-line="74" data-uid="ent0037" id="entity_GMN36"><path d="M1355.71,236.53 L1355.71,256.7956 A10,10 0 0 0 1365.71,266.7956 L1545.9869,266.7956 A10,10 0 0 0 1555.9869,256.7956 L1555.9869,236.53 L1545.9869,226.53 L1365.71,226.53 A10,10 0 0 0 1355.71,236.53" fill="#FFA500" style="stroke:#444444;stroke-width:0.5;"/><path d="M1545.9869,226.53 L1545.9869,231.53 A5,5 0 0 0 1550.9869,236.53 L1555.9869,236.53 L1545.9869,226.53" fill="#FFA500" style="stroke:#444444;stroke-width:1;"/><text fill="#000000" font-family="Sans-Serif" font-size="13" lengthAdjust="spacing" textLength="31.8843" x="1361.71" y="243.5969">Type</text><text fill="#000000" font-family="Sans-Serif" font-size="13" lengthAdjust="spacing" textLength="4.1323" x="1393.5943" y="243.5969">&#160;</text><text fill="#000000" font-family="Sans-Serif" font-size="13" lengthAdjust="spacing" textLength="51.5112" x="1397.7266" y="243.5969">impacts</text><text fill="#000000" font-family="Sans-Serif" font-size="13" lengthAdjust="spacing" textLength="4.1323" x="1449.2378" y="243.5969">&#160;</text><text fill="#000000" font-family="Sans-Serif" font-size="13" lengthAdjust="spacing" textLength="87.6167" x="1453.3702" y="243.5969">performance,</text><text fill="#000000" font-family="Sans-Serif" font-size="13" lengthAdjust="spacing" textLength="41.9326" x="1386.1072" y="258.7297">range,</text><text fill="#000000" font-family="Sans-Serif" font-size="13" lengthAdjust="spacing" textLength="4.1323" x="1428.0398" y="258.7297">&#160;</text><text fill="#000000" font-family="Sans-Serif" font-size="13" lengthAdjust="spacing" textLength="24.4575" x="1432.1722" y="258.7297">and</text><text fill="#000000" font-family="Sans-Serif" font-size="13" lengthAdjust="spacing" textLength="4.1323" x="1456.6297" y="258.7297">&#160;</text><text fill="#000000" font-family="Sans-Serif" font-size="13" lengthAdjust="spacing" textLength="55.8276" x="1460.762" y="258.7297">payload.</text></g><g class="entity" data-entity="GMN39" data-source-line="78" data-uid="ent0040" id="entity_GMN39"><path d="M710.19,346.79 L710.19,353.59 L660.12,357.59 L710.19,361.59 L710.19,367.0556 A10,10 0 0 0 720.19,377.0556 L911.4991,377.0556 A10,10 0 0 0 921.4991,367.0556 L921.4991,346.79 L911.4991,336.79 L720.19,336.79 A10,10 0 0 0 710.19,346.79" fill="#FFA500" style="stroke:#444444;stroke-width:0.5;"/><path d="M911.4991,336.79 L911.4991,341.79 A5,5 0 0 0 916.4991,346.79 L921.4991,346.79 L911.4991,336.79" fill="#FFA500" style="stroke:#444444;stroke-width:0.5;"/><text fill="#000000" font-family="Sans-Serif" font-size="13" lengthAdjust="spacing" textLength="66.6567" x="716.19" y="353.8569">Influences</text><text fill="#000000" font-family="Sans-Serif" font-size="13" lengthAdjust="spacing" textLength="4.1323" x="782.8467" y="353.8569">&#160;</text><text fill="#000000" font-family="Sans-Serif" font-size="13" lengthAdjust="spacing" textLength="7.9663" x="786.9791" y="353.8569">a</text><text fill="#000000" font-family="Sans-Serif" font-size="13" lengthAdjust="spacing" textLength="4.1323" x="794.9454" y="353.8569">&#160;</text><text fill="#000000" font-family="Sans-Serif" font-size="13" lengthAdjust="spacing" textLength="51.4541" x="799.0777" y="353.8569">nation's</text><text fill="#000000" font-family="Sans-Serif" font-size="13" lengthAdjust="spacing" textLength="4.1323" x="850.5318" y="353.8569">&#160;</text><text fill="#000000" font-family="Sans-Serif" font-size="13" lengthAdjust="spacing" textLength="51.835" x="854.6641" y="353.8569">defense</text><text fill="#000000" font-family="Sans-Serif" font-size="13" lengthAdjust="spacing" textLength="49.6577" x="756.907" y="368.9897">posture</text><text fill="#000000" font-family="Sans-Serif" font-size="13" lengthAdjust="spacing" textLength="4.1323" x="806.5648" y="368.9897">&#160;</text><text fill="#000000" font-family="Sans-Serif" font-size="13" lengthAdjust="spacing" textLength="55.085" x="810.6971" y="368.9897">globally.</text></g><g class="entity" data-entity="GMN42" data-source-line="82" data-uid="ent0043" id="entity_GMN42"><path d="M6,346.79 L6,367.0556 A10,10 0 0 0 16,377.0556 L189.688,377.0556 A10,10 0 0 0 199.688,367.0556 L199.688,361.59 L249.31,357.59 L199.688,353.59 L199.688,346.79 L189.688,336.79 L16,336.79 A10,10 0 0 0 6,346.79" fill="#FFA500" style="stroke:#444444;stroke-width:0.5;"/><path d="M189.688,336.79 L189.688,341.79 A5,5 0 0 0 194.688,346.79 L199.688,346.79 L189.688,336.79" fill="#FFA500" style="stroke:#444444;stroke-width:0.5;"/><text fill="#000000" font-family="Sans-Serif" font-size="13" lengthAdjust="spacing" textLength="53.7012" x="12" y="353.8569">Dictates</text><text fill="#000000" font-family="Sans-Serif" font-size="13" lengthAdjust="spacing" textLength="4.1323" x="65.7012" y="353.8569">&#160;</text><text fill="#000000" font-family="Sans-Serif" font-size="13" lengthAdjust="spacing" textLength="40.2124" x="69.8335" y="353.8569">where</text><text fill="#000000" font-family="Sans-Serif" font-size="13" lengthAdjust="spacing" textLength="4.1323" x="110.0459" y="353.8569">&#160;</text><text fill="#000000" font-family="Sans-Serif" font-size="13" lengthAdjust="spacing" textLength="21.3345" x="114.1782" y="353.8569">the</text><text fill="#000000" font-family="Sans-Serif" font-size="13" lengthAdjust="spacing" textLength="4.1323" x="135.5127" y="353.8569">&#160;</text><text fill="#000000" font-family="Sans-Serif" font-size="13" lengthAdjust="spacing" textLength="45.043" x="139.645" y="353.8569">missile</text><text fill="#000000" font-family="Sans-Serif" font-size="13" lengthAdjust="spacing" textLength="23.353" x="56.7129" y="368.9897">can</text><text fill="#000000" font-family="Sans-Serif" font-size="13" lengthAdjust="spacing" textLength="4.1323" x="80.0659" y="368.9897">&#160;</text><text fill="#000000" font-family="Sans-Serif" font-size="13" lengthAdjust="spacing" textLength="16.25" x="84.1982" y="368.9897">be</text><text fill="#000000" font-family="Sans-Serif" font-size="13" lengthAdjust="spacing" textLength="4.1323" x="100.4482" y="368.9897">&#160;</text><text fill="#000000" font-family="Sans-Serif" font-size="13" lengthAdjust="spacing" textLength="35.3945" x="104.5806" y="368.9897">used.</text></g><g class="entity" data-entity="GMN45" data-source-line="86" data-uid="ent0046" id="entity_GMN45"><path d="M1982.43,457.06 L1982.43,477.3256 A10,10 0 0 0 1992.43,487.3256 L2167.2542,487.3256 A10,10 0 0 0 2177.2542,477.3256 L2177.2542,457.06 L2167.2542,447.06 L1992.43,447.06 A10,10 0 0 0 1982.43,457.06" fill="#FFA500" style="stroke:#444444;stroke-width:0.5;"/><path d="M2167.2542,447.06 L2167.2542,452.06 A5,5 0 0 0 2172.2542,457.06 L2177.2542,457.06 L2167.2542,447.06" fill="#FFA500" style="stroke:#444444;stroke-width:1;"/><text fill="#000000" font-family="Sans-Serif" font-size="13" lengthAdjust="spacing" textLength="53.9424" x="1988.43" y="464.1269">Missile's</text><text fill="#000000" font-family="Sans-Serif" font-size="13" lengthAdjust="spacing" textLength="4.1323" x="2042.3724" y="464.1269">&#160;</text><text fill="#000000" font-family="Sans-Serif" font-size="13" lengthAdjust="spacing" textLength="24.9082" x="2046.5047" y="464.1269">role</text><text fill="#000000" font-family="Sans-Serif" font-size="13" lengthAdjust="spacing" textLength="4.1323" x="2071.4129" y="464.1269">&#160;</text><text fill="#000000" font-family="Sans-Serif" font-size="13" lengthAdjust="spacing" textLength="11.8511" x="2075.5452" y="464.1269">in</text><text fill="#000000" font-family="Sans-Serif" font-size="13" lengthAdjust="spacing" textLength="4.1323" x="2087.3963" y="464.1269">&#160;</text><text fill="#000000" font-family="Sans-Serif" font-size="13" lengthAdjust="spacing" textLength="70.7256" x="2091.5286" y="464.1269">preventing</text><text fill="#000000" font-family="Sans-Serif" font-size="13" lengthAdjust="spacing" textLength="48.5469" x="2026.535" y="479.2597">nuclear</text><text fill="#000000" font-family="Sans-Serif" font-size="13" lengthAdjust="spacing" textLength="4.1323" x="2075.0819" y="479.2597">&#160;</text><text fill="#000000" font-family="Sans-Serif" font-size="13" lengthAdjust="spacing" textLength="44.9351" x="2079.2142" y="479.2597">attack.</text></g><g class="entity" data-entity="GMN48" data-source-line="90" data-uid="ent0049" id="entity_GMN48"><path d="M1745.55,567.32 L1745.55,587.5856 A10,10 0 0 0 1755.55,597.5856 L1908.1384,597.5856 A10,10 0 0 0 1918.1384,587.5856 L1918.1384,567.32 L1908.1384,557.32 L1835.84,557.32 L1831.84,485.4 L1827.84,557.32 L1755.55,557.32 A10,10 0 0 0 1745.55,567.32" fill="#FFA500" style="stroke:#444444;stroke-width:0.5;"/><path d="M1908.1384,557.32 L1908.1384,562.32 A5,5 0 0 0 1913.1384,567.32 L1918.1384,567.32 L1908.1384,557.32" fill="#FFA500" style="stroke:#444444;stroke-width:0.5;"/><text fill="#000000" font-family="Sans-Serif" font-size="13" lengthAdjust="spacing" textLength="60.7725" x="1751.55" y="574.3869">Concerns</text><text fill="#000000" font-family="Sans-Serif" font-size="13" lengthAdjust="spacing" textLength="4.1323" x="1812.3225" y="574.3869">&#160;</text><text fill="#000000" font-family="Sans-Serif" font-size="13" lengthAdjust="spacing" textLength="37.5083" x="1816.4548" y="574.3869">about</text><text fill="#000000" font-family="Sans-Serif" font-size="13" lengthAdjust="spacing" textLength="4.1323" x="1853.9631" y="574.3869">&#160;</text><text fill="#000000" font-family="Sans-Serif" font-size="13" lengthAdjust="spacing" textLength="45.043" x="1858.0954" y="574.3869">missile</text><text fill="#000000" font-family="Sans-Serif" font-size="13" lengthAdjust="spacing" textLength="72.1855" x="1764.8261" y="589.5197">technology</text><text fill="#000000" font-family="Sans-Serif" font-size="13" lengthAdjust="spacing" textLength="4.1323" x="1837.0117" y="589.5197">&#160;</text><text fill="#000000" font-family="Sans-Serif" font-size="13" lengthAdjust="spacing" textLength="48.7183" x="1841.144" y="589.5197">spread.</text></g><g class="entity" data-entity="GMN51" data-source-line="94" data-uid="ent0052" id="entity_GMN51"><path d="M925.3,236.53 L925.3,256.7956 A10,10 0 0 0 935.3,266.7956 L1062.59,266.7956 L1066.59,338.39 L1070.59,266.7956 L1104.3796,266.7956 A10,10 0 0 0 1114.3796,256.7956 L1114.3796,236.53 L1104.3796,226.53 L935.3,226.53 A10,10 0 0 0 925.3,236.53" fill="#FFA500" style="stroke:#444444;stroke-width:0.5;"/><path d="M1104.3796,226.53 L1104.3796,231.53 A5,5 0 0 0 1109.3796,236.53 L1114.3796,236.53 L1104.3796,226.53" fill="#FFA500" style="stroke:#444444;stroke-width:0.5;"/><text fill="#000000" font-family="Sans-Serif" font-size="13" lengthAdjust="spacing" textLength="66.6567" x="931.3" y="243.5969">Influences</text><text fill="#000000" font-family="Sans-Serif" font-size="13" lengthAdjust="spacing" textLength="4.1323" x="997.9567" y="243.5969">&#160;</text><text fill="#000000" font-family="Sans-Serif" font-size="13" lengthAdjust="spacing" textLength="52.9775" x="1002.0891" y="243.5969">regional</text><text fill="#000000" font-family="Sans-Serif" font-size="13" lengthAdjust="spacing" textLength="4.1323" x="1055.0666" y="243.5969">&#160;</text><text fill="#000000" font-family="Sans-Serif" font-size="13" lengthAdjust="spacing" textLength="40.1807" x="1059.1989" y="243.5969">power</text><text fill="#000000" font-family="Sans-Serif" font-size="13" lengthAdjust="spacing" textLength="55.3135" x="987.6831" y="258.7297">balance.</text></g><g class="entity" data-entity="GMN54" data-source-line="98" data-uid="ent0055" id="entity_GMN54"><path d="M1199.63,457.06 L1199.63,463.59 L1150.09,467.59 L1199.63,471.59 L1199.63,477.3256 A10,10 0 0 0 1209.63,487.3256 L1406.0616,487.3256 A10,10 0 0 0 1416.0616,477.3256 L1416.0616,457.06 L1406.0616,447.06 L1209.63,447.06 A10,10 0 0 0 1199.63,457.06" fill="#FFA500" style="stroke:#444444;stroke-width:0.5;"/><path d="M1406.0616,447.06 L1406.0616,452.06 A5,5 0 0 0 1411.0616,457.06 L1416.0616,457.06 L1406.0616,447.06" fill="#FFA500" style="stroke:#444444;stroke-width:0.5;"/><text fill="#000000" font-family="Sans-Serif" font-size="13" lengthAdjust="spacing" textLength="47.4805" x="1205.63" y="464.1269">Shapes</text><text fill="#000000" font-family="Sans-Serif" font-size="13" lengthAdjust="spacing" textLength="4.1323" x="1253.1105" y="464.1269">&#160;</text><text fill="#000000" font-family="Sans-Serif" font-size="13" lengthAdjust="spacing" textLength="83.4717" x="1257.2428" y="464.1269">relationships</text><text fill="#000000" font-family="Sans-Serif" font-size="13" lengthAdjust="spacing" textLength="4.1323" x="1340.7145" y="464.1269">&#160;</text><text fill="#000000" font-family="Sans-Serif" font-size="13" lengthAdjust="spacing" textLength="56.2148" x="1344.8468" y="464.1269">between</text><text fill="#000000" font-family="Sans-Serif" font-size="13" lengthAdjust="spacing" textLength="64.5366" x="1271.0775" y="479.2597">countries.</text></g><g class="entity" data-entity="GMN57" data-source-line="102" data-uid="ent0058" id="entity_GMN57"><path d="M555.09,236.53 L555.09,256.7956 A10,10 0 0 0 565.09,266.7956 L750.5973,266.7956 A10,10 0 0 0 760.5973,256.7956 L760.5973,236.53 L750.5973,226.53 L565.09,226.53 A10,10 0 0 0 555.09,236.53" fill="#FFA500" style="stroke:#444444;stroke-width:0.5;"/><path d="M750.5973,226.53 L750.5973,231.53 A5,5 0 0 0 755.5973,236.53 L760.5973,236.53 L750.5973,226.53" fill="#FFA500" style="stroke:#444444;stroke-width:1;"/><text fill="#000000" font-family="Sans-Serif" font-size="13" lengthAdjust="spacing" textLength="64.0542" x="561.09" y="243.5969">Maximum</text><text fill="#000000" font-family="Sans-Serif" font-size="13" lengthAdjust="spacing" textLength="4.1323" x="625.1442" y="243.5969">&#160;</text><text fill="#000000" font-family="Sans-Serif" font-size="13" lengthAdjust="spacing" textLength="43.8306" x="629.2765" y="243.5969">weight</text><text fill="#000000" font-family="Sans-Serif" font-size="13" lengthAdjust="spacing" textLength="4.1323" x="673.1071" y="243.5969">&#160;</text><text fill="#000000" font-family="Sans-Serif" font-size="13" lengthAdjust="spacing" textLength="12.5303" x="677.2394" y="243.5969">of</text><text fill="#000000" font-family="Sans-Serif" font-size="13" lengthAdjust="spacing" textLength="4.1323" x="689.7697" y="243.5969">&#160;</text><text fill="#000000" font-family="Sans-Serif" font-size="13" lengthAdjust="spacing" textLength="51.6953" x="693.902" y="243.5969">payload</text><text fill="#000000" font-family="Sans-Serif" font-size="13" lengthAdjust="spacing" textLength="45.043" x="596.1989" y="258.7297">missile</text><text fill="#000000" font-family="Sans-Serif" font-size="13" lengthAdjust="spacing" textLength="4.1323" x="641.2419" y="258.7297">&#160;</text><text fill="#000000" font-family="Sans-Serif" font-size="13" lengthAdjust="spacing" textLength="23.353" x="645.3742" y="258.7297">can</text><text fill="#000000" font-family="Sans-Serif" font-size="13" lengthAdjust="spacing" textLength="4.1323" x="668.7272" y="258.7297">&#160;</text><text fill="#000000" font-family="Sans-Serif" font-size="13" lengthAdjust="spacing" textLength="37.6289" x="672.8595" y="258.7297">carry.</text></g><!--reverse link Agni-IV Missile to Surface-to-Surface--><g class="link" data-entity-1="Agni-IV Missile" data-entity-2="Surface-to-Surface" data-source-line="41" data-uid="lnk14" id="link_Agni-IV Missile_Surface-to-Surface"><path codeLine="41" d="M964.99,20.59 C863.78,20.59 683.84,20.59 683.84,20.59 C683.84,20.59 683.84,85.05 683.84,117.79" fill="none" id="Agni-IV Missile-backto-Surface-to-Surface" style="stroke:#FFFFFF;stroke-width:1.5;"/><polygon fill="none" points="976.99,20.59,970.99,16.59,964.99,20.59,970.99,24.59,976.99,20.59" style="stroke:#FFFFFF;stroke-width:1.5;"/></g><!--reverse link Agni-IV Missile to Range--><g class="link" data-entity-1="Agni-IV Missile" data-entity-2="Range" data-source-line="42" data-uid="lnk15" id="link_Agni-IV Missile_Range"><path codeLine="42" d="M964.66,32.59 C904,32.59 832.06,32.59 832.06,32.59 C832.06,32.59 832.06,175.96 832.06,228.04" fill="none" id="Agni-IV Missile-backto-Range" style="stroke:#FFFFFF;stroke-width:1.5;"/><polygon fill="none" points="976.66,32.59,970.66,28.59,964.66,32.59,970.66,36.59,976.66,32.59" style="stroke:#FFFFFF;stroke-width:1.5;"/></g><!--reverse link Agni-IV Missile to Nuclear Warhead Delivery--><g class="link" data-entity-1="Agni-IV Missile" data-entity-2="Nuclear Warhead Delivery" data-source-line="43" data-uid="lnk16" id="link_Agni-IV Missile_Nuclear Warhead Delivery"><path codeLine="43" d="M1037.84,56.6 C1037.84,72.73 1037.84,81.59 1037.84,81.59 C1037.84,81.59 1637.92,81.59 1637.92,81.59 C1637.92,81.59 1637.92,276.7 1637.92,338.43" fill="none" id="Agni-IV Missile-backto-Nuclear Warhead Delivery" style="stroke:#FFFFFF;stroke-width:1.5;"/><polygon fill="none" points="1037.84,44.6,1033.84,50.6,1037.84,56.6,1041.84,50.6,1037.84,44.6" style="stroke:#FFFFFF;stroke-width:1.5;"/></g><!--reverse link Agni-IV Missile to Fuel Propellant--><g class="link" data-entity-1="Agni-IV Missile" data-entity-2="Fuel Propellant" data-source-line="44" data-uid="lnk17" id="link_Agni-IV Missile_Fuel Propellant"><path codeLine="44" d="M1110.83,32.59 C1132.28,32.59 1139.16,32.59 1139.16,32.59 C1139.16,32.59 1139.16,136.59 1139.16,136.59 C1139.16,136.59 1157.78,136.59 1179.16,136.59" fill="none" id="Agni-IV Missile-backto-Fuel Propellant" style="stroke:#FFFFFF;stroke-width:1.5;"/><polygon fill="none" points="1098.83,32.59,1104.83,36.59,1110.83,32.59,1104.83,28.59,1098.83,32.59" style="stroke:#FFFFFF;stroke-width:1.5;"/></g><!--link Fuel Propellant to Range--><g class="link" data-entity-1="Fuel Propellant" data-entity-2="Range" data-source-line="46" data-uid="lnk18" id="link_Fuel Propellant_Range"><path codeLine="46" d="M1221.03,154.77 C1221.03,170.83 1221.03,191.59 1221.03,191.59 C1221.03,191.59 853.62,191.59 853.62,191.59 C853.62,191.59 853.62,206.04 853.62,222.02" fill="none" id="Fuel Propellant-to-Range" style="stroke:#FFFFFF;stroke-width:1.5;"/><polygon fill="#FFFFFF" points="853.62,228.02,857.62,219.02,853.62,223.02,849.62,219.02,853.62,228.02" style="stroke:#FFFFFF;stroke-width:1.5;"/></g><!--link Fuel Propellant to Payload Capacity--><g class="link" data-entity-1="Fuel Propellant" data-entity-2="Payload Capacity" data-source-line="47" data-uid="lnk19" id="link_Fuel Propellant_Payload Capacity"><path codeLine="47" d="M1262.65,154.6 C1262.65,174.91 1262.65,201.59 1262.65,222.06" fill="none" id="Fuel Propellant-to-Payload Capacity" style="stroke:#FFFFFF;stroke-width:1.5;"/><polygon fill="#FFFFFF" points="1262.65,228.06,1266.65,219.06,1262.65,223.06,1258.65,219.06,1262.65,228.06" style="stroke:#FFFFFF;stroke-width:1.5;"/></g><!--link Payload Capacity to Nuclear Warhead Delivery--><g class="link" data-entity-1="Payload Capacity" data-entity-2="Nuclear Warhead Delivery" data-source-line="49" data-uid="lnk20" id="link_Payload Capacity_Nuclear Warhead Delivery"><path codeLine="49" d="M1288.61,265.28 C1288.61,281.55 1288.61,302.59 1288.61,302.59 C1288.61,302.59 1535.91,302.59 1535.91,302.59 C1535.91,302.59 1535.91,316.77 1535.91,332.53" fill="none" id="Payload Capacity-to-Nuclear Warhead Delivery" style="stroke:#FFFFFF;stroke-width:1.5;"/><polygon fill="#FFFFFF" points="1535.91,338.53,1539.91,329.53,1535.91,333.53,1531.91,329.53,1535.91,338.53" style="stroke:#FFFFFF;stroke-width:1.5;"/></g><!--link Range to Strategic Importance--><g class="link" data-entity-1="Range" data-entity-2="Strategic Importance" data-source-line="51" data-uid="lnk21" id="link_Range_Strategic Importance"><path codeLine="51" d="M842.84,265.3 C842.84,285.11 842.84,313.59 842.84,313.59 C842.84,313.59 607.46,313.59 607.46,313.59 C607.46,313.59 607.46,320.55 607.46,332.3" fill="none" id="Range-to-Strategic Importance" style="stroke:#FFFFFF;stroke-width:1.5;stroke-dasharray:7.0,7.0;"/><polygon fill="#FFFFFF" points="607.46,338.3,611.46,329.3,607.46,333.3,603.46,329.3,607.46,338.3" style="stroke:#FFFFFF;stroke-width:1.5;"/></g><!--link Range to Operational Deployment--><g class="link" data-entity-1="Range" data-entity-2="Operational Deployment" data-source-line="52" data-uid="lnk22" id="link_Range_Operational Deployment"><path codeLine="52" d="M826.67,265.29 C826.67,277.26 826.67,290.59 826.67,290.59 C826.67,290.59 345.84,290.59 345.84,290.59 C345.84,290.59 345.84,312.82 345.84,332.45" fill="none" id="Range-to-Operational Deployment" style="stroke:#FFFFFF;stroke-width:1.5;stroke-dasharray:7.0,7.0;"/><polygon fill="#FFFFFF" points="345.84,338.45,349.84,329.45,345.84,333.45,341.84,329.45,345.84,338.45" style="stroke:#FFFFFF;stroke-width:1.5;"/></g><!--link Range to Geopolitical Impact--><g class="link" data-entity-1="Range" data-entity-2="Geopolitical Impact" data-source-line="53" data-uid="lnk23" id="link_Range_Geopolitical Impact"><path codeLine="53" d="M859.01,264.97 C859.01,288.28 859.01,325.59 859.01,325.59 C859.01,325.59 1018.8,325.59 1018.8,325.59 C1018.8,325.59 1018.8,325.59 1018.8,332.34" fill="none" id="Range-to-Geopolitical Impact" style="stroke:#FFFFFF;stroke-width:1.5;stroke-dasharray:7.0,7.0;"/><polygon fill="#FFFFFF" points="1018.8,338.34,1022.8,329.34,1018.8,333.34,1014.8,329.34,1018.8,338.34" style="stroke:#FFFFFF;stroke-width:1.5;"/></g><!--link Geopolitical Impact to Regional Power Dynamics--><g class="link" data-entity-1="Geopolitical Impact" data-entity-2="Regional Power Dynamics" data-source-line="55" data-uid="lnk24" id="link_Geopolitical Impact_Regional Power Dynamics"><path codeLine="55" d="M1048.84,375.13 C1048.84,395.44 1048.84,422.12 1048.84,442.59" fill="none" id="Geopolitical Impact-to-Regional Power Dynamics" style="stroke:#FFFFFF;stroke-width:1.5;"/><polygon fill="#FFFFFF" points="1048.84,448.59,1052.84,439.59,1048.84,443.59,1044.84,439.59,1048.84,448.59" style="stroke:#FFFFFF;stroke-width:1.5;"/></g><!--link Nuclear Warhead Delivery to Nuclear Deterrence--><g class="link" data-entity-1="Nuclear Warhead Delivery" data-entity-2="Nuclear Deterrence" data-source-line="57" data-uid="lnk25" id="link_Nuclear Warhead Delivery_Nuclear Deterrence"><path codeLine="57" d="M1602.84,375.13 C1602.84,395.44 1602.84,422.12 1602.84,442.59" fill="none" id="Nuclear Warhead Delivery-to-Nuclear Deterrence" style="stroke:#FFFFFF;stroke-width:1.5;"/><polygon fill="#FFFFFF" points="1602.84,448.59,1606.84,439.59,1602.84,443.59,1598.84,439.59,1602.84,448.59" style="stroke:#FFFFFF;stroke-width:1.5;"/></g><!--link Nuclear Warhead Delivery to Proliferation Arms Control--><g class="link" data-entity-1="Nuclear Warhead Delivery" data-entity-2="Proliferation Arms Control" data-source-line="58" data-uid="lnk26" id="link_Nuclear Warhead Delivery_Proliferation Arms Control"><path codeLine="58" d="M1700.63,375.2 C1700.63,406.63 1700.63,467.59 1700.63,467.59 C1700.63,467.59 1707.29,467.59 1724.74,467.59" fill="none" id="Nuclear Warhead Delivery-to-Proliferation Arms Control" style="stroke:#FFFFFF;stroke-width:1.5;"/><polygon fill="#FFFFFF" points="1730.74,467.59,1721.74,463.59,1725.74,467.59,1721.74,471.59,1730.74,467.59" style="stroke:#FFFFFF;stroke-width:1.5;"/></g><!--link GMN30 to Range--><g class="link" data-entity-1="GMN30" data-entity-2="Range" data-source-line="66" data-uid="lnk32" id="link_GMN30_Range"><path d="M915.94,156.79 C915.94,188.89 915.94,247.59 915.94,247.59 C915.94,247.59 895.01,247.59 875.54,247.59" fill="none" id="GMN30-Range" style="stroke:#FFFFFF;stroke-width:1.5;stroke-dasharray:7.0,7.0;"/></g><!--link Fuel Propellant to GMN36--><g class="link" data-entity-1="Fuel Propellant" data-entity-2="GMN36" data-source-line="74" data-uid="lnk38" id="link_Fuel Propellant_GMN36"><path d="M1304.61,136.59 C1367.75,136.59 1455.84,136.59 1455.84,136.59 C1455.84,136.59 1455.84,194.38 1455.84,226.21" fill="none" id="Fuel Propellant-GMN36" style="stroke:#FFFFFF;stroke-width:1.5;stroke-dasharray:7.0,7.0;"/></g><!--link Nuclear Deterrence to GMN45--><g class="link" data-entity-1="Nuclear Deterrence" data-entity-2="GMN45" data-source-line="86" data-uid="lnk47" id="link_Nuclear Deterrence_GMN45"><path d="M1602.84,485.64 C1602.84,501.75 1602.84,522.59 1602.84,522.59 C1602.84,522.59 2079.84,522.59 2079.84,522.59 C2079.84,522.59 2079.84,503.57 2079.84,487.82" fill="none" id="Nuclear Deterrence-GMN45" style="stroke:#FFFFFF;stroke-width:1.5;stroke-dasharray:7.0,7.0;"/></g><!--link GMN57 to Payload Capacity--><g class="link" data-entity-1="GMN57" data-entity-2="Payload Capacity" data-source-line="102" data-uid="lnk59" id="link_GMN57_Payload Capacity"><path d="M735.39,267.06 C735.39,273.32 735.39,278.59 735.39,278.59 C735.39,278.59 1182.02,278.59 1182.02,278.59 C1182.02,278.59 1182.02,272.26 1182.02,265.23" fill="none" id="GMN57-Payload Capacity" style="stroke:#FFFFFF;stroke-width:1.5;stroke-dasharray:7.0,7.0;"/></g><!--SRC=[ZLPDRziu4BthLmoIGxj0b6rtDsXoQ037gHSvD0dYO7kcgP743KKAv2YA_ds7aXpBbkJMXyJWFCx7cpT32wrjNQWtPRB8loXJ2YSAs0ZvaZbRcMHfjNLm-dVx6I2qCaXDYM0TvNPWC3P1ZoLSV1eSEc5Umk6NuM61teiC5rfbfa138FaFkW4YmLHKcfxnZOwWZ2MyiIv1roVxJ_ivH1oMj5ejBZuDyrauP-lEMEUAyD3qd2lvOZXf-7n-CJ3MJfG_L48v_BNdhyz-PGtTYmBXP2sCZzVeL7foaDolC7tUpg3Z80E3pqLYQsuUf49xd8xUrRJHpC14t6chGqd2PFft84FoE-QY3_3eL25S0-l64nRHEnXE5fbHyTr_y5rvhpIUmEdLvUhcwZBSMkRiMd9_bISbFGYJm5AKOgEq8eKUFYusdW84bjP8BCd_CVIzhbmg9CPau_xhplq0ziJ_W-Noo_BRjvkXvRwI6eM37yBbA1AuHQrUqJMJu5M5cWkr9Mej34rY7aMZhUYga8e6ZhZSku8FgIlpeI9fYyaIuKzusFpFFZcLWtePI9Wf6LpnA0eZf-jwA96HoXgXkQPIsoOCqr4ARf7xu73E8zUjLTfxvGafVCYN-7GI_Y_QqeOcIiwWgtiIzyJLj5a-sfhLVjiOKR0IzcXxGjr6zRagVJGMb8tZIIdCGJivp5bd9J5tuL0MKJHMIXnVx-9EMqVAOJzZDRNG-HIZhTRFpwzdvB8FcH7AFcYgcHngiiTTfJDTvKlp4xTNsa2Dn-vy_NfzL9f1FZiMxda7mYFlDGn5Hc4bWbDPJc3JyQAA0EvCeeG15PwW0laxOUm2CVnaQjqkBIWwEFXsyvr7oCCTF4UTVx9bwxrlFi1tyQQAYZSsNmyD0ShntOdaQ9pkA-gH8urfb-Tyzm4MxUPiE2gxShoFmwf9EW2O_cBTNVIZ41jBP8iso4ZK0C_X_LVz2cFPfDOLeO0pQ2avQsELdM97hdSqJuioS9tgAZISzoEOjfSVV7ZNq7Y4qdgg74AcRQ2-cQTdJj40juhN3h7_EaStvds3K7ayblgKE66h5qwM5SSC6IWTldBCy4vlEHT4_9mUO_oOYg5x6vnXRZQselUy2MLk-2NE6l0STOBuhVucPtYFTRSTsh8TMgOvjEO87RDJ3h3EHTcw76nk9fXgH0EIVzwGu-TzledZPRWRd1gt6VHYs-jYA_kTuvy0]--></g></svg>