<svg xmlns="http://www.w3.org/2000/svg" xmlns:xlink="http://www.w3.org/1999/xlink" contentStyleType="text/css" data-diagram-type="CLASS" height="600px" preserveAspectRatio="none" style="width:1029px;height:600px;background:#333333;" version="1.1" viewBox="0 0 1029 600" width="1029px" zoomAndPan="magnify"><defs/><g><rect fill="#333333" height="600" style="stroke:none;stroke-width:1;" width="1029" x="0" y="0"/><!--entity Look East Policy--><g class="entity" data-entity="Look East Policy" data-source-line="23" data-uid="ent0002" id="entity_Look East Policy"><rect fill="#87CEEB" height="36.2969" rx="10" ry="10" style="stroke:#FFFFFF;stroke-width:0.5;" width="132.916" x="467.74" y="116.27"/><text fill="#000000" font-family="Sans-Serif" font-size="14" lengthAdjust="spacing" textLength="33.0381" x="477.74" y="139.2651">Look</text><text fill="#000000" font-family="Sans-Serif" font-size="14" lengthAdjust="spacing" textLength="4.4502" x="510.7781" y="139.2651">&#160;</text><text fill="#000000" font-family="Sans-Serif" font-size="14" lengthAdjust="spacing" textLength="30.208" x="515.2283" y="139.2651">East</text><text fill="#000000" font-family="Sans-Serif" font-size="14" lengthAdjust="spacing" textLength="4.4502" x="545.4363" y="139.2651">&#160;</text><text fill="#000000" font-family="Sans-Serif" font-size="14" lengthAdjust="spacing" textLength="40.7695" x="549.8865" y="139.2651">Policy</text></g><!--entity Regional Influence--><g class="entity" data-entity="Regional Influence" data-source-line="24" data-uid="ent0003" id="entity_Regional Influence"><rect fill="#E6E6FA" height="36.2969" rx="10" ry="10" style="stroke:#FFFFFF;stroke-width:0.5;" width="149.9648" x="416.22" y="443.1"/><text fill="#000000" font-family="Sans-Serif" font-size="14" lengthAdjust="spacing" textLength="61.0244" x="426.22" y="466.0951">Regional</text><text fill="#000000" font-family="Sans-Serif" font-size="14" lengthAdjust="spacing" textLength="4.4502" x="487.2444" y="466.0951">&#160;</text><text fill="#000000" font-family="Sans-Serif" font-size="14" lengthAdjust="spacing" textLength="64.4902" x="491.6946" y="466.0951">Influence</text></g><!--entity Historical Ties--><g class="entity" data-entity="Historical Ties" data-source-line="25" data-uid="ent0004" id="entity_Historical Ties"><rect fill="#87CEEB" height="36.2969" rx="10" ry="10" style="stroke:#FFFFFF;stroke-width:0.5;" width="118.376" x="570.01" y="224.55"/><text fill="#000000" font-family="Sans-Serif" font-size="14" lengthAdjust="spacing" textLength="65.5771" x="580.01" y="247.5451">Historical</text><text fill="#000000" font-family="Sans-Serif" font-size="14" lengthAdjust="spacing" textLength="4.4502" x="645.5871" y="247.5451">&#160;</text><text fill="#000000" font-family="Sans-Serif" font-size="14" lengthAdjust="spacing" textLength="28.3486" x="650.0373" y="247.5451">Ties</text></g><!--entity Strategic Autonomy--><g class="entity" data-entity="Strategic Autonomy" data-source-line="26" data-uid="ent0005" id="entity_Strategic Autonomy"><rect fill="#E6E6FA" height="36.2969" rx="10" ry="10" style="stroke:#FFFFFF;stroke-width:0.5;" width="159.6035" x="360.4" y="224.55"/><text fill="#000000" font-family="Sans-Serif" font-size="14" lengthAdjust="spacing" textLength="63.2871" x="370.4" y="247.5451">Strategic</text><text fill="#000000" font-family="Sans-Serif" font-size="14" lengthAdjust="spacing" textLength="4.4502" x="433.6871" y="247.5451">&#160;</text><text fill="#000000" font-family="Sans-Serif" font-size="14" lengthAdjust="spacing" textLength="71.8662" x="438.1373" y="247.5451">Autonomy</text></g><!--entity Economic Integration--><g class="entity" data-entity="Economic Integration" data-source-line="27" data-uid="ent0006" id="entity_Economic Integration"><rect fill="#98FB98" height="36.2969" rx="10" ry="10" style="stroke:#FFFFFF;stroke-width:0.5;" width="169.3652" x="618.52" y="334.82"/><text fill="#000000" font-family="Sans-Serif" font-size="14" lengthAdjust="spacing" textLength="67.7715" x="628.52" y="357.8151">Economic</text><text fill="#000000" font-family="Sans-Serif" font-size="14" lengthAdjust="spacing" textLength="4.4502" x="696.2915" y="357.8151">&#160;</text><text fill="#000000" font-family="Sans-Serif" font-size="14" lengthAdjust="spacing" textLength="77.1436" x="700.7417" y="357.8151">Integration</text></g><g class="entity" data-entity="GMN15" data-source-line="42" data-uid="ent0016" id="entity_GMN15"><path d="M426.03,16 L426.03,36.2656 A10,10 0 0 0 436.03,46.2656 L530.2,46.2656 L534.2,116.04 L538.2,46.2656 L632.3664,46.2656 A10,10 0 0 0 642.3664,36.2656 L642.3664,16 L632.3664,6 L436.03,6 A10,10 0 0 0 426.03,16" fill="#FFA500" style="stroke:#444444;stroke-width:0.5;"/><path d="M632.3664,6 L632.3664,11 A5,5 0 0 0 637.3664,16 L642.3664,16 L632.3664,6" fill="#FFA500" style="stroke:#444444;stroke-width:0.5;"/><text fill="#000000" font-family="Sans-Serif" font-size="13" lengthAdjust="spacing" textLength="42.25" x="435.9211" y="23.0669">India's</text><text fill="#000000" font-family="Sans-Serif" font-size="13" lengthAdjust="spacing" textLength="4.1323" x="478.1711" y="23.0669">&#160;</text><text fill="#000000" font-family="Sans-Serif" font-size="13" lengthAdjust="spacing" textLength="54.2217" x="482.3034" y="23.0669">strategy</text><text fill="#000000" font-family="Sans-Serif" font-size="13" lengthAdjust="spacing" textLength="4.1323" x="536.5251" y="23.0669">&#160;</text><text fill="#000000" font-family="Sans-Serif" font-size="13" lengthAdjust="spacing" textLength="17.875" x="540.6574" y="23.0669">for</text><text fill="#000000" font-family="Sans-Serif" font-size="13" lengthAdjust="spacing" textLength="4.1323" x="558.5324" y="23.0669">&#160;</text><text fill="#000000" font-family="Sans-Serif" font-size="13" lengthAdjust="spacing" textLength="60.8105" x="562.6648" y="23.0669">engaging</text><text fill="#000000" font-family="Sans-Serif" font-size="13" lengthAdjust="spacing" textLength="65.6157" x="432.03" y="38.1997">Southeast</text><text fill="#000000" font-family="Sans-Serif" font-size="13" lengthAdjust="spacing" textLength="4.1323" x="497.6457" y="38.1997">&#160;</text><text fill="#000000" font-family="Sans-Serif" font-size="13" lengthAdjust="spacing" textLength="24.4575" x="501.778" y="38.1997">and</text><text fill="#000000" font-family="Sans-Serif" font-size="13" lengthAdjust="spacing" textLength="4.1323" x="526.2356" y="38.1997">&#160;</text><text fill="#000000" font-family="Sans-Serif" font-size="13" lengthAdjust="spacing" textLength="28.0503" x="530.3679" y="38.1997">East</text><text fill="#000000" font-family="Sans-Serif" font-size="13" lengthAdjust="spacing" textLength="4.1323" x="558.4182" y="38.1997">&#160;</text><text fill="#000000" font-family="Sans-Serif" font-size="13" lengthAdjust="spacing" textLength="27.2441" x="562.5505" y="38.1997">Asia</text><text fill="#000000" font-family="Sans-Serif" font-size="13" lengthAdjust="spacing" textLength="4.1323" x="589.7946" y="38.1997">&#160;</text><text fill="#000000" font-family="Sans-Serif" font-size="13" lengthAdjust="spacing" textLength="33.4395" x="593.927" y="38.1997">(LEP)</text></g><g class="entity" data-entity="GMN18" data-source-line="47" data-uid="ent0019" id="entity_GMN18"><path d="M400.42,559.39 L400.42,579.6556 A10,10 0 0 0 410.42,589.6556 L571.9713,589.6556 A10,10 0 0 0 581.9713,579.6556 L581.9713,559.39 L571.9713,549.39 L495.2,549.39 L491.2,479.61 L487.2,549.39 L410.42,549.39 A10,10 0 0 0 400.42,559.39" fill="#FFA500" style="stroke:#444444;stroke-width:0.5;"/><path d="M571.9713,549.39 L571.9713,554.39 A5,5 0 0 0 576.9713,559.39 L581.9713,559.39 L571.9713,549.39" fill="#FFA500" style="stroke:#444444;stroke-width:0.5;"/><text fill="#000000" font-family="Sans-Serif" font-size="13" lengthAdjust="spacing" textLength="45.2715" x="406.42" y="566.4569">Aiming</text><text fill="#000000" font-family="Sans-Serif" font-size="13" lengthAdjust="spacing" textLength="4.1323" x="451.6915" y="566.4569">&#160;</text><text fill="#000000" font-family="Sans-Serif" font-size="13" lengthAdjust="spacing" textLength="17.875" x="455.8238" y="566.4569">for</text><text fill="#000000" font-family="Sans-Serif" font-size="13" lengthAdjust="spacing" textLength="4.1323" x="473.6988" y="566.4569">&#160;</text><text fill="#000000" font-family="Sans-Serif" font-size="13" lengthAdjust="spacing" textLength="7.9663" x="477.8311" y="566.4569">a</text><text fill="#000000" font-family="Sans-Serif" font-size="13" lengthAdjust="spacing" textLength="4.1323" x="485.7974" y="566.4569">&#160;</text><text fill="#000000" font-family="Sans-Serif" font-size="13" lengthAdjust="spacing" textLength="48.001" x="489.9298" y="566.4569">greater</text><text fill="#000000" font-family="Sans-Serif" font-size="13" lengthAdjust="spacing" textLength="4.1323" x="537.9307" y="566.4569">&#160;</text><text fill="#000000" font-family="Sans-Serif" font-size="13" lengthAdjust="spacing" textLength="24.9082" x="542.0631" y="566.4569">role</text><text fill="#000000" font-family="Sans-Serif" font-size="13" lengthAdjust="spacing" textLength="11.8511" x="422.3971" y="581.5897">in</text><text fill="#000000" font-family="Sans-Serif" font-size="13" lengthAdjust="spacing" textLength="4.1323" x="434.2481" y="581.5897">&#160;</text><text fill="#000000" font-family="Sans-Serif" font-size="13" lengthAdjust="spacing" textLength="28.0503" x="438.3804" y="581.5897">East</text><text fill="#000000" font-family="Sans-Serif" font-size="13" lengthAdjust="spacing" textLength="4.1323" x="466.4307" y="581.5897">&#160;</text><text fill="#000000" font-family="Sans-Serif" font-size="13" lengthAdjust="spacing" textLength="35.4834" x="470.5631" y="581.5897">Asian</text><text fill="#000000" font-family="Sans-Serif" font-size="13" lengthAdjust="spacing" textLength="4.1323" x="506.0465" y="581.5897">&#160;</text><text fill="#000000" font-family="Sans-Serif" font-size="13" lengthAdjust="spacing" textLength="40.8154" x="510.1788" y="581.5897">affairs</text></g><g class="entity" data-entity="GMN21" data-source-line="52" data-uid="ent0022" id="entity_GMN21"><path d="M6,232.57 L6,252.8356 A10,10 0 0 0 16,262.8356 L198.397,262.8356 A10,10 0 0 0 208.397,252.8356 L208.397,232.57 L198.397,222.57 L16,222.57 A10,10 0 0 0 6,232.57" fill="#FFA500" style="stroke:#444444;stroke-width:0.5;"/><path d="M198.397,222.57 L198.397,227.57 A5,5 0 0 0 203.397,232.57 L208.397,232.57 L198.397,222.57" fill="#FFA500" style="stroke:#444444;stroke-width:1;"/><text fill="#000000" font-family="Sans-Serif" font-size="13" lengthAdjust="spacing" textLength="72.5981" x="12" y="239.6369">Leveraging</text><text fill="#000000" font-family="Sans-Serif" font-size="13" lengthAdjust="spacing" textLength="4.1323" x="84.5981" y="239.6369">&#160;</text><text fill="#000000" font-family="Sans-Serif" font-size="13" lengthAdjust="spacing" textLength="51.2764" x="88.7305" y="239.6369">existing</text><text fill="#000000" font-family="Sans-Serif" font-size="13" lengthAdjust="spacing" textLength="4.1323" x="140.0068" y="239.6369">&#160;</text><text fill="#000000" font-family="Sans-Serif" font-size="13" lengthAdjust="spacing" textLength="49.2578" x="144.1392" y="239.6369">cultural</text><text fill="#000000" font-family="Sans-Serif" font-size="13" lengthAdjust="spacing" textLength="24.4575" x="27.9897" y="254.7697">and</text><text fill="#000000" font-family="Sans-Serif" font-size="13" lengthAdjust="spacing" textLength="4.1323" x="52.4473" y="254.7697">&#160;</text><text fill="#000000" font-family="Sans-Serif" font-size="13" lengthAdjust="spacing" textLength="62.7148" x="56.5796" y="254.7697">economic</text><text fill="#000000" font-family="Sans-Serif" font-size="13" lengthAdjust="spacing" textLength="4.1323" x="119.2944" y="254.7697">&#160;</text><text fill="#000000" font-family="Sans-Serif" font-size="13" lengthAdjust="spacing" textLength="53.9805" x="123.4268" y="254.7697">linkages</text></g><g class="entity" data-entity="GMN24" data-source-line="57" data-uid="ent0025" id="entity_GMN24"><path d="M738.12,232.57 L738.12,252.8356 A10,10 0 0 0 748.12,262.8356 L904.2821,262.8356 A10,10 0 0 0 914.2821,252.8356 L914.2821,232.57 L904.2821,222.57 L748.12,222.57 A10,10 0 0 0 738.12,232.57" fill="#FFA500" style="stroke:#444444;stroke-width:0.5;"/><path d="M904.2821,222.57 L904.2821,227.57 A5,5 0 0 0 909.2821,232.57 L914.2821,232.57 L904.2821,222.57" fill="#FFA500" style="stroke:#444444;stroke-width:1;"/><text fill="#000000" font-family="Sans-Serif" font-size="13" lengthAdjust="spacing" textLength="82.3989" x="744.12" y="239.6369">Independent</text><text fill="#000000" font-family="Sans-Serif" font-size="13" lengthAdjust="spacing" textLength="4.1323" x="826.5189" y="239.6369">&#160;</text><text fill="#000000" font-family="Sans-Serif" font-size="13" lengthAdjust="spacing" textLength="68.6309" x="830.6513" y="239.6369">navigation</text><text fill="#000000" font-family="Sans-Serif" font-size="13" lengthAdjust="spacing" textLength="12.5303" x="756.2345" y="254.7697">of</text><text fill="#000000" font-family="Sans-Serif" font-size="13" lengthAdjust="spacing" textLength="4.1323" x="768.7648" y="254.7697">&#160;</text><text fill="#000000" font-family="Sans-Serif" font-size="13" lengthAdjust="spacing" textLength="75.0674" x="772.8971" y="254.7697">geopolitical</text><text fill="#000000" font-family="Sans-Serif" font-size="13" lengthAdjust="spacing" textLength="4.1323" x="847.9645" y="254.7697">&#160;</text><text fill="#000000" font-family="Sans-Serif" font-size="13" lengthAdjust="spacing" textLength="35.0708" x="852.0968" y="254.7697">shifts</text></g><g class="entity" data-entity="GMN27" data-source-line="62" data-uid="ent0028" id="entity_GMN27"><path d="M837.98,342.83 L837.98,349.66 L788.26,353.66 L837.98,357.66 L837.98,363.0956 A10,10 0 0 0 847.98,373.0956 L1008.4141,373.0956 A10,10 0 0 0 1018.4141,363.0956 L1018.4141,342.83 L1008.4141,332.83 L847.98,332.83 A10,10 0 0 0 837.98,342.83" fill="#FFA500" style="stroke:#444444;stroke-width:0.5;"/><path d="M1008.4141,332.83 L1008.4141,337.83 A5,5 0 0 0 1013.4141,342.83 L1018.4141,342.83 L1008.4141,332.83" fill="#FFA500" style="stroke:#444444;stroke-width:0.5;"/><text fill="#000000" font-family="Sans-Serif" font-size="13" lengthAdjust="spacing" textLength="70.5986" x="854.7075" y="349.8969">Deepening</text><text fill="#000000" font-family="Sans-Serif" font-size="13" lengthAdjust="spacing" textLength="4.1323" x="925.3062" y="349.8969">&#160;</text><text fill="#000000" font-family="Sans-Serif" font-size="13" lengthAdjust="spacing" textLength="34.6582" x="929.4385" y="349.8969">trade</text><text fill="#000000" font-family="Sans-Serif" font-size="13" lengthAdjust="spacing" textLength="4.1323" x="964.0967" y="349.8969">&#160;</text><text fill="#000000" font-family="Sans-Serif" font-size="13" lengthAdjust="spacing" textLength="24.4575" x="968.229" y="349.8969">and</text><text fill="#000000" font-family="Sans-Serif" font-size="13" lengthAdjust="spacing" textLength="73.4106" x="843.98" y="365.0297">investment</text><text fill="#000000" font-family="Sans-Serif" font-size="13" lengthAdjust="spacing" textLength="4.1323" x="917.3906" y="365.0297">&#160;</text><text fill="#000000" font-family="Sans-Serif" font-size="13" lengthAdjust="spacing" textLength="81.8911" x="921.523" y="365.0297">partnerships</text></g><!--link Look East Policy to Regional Influence--><g class="link" data-entity-1="Look East Policy" data-entity-2="Regional Influence" data-source-line="30" data-uid="lnk7" id="link_Look East Policy_Regional Influence"><path codeLine="30" d="M531.55,152.93 C531.55,210.45 531.55,379.69 531.55,436.94" fill="none" id="Look East Policy-to-Regional Influence" style="stroke:#FFFFFF;stroke-width:1.5;"/><polygon fill="#FFFFFF" points="531.55,442.94,535.55,433.94,531.55,437.94,527.55,433.94,531.55,442.94" style="stroke:#FFFFFF;stroke-width:1.5;"/></g><!--link Look East Policy to Strategic Autonomy--><g class="link" data-entity-1="Look East Policy" data-entity-2="Strategic Autonomy" data-source-line="31" data-uid="lnk8" id="link_Look East Policy_Strategic Autonomy"><path codeLine="31" d="M493.87,152.79 C493.87,172.7 493.87,198.29 493.87,218.24" fill="none" id="Look East Policy-to-Strategic Autonomy" style="stroke:#FFFFFF;stroke-width:1.5;"/><polygon fill="#FFFFFF" points="493.87,224.24,497.87,215.24,493.87,219.24,489.87,215.24,493.87,224.24" style="stroke:#FFFFFF;stroke-width:1.5;"/></g><!--link Look East Policy to Economic Integration--><g class="link" data-entity-1="Look East Policy" data-entity-2="Economic Integration" data-source-line="32" data-uid="lnk9" id="link_Look East Policy_Economic Integration"><path codeLine="32" d="M543.09,152.97 C543.09,204.85 543.09,347.66 543.09,347.66 C543.09,347.66 574.05,347.66 612.46,347.66" fill="none" id="Look East Policy-to-Economic Integration" style="stroke:#FFFFFF;stroke-width:1.5;"/><polygon fill="#FFFFFF" points="618.46,347.66,609.46,343.66,613.46,347.66,609.46,351.66,618.46,347.66" style="stroke:#FFFFFF;stroke-width:1.5;"/></g><!--link Look East Policy to Historical Ties--><g class="link" data-entity-1="Look East Policy" data-entity-2="Historical Ties" data-source-line="33" data-uid="lnk10" id="link_Look East Policy_Historical Ties"><path codeLine="33" d="M585.33,152.79 C585.33,172.7 585.33,198.29 585.33,218.24" fill="none" id="Look East Policy-to-Historical Ties" style="stroke:#FFFFFF;stroke-width:1.5;"/><polygon fill="#FFFFFF" points="585.33,224.24,589.33,215.24,585.33,219.24,581.33,215.24,585.33,224.24" style="stroke:#FFFFFF;stroke-width:1.5;"/></g><!--link Strategic Autonomy to Regional Influence--><g class="link" data-entity-1="Strategic Autonomy" data-entity-2="Regional Influence" data-source-line="35" data-uid="lnk11" id="link_Strategic Autonomy_Regional Influence"><path codeLine="35" d="M450.81,261.33 C450.81,302.62 450.81,395.41 450.81,436.66" fill="none" id="Strategic Autonomy-to-Regional Influence" style="stroke:#FFFFFF;stroke-width:1.5;"/><polygon fill="#FFFFFF" points="450.81,442.66,454.81,433.66,450.81,437.66,446.81,433.66,450.81,442.66" style="stroke:#FFFFFF;stroke-width:1.5;"/></g><!--link Historical Ties to Economic Integration--><g class="link" data-entity-1="Historical Ties" data-entity-2="Economic Integration" data-source-line="36" data-uid="lnk12" id="link_Historical Ties_Economic Integration"><path codeLine="36" d="M653.45,260.91 C653.45,281.22 653.45,307.89 653.45,328.36" fill="none" id="Historical Ties-to-Economic Integration" style="stroke:#FFFFFF;stroke-width:1.5;"/><polygon fill="#FFFFFF" points="653.45,334.36,657.45,325.36,653.45,329.36,649.45,325.36,653.45,334.36" style="stroke:#FFFFFF;stroke-width:1.5;"/></g><!--link Historical Ties to Regional Influence--><g class="link" data-entity-1="Historical Ties" data-entity-2="Regional Influence" data-source-line="37" data-uid="lnk13" id="link_Historical Ties_Regional Influence"><path codeLine="37" d="M577.99,260.99 C577.99,313.62 577.99,461.66 577.99,461.66 C577.99,461.66 579.53,461.66 572.64,461.66" fill="none" id="Historical Ties-to-Regional Influence" style="stroke:#FFFFFF;stroke-width:1.5;"/><polygon fill="#FFFFFF" points="566.64,461.66,575.64,465.66,571.64,461.66,575.64,457.66,566.64,461.66" style="stroke:#FFFFFF;stroke-width:1.5;"/></g><!--link Economic Integration to Regional Influence--><g class="link" data-entity-1="Economic Integration" data-entity-2="Regional Influence" data-source-line="38" data-uid="lnk14" id="link_Economic Integration_Regional Influence"><path codeLine="38" d="M618.07,359.66 C584.88,359.66 554.64,359.66 554.64,359.66 C554.64,359.66 554.64,407.29 554.64,436.61" fill="none" id="Economic Integration-to-Regional Influence" style="stroke:#FFFFFF;stroke-width:1.5;"/><polygon fill="#FFFFFF" points="554.64,442.61,558.64,433.61,554.64,437.61,550.64,433.61,554.64,442.61" style="stroke:#FFFFFF;stroke-width:1.5;"/></g><!--link GMN21 to Historical Ties--><g class="link" data-entity-1="GMN21" data-entity-2="Historical Ties" data-source-line="52" data-uid="lnk23" id="link_GMN21_Historical Ties"><path d="M107.2,263.14 C107.2,274.62 107.2,286.66 107.2,286.66 C107.2,286.66 574,286.66 574,286.66 C574,286.66 574,273.32 574,261.34" fill="none" id="GMN21-Historical Ties" style="stroke:#FFFFFF;stroke-width:1.5;stroke-dasharray:7.0,7.0;"/></g><!--link GMN24 to Strategic Autonomy--><g class="link" data-entity-1="GMN24" data-entity-2="Strategic Autonomy" data-source-line="57" data-uid="lnk26" id="link_GMN24_Strategic Autonomy"><path d="M763,263.15 C763,282.85 763,309.66 763,309.66 C763,309.66 485.41,309.66 485.41,309.66 C485.41,309.66 485.41,280.82 485.41,261" fill="none" id="GMN24-Strategic Autonomy" style="stroke:#FFFFFF;stroke-width:1.5;stroke-dasharray:7.0,7.0;"/></g><!--SRC=[ZLHDRzim3BtxLn3feTkXG_VHZnrQmEqSh40n54s1dLcRbeN8eY4fJVFlHydjwYNADXyCMtnyV7gYYCRmkjVFsgh2BxKTq64FZrWlbUELRQxPi8E3p-cP88os53O30RlGyIHWkI5F0vmSJnOTscLSF9ikzkGzAYgDLhOd6w2M5xa9eg4MLoOyq7Fu2yfoe2js3RaNiL_IiutOtj9yNfuSJ_MKpl5w3Aux7MWxzD3fUcb5D7pyS389hXqEFtKJElZq1z-B-ZdRy0DxWja2hJzQaDFjR4lSlp0lkfqb9qKc0TzXmsivF6ZHUCfN7_VqQCI1JDryr54Tq2hpFv2f-QDpnI5SOo35RWFVgDLM1ytM5xzJO7RBl8GAVO0xDhhUpE3W_Eowggwce7jIaeS6RcnhLcHh4bXrMftEoodik_Q1dQu5-A39PwaMmKL5kePo5TXolybILNMC2Uf6kan9YjGNuDVp-TNNyxYlUp9fqNTwy4Lc6nSNbrdXUx4PPNknMNavzD7HvQulHP6r8M6pYdUCJT0z8lBWB6_UvRruiVrDT-nR6AGNAOw38lq67e3RJ5CL83oDnaCFVcJOG2jjIbQXYZCFOC6hq57CGTkCoQNN2Ezkgxlt1SbQB56CXHuv1EvJhPnGW5BtwJPA3GJbI4ewkRw69ARj6xq5R5lKpczNCDI6nBzpU02tz4GkwGPwbd3ygEMIhnmQ2KVzzEgi3EYbJDVz_BcsIsxH82bnqbfyqYgTZGGaHH4FOcj8cgJ_sx33xhJgHlfyau2CWyWVbKlzXgBePCqJ-P3ckmoN87Dkl5-lzBy0]--></g></svg>