<svg xmlns="http://www.w3.org/2000/svg" xmlns:xlink="http://www.w3.org/1999/xlink" contentStyleType="text/css" data-diagram-type="CLASS" height="600px" preserveAspectRatio="none" style="width:758px;height:600px;background:#333333;" version="1.1" viewBox="0 0 758 600" width="758px" zoomAndPan="magnify"><defs/><g><rect fill="#333333" height="600" style="stroke:none;stroke-width:1;" width="758" x="0" y="0"/><!--entity Make in India--><g class="entity" data-entity="Make in India" data-source-line="23" data-uid="ent0002" id="entity_Make in India"><rect fill="#87CEEB" height="36.2969" rx="10" ry="10" style="stroke:#FFFFFF;stroke-width:0.5;" width="113.3994" x="364.92" y="116.27"/><text fill="#000000" font-family="Sans-Serif" font-size="14" lengthAdjust="spacing" textLength="37.3789" x="374.92" y="139.2651">Make</text><text fill="#000000" font-family="Sans-Serif" font-size="14" lengthAdjust="spacing" textLength="4.4502" x="412.2989" y="139.2651">&#160;</text><text fill="#000000" font-family="Sans-Serif" font-size="14" lengthAdjust="spacing" textLength="12.7627" x="416.7491" y="139.2651">in</text><text fill="#000000" font-family="Sans-Serif" font-size="14" lengthAdjust="spacing" textLength="4.4502" x="429.5118" y="139.2651">&#160;</text><text fill="#000000" font-family="Sans-Serif" font-size="14" lengthAdjust="spacing" textLength="34.3574" x="433.962" y="139.2651">India</text></g><!--entity Investment Promotion--><g class="entity" data-entity="Investment Promotion" data-source-line="24" data-uid="ent0003" id="entity_Investment Promotion"><rect fill="#98FB98" height="36.2969" rx="10" ry="10" style="stroke:#FFFFFF;stroke-width:0.5;" width="175.5313" x="333.85" y="224.55"/><text fill="#000000" font-family="Sans-Serif" font-size="14" lengthAdjust="spacing" textLength="79.2969" x="343.85" y="247.5451">Investment</text><text fill="#000000" font-family="Sans-Serif" font-size="14" lengthAdjust="spacing" textLength="4.4502" x="423.1469" y="247.5451">&#160;</text><text fill="#000000" font-family="Sans-Serif" font-size="14" lengthAdjust="spacing" textLength="71.7842" x="427.5971" y="247.5451">Promotion</text></g><!--entity Manufacturing Sector--><g class="entity" data-entity="Manufacturing Sector" data-source-line="25" data-uid="ent0004" id="entity_Manufacturing Sector"><rect fill="#98FB98" height="36.2969" rx="10" ry="10" style="stroke:#FFFFFF;stroke-width:0.5;" width="170.835" x="336.2" y="332.83"/><text fill="#000000" font-family="Sans-Serif" font-size="14" lengthAdjust="spacing" textLength="101.377" x="346.2" y="355.8251">Manufacturing</text><text fill="#000000" font-family="Sans-Serif" font-size="14" lengthAdjust="spacing" textLength="4.4502" x="447.577" y="355.8251">&#160;</text><text fill="#000000" font-family="Sans-Serif" font-size="14" lengthAdjust="spacing" textLength="45.0078" x="452.0271" y="355.8251">Sector</text></g><!--entity GDP Share--><g class="entity" data-entity="GDP Share" data-source-line="26" data-uid="ent0005" id="entity_GDP Share"><rect fill="#E6E6FA" height="36.2969" rx="10" ry="10" style="stroke:#FFFFFF;stroke-width:0.5;" width="95.2295" x="271" y="441.11"/><text fill="#000000" font-family="Sans-Serif" font-size="14" lengthAdjust="spacing" textLength="30.0713" x="281" y="464.1051">GDP</text><text fill="#000000" font-family="Sans-Serif" font-size="14" lengthAdjust="spacing" textLength="4.4502" x="311.0713" y="464.1051">&#160;</text><text fill="#000000" font-family="Sans-Serif" font-size="14" lengthAdjust="spacing" textLength="40.708" x="315.5215" y="464.1051">Share</text></g><!--entity Economic Growth--><g class="entity" data-entity="Economic Growth" data-source-line="27" data-uid="ent0006" id="entity_Economic Growth"><rect fill="#E6E6FA" height="36.2969" rx="10" ry="10" style="stroke:#FFFFFF;stroke-width:0.5;" width="143.2041" x="247.02" y="551.38"/><text fill="#000000" font-family="Sans-Serif" font-size="14" lengthAdjust="spacing" textLength="67.7715" x="257.02" y="574.3751">Economic</text><text fill="#000000" font-family="Sans-Serif" font-size="14" lengthAdjust="spacing" textLength="4.4502" x="324.7915" y="574.3751">&#160;</text><text fill="#000000" font-family="Sans-Serif" font-size="14" lengthAdjust="spacing" textLength="50.9824" x="329.2417" y="574.3751">Growth</text></g><g class="entity" data-entity="GMN11" data-source-line="37" data-uid="ent0012" id="entity_GMN11"><path d="M311.46,16 L311.46,36.2656 A10,10 0 0 0 321.46,46.2656 L417.62,46.2656 L421.62,116.04 L425.62,46.2656 L521.7764,46.2656 A10,10 0 0 0 531.7764,36.2656 L531.7764,16 L521.7764,6 L321.46,6 A10,10 0 0 0 311.46,16" fill="#FFA500" style="stroke:#444444;stroke-width:0.5;"/><path d="M521.7764,6 L521.7764,11 A5,5 0 0 0 526.7764,16 L531.7764,16 L521.7764,6" fill="#FFA500" style="stroke:#444444;stroke-width:0.5;"/><text fill="#000000" font-family="Sans-Serif" font-size="13" lengthAdjust="spacing" textLength="81.3008" x="317.46" y="23.0669">Government</text><text fill="#000000" font-family="Sans-Serif" font-size="13" lengthAdjust="spacing" textLength="4.1323" x="398.7608" y="23.0669">&#160;</text><text fill="#000000" font-family="Sans-Serif" font-size="13" lengthAdjust="spacing" textLength="56.5386" x="402.8931" y="23.0669">initiative</text><text fill="#000000" font-family="Sans-Serif" font-size="13" lengthAdjust="spacing" textLength="4.1323" x="459.4317" y="23.0669">&#160;</text><text fill="#000000" font-family="Sans-Serif" font-size="13" lengthAdjust="spacing" textLength="13.0508" x="463.564" y="23.0669">to</text><text fill="#000000" font-family="Sans-Serif" font-size="13" lengthAdjust="spacing" textLength="4.1323" x="476.6148" y="23.0669">&#160;</text><text fill="#000000" font-family="Sans-Serif" font-size="13" lengthAdjust="spacing" textLength="36.0293" x="480.7471" y="23.0669">boost</text><text fill="#000000" font-family="Sans-Serif" font-size="13" lengthAdjust="spacing" textLength="59.4966" x="337.5122" y="38.1997">domestic</text><text fill="#000000" font-family="Sans-Serif" font-size="13" lengthAdjust="spacing" textLength="4.1323" x="397.0088" y="38.1997">&#160;</text><text fill="#000000" font-family="Sans-Serif" font-size="13" lengthAdjust="spacing" textLength="95.583" x="401.1412" y="38.1997">manufacturing</text></g><g class="entity" data-entity="GMN14" data-source-line="42" data-uid="ent0015" id="entity_GMN14"><path d="M559.6,232.57 L559.6,239.66 L509.66,243.66 L559.6,247.66 L559.6,252.8356 A10,10 0 0 0 569.6,262.8356 L737.6322,262.8356 A10,10 0 0 0 747.6322,252.8356 L747.6322,232.57 L737.6322,222.57 L569.6,222.57 A10,10 0 0 0 559.6,232.57" fill="#FFA500" style="stroke:#444444;stroke-width:0.5;"/><path d="M737.6322,222.57 L737.6322,227.57 A5,5 0 0 0 742.6322,232.57 L747.6322,232.57 L737.6322,222.57" fill="#FFA500" style="stroke:#444444;stroke-width:0.5;"/><text fill="#000000" font-family="Sans-Serif" font-size="13" lengthAdjust="spacing" textLength="64.7461" x="565.6" y="239.6369">Attracting</text><text fill="#000000" font-family="Sans-Serif" font-size="13" lengthAdjust="spacing" textLength="4.1323" x="630.3461" y="239.6369">&#160;</text><text fill="#000000" font-family="Sans-Serif" font-size="13" lengthAdjust="spacing" textLength="43.6528" x="634.4784" y="239.6369">capital</text><text fill="#000000" font-family="Sans-Serif" font-size="13" lengthAdjust="spacing" textLength="4.1323" x="678.1313" y="239.6369">&#160;</text><text fill="#000000" font-family="Sans-Serif" font-size="13" lengthAdjust="spacing" textLength="24.9019" x="682.2636" y="239.6369">into</text><text fill="#000000" font-family="Sans-Serif" font-size="13" lengthAdjust="spacing" textLength="4.1323" x="707.1654" y="239.6369">&#160;</text><text fill="#000000" font-family="Sans-Serif" font-size="13" lengthAdjust="spacing" textLength="21.3345" x="711.2978" y="239.6369">the</text><text fill="#000000" font-family="Sans-Serif" font-size="13" lengthAdjust="spacing" textLength="95.583" x="572.6332" y="254.7697">manufacturing</text><text fill="#000000" font-family="Sans-Serif" font-size="13" lengthAdjust="spacing" textLength="4.1323" x="668.2162" y="254.7697">&#160;</text><text fill="#000000" font-family="Sans-Serif" font-size="13" lengthAdjust="spacing" textLength="53.2505" x="672.3485" y="254.7697">industry</text></g><g class="entity" data-entity="GMN17" data-source-line="47" data-uid="ent0018" id="entity_GMN17"><path d="M416.15,449.13 L416.15,469.3956 A10,10 0 0 0 426.15,479.3956 L625.0826,479.3956 A10,10 0 0 0 635.0826,469.3956 L635.0826,449.13 L625.0826,439.13 L465.59,439.13 L461.59,369.35 L457.59,439.13 L426.15,439.13 A10,10 0 0 0 416.15,449.13" fill="#FFA500" style="stroke:#444444;stroke-width:0.5;"/><path d="M625.0826,439.13 L625.0826,444.13 A5,5 0 0 0 630.0826,449.13 L635.0826,449.13 L625.0826,439.13" fill="#FFA500" style="stroke:#444444;stroke-width:0.5;"/><text fill="#000000" font-family="Sans-Serif" font-size="13" lengthAdjust="spacing" textLength="60.9692" x="422.15" y="456.1969">Industrial</text><text fill="#000000" font-family="Sans-Serif" font-size="13" lengthAdjust="spacing" textLength="4.1323" x="483.1192" y="456.1969">&#160;</text><text fill="#000000" font-family="Sans-Serif" font-size="13" lengthAdjust="spacing" textLength="70.0908" x="487.2516" y="456.1969">production</text><text fill="#000000" font-family="Sans-Serif" font-size="13" lengthAdjust="spacing" textLength="4.1323" x="557.3424" y="456.1969">&#160;</text><text fill="#000000" font-family="Sans-Serif" font-size="13" lengthAdjust="spacing" textLength="58.6079" x="561.4747" y="456.1969">activities</text><text fill="#000000" font-family="Sans-Serif" font-size="13" lengthAdjust="spacing" textLength="39.4316" x="466.0472" y="471.3297">within</text><text fill="#000000" font-family="Sans-Serif" font-size="13" lengthAdjust="spacing" textLength="4.1323" x="505.4789" y="471.3297">&#160;</text><text fill="#000000" font-family="Sans-Serif" font-size="13" lengthAdjust="spacing" textLength="21.3345" x="509.6112" y="471.3297">the</text><text fill="#000000" font-family="Sans-Serif" font-size="13" lengthAdjust="spacing" textLength="4.1323" x="530.9457" y="471.3297">&#160;</text><text fill="#000000" font-family="Sans-Serif" font-size="13" lengthAdjust="spacing" textLength="41.1074" x="535.078" y="471.3297">nation</text></g><g class="entity" data-entity="GMN20" data-source-line="52" data-uid="ent0021" id="entity_GMN20"><path d="M6,449.13 L6,469.3956 A10,10 0 0 0 16,479.3956 L211.2383,479.3956 A10,10 0 0 0 221.2383,469.3956 L221.2383,463.66 L270.99,459.66 L221.2383,455.66 L221.2383,449.13 L211.2383,439.13 L16,439.13 A10,10 0 0 0 6,449.13" fill="#FFA500" style="stroke:#444444;stroke-width:0.5;"/><path d="M211.2383,439.13 L211.2383,444.13 A5,5 0 0 0 216.2383,449.13 L221.2383,449.13 L211.2383,439.13" fill="#FFA500" style="stroke:#444444;stroke-width:0.5;"/><text fill="#000000" font-family="Sans-Serif" font-size="13" lengthAdjust="spacing" textLength="94.1357" x="12" y="456.1969">Manufacturing</text><text fill="#000000" font-family="Sans-Serif" font-size="13" lengthAdjust="spacing" textLength="4.1323" x="106.1357" y="456.1969">&#160;</text><text fill="#000000" font-family="Sans-Serif" font-size="13" lengthAdjust="spacing" textLength="78.7871" x="110.2681" y="456.1969">contribution</text><text fill="#000000" font-family="Sans-Serif" font-size="13" lengthAdjust="spacing" textLength="4.1323" x="189.0552" y="456.1969">&#160;</text><text fill="#000000" font-family="Sans-Serif" font-size="13" lengthAdjust="spacing" textLength="13.0508" x="193.1875" y="456.1969">to</text><text fill="#000000" font-family="Sans-Serif" font-size="13" lengthAdjust="spacing" textLength="21.3345" x="49.6321" y="471.3297">the</text><text fill="#000000" font-family="Sans-Serif" font-size="13" lengthAdjust="spacing" textLength="4.1323" x="70.9666" y="471.3297">&#160;</text><text fill="#000000" font-family="Sans-Serif" font-size="13" lengthAdjust="spacing" textLength="29.7261" x="75.0989" y="471.3297">total</text><text fill="#000000" font-family="Sans-Serif" font-size="13" lengthAdjust="spacing" textLength="4.1323" x="104.825" y="471.3297">&#160;</text><text fill="#000000" font-family="Sans-Serif" font-size="13" lengthAdjust="spacing" textLength="59.6489" x="108.9573" y="471.3297">economy</text></g><g class="entity" data-entity="GMN23" data-source-line="57" data-uid="ent0024" id="entity_GMN23"><path d="M440.4,559.39 L440.4,565.66 L390.69,569.66 L440.4,573.66 L440.4,579.6556 A10,10 0 0 0 450.4,589.6556 L610.8468,589.6556 A10,10 0 0 0 620.8468,579.6556 L620.8468,559.39 L610.8468,549.39 L450.4,549.39 A10,10 0 0 0 440.4,559.39" fill="#FFA500" style="stroke:#444444;stroke-width:0.5;"/><path d="M610.8468,549.39 L610.8468,554.39 A5,5 0 0 0 615.8468,559.39 L620.8468,559.39 L610.8468,549.39" fill="#FFA500" style="stroke:#444444;stroke-width:0.5;"/><text fill="#000000" font-family="Sans-Serif" font-size="13" lengthAdjust="spacing" textLength="46.4585" x="446.4" y="566.4569">Overall</text><text fill="#000000" font-family="Sans-Serif" font-size="13" lengthAdjust="spacing" textLength="4.1323" x="492.8585" y="566.4569">&#160;</text><text fill="#000000" font-family="Sans-Serif" font-size="13" lengthAdjust="spacing" textLength="66.7266" x="496.9908" y="566.4569">expansion</text><text fill="#000000" font-family="Sans-Serif" font-size="13" lengthAdjust="spacing" textLength="4.1323" x="563.7174" y="566.4569">&#160;</text><text fill="#000000" font-family="Sans-Serif" font-size="13" lengthAdjust="spacing" textLength="12.5303" x="567.8497" y="566.4569">of</text><text fill="#000000" font-family="Sans-Serif" font-size="13" lengthAdjust="spacing" textLength="4.1323" x="580.38" y="566.4569">&#160;</text><text fill="#000000" font-family="Sans-Serif" font-size="13" lengthAdjust="spacing" textLength="21.3345" x="584.5123" y="566.4569">the</text><text fill="#000000" font-family="Sans-Serif" font-size="13" lengthAdjust="spacing" textLength="52.6855" x="467.89" y="581.5897">national</text><text fill="#000000" font-family="Sans-Serif" font-size="13" lengthAdjust="spacing" textLength="4.1323" x="520.5755" y="581.5897">&#160;</text><text fill="#000000" font-family="Sans-Serif" font-size="13" lengthAdjust="spacing" textLength="59.6489" x="524.7079" y="581.5897">economy</text></g><!--link Make in India to Investment Promotion--><g class="link" data-entity-1="Make in India" data-entity-2="Investment Promotion" data-source-line="30" data-uid="lnk7" id="link_Make in India_Investment Promotion"><path codeLine="30" d="M421.62,152.79 C421.62,172.7 421.62,198.29 421.62,218.24" fill="none" id="Make in India-to-Investment Promotion" style="stroke:#FFFFFF;stroke-width:1.5;"/><polygon fill="#FFFFFF" points="421.62,224.24,425.62,215.24,421.62,219.24,417.62,215.24,421.62,224.24" style="stroke:#FFFFFF;stroke-width:1.5;"/></g><!--link Investment Promotion to Manufacturing Sector--><g class="link" data-entity-1="Investment Promotion" data-entity-2="Manufacturing Sector" data-source-line="31" data-uid="lnk8" id="link_Investment Promotion_Manufacturing Sector"><path codeLine="31" d="M421.62,261.07 C421.62,280.98 421.62,306.57 421.62,326.52" fill="none" id="Investment Promotion-to-Manufacturing Sector" style="stroke:#FFFFFF;stroke-width:1.5;"/><polygon fill="#FFFFFF" points="421.62,332.52,425.62,323.52,421.62,327.52,417.62,323.52,421.62,332.52" style="stroke:#FFFFFF;stroke-width:1.5;"/></g><!--link Manufacturing Sector to GDP Share--><g class="link" data-entity-1="Manufacturing Sector" data-entity-2="GDP Share" data-source-line="32" data-uid="lnk9" id="link_Manufacturing Sector_GDP Share"><path codeLine="32" d="M351.22,369.35 C351.22,389.26 351.22,414.86 351.22,434.8" fill="none" id="Manufacturing Sector-to-GDP Share" style="stroke:#FFFFFF;stroke-width:1.5;"/><polygon fill="#FFFFFF" points="351.22,440.8,355.22,431.8,351.22,435.8,347.22,431.8,351.22,440.8" style="stroke:#FFFFFF;stroke-width:1.5;"/></g><!--link GDP Share to Economic Growth--><g class="link" data-entity-1="GDP Share" data-entity-2="Economic Growth" data-source-line="33" data-uid="lnk10" id="link_GDP Share_Economic Growth"><path codeLine="33" d="M318.62,477.47 C318.62,497.78 318.62,524.46 318.62,544.92" fill="none" id="GDP Share-to-Economic Growth" style="stroke:#FFFFFF;stroke-width:1.5;"/><polygon fill="#FFFFFF" points="318.62,550.92,322.62,541.92,318.62,545.92,314.62,541.92,318.62,550.92" style="stroke:#FFFFFF;stroke-width:1.5;"/></g><!--SRC=[ZLHDRzf04BtxLup8eIUgz8E471894a0vD8rAf9uNUsolMEzOksCW_xwpDYgBQzhwm67VstdlpRDHnj2-qWTjYyHljQsLKnLiLBej73KsUoH33gw-j4_4CDeYlzS8vBYa2B2KeSSQ9jVHeLDs6mvluyCAlLS5pemkR8MM8PKVT14ZmrmrXj_mm7zXMMASaylG7Sr-RPy-enzfkPnDhcC_C-Tetu7xKZFseRTIfrihfk7Jnqa4xfsgV-gCI_XyDk_eVacMNrI5C5ehwyThT3eVzSpzYtFqxImw4Oa0NwgCzb8UvCfu75RlCcsCR610TnXrcBAoXVaVIhpyRdF91tZ2N5uHM1WChVdaDnj6tzGMGLjujfbM8xYQtZuk5lEOyMntwBcj-zLHHQp92l5kkfpVJSz7sIPNAJSkx60j0Bb1ukhf5TQbSYZeucPnivp5w28bIvLEOIKzStdYd8ByGAE23L_gsYVz3FVt3nTS9nV2ZCSF5-md5rArDquvaZXJY_LJ1FThTegnaCCNwHjUfSEsa2JK3qmrKDvl905OqGvTzxrfgrbBz5sWmuR8in0oai-NPMmLUqtGPksBbNJpdIvARXM6TmCmOp6OSiYPgbgpCY8eEboYe6V31SWQp-wzhx8XPggEGOOM2Y5OkAfbVEqeQzAW3q5u9-dG2sMlkPGLY33Ojkc-ZC6yon9r072kA0s8ogPfnpC97kOnXLpOrlD-UKT_z0VmNMfGHkuUQlbZ24E5sEscCpamznS0]--></g></svg>