<svg xmlns="http://www.w3.org/2000/svg" xmlns:xlink="http://www.w3.org/1999/xlink" contentStyleType="text/css" data-diagram-type="CLASS" height="483px" preserveAspectRatio="none" style="width:981px;height:483px;background:#333333;" version="1.1" viewBox="0 0 981 483" width="981px" zoomAndPan="magnify"><defs/><g><rect fill="#333333" height="483" style="stroke:none;stroke-width:1;" width="981" x="0" y="0"/><!--entity Vulture Decline--><g class="entity" data-entity="Vulture Decline" data-source-line="23" data-uid="ent0002" id="entity_Vulture Decline"><rect fill="#E6E6FA" height="36.2969" rx="10" ry="10" style="stroke:#FFFFFF;stroke-width:0.5;" width="127.8779" x="629.38" y="434.17"/><text fill="#000000" font-family="Sans-Serif" font-size="14" lengthAdjust="spacing" textLength="51.0713" x="639.38" y="457.1651">Vulture</text><text fill="#000000" font-family="Sans-Serif" font-size="14" lengthAdjust="spacing" textLength="4.4502" x="690.4513" y="457.1651">&#160;</text><text fill="#000000" font-family="Sans-Serif" font-size="14" lengthAdjust="spacing" textLength="52.3564" x="694.9015" y="457.1651">Decline</text></g><!--entity Diclofenac Use--><g class="entity" data-entity="Diclofenac Use" data-source-line="24" data-uid="ent0003" id="entity_Diclofenac Use"><rect fill="#98FB98" height="36.2969" rx="10" ry="10" style="stroke:#FFFFFF;stroke-width:0.5;" width="124.1182" x="535.26" y="7"/><text fill="#000000" font-family="Sans-Serif" font-size="14" lengthAdjust="spacing" textLength="73.5137" x="545.26" y="29.9951">Diclofenac</text><text fill="#000000" font-family="Sans-Serif" font-size="14" lengthAdjust="spacing" textLength="4.4502" x="618.7737" y="29.9951">&#160;</text><text fill="#000000" font-family="Sans-Serif" font-size="14" lengthAdjust="spacing" textLength="26.1543" x="623.2239" y="29.9951">Use</text></g><!--entity Vulture Toxicity--><g class="entity" data-entity="Vulture Toxicity" data-source-line="25" data-uid="ent0004" id="entity_Vulture Toxicity"><rect fill="#FFE4E1" height="36.2969" rx="10" ry="10" style="stroke:#FFFFFF;stroke-width:0.5;" width="130.1748" x="532.23" y="113.29"/><text fill="#000000" font-family="Sans-Serif" font-size="14" lengthAdjust="spacing" textLength="51.0713" x="542.23" y="136.2851">Vulture</text><text fill="#000000" font-family="Sans-Serif" font-size="14" lengthAdjust="spacing" textLength="4.4502" x="593.3013" y="136.2851">&#160;</text><text fill="#000000" font-family="Sans-Serif" font-size="14" lengthAdjust="spacing" textLength="54.6533" x="597.7515" y="136.2851">Toxicity</text></g><!--entity Renal Failure--><g class="entity" data-entity="Renal Failure" data-source-line="26" data-uid="ent0005" id="entity_Renal Failure"><rect fill="#FFE4E1" height="36.2969" rx="10" ry="10" style="stroke:#FFFFFF;stroke-width:0.5;" width="111.7861" x="297.43" y="219.59"/><text fill="#000000" font-family="Sans-Serif" font-size="14" lengthAdjust="spacing" textLength="39.6826" x="307.43" y="242.5851">Renal</text><text fill="#000000" font-family="Sans-Serif" font-size="14" lengthAdjust="spacing" textLength="4.4502" x="347.1126" y="242.5851">&#160;</text><text fill="#000000" font-family="Sans-Serif" font-size="14" lengthAdjust="spacing" textLength="47.6533" x="351.5628" y="242.5851">Failure</text></g><!--entity Vulture Reproduction--><g class="entity" data-entity="Vulture Reproduction" data-source-line="27" data-uid="ent0006" id="entity_Vulture Reproduction"><rect fill="#98FB98" height="36.2969" rx="10" ry="10" style="stroke:#FFFFFF;stroke-width:0.5;" width="169.3447" x="268.65" y="325.89"/><text fill="#000000" font-family="Sans-Serif" font-size="14" lengthAdjust="spacing" textLength="51.0713" x="278.65" y="348.8851">Vulture</text><text fill="#000000" font-family="Sans-Serif" font-size="14" lengthAdjust="spacing" textLength="4.4502" x="329.7213" y="348.8851">&#160;</text><text fill="#000000" font-family="Sans-Serif" font-size="14" lengthAdjust="spacing" textLength="93.8232" x="334.1715" y="348.8851">Reproduction</text></g><!--entity Food Scarcity--><g class="entity" data-entity="Food Scarcity" data-source-line="28" data-uid="ent0007" id="entity_Food Scarcity"><rect fill="#87CEEB" height="36.2969" rx="10" ry="10" style="stroke:#FFFFFF;stroke-width:0.5;" width="114.8008" x="756.92" y="325.89"/><text fill="#000000" font-family="Sans-Serif" font-size="14" lengthAdjust="spacing" textLength="34.0703" x="766.92" y="348.8851">Food</text><text fill="#000000" font-family="Sans-Serif" font-size="14" lengthAdjust="spacing" textLength="4.4502" x="800.9903" y="348.8851">&#160;</text><text fill="#000000" font-family="Sans-Serif" font-size="14" lengthAdjust="spacing" textLength="56.2803" x="805.4405" y="348.8851">Scarcity</text></g><g class="entity" data-entity="GMN13" data-source-line="39" data-uid="ent0014" id="entity_GMN13"><path d="M709.1,22.58 L709.1,21.45 L659.85,25.45 L709.1,29.45 L709.1,27.7128 A10,10 0 0 0 719.1,37.7128 L879.5404,37.7128 A10,10 0 0 0 889.5404,27.7128 L889.5404,22.58 L879.5404,12.58 L719.1,12.58 A10,10 0 0 0 709.1,22.58" fill="#FFA500" style="stroke:#444444;stroke-width:0.5;"/><path d="M879.5404,12.58 L879.5404,17.58 A5,5 0 0 0 884.5404,22.58 L889.5404,22.58 L879.5404,12.58" fill="#FFA500" style="stroke:#444444;stroke-width:0.5;"/><text fill="#000000" font-family="Sans-Serif" font-size="13" lengthAdjust="spacing" textLength="68.1865" x="715.1" y="29.6469">Veterinary</text><text fill="#000000" font-family="Sans-Serif" font-size="13" lengthAdjust="spacing" textLength="4.1323" x="783.2865" y="29.6469">&#160;</text><text fill="#000000" font-family="Sans-Serif" font-size="13" lengthAdjust="spacing" textLength="30.0879" x="787.4188" y="29.6469">drug</text><text fill="#000000" font-family="Sans-Serif" font-size="13" lengthAdjust="spacing" textLength="4.1323" x="817.5067" y="29.6469">&#160;</text><text fill="#000000" font-family="Sans-Serif" font-size="13" lengthAdjust="spacing" textLength="11.8511" x="821.6391" y="29.6469">in</text><text fill="#000000" font-family="Sans-Serif" font-size="13" lengthAdjust="spacing" textLength="4.1323" x="833.4901" y="29.6469">&#160;</text><text fill="#000000" font-family="Sans-Serif" font-size="13" lengthAdjust="spacing" textLength="36.918" x="837.6225" y="29.6469">cattle</text></g><g class="entity" data-entity="GMN16" data-source-line="43" data-uid="ent0017" id="entity_GMN16"><path d="M264.33,128.88 L264.33,134.0128 A10,10 0 0 0 274.33,144.0128 L472.3041,144.0128 A10,10 0 0 0 482.3041,134.0128 L482.3041,136.88 L531.74,131.45 L482.3041,128.88 L482.3041,128.88 L472.3041,118.88 L274.33,118.88 A10,10 0 0 0 264.33,128.88" fill="#FFA500" style="stroke:#444444;stroke-width:0.5;"/><path d="M472.3041,118.88 L472.3041,123.88 A5,5 0 0 0 477.3041,128.88 L482.3041,128.88 L472.3041,118.88" fill="#FFA500" style="stroke:#444444;stroke-width:0.5;"/><text fill="#000000" font-family="Sans-Serif" font-size="13" lengthAdjust="spacing" textLength="31.8462" x="270.33" y="135.9469">Drug</text><text fill="#000000" font-family="Sans-Serif" font-size="13" lengthAdjust="spacing" textLength="4.1323" x="302.1762" y="135.9469">&#160;</text><text fill="#000000" font-family="Sans-Serif" font-size="13" lengthAdjust="spacing" textLength="87.8833" x="306.3085" y="135.9469">accumulation</text><text fill="#000000" font-family="Sans-Serif" font-size="13" lengthAdjust="spacing" textLength="4.1323" x="394.1918" y="135.9469">&#160;</text><text fill="#000000" font-family="Sans-Serif" font-size="13" lengthAdjust="spacing" textLength="11.8511" x="398.3241" y="135.9469">in</text><text fill="#000000" font-family="Sans-Serif" font-size="13" lengthAdjust="spacing" textLength="4.1323" x="410.1752" y="135.9469">&#160;</text><text fill="#000000" font-family="Sans-Serif" font-size="13" lengthAdjust="spacing" textLength="52.9966" x="414.3075" y="135.9469">vultures</text></g><g class="entity" data-entity="GMN19" data-source-line="47" data-uid="ent0020" id="entity_GMN19"><path d="M6,128.88 L6,134.0128 A10,10 0 0 0 16,144.0128 L204.6431,144.0128 A10,10 0 0 0 214.6431,134.0128 L214.6431,128.88 L204.6431,118.88 L16,118.88 A10,10 0 0 0 6,128.88" fill="#FFA500" style="stroke:#444444;stroke-width:0.5;"/><path d="M204.6431,118.88 L204.6431,123.88 A5,5 0 0 0 209.6431,128.88 L214.6431,128.88 L204.6431,118.88" fill="#FFA500" style="stroke:#444444;stroke-width:1;"/><text fill="#000000" font-family="Sans-Serif" font-size="13" lengthAdjust="spacing" textLength="44.3193" x="12" y="135.9469">Kidney</text><text fill="#000000" font-family="Sans-Serif" font-size="13" lengthAdjust="spacing" textLength="4.1323" x="56.3193" y="135.9469">&#160;</text><text fill="#000000" font-family="Sans-Serif" font-size="13" lengthAdjust="spacing" textLength="41.3486" x="60.4517" y="135.9469">failure</text><text fill="#000000" font-family="Sans-Serif" font-size="13" lengthAdjust="spacing" textLength="4.1323" x="101.8003" y="135.9469">&#160;</text><text fill="#000000" font-family="Sans-Serif" font-size="13" lengthAdjust="spacing" textLength="24.4893" x="105.9326" y="135.9469">due</text><text fill="#000000" font-family="Sans-Serif" font-size="13" lengthAdjust="spacing" textLength="4.1323" x="130.4219" y="135.9469">&#160;</text><text fill="#000000" font-family="Sans-Serif" font-size="13" lengthAdjust="spacing" textLength="13.0508" x="134.5542" y="135.9469">to</text><text fill="#000000" font-family="Sans-Serif" font-size="13" lengthAdjust="spacing" textLength="4.1323" x="147.605" y="135.9469">&#160;</text><text fill="#000000" font-family="Sans-Serif" font-size="13" lengthAdjust="spacing" textLength="47.9058" x="151.7373" y="135.9469">toxicity</text></g><g class="entity" data-entity="GMN22" data-source-line="51" data-uid="ent0023" id="entity_GMN22"><path d="M247.53,449.75 L247.53,454.8828 A10,10 0 0 0 257.53,464.8828 L449.112,464.8828 A10,10 0 0 0 459.112,454.8828 L459.112,449.75 L449.112,439.75 L357.32,439.75 L353.32,362.4 L349.32,439.75 L257.53,439.75 A10,10 0 0 0 247.53,449.75" fill="#FFA500" style="stroke:#444444;stroke-width:0.5;"/><path d="M449.112,439.75 L449.112,444.75 A5,5 0 0 0 454.112,449.75 L459.112,449.75 L449.112,439.75" fill="#FFA500" style="stroke:#444444;stroke-width:0.5;"/><text fill="#000000" font-family="Sans-Serif" font-size="13" lengthAdjust="spacing" textLength="69.4878" x="253.53" y="456.8169">Decreased</text><text fill="#000000" font-family="Sans-Serif" font-size="13" lengthAdjust="spacing" textLength="4.1323" x="323.0178" y="456.8169">&#160;</text><text fill="#000000" font-family="Sans-Serif" font-size="13" lengthAdjust="spacing" textLength="57.9478" x="327.1501" y="456.8169">breeding</text><text fill="#000000" font-family="Sans-Serif" font-size="13" lengthAdjust="spacing" textLength="4.1323" x="385.0979" y="456.8169">&#160;</text><text fill="#000000" font-family="Sans-Serif" font-size="13" lengthAdjust="spacing" textLength="54.8818" x="389.2302" y="456.8169">capacity</text></g><g class="entity" data-entity="GMN25" data-source-line="55" data-uid="ent0026" id="entity_GMN25"><path d="M807.75,442.18 L807.75,448.45 L757.5,452.45 L807.75,456.45 L807.75,462.4456 A10,10 0 0 0 817.75,472.4456 L960.8867,472.4456 A10,10 0 0 0 970.8867,462.4456 L970.8867,442.18 L960.8867,432.18 L817.75,432.18 A10,10 0 0 0 807.75,442.18" fill="#FFA500" style="stroke:#444444;stroke-width:0.5;"/><path d="M960.8867,432.18 L960.8867,437.18 A5,5 0 0 0 965.8867,442.18 L970.8867,442.18 L960.8867,432.18" fill="#FFA500" style="stroke:#444444;stroke-width:0.5;"/><text fill="#000000" font-family="Sans-Serif" font-size="13" lengthAdjust="spacing" textLength="62.5435" x="813.75" y="449.2469">Observed</text><text fill="#000000" font-family="Sans-Serif" font-size="13" lengthAdjust="spacing" textLength="4.1323" x="876.2935" y="449.2469">&#160;</text><text fill="#000000" font-family="Sans-Serif" font-size="13" lengthAdjust="spacing" textLength="59.4775" x="880.4258" y="449.2469">decrease</text><text fill="#000000" font-family="Sans-Serif" font-size="13" lengthAdjust="spacing" textLength="4.1323" x="939.9033" y="449.2469">&#160;</text><text fill="#000000" font-family="Sans-Serif" font-size="13" lengthAdjust="spacing" textLength="11.8511" x="944.0356" y="449.2469">in</text><text fill="#000000" font-family="Sans-Serif" font-size="13" lengthAdjust="spacing" textLength="57.5098" x="856.0635" y="464.3797">numbers</text></g><g class="entity" data-entity="GMN28" data-source-line="59" data-uid="ent0029" id="entity_GMN28"><path d="M487.93,341.47 L487.93,346.6028 A10,10 0 0 0 497.93,356.6028 L696.7103,356.6028 A10,10 0 0 0 706.7103,346.6028 L706.7103,349.47 L756.66,340.45 L706.7103,341.47 L706.7103,341.47 L696.7103,331.47 L497.93,331.47 A10,10 0 0 0 487.93,341.47" fill="#FFA500" style="stroke:#444444;stroke-width:0.5;"/><path d="M696.7103,331.47 L696.7103,336.47 A5,5 0 0 0 701.7103,341.47 L706.7103,341.47 L696.7103,331.47" fill="#FFA500" style="stroke:#444444;stroke-width:0.5;"/><text fill="#000000" font-family="Sans-Serif" font-size="13" lengthAdjust="spacing" textLength="29.8848" x="493.93" y="348.5369">Lack</text><text fill="#000000" font-family="Sans-Serif" font-size="13" lengthAdjust="spacing" textLength="4.1323" x="523.8148" y="348.5369">&#160;</text><text fill="#000000" font-family="Sans-Serif" font-size="13" lengthAdjust="spacing" textLength="12.5303" x="527.9471" y="348.5369">of</text><text fill="#000000" font-family="Sans-Serif" font-size="13" lengthAdjust="spacing" textLength="4.1323" x="540.4774" y="348.5369">&#160;</text><text fill="#000000" font-family="Sans-Serif" font-size="13" lengthAdjust="spacing" textLength="59.8711" x="544.6097" y="348.5369">sufficient</text><text fill="#000000" font-family="Sans-Serif" font-size="13" lengthAdjust="spacing" textLength="4.1323" x="604.4808" y="348.5369">&#160;</text><text fill="#000000" font-family="Sans-Serif" font-size="13" lengthAdjust="spacing" textLength="28.7358" x="608.6131" y="348.5369">food</text><text fill="#000000" font-family="Sans-Serif" font-size="13" lengthAdjust="spacing" textLength="4.1323" x="637.3489" y="348.5369">&#160;</text><text fill="#000000" font-family="Sans-Serif" font-size="13" lengthAdjust="spacing" textLength="50.229" x="641.4813" y="348.5369">sources</text></g><!--link Diclofenac Use to Vulture Toxicity--><g class="link" data-entity-1="Diclofenac Use" data-entity-2="Vulture Toxicity" data-source-line="31" data-uid="lnk8" id="link_Diclofenac Use_Vulture Toxicity"><path codeLine="31" d="M597.32,43.66 C597.32,63.17 597.32,87.71 597.32,107.14" fill="none" id="Diclofenac Use-to-Vulture Toxicity" style="stroke:#FFFFFF;stroke-width:1.5;"/><polygon fill="#FFFFFF" points="597.32,113.14,601.32,104.14,597.32,108.14,593.32,104.14,597.32,113.14" style="stroke:#FFFFFF;stroke-width:1.5;"/></g><!--link Vulture Toxicity to Renal Failure--><g class="link" data-entity-1="Vulture Toxicity" data-entity-2="Renal Failure" data-source-line="32" data-uid="lnk9" id="link_Vulture Toxicity_Renal Failure"><path codeLine="32" d="M597.32,150.08 C597.32,180.74 597.32,238.45 597.32,238.45 C597.32,238.45 487.67,238.45 415.61,238.45" fill="none" id="Vulture Toxicity-to-Renal Failure" style="stroke:#FFFFFF;stroke-width:1.5;"/><polygon fill="#FFFFFF" points="409.61,238.45,418.61,242.45,414.61,238.45,418.61,234.45,409.61,238.45" style="stroke:#FFFFFF;stroke-width:1.5;"/></g><!--link Renal Failure to Vulture Reproduction--><g class="link" data-entity-1="Renal Failure" data-entity-2="Vulture Reproduction" data-source-line="33" data-uid="lnk10" id="link_Renal Failure_Vulture Reproduction"><path codeLine="33" d="M353.32,256.25 C353.32,275.76 353.32,300.3 353.32,319.73" fill="none" id="Renal Failure-to-Vulture Reproduction" style="stroke:#FF0000;stroke-width:1.5;"/><polygon fill="#FF0000" points="353.32,325.73,357.32,316.73,353.32,320.73,349.32,316.73,353.32,325.73" style="stroke:#FF0000;stroke-width:1.5;"/></g><!--link Vulture Reproduction to Vulture Decline--><g class="link" data-entity-1="Vulture Reproduction" data-entity-2="Vulture Decline" data-source-line="34" data-uid="lnk11" id="link_Vulture Reproduction_Vulture Decline"><path codeLine="34" d="M438.32,344.45 C456.68,344.45 470.71,344.45 470.71,344.45 C470.71,344.45 470.71,452.45 470.71,452.45 C470.71,452.45 557.19,452.45 622.93,452.45" fill="none" id="Vulture Reproduction-to-Vulture Decline" style="stroke:#FFFFFF;stroke-width:1.5;"/><polygon fill="#FFFFFF" points="628.93,452.45,619.93,448.45,623.93,452.45,619.93,456.45,628.93,452.45" style="stroke:#FFFFFF;stroke-width:1.5;"/></g><!--link Food Scarcity to Vulture Decline--><g class="link" data-entity-1="Food Scarcity" data-entity-2="Vulture Decline" data-source-line="35" data-uid="lnk12" id="link_Food Scarcity_Vulture Decline"><path codeLine="35" d="M756.53,348.45 C743.29,348.45 733.01,348.45 733.01,348.45 C733.01,348.45 733.01,397.87 733.01,427.75" fill="none" id="Food Scarcity-to-Vulture Decline" style="stroke:#FFFFFF;stroke-width:1.5;stroke-dasharray:7.0,7.0;"/><polygon fill="#FFFFFF" points="733.01,433.75,737.01,424.75,733.01,428.75,729.01,424.75,733.01,433.75" style="stroke:#FFFFFF;stroke-width:1.5;"/></g><!--link GMN19 to Renal Failure--><g class="link" data-entity-1="GMN19" data-entity-2="Renal Failure" data-source-line="47" data-uid="lnk21" id="link_GMN19_Renal Failure"><path d="M110.32,144.14 C110.32,172.48 110.32,238.45 110.32,238.45 C110.32,238.45 225.18,238.45 296.96,238.45" fill="none" id="GMN19-Renal Failure" style="stroke:#FFFFFF;stroke-width:1.5;stroke-dasharray:7.0,7.0;"/></g><!--SRC=[ZLFBRjim4BphAnREeIS7IPldfO2TI9SMQH6xwQ7eOKsk9C8KAIofEFxxafBJIhBILX1qu8vcPsQNgBNTLUf5cI9nMsLgPAnWWs9Ri6sClBFQCfnyQ9yUGYj3VbyJMFQbxHMCbUIeXikptY6ZsSR3w_vXHSvXGGkj2bEHyI32XxY7a9HZe_sQNlnVKCPwMbgMn0Un5-qpHemjPTdYygolPy5iTrrnLofFuzAwL69hWcWuFxti5NUCzNSbVGdl1tm7zPar_W4hWjaAZPklY5K-6udx5-QWcmrnQD8hk1AbtONXGOxQqNJtpjD6XmGc-avNcOH7K-Z_WVJ3xv9Bta6ggHtNFUNAAA-iSSdlFs3s5BGrJA4iuYhDu2IzIg-oHHzphuIsEHaKyCr5oErDjhozcQ9PsnSbbD_FubpJY_Iy3teC51eoL3f09n6lD8zKivMDY78d-sNMIbW9v4Epc-kxD5r6lu-aiNLPgjebHzhdyuyJQfC90oroA3aPMvZ_E66IF_kS0-d96uu6AbwZJyQkJa-dKC7ZoZDwAfI0Xx0yy3KiH3VaF4n-YHgDe2Jk5R0gIWysFnfY0l14uVugWxm7oKq1oe10xpKbP6Ixbab7eYdlE8vp0xYFlw8GJTLqmKUUvmxenapUrYtHA5Q0JqeQseVBqvw0R28sl5sVCSt6Uc-hWQHXx13ZOa974ZPC9EFD55ZZ5DkVZ8wo1lYoSSJFWKOU2ACzqrGROlTcJiCv1fRFuSR6YcloF3ZgHXKmpZOiUZ7z0W00]--></g></svg>