<svg xmlns="http://www.w3.org/2000/svg" xmlns:xlink="http://www.w3.org/1999/xlink" contentStyleType="text/css" data-diagram-type="CLASS" height="399px" preserveAspectRatio="none" style="width:797px;height:399px;background:#333333;" version="1.1" viewBox="0 0 797 399" width="797px" zoomAndPan="magnify"><defs/><g><rect fill="#333333" height="399" style="stroke:none;stroke-width:1;" width="797" x="0" y="0"/><!--entity Stupa--><g class="entity" data-entity="Stupa" data-source-line="23" data-uid="ent0002" id="entity_Stupa"><rect fill="#87CEEB" height="36.2969" rx="10" ry="10" style="stroke:#FFFFFF;stroke-width:0.5;" width="60.7148" x="465.31" y="131.4"/><text fill="#000000" font-family="Sans-Serif" font-size="14" lengthAdjust="spacing" textLength="40.7148" x="475.31" y="154.3951">Stupa</text></g><!--entity Relic Repository--><g class="entity" data-entity="Relic Repository" data-source-line="26" data-uid="ent0003" id="entity_Relic Repository"><rect fill="#98FB98" height="36.2969" rx="10" ry="10" style="stroke:#FFFFFF;stroke-width:0.5;" width="133.3398" x="7" y="239.68"/><text fill="#000000" font-family="Sans-Serif" font-size="14" lengthAdjust="spacing" textLength="33.8174" x="17" y="262.6751">Relic</text><text fill="#000000" font-family="Sans-Serif" font-size="14" lengthAdjust="spacing" textLength="4.4502" x="50.8174" y="262.6751">&#160;</text><text fill="#000000" font-family="Sans-Serif" font-size="14" lengthAdjust="spacing" textLength="75.0723" x="55.2676" y="262.6751">Repository</text></g><!--entity Votive Structure--><g class="entity" data-entity="Votive Structure" data-source-line="27" data-uid="ent0004" id="entity_Votive Structure"><rect fill="#98FB98" height="36.2969" rx="10" ry="10" style="stroke:#FFFFFF;stroke-width:0.5;" width="134.3037" x="399.52" y="239.68"/><text fill="#000000" font-family="Sans-Serif" font-size="14" lengthAdjust="spacing" textLength="44.4199" x="409.52" y="262.6751">Votive</text><text fill="#000000" font-family="Sans-Serif" font-size="14" lengthAdjust="spacing" textLength="4.4502" x="453.9399" y="262.6751">&#160;</text><text fill="#000000" font-family="Sans-Serif" font-size="14" lengthAdjust="spacing" textLength="65.4336" x="458.3901" y="262.6751">Structure</text></g><!--entity Commemorative Structure--><g class="entity" data-entity="Commemorative Structure" data-source-line="28" data-uid="ent0005" id="entity_Commemorative Structure"><rect fill="#98FB98" height="36.2969" rx="10" ry="10" style="stroke:#FFFFFF;stroke-width:0.5;" width="206.9287" x="584.21" y="239.68"/><text fill="#000000" font-family="Sans-Serif" font-size="14" lengthAdjust="spacing" textLength="117.0449" x="594.21" y="262.6751">Commemorative</text><text fill="#000000" font-family="Sans-Serif" font-size="14" lengthAdjust="spacing" textLength="4.4502" x="711.2549" y="262.6751">&#160;</text><text fill="#000000" font-family="Sans-Serif" font-size="14" lengthAdjust="spacing" textLength="65.4336" x="715.7051" y="262.6751">Structure</text></g><!--entity Buddhist Origins--><g class="entity" data-entity="Buddhist Origins" data-source-line="31" data-uid="ent0006" id="entity_Buddhist Origins"><rect fill="#FFE4E1" height="36.2969" rx="10" ry="10" style="stroke:#FFFFFF;stroke-width:0.5;" width="135.8555" x="321.74" y="15.55"/><text fill="#000000" font-family="Sans-Serif" font-size="14" lengthAdjust="spacing" textLength="61.7969" x="331.74" y="38.5451">Buddhist</text><text fill="#000000" font-family="Sans-Serif" font-size="14" lengthAdjust="spacing" textLength="4.4502" x="393.5369" y="38.5451">&#160;</text><text fill="#000000" font-family="Sans-Serif" font-size="14" lengthAdjust="spacing" textLength="49.6084" x="397.9871" y="38.5451">Origins</text></g><g class="entity" data-entity="GMN14" data-source-line="45" data-uid="ent0015" id="entity_GMN14"><path d="M507.85,23.57 L507.85,43.8356 A10,10 0 0 0 517.85,53.8356 L512.94,53.8356 L516.94,131.22 L520.94,53.8356 L663.4877,53.8356 A10,10 0 0 0 673.4877,43.8356 L673.4877,23.57 L663.4877,13.57 L517.85,13.57 A10,10 0 0 0 507.85,23.57" fill="#FFA500" style="stroke:#444444;stroke-width:0.5;"/><path d="M663.4877,13.57 L663.4877,18.57 A5,5 0 0 0 668.4877,23.57 L673.4877,23.57 L663.4877,13.57" fill="#FFA500" style="stroke:#444444;stroke-width:0.5;"/><text fill="#000000" font-family="Sans-Serif" font-size="13" lengthAdjust="spacing" textLength="81.2246" x="513.85" y="30.6369">Monumental</text><text fill="#000000" font-family="Sans-Serif" font-size="13" lengthAdjust="spacing" textLength="4.1323" x="595.0746" y="30.6369">&#160;</text><text fill="#000000" font-family="Sans-Serif" font-size="13" lengthAdjust="spacing" textLength="59.2808" x="599.2069" y="30.6369">structure</text><text fill="#000000" font-family="Sans-Serif" font-size="13" lengthAdjust="spacing" textLength="11.8511" x="536.0097" y="45.7697">in</text><text fill="#000000" font-family="Sans-Serif" font-size="13" lengthAdjust="spacing" textLength="4.1323" x="547.8607" y="45.7697">&#160;</text><text fill="#000000" font-family="Sans-Serif" font-size="13" lengthAdjust="spacing" textLength="48.2993" x="551.9931" y="45.7697">ancient</text><text fill="#000000" font-family="Sans-Serif" font-size="13" lengthAdjust="spacing" textLength="4.1323" x="600.2924" y="45.7697">&#160;</text><text fill="#000000" font-family="Sans-Serif" font-size="13" lengthAdjust="spacing" textLength="31.9033" x="604.4247" y="45.7697">India</text></g><g class="entity" data-entity="GMN17" data-source-line="50" data-uid="ent0018" id="entity_GMN17"><path d="M99.67,16 L99.67,51.3984 A10,10 0 0 0 109.67,61.3984 L261.668,61.3984 A10,10 0 0 0 271.668,51.3984 L271.668,38.23 L321.38,34.23 L271.668,30.23 L271.668,16 L261.668,6 L109.67,6 A10,10 0 0 0 99.67,16" fill="#FFA500" style="stroke:#444444;stroke-width:0.5;"/><path d="M261.668,6 L261.668,11 A5,5 0 0 0 266.668,16 L271.668,16 L261.668,6" fill="#FFA500" style="stroke:#444444;stroke-width:0.5;"/><text fill="#000000" font-family="Sans-Serif" font-size="13" lengthAdjust="spacing" textLength="35.9722" x="108.7137" y="23.0669">Initial</text><text fill="#000000" font-family="Sans-Serif" font-size="13" lengthAdjust="spacing" textLength="4.1323" x="144.6859" y="23.0669">&#160;</text><text fill="#000000" font-family="Sans-Serif" font-size="13" lengthAdjust="spacing" textLength="73.0933" x="148.8182" y="23.0669">association</text><text fill="#000000" font-family="Sans-Serif" font-size="13" lengthAdjust="spacing" textLength="4.1323" x="221.9115" y="23.0669">&#160;</text><text fill="#000000" font-family="Sans-Serif" font-size="13" lengthAdjust="spacing" textLength="27.5806" x="226.0438" y="23.0669">with</text><text fill="#000000" font-family="Sans-Serif" font-size="13" lengthAdjust="spacing" textLength="64.9492" x="148.6944" y="38.1997">Buddhism</text><text fill="#000000" font-family="Sans-Serif" font-size="13" lengthAdjust="spacing" textLength="26.876" x="105.67" y="53.3325">May</text><text fill="#000000" font-family="Sans-Serif" font-size="13" lengthAdjust="spacing" textLength="4.1323" x="132.546" y="53.3325">&#160;</text><text fill="#000000" font-family="Sans-Serif" font-size="13" lengthAdjust="spacing" textLength="50.9082" x="136.6783" y="53.3325">predate</text><text fill="#000000" font-family="Sans-Serif" font-size="13" lengthAdjust="spacing" textLength="4.1323" x="187.5865" y="53.3325">&#160;</text><text fill="#000000" font-family="Sans-Serif" font-size="13" lengthAdjust="spacing" textLength="64.9492" x="191.7188" y="53.3325">Buddhism</text></g><g class="entity" data-entity="GMN20" data-source-line="55" data-uid="ent0021" id="entity_GMN20"><path d="M190.16,247.7 L190.16,254.23 L140.57,258.23 L190.16,262.23 L190.16,267.9656 A10,10 0 0 0 200.16,277.9656 L339.1707,277.9656 A10,10 0 0 0 349.1707,267.9656 L349.1707,247.7 L339.1707,237.7 L200.16,237.7 A10,10 0 0 0 190.16,247.7" fill="#FFA500" style="stroke:#444444;stroke-width:0.5;"/><path d="M339.1707,237.7 L339.1707,242.7 A5,5 0 0 0 344.1707,247.7 L349.1707,247.7 L339.1707,237.7" fill="#FFA500" style="stroke:#444444;stroke-width:0.5;"/><text fill="#000000" font-family="Sans-Serif" font-size="13" lengthAdjust="spacing" textLength="30.3735" x="196.16" y="254.7669">Core</text><text fill="#000000" font-family="Sans-Serif" font-size="13" lengthAdjust="spacing" textLength="4.1323" x="226.5335" y="254.7669">&#160;</text><text fill="#000000" font-family="Sans-Serif" font-size="13" lengthAdjust="spacing" textLength="53.1045" x="230.6659" y="254.7669">function</text><text fill="#000000" font-family="Sans-Serif" font-size="13" lengthAdjust="spacing" textLength="4.1323" x="283.7704" y="254.7669">&#160;</text><text fill="#000000" font-family="Sans-Serif" font-size="13" lengthAdjust="spacing" textLength="46.2681" x="287.9027" y="254.7669">related</text><text fill="#000000" font-family="Sans-Serif" font-size="13" lengthAdjust="spacing" textLength="13.0508" x="200.4034" y="269.8997">to</text><text fill="#000000" font-family="Sans-Serif" font-size="13" lengthAdjust="spacing" textLength="4.1323" x="213.4542" y="269.8997">&#160;</text><text fill="#000000" font-family="Sans-Serif" font-size="13" lengthAdjust="spacing" textLength="55.396" x="217.5865" y="269.8997">religious</text><text fill="#000000" font-family="Sans-Serif" font-size="13" lengthAdjust="spacing" textLength="4.1323" x="272.9825" y="269.8997">&#160;</text><text fill="#000000" font-family="Sans-Serif" font-size="13" lengthAdjust="spacing" textLength="52.8125" x="277.1148" y="269.8997">purpose</text></g><g class="entity" data-entity="GMN23" data-source-line="60" data-uid="ent0024" id="entity_GMN23"><path d="M351.06,365.53 L351.06,370.6628 A10,10 0 0 0 361.06,380.6628 L550.2744,380.6628 A10,10 0 0 0 560.2744,370.6628 L560.2744,365.53 L550.2744,355.53 L470.67,355.53 L466.67,276.04 L462.67,355.53 L361.06,355.53 A10,10 0 0 0 351.06,365.53" fill="#FFA500" style="stroke:#444444;stroke-width:0.5;"/><path d="M550.2744,355.53 L550.2744,360.53 A5,5 0 0 0 555.2744,365.53 L560.2744,365.53 L550.2744,355.53" fill="#FFA500" style="stroke:#444444;stroke-width:0.5;"/><text fill="#000000" font-family="Sans-Serif" font-size="13" lengthAdjust="spacing" textLength="52.2349" x="357.06" y="372.5969">Reflects</text><text fill="#000000" font-family="Sans-Serif" font-size="13" lengthAdjust="spacing" textLength="4.1323" x="409.2949" y="372.5969">&#160;</text><text fill="#000000" font-family="Sans-Serif" font-size="13" lengthAdjust="spacing" textLength="68.377" x="413.4272" y="372.5969">devotional</text><text fill="#000000" font-family="Sans-Serif" font-size="13" lengthAdjust="spacing" textLength="4.1323" x="481.8041" y="372.5969">&#160;</text><text fill="#000000" font-family="Sans-Serif" font-size="13" lengthAdjust="spacing" textLength="59.3379" x="485.9365" y="372.5969">practices</text></g><g class="entity" data-entity="GMN26" data-source-line="64" data-uid="ent0027" id="entity_GMN26"><path d="M610.76,357.96 L610.76,378.2256 A10,10 0 0 0 620.76,388.2256 L774.5862,388.2256 A10,10 0 0 0 784.5862,378.2256 L784.5862,357.96 L774.5862,347.96 L701.67,347.96 L697.67,276.04 L693.67,347.96 L620.76,347.96 A10,10 0 0 0 610.76,357.96" fill="#FFA500" style="stroke:#444444;stroke-width:0.5;"/><path d="M774.5862,347.96 L774.5862,352.96 A5,5 0 0 0 779.5862,357.96 L784.5862,357.96 L774.5862,347.96" fill="#FFA500" style="stroke:#444444;stroke-width:0.5;"/><text fill="#000000" font-family="Sans-Serif" font-size="13" lengthAdjust="spacing" textLength="38.8286" x="616.76" y="365.0269">Marks</text><text fill="#000000" font-family="Sans-Serif" font-size="13" lengthAdjust="spacing" textLength="4.1323" x="655.5886" y="365.0269">&#160;</text><text fill="#000000" font-family="Sans-Serif" font-size="13" lengthAdjust="spacing" textLength="43.7988" x="659.7209" y="365.0269">events</text><text fill="#000000" font-family="Sans-Serif" font-size="13" lengthAdjust="spacing" textLength="4.1323" x="703.5198" y="365.0269">&#160;</text><text fill="#000000" font-family="Sans-Serif" font-size="13" lengthAdjust="spacing" textLength="13.2983" x="707.6521" y="365.0269">or</text><text fill="#000000" font-family="Sans-Serif" font-size="13" lengthAdjust="spacing" textLength="4.1323" x="720.9504" y="365.0269">&#160;</text><text fill="#000000" font-family="Sans-Serif" font-size="13" lengthAdjust="spacing" textLength="44.5034" x="725.0828" y="365.0269">honors</text><text fill="#000000" font-family="Sans-Serif" font-size="13" lengthAdjust="spacing" textLength="69.8623" x="658.2419" y="380.1597">individuals</text></g><!--link Buddhist Origins to Stupa--><g class="link" data-entity-1="Buddhist Origins" data-entity-2="Stupa" data-source-line="34" data-uid="lnk7" id="link_Buddhist Origins_Stupa"><path codeLine="34" d="M458.03,34.23 C474.07,34.23 486.58,34.23 486.58,34.23 C486.58,34.23 486.58,92.42 486.58,125.02" fill="none" id="Buddhist Origins-to-Stupa" style="stroke:#FFFFFF;stroke-width:1.5;stroke-dasharray:7.0,7.0;"/><polygon fill="#FFFFFF" points="486.58,131.02,490.58,122.02,486.58,126.02,482.58,122.02,486.58,131.02" style="stroke:#FFFFFF;stroke-width:1.5;"/></g><!--link Buddhist Origins to Relic Repository--><g class="link" data-entity-1="Buddhist Origins" data-entity-2="Relic Repository" data-source-line="35" data-uid="lnk8" id="link_Buddhist Origins_Relic Repository"><path codeLine="35" d="M335.46,52.08 C335.46,70.84 335.46,97.23 335.46,97.23 C335.46,97.23 113.23,97.23 113.23,97.23 C113.23,97.23 113.23,191.22 113.23,233.41" fill="none" id="Buddhist Origins-to-Relic Repository" style="stroke:#FFFFFF;stroke-width:1.5;stroke-dasharray:7.0,7.0;"/><polygon fill="#FFFFFF" points="113.23,239.41,117.23,230.41,113.23,234.41,109.23,230.41,113.23,239.41" style="stroke:#FFFFFF;stroke-width:1.5;"/></g><!--link Buddhist Origins to Votive Structure--><g class="link" data-entity-1="Buddhist Origins" data-entity-2="Votive Structure" data-source-line="36" data-uid="lnk9" id="link_Buddhist Origins_Votive Structure"><path codeLine="36" d="M418.88,52.04 C418.88,94.07 418.88,190.96 418.88,233.24" fill="none" id="Buddhist Origins-to-Votive Structure" style="stroke:#FFFFFF;stroke-width:1.5;stroke-dasharray:7.0,7.0;"/><polygon fill="#FFFFFF" points="418.88,239.24,422.88,230.24,418.88,234.24,414.88,230.24,418.88,239.24" style="stroke:#FFFFFF;stroke-width:1.5;"/></g><!--link Buddhist Origins to Commemorative Structure--><g class="link" data-entity-1="Buddhist Origins" data-entity-2="Commemorative Structure" data-source-line="37" data-uid="lnk10" id="link_Buddhist Origins_Commemorative Structure"><path codeLine="37" d="M438.24,52.29 C438.24,55.71 438.24,58.23 438.24,58.23 C438.24,58.23 643.73,58.23 643.73,58.23 C643.73,58.23 643.73,184 643.73,233.41" fill="none" id="Buddhist Origins-to-Commemorative Structure" style="stroke:#FFFFFF;stroke-width:1.5;stroke-dasharray:7.0,7.0;"/><polygon fill="#FFFFFF" points="643.73,239.41,647.73,230.41,643.73,234.41,639.73,230.41,643.73,239.41" style="stroke:#FFFFFF;stroke-width:1.5;"/></g><!--link Stupa to Relic Repository--><g class="link" data-entity-1="Stupa" data-entity-2="Relic Repository" data-source-line="39" data-uid="lnk11" id="link_Stupa_Relic Repository"><path codeLine="39" d="M464.85,150.23 C376.2,150.23 126.78,150.23 126.78,150.23 C126.78,150.23 126.78,202.88 126.78,233.58" fill="none" id="Stupa-to-Relic Repository" style="stroke:#FFFFFF;stroke-width:1.5;"/><polygon fill="#FFFFFF" points="126.78,239.58,130.78,230.58,126.78,234.58,122.78,230.58,126.78,239.58" style="stroke:#FFFFFF;stroke-width:1.5;"/></g><!--link Stupa to Votive Structure--><g class="link" data-entity-1="Stupa" data-entity-2="Votive Structure" data-source-line="40" data-uid="lnk12" id="link_Stupa_Votive Structure"><path codeLine="40" d="M495.67,167.92 C495.67,187.83 495.67,213.43 495.67,233.37" fill="none" id="Stupa-to-Votive Structure" style="stroke:#FFFFFF;stroke-width:1.5;"/><polygon fill="#FFFFFF" points="495.67,239.37,499.67,230.37,495.67,234.37,491.67,230.37,495.67,239.37" style="stroke:#FFFFFF;stroke-width:1.5;"/></g><!--link Stupa to Commemorative Structure--><g class="link" data-entity-1="Stupa" data-entity-2="Commemorative Structure" data-source-line="41" data-uid="lnk13" id="link_Stupa_Commemorative Structure"><path codeLine="41" d="M526.44,150.23 C561.49,150.23 613.97,150.23 613.97,150.23 C613.97,150.23 613.97,202.88 613.97,233.58" fill="none" id="Stupa-to-Commemorative Structure" style="stroke:#FFFFFF;stroke-width:1.5;"/><polygon fill="#FFFFFF" points="613.97,239.58,617.97,230.58,613.97,234.58,609.97,230.58,613.97,239.58" style="stroke:#FFFFFF;stroke-width:1.5;"/></g><!--SRC=[ZLJ1Rjim3BtxAuZqq5EATclHTeS1IPO0FQmRsc8xAnPj4v55WvAJzkz7Eqdd97Ot7mA4V7nyf9vadEDDIQ_ayoIio5T6J0bBawvouThR6JiMEFlSVXs48u_nhK9WYGLt4fuj1gpWvh8J5EDNJV2s6omn19FZn57kI_GHKlr1wI0iPgPsyGLVumSepn6dB1Pb9_Qw_OuHnoCj5fERowwUYGXljibDGH6FKoy5fIklek7gugQJt8YfVfED1NmwuDkfNx2FZwP463qR7yRFA9IDZiJz2xFJBHv5ctGIeJ2MDtfua1aNiB_xTgQbqmtqzEtF2gRH-Dpz3wIx_EtcadEOcOWvoziNc2n359D6cB5FiOeXUQ_KUMDTcH6StTtEvlFfOU5FuLJNZGS5J-WeXIUiE51KcDRUtoscztTTq2-Ej4PuZbAdiHRi1SsuBB5aCKFO0p7pjVhkGCcqjhQW4E67K4u-Z1fFpQ_dLqsXobHUzg6WAYGzs8kBh_lf1zCdimuYJmOUH0vDdIJxinYF-rjtqptzkkdX9kVmgBuBC8PlgareMKUqa3NsCiweFvB6bn2v0ixU5mJmdNtTN7_Z8EpfD4mUj8YQT-71Mp89UjiwEzdoECnYItIo3Ir-y1H92Kq8d59xNB0XlSSxSDdqDMzG2LhrmT_mKHDbBBPTJhS6wdf1o6gVjlpI-0AjnYCtVrGCrm6gMhG6ZvcN72ENBVNfna4RPKxz6FIohxcXrs6gvggHtfiFk0QFfvbNLW6mDRk-xL2mPmcwPqjhihK-Ck-yVm00]--></g></svg>