<svg xmlns="http://www.w3.org/2000/svg" xmlns:xlink="http://www.w3.org/1999/xlink" contentStyleType="text/css" data-diagram-type="CLASS" height="479px" preserveAspectRatio="none" style="width:2411px;height:479px;background:#333333;" version="1.1" viewBox="0 0 2411 479" width="2411px" zoomAndPan="magnify"><defs/><g><rect fill="#333333" height="479" style="stroke:none;stroke-width:1;" width="2411" x="0" y="0"/><!--entity Ballistic Missiles--><g class="entity" data-entity="Ballistic Missiles" data-source-line="23" data-uid="ent0002" id="entity_Ballistic Missiles"><rect fill="#87CEEB" height="36.2969" rx="10" ry="10" style="stroke:#FFFFFF;stroke-width:0.5;" width="132.916" x="724.14" y="336.8"/><text fill="#000000" font-family="Sans-Serif" font-size="14" lengthAdjust="spacing" textLength="54.2227" x="734.14" y="359.7951">Ballistic</text><text fill="#000000" font-family="Sans-Serif" font-size="14" lengthAdjust="spacing" textLength="4.4502" x="788.3627" y="359.7951">&#160;</text><text fill="#000000" font-family="Sans-Serif" font-size="14" lengthAdjust="spacing" textLength="54.2432" x="792.8129" y="359.7951">Missiles</text></g><!--entity Cruise Missiles--><g class="entity" data-entity="Cruise Missiles" data-source-line="24" data-uid="ent0003" id="entity_Cruise Missiles"><rect fill="#87CEEB" height="36.2969" rx="10" ry="10" style="stroke:#FFFFFF;stroke-width:0.5;" width="122.8945" x="1559.15" y="336.8"/><text fill="#000000" font-family="Sans-Serif" font-size="14" lengthAdjust="spacing" textLength="44.2012" x="1569.15" y="359.7951">Cruise</text><text fill="#000000" font-family="Sans-Serif" font-size="14" lengthAdjust="spacing" textLength="4.4502" x="1613.3512" y="359.7951">&#160;</text><text fill="#000000" font-family="Sans-Serif" font-size="14" lengthAdjust="spacing" textLength="54.2432" x="1617.8014" y="359.7951">Missiles</text></g><!--entity Trajectory--><g class="entity" data-entity="Trajectory" data-source-line="25" data-uid="ent0004" id="entity_Trajectory"><rect fill="#87CEEB" height="36.2969" rx="10" ry="10" style="stroke:#FFFFFF;stroke-width:0.5;" width="91.1826" x="549.01" y="228.52"/><text fill="#000000" font-family="Sans-Serif" font-size="14" lengthAdjust="spacing" textLength="71.1826" x="559.01" y="251.5151">Trajectory</text></g><!--entity Gravity--><g class="entity" data-entity="Gravity" data-source-line="26" data-uid="ent0005" id="entity_Gravity"><rect fill="#87CEEB" height="36.2969" rx="10" ry="10" style="stroke:#FFFFFF;stroke-width:0.5;" width="71.1328" x="559.03" y="118.25"/><text fill="#000000" font-family="Sans-Serif" font-size="14" lengthAdjust="spacing" textLength="51.1328" x="569.03" y="141.2451">Gravity</text></g><!--entity Powered Flight--><g class="entity" data-entity="Powered Flight" data-source-line="27" data-uid="ent0006" id="entity_Powered Flight"><rect fill="#87CEEB" height="36.2969" rx="10" ry="10" style="stroke:#FFFFFF;stroke-width:0.5;" width="123.8584" x="2281.67" y="228.52"/><text fill="#000000" font-family="Sans-Serif" font-size="14" lengthAdjust="spacing" textLength="60.3271" x="2291.67" y="251.5151">Powered</text><text fill="#000000" font-family="Sans-Serif" font-size="14" lengthAdjust="spacing" textLength="4.4502" x="2351.9971" y="251.5151">&#160;</text><text fill="#000000" font-family="Sans-Serif" font-size="14" lengthAdjust="spacing" textLength="39.0811" x="2356.4473" y="251.5151">Flight</text></g><!--entity Propulsion--><g class="entity" data-entity="Propulsion" data-source-line="28" data-uid="ent0007" id="entity_Propulsion"><rect fill="#98FB98" height="36.2969" rx="10" ry="10" style="stroke:#FFFFFF;stroke-width:0.5;" width="93.0352" x="1290.08" y="228.52"/><text fill="#000000" font-family="Sans-Serif" font-size="14" lengthAdjust="spacing" textLength="73.0352" x="1300.08" y="251.5151">Propulsion</text></g><!--entity Rocket Propulsion--><g class="entity" data-entity="Rocket Propulsion" data-source-line="29" data-uid="ent0008" id="entity_Rocket Propulsion"><rect fill="#98FB98" height="36.2969" rx="10" ry="10" style="stroke:#FFFFFF;stroke-width:0.5;" width="145.6855" x="1106.76" y="118.25"/><text fill="#000000" font-family="Sans-Serif" font-size="14" lengthAdjust="spacing" textLength="48.2002" x="1116.76" y="141.2451">Rocket</text><text fill="#000000" font-family="Sans-Serif" font-size="14" lengthAdjust="spacing" textLength="4.4502" x="1164.9602" y="141.2451">&#160;</text><text fill="#000000" font-family="Sans-Serif" font-size="14" lengthAdjust="spacing" textLength="73.0352" x="1169.4104" y="141.2451">Propulsion</text></g><!--entity Jet Propulsion--><g class="entity" data-entity="Jet Propulsion" data-source-line="30" data-uid="ent0009" id="entity_Jet Propulsion"><rect fill="#98FB98" height="36.2969" rx="10" ry="10" style="stroke:#FFFFFF;stroke-width:0.5;" width="115.7168" x="940.74" y="118.25"/><text fill="#000000" font-family="Sans-Serif" font-size="14" lengthAdjust="spacing" textLength="18.2314" x="950.74" y="141.2451">Jet</text><text fill="#000000" font-family="Sans-Serif" font-size="14" lengthAdjust="spacing" textLength="4.4502" x="968.9714" y="141.2451">&#160;</text><text fill="#000000" font-family="Sans-Serif" font-size="14" lengthAdjust="spacing" textLength="73.0352" x="973.4216" y="141.2451">Propulsion</text></g><!--entity Speed--><g class="entity" data-entity="Speed" data-source-line="31" data-uid="ent0010" id="entity_Speed"><rect fill="#87CEEB" height="36.2969" rx="10" ry="10" style="stroke:#FFFFFF;stroke-width:0.5;" width="63.8867" x="1588.65" y="228.52"/><text fill="#000000" font-family="Sans-Serif" font-size="14" lengthAdjust="spacing" textLength="43.8867" x="1598.65" y="251.5151">Speed</text></g><!--entity Supersonic Speed--><g class="entity" data-entity="Supersonic Speed" data-source-line="32" data-uid="ent0011" id="entity_Supersonic Speed"><rect fill="#87CEEB" height="36.2969" rx="10" ry="10" style="stroke:#FFFFFF;stroke-width:0.5;" width="145.6719" x="1735.76" y="118.25"/><text fill="#000000" font-family="Sans-Serif" font-size="14" lengthAdjust="spacing" textLength="77.335" x="1745.76" y="141.2451">Supersonic</text><text fill="#000000" font-family="Sans-Serif" font-size="14" lengthAdjust="spacing" textLength="4.4502" x="1823.095" y="141.2451">&#160;</text><text fill="#000000" font-family="Sans-Serif" font-size="14" lengthAdjust="spacing" textLength="43.8867" x="1827.5452" y="141.2451">Speed</text></g><!--entity Subsonic Speed--><g class="entity" data-entity="Subsonic Speed" data-source-line="33" data-uid="ent0012" id="entity_Subsonic Speed"><rect fill="#87CEEB" height="36.2969" rx="10" ry="10" style="stroke:#FFFFFF;stroke-width:0.5;" width="131.3027" x="1554.95" y="118.25"/><text fill="#000000" font-family="Sans-Serif" font-size="14" lengthAdjust="spacing" textLength="62.9658" x="1564.95" y="141.2451">Subsonic</text><text fill="#000000" font-family="Sans-Serif" font-size="14" lengthAdjust="spacing" textLength="4.4502" x="1627.9158" y="141.2451">&#160;</text><text fill="#000000" font-family="Sans-Serif" font-size="14" lengthAdjust="spacing" textLength="43.8867" x="1632.366" y="141.2451">Speed</text></g><!--entity Range--><g class="entity" data-entity="Range" data-source-line="34" data-uid="ent0013" id="entity_Range"><rect fill="#87CEEB" height="36.2969" rx="10" ry="10" style="stroke:#FFFFFF;stroke-width:0.5;" width="64.6797" x="954.26" y="228.52"/><text fill="#000000" font-family="Sans-Serif" font-size="14" lengthAdjust="spacing" textLength="44.6797" x="964.26" y="251.5151">Range</text></g><!--entity Agni V--><g class="entity" data-entity="Agni V" data-source-line="35" data-uid="ent0014" id="entity_Agni V"><rect fill="#F5DEB3" height="36.2969" rx="10" ry="10" style="stroke:#FFFFFF;stroke-width:0.5;" width="65.2539" x="176.97" y="228.52"/><text fill="#000000" font-family="Sans-Serif" font-size="14" lengthAdjust="spacing" textLength="31.2266" x="186.97" y="251.5151">Agni</text><text fill="#000000" font-family="Sans-Serif" font-size="14" lengthAdjust="spacing" textLength="4.4502" x="218.1966" y="251.5151">&#160;</text><text fill="#000000" font-family="Sans-Serif" font-size="14" lengthAdjust="spacing" textLength="9.5771" x="222.6468" y="251.5151">V</text></g><!--entity BrahMos--><g class="entity" data-entity="BrahMos" data-source-line="36" data-uid="ent0015" id="entity_BrahMos"><rect fill="#F5DEB3" height="36.2969" rx="10" ry="10" style="stroke:#FFFFFF;stroke-width:0.5;" width="80.751" x="1966.22" y="7.99"/><text fill="#000000" font-family="Sans-Serif" font-size="14" lengthAdjust="spacing" textLength="60.751" x="1976.22" y="30.9851">BrahMos</text></g><!--entity ICBMs--><g class="entity" data-entity="ICBMs" data-source-line="37" data-uid="ent0016" id="entity_ICBMs"><rect fill="#87CEEB" height="36.2969" rx="10" ry="10" style="stroke:#FFFFFF;stroke-width:0.5;" width="62.8818" x="64.16" y="228.52"/><text fill="#000000" font-family="Sans-Serif" font-size="14" lengthAdjust="spacing" textLength="42.8818" x="74.16" y="251.5151">ICBMs</text></g><!--entity Long Range--><g class="entity" data-entity="Long Range" data-source-line="38" data-uid="ent0017" id="entity_Long Range"><rect fill="#E6E6FA" height="36.2969" rx="10" ry="10" style="stroke:#FFFFFF;stroke-width:0.5;" width="103.2549" x="100.97" y="336.8"/><text fill="#000000" font-family="Sans-Serif" font-size="14" lengthAdjust="spacing" textLength="34.125" x="110.97" y="359.7951">Long</text><text fill="#000000" font-family="Sans-Serif" font-size="14" lengthAdjust="spacing" textLength="4.4502" x="145.095" y="359.7951">&#160;</text><text fill="#000000" font-family="Sans-Serif" font-size="14" lengthAdjust="spacing" textLength="44.6797" x="149.5452" y="359.7951">Range</text></g><g class="entity" data-entity="GMN37" data-source-line="63" data-uid="ent0038" id="entity_GMN37"><path d="M690.64,236.53 L690.64,243.23 L640.66,247.23 L690.64,251.23 L690.64,256.7956 A10,10 0 0 0 700.64,266.7956 L894.558,266.7956 A10,10 0 0 0 904.558,256.7956 L904.558,236.53 L894.558,226.53 L700.64,226.53 A10,10 0 0 0 690.64,236.53" fill="#FFA500" style="stroke:#444444;stroke-width:0.5;"/><path d="M894.558,226.53 L894.558,231.53 A5,5 0 0 0 899.558,236.53 L904.558,236.53 L894.558,226.53" fill="#FFA500" style="stroke:#444444;stroke-width:0.5;"/><text fill="#000000" font-family="Sans-Serif" font-size="13" lengthAdjust="spacing" textLength="84.2334" x="696.64" y="243.5969">Gravitational</text><text fill="#000000" font-family="Sans-Serif" font-size="13" lengthAdjust="spacing" textLength="4.1323" x="780.8734" y="243.5969">&#160;</text><text fill="#000000" font-family="Sans-Serif" font-size="13" lengthAdjust="spacing" textLength="29.5547" x="785.0057" y="243.5969">path</text><text fill="#000000" font-family="Sans-Serif" font-size="13" lengthAdjust="spacing" textLength="4.1323" x="814.5604" y="243.5969">&#160;</text><text fill="#000000" font-family="Sans-Serif" font-size="13" lengthAdjust="spacing" textLength="30.9829" x="818.6927" y="243.5969">after</text><text fill="#000000" font-family="Sans-Serif" font-size="13" lengthAdjust="spacing" textLength="4.1323" x="849.6756" y="243.5969">&#160;</text><text fill="#000000" font-family="Sans-Serif" font-size="13" lengthAdjust="spacing" textLength="35.75" x="853.808" y="243.5969">initial</text><text fill="#000000" font-family="Sans-Serif" font-size="13" lengthAdjust="spacing" textLength="38.7905" x="773.7037" y="258.7297">thrust</text></g><g class="entity" data-entity="GMN40" data-source-line="67" data-uid="ent0041" id="entity_GMN40"><path d="M1951.49,244.1 L1951.49,249.2328 A10,10 0 0 0 1961.49,259.2328 L2119.7024,259.2328 A10,10 0 0 0 2129.7024,249.2328 L2129.7024,252.1 L2281.36,247.23 L2129.7024,244.1 L2129.7024,244.1 L2119.7024,234.1 L1961.49,234.1 A10,10 0 0 0 1951.49,244.1" fill="#FFA500" style="stroke:#444444;stroke-width:0.5;"/><path d="M2119.7024,234.1 L2119.7024,239.1 A5,5 0 0 0 2124.7024,244.1 L2129.7024,244.1 L2119.7024,234.1" fill="#FFA500" style="stroke:#444444;stroke-width:0.5;"/><text fill="#000000" font-family="Sans-Serif" font-size="13" lengthAdjust="spacing" textLength="64.4287" x="1957.49" y="251.1669">Sustained</text><text fill="#000000" font-family="Sans-Serif" font-size="13" lengthAdjust="spacing" textLength="4.1323" x="2021.9187" y="251.1669">&#160;</text><text fill="#000000" font-family="Sans-Serif" font-size="13" lengthAdjust="spacing" textLength="44.3384" x="2026.051" y="251.1669">engine</text><text fill="#000000" font-family="Sans-Serif" font-size="13" lengthAdjust="spacing" textLength="4.1323" x="2070.3894" y="251.1669">&#160;</text><text fill="#000000" font-family="Sans-Serif" font-size="13" lengthAdjust="spacing" textLength="40.1807" x="2074.5217" y="251.1669">power</text></g><g class="entity" data-entity="GMN43" data-source-line="71" data-uid="ent0044" id="entity_GMN43"><path d="M1112.76,23.57 L1112.76,28.7028 A10,10 0 0 0 1122.76,38.7028 L1175.6,38.7028 L1179.6,118.05 L1183.6,38.7028 L1236.4436,38.7028 A10,10 0 0 0 1246.4436,28.7028 L1246.4436,23.57 L1236.4436,13.57 L1122.76,13.57 A10,10 0 0 0 1112.76,23.57" fill="#FFA500" style="stroke:#444444;stroke-width:0.5;"/><path d="M1236.4436,13.57 L1236.4436,18.57 A5,5 0 0 0 1241.4436,23.57 L1246.4436,23.57 L1236.4436,13.57" fill="#FFA500" style="stroke:#444444;stroke-width:0.5;"/><text fill="#000000" font-family="Sans-Serif" font-size="13" lengthAdjust="spacing" textLength="29.8784" x="1118.76" y="30.6369">High</text><text fill="#000000" font-family="Sans-Serif" font-size="13" lengthAdjust="spacing" textLength="4.1323" x="1148.6384" y="30.6369">&#160;</text><text fill="#000000" font-family="Sans-Serif" font-size="13" lengthAdjust="spacing" textLength="35.75" x="1152.7707" y="30.6369">initial</text><text fill="#000000" font-family="Sans-Serif" font-size="13" lengthAdjust="spacing" textLength="4.1323" x="1188.5207" y="30.6369">&#160;</text><text fill="#000000" font-family="Sans-Serif" font-size="13" lengthAdjust="spacing" textLength="38.7905" x="1192.6531" y="30.6369">thrust</text></g><g class="entity" data-entity="GMN46" data-source-line="75" data-uid="ent0047" id="entity_GMN46"><path d="M1068.89,244.1 L1068.89,249.2328 A10,10 0 0 0 1078.89,259.2328 L1230.3104,259.2328 A10,10 0 0 0 1240.3104,249.2328 L1240.3104,244.1 L1230.3104,234.1 L1078.89,234.1 A10,10 0 0 0 1068.89,244.1" fill="#FFA500" style="stroke:#444444;stroke-width:0.5;"/><path d="M1230.3104,234.1 L1230.3104,239.1 A5,5 0 0 0 1235.3104,244.1 L1240.3104,244.1 L1230.3104,234.1" fill="#FFA500" style="stroke:#444444;stroke-width:1;"/><text fill="#000000" font-family="Sans-Serif" font-size="13" lengthAdjust="spacing" textLength="64.4287" x="1074.89" y="251.1669">Sustained</text><text fill="#000000" font-family="Sans-Serif" font-size="13" lengthAdjust="spacing" textLength="4.1323" x="1139.3187" y="251.1669">&#160;</text><text fill="#000000" font-family="Sans-Serif" font-size="13" lengthAdjust="spacing" textLength="33.3887" x="1143.451" y="251.1669">flight</text><text fill="#000000" font-family="Sans-Serif" font-size="13" lengthAdjust="spacing" textLength="4.1323" x="1176.8397" y="251.1669">&#160;</text><text fill="#000000" font-family="Sans-Serif" font-size="13" lengthAdjust="spacing" textLength="44.3384" x="1180.972" y="251.1669">engine</text></g><g class="entity" data-entity="GMN49" data-source-line="79" data-uid="ent0050" id="entity_GMN49"><path d="M1931.1,133.84 L1931.1,137.23 L1881.9,141.23 L1931.1,145.23 L1931.1,138.9728 A10,10 0 0 0 1941.1,148.9728 L2120.0883,148.9728 A10,10 0 0 0 2130.0883,138.9728 L2130.0883,133.84 L2120.0883,123.84 L1941.1,123.84 A10,10 0 0 0 1931.1,133.84" fill="#FFA500" style="stroke:#444444;stroke-width:0.5;"/><path d="M2120.0883,123.84 L2120.0883,128.84 A5,5 0 0 0 2125.0883,133.84 L2130.0883,133.84 L2120.0883,123.84" fill="#FFA500" style="stroke:#444444;stroke-width:0.5;"/><text fill="#000000" font-family="Sans-Serif" font-size="13" lengthAdjust="spacing" textLength="40.6567" x="1937.1" y="140.9069">Faster</text><text fill="#000000" font-family="Sans-Serif" font-size="13" lengthAdjust="spacing" textLength="4.1323" x="1977.7567" y="140.9069">&#160;</text><text fill="#000000" font-family="Sans-Serif" font-size="13" lengthAdjust="spacing" textLength="29.542" x="1981.8891" y="140.9069">than</text><text fill="#000000" font-family="Sans-Serif" font-size="13" lengthAdjust="spacing" textLength="4.1323" x="2011.4311" y="140.9069">&#160;</text><text fill="#000000" font-family="Sans-Serif" font-size="13" lengthAdjust="spacing" textLength="39.2729" x="2015.5634" y="140.9069">speed</text><text fill="#000000" font-family="Sans-Serif" font-size="13" lengthAdjust="spacing" textLength="4.1323" x="2054.8363" y="140.9069">&#160;</text><text fill="#000000" font-family="Sans-Serif" font-size="13" lengthAdjust="spacing" textLength="12.5303" x="2058.9687" y="140.9069">of</text><text fill="#000000" font-family="Sans-Serif" font-size="13" lengthAdjust="spacing" textLength="4.1323" x="2071.4989" y="140.9069">&#160;</text><text fill="#000000" font-family="Sans-Serif" font-size="13" lengthAdjust="spacing" textLength="39.457" x="2075.6313" y="140.9069">sound</text></g><g class="entity" data-entity="GMN52" data-source-line="83" data-uid="ent0053" id="entity_GMN52"><path d="M1302.54,133.84 L1302.54,138.9728 A10,10 0 0 0 1312.54,148.9728 L1494.664,148.9728 A10,10 0 0 0 1504.664,138.9728 L1504.664,141.84 L1554.47,137.23 L1504.664,133.84 L1504.664,133.84 L1494.664,123.84 L1312.54,123.84 A10,10 0 0 0 1302.54,133.84" fill="#FFA500" style="stroke:#444444;stroke-width:0.5;"/><path d="M1494.664,123.84 L1494.664,128.84 A5,5 0 0 0 1499.664,133.84 L1504.664,133.84 L1494.664,123.84" fill="#FFA500" style="stroke:#444444;stroke-width:0.5;"/><text fill="#000000" font-family="Sans-Serif" font-size="13" lengthAdjust="spacing" textLength="43.7925" x="1308.54" y="140.9069">Slower</text><text fill="#000000" font-family="Sans-Serif" font-size="13" lengthAdjust="spacing" textLength="4.1323" x="1352.3325" y="140.9069">&#160;</text><text fill="#000000" font-family="Sans-Serif" font-size="13" lengthAdjust="spacing" textLength="29.542" x="1356.4648" y="140.9069">than</text><text fill="#000000" font-family="Sans-Serif" font-size="13" lengthAdjust="spacing" textLength="4.1323" x="1386.0068" y="140.9069">&#160;</text><text fill="#000000" font-family="Sans-Serif" font-size="13" lengthAdjust="spacing" textLength="39.2729" x="1390.1391" y="140.9069">speed</text><text fill="#000000" font-family="Sans-Serif" font-size="13" lengthAdjust="spacing" textLength="4.1323" x="1429.4121" y="140.9069">&#160;</text><text fill="#000000" font-family="Sans-Serif" font-size="13" lengthAdjust="spacing" textLength="12.5303" x="1433.5444" y="140.9069">of</text><text fill="#000000" font-family="Sans-Serif" font-size="13" lengthAdjust="spacing" textLength="4.1323" x="1446.0747" y="140.9069">&#160;</text><text fill="#000000" font-family="Sans-Serif" font-size="13" lengthAdjust="spacing" textLength="39.457" x="1450.207" y="140.9069">sound</text></g><g class="entity" data-entity="GMN55" data-source-line="87" data-uid="ent0056" id="entity_GMN55"><path d="M6,126.27 L6,146.5356 A10,10 0 0 0 16,156.5356 L91.6,156.5356 L95.6,228.13 L99.6,156.5356 L175.1963,156.5356 A10,10 0 0 0 185.1963,146.5356 L185.1963,126.27 L175.1963,116.27 L16,116.27 A10,10 0 0 0 6,126.27" fill="#FFA500" style="stroke:#444444;stroke-width:0.5;"/><path d="M175.1963,116.27 L175.1963,121.27 A5,5 0 0 0 180.1963,126.27 L185.1963,126.27 L175.1963,116.27" fill="#FFA500" style="stroke:#444444;stroke-width:0.5;"/><text fill="#000000" font-family="Sans-Serif" font-size="13" lengthAdjust="spacing" textLength="103.7144" x="12" y="133.3369">Intercontinental</text><text fill="#000000" font-family="Sans-Serif" font-size="13" lengthAdjust="spacing" textLength="4.1323" x="115.7144" y="133.3369">&#160;</text><text fill="#000000" font-family="Sans-Serif" font-size="13" lengthAdjust="spacing" textLength="50.3496" x="119.8467" y="133.3369">Ballistic</text><text fill="#000000" font-family="Sans-Serif" font-size="13" lengthAdjust="spacing" textLength="43.5957" x="69.3003" y="148.4697">Missile</text></g><g class="entity" data-entity="GMN58" data-source-line="91" data-uid="ent0059" id="entity_GMN58"><path d="M57.14,453.1 L57.14,458.2328 A10,10 0 0 0 67.14,468.2328 L238.0541,468.2328 A10,10 0 0 0 248.0541,458.2328 L248.0541,453.1 L238.0541,443.1 L156.6,443.1 L152.6,373.42 L148.6,443.1 L67.14,443.1 A10,10 0 0 0 57.14,453.1" fill="#FFA500" style="stroke:#444444;stroke-width:0.5;"/><path d="M238.0541,443.1 L238.0541,448.1 A5,5 0 0 0 243.0541,453.1 L248.0541,453.1 L238.0541,443.1" fill="#FFA500" style="stroke:#444444;stroke-width:0.5;"/><text fill="#000000" font-family="Sans-Serif" font-size="13" lengthAdjust="spacing" textLength="61.7437" x="63.14" y="460.1669">Extended</text><text fill="#000000" font-family="Sans-Serif" font-size="13" lengthAdjust="spacing" textLength="4.1323" x="124.8837" y="460.1669">&#160;</text><text fill="#000000" font-family="Sans-Serif" font-size="13" lengthAdjust="spacing" textLength="36.6958" x="129.016" y="460.1669">reach</text><text fill="#000000" font-family="Sans-Serif" font-size="13" lengthAdjust="spacing" textLength="4.1323" x="165.7118" y="460.1669">&#160;</text><text fill="#000000" font-family="Sans-Serif" font-size="13" lengthAdjust="spacing" textLength="63.21" x="169.8441" y="460.1669">capability</text></g><g class="entity" data-entity="GMN61" data-source-line="95" data-uid="ent0062" id="entity_GMN61"><path d="M292.65,236.53 L292.65,243.23 L242.42,247.23 L292.65,251.23 L292.65,256.7956 A10,10 0 0 0 302.65,266.7956 L488.5445,266.7956 A10,10 0 0 0 498.5445,256.7956 L498.5445,236.53 L488.5445,226.53 L302.65,226.53 A10,10 0 0 0 292.65,236.53" fill="#FFA500" style="stroke:#444444;stroke-width:0.5;"/><path d="M488.5445,226.53 L488.5445,231.53 A5,5 0 0 0 493.5445,236.53 L498.5445,236.53 L488.5445,226.53" fill="#FFA500" style="stroke:#444444;stroke-width:0.5;"/><text fill="#000000" font-family="Sans-Serif" font-size="13" lengthAdjust="spacing" textLength="56.3989" x="298.65" y="243.5969">Example</text><text fill="#000000" font-family="Sans-Serif" font-size="13" lengthAdjust="spacing" textLength="4.1323" x="355.0489" y="243.5969">&#160;</text><text fill="#000000" font-family="Sans-Serif" font-size="13" lengthAdjust="spacing" textLength="70.5479" x="359.1813" y="243.5969">long-range</text><text fill="#000000" font-family="Sans-Serif" font-size="13" lengthAdjust="spacing" textLength="4.1323" x="429.7291" y="243.5969">&#160;</text><text fill="#000000" font-family="Sans-Serif" font-size="13" lengthAdjust="spacing" textLength="49.6831" x="433.8614" y="243.5969">ballistic</text><text fill="#000000" font-family="Sans-Serif" font-size="13" lengthAdjust="spacing" textLength="45.043" x="368.5758" y="258.7297">missile</text></g><g class="entity" data-entity="GMN64" data-source-line="99" data-uid="ent0065" id="entity_GMN64"><path d="M1721.04,16 L1721.04,36.2656 A10,10 0 0 0 1731.04,46.2656 L1906.1499,46.2656 A10,10 0 0 0 1916.1499,36.2656 L1916.1499,24 L1965.95,17.23 L1916.1499,16 L1916.1499,16 L1906.1499,6 L1731.04,6 A10,10 0 0 0 1721.04,16" fill="#FFA500" style="stroke:#444444;stroke-width:0.5;"/><path d="M1906.1499,6 L1906.1499,11 A5,5 0 0 0 1911.1499,16 L1916.1499,16 L1906.1499,6" fill="#FFA500" style="stroke:#444444;stroke-width:0.5;"/><text fill="#000000" font-family="Sans-Serif" font-size="13" lengthAdjust="spacing" textLength="56.3989" x="1727.04" y="23.0669">Example</text><text fill="#000000" font-family="Sans-Serif" font-size="13" lengthAdjust="spacing" textLength="4.1323" x="1783.4389" y="23.0669">&#160;</text><text fill="#000000" font-family="Sans-Serif" font-size="13" lengthAdjust="spacing" textLength="70.332" x="1787.5713" y="23.0669">supersonic</text><text fill="#000000" font-family="Sans-Serif" font-size="13" lengthAdjust="spacing" textLength="4.1323" x="1857.9033" y="23.0669">&#160;</text><text fill="#000000" font-family="Sans-Serif" font-size="13" lengthAdjust="spacing" textLength="39.1143" x="1862.0356" y="23.0669">cruise</text><text fill="#000000" font-family="Sans-Serif" font-size="13" lengthAdjust="spacing" textLength="45.043" x="1791.5734" y="38.1997">missile</text></g><!--link Trajectory to Ballistic Missiles--><g class="link" data-entity-1="Trajectory" data-entity-2="Ballistic Missiles" data-source-line="41" data-uid="lnk18" id="link_Trajectory_Ballistic Missiles"><path codeLine="41" d="M594.6,265 C594.6,294.5 594.6,349.23 594.6,349.23 C594.6,349.23 660.91,349.23 717.69,349.23" fill="none" id="Trajectory-to-Ballistic Missiles" style="stroke:#FFFFFF;stroke-width:1.5;"/><polygon fill="#FFFFFF" points="723.69,349.23,714.69,345.23,718.69,349.23,714.69,353.23,723.69,349.23" style="stroke:#FFFFFF;stroke-width:1.5;"/></g><!--link Gravity to Trajectory--><g class="link" data-entity-1="Gravity" data-entity-2="Trajectory" data-source-line="42" data-uid="lnk19" id="link_Gravity_Trajectory"><path codeLine="42" d="M594.6,154.61 C594.6,174.92 594.6,201.6 594.6,222.06" fill="none" id="Gravity-to-Trajectory" style="stroke:#FFFFFF;stroke-width:1.5;"/><polygon fill="#FFFFFF" points="594.6,228.06,598.6,219.06,594.6,223.06,590.6,219.06,594.6,228.06" style="stroke:#FFFFFF;stroke-width:1.5;"/></g><!--link Powered Flight to Cruise Missiles--><g class="link" data-entity-1="Powered Flight" data-entity-2="Cruise Missiles" data-source-line="43" data-uid="lnk20" id="link_Powered Flight_Cruise Missiles"><path codeLine="43" d="M2343.6,265.07 C2343.6,297.46 2343.6,361.23 2343.6,361.23 C2343.6,361.23 1863.08,361.23 1688.24,361.23" fill="none" id="Powered Flight-to-Cruise Missiles" style="stroke:#FFFFFF;stroke-width:1.5;"/><polygon fill="#FFFFFF" points="1682.24,361.23,1691.24,365.23,1687.24,361.23,1691.24,357.23,1682.24,361.23" style="stroke:#FFFFFF;stroke-width:1.5;"/></g><!--link Propulsion to Ballistic Missiles--><g class="link" data-entity-1="Propulsion" data-entity-2="Ballistic Missiles" data-source-line="44" data-uid="lnk21" id="link_Propulsion_Ballistic Missiles"><path codeLine="44" d="M1336.6,265.25 C1336.6,297.23 1336.6,359.23 1336.6,359.23 C1336.6,359.23 1009.35,359.23 863.55,359.23" fill="none" id="Propulsion-to-Ballistic Missiles" style="stroke:#FFFFFF;stroke-width:1.5;"/><polygon fill="#FFFFFF" points="857.55,359.23,866.55,363.23,862.55,359.23,866.55,355.23,857.55,359.23" style="stroke:#FFFFFF;stroke-width:1.5;"/></g><!--link Propulsion to Cruise Missiles--><g class="link" data-entity-1="Propulsion" data-entity-2="Cruise Missiles" data-source-line="45" data-uid="lnk22" id="link_Propulsion_Cruise Missiles"><path codeLine="45" d="M1383.48,253.23 C1452.64,253.23 1573.9,253.23 1573.9,253.23 C1573.9,253.23 1573.9,301.51 1573.9,330.76" fill="none" id="Propulsion-to-Cruise Missiles" style="stroke:#FFFFFF;stroke-width:1.5;"/><polygon fill="#FFFFFF" points="1573.9,336.76,1577.9,327.76,1573.9,331.76,1569.9,327.76,1573.9,336.76" style="stroke:#FFFFFF;stroke-width:1.5;"/></g><!--link Rocket Propulsion to Propulsion--><g class="link" data-entity-1="Rocket Propulsion" data-entity-2="Propulsion" data-source-line="46" data-uid="lnk23" id="link_Rocket Propulsion_Propulsion"><path codeLine="46" d="M1252.8,137.23 C1277.24,137.23 1298.38,137.23 1298.38,137.23 C1298.38,137.23 1298.38,190.88 1298.38,222.1" fill="none" id="Rocket Propulsion-to-Propulsion" style="stroke:#FFFFFF;stroke-width:1.5;"/><polygon fill="#FFFFFF" points="1298.38,228.1,1302.38,219.1,1298.38,223.1,1294.38,219.1,1298.38,228.1" style="stroke:#FFFFFF;stroke-width:1.5;"/></g><!--link Jet Propulsion to Propulsion--><g class="link" data-entity-1="Jet Propulsion" data-entity-2="Propulsion" data-source-line="47" data-uid="lnk24" id="link_Jet Propulsion_Propulsion"><path codeLine="47" d="M1043.95,154.99 C1043.95,171.23 1043.95,192.23 1043.95,192.23 C1043.95,192.23 1294.23,192.23 1294.23,192.23 C1294.23,192.23 1294.23,206.44 1294.23,222.24" fill="none" id="Jet Propulsion-to-Propulsion" style="stroke:#FFFFFF;stroke-width:1.5;"/><polygon fill="#FFFFFF" points="1294.23,228.24,1298.23,219.24,1294.23,223.24,1290.23,219.24,1294.23,228.24" style="stroke:#FFFFFF;stroke-width:1.5;"/></g><!--link Speed to Ballistic Missiles--><g class="link" data-entity-1="Speed" data-entity-2="Ballistic Missiles" data-source-line="48" data-uid="lnk25" id="link_Speed_Ballistic Missiles"><path codeLine="48" d="M1588.19,241.23 C1537.17,241.23 1443.89,241.23 1443.89,241.23 C1443.89,241.23 1443.89,366.23 1443.89,366.23 C1443.89,366.23 1029.94,366.23 863.44,366.23" fill="none" id="Speed-to-Ballistic Missiles" style="stroke:#FFFFFF;stroke-width:1.5;"/><polygon fill="#FFFFFF" points="857.44,366.23,866.44,370.23,862.44,366.23,866.44,362.23,857.44,366.23" style="stroke:#FFFFFF;stroke-width:1.5;"/></g><!--link Speed to Cruise Missiles--><g class="link" data-entity-1="Speed" data-entity-2="Cruise Missiles" data-source-line="49" data-uid="lnk26" id="link_Speed_Cruise Missiles"><path codeLine="49" d="M1620.6,265.04 C1620.6,284.95 1620.6,310.54 1620.6,330.49" fill="none" id="Speed-to-Cruise Missiles" style="stroke:#FFFFFF;stroke-width:1.5;"/><polygon fill="#FFFFFF" points="1620.6,336.49,1624.6,327.49,1620.6,331.49,1616.6,327.49,1620.6,336.49" style="stroke:#FFFFFF;stroke-width:1.5;"/></g><!--link Supersonic Speed to Speed--><g class="link" data-entity-1="Supersonic Speed" data-entity-2="Speed" data-source-line="50" data-uid="lnk27" id="link_Supersonic Speed_Speed"><path codeLine="50" d="M1808.6,154.7 C1808.6,186.18 1808.6,247.23 1808.6,247.23 C1808.6,247.23 1712.67,247.23 1658.92,247.23" fill="none" id="Supersonic Speed-to-Speed" style="stroke:#FFFFFF;stroke-width:1.5;"/><polygon fill="#FFFFFF" points="1652.92,247.23,1661.92,251.23,1657.92,247.23,1661.92,243.23,1652.92,247.23" style="stroke:#FFFFFF;stroke-width:1.5;"/></g><!--link Subsonic Speed to Speed--><g class="link" data-entity-1="Subsonic Speed" data-entity-2="Speed" data-source-line="51" data-uid="lnk28" id="link_Subsonic Speed_Speed"><path codeLine="51" d="M1620.6,154.61 C1620.6,174.92 1620.6,201.6 1620.6,222.06" fill="none" id="Subsonic Speed-to-Speed" style="stroke:#FFFFFF;stroke-width:1.5;"/><polygon fill="#FFFFFF" points="1620.6,228.06,1624.6,219.06,1620.6,223.06,1616.6,219.06,1620.6,228.06" style="stroke:#FFFFFF;stroke-width:1.5;"/></g><!--link Range to Ballistic Missiles--><g class="link" data-entity-1="Range" data-entity-2="Ballistic Missiles" data-source-line="52" data-uid="lnk29" id="link_Range_Ballistic Missiles"><path codeLine="52" d="M975.82,265.06 C975.82,295.3 975.82,352.23 975.82,352.23 C975.82,352.23 916.52,352.23 863.47,352.23" fill="none" id="Range-to-Ballistic Missiles" style="stroke:#FFFFFF;stroke-width:1.5;"/><polygon fill="#FFFFFF" points="857.47,352.23,866.47,356.23,862.47,352.23,866.47,348.23,857.47,352.23" style="stroke:#FFFFFF;stroke-width:1.5;"/></g><!--link Range to Cruise Missiles--><g class="link" data-entity-1="Range" data-entity-2="Cruise Missiles" data-source-line="53" data-uid="lnk30" id="link_Range_Cruise Missiles"><path codeLine="53" d="M997.38,265.02 C997.38,293.28 997.38,344.23 997.38,344.23 C997.38,344.23 1395.42,344.23 1552.85,344.23" fill="none" id="Range-to-Cruise Missiles" style="stroke:#FFFFFF;stroke-width:1.5;"/><polygon fill="#FFFFFF" points="1558.85,344.23,1549.85,340.23,1553.85,344.23,1549.85,348.23,1558.85,344.23" style="stroke:#FFFFFF;stroke-width:1.5;"/></g><!--link Agni V to Ballistic Missiles--><g class="link" data-entity-1="Agni V" data-entity-2="Ballistic Missiles" data-source-line="54" data-uid="lnk31" id="link_Agni V_Ballistic Missiles"><path codeLine="54" d="M223.23,265.07 C223.23,297.46 223.23,361.23 223.23,361.23 C223.23,361.23 567.86,361.23 717.84,361.23" fill="none" id="Agni V-to-Ballistic Missiles" style="stroke:#FFFFFF;stroke-width:1.5;"/><polygon fill="#FFFFFF" points="723.84,361.23,714.84,357.23,718.84,361.23,714.84,365.23,723.84,361.23" style="stroke:#FFFFFF;stroke-width:1.5;"/></g><!--link Agni V to Long Range--><g class="link" data-entity-1="Agni V" data-entity-2="Long Range" data-source-line="55" data-uid="lnk32" id="link_Agni V_Long Range"><path codeLine="55" d="M190.6,265.04 C190.6,284.95 190.6,310.54 190.6,330.49" fill="none" id="Agni V-to-Long Range" style="stroke:#FFFFFF;stroke-width:1.5;"/><polygon fill="#FFFFFF" points="190.6,336.49,194.6,327.49,190.6,331.49,186.6,327.49,190.6,336.49" style="stroke:#FFFFFF;stroke-width:1.5;"/></g><!--link BrahMos to Cruise Missiles--><g class="link" data-entity-1="BrahMos" data-entity-2="Cruise Missiles" data-source-line="56" data-uid="lnk33" id="link_BrahMos_Cruise Missiles"><path codeLine="56" d="M1965.89,35.23 C1945.93,35.23 1926.12,35.23 1926.12,35.23 C1926.12,35.23 1926.12,349.23 1926.12,349.23 C1926.12,349.23 1777.7,349.23 1688.43,349.23" fill="none" id="BrahMos-to-Cruise Missiles" style="stroke:#FFFFFF;stroke-width:1.5;"/><polygon fill="#FFFFFF" points="1682.43,349.23,1691.43,353.23,1687.43,349.23,1691.43,345.23,1682.43,349.23" style="stroke:#FFFFFF;stroke-width:1.5;"/></g><!--link BrahMos to Supersonic Speed--><g class="link" data-entity-1="BrahMos" data-entity-2="Supersonic Speed" data-source-line="57" data-uid="lnk34" id="link_BrahMos_Supersonic Speed"><path codeLine="57" d="M1965.87,26.23 C1943.86,26.23 1921.14,26.23 1921.14,26.23 C1921.14,26.23 1921.14,132.23 1921.14,132.23 C1921.14,132.23 1909.27,132.23 1887.78,132.23" fill="none" id="BrahMos-to-Supersonic Speed" style="stroke:#FFFFFF;stroke-width:1.5;stroke-dasharray:7.0,7.0;"/><polygon fill="#FFFFFF" points="1881.78,132.23,1890.78,136.23,1886.78,132.23,1890.78,128.23,1881.78,132.23" style="stroke:#FFFFFF;stroke-width:1.5;"/></g><!--link ICBMs to Ballistic Missiles--><g class="link" data-entity-1="ICBMs" data-entity-2="Ballistic Missiles" data-source-line="58" data-uid="lnk35" id="link_ICBMs_Ballistic Missiles"><path codeLine="58" d="M118.35,265.17 C118.35,281.33 118.35,302.23 118.35,302.23 C118.35,302.23 790.6,302.23 790.6,302.23 C790.6,302.23 790.6,315.31 790.6,330.51" fill="none" id="ICBMs-to-Ballistic Missiles" style="stroke:#FFFFFF;stroke-width:1.5;"/><polygon fill="#FFFFFF" points="790.6,336.51,794.6,327.51,790.6,331.51,786.6,327.51,790.6,336.51" style="stroke:#FFFFFF;stroke-width:1.5;"/></g><!--link ICBMs to Long Range--><g class="link" data-entity-1="ICBMs" data-entity-2="Long Range" data-source-line="59" data-uid="lnk36" id="link_ICBMs_Long Range"><path codeLine="59" d="M109.66,265.04 C109.66,284.95 109.66,310.54 109.66,330.49" fill="none" id="ICBMs-to-Long Range" style="stroke:#FFFFFF;stroke-width:1.5;"/><polygon fill="#FFFFFF" points="109.66,336.49,113.66,327.49,109.66,331.49,105.66,327.49,109.66,336.49" style="stroke:#FFFFFF;stroke-width:1.5;"/></g><!--link Jet Propulsion to GMN46--><g class="link" data-entity-1="Jet Propulsion" data-entity-2="GMN46" data-source-line="75" data-uid="lnk48" id="link_Jet Propulsion_GMN46"><path d="M1031.44,154.7 C1031.44,186.18 1031.44,247.23 1031.44,247.23 C1031.44,247.23 1047.7,247.23 1068.39,247.23" fill="none" id="Jet Propulsion-GMN46" style="stroke:#FFFFFF;stroke-width:1.5;stroke-dasharray:7.0,7.0;"/></g><!--SRC=[ZLPDSzem4BtxL-oGGqzaqgRauv8PeBXDfkbaGgOzB_PYgyYIHn8b-VTTsH24Fo0S8EWzlNtUVP50AVMc4Az2PP5T2LMYmG8McAmoezSgdMgf3PnTLg-08OKYzrOIQEDo7G1AfsIfXD55i6XGhVpYTRXOaBMOqLYAJ1Ma72JyHYPWfBJ4jNGlzEgEi9HsDD4c9RCr-xLwDHdDHuhZyUWYz3CsHczgS9CBHqte9HV9Ih5f-7m-2i2DmVAFI5qENmxqjkvZhTmlB0W6SrHsE2SZbeE6kLEShM-Zo72H0B0vfdh3muCbIalTrUjdMaZkG4VTRjHGub1byYEKiFbrvw9FC4L7cJQ2RFHEXC44fHJMYGGUXRL2aXt0sStrT3QRXBIfMGjBnpal1l_oDstUEk7l1ly9ruqzwGqPIY7cKEMkcs9qkPPMQCNmxKqykRq9uMUThCZ12TR3QSgy94ex7SpN9Hch5VVg66bnYlBCdzI9Z3Cbu3T3yUZRR79vC2U3-QEsdTZzTFBOFPAVceEugpUxcbt5On-5PvBek04s5wMD3WOt7DvrXYBQpw-Y17kYrlWgHZCoqS48- -kqM6sXZc5Np60XQiswpTYEgDzAI6YxQEUX8jP_Hwqa783RcVIN3WdjqhkWzEy_O0GnYFP9wj5-ny_Fxpf27-tYrbyx98IbENbpP_mnn7n_sa799nZvIoIglXeV7z3BmtW1rD6h8eiIIkIJ7PTyvu1GmWbUShbPMnUHIYlTg9QJjApL6lbanJdJaM_C54Xb_0cbfpG5d2wh_UsyiSGFrZfXOA6TqqKbyT3QlxUmh6njdJGrzZrfZm8WHklxu79KOFsYPrf_EVKsev5BxqJwX_-8oAuXzOHvwxs_-XE-aTYvSjo8LY2Ez2JC1i3irJ6LYnl298S4Irm8oITEVqUs8QysOr7oYITPScYy9FzasZafkfsyTsIN-437xdkTrFyXJP7_]--></g></svg>