<svg xmlns="http://www.w3.org/2000/svg" xmlns:xlink="http://www.w3.org/1999/xlink" contentStyleType="text/css" data-diagram-type="CLASS" height="384px" preserveAspectRatio="none" style="width:954px;height:384px;background:#333333;" version="1.1" viewBox="0 0 954 384" width="954px" zoomAndPan="magnify"><defs/><g><rect fill="#333333" height="384" style="stroke:none;stroke-width:1;" width="954" x="0" y="0"/><!--entity Biofuel Policy--><g class="entity" data-entity="Biofuel Policy" data-source-line="23" data-uid="ent0002" id="entity_Biofuel Policy"><rect fill="#87CEEB" height="36.2969" rx="10" ry="10" style="stroke:#FFFFFF;stroke-width:0.5;" width="113.584" x="560.37" y="118.25"/><text fill="#000000" font-family="Sans-Serif" font-size="14" lengthAdjust="spacing" textLength="48.3643" x="570.37" y="141.2451">Biofuel</text><text fill="#000000" font-family="Sans-Serif" font-size="14" lengthAdjust="spacing" textLength="4.4502" x="618.7343" y="141.2451">&#160;</text><text fill="#000000" font-family="Sans-Serif" font-size="14" lengthAdjust="spacing" textLength="40.7695" x="623.1845" y="141.2451">Policy</text></g><!--entity Biofuel Production--><g class="entity" data-entity="Biofuel Production" data-source-line="26" data-uid="ent0003" id="entity_Biofuel Production"><rect fill="#98FB98" height="36.2969" rx="10" ry="10" style="stroke:#FFFFFF;stroke-width:0.5;" width="147.8525" x="563.23" y="334.81"/><text fill="#000000" font-family="Sans-Serif" font-size="14" lengthAdjust="spacing" textLength="48.3643" x="573.23" y="357.8051">Biofuel</text><text fill="#000000" font-family="Sans-Serif" font-size="14" lengthAdjust="spacing" textLength="4.4502" x="621.5943" y="357.8051">&#160;</text><text fill="#000000" font-family="Sans-Serif" font-size="14" lengthAdjust="spacing" textLength="75.0381" x="626.0445" y="357.8051">Production</text></g><!--entity Starch Conversion--><g class="entity" data-entity="Starch Conversion" data-source-line="27" data-uid="ent0004" id="entity_Starch Conversion"><rect fill="#98FB98" height="36.2969" rx="10" ry="10" style="stroke:#FFFFFF;stroke-width:0.5;" width="148.2217" x="367.05" y="226.53"/><text fill="#000000" font-family="Sans-Serif" font-size="14" lengthAdjust="spacing" textLength="45.2813" x="377.05" y="249.5251">Starch</text><text fill="#000000" font-family="Sans-Serif" font-size="14" lengthAdjust="spacing" textLength="4.4502" x="422.3313" y="249.5251">&#160;</text><text fill="#000000" font-family="Sans-Serif" font-size="14" lengthAdjust="spacing" textLength="78.4902" x="426.7814" y="249.5251">Conversion</text></g><!--entity Cassava--><g class="entity" data-entity="Cassava" data-source-line="30" data-uid="ent0005" id="entity_Cassava"><rect fill="#F5DEB3" height="36.2969" rx="10" ry="10" style="stroke:#FFFFFF;stroke-width:0.5;" width="78.3857" x="243.97" y="118.25"/><text fill="#000000" font-family="Sans-Serif" font-size="14" lengthAdjust="spacing" textLength="58.3857" x="253.97" y="141.2451">Cassava</text></g><!--entity Damaged Wheat--><g class="entity" data-entity="Damaged Wheat" data-source-line="31" data-uid="ent0006" id="entity_Damaged Wheat"><rect fill="#F5DEB3" height="36.2969" rx="10" ry="10" style="stroke:#FFFFFF;stroke-width:0.5;" width="137.8105" x="372.25" y="118.25"/><text fill="#000000" font-family="Sans-Serif" font-size="14" lengthAdjust="spacing" textLength="67.9629" x="382.25" y="141.2451">Damaged</text><text fill="#000000" font-family="Sans-Serif" font-size="14" lengthAdjust="spacing" textLength="4.4502" x="450.2129" y="141.2451">&#160;</text><text fill="#000000" font-family="Sans-Serif" font-size="14" lengthAdjust="spacing" textLength="45.3975" x="454.6631" y="141.2451">Wheat</text></g><!--entity Sugar Beet--><g class="entity" data-entity="Sugar Beet" data-source-line="32" data-uid="ent0007" id="entity_Sugar Beet"><rect fill="#F5DEB3" height="36.2969" rx="10" ry="10" style="stroke:#FFFFFF;stroke-width:0.5;" width="97.752" x="693.28" y="226.53"/><text fill="#000000" font-family="Sans-Serif" font-size="14" lengthAdjust="spacing" textLength="40.9814" x="703.28" y="249.5251">Sugar</text><text fill="#000000" font-family="Sans-Serif" font-size="14" lengthAdjust="spacing" textLength="4.4502" x="744.2614" y="249.5251">&#160;</text><text fill="#000000" font-family="Sans-Serif" font-size="14" lengthAdjust="spacing" textLength="32.3203" x="748.7116" y="249.5251">Beet</text></g><g class="entity" data-entity="GMN14" data-source-line="44" data-uid="ent0015" id="entity_GMN14"><path d="M515.22,16 L515.22,36.2656 A10,10 0 0 0 525.22,46.2656 L613.16,46.2656 L617.16,117.86 L621.16,46.2656 L709.0896,46.2656 A10,10 0 0 0 719.0896,36.2656 L719.0896,16 L709.0896,6 L525.22,6 A10,10 0 0 0 515.22,16" fill="#FFA500" style="stroke:#444444;stroke-width:0.5;"/><path d="M709.0896,6 L709.0896,11 A5,5 0 0 0 714.0896,16 L719.0896,16 L709.0896,6" fill="#FFA500" style="stroke:#444444;stroke-width:0.5;"/><text fill="#000000" font-family="Sans-Serif" font-size="13" lengthAdjust="spacing" textLength="44.9478" x="521.22" y="23.0669">Guides</text><text fill="#000000" font-family="Sans-Serif" font-size="13" lengthAdjust="spacing" textLength="4.1323" x="566.1678" y="23.0669">&#160;</text><text fill="#000000" font-family="Sans-Serif" font-size="13" lengthAdjust="spacing" textLength="70.0908" x="570.3001" y="23.0669">production</text><text fill="#000000" font-family="Sans-Serif" font-size="13" lengthAdjust="spacing" textLength="4.1323" x="640.3909" y="23.0669">&#160;</text><text fill="#000000" font-family="Sans-Serif" font-size="13" lengthAdjust="spacing" textLength="39.2412" x="644.5232" y="23.0669">based</text><text fill="#000000" font-family="Sans-Serif" font-size="13" lengthAdjust="spacing" textLength="4.1323" x="683.7644" y="23.0669">&#160;</text><text fill="#000000" font-family="Sans-Serif" font-size="13" lengthAdjust="spacing" textLength="16.1929" x="687.8968" y="23.0669">on</text><text fill="#000000" font-family="Sans-Serif" font-size="13" lengthAdjust="spacing" textLength="38.27" x="593.5198" y="38.1997">policy</text></g><g class="entity" data-entity="GMN17" data-source-line="48" data-uid="ent0018" id="entity_GMN17"><path d="M760.64,350.39 L760.64,349.09 L711.45,353.09 L760.64,357.09 L760.64,355.5228 A10,10 0 0 0 770.64,365.5228 L933.683,365.5228 A10,10 0 0 0 943.683,355.5228 L943.683,350.39 L933.683,340.39 L770.64,340.39 A10,10 0 0 0 760.64,350.39" fill="#FFA500" style="stroke:#444444;stroke-width:0.5;"/><path d="M933.683,340.39 L933.683,345.39 A5,5 0 0 0 938.683,350.39 L943.683,350.39 L933.683,340.39" fill="#FFA500" style="stroke:#444444;stroke-width:0.5;"/><text fill="#000000" font-family="Sans-Serif" font-size="13" lengthAdjust="spacing" textLength="58.1763" x="766.64" y="357.4569">Converts</text><text fill="#000000" font-family="Sans-Serif" font-size="13" lengthAdjust="spacing" textLength="4.1323" x="824.8163" y="357.4569">&#160;</text><text fill="#000000" font-family="Sans-Serif" font-size="13" lengthAdjust="spacing" textLength="53.9932" x="828.9486" y="357.4569">biomass</text><text fill="#000000" font-family="Sans-Serif" font-size="13" lengthAdjust="spacing" textLength="4.1323" x="882.9418" y="357.4569">&#160;</text><text fill="#000000" font-family="Sans-Serif" font-size="13" lengthAdjust="spacing" textLength="13.0508" x="887.0741" y="357.4569">to</text><text fill="#000000" font-family="Sans-Serif" font-size="13" lengthAdjust="spacing" textLength="4.1323" x="900.1249" y="357.4569">&#160;</text><text fill="#000000" font-family="Sans-Serif" font-size="13" lengthAdjust="spacing" textLength="24.4258" x="904.2572" y="357.4569">fuel</text></g><g class="entity" data-entity="GMN20" data-source-line="52" data-uid="ent0021" id="entity_GMN20"><path d="M331.46,342.82 L331.46,363.0856 A10,10 0 0 0 341.46,373.0856 L502.8526,373.0856 A10,10 0 0 0 512.8526,363.0856 L512.8526,342.82 L502.8526,332.82 L443.95,332.82 L439.95,263.04 L435.95,332.82 L341.46,332.82 A10,10 0 0 0 331.46,342.82" fill="#FFA500" style="stroke:#444444;stroke-width:0.5;"/><path d="M502.8526,332.82 L502.8526,337.82 A5,5 0 0 0 507.8526,342.82 L512.8526,342.82 L502.8526,332.82" fill="#FFA500" style="stroke:#444444;stroke-width:0.5;"/><text fill="#000000" font-family="Sans-Serif" font-size="13" lengthAdjust="spacing" textLength="44.5288" x="337.46" y="349.8869">Breaks</text><text fill="#000000" font-family="Sans-Serif" font-size="13" lengthAdjust="spacing" textLength="4.1323" x="381.9888" y="349.8869">&#160;</text><text fill="#000000" font-family="Sans-Serif" font-size="13" lengthAdjust="spacing" textLength="35.0771" x="386.1211" y="349.8869">down</text><text fill="#000000" font-family="Sans-Serif" font-size="13" lengthAdjust="spacing" textLength="4.1323" x="421.1983" y="349.8869">&#160;</text><text fill="#000000" font-family="Sans-Serif" font-size="13" lengthAdjust="spacing" textLength="55.3389" x="425.3306" y="349.8869">starches</text><text fill="#000000" font-family="Sans-Serif" font-size="13" lengthAdjust="spacing" textLength="4.1323" x="480.6695" y="349.8869">&#160;</text><text fill="#000000" font-family="Sans-Serif" font-size="13" lengthAdjust="spacing" textLength="13.0508" x="484.8018" y="349.8869">to</text><text fill="#000000" font-family="Sans-Serif" font-size="13" lengthAdjust="spacing" textLength="36.5752" x="399.3687" y="365.0197">sugar</text></g><g class="entity" data-entity="GMN23" data-source-line="56" data-uid="ent0024" id="entity_GMN23"><path d="M6,126.26 L6,146.5256 A10,10 0 0 0 16,156.5256 L184.3179,156.5256 A10,10 0 0 0 194.3179,146.5256 L194.3179,141.09 L243.62,137.09 L194.3179,133.09 L194.3179,126.26 L184.3179,116.26 L16,116.26 A10,10 0 0 0 6,126.26" fill="#FFA500" style="stroke:#444444;stroke-width:0.5;"/><path d="M184.3179,116.26 L184.3179,121.26 A5,5 0 0 0 189.3179,126.26 L194.3179,126.26 L184.3179,116.26" fill="#FFA500" style="stroke:#444444;stroke-width:0.5;"/><text fill="#000000" font-family="Sans-Serif" font-size="13" lengthAdjust="spacing" textLength="49.7402" x="12" y="133.3269">Starchy</text><text fill="#000000" font-family="Sans-Serif" font-size="13" lengthAdjust="spacing" textLength="4.1323" x="61.7402" y="133.3269">&#160;</text><text fill="#000000" font-family="Sans-Serif" font-size="13" lengthAdjust="spacing" textLength="26.3491" x="65.8726" y="133.3269">root</text><text fill="#000000" font-family="Sans-Serif" font-size="13" lengthAdjust="spacing" textLength="4.1323" x="92.2217" y="133.3269">&#160;</text><text fill="#000000" font-family="Sans-Serif" font-size="13" lengthAdjust="spacing" textLength="28.6978" x="96.354" y="133.3269">crop</text><text fill="#000000" font-family="Sans-Serif" font-size="13" lengthAdjust="spacing" textLength="4.1323" x="125.0518" y="133.3269">&#160;</text><text fill="#000000" font-family="Sans-Serif" font-size="13" lengthAdjust="spacing" textLength="31.2622" x="129.1841" y="133.3269">used</text><text fill="#000000" font-family="Sans-Serif" font-size="13" lengthAdjust="spacing" textLength="4.1323" x="160.4463" y="133.3269">&#160;</text><text fill="#000000" font-family="Sans-Serif" font-size="13" lengthAdjust="spacing" textLength="14.7393" x="164.5786" y="133.3269">as</text><text fill="#000000" font-family="Sans-Serif" font-size="13" lengthAdjust="spacing" textLength="33.4395" x="78.9392" y="148.4597">input</text></g><!--link Cassava to Starch Conversion--><g class="link" data-entity-1="Cassava" data-entity-2="Starch Conversion" data-source-line="35" data-uid="lnk8" id="link_Cassava_Starch Conversion"><path codeLine="35" d="M283.16,154.83 C283.16,185.84 283.16,245.09 283.16,245.09 C283.16,245.09 319.81,245.09 360.79,245.09" fill="none" id="Cassava-to-Starch Conversion" style="stroke:#FFFFFF;stroke-width:1.5;"/><polygon fill="#FFFFFF" points="366.79,245.09,357.79,241.09,361.79,245.09,357.79,249.09,366.79,245.09" style="stroke:#FFFFFF;stroke-width:1.5;"/></g><!--link Damaged Wheat to Starch Conversion--><g class="link" data-entity-1="Damaged Wheat" data-entity-2="Starch Conversion" data-source-line="36" data-uid="lnk9" id="link_Damaged Wheat_Starch Conversion"><path codeLine="36" d="M441.16,154.76 C441.16,174.67 441.16,200.27 441.16,220.22" fill="none" id="Damaged Wheat-to-Starch Conversion" style="stroke:#FFFFFF;stroke-width:1.5;"/><polygon fill="#FFFFFF" points="441.16,226.22,445.16,217.22,441.16,221.22,437.16,217.22,441.16,226.22" style="stroke:#FFFFFF;stroke-width:1.5;"/></g><!--link Starch Conversion to Biofuel Production--><g class="link" data-entity-1="Starch Conversion" data-entity-2="Biofuel Production" data-source-line="37" data-uid="lnk10" id="link_Starch Conversion_Biofuel Production"><path codeLine="37" d="M515.6,251.09 C553.18,251.09 590.91,251.09 590.91,251.09 C590.91,251.09 590.91,299.44 590.91,328.75" fill="none" id="Starch Conversion-to-Biofuel Production" style="stroke:#FFFFFF;stroke-width:1.5;"/><polygon fill="#FFFFFF" points="590.91,334.75,594.91,325.75,590.91,329.75,586.91,325.75,590.91,334.75" style="stroke:#FFFFFF;stroke-width:1.5;"/></g><!--link Sugar Beet to Biofuel Production--><g class="link" data-entity-1="Sugar Beet" data-entity-2="Biofuel Production" data-source-line="38" data-uid="lnk11" id="link_Sugar Beet_Biofuel Production"><path codeLine="38" d="M702.18,263.04 C702.18,282.96 702.18,308.55 702.18,328.5" fill="none" id="Sugar Beet-to-Biofuel Production" style="stroke:#FFFFFF;stroke-width:1.5;"/><polygon fill="#FFFFFF" points="702.18,334.5,706.18,325.5,702.18,329.5,698.18,325.5,702.18,334.5" style="stroke:#FFFFFF;stroke-width:1.5;"/></g><!--link Biofuel Policy to Biofuel Production--><g class="link" data-entity-1="Biofuel Policy" data-entity-2="Biofuel Production" data-source-line="39" data-uid="lnk12" id="link_Biofuel Policy_Biofuel Production"><path codeLine="39" d="M646.27,154.86 C646.27,195.77 646.27,287.67 646.27,328.54" fill="none" id="Biofuel Policy-to-Biofuel Production" style="stroke:#FFFFFF;stroke-width:1.5;stroke-dasharray:7.0,7.0;"/><polygon fill="#FFFFFF" points="646.27,334.54,650.27,325.54,646.27,329.54,642.27,325.54,646.27,334.54" style="stroke:#FFFFFF;stroke-width:1.5;"/></g><!--link Biofuel Policy to Starch Conversion--><g class="link" data-entity-1="Biofuel Policy" data-entity-2="Starch Conversion" data-source-line="40" data-uid="lnk13" id="link_Biofuel Policy_Starch Conversion"><path codeLine="40" d="M618.59,154.75 C618.59,184.29 618.59,239.09 618.59,239.09 C618.59,239.09 570.19,239.09 521.64,239.09" fill="none" id="Biofuel Policy-to-Starch Conversion" style="stroke:#FFFFFF;stroke-width:1.5;stroke-dasharray:7.0,7.0;"/><polygon fill="#FFFFFF" points="515.64,239.09,524.64,243.09,520.64,239.09,524.64,235.09,515.64,239.09" style="stroke:#FFFFFF;stroke-width:1.5;"/></g><!--SRC=[bLHDRzim3BtxLn3fOTkXHRSkQBl3W3XDTjkAfK3FZ4tRGcJHeEIcsQyVxQIPuhdxy248nAV7nwSdeRMyhSspSMNYDyOrA5Z36hDDATowVCwM1Swk-Yz2MECex1e2bb1nL72SawS6ffVHeg3RT8lNyM9DtcD9CsjALvCBaEaFIOJ8gS3MXWTw3dz0EGwKikGa1x4V-s-868wqNCwcbx6UcGXlzyLjPG8DIm-LoJPEHSFxYsbKt0esZoOF5NmuuJkeNx8BNx4ccApG-VCLYIac0t5_mnnqYoFH9b71LvZpLWyF2hIUnhllPrfRTM2axtXLA0leIlilaDZylNF96vXZe99bzmbcQny4im1pTXar8JbkX4bgk6Z9mZrRa-qcS7PpFLyiqbE2U-5CRIS_kbCuRxDWsEdksvjbUdiJmrO19Qkwraya_WHrqkERbEZC3-o8uArG8vfY5pfd1RTGAr2CMlmk9f-Z9lW9bN8vlLkaLt7j3ciDTmwF5M4OHQpQ4WLIegYichwJxLNuoZG- -TNZ_Fpps3Z9iDEhk14hUko8ayc9kDTHm-ExkFWlv8XADM2bQT5ZCLaVKMWqTjJV_A8B8LhK52LzAN03NFoMeWJWIslq6OBcA44tUlL8_pGzA26Nz_p9dafCMOLJiaW-73G63sl3jHw9zeOEDkHPSmXSzqGZqm6aGhZne9VMWUy1r7FvpkyXcQLYh-ab14gmPztfay3w5eewq7Q3eGUzbsquKlm4]--></g></svg>