<svg xmlns="http://www.w3.org/2000/svg" xmlns:xlink="http://www.w3.org/1999/xlink" contentStyleType="text/css" data-diagram-type="CLASS" height="518px" preserveAspectRatio="none" style="width:950px;height:518px;background:#333333;" version="1.1" viewBox="0 0 950 518" width="950px" zoomAndPan="magnify"><defs/><g><rect fill="#333333" height="518" style="stroke:none;stroke-width:1;" width="950" x="0" y="0"/><!--entity Environment Protection Act 1986--><g class="entity" data-entity="Environment Protection Act 1986" data-source-line="23" data-uid="ent0002" id="entity_Environment Protection Act 1986"><rect fill="#87CEEB" height="52.5938" rx="10" ry="10" style="stroke:#FFFFFF;stroke-width:0.5;" width="212.7461" x="340.29" y="7"/><text fill="#000000" font-family="Sans-Serif" font-size="14" lengthAdjust="spacing" textLength="89.7012" x="350.29" y="29.9951">Environment</text><text fill="#000000" font-family="Sans-Serif" font-size="14" lengthAdjust="spacing" textLength="4.4502" x="439.9912" y="29.9951">&#160;</text><text fill="#000000" font-family="Sans-Serif" font-size="14" lengthAdjust="spacing" textLength="71.3809" x="444.4414" y="29.9951">Protection</text><text fill="#000000" font-family="Sans-Serif" font-size="14" lengthAdjust="spacing" textLength="4.4502" x="515.8222" y="29.9951">&#160;</text><text fill="#000000" font-family="Sans-Serif" font-size="14" lengthAdjust="spacing" textLength="22.7637" x="520.2724" y="29.9951">Act</text><text fill="#000000" font-family="Sans-Serif" font-size="14" lengthAdjust="spacing" textLength="35.6289" x="428.8486" y="46.292">1986</text></g><!--entity Groundwater Resources--><g class="entity" data-entity="Groundwater Resources" data-source-line="24" data-uid="ent0003" id="entity_Groundwater Resources"><rect fill="#87CEEB" height="36.2969" rx="10" ry="10" style="stroke:#FFFFFF;stroke-width:0.5;" width="188.5742" x="462.38" y="361.29"/><text fill="#000000" font-family="Sans-Serif" font-size="14" lengthAdjust="spacing" textLength="91.6904" x="472.38" y="384.2851">Groundwater</text><text fill="#000000" font-family="Sans-Serif" font-size="14" lengthAdjust="spacing" textLength="4.4502" x="564.0704" y="384.2851">&#160;</text><text fill="#000000" font-family="Sans-Serif" font-size="14" lengthAdjust="spacing" textLength="72.4336" x="568.5206" y="384.2851">Resources</text></g><!--entity Central Ground Water Authority--><g class="entity" data-entity="Central Ground Water Authority" data-source-line="27" data-uid="ent0004" id="entity_Central Ground Water Authority"><rect fill="#F5DEB3" height="52.5938" rx="10" ry="10" style="stroke:#FFFFFF;stroke-width:0.5;" width="173.959" x="359.68" y="130.99"/><text fill="#000000" font-family="Sans-Serif" font-size="14" lengthAdjust="spacing" textLength="50.9756" x="369.68" y="153.9851">Central</text><text fill="#000000" font-family="Sans-Serif" font-size="14" lengthAdjust="spacing" textLength="4.4502" x="420.6556" y="153.9851">&#160;</text><text fill="#000000" font-family="Sans-Serif" font-size="14" lengthAdjust="spacing" textLength="51.8027" x="425.1058" y="153.9851">Ground</text><text fill="#000000" font-family="Sans-Serif" font-size="14" lengthAdjust="spacing" textLength="4.4502" x="476.9085" y="153.9851">&#160;</text><text fill="#000000" font-family="Sans-Serif" font-size="14" lengthAdjust="spacing" textLength="42.2803" x="481.3587" y="153.9851">Water</text><text fill="#000000" font-family="Sans-Serif" font-size="14" lengthAdjust="spacing" textLength="64.7979" x="414.2606" y="170.282">Authority</text></g><!--entity Central Water Commission--><g class="entity" data-entity="Central Water Commission" data-source-line="28" data-uid="ent0005" id="entity_Central Water Commission"><rect fill="#F5DEB3" height="36.2969" rx="10" ry="10" style="stroke:#FFFFFF;stroke-width:0.5;" width="207.5781" x="320.87" y="254.99"/><text fill="#000000" font-family="Sans-Serif" font-size="14" lengthAdjust="spacing" textLength="50.9756" x="330.87" y="277.9851">Central</text><text fill="#000000" font-family="Sans-Serif" font-size="14" lengthAdjust="spacing" textLength="4.4502" x="381.8456" y="277.9851">&#160;</text><text fill="#000000" font-family="Sans-Serif" font-size="14" lengthAdjust="spacing" textLength="42.2803" x="386.2958" y="277.9851">Water</text><text fill="#000000" font-family="Sans-Serif" font-size="14" lengthAdjust="spacing" textLength="4.4502" x="428.5761" y="277.9851">&#160;</text><text fill="#000000" font-family="Sans-Serif" font-size="14" lengthAdjust="spacing" textLength="85.4219" x="433.0263" y="277.9851">Commission</text></g><!--entity Central Ground Water Board--><g class="entity" data-entity="Central Ground Water Board" data-source-line="29" data-uid="ent0006" id="entity_Central Ground Water Board"><rect fill="#F5DEB3" height="36.2969" rx="10" ry="10" style="stroke:#FFFFFF;stroke-width:0.5;" width="219.8008" x="578.76" y="254.99"/><text fill="#000000" font-family="Sans-Serif" font-size="14" lengthAdjust="spacing" textLength="50.9756" x="588.76" y="277.9851">Central</text><text fill="#000000" font-family="Sans-Serif" font-size="14" lengthAdjust="spacing" textLength="4.4502" x="639.7356" y="277.9851">&#160;</text><text fill="#000000" font-family="Sans-Serif" font-size="14" lengthAdjust="spacing" textLength="51.8027" x="644.1858" y="277.9851">Ground</text><text fill="#000000" font-family="Sans-Serif" font-size="14" lengthAdjust="spacing" textLength="4.4502" x="695.9885" y="277.9851">&#160;</text><text fill="#000000" font-family="Sans-Serif" font-size="14" lengthAdjust="spacing" textLength="42.2803" x="700.4387" y="277.9851">Water</text><text fill="#000000" font-family="Sans-Serif" font-size="14" lengthAdjust="spacing" textLength="4.4502" x="742.719" y="277.9851">&#160;</text><text fill="#000000" font-family="Sans-Serif" font-size="14" lengthAdjust="spacing" textLength="41.3916" x="747.1692" y="277.9851">Board</text></g><!--entity Regulation--><g class="entity" data-entity="Regulation" data-source-line="32" data-uid="ent0007" id="entity_Regulation"><rect fill="#98FB98" height="36.2969" rx="10" ry="10" style="stroke:#FFFFFF;stroke-width:0.5;" width="95.3867" x="848.97" y="254.99"/><text fill="#000000" font-family="Sans-Serif" font-size="14" lengthAdjust="spacing" textLength="75.3867" x="858.97" y="277.9851">Regulation</text></g><!--entity Management--><g class="entity" data-entity="Management" data-source-line="33" data-uid="ent0008" id="entity_Management"><rect fill="#98FB98" height="36.2969" rx="10" ry="10" style="stroke:#FFFFFF;stroke-width:0.5;" width="112.2236" x="158.55" y="254.99"/><text fill="#000000" font-family="Sans-Serif" font-size="14" lengthAdjust="spacing" textLength="92.2236" x="168.55" y="277.9851">Management</text></g><g class="entity" data-entity="GMN20" data-source-line="54" data-uid="ent0021" id="entity_GMN20"><path d="M603.46,23.16 L603.46,29.85 L553.5,33.85 L603.46,37.85 L603.46,43.4256 A10,10 0 0 0 613.46,53.4256 L797.8565,53.4256 A10,10 0 0 0 807.8565,43.4256 L807.8565,23.16 L797.8565,13.16 L613.46,13.16 A10,10 0 0 0 603.46,23.16" fill="#FFA500" style="stroke:#444444;stroke-width:0.5;"/><path d="M797.8565,13.16 L797.8565,18.16 A5,5 0 0 0 802.8565,23.16 L807.8565,23.16 L797.8565,13.16" fill="#FFA500" style="stroke:#444444;stroke-width:0.5;"/><text fill="#000000" font-family="Sans-Serif" font-size="13" lengthAdjust="spacing" textLength="84.6079" x="609.46" y="30.2269">Foundational</text><text fill="#000000" font-family="Sans-Serif" font-size="13" lengthAdjust="spacing" textLength="4.1323" x="694.0679" y="30.2269">&#160;</text><text fill="#000000" font-family="Sans-Serif" font-size="13" lengthAdjust="spacing" textLength="94.6563" x="698.2002" y="30.2269">environmental</text><text fill="#000000" font-family="Sans-Serif" font-size="13" lengthAdjust="spacing" textLength="22.2104" x="661.9773" y="45.3597">law</text><text fill="#000000" font-family="Sans-Serif" font-size="13" lengthAdjust="spacing" textLength="4.1323" x="684.1878" y="45.3597">&#160;</text><text fill="#000000" font-family="Sans-Serif" font-size="13" lengthAdjust="spacing" textLength="11.8511" x="688.3201" y="45.3597">in</text><text fill="#000000" font-family="Sans-Serif" font-size="13" lengthAdjust="spacing" textLength="4.1323" x="700.1712" y="45.3597">&#160;</text><text fill="#000000" font-family="Sans-Serif" font-size="13" lengthAdjust="spacing" textLength="36.0356" x="704.3035" y="45.3597">India.</text></g><g class="entity" data-entity="GMN23" data-source-line="58" data-uid="ent0024" id="entity_GMN23"><path d="M6,139.59 L6,174.9884 A10,10 0 0 0 16,184.9884 L197.3242,184.9884 A10,10 0 0 0 207.3242,174.9884 L207.3242,152.85 L359.2,148.85 L207.3242,144.85 L207.3242,139.59 L197.3242,129.59 L16,129.59 A10,10 0 0 0 6,139.59" fill="#FFA500" style="stroke:#444444;stroke-width:0.5;"/><path d="M197.3242,129.59 L197.3242,134.59 A5,5 0 0 0 202.3242,139.59 L207.3242,139.59 L197.3242,129.59" fill="#FFA500" style="stroke:#444444;stroke-width:0.5;"/><text fill="#000000" font-family="Sans-Serif" font-size="13" lengthAdjust="spacing" textLength="75.4355" x="12" y="146.6569">Constituted</text><text fill="#000000" font-family="Sans-Serif" font-size="13" lengthAdjust="spacing" textLength="4.1323" x="87.4355" y="146.6569">&#160;</text><text fill="#000000" font-family="Sans-Serif" font-size="13" lengthAdjust="spacing" textLength="38.0732" x="91.5679" y="146.6569">under</text><text fill="#000000" font-family="Sans-Serif" font-size="13" lengthAdjust="spacing" textLength="4.1323" x="129.6411" y="146.6569">&#160;</text><text fill="#000000" font-family="Sans-Serif" font-size="13" lengthAdjust="spacing" textLength="21.3345" x="133.7734" y="146.6569">the</text><text fill="#000000" font-family="Sans-Serif" font-size="13" lengthAdjust="spacing" textLength="4.1323" x="155.1079" y="146.6569">&#160;</text><text fill="#000000" font-family="Sans-Serif" font-size="13" lengthAdjust="spacing" textLength="33.084" x="159.2402" y="146.6569">1986</text><text fill="#000000" font-family="Sans-Serif" font-size="13" lengthAdjust="spacing" textLength="25.27" x="89.5271" y="161.7897">Act.</text><text fill="#000000" font-family="Sans-Serif" font-size="13" lengthAdjust="spacing" textLength="58.4111" x="27.1646" y="176.9225">Manages</text><text fill="#000000" font-family="Sans-Serif" font-size="13" lengthAdjust="spacing" textLength="4.1323" x="85.5757" y="176.9225">&#160;</text><text fill="#000000" font-family="Sans-Serif" font-size="13" lengthAdjust="spacing" textLength="87.4517" x="89.708" y="176.9225">groundwater.</text></g><g class="entity" data-entity="GMN26" data-source-line="63" data-uid="ent0027" id="entity_GMN26"><path d="M607.11,147.16 L607.11,167.4256 A10,10 0 0 0 617.11,177.4256 L810.2155,177.4256 A10,10 0 0 0 820.2155,167.4256 L820.2155,147.16 L810.2155,137.16 L617.11,137.16 A10,10 0 0 0 607.11,147.16" fill="#FFA500" style="stroke:#444444;stroke-width:0.5;"/><path d="M810.2155,137.16 L810.2155,142.16 A5,5 0 0 0 815.2155,147.16 L820.2155,147.16 L810.2155,137.16" fill="#FFA500" style="stroke:#444444;stroke-width:1;"/><text fill="#000000" font-family="Sans-Serif" font-size="13" lengthAdjust="spacing" textLength="46.5474" x="613.11" y="154.2269">Setting</text><text fill="#000000" font-family="Sans-Serif" font-size="13" lengthAdjust="spacing" textLength="4.1323" x="659.6574" y="154.2269">&#160;</text><text fill="#000000" font-family="Sans-Serif" font-size="13" lengthAdjust="spacing" textLength="31.9668" x="663.7897" y="154.2269">rules</text><text fill="#000000" font-family="Sans-Serif" font-size="13" lengthAdjust="spacing" textLength="4.1323" x="695.7565" y="154.2269">&#160;</text><text fill="#000000" font-family="Sans-Serif" font-size="13" lengthAdjust="spacing" textLength="17.875" x="699.8888" y="154.2269">for</text><text fill="#000000" font-family="Sans-Serif" font-size="13" lengthAdjust="spacing" textLength="4.1323" x="717.7638" y="154.2269">&#160;</text><text fill="#000000" font-family="Sans-Serif" font-size="13" lengthAdjust="spacing" textLength="83.3193" x="721.8961" y="154.2269">groundwater</text><text fill="#000000" font-family="Sans-Serif" font-size="13" lengthAdjust="spacing" textLength="27.1426" x="695.5914" y="169.3597">use.</text></g><g class="entity" data-entity="GMN29" data-source-line="67" data-uid="ent0030" id="entity_GMN29"><path d="M469.59,477.58 L469.59,497.8456 A10,10 0 0 0 479.59,507.8456 L633.7272,507.8456 A10,10 0 0 0 643.7272,497.8456 L643.7272,477.58 L633.7272,467.58 L560.66,467.58 L556.66,397.8 L552.66,467.58 L479.59,467.58 A10,10 0 0 0 469.59,477.58" fill="#FFA500" style="stroke:#444444;stroke-width:0.5;"/><path d="M633.7272,467.58 L633.7272,472.58 A5,5 0 0 0 638.7272,477.58 L643.7272,477.58 L633.7272,467.58" fill="#FFA500" style="stroke:#444444;stroke-width:0.5;"/><text fill="#000000" font-family="Sans-Serif" font-size="13" lengthAdjust="spacing" textLength="29.1802" x="475.59" y="484.6469">Vital</text><text fill="#000000" font-family="Sans-Serif" font-size="13" lengthAdjust="spacing" textLength="4.1323" x="504.7702" y="484.6469">&#160;</text><text fill="#000000" font-family="Sans-Serif" font-size="13" lengthAdjust="spacing" textLength="56.7988" x="508.9025" y="484.6469">resource</text><text fill="#000000" font-family="Sans-Serif" font-size="13" lengthAdjust="spacing" textLength="4.1323" x="565.7013" y="484.6469">&#160;</text><text fill="#000000" font-family="Sans-Serif" font-size="13" lengthAdjust="spacing" textLength="58.8936" x="569.8337" y="484.6469">requiring</text><text fill="#000000" font-family="Sans-Serif" font-size="13" lengthAdjust="spacing" textLength="44.8843" x="495.1027" y="499.7797">careful</text><text fill="#000000" font-family="Sans-Serif" font-size="13" lengthAdjust="spacing" textLength="4.1323" x="539.987" y="499.7797">&#160;</text><text fill="#000000" font-family="Sans-Serif" font-size="13" lengthAdjust="spacing" textLength="65.0952" x="544.1193" y="499.7797">oversight.</text></g><!--link Environment Protection Act 1986 to Central Ground Water Authority--><g class="link" data-entity-1="Environment Protection Act 1986" data-entity-2="Central Ground Water Authority" data-source-line="36" data-uid="lnk9" id="link_Environment Protection Act 1986_Central Ground Water Authority"><path codeLine="36" d="M446.66,59.9 C446.66,80.82 446.66,103.83 446.66,124.74" fill="none" id="Environment Protection Act 1986-to-Central Ground Water Authority" style="stroke:#FFFFFF;stroke-width:1.5;"/><polygon fill="#FFFFFF" points="446.66,130.74,450.66,121.74,446.66,125.74,442.66,121.74,446.66,130.74" style="stroke:#FFFFFF;stroke-width:1.5;"/></g><!--link Environment Protection Act 1986 to Regulation--><g class="link" data-entity-1="Environment Protection Act 1986" data-entity-2="Regulation" data-source-line="37" data-uid="lnk10" id="link_Environment Protection Act 1986_Regulation"><path codeLine="37" d="M543.34,59.76 C543.34,76.44 543.34,94.85 543.34,94.85 C543.34,94.85 912.56,94.85 912.56,94.85 C912.56,94.85 912.56,203.18 912.56,248.73" fill="none" id="Environment Protection Act 1986-to-Regulation" style="stroke:#FFFFFF;stroke-width:1.5;"/><polygon fill="#FFFFFF" points="912.56,254.73,916.56,245.73,912.56,249.73,908.56,245.73,912.56,254.73" style="stroke:#FFFFFF;stroke-width:1.5;"/></g><!--link Environment Protection Act 1986 to Management--><g class="link" data-entity-1="Environment Protection Act 1986" data-entity-2="Management" data-source-line="38" data-uid="lnk11" id="link_Environment Protection Act 1986_Management"><path codeLine="38" d="M339.81,33.85 C284.52,33.85 228.47,33.85 228.47,33.85 C228.47,33.85 228.47,192.73 228.47,248.76" fill="none" id="Environment Protection Act 1986-to-Management" style="stroke:#FFFFFF;stroke-width:1.5;"/><polygon fill="#FFFFFF" points="228.47,254.76,232.47,245.76,228.47,249.76,224.47,245.76,228.47,254.76" style="stroke:#FFFFFF;stroke-width:1.5;"/></g><!--link Central Ground Water Authority to Regulation--><g class="link" data-entity-1="Central Ground Water Authority" data-entity-2="Regulation" data-source-line="40" data-uid="lnk12" id="link_Central Ground Water Authority_Regulation"><path codeLine="40" d="M472.2,183.88 C472.2,201.29 472.2,220.85 472.2,220.85 C472.2,220.85 880.76,220.85 880.76,220.85 C880.76,220.85 880.76,233.53 880.76,248.56" fill="none" id="Central Ground Water Authority-to-Regulation" style="stroke:#FFFFFF;stroke-width:1.5;"/><polygon fill="#FFFFFF" points="880.76,254.56,884.76,245.56,880.76,249.56,876.76,245.56,880.76,254.56" style="stroke:#FFFFFF;stroke-width:1.5;"/></g><!--link Central Ground Water Authority to Management--><g class="link" data-entity-1="Central Ground Water Authority" data-entity-2="Management" data-source-line="41" data-uid="lnk13" id="link_Central Ground Water Authority_Management"><path codeLine="41" d="M359.38,166.85 C306.67,166.85 249.62,166.85 249.62,166.85 C249.62,166.85 249.62,218.17 249.62,248.62" fill="none" id="Central Ground Water Authority-to-Management" style="stroke:#FFFFFF;stroke-width:1.5;"/><polygon fill="#FFFFFF" points="249.62,254.62,253.62,245.62,249.62,249.62,245.62,245.62,249.62,254.62" style="stroke:#FFFFFF;stroke-width:1.5;"/></g><!--link Regulation to Groundwater Resources--><g class="link" data-entity-1="Regulation" data-entity-2="Groundwater Resources" data-source-line="43" data-uid="lnk14" id="link_Regulation_Groundwater Resources"><path codeLine="43" d="M896.66,291.73 C896.66,322.3 896.66,379.85 896.66,379.85 C896.66,379.85 757.97,379.85 657.37,379.85" fill="none" id="Regulation-to-Groundwater Resources" style="stroke:#FFFFFF;stroke-width:1.5;"/><polygon fill="#FFFFFF" points="651.37,379.85,660.37,383.85,656.37,379.85,660.37,375.85,651.37,379.85" style="stroke:#FFFFFF;stroke-width:1.5;"/></g><!--link Management to Groundwater Resources--><g class="link" data-entity-1="Management" data-entity-2="Groundwater Resources" data-source-line="44" data-uid="lnk15" id="link_Management_Groundwater Resources"><path codeLine="44" d="M214.66,291.73 C214.66,322.3 214.66,379.85 214.66,379.85 C214.66,379.85 355.07,379.85 456.3,379.85" fill="none" id="Management-to-Groundwater Resources" style="stroke:#FFFFFF;stroke-width:1.5;"/><polygon fill="#FFFFFF" points="462.3,379.85,453.3,375.85,457.3,379.85,453.3,383.85,462.3,379.85" style="stroke:#FFFFFF;stroke-width:1.5;"/></g><!--link Central Water Commission to Groundwater Resources--><g class="link" data-entity-1="Central Water Commission" data-entity-2="Groundwater Resources" data-source-line="46" data-uid="lnk16" id="link_Central Water Commission_Groundwater Resources"><path codeLine="46" d="M495.41,291.65 C495.41,311.16 495.41,335.7 495.41,355.13" fill="none" id="Central Water Commission-to-Groundwater Resources" style="stroke:#FFFFFF;stroke-width:1.5;stroke-dasharray:7.0,7.0;"/><polygon fill="#FFFFFF" points="495.41,361.13,499.41,352.13,495.41,356.13,491.41,352.13,495.41,361.13" style="stroke:#FFFFFF;stroke-width:1.5;"/></g><!--link Central Ground Water Board to Groundwater Resources--><g class="link" data-entity-1="Central Ground Water Board" data-entity-2="Groundwater Resources" data-source-line="47" data-uid="lnk17" id="link_Central Ground Water Board_Groundwater Resources"><path codeLine="47" d="M614.86,291.65 C614.86,311.16 614.86,335.7 614.86,355.13" fill="none" id="Central Ground Water Board-to-Groundwater Resources" style="stroke:#FFFFFF;stroke-width:1.5;stroke-dasharray:7.0,7.0;"/><polygon fill="#FFFFFF" points="614.86,361.13,618.86,352.13,614.86,356.13,610.86,352.13,614.86,361.13" style="stroke:#FFFFFF;stroke-width:1.5;"/></g><!--link Central Ground Water Authority to Central Water Commission--><g class="link" data-entity-1="Central Ground Water Authority" data-entity-2="Central Water Commission" data-source-line="49" data-uid="lnk18" id="link_Central Ground Water Authority_Central Water Commission"><path codeLine="49" d="M415.94,183.87 C415.94,205.51 415.94,235.51 415.94,254.62" fill="none" id="Central Ground Water Authority-Central Water Commission" style="stroke:#FFFFFF;stroke-width:1.5;"/></g><!--link Central Ground Water Authority to Central Ground Water Board--><g class="link" data-entity-1="Central Ground Water Authority" data-entity-2="Central Ground Water Board" data-source-line="50" data-uid="lnk19" id="link_Central Ground Water Authority_Central Ground Water Board"><path codeLine="50" d="M534.02,157.85 C564.44,157.85 591.11,157.85 591.11,157.85 C591.11,157.85 591.11,222.03 591.11,254.62" fill="none" id="Central Ground Water Authority-Central Ground Water Board" style="stroke:#FFFFFF;stroke-width:1.5;"/></g><!--link GMN26 to Regulation--><g class="link" data-entity-1="GMN26" data-entity-2="Regulation" data-source-line="63" data-uid="lnk28" id="link_GMN26_Regulation"><path d="M809.39,177.86 C809.39,211.32 809.39,273.85 809.39,273.85 C809.39,273.85 828.41,273.85 848.69,273.85" fill="none" id="GMN26-Regulation" style="stroke:#FFFFFF;stroke-width:1.5;stroke-dasharray:7.0,7.0;"/></g><!--SRC=[bLHDSzem4BtxL-oGGqzXyb4QaaDdW4AdXtuCP9gpiDUs1bboLtASzDTt9JD546ge3mpMldtlwMajePHfA_aYTP7OZTIr8571MgIRWaoZivbHXk3YDZmHGacDxhL6CEHA4nMqoT1Y3QEhQ964tlZ5ktYnGcj5WHCb2rsXTf3o3rA4o30NZNAF-E9wKDeud1hAaBPctuVd476ufSLYChgA_Ko8JDiLsr8wF2mzbZBTQ3ODryDHL6n9r4yoSoNSxF5jtI-CTjz4XJ1O2MqlLqWo7noOEuNP-YQDn29HmPOYCoqV7kH2MJoktkrfhJY18xh7guIf4xfGvq3YyBlaadSm4muBGwzm_G2JjNKaKWSperEidKt-zi9WhfybcUviVn2RIfqq6YOClxuVVnZ0nVXkDfzFuvxF8P2M9GYMQ4r3ATeTCfQ_UO3lL0WjVmlFkoSzOqqI2ZewU0fyauO7cgHxPRx5wDDyUdkifSFEJ5L9Qvct5xp7FpM2iXqyzdhxu1FWhLZSyxd4eb71FlVTZnVJ-t5S_YeqVqS-m5sPQPVOzTXIrZOvdVFbvSUJaPnB4pa-joNQHPASF9gtAcTrx8l4kORoyRbAzXBk0oOzyp4SzWZqJKfVupdRxXdQ_si_OixFsOgBFC0o3LSAr7nDXAYIy4goA1sO_FI7dW0il40u49R37PxVb6X1QlYYCoc62R8FJvzq8WhpJkFK-8A_WgoJhd6O0KEux4eC1hoJ8IEwmxPGx29_8-XC7VJY2GHOeNF-BgP6SN_Ers740Ot5Dpnhuvof0jK_JXZWf_Jxf-qI__dLIF8ogI3C6mNc6Sdwc7VqVm00]--></g></svg>