<svg xmlns="http://www.w3.org/2000/svg" xmlns:xlink="http://www.w3.org/1999/xlink" contentStyleType="text/css" data-diagram-type="CLASS" height="368px" preserveAspectRatio="none" style="width:958px;height:368px;background:#333333;" version="1.1" viewBox="0 0 958 368" width="958px" zoomAndPan="magnify"><defs/><g><rect fill="#333333" height="368" style="stroke:none;stroke-width:1;" width="958" x="0" y="0"/><!--entity Aliyar--><g class="entity" data-entity="Aliyar" data-source-line="23" data-uid="ent0002" id="entity_Aliyar"><rect fill="#F5DEB3" height="36.2969" rx="10" ry="10" style="stroke:#FFFFFF;stroke-width:0.5;" width="59.9766" x="420.03" y="101.13"/><text fill="#000000" font-family="Sans-Serif" font-size="14" lengthAdjust="spacing" textLength="39.9766" x="430.03" y="124.1251">Aliyar</text></g><!--entity Isapur--><g class="entity" data-entity="Isapur" data-source-line="24" data-uid="ent0003" id="entity_Isapur"><rect fill="#F5DEB3" height="36.2969" rx="10" ry="10" style="stroke:#FFFFFF;stroke-width:0.5;" width="63.5176" x="669.26" y="101.13"/><text fill="#000000" font-family="Sans-Serif" font-size="14" lengthAdjust="spacing" textLength="43.5176" x="679.26" y="124.1251">Isapur</text></g><!--entity Kangsabati--><g class="entity" data-entity="Kangsabati" data-source-line="25" data-uid="ent0004" id="entity_Kangsabati"><rect fill="#F5DEB3" height="36.2969" rx="10" ry="10" style="stroke:#FFFFFF;stroke-width:0.5;" width="98.2373" x="271.9" y="101.13"/><text fill="#000000" font-family="Sans-Serif" font-size="14" lengthAdjust="spacing" textLength="78.2373" x="281.9" y="124.1251">Kangsabati</text></g><!--entity Water Reservoirs--><g class="entity" data-entity="Water Reservoirs" data-source-line="28" data-uid="ent0005" id="entity_Water Reservoirs"><rect fill="#98FB98" height="36.2969" rx="10" ry="10" style="stroke:#FFFFFF;stroke-width:0.5;" width="140.5244" x="314.76" y="209.41"/><text fill="#000000" font-family="Sans-Serif" font-size="14" lengthAdjust="spacing" textLength="42.2803" x="324.76" y="232.4051">Water</text><text fill="#000000" font-family="Sans-Serif" font-size="14" lengthAdjust="spacing" textLength="4.4502" x="367.0403" y="232.4051">&#160;</text><text fill="#000000" font-family="Sans-Serif" font-size="14" lengthAdjust="spacing" textLength="73.7939" x="371.4905" y="232.4051">Reservoirs</text></g><!--entity Irrigation--><g class="entity" data-entity="Irrigation" data-source-line="29" data-uid="ent0006" id="entity_Irrigation"><rect fill="#98FB98" height="36.2969" rx="10" ry="10" style="stroke:#FFFFFF;stroke-width:0.5;" width="83.8135" x="418.11" y="319.68"/><text fill="#000000" font-family="Sans-Serif" font-size="14" lengthAdjust="spacing" textLength="63.8135" x="428.11" y="342.6751">Irrigation</text></g><!--entity Water Supply--><g class="entity" data-entity="Water Supply" data-source-line="30" data-uid="ent0007" id="entity_Water Supply"><rect fill="#98FB98" height="36.2969" rx="10" ry="10" style="stroke:#FFFFFF;stroke-width:0.5;" width="114.4385" x="253.8" y="319.68"/><text fill="#000000" font-family="Sans-Serif" font-size="14" lengthAdjust="spacing" textLength="42.2803" x="263.8" y="342.6751">Water</text><text fill="#000000" font-family="Sans-Serif" font-size="14" lengthAdjust="spacing" textLength="4.4502" x="306.0803" y="342.6751">&#160;</text><text fill="#000000" font-family="Sans-Serif" font-size="14" lengthAdjust="spacing" textLength="47.708" x="310.5305" y="342.6751">Supply</text></g><g class="entity" data-entity="GMN13" data-source-line="42" data-uid="ent0014" id="entity_GMN13"><path d="M342,16 L342,21.1328 A10,10 0 0 0 352,31.1328 L446.02,31.1328 L450.02,100.83 L454.02,31.1328 L548.0381,31.1328 A10,10 0 0 0 558.0381,21.1328 L558.0381,16 L548.0381,6 L352,6 A10,10 0 0 0 342,16" fill="#FFA500" style="stroke:#444444;stroke-width:0.5;"/><path d="M548.0381,6 L548.0381,11 A5,5 0 0 0 553.0381,16 L558.0381,16 L548.0381,6" fill="#FFA500" style="stroke:#444444;stroke-width:0.5;"/><text fill="#000000" font-family="Sans-Serif" font-size="13" lengthAdjust="spacing" textLength="50.5972" x="348" y="23.0669">Specific</text><text fill="#000000" font-family="Sans-Serif" font-size="13" lengthAdjust="spacing" textLength="4.1323" x="398.5972" y="23.0669">&#160;</text><text fill="#000000" font-family="Sans-Serif" font-size="13" lengthAdjust="spacing" textLength="84.5952" x="402.7295" y="23.0669">geographical</text><text fill="#000000" font-family="Sans-Serif" font-size="13" lengthAdjust="spacing" textLength="4.1323" x="487.3247" y="23.0669">&#160;</text><text fill="#000000" font-family="Sans-Serif" font-size="13" lengthAdjust="spacing" textLength="51.5811" x="491.457" y="23.0669">location</text></g><g class="entity" data-entity="GMN16" data-source-line="46" data-uid="ent0017" id="entity_GMN16"><path d="M505.19,217.43 L505.19,223.96 L455.73,227.96 L505.19,231.96 L505.19,237.6956 A10,10 0 0 0 515.19,247.6956 L670.8506,247.6956 A10,10 0 0 0 680.8506,237.6956 L680.8506,217.43 L670.8506,207.43 L515.19,207.43 A10,10 0 0 0 505.19,217.43" fill="#FFA500" style="stroke:#444444;stroke-width:0.5;"/><path d="M670.8506,207.43 L670.8506,212.43 A5,5 0 0 0 675.8506,217.43 L680.8506,217.43 L670.8506,207.43" fill="#FFA500" style="stroke:#444444;stroke-width:0.5;"/><text fill="#000000" font-family="Sans-Serif" font-size="13" lengthAdjust="spacing" textLength="53.4727" x="511.19" y="224.4969">Artificial</text><text fill="#000000" font-family="Sans-Serif" font-size="13" lengthAdjust="spacing" textLength="4.1323" x="564.6627" y="224.4969">&#160;</text><text fill="#000000" font-family="Sans-Serif" font-size="13" lengthAdjust="spacing" textLength="33.8774" x="568.795" y="224.4969">lakes</text><text fill="#000000" font-family="Sans-Serif" font-size="13" lengthAdjust="spacing" textLength="4.1323" x="602.6724" y="224.4969">&#160;</text><text fill="#000000" font-family="Sans-Serif" font-size="13" lengthAdjust="spacing" textLength="17.875" x="606.8047" y="224.4969">for</text><text fill="#000000" font-family="Sans-Serif" font-size="13" lengthAdjust="spacing" textLength="4.1323" x="624.6797" y="224.4969">&#160;</text><text fill="#000000" font-family="Sans-Serif" font-size="13" lengthAdjust="spacing" textLength="37.0386" x="628.8121" y="224.4969">water</text><text fill="#000000" font-family="Sans-Serif" font-size="13" lengthAdjust="spacing" textLength="49.3848" x="514.3099" y="239.6297">storage</text><text fill="#000000" font-family="Sans-Serif" font-size="13" lengthAdjust="spacing" textLength="4.1323" x="563.6946" y="239.6297">&#160;</text><text fill="#000000" font-family="Sans-Serif" font-size="13" lengthAdjust="spacing" textLength="24.4575" x="567.827" y="239.6297">and</text><text fill="#000000" font-family="Sans-Serif" font-size="13" lengthAdjust="spacing" textLength="4.1323" x="592.2845" y="239.6297">&#160;</text><text fill="#000000" font-family="Sans-Serif" font-size="13" lengthAdjust="spacing" textLength="66.314" x="596.4168" y="239.6297">regulation</text></g><g class="entity" data-entity="GMN19" data-source-line="51" data-uid="ent0020" id="entity_GMN19"><path d="M731,225 L731,230.1328 A10,10 0 0 0 741,240.1328 L937.0381,240.1328 A10,10 0 0 0 947.0381,230.1328 L947.0381,225 L937.0381,215 L741,215 A10,10 0 0 0 731,225" fill="#FFA500" style="stroke:#444444;stroke-width:0.5;"/><path d="M937.0381,215 L937.0381,220 A5,5 0 0 0 942.0381,225 L947.0381,225 L937.0381,215" fill="#FFA500" style="stroke:#444444;stroke-width:1;"/><text fill="#000000" font-family="Sans-Serif" font-size="13" lengthAdjust="spacing" textLength="50.5972" x="737" y="232.0669">Specific</text><text fill="#000000" font-family="Sans-Serif" font-size="13" lengthAdjust="spacing" textLength="4.1323" x="787.5972" y="232.0669">&#160;</text><text fill="#000000" font-family="Sans-Serif" font-size="13" lengthAdjust="spacing" textLength="84.5952" x="791.7295" y="232.0669">geographical</text><text fill="#000000" font-family="Sans-Serif" font-size="13" lengthAdjust="spacing" textLength="4.1323" x="876.3247" y="232.0669">&#160;</text><text fill="#000000" font-family="Sans-Serif" font-size="13" lengthAdjust="spacing" textLength="51.5811" x="880.457" y="232.0669">location</text></g><g class="entity" data-entity="GMN22" data-source-line="55" data-uid="ent0023" id="entity_GMN22"><path d="M552.04,327.69 L552.04,333.96 L502.22,337.96 L552.04,341.96 L552.04,347.9556 A10,10 0 0 0 562.04,357.9556 L717.999,357.9556 A10,10 0 0 0 727.999,347.9556 L727.999,327.69 L717.999,317.69 L562.04,317.69 A10,10 0 0 0 552.04,327.69" fill="#FFA500" style="stroke:#444444;stroke-width:0.5;"/><path d="M717.999,317.69 L717.999,322.69 A5,5 0 0 0 722.999,327.69 L727.999,327.69 L717.999,317.69" fill="#FFA500" style="stroke:#444444;stroke-width:0.5;"/><text fill="#000000" font-family="Sans-Serif" font-size="13" lengthAdjust="spacing" textLength="64.4033" x="558.04" y="334.7569">Supplying</text><text fill="#000000" font-family="Sans-Serif" font-size="13" lengthAdjust="spacing" textLength="4.1323" x="622.4433" y="334.7569">&#160;</text><text fill="#000000" font-family="Sans-Serif" font-size="13" lengthAdjust="spacing" textLength="37.0386" x="626.5756" y="334.7569">water</text><text fill="#000000" font-family="Sans-Serif" font-size="13" lengthAdjust="spacing" textLength="4.1323" x="663.6142" y="334.7569">&#160;</text><text fill="#000000" font-family="Sans-Serif" font-size="13" lengthAdjust="spacing" textLength="13.0508" x="667.7465" y="334.7569">to</text><text fill="#000000" font-family="Sans-Serif" font-size="13" lengthAdjust="spacing" textLength="4.1323" x="680.7973" y="334.7569">&#160;</text><text fill="#000000" font-family="Sans-Serif" font-size="13" lengthAdjust="spacing" textLength="28.0693" x="684.9296" y="334.7569">land</text><text fill="#000000" font-family="Sans-Serif" font-size="13" lengthAdjust="spacing" textLength="13.2983" x="609.0688" y="349.8897">or</text><text fill="#000000" font-family="Sans-Serif" font-size="13" lengthAdjust="spacing" textLength="4.1323" x="622.3671" y="349.8897">&#160;</text><text fill="#000000" font-family="Sans-Serif" font-size="13" lengthAdjust="spacing" textLength="35.4707" x="626.4995" y="349.8897">crops</text></g><g class="entity" data-entity="GMN25" data-source-line="60" data-uid="ent0026" id="entity_GMN25"><path d="M6,116.71 L6,121.8428 A10,10 0 0 0 16,131.8428 L212.0381,131.8428 A10,10 0 0 0 222.0381,121.8428 L222.0381,124.71 L271.57,119.96 L222.0381,116.71 L222.0381,116.71 L212.0381,106.71 L16,106.71 A10,10 0 0 0 6,116.71" fill="#FFA500" style="stroke:#444444;stroke-width:0.5;"/><path d="M212.0381,106.71 L212.0381,111.71 A5,5 0 0 0 217.0381,116.71 L222.0381,116.71 L212.0381,106.71" fill="#FFA500" style="stroke:#444444;stroke-width:0.5;"/><text fill="#000000" font-family="Sans-Serif" font-size="13" lengthAdjust="spacing" textLength="50.5972" x="12" y="123.7769">Specific</text><text fill="#000000" font-family="Sans-Serif" font-size="13" lengthAdjust="spacing" textLength="4.1323" x="62.5972" y="123.7769">&#160;</text><text fill="#000000" font-family="Sans-Serif" font-size="13" lengthAdjust="spacing" textLength="84.5952" x="66.7295" y="123.7769">geographical</text><text fill="#000000" font-family="Sans-Serif" font-size="13" lengthAdjust="spacing" textLength="4.1323" x="151.3247" y="123.7769">&#160;</text><text fill="#000000" font-family="Sans-Serif" font-size="13" lengthAdjust="spacing" textLength="51.5811" x="155.457" y="123.7769">location</text></g><g class="entity" data-entity="GMN28" data-source-line="64" data-uid="ent0029" id="entity_GMN28"><path d="M48.5,327.69 L48.5,347.9556 A10,10 0 0 0 58.5,357.9556 L193.5371,357.9556 A10,10 0 0 0 203.5371,347.9556 L203.5371,341.96 L253.43,337.96 L203.5371,333.96 L203.5371,327.69 L193.5371,317.69 L58.5,317.69 A10,10 0 0 0 48.5,327.69" fill="#FFA500" style="stroke:#444444;stroke-width:0.5;"/><path d="M193.5371,317.69 L193.5371,322.69 A5,5 0 0 0 198.5371,327.69 L203.5371,327.69 L193.5371,317.69" fill="#FFA500" style="stroke:#444444;stroke-width:0.5;"/><text fill="#000000" font-family="Sans-Serif" font-size="13" lengthAdjust="spacing" textLength="59.0205" x="54.5" y="334.7569">Provision</text><text fill="#000000" font-family="Sans-Serif" font-size="13" lengthAdjust="spacing" textLength="4.1323" x="113.5205" y="334.7569">&#160;</text><text fill="#000000" font-family="Sans-Serif" font-size="13" lengthAdjust="spacing" textLength="12.5303" x="117.6528" y="334.7569">of</text><text fill="#000000" font-family="Sans-Serif" font-size="13" lengthAdjust="spacing" textLength="4.1323" x="130.1831" y="334.7569">&#160;</text><text fill="#000000" font-family="Sans-Serif" font-size="13" lengthAdjust="spacing" textLength="37.0386" x="134.3154" y="334.7569">water</text><text fill="#000000" font-family="Sans-Serif" font-size="13" lengthAdjust="spacing" textLength="4.1323" x="171.354" y="334.7569">&#160;</text><text fill="#000000" font-family="Sans-Serif" font-size="13" lengthAdjust="spacing" textLength="13.0508" x="175.4863" y="334.7569">to</text><text fill="#000000" font-family="Sans-Serif" font-size="13" lengthAdjust="spacing" textLength="47.582" x="78.0974" y="349.8897">various</text><text fill="#000000" font-family="Sans-Serif" font-size="13" lengthAdjust="spacing" textLength="4.1323" x="125.6794" y="349.8897">&#160;</text><text fill="#000000" font-family="Sans-Serif" font-size="13" lengthAdjust="spacing" textLength="35.1279" x="129.8118" y="349.8897">users</text></g><!--reverse link Aliyar to Water Reservoirs--><g class="link" data-entity-1="Aliyar" data-entity-2="Water Reservoirs" data-source-line="33" data-uid="lnk8" id="link_Aliyar_Water Reservoirs"><path codeLine="33" d="M431.78,149.65 C431.78,169.56 431.78,189.16 431.78,209.1" fill="none" id="Aliyar-backto-Water Reservoirs" style="stroke:#FFFFFF;stroke-width:1.5;"/><polygon fill="none" points="431.78,137.65,427.78,143.65,431.78,149.65,435.78,143.65,431.78,137.65" style="stroke:#FFFFFF;stroke-width:1.5;"/></g><!--reverse link Isapur to Water Reservoirs--><g class="link" data-entity-1="Isapur" data-entity-2="Water Reservoirs" data-source-line="34" data-uid="lnk9" id="link_Isapur_Water Reservoirs"><path codeLine="34" d="M675.05,149.75 C675.05,165.28 675.05,172.96 675.05,172.96 C675.05,172.96 443.53,172.96 443.53,172.96 C443.53,172.96 443.53,193.24 443.53,209.08" fill="none" id="Isapur-backto-Water Reservoirs" style="stroke:#FFFFFF;stroke-width:1.5;"/><polygon fill="none" points="675.05,137.75,671.05,143.75,675.05,149.75,679.05,143.75,675.05,137.75" style="stroke:#FFFFFF;stroke-width:1.5;"/></g><!--reverse link Kangsabati to Water Reservoirs--><g class="link" data-entity-1="Kangsabati" data-entity-2="Water Reservoirs" data-source-line="35" data-uid="lnk10" id="link_Kangsabati_Water Reservoirs"><path codeLine="35" d="M342.45,149.65 C342.45,169.56 342.45,189.16 342.45,209.1" fill="none" id="Kangsabati-backto-Water Reservoirs" style="stroke:#FFFFFF;stroke-width:1.5;"/><polygon fill="none" points="342.45,137.65,338.45,143.65,342.45,149.65,346.45,143.65,342.45,137.65" style="stroke:#FFFFFF;stroke-width:1.5;"/></g><!--link Water Reservoirs to Irrigation--><g class="link" data-entity-1="Water Reservoirs" data-entity-2="Irrigation" data-source-line="37" data-uid="lnk11" id="link_Water Reservoirs_Irrigation"><path codeLine="37" d="M436.7,245.77 C436.7,266.08 436.7,292.76 436.7,313.22" fill="none" id="Water Reservoirs-to-Irrigation" style="stroke:#FFFFFF;stroke-width:1.5;"/><polygon fill="#FFFFFF" points="436.7,319.22,440.7,310.22,436.7,314.22,432.7,310.22,436.7,319.22" style="stroke:#FFFFFF;stroke-width:1.5;"/></g><!--link Water Reservoirs to Water Supply--><g class="link" data-entity-1="Water Reservoirs" data-entity-2="Water Supply" data-source-line="38" data-uid="lnk12" id="link_Water Reservoirs_Water Supply"><path codeLine="38" d="M341.5,245.77 C341.5,266.08 341.5,292.76 341.5,313.22" fill="none" id="Water Reservoirs-to-Water Supply" style="stroke:#FFFFFF;stroke-width:1.5;"/><polygon fill="#FFFFFF" points="341.5,319.22,345.5,310.22,341.5,314.22,337.5,310.22,341.5,319.22" style="stroke:#FFFFFF;stroke-width:1.5;"/></g><!--link Isapur to GMN19--><g class="link" data-entity-1="Isapur" data-entity-2="GMN19" data-source-line="51" data-uid="lnk21" id="link_Isapur_GMN19"><path d="M704.42,137.72 C704.42,168.72 704.42,227.96 704.42,227.96 C704.42,227.96 715.22,227.96 730.69,227.96" fill="none" id="Isapur-GMN19" style="stroke:#FFFFFF;stroke-width:1.5;stroke-dasharray:7.0,7.0;"/></g><!--SRC=[fLFBRjj03BphAmZtq9EBjAdHf8S2Tbe3HHyeuW0vqn8bBRnU2joL7VzzgKVibIltWUhWnyveEEHmqLhURysJSKNYDyPLABY5DQQRGhXssHrR5dXntJuHmnf7uL0Hi8II8y1nHfugc5r5Xu9kqno-Ym-tv3qMDBUcS5jo0LBz88aO6ULOs_10J-4tBCU15YmPIM_sRVkSCyvRMYxdiwlOpro4znsuBqsWS-YXDEd6gMbu_MeMWNl1wj5aeOGt0xtU_P9T-8vRWiaAdP-kI4m-EJFt9qxlMno95ea0NsB6UmqFShIUngjtFQsjJc2axZWgb0PqXVqRIZpyRdB9IxZ3G0NBuJryvHI3OUUJunimqJmFA1EDOVRnq-8wXZvxhEfnw8j-Uroht0aUr7hKNmBVqEbYjTloGpZLo6XGl6FTwvxAZeru5RkzMIvkRmOsH4pH6X-5EurLNLNsS2AecNkoNRkbgNnoR9Idqv72oR7RItZSyWLECjBGTFfXqC95pg2FnlygI3DEaxOR0fMcteuoQVy6he3pOtu9mAgYrEHABuWBlGfwIz22xKDFo6MjKDAzhuRAq2hysWVeFGkDb6a4S4CUycQb6gA2Fh1eh82gA5JKThJ0caFWRLkX7-r_U8m72FsGcilMMj9Pg4kNAQ8kKs6D-qp9Kju9HId-ivsZo30gQ7PxPxo-qQ3FblHyXsAuzb3hQ4-MVW80]--></g></svg>