<svg xmlns="http://www.w3.org/2000/svg" xmlns:xlink="http://www.w3.org/1999/xlink" contentStyleType="text/css" data-diagram-type="CLASS" height="418px" preserveAspectRatio="none" style="width:1540px;height:418px;background:#333333;" version="1.1" viewBox="0 0 1540 418" width="1540px" zoomAndPan="magnify"><defs/><g><rect fill="#333333" height="418" style="stroke:none;stroke-width:1;" width="1540" x="0" y="0"/><!--entity Free Trade Agreement--><g class="entity" data-entity="Free Trade Agreement" data-source-line="23" data-uid="ent0002" id="entity_Free Trade Agreement"><rect fill="#87CEEB" height="36.2969" rx="10" ry="10" style="stroke:#FFFFFF;stroke-width:0.5;" width="178.3818" x="237.47" y="125.82"/><text fill="#000000" font-family="Sans-Serif" font-size="14" lengthAdjust="spacing" textLength="31.0352" x="247.47" y="148.8151">Free</text><text fill="#000000" font-family="Sans-Serif" font-size="14" lengthAdjust="spacing" textLength="4.4502" x="278.5052" y="148.8151">&#160;</text><text fill="#000000" font-family="Sans-Serif" font-size="14" lengthAdjust="spacing" textLength="40.3867" x="282.9554" y="148.8151">Trade</text><text fill="#000000" font-family="Sans-Serif" font-size="14" lengthAdjust="spacing" textLength="4.4502" x="323.3421" y="148.8151">&#160;</text><text fill="#000000" font-family="Sans-Serif" font-size="14" lengthAdjust="spacing" textLength="78.0596" x="327.7923" y="148.8151">Agreement</text></g><!--entity Member Nations--><g class="entity" data-entity="Member Nations" data-source-line="24" data-uid="ent0003" id="entity_Member Nations"><rect fill="#F5DEB3" height="36.2969" rx="10" ry="10" style="stroke:#FFFFFF;stroke-width:0.5;" width="135.1992" x="259.06" y="7.99"/><text fill="#000000" font-family="Sans-Serif" font-size="14" lengthAdjust="spacing" textLength="57.5859" x="269.06" y="30.9851">Member</text><text fill="#000000" font-family="Sans-Serif" font-size="14" lengthAdjust="spacing" textLength="4.4502" x="326.6459" y="30.9851">&#160;</text><text fill="#000000" font-family="Sans-Serif" font-size="14" lengthAdjust="spacing" textLength="53.1631" x="331.0961" y="30.9851">Nations</text></g><!--entity Tariff Reduction--><g class="entity" data-entity="Tariff Reduction" data-source-line="25" data-uid="ent0004" id="entity_Tariff Reduction"><rect fill="#98FB98" height="36.2969" rx="10" ry="10" style="stroke:#FFFFFF;stroke-width:0.5;" width="131.6992" x="331.81" y="251.22"/><text fill="#000000" font-family="Sans-Serif" font-size="14" lengthAdjust="spacing" textLength="36.6338" x="341.81" y="274.2151">Tariff</text><text fill="#000000" font-family="Sans-Serif" font-size="14" lengthAdjust="spacing" textLength="4.4502" x="378.4438" y="274.2151">&#160;</text><text fill="#000000" font-family="Sans-Serif" font-size="14" lengthAdjust="spacing" textLength="70.6152" x="382.894" y="274.2151">Reduction</text></g><!--entity International Trade--><g class="entity" data-entity="International Trade" data-source-line="26" data-uid="ent0005" id="entity_International Trade"><rect fill="#98FB98" height="36.2969" rx="10" ry="10" style="stroke:#FFFFFF;stroke-width:0.5;" width="154.4355" x="132.44" y="369.05"/><text fill="#000000" font-family="Sans-Serif" font-size="14" lengthAdjust="spacing" textLength="89.5986" x="142.44" y="392.0451">International</text><text fill="#000000" font-family="Sans-Serif" font-size="14" lengthAdjust="spacing" textLength="4.4502" x="232.0386" y="392.0451">&#160;</text><text fill="#000000" font-family="Sans-Serif" font-size="14" lengthAdjust="spacing" textLength="40.3867" x="236.4888" y="392.0451">Trade</text></g><!--entity Common Currency--><g class="entity" data-entity="Common Currency" data-source-line="29" data-uid="ent0006" id="entity_Common Currency"><rect fill="#87CEEB" height="36.2969" rx="10" ry="10" style="stroke:#FFFFFF;stroke-width:0.5;" width="151.1338" x="444.09" y="7.99"/><text fill="#000000" font-family="Sans-Serif" font-size="14" lengthAdjust="spacing" textLength="63.0547" x="454.09" y="30.9851">Common</text><text fill="#000000" font-family="Sans-Serif" font-size="14" lengthAdjust="spacing" textLength="4.4502" x="517.1447" y="30.9851">&#160;</text><text fill="#000000" font-family="Sans-Serif" font-size="14" lengthAdjust="spacing" textLength="63.6289" x="521.5949" y="30.9851">Currency</text></g><!--entity Immigration Policy--><g class="entity" data-entity="Immigration Policy" data-source-line="30" data-uid="ent0007" id="entity_Immigration Policy"><rect fill="#87CEEB" height="36.2969" rx="10" ry="10" style="stroke:#FFFFFF;stroke-width:0.5;" width="150.5527" x="1139.38" y="7.99"/><text fill="#000000" font-family="Sans-Serif" font-size="14" lengthAdjust="spacing" textLength="85.333" x="1149.38" y="30.9851">Immigration</text><text fill="#000000" font-family="Sans-Serif" font-size="14" lengthAdjust="spacing" textLength="4.4502" x="1234.713" y="30.9851">&#160;</text><text fill="#000000" font-family="Sans-Serif" font-size="14" lengthAdjust="spacing" textLength="40.7695" x="1239.1632" y="30.9851">Policy</text></g><!--entity Military Alliance--><g class="entity" data-entity="Military Alliance" data-source-line="31" data-uid="ent0008" id="entity_Military Alliance"><rect fill="#87CEEB" height="36.2969" rx="10" ry="10" style="stroke:#FFFFFF;stroke-width:0.5;" width="131.3164" x="1369" y="125.82"/><text fill="#000000" font-family="Sans-Serif" font-size="14" lengthAdjust="spacing" textLength="51.8574" x="1379" y="148.8151">Military</text><text fill="#000000" font-family="Sans-Serif" font-size="14" lengthAdjust="spacing" textLength="4.4502" x="1430.8574" y="148.8151">&#160;</text><text fill="#000000" font-family="Sans-Serif" font-size="14" lengthAdjust="spacing" textLength="55.0088" x="1435.3076" y="148.8151">Alliance</text></g><g class="entity" data-entity="GMN13" data-source-line="41" data-uid="ent0014" id="entity_GMN13"><path d="M466.3,126.27 L466.3,140.33 L416.12,144.33 L466.3,148.33 L466.3,161.6684 A10,10 0 0 0 476.3,171.6684 L633.0207,171.6684 A10,10 0 0 0 643.0207,161.6684 L643.0207,126.27 L633.0207,116.27 L476.3,116.27 A10,10 0 0 0 466.3,126.27" fill="#FFA500" style="stroke:#444444;stroke-width:0.5;"/><path d="M633.0207,116.27 L633.0207,121.27 A5,5 0 0 0 638.0207,126.27 L643.0207,126.27 L633.0207,116.27" fill="#FFA500" style="stroke:#444444;stroke-width:0.5;"/><text fill="#000000" font-family="Sans-Serif" font-size="13" lengthAdjust="spacing" textLength="17.1323" x="473.5759" y="133.3369">An</text><text fill="#000000" font-family="Sans-Serif" font-size="13" lengthAdjust="spacing" textLength="4.1323" x="490.7082" y="133.3369">&#160;</text><text fill="#000000" font-family="Sans-Serif" font-size="13" lengthAdjust="spacing" textLength="71.5571" x="494.8405" y="133.3369">agreement</text><text fill="#000000" font-family="Sans-Serif" font-size="13" lengthAdjust="spacing" textLength="4.1323" x="566.3977" y="133.3369">&#160;</text><text fill="#000000" font-family="Sans-Serif" font-size="13" lengthAdjust="spacing" textLength="56.2148" x="570.53" y="133.3369">between</text><text fill="#000000" font-family="Sans-Serif" font-size="13" lengthAdjust="spacing" textLength="47.8804" x="526.2202" y="148.4697">nations</text><text fill="#000000" font-family="Sans-Serif" font-size="13" lengthAdjust="spacing" textLength="13.0508" x="472.3" y="163.6025">to</text><text fill="#000000" font-family="Sans-Serif" font-size="13" lengthAdjust="spacing" textLength="4.1323" x="485.3508" y="163.6025">&#160;</text><text fill="#000000" font-family="Sans-Serif" font-size="13" lengthAdjust="spacing" textLength="44.9795" x="489.4831" y="163.6025">reduce</text><text fill="#000000" font-family="Sans-Serif" font-size="13" lengthAdjust="spacing" textLength="4.1323" x="534.4626" y="163.6025">&#160;</text><text fill="#000000" font-family="Sans-Serif" font-size="13" lengthAdjust="spacing" textLength="34.6582" x="538.5949" y="163.6025">trade</text><text fill="#000000" font-family="Sans-Serif" font-size="13" lengthAdjust="spacing" textLength="4.1323" x="573.2531" y="163.6025">&#160;</text><text fill="#000000" font-family="Sans-Serif" font-size="13" lengthAdjust="spacing" textLength="50.6353" x="577.3854" y="163.6025">barriers</text></g><g class="entity" data-entity="GMN16" data-source-line="46" data-uid="ent0017" id="entity_GMN16"><path d="M22.71,16 L22.71,36.2656 A10,10 0 0 0 32.71,46.2656 L198.6094,46.2656 A10,10 0 0 0 208.6094,36.2656 L208.6094,30.33 L258.7,26.33 L208.6094,22.33 L208.6094,16 L198.6094,6 L32.71,6 A10,10 0 0 0 22.71,16" fill="#FFA500" style="stroke:#444444;stroke-width:0.5;"/><path d="M198.6094,6 L198.6094,11 A5,5 0 0 0 203.6094,16 L208.6094,16 L198.6094,6" fill="#FFA500" style="stroke:#444444;stroke-width:0.5;"/><text fill="#000000" font-family="Sans-Serif" font-size="13" lengthAdjust="spacing" textLength="62.334" x="28.71" y="23.0669">Countries</text><text fill="#000000" font-family="Sans-Serif" font-size="13" lengthAdjust="spacing" textLength="4.1323" x="91.044" y="23.0669">&#160;</text><text fill="#000000" font-family="Sans-Serif" font-size="13" lengthAdjust="spacing" textLength="82.4497" x="95.1763" y="23.0669">participating</text><text fill="#000000" font-family="Sans-Serif" font-size="13" lengthAdjust="spacing" textLength="4.1323" x="177.626" y="23.0669">&#160;</text><text fill="#000000" font-family="Sans-Serif" font-size="13" lengthAdjust="spacing" textLength="11.8511" x="181.7583" y="23.0669">in</text><text fill="#000000" font-family="Sans-Serif" font-size="13" lengthAdjust="spacing" textLength="21.3345" x="41.6433" y="38.1997">the</text><text fill="#000000" font-family="Sans-Serif" font-size="13" lengthAdjust="spacing" textLength="4.1323" x="62.9778" y="38.1997">&#160;</text><text fill="#000000" font-family="Sans-Serif" font-size="13" lengthAdjust="spacing" textLength="71.5571" x="67.1101" y="38.1997">agreement</text><text fill="#000000" font-family="Sans-Serif" font-size="13" lengthAdjust="spacing" textLength="4.1323" x="138.6673" y="38.1997">&#160;</text><text fill="#000000" font-family="Sans-Serif" font-size="13" lengthAdjust="spacing" textLength="37.8765" x="142.7996" y="38.1997">terms</text></g><g class="entity" data-entity="GMN19" data-source-line="51" data-uid="ent0020" id="entity_GMN19"><path d="M336.96,377.06 L336.96,397.3256 A10,10 0 0 0 346.96,407.3256 L538.3516,407.3256 A10,10 0 0 0 548.3516,397.3256 L548.3516,377.06 L538.3516,367.06 L404.24,367.06 L400.24,287.78 L396.24,367.06 L346.96,367.06 A10,10 0 0 0 336.96,377.06" fill="#FFA500" style="stroke:#444444;stroke-width:0.5;"/><path d="M538.3516,367.06 L538.3516,372.06 A5,5 0 0 0 543.3516,377.06 L548.3516,377.06 L538.3516,367.06" fill="#FFA500" style="stroke:#444444;stroke-width:0.5;"/><text fill="#000000" font-family="Sans-Serif" font-size="13" lengthAdjust="spacing" textLength="59.2744" x="342.96" y="384.1269">Lowering</text><text fill="#000000" font-family="Sans-Serif" font-size="13" lengthAdjust="spacing" textLength="4.1323" x="402.2344" y="384.1269">&#160;</text><text fill="#000000" font-family="Sans-Serif" font-size="13" lengthAdjust="spacing" textLength="13.2983" x="406.3667" y="384.1269">or</text><text fill="#000000" font-family="Sans-Serif" font-size="13" lengthAdjust="spacing" textLength="4.1323" x="419.6651" y="384.1269">&#160;</text><text fill="#000000" font-family="Sans-Serif" font-size="13" lengthAdjust="spacing" textLength="53.2314" x="423.7974" y="384.1269">removal</text><text fill="#000000" font-family="Sans-Serif" font-size="13" lengthAdjust="spacing" textLength="4.1323" x="477.0288" y="384.1269">&#160;</text><text fill="#000000" font-family="Sans-Serif" font-size="13" lengthAdjust="spacing" textLength="12.5303" x="481.1612" y="384.1269">of</text><text fill="#000000" font-family="Sans-Serif" font-size="13" lengthAdjust="spacing" textLength="4.1323" x="493.6914" y="384.1269">&#160;</text><text fill="#000000" font-family="Sans-Serif" font-size="13" lengthAdjust="spacing" textLength="35.5278" x="497.8238" y="384.1269">taxes</text><text fill="#000000" font-family="Sans-Serif" font-size="13" lengthAdjust="spacing" textLength="16.1929" x="376.7486" y="399.2597">on</text><text fill="#000000" font-family="Sans-Serif" font-size="13" lengthAdjust="spacing" textLength="4.1323" x="392.9414" y="399.2597">&#160;</text><text fill="#000000" font-family="Sans-Serif" font-size="13" lengthAdjust="spacing" textLength="59.1729" x="397.0738" y="399.2597">imported</text><text fill="#000000" font-family="Sans-Serif" font-size="13" lengthAdjust="spacing" textLength="4.1323" x="456.2466" y="399.2597">&#160;</text><text fill="#000000" font-family="Sans-Serif" font-size="13" lengthAdjust="spacing" textLength="39.1841" x="460.3789" y="399.2597">goods</text></g><g class="entity" data-entity="GMN22" data-source-line="56" data-uid="ent0023" id="entity_GMN22"><path d="M6,251.67 L6,287.0684 A10,10 0 0 0 16,297.0684 L151.88,297.0684 L155.88,368.65 L159.88,297.0684 L169.3184,297.0684 A10,10 0 0 0 179.3184,287.0684 L179.3184,251.67 L169.3184,241.67 L16,241.67 A10,10 0 0 0 6,251.67" fill="#FFA500" style="stroke:#444444;stroke-width:0.5;"/><path d="M169.3184,241.67 L169.3184,246.67 A5,5 0 0 0 174.3184,251.67 L179.3184,251.67 L169.3184,241.67" fill="#FFA500" style="stroke:#444444;stroke-width:0.5;"/><text fill="#000000" font-family="Sans-Serif" font-size="13" lengthAdjust="spacing" textLength="63.7495" x="12" y="258.7369">Exchange</text><text fill="#000000" font-family="Sans-Serif" font-size="13" lengthAdjust="spacing" textLength="4.1323" x="75.7495" y="258.7369">&#160;</text><text fill="#000000" font-family="Sans-Serif" font-size="13" lengthAdjust="spacing" textLength="12.5303" x="79.8818" y="258.7369">of</text><text fill="#000000" font-family="Sans-Serif" font-size="13" lengthAdjust="spacing" textLength="4.1323" x="92.4121" y="258.7369">&#160;</text><text fill="#000000" font-family="Sans-Serif" font-size="13" lengthAdjust="spacing" textLength="39.1841" x="96.5444" y="258.7369">goods</text><text fill="#000000" font-family="Sans-Serif" font-size="13" lengthAdjust="spacing" textLength="4.1323" x="135.7285" y="258.7369">&#160;</text><text fill="#000000" font-family="Sans-Serif" font-size="13" lengthAdjust="spacing" textLength="24.4575" x="139.8608" y="258.7369">and</text><text fill="#000000" font-family="Sans-Serif" font-size="13" lengthAdjust="spacing" textLength="53.3394" x="61.4895" y="273.8697">services</text><text fill="#000000" font-family="Sans-Serif" font-size="13" lengthAdjust="spacing" textLength="41.958" x="40.155" y="289.0025">across</text><text fill="#000000" font-family="Sans-Serif" font-size="13" lengthAdjust="spacing" textLength="4.1323" x="82.113" y="289.0025">&#160;</text><text fill="#000000" font-family="Sans-Serif" font-size="13" lengthAdjust="spacing" textLength="49.918" x="86.2454" y="289.0025">borders</text></g><g class="entity" data-entity="GMN25" data-source-line="61" data-uid="ent0026" id="entity_GMN25"><path d="M645.06,16 L645.06,22.33 L595.54,26.33 L645.06,30.33 L645.06,36.2656 A10,10 0 0 0 655.06,46.2656 L836.2509,46.2656 A10,10 0 0 0 846.2509,36.2656 L846.2509,16 L836.2509,6 L655.06,6 A10,10 0 0 0 645.06,16" fill="#FFA500" style="stroke:#444444;stroke-width:0.5;"/><path d="M836.2509,6 L836.2509,11 A5,5 0 0 0 841.2509,16 L846.2509,16 L836.2509,6" fill="#FFA500" style="stroke:#444444;stroke-width:0.5;"/><text fill="#000000" font-family="Sans-Serif" font-size="13" lengthAdjust="spacing" textLength="49.5879" x="663.676" y="23.0669">Distinct</text><text fill="#000000" font-family="Sans-Serif" font-size="13" lengthAdjust="spacing" textLength="4.1323" x="713.2639" y="23.0669">&#160;</text><text fill="#000000" font-family="Sans-Serif" font-size="13" lengthAdjust="spacing" textLength="30.5386" x="717.3962" y="23.0669">from</text><text fill="#000000" font-family="Sans-Serif" font-size="13" lengthAdjust="spacing" textLength="4.1323" x="747.9348" y="23.0669">&#160;</text><text fill="#000000" font-family="Sans-Serif" font-size="13" lengthAdjust="spacing" textLength="24.3115" x="752.0671" y="23.0669">FTA</text><text fill="#000000" font-family="Sans-Serif" font-size="13" lengthAdjust="spacing" textLength="4.1323" x="776.3786" y="23.0669">&#160;</text><text fill="#000000" font-family="Sans-Serif" font-size="13" lengthAdjust="spacing" textLength="38.124" x="780.5109" y="23.0669">scope</text><text fill="#000000" font-family="Sans-Serif" font-size="13" lengthAdjust="spacing" textLength="52.3618" x="651.06" y="38.1997">Focuses</text><text fill="#000000" font-family="Sans-Serif" font-size="13" lengthAdjust="spacing" textLength="4.1323" x="703.4218" y="38.1997">&#160;</text><text fill="#000000" font-family="Sans-Serif" font-size="13" lengthAdjust="spacing" textLength="16.1929" x="707.5541" y="38.1997">on</text><text fill="#000000" font-family="Sans-Serif" font-size="13" lengthAdjust="spacing" textLength="4.1323" x="723.747" y="38.1997">&#160;</text><text fill="#000000" font-family="Sans-Serif" font-size="13" lengthAdjust="spacing" textLength="62.9561" x="727.8793" y="38.1997">monetary</text><text fill="#000000" font-family="Sans-Serif" font-size="13" lengthAdjust="spacing" textLength="4.1323" x="790.8354" y="38.1997">&#160;</text><text fill="#000000" font-family="Sans-Serif" font-size="13" lengthAdjust="spacing" textLength="36.2832" x="794.9677" y="38.1997">union</text></g><g class="entity" data-entity="GMN28" data-source-line="66" data-uid="ent0029" id="entity_GMN28"><path d="M895.96,16 L895.96,36.2656 A10,10 0 0 0 905.96,46.2656 L1079.3496,46.2656 A10,10 0 0 0 1089.3496,36.2656 L1089.3496,30.33 L1139.17,26.33 L1089.3496,22.33 L1089.3496,16 L1079.3496,6 L905.96,6 A10,10 0 0 0 895.96,16" fill="#FFA500" style="stroke:#444444;stroke-width:0.5;"/><path d="M1079.3496,6 L1079.3496,11 A5,5 0 0 0 1084.3496,16 L1089.3496,16 L1079.3496,6" fill="#FFA500" style="stroke:#444444;stroke-width:0.5;"/><text fill="#000000" font-family="Sans-Serif" font-size="13" lengthAdjust="spacing" textLength="57.4526" x="901.96" y="23.0669">Different</text><text fill="#000000" font-family="Sans-Serif" font-size="13" lengthAdjust="spacing" textLength="4.1323" x="959.4126" y="23.0669">&#160;</text><text fill="#000000" font-family="Sans-Serif" font-size="13" lengthAdjust="spacing" textLength="48.6865" x="963.545" y="23.0669">domain</text><text fill="#000000" font-family="Sans-Serif" font-size="13" lengthAdjust="spacing" textLength="4.1323" x="1012.2315" y="23.0669">&#160;</text><text fill="#000000" font-family="Sans-Serif" font-size="13" lengthAdjust="spacing" textLength="29.542" x="1016.3638" y="23.0669">than</text><text fill="#000000" font-family="Sans-Serif" font-size="13" lengthAdjust="spacing" textLength="4.1323" x="1045.9058" y="23.0669">&#160;</text><text fill="#000000" font-family="Sans-Serif" font-size="13" lengthAdjust="spacing" textLength="24.3115" x="1050.0381" y="23.0669">FTA</text><text fill="#000000" font-family="Sans-Serif" font-size="13" lengthAdjust="spacing" textLength="48.4771" x="906.9461" y="38.1997">Relates</text><text fill="#000000" font-family="Sans-Serif" font-size="13" lengthAdjust="spacing" textLength="4.1323" x="955.4231" y="38.1997">&#160;</text><text fill="#000000" font-family="Sans-Serif" font-size="13" lengthAdjust="spacing" textLength="13.0508" x="959.5555" y="38.1997">to</text><text fill="#000000" font-family="Sans-Serif" font-size="13" lengthAdjust="spacing" textLength="4.1323" x="972.6062" y="38.1997">&#160;</text><text fill="#000000" font-family="Sans-Serif" font-size="13" lengthAdjust="spacing" textLength="43.145" x="976.7386" y="38.1997">border</text><text fill="#000000" font-family="Sans-Serif" font-size="13" lengthAdjust="spacing" textLength="4.1323" x="1019.8836" y="38.1997">&#160;</text><text fill="#000000" font-family="Sans-Serif" font-size="13" lengthAdjust="spacing" textLength="45.3477" x="1024.0159" y="38.1997">control</text></g><g class="entity" data-entity="GMN31" data-source-line="71" data-uid="ent0032" id="entity_GMN31"><path d="M1340.15,16 L1340.15,36.2656 A10,10 0 0 0 1350.15,46.2656 L1430.66,46.2656 L1434.66,125.61 L1438.66,46.2656 L1519.1725,46.2656 A10,10 0 0 0 1529.1725,36.2656 L1529.1725,16 L1519.1725,6 L1350.15,6 A10,10 0 0 0 1340.15,16" fill="#FFA500" style="stroke:#444444;stroke-width:0.5;"/><path d="M1519.1725,6 L1519.1725,11 A5,5 0 0 0 1524.1725,16 L1529.1725,16 L1519.1725,6" fill="#FFA500" style="stroke:#444444;stroke-width:0.5;"/><text fill="#000000" font-family="Sans-Serif" font-size="13" lengthAdjust="spacing" textLength="64.0225" x="1349.035" y="23.0669">Unrelated</text><text fill="#000000" font-family="Sans-Serif" font-size="13" lengthAdjust="spacing" textLength="4.1323" x="1413.0575" y="23.0669">&#160;</text><text fill="#000000" font-family="Sans-Serif" font-size="13" lengthAdjust="spacing" textLength="13.0508" x="1417.1898" y="23.0669">to</text><text fill="#000000" font-family="Sans-Serif" font-size="13" lengthAdjust="spacing" textLength="4.1323" x="1430.2406" y="23.0669">&#160;</text><text fill="#000000" font-family="Sans-Serif" font-size="13" lengthAdjust="spacing" textLength="34.6582" x="1434.3729" y="23.0669">trade</text><text fill="#000000" font-family="Sans-Serif" font-size="13" lengthAdjust="spacing" textLength="4.1323" x="1469.0311" y="23.0669">&#160;</text><text fill="#000000" font-family="Sans-Serif" font-size="13" lengthAdjust="spacing" textLength="38.124" x="1473.1634" y="23.0669">scope</text><text fill="#000000" font-family="Sans-Serif" font-size="13" lengthAdjust="spacing" textLength="52.3618" x="1346.15" y="38.1997">Focuses</text><text fill="#000000" font-family="Sans-Serif" font-size="13" lengthAdjust="spacing" textLength="4.1323" x="1398.5118" y="38.1997">&#160;</text><text fill="#000000" font-family="Sans-Serif" font-size="13" lengthAdjust="spacing" textLength="16.1929" x="1402.6441" y="38.1997">on</text><text fill="#000000" font-family="Sans-Serif" font-size="13" lengthAdjust="spacing" textLength="4.1323" x="1418.837" y="38.1997">&#160;</text><text fill="#000000" font-family="Sans-Serif" font-size="13" lengthAdjust="spacing" textLength="51.835" x="1422.9693" y="38.1997">defense</text><text fill="#000000" font-family="Sans-Serif" font-size="13" lengthAdjust="spacing" textLength="4.1323" x="1474.8043" y="38.1997">&#160;</text><text fill="#000000" font-family="Sans-Serif" font-size="13" lengthAdjust="spacing" textLength="35.2358" x="1478.9366" y="38.1997">pacts</text></g><!--link Member Nations to Free Trade Agreement--><g class="link" data-entity-1="Member Nations" data-entity-2="Free Trade Agreement" data-source-line="34" data-uid="lnk9" id="link_Member Nations_Free Trade Agreement"><path codeLine="34" d="M326.66,44.55 C326.66,66.68 326.66,97.61 326.66,119.68" fill="none" id="Member Nations-to-Free Trade Agreement" style="stroke:#FFFFFF;stroke-width:1.5;"/><polygon fill="#FFFFFF" points="326.66,125.68,330.66,116.68,326.66,120.68,322.66,116.68,326.66,125.68" style="stroke:#FFFFFF;stroke-width:1.5;"/></g><!--link Free Trade Agreement to Tariff Reduction--><g class="link" data-entity-1="Free Trade Agreement" data-entity-2="Tariff Reduction" data-source-line="35" data-uid="lnk10" id="link_Free Trade Agreement_Tariff Reduction"><path codeLine="35" d="M373.83,162.47 C373.83,186.18 373.83,221.04 373.83,244.79" fill="none" id="Free Trade Agreement-to-Tariff Reduction" style="stroke:#FFFFFF;stroke-width:1.5;"/><polygon fill="#FFFFFF" points="373.83,250.79,377.83,241.79,373.83,245.79,369.83,241.79,373.83,250.79" style="stroke:#FFFFFF;stroke-width:1.5;"/></g><!--link Free Trade Agreement to International Trade--><g class="link" data-entity-1="Free Trade Agreement" data-entity-2="International Trade" data-source-line="36" data-uid="lnk11" id="link_Free Trade Agreement_International Trade"><path codeLine="36" d="M253.94,162.25 C253.94,207.32 253.94,317.41 253.94,362.7" fill="none" id="Free Trade Agreement-to-International Trade" style="stroke:#FFFFFF;stroke-width:1.5;stroke-dasharray:7.0,7.0;"/><polygon fill="#FFFFFF" points="253.94,368.7,257.94,359.7,253.94,363.7,249.94,359.7,253.94,368.7" style="stroke:#FFFFFF;stroke-width:1.5;"/></g><!--link Tariff Reduction to International Trade--><g class="link" data-entity-1="Tariff Reduction" data-entity-2="International Trade" data-source-line="37" data-uid="lnk12" id="link_Tariff Reduction_International Trade"><path codeLine="37" d="M331.42,270.33 C300.5,270.33 270.41,270.33 270.41,270.33 C270.41,270.33 270.41,329.73 270.41,362.68" fill="none" id="Tariff Reduction-to-International Trade" style="stroke:#008000;stroke-width:1.5;"/><polygon fill="#008000" points="270.41,368.68,274.41,359.68,270.41,363.68,266.41,359.68,270.41,368.68" style="stroke:#008000;stroke-width:1.5;"/></g><!--SRC=[ZLJ1Rjim3BtxAuZqi5EARbtGzb8WIMEWm5eCROOTXXqKYRQ5o991AKtozwFaTF4IUviFHc8-FZu-aHB6k6sjTzgMcLzhsmWIDQo4N9VaDbRDdN445zVfwI2CjXZs3OAZKBbEm3g57XkON7K-ah3h-F6c-x56xqM9KwDBMwCD8Fc5r44eBCJ6X2NkmbzGrWMSEL981x6VqtEAE6qfpwUJgwwUAP7Rji5jfGEUXfQLbclBek7ZvQGJt99elciLAlZq1zz1VUviU1OrmkXLM3z-HTB5w4JSlp07tMIHk4Wdu2kXt9OF3mfXFFPNRtjQ6NQWfsv_b506OKlpFv2k-QrpsGTWjSWlAx49FlkDXL5EYB0aeH2c9V-EXpg2YzkR-M8nwmAVi5vnlyyYQ6SzG_B9ms9stOKi1HjLm0kgZOme1jtTvhExsoxeCSwBJIp2j9MFkAJK1X8-H1Vx1CzTNJiBymqHMhdlrVfOrxgaL0E-EgC7O4_Qw21e3rDZjE1IHnGBUK7JzbhfncTd_O_7zmFkPGEcfempZuRGbvVt_MPbFJwFVrp4JFjpF9J43JtpY7aeU2maUynR3C8gK3fwdNXW39wz3rXgAOpPGyCpXYgBimcaoog0AuQQ1fXQ4E__OOLXouAWrU4v71pFA2j622bt9OWqai-GLSGIMLl8OD7MEN6SAUQyU86JFF3C1orr8zASQ1lvA-pKPmlgC-gL2y7LYVpy702-k2slElEnHOIrUsFx61l43cC3R92k6xvXKK7fd3gZ3wv9tBq70B3OoOed3oCcvIV_FTARbgc0aEJuFbkb1JvZFnx0wGfmwiFX5A4WRZ1VJi5Bro17SYStdXtZ14x2DEyRoz86VU_PdbIXA92YjShLGblsMzXOYMDfLRW67t4hFaqOEJFaqFdcCSitIub7HPvsHdgQu9iKhKUU01cE7lq2]--></g></svg>