<svg xmlns="http://www.w3.org/2000/svg" xmlns:xlink="http://www.w3.org/1999/xlink" contentStyleType="text/css" data-diagram-type="CLASS" height="494px" preserveAspectRatio="none" style="width:900px;height:494px;background:#333333;" version="1.1" viewBox="0 0 900 494" width="900px" zoomAndPan="magnify"><defs/><g><rect fill="#333333" height="494" style="stroke:none;stroke-width:1;" width="900" x="0" y="0"/><!--entity Constitution of India--><g class="entity" data-entity="Constitution of India" data-source-line="23" data-uid="ent0002" id="entity_Constitution of India"><rect fill="#87CEEB" height="36.2969" rx="10" ry="10" style="stroke:#FFFFFF;stroke-width:0.5;" width="161.8184" x="486.15" y="101.13"/><text fill="#000000" font-family="Sans-Serif" font-size="14" lengthAdjust="spacing" textLength="85.0664" x="496.15" y="124.1251">Constitution</text><text fill="#000000" font-family="Sans-Serif" font-size="14" lengthAdjust="spacing" textLength="4.4502" x="581.2164" y="124.1251">&#160;</text><text fill="#000000" font-family="Sans-Serif" font-size="14" lengthAdjust="spacing" textLength="13.4941" x="585.6666" y="124.1251">of</text><text fill="#000000" font-family="Sans-Serif" font-size="14" lengthAdjust="spacing" textLength="4.4502" x="599.1607" y="124.1251">&#160;</text><text fill="#000000" font-family="Sans-Serif" font-size="14" lengthAdjust="spacing" textLength="34.3574" x="603.6109" y="124.1251">India</text></g><!--entity RBI Act--><g class="entity" data-entity="RBI Act" data-source-line="24" data-uid="ent0003" id="entity_RBI Act"><rect fill="#87CEEB" height="36.2969" rx="10" ry="10" style="stroke:#FFFFFF;stroke-width:0.5;" width="70.6748" x="243.73" y="216.98"/><text fill="#000000" font-family="Sans-Serif" font-size="14" lengthAdjust="spacing" textLength="23.4609" x="253.73" y="239.9751">RBI</text><text fill="#000000" font-family="Sans-Serif" font-size="14" lengthAdjust="spacing" textLength="4.4502" x="277.1909" y="239.9751">&#160;</text><text fill="#000000" font-family="Sans-Serif" font-size="14" lengthAdjust="spacing" textLength="22.7637" x="281.6411" y="239.9751">Act</text></g><!--entity Central Government--><g class="entity" data-entity="Central Government" data-source-line="27" data-uid="ent0004" id="entity_Central Government"><rect fill="#F5DEB3" height="36.2969" rx="10" ry="10" style="stroke:#FFFFFF;stroke-width:0.5;" width="162.9805" x="485.57" y="216.98"/><text fill="#000000" font-family="Sans-Serif" font-size="14" lengthAdjust="spacing" textLength="50.9756" x="495.57" y="239.9751">Central</text><text fill="#000000" font-family="Sans-Serif" font-size="14" lengthAdjust="spacing" textLength="4.4502" x="546.5456" y="239.9751">&#160;</text><text fill="#000000" font-family="Sans-Serif" font-size="14" lengthAdjust="spacing" textLength="87.5547" x="550.9958" y="239.9751">Government</text></g><!--entity RBI Governor--><g class="entity" data-entity="RBI Governor" data-source-line="28" data-uid="ent0005" id="entity_RBI Governor"><rect fill="#F5DEB3" height="36.2969" rx="10" ry="10" style="stroke:#FFFFFF;stroke-width:0.5;" width="113.1738" x="222.48" y="334.81"/><text fill="#000000" font-family="Sans-Serif" font-size="14" lengthAdjust="spacing" textLength="23.4609" x="232.48" y="357.8051">RBI</text><text fill="#000000" font-family="Sans-Serif" font-size="14" lengthAdjust="spacing" textLength="4.4502" x="255.9409" y="357.8051">&#160;</text><text fill="#000000" font-family="Sans-Serif" font-size="14" lengthAdjust="spacing" textLength="65.2627" x="260.3911" y="357.8051">Governor</text></g><!--entity Public Interest--><g class="entity" data-entity="Public Interest" data-source-line="31" data-uid="ent0006" id="entity_Public Interest"><rect fill="#87CEEB" height="36.2969" rx="10" ry="10" style="stroke:#FFFFFF;stroke-width:0.5;" width="120.3857" x="626.87" y="334.81"/><text fill="#000000" font-family="Sans-Serif" font-size="14" lengthAdjust="spacing" textLength="41.6787" x="636.87" y="357.8051">Public</text><text fill="#000000" font-family="Sans-Serif" font-size="14" lengthAdjust="spacing" textLength="4.4502" x="678.5487" y="357.8051">&#160;</text><text fill="#000000" font-family="Sans-Serif" font-size="14" lengthAdjust="spacing" textLength="54.2568" x="682.9989" y="357.8051">Interest</text></g><g class="entity" data-entity="GMN11" data-source-line="41" data-uid="ent0012" id="entity_GMN11"><path d="M465.52,16 L465.52,21.1328 A10,10 0 0 0 475.52,31.1328 L563.06,31.1328 L567.06,100.83 L571.06,31.1328 L658.6152,31.1328 A10,10 0 0 0 668.6152,21.1328 L668.6152,16 L658.6152,6 L475.52,6 A10,10 0 0 0 465.52,16" fill="#FFA500" style="stroke:#444444;stroke-width:0.5;"/><path d="M658.6152,6 L658.6152,11 A5,5 0 0 0 663.6152,16 L668.6152,16 L658.6152,6" fill="#FFA500" style="stroke:#444444;stroke-width:0.5;"/><text fill="#000000" font-family="Sans-Serif" font-size="13" lengthAdjust="spacing" textLength="43.4941" x="471.52" y="23.0669">Grants</text><text fill="#000000" font-family="Sans-Serif" font-size="13" lengthAdjust="spacing" textLength="4.1323" x="515.0141" y="23.0669">&#160;</text><text fill="#000000" font-family="Sans-Serif" font-size="13" lengthAdjust="spacing" textLength="46.9536" x="519.1465" y="23.0669">powers</text><text fill="#000000" font-family="Sans-Serif" font-size="13" lengthAdjust="spacing" textLength="4.1323" x="566.1001" y="23.0669">&#160;</text><text fill="#000000" font-family="Sans-Serif" font-size="13" lengthAdjust="spacing" textLength="57.4653" x="570.2324" y="23.0669">affecting</text><text fill="#000000" font-family="Sans-Serif" font-size="13" lengthAdjust="spacing" textLength="4.1323" x="627.6977" y="23.0669">&#160;</text><text fill="#000000" font-family="Sans-Serif" font-size="13" lengthAdjust="spacing" textLength="21.7852" x="631.8301" y="23.0669">RBI</text></g><g class="entity" data-entity="GMN14" data-source-line="45" data-uid="ent0015" id="entity_GMN14"><path d="M6,225 L6,245.2656 A10,10 0 0 0 16,255.2656 L184.1274,255.2656 A10,10 0 0 0 194.1274,245.2656 L194.1274,239.36 L243.55,235.36 L194.1274,231.36 L194.1274,225 L184.1274,215 L16,215 A10,10 0 0 0 6,225" fill="#FFA500" style="stroke:#444444;stroke-width:0.5;"/><path d="M184.1274,215 L184.1274,220 A5,5 0 0 0 189.1274,225 L194.1274,225 L184.1274,215" fill="#FFA500" style="stroke:#444444;stroke-width:0.5;"/><text fill="#000000" font-family="Sans-Serif" font-size="13" lengthAdjust="spacing" textLength="49.207" x="12" y="232.0669">Defines</text><text fill="#000000" font-family="Sans-Serif" font-size="13" lengthAdjust="spacing" textLength="4.1323" x="61.207" y="232.0669">&#160;</text><text fill="#000000" font-family="Sans-Serif" font-size="13" lengthAdjust="spacing" textLength="21.7852" x="65.3394" y="232.0669">RBI</text><text fill="#000000" font-family="Sans-Serif" font-size="13" lengthAdjust="spacing" textLength="4.1323" x="87.1245" y="232.0669">&#160;</text><text fill="#000000" font-family="Sans-Serif" font-size="13" lengthAdjust="spacing" textLength="59.2808" x="91.2568" y="232.0669">structure</text><text fill="#000000" font-family="Sans-Serif" font-size="13" lengthAdjust="spacing" textLength="4.1323" x="150.5376" y="232.0669">&#160;</text><text fill="#000000" font-family="Sans-Serif" font-size="13" lengthAdjust="spacing" textLength="24.4575" x="154.6699" y="232.0669">and</text><text fill="#000000" font-family="Sans-Serif" font-size="13" lengthAdjust="spacing" textLength="46.9536" x="72.0869" y="247.1997">powers</text></g><g class="entity" data-entity="GMN17" data-source-line="49" data-uid="ent0018" id="entity_GMN17"><path d="M698.44,217.43 L698.44,231.36 L649.02,235.36 L698.44,239.36 L698.44,252.8284 A10,10 0 0 0 708.44,262.8284 L879.6778,262.8284 A10,10 0 0 0 889.6778,252.8284 L889.6778,217.43 L879.6778,207.43 L708.44,207.43 A10,10 0 0 0 698.44,217.43" fill="#FFA500" style="stroke:#444444;stroke-width:0.5;"/><path d="M879.6778,207.43 L879.6778,212.43 A5,5 0 0 0 884.6778,217.43 L889.6778,217.43 L879.6778,207.43" fill="#FFA500" style="stroke:#444444;stroke-width:0.5;"/><text fill="#000000" font-family="Sans-Serif" font-size="13" lengthAdjust="spacing" textLength="57.0718" x="704.44" y="224.4969">Appoints</text><text fill="#000000" font-family="Sans-Serif" font-size="13" lengthAdjust="spacing" textLength="4.1323" x="761.5118" y="224.4969">&#160;</text><text fill="#000000" font-family="Sans-Serif" font-size="13" lengthAdjust="spacing" textLength="64.7334" x="765.6441" y="224.4969">Governor,</text><text fill="#000000" font-family="Sans-Serif" font-size="13" lengthAdjust="spacing" textLength="4.1323" x="830.3775" y="224.4969">&#160;</text><text fill="#000000" font-family="Sans-Serif" font-size="13" lengthAdjust="spacing" textLength="40.168" x="834.5098" y="224.4969">issues</text><text fill="#000000" font-family="Sans-Serif" font-size="13" lengthAdjust="spacing" textLength="64.0288" x="757.5445" y="239.6297">directions</text><text fill="#000000" font-family="Sans-Serif" font-size="13" lengthAdjust="spacing" textLength="48.4771" x="706.6077" y="254.7625">Limited</text><text fill="#000000" font-family="Sans-Serif" font-size="13" lengthAdjust="spacing" textLength="4.1323" x="755.0848" y="254.7625">&#160;</text><text fill="#000000" font-family="Sans-Serif" font-size="13" lengthAdjust="spacing" textLength="15.9453" x="759.2171" y="254.7625">by</text><text fill="#000000" font-family="Sans-Serif" font-size="13" lengthAdjust="spacing" textLength="4.1323" x="775.1624" y="254.7625">&#160;</text><text fill="#000000" font-family="Sans-Serif" font-size="13" lengthAdjust="spacing" textLength="38.7017" x="779.2947" y="254.7625">Public</text><text fill="#000000" font-family="Sans-Serif" font-size="13" lengthAdjust="spacing" textLength="4.1323" x="817.9964" y="254.7625">&#160;</text><text fill="#000000" font-family="Sans-Serif" font-size="13" lengthAdjust="spacing" textLength="50.3813" x="822.1287" y="254.7625">Interest</text></g><g class="entity" data-entity="GMN20" data-source-line="54" data-uid="ent0021" id="entity_GMN20"><path d="M175.29,453.09 L175.29,473.3556 A10,10 0 0 0 185.29,483.3556 L372.8286,483.3556 A10,10 0 0 0 382.8286,473.3556 L382.8286,453.09 L372.8286,443.09 L283.06,443.09 L279.06,371.17 L275.06,443.09 L185.29,443.09 A10,10 0 0 0 175.29,453.09" fill="#FFA500" style="stroke:#444444;stroke-width:0.5;"/><path d="M372.8286,443.09 L372.8286,448.09 A5,5 0 0 0 377.8286,453.09 L382.8286,453.09 L372.8286,443.09" fill="#FFA500" style="stroke:#444444;stroke-width:0.5;"/><text fill="#000000" font-family="Sans-Serif" font-size="13" lengthAdjust="spacing" textLength="33.9917" x="181.29" y="460.1569">Head</text><text fill="#000000" font-family="Sans-Serif" font-size="13" lengthAdjust="spacing" textLength="4.1323" x="215.2817" y="460.1569">&#160;</text><text fill="#000000" font-family="Sans-Serif" font-size="13" lengthAdjust="spacing" textLength="12.5303" x="219.414" y="460.1569">of</text><text fill="#000000" font-family="Sans-Serif" font-size="13" lengthAdjust="spacing" textLength="4.1323" x="231.9443" y="460.1569">&#160;</text><text fill="#000000" font-family="Sans-Serif" font-size="13" lengthAdjust="spacing" textLength="21.3345" x="236.0766" y="460.1569">the</text><text fill="#000000" font-family="Sans-Serif" font-size="13" lengthAdjust="spacing" textLength="4.1323" x="257.4111" y="460.1569">&#160;</text><text fill="#000000" font-family="Sans-Serif" font-size="13" lengthAdjust="spacing" textLength="52.8379" x="261.5434" y="460.1569">Reserve</text><text fill="#000000" font-family="Sans-Serif" font-size="13" lengthAdjust="spacing" textLength="4.1323" x="314.3813" y="460.1569">&#160;</text><text fill="#000000" font-family="Sans-Serif" font-size="13" lengthAdjust="spacing" textLength="32.6523" x="318.5136" y="460.1569">Bank</text><text fill="#000000" font-family="Sans-Serif" font-size="13" lengthAdjust="spacing" textLength="4.1323" x="351.166" y="460.1569">&#160;</text><text fill="#000000" font-family="Sans-Serif" font-size="13" lengthAdjust="spacing" textLength="12.5303" x="355.2983" y="460.1569">of</text><text fill="#000000" font-family="Sans-Serif" font-size="13" lengthAdjust="spacing" textLength="31.9033" x="240.5771" y="475.2897">India</text><text fill="#000000" font-family="Sans-Serif" font-size="13" lengthAdjust="spacing" textLength="4.1323" x="272.4804" y="475.2897">&#160;</text><text fill="#000000" font-family="Sans-Serif" font-size="13" lengthAdjust="spacing" textLength="31.9287" x="276.6128" y="475.2897">(RBI)</text></g><g class="entity" data-entity="GMN23" data-source-line="58" data-uid="ent0024" id="entity_GMN23"><path d="M385.42,342.83 L385.42,363.0956 A10,10 0 0 0 395.42,373.0956 L566.7149,373.0956 A10,10 0 0 0 576.7149,363.0956 L576.7149,357.36 L626.42,353.36 L576.7149,349.36 L576.7149,342.83 L566.7149,332.83 L395.42,332.83 A10,10 0 0 0 385.42,342.83" fill="#FFA500" style="stroke:#444444;stroke-width:0.5;"/><path d="M566.7149,332.83 L566.7149,337.83 A5,5 0 0 0 571.7149,342.83 L576.7149,342.83 L566.7149,332.83" fill="#FFA500" style="stroke:#444444;stroke-width:0.5;"/><text fill="#000000" font-family="Sans-Serif" font-size="13" lengthAdjust="spacing" textLength="62.0356" x="391.42" y="349.8969">Condition</text><text fill="#000000" font-family="Sans-Serif" font-size="13" lengthAdjust="spacing" textLength="4.1323" x="453.4556" y="349.8969">&#160;</text><text fill="#000000" font-family="Sans-Serif" font-size="13" lengthAdjust="spacing" textLength="24.4575" x="457.588" y="349.8969">and</text><text fill="#000000" font-family="Sans-Serif" font-size="13" lengthAdjust="spacing" textLength="4.1323" x="482.0455" y="349.8969">&#160;</text><text fill="#000000" font-family="Sans-Serif" font-size="13" lengthAdjust="spacing" textLength="75.5371" x="486.1778" y="349.8969">justification</text><text fill="#000000" font-family="Sans-Serif" font-size="13" lengthAdjust="spacing" textLength="17.875" x="403.7503" y="365.0297">for</text><text fill="#000000" font-family="Sans-Serif" font-size="13" lengthAdjust="spacing" textLength="4.1323" x="421.6253" y="365.0297">&#160;</text><text fill="#000000" font-family="Sans-Serif" font-size="13" lengthAdjust="spacing" textLength="79.479" x="425.7576" y="365.0297">government</text><text fill="#000000" font-family="Sans-Serif" font-size="13" lengthAdjust="spacing" textLength="4.1323" x="505.2367" y="365.0297">&#160;</text><text fill="#000000" font-family="Sans-Serif" font-size="13" lengthAdjust="spacing" textLength="40.0156" x="509.369" y="365.0297">action</text></g><!--link Constitution of India to Central Government--><g class="link" data-entity-1="Constitution of India" data-entity-2="Central Government" data-source-line="34" data-uid="lnk7" id="link_Constitution of India_Central Government"><path codeLine="34" d="M567.06,137.89 C567.06,159.51 567.06,188.96 567.06,210.56" fill="none" id="Constitution of India-to-Central Government" style="stroke:#FFFFFF;stroke-width:1.5;"/><polygon fill="#FFFFFF" points="567.06,216.56,571.06,207.56,567.06,211.56,563.06,207.56,567.06,216.56" style="stroke:#FFFFFF;stroke-width:1.5;"/></g><!--link RBI Act to RBI Governor--><g class="link" data-entity-1="RBI Act" data-entity-2="RBI Governor" data-source-line="35" data-uid="lnk8" id="link_RBI Act_RBI Governor"><path codeLine="35" d="M279.06,253.54 C279.06,275.68 279.06,306.6 279.06,328.68" fill="none" id="RBI Act-to-RBI Governor" style="stroke:#FFFFFF;stroke-width:1.5;"/><polygon fill="#FFFFFF" points="279.06,334.68,283.06,325.68,279.06,329.68,275.06,325.68,279.06,334.68" style="stroke:#FFFFFF;stroke-width:1.5;"/></g><!--link Central Government to RBI Governor--><g class="link" data-entity-1="Central Government" data-entity-2="RBI Governor" data-source-line="36" data-uid="lnk9" id="link_Central Government_RBI Governor"><path codeLine="36" d="M485.12,235.36 C414.9,235.36 325.03,235.36 325.03,235.36 C325.03,235.36 325.03,295.17 325.03,328.33" fill="none" id="Central Government-to-RBI Governor" style="stroke:#FFFFFF;stroke-width:1.5;"/><polygon fill="#FFFFFF" points="325.03,334.33,329.03,325.33,325.03,329.33,321.03,325.33,325.03,334.33" style="stroke:#FFFFFF;stroke-width:1.5;"/></g><!--link Central Government to Public Interest--><g class="link" data-entity-1="Central Government" data-entity-2="Public Interest" data-source-line="37" data-uid="lnk10" id="link_Central Government_Public Interest"><path codeLine="37" d="M637.71,253.54 C637.71,275.68 637.71,306.6 637.71,328.68" fill="none" id="Central Government-to-Public Interest" style="stroke:#FFFFFF;stroke-width:1.5;"/><polygon fill="#FFFFFF" points="637.71,334.68,641.71,325.68,637.71,329.68,633.71,325.68,637.71,334.68" style="stroke:#FFFFFF;stroke-width:1.5;"/></g><!--SRC=[ZLHHJzj037xFhx3Amq0Q4nkhc2OngIsK8I5056dFryH9RhtSHJw7qlrwV4bfaoniv24FzkVFdpyxKSQuTQ6VjSqYlzAsLAGAMAfubP6hR39pnX4SdDPF2s6qHTwK28uuTws4TGbwB65yqWgIigiGF6i72_HUPJWnEhC5MePONaWjH8AfgWm_uZF_0sKTuzHHWhGL-xL- -eZ-IFFvP7pIrZCXSkickSurOp_rcEjuPKKqVFuqRYNNfCfVEk4SldJujkhdplAjAX162sNzyG99fwEUkFzXjhh98acJLiBdAd5hMHwaodWSxjxCj3JYm43VuInXpCfcvZsGjlcDSz47c2d6pD7cEznWfWpCmmYAjRFHhX16CsSzQwv275mArpRHQWG7tyvcbvVJDl9XUWsJcFUvJeyxofJLVsf-EBnoJqXMsHYFEitaSaYaDEbmJC8s7rzSJa_xdHg8epsWqswozC8KCuZ-64k6mxiIgUuk_19aETbEx_jgQNGiyydjek-EyO2cBlMvBdtqbYV7npy6HuZsrjIGZlneSEZpy_VXQhw-yg1u8L3nGiAtSaLmBvU1eIGAHmNiog3xZK4YW2lv7x27qgsHFAWq5P_23Oka26rIdsRKS1bCkIPx7LBABp2LluyFS90zL35NXA2ai67iSv3EyePao3w0ILaw7GIzsl4HjFULT4XqM65OZS1kT26tdS1o0prF-WsNZjaLEzbxbm5-eaf2WdEKlNka9uIf_1rt_i2Xb1ozQSDVsu1mReckFGuM_Ax4yrJ7pQS6aCf7cUt61LMFiwD_0G00]--></g></svg>