<svg xmlns="http://www.w3.org/2000/svg" xmlns:xlink="http://www.w3.org/1999/xlink" contentStyleType="text/css" data-diagram-type="CLASS" height="509px" preserveAspectRatio="none" style="width:1340px;height:509px;background:#333333;" version="1.1" viewBox="0 0 1340 509" width="1340px" zoomAndPan="magnify"><defs/><g><rect fill="#333333" height="509" style="stroke:none;stroke-width:1;" width="1340" x="0" y="0"/><!--entity Govt Policy--><g class="entity" data-entity="Govt Policy" data-source-line="23" data-uid="ent0002" id="entity_Govt Policy"><rect fill="#98FB98" height="36.2969" rx="10" ry="10" style="stroke:#FFFFFF;stroke-width:0.5;" width="98.4082" x="615.48" y="116.26"/><text fill="#000000" font-family="Sans-Serif" font-size="14" lengthAdjust="spacing" textLength="33.1885" x="625.48" y="139.2551">Govt</text><text fill="#000000" font-family="Sans-Serif" font-size="14" lengthAdjust="spacing" textLength="4.4502" x="658.6685" y="139.2551">&#160;</text><text fill="#000000" font-family="Sans-Serif" font-size="14" lengthAdjust="spacing" textLength="40.7695" x="663.1187" y="139.2551">Policy</text></g><!--entity MSP--><g class="entity" data-entity="MSP" data-source-line="24" data-uid="ent0003" id="entity_MSP"><rect fill="#98FB98" height="36.2969" rx="10" ry="10" style="stroke:#FFFFFF;stroke-width:0.5;" width="49.4082" x="830.98" y="232.11"/><text fill="#000000" font-family="Sans-Serif" font-size="14" lengthAdjust="spacing" textLength="29.4082" x="840.98" y="255.1051">MSP</text></g><!--entity Procurement--><g class="entity" data-entity="Procurement" data-source-line="25" data-uid="ent0004" id="entity_Procurement"><rect fill="#98FB98" height="36.2969" rx="10" ry="10" style="stroke:#FFFFFF;stroke-width:0.5;" width="110.3164" x="356.52" y="232.11"/><text fill="#000000" font-family="Sans-Serif" font-size="14" lengthAdjust="spacing" textLength="90.3164" x="366.52" y="255.1051">Procurement</text></g><!--entity Market Price--><g class="entity" data-entity="Market Price" data-source-line="28" data-uid="ent0005" id="entity_Market Price"><rect fill="#87CEEB" height="36.2969" rx="10" ry="10" style="stroke:#FFFFFF;stroke-width:0.5;" width="107.4727" x="801.95" y="349.94"/><text fill="#000000" font-family="Sans-Serif" font-size="14" lengthAdjust="spacing" textLength="48.624" x="811.95" y="372.9351">Market</text><text fill="#000000" font-family="Sans-Serif" font-size="14" lengthAdjust="spacing" textLength="4.4502" x="860.574" y="372.9351">&#160;</text><text fill="#000000" font-family="Sans-Serif" font-size="14" lengthAdjust="spacing" textLength="34.3984" x="865.0242" y="372.9351">Price</text></g><!--entity Cereals--><g class="entity" data-entity="Cereals" data-source-line="31" data-uid="ent0006" id="entity_Cereals"><rect fill="#87CEEB" height="36.2969" rx="10" ry="10" style="stroke:#FFFFFF;stroke-width:0.5;" width="72.5205" x="195.42" y="349.94"/><text fill="#000000" font-family="Sans-Serif" font-size="14" lengthAdjust="spacing" textLength="52.5205" x="205.42" y="372.9351">Cereals</text></g><!--entity Pulses--><g class="entity" data-entity="Pulses" data-source-line="32" data-uid="ent0007" id="entity_Pulses"><rect fill="#87CEEB" height="36.2969" rx="10" ry="10" style="stroke:#FFFFFF;stroke-width:0.5;" width="64.4063" x="317.48" y="349.94"/><text fill="#000000" font-family="Sans-Serif" font-size="14" lengthAdjust="spacing" textLength="44.4063" x="327.48" y="372.9351">Pulses</text></g><!--entity Oil-Seeds--><g class="entity" data-entity="Oil-Seeds" data-source-line="33" data-uid="ent0008" id="entity_Oil-Seeds"><rect fill="#87CEEB" height="36.2969" rx="10" ry="10" style="stroke:#FFFFFF;stroke-width:0.5;" width="86.1445" x="431.61" y="349.94"/><text fill="#000000" font-family="Sans-Serif" font-size="14" lengthAdjust="spacing" textLength="66.1445" x="441.61" y="372.9351">Oil-Seeds</text></g><!--entity Stabilize Income--><g class="entity" data-entity="Stabilize Income" data-source-line="36" data-uid="ent0009" id="entity_Stabilize Income"><rect fill="#E6E6FA" height="36.2969" rx="10" ry="10" style="stroke:#FFFFFF;stroke-width:0.5;" width="135.4385" x="958.96" y="349.94"/><text fill="#000000" font-family="Sans-Serif" font-size="14" lengthAdjust="spacing" textLength="59.4727" x="968.96" y="372.9351">Stabilize</text><text fill="#000000" font-family="Sans-Serif" font-size="14" lengthAdjust="spacing" textLength="4.4502" x="1028.4327" y="372.9351">&#160;</text><text fill="#000000" font-family="Sans-Serif" font-size="14" lengthAdjust="spacing" textLength="51.5156" x="1032.8829" y="372.9351">Income</text></g><g class="entity" data-entity="GMN17" data-source-line="49" data-uid="ent0018" id="entity_GMN17"><path d="M587.54,16 L587.54,36.2656 A10,10 0 0 0 597.54,46.2656 L660.68,46.2656 L664.68,116.03 L668.68,46.2656 L731.8281,46.2656 A10,10 0 0 0 741.8281,36.2656 L741.8281,16 L731.8281,6 L597.54,6 A10,10 0 0 0 587.54,16" fill="#FFA500" style="stroke:#444444;stroke-width:0.5;"/><path d="M731.8281,6 L731.8281,11 A5,5 0 0 0 736.8281,16 L741.8281,16 L731.8281,6" fill="#FFA500" style="stroke:#444444;stroke-width:0.5;"/><text fill="#000000" font-family="Sans-Serif" font-size="13" lengthAdjust="spacing" textLength="35.6548" x="593.54" y="23.0669">Rules</text><text fill="#000000" font-family="Sans-Serif" font-size="13" lengthAdjust="spacing" textLength="4.1323" x="629.1948" y="23.0669">&#160;</text><text fill="#000000" font-family="Sans-Serif" font-size="13" lengthAdjust="spacing" textLength="24.4575" x="633.3271" y="23.0669">and</text><text fill="#000000" font-family="Sans-Serif" font-size="13" lengthAdjust="spacing" textLength="4.1323" x="657.7846" y="23.0669">&#160;</text><text fill="#000000" font-family="Sans-Serif" font-size="13" lengthAdjust="spacing" textLength="64.9111" x="661.917" y="23.0669">strategies</text><text fill="#000000" font-family="Sans-Serif" font-size="13" lengthAdjust="spacing" textLength="19.8682" x="598.4055" y="38.1997">set</text><text fill="#000000" font-family="Sans-Serif" font-size="13" lengthAdjust="spacing" textLength="4.1323" x="618.2736" y="38.1997">&#160;</text><text fill="#000000" font-family="Sans-Serif" font-size="13" lengthAdjust="spacing" textLength="15.9453" x="622.406" y="38.1997">by</text><text fill="#000000" font-family="Sans-Serif" font-size="13" lengthAdjust="spacing" textLength="4.1323" x="638.3513" y="38.1997">&#160;</text><text fill="#000000" font-family="Sans-Serif" font-size="13" lengthAdjust="spacing" textLength="79.479" x="642.4836" y="38.1997">government</text></g><g class="entity" data-entity="GMN20" data-source-line="54" data-uid="ent0021" id="entity_GMN20"><path d="M930.47,232.56 L930.47,240.49 L880.61,244.49 L930.47,248.49 L930.47,267.9584 A10,10 0 0 0 940.47,277.9584 L1134.8958,277.9584 A10,10 0 0 0 1144.8958,267.9584 L1144.8958,232.56 L1134.8958,222.56 L940.47,222.56 A10,10 0 0 0 930.47,232.56" fill="#FFA500" style="stroke:#444444;stroke-width:0.5;"/><path d="M1134.8958,222.56 L1134.8958,227.56 A5,5 0 0 0 1139.8958,232.56 L1144.8958,232.56 L1134.8958,222.56" fill="#FFA500" style="stroke:#444444;stroke-width:0.5;"/><text fill="#000000" font-family="Sans-Serif" font-size="13" lengthAdjust="spacing" textLength="60.2456" x="936.47" y="239.6269">Minimum</text><text fill="#000000" font-family="Sans-Serif" font-size="13" lengthAdjust="spacing" textLength="4.1323" x="996.7156" y="239.6269">&#160;</text><text fill="#000000" font-family="Sans-Serif" font-size="13" lengthAdjust="spacing" textLength="51.3906" x="1000.8479" y="239.6269">Support</text><text fill="#000000" font-family="Sans-Serif" font-size="13" lengthAdjust="spacing" textLength="4.1323" x="1052.2386" y="239.6269">&#160;</text><text fill="#000000" font-family="Sans-Serif" font-size="13" lengthAdjust="spacing" textLength="31.9414" x="1056.3709" y="239.6269">Price</text><text fill="#000000" font-family="Sans-Serif" font-size="13" lengthAdjust="spacing" textLength="4.1323" x="1088.3123" y="239.6269">&#160;</text><text fill="#000000" font-family="Sans-Serif" font-size="13" lengthAdjust="spacing" textLength="37.4512" x="1092.4446" y="239.6269">(MSP)</text><text fill="#000000" font-family="Sans-Serif" font-size="13" lengthAdjust="spacing" textLength="32.7349" x="941.9195" y="254.7597">Does</text><text fill="#000000" font-family="Sans-Serif" font-size="13" lengthAdjust="spacing" textLength="4.1323" x="974.6543" y="254.7597">&#160;</text><text fill="#000000" font-family="Sans-Serif" font-size="13" lengthAdjust="spacing" textLength="21.29" x="978.7867" y="254.7597">not</text><text fill="#000000" font-family="Sans-Serif" font-size="13" lengthAdjust="spacing" textLength="4.1323" x="1000.0767" y="254.7597">&#160;</text><text fill="#000000" font-family="Sans-Serif" font-size="13" lengthAdjust="spacing" textLength="33.0205" x="1004.209" y="254.7597">force</text><text fill="#000000" font-family="Sans-Serif" font-size="13" lengthAdjust="spacing" textLength="4.1323" x="1037.2295" y="254.7597">&#160;</text><text fill="#000000" font-family="Sans-Serif" font-size="13" lengthAdjust="spacing" textLength="46.5981" x="1041.3618" y="254.7597">market</text><text fill="#000000" font-family="Sans-Serif" font-size="13" lengthAdjust="spacing" textLength="4.1323" x="1087.96" y="254.7597">&#160;</text><text fill="#000000" font-family="Sans-Serif" font-size="13" lengthAdjust="spacing" textLength="32.354" x="1092.0923" y="254.7597">price</text><text fill="#000000" font-family="Sans-Serif" font-size="13" lengthAdjust="spacing" textLength="16.4912" x="1024.9373" y="269.8925">up</text></g><g class="entity" data-entity="GMN23" data-source-line="59" data-uid="ent0024" id="entity_GMN23"><path d="M94.66,240.13 L94.66,260.3956 A10,10 0 0 0 104.66,270.3956 L296.7054,270.3956 A10,10 0 0 0 306.7054,260.3956 L306.7054,248.49 L356.25,244.49 L306.7054,240.49 L306.7054,240.13 L296.7054,230.13 L104.66,230.13 A10,10 0 0 0 94.66,240.13" fill="#FFA500" style="stroke:#444444;stroke-width:0.5;"/><path d="M296.7054,230.13 L296.7054,235.13 A5,5 0 0 0 301.7054,240.13 L306.7054,240.13 L296.7054,230.13" fill="#FFA500" style="stroke:#444444;stroke-width:0.5;"/><text fill="#000000" font-family="Sans-Serif" font-size="13" lengthAdjust="spacing" textLength="81.3008" x="107.0711" y="247.1969">Government</text><text fill="#000000" font-family="Sans-Serif" font-size="13" lengthAdjust="spacing" textLength="4.1323" x="188.3719" y="247.1969">&#160;</text><text fill="#000000" font-family="Sans-Serif" font-size="13" lengthAdjust="spacing" textLength="28.6978" x="192.5042" y="247.1969">crop</text><text fill="#000000" font-family="Sans-Serif" font-size="13" lengthAdjust="spacing" textLength="4.1323" x="221.202" y="247.1969">&#160;</text><text fill="#000000" font-family="Sans-Serif" font-size="13" lengthAdjust="spacing" textLength="59.96" x="225.3343" y="247.1969">purchase</text><text fill="#000000" font-family="Sans-Serif" font-size="13" lengthAdjust="spacing" textLength="51.3906" x="100.66" y="262.3297">Support</text><text fill="#000000" font-family="Sans-Serif" font-size="13" lengthAdjust="spacing" textLength="4.1323" x="152.0506" y="262.3297">&#160;</text><text fill="#000000" font-family="Sans-Serif" font-size="13" lengthAdjust="spacing" textLength="21.29" x="156.1829" y="262.3297">not</text><text fill="#000000" font-family="Sans-Serif" font-size="13" lengthAdjust="spacing" textLength="4.1323" x="177.473" y="262.3297">&#160;</text><text fill="#000000" font-family="Sans-Serif" font-size="13" lengthAdjust="spacing" textLength="44.6431" x="181.6053" y="262.3297">always</text><text fill="#000000" font-family="Sans-Serif" font-size="13" lengthAdjust="spacing" textLength="4.1323" x="226.2484" y="262.3297">&#160;</text><text fill="#000000" font-family="Sans-Serif" font-size="13" lengthAdjust="spacing" textLength="61.3247" x="230.3807" y="262.3297">unlimited</text></g><g class="entity" data-entity="GMN26" data-source-line="64" data-uid="ent0027" id="entity_GMN26"><path d="M748.72,468.22 L748.72,488.4856 A10,10 0 0 0 758.72,498.4856 L952.638,498.4856 A10,10 0 0 0 962.638,488.4856 L962.638,468.22 L952.638,458.22 L859.68,458.22 L855.68,386.3 L851.68,458.22 L758.72,458.22 A10,10 0 0 0 748.72,468.22" fill="#FFA500" style="stroke:#444444;stroke-width:0.5;"/><path d="M952.638,458.22 L952.638,463.22 A5,5 0 0 0 957.638,468.22 L962.638,468.22 L952.638,458.22" fill="#FFA500" style="stroke:#444444;stroke-width:0.5;"/><text fill="#000000" font-family="Sans-Serif" font-size="13" lengthAdjust="spacing" textLength="40.9551" x="772.9283" y="475.2869">Actual</text><text fill="#000000" font-family="Sans-Serif" font-size="13" lengthAdjust="spacing" textLength="4.1323" x="813.8833" y="475.2869">&#160;</text><text fill="#000000" font-family="Sans-Serif" font-size="13" lengthAdjust="spacing" textLength="28.6978" x="818.0157" y="475.2869">crop</text><text fill="#000000" font-family="Sans-Serif" font-size="13" lengthAdjust="spacing" textLength="4.1323" x="846.7134" y="475.2869">&#160;</text><text fill="#000000" font-family="Sans-Serif" font-size="13" lengthAdjust="spacing" textLength="42.0977" x="850.8457" y="475.2869">selling</text><text fill="#000000" font-family="Sans-Serif" font-size="13" lengthAdjust="spacing" textLength="4.1323" x="892.9434" y="475.2869">&#160;</text><text fill="#000000" font-family="Sans-Serif" font-size="13" lengthAdjust="spacing" textLength="32.354" x="897.0757" y="475.2869">price</text><text fill="#000000" font-family="Sans-Serif" font-size="13" lengthAdjust="spacing" textLength="68.1357" x="754.72" y="490.4197">Influenced</text><text fill="#000000" font-family="Sans-Serif" font-size="13" lengthAdjust="spacing" textLength="4.1323" x="822.8557" y="490.4197">&#160;</text><text fill="#000000" font-family="Sans-Serif" font-size="13" lengthAdjust="spacing" textLength="15.9453" x="826.9881" y="490.4197">by</text><text fill="#000000" font-family="Sans-Serif" font-size="13" lengthAdjust="spacing" textLength="4.1323" x="842.9334" y="490.4197">&#160;</text><text fill="#000000" font-family="Sans-Serif" font-size="13" lengthAdjust="spacing" textLength="100.5723" x="847.0657" y="490.4197">supply/demand</text></g><g class="entity" data-entity="GMN29" data-source-line="69" data-uid="ent0030" id="entity_GMN29"><path d="M1143.92,357.96 L1143.92,364.49 L1094.86,368.49 L1143.92,372.49 L1143.92,378.2256 A10,10 0 0 0 1153.92,388.2256 L1319.4386,388.2256 A10,10 0 0 0 1329.4386,378.2256 L1329.4386,357.96 L1319.4386,347.96 L1153.92,347.96 A10,10 0 0 0 1143.92,357.96" fill="#FFA500" style="stroke:#444444;stroke-width:0.5;"/><path d="M1319.4386,347.96 L1319.4386,352.96 A5,5 0 0 0 1324.4386,357.96 L1329.4386,357.96 L1319.4386,347.96" fill="#FFA500" style="stroke:#444444;stroke-width:0.5;"/><text fill="#000000" font-family="Sans-Serif" font-size="13" lengthAdjust="spacing" textLength="24.2163" x="1149.92" y="365.0269">Key</text><text fill="#000000" font-family="Sans-Serif" font-size="13" lengthAdjust="spacing" textLength="4.1323" x="1174.1363" y="365.0269">&#160;</text><text fill="#000000" font-family="Sans-Serif" font-size="13" lengthAdjust="spacing" textLength="59.3633" x="1178.2686" y="365.0269">objective</text><text fill="#000000" font-family="Sans-Serif" font-size="13" lengthAdjust="spacing" textLength="4.1323" x="1237.6319" y="365.0269">&#160;</text><text fill="#000000" font-family="Sans-Serif" font-size="13" lengthAdjust="spacing" textLength="17.875" x="1241.7642" y="365.0269">for</text><text fill="#000000" font-family="Sans-Serif" font-size="13" lengthAdjust="spacing" textLength="4.1323" x="1259.6392" y="365.0269">&#160;</text><text fill="#000000" font-family="Sans-Serif" font-size="13" lengthAdjust="spacing" textLength="50.667" x="1263.7716" y="365.0269">farmers</text><text fill="#000000" font-family="Sans-Serif" font-size="13" lengthAdjust="spacing" textLength="31.9414" x="1151.4085" y="380.1597">Aims</text><text fill="#000000" font-family="Sans-Serif" font-size="13" lengthAdjust="spacing" textLength="4.1323" x="1183.3499" y="380.1597">&#160;</text><text fill="#000000" font-family="Sans-Serif" font-size="13" lengthAdjust="spacing" textLength="17.875" x="1187.4823" y="380.1597">for</text><text fill="#000000" font-family="Sans-Serif" font-size="13" lengthAdjust="spacing" textLength="4.1323" x="1205.3573" y="380.1597">&#160;</text><text fill="#000000" font-family="Sans-Serif" font-size="13" lengthAdjust="spacing" textLength="47.6138" x="1209.4896" y="380.1597">income</text><text fill="#000000" font-family="Sans-Serif" font-size="13" lengthAdjust="spacing" textLength="4.1323" x="1257.1033" y="380.1597">&#160;</text><text fill="#000000" font-family="Sans-Serif" font-size="13" lengthAdjust="spacing" textLength="51.7144" x="1261.2357" y="380.1597">stability</text></g><g class="entity" data-entity="GMN32" data-source-line="74" data-uid="ent0033" id="entity_GMN32"><path d="M6,357.96 L6,378.2256 A10,10 0 0 0 16,388.2256 L135.3647,388.2256 A10,10 0 0 0 145.3647,378.2256 L145.3647,372.49 L195.29,368.49 L145.3647,364.49 L145.3647,357.96 L135.3647,347.96 L16,347.96 A10,10 0 0 0 6,357.96" fill="#FFA500" style="stroke:#444444;stroke-width:0.5;"/><path d="M135.3647,347.96 L135.3647,352.96 A5,5 0 0 0 140.3647,357.96 L145.3647,357.96 L135.3647,347.96" fill="#FFA500" style="stroke:#444444;stroke-width:0.5;"/><text fill="#000000" font-family="Sans-Serif" font-size="13" lengthAdjust="spacing" textLength="41.1772" x="12" y="365.0269">Staple</text><text fill="#000000" font-family="Sans-Serif" font-size="13" lengthAdjust="spacing" textLength="4.1323" x="53.1772" y="365.0269">&#160;</text><text fill="#000000" font-family="Sans-Serif" font-size="13" lengthAdjust="spacing" textLength="28.7358" x="57.3096" y="365.0269">food</text><text fill="#000000" font-family="Sans-Serif" font-size="13" lengthAdjust="spacing" textLength="4.1323" x="86.0454" y="365.0269">&#160;</text><text fill="#000000" font-family="Sans-Serif" font-size="13" lengthAdjust="spacing" textLength="40.187" x="90.1777" y="365.0269">grains</text><text fill="#000000" font-family="Sans-Serif" font-size="13" lengthAdjust="spacing" textLength="44.0654" x="35.0325" y="380.1597">wheat,</text><text fill="#000000" font-family="Sans-Serif" font-size="13" lengthAdjust="spacing" textLength="4.1323" x="79.0979" y="380.1597">&#160;</text><text fill="#000000" font-family="Sans-Serif" font-size="13" lengthAdjust="spacing" textLength="24.1021" x="83.2302" y="380.1597">rice</text></g><g class="entity" data-entity="GMN35" data-source-line="79" data-uid="ent0036" id="entity_GMN35"><path d="M274.52,468.22 L274.52,488.4856 A10,10 0 0 0 284.52,498.4856 L414.8408,498.4856 A10,10 0 0 0 424.8408,488.4856 L424.8408,468.22 L414.8408,458.22 L353.68,458.22 L349.68,386.3 L345.68,458.22 L284.52,458.22 A10,10 0 0 0 274.52,468.22" fill="#FFA500" style="stroke:#444444;stroke-width:0.5;"/><path d="M414.8408,458.22 L414.8408,463.22 A5,5 0 0 0 419.8408,468.22 L424.8408,468.22 L414.8408,458.22" fill="#FFA500" style="stroke:#444444;stroke-width:0.5;"/><text fill="#000000" font-family="Sans-Serif" font-size="13" lengthAdjust="spacing" textLength="46.7061" x="280.52" y="475.2869">Lentils,</text><text fill="#000000" font-family="Sans-Serif" font-size="13" lengthAdjust="spacing" textLength="4.1323" x="327.2261" y="475.2869">&#160;</text><text fill="#000000" font-family="Sans-Serif" font-size="13" lengthAdjust="spacing" textLength="43.3608" x="331.3584" y="475.2869">beans,</text><text fill="#000000" font-family="Sans-Serif" font-size="13" lengthAdjust="spacing" textLength="4.1323" x="374.7192" y="475.2869">&#160;</text><text fill="#000000" font-family="Sans-Serif" font-size="13" lengthAdjust="spacing" textLength="30.9893" x="378.8515" y="475.2869">peas</text><text fill="#000000" font-family="Sans-Serif" font-size="13" lengthAdjust="spacing" textLength="46.084" x="298.3442" y="490.4197">Protein</text><text fill="#000000" font-family="Sans-Serif" font-size="13" lengthAdjust="spacing" textLength="4.1323" x="344.4282" y="490.4197">&#160;</text><text fill="#000000" font-family="Sans-Serif" font-size="13" lengthAdjust="spacing" textLength="43.4561" x="348.5605" y="490.4197">source</text></g><g class="entity" data-entity="GMN38" data-source-line="84" data-uid="ent0039" id="entity_GMN38"><path d="M567.81,357.96 L567.81,364.49 L518.06,368.49 L567.81,372.49 L567.81,378.2256 A10,10 0 0 0 577.81,388.2256 L741.5512,388.2256 A10,10 0 0 0 751.5512,378.2256 L751.5512,357.96 L741.5512,347.96 L577.81,347.96 A10,10 0 0 0 567.81,357.96" fill="#FFA500" style="stroke:#444444;stroke-width:0.5;"/><path d="M741.5512,347.96 L741.5512,352.96 A5,5 0 0 0 746.5512,357.96 L751.5512,357.96 L741.5512,347.96" fill="#FFA500" style="stroke:#444444;stroke-width:0.5;"/><text fill="#000000" font-family="Sans-Serif" font-size="13" lengthAdjust="spacing" textLength="37.4004" x="573.81" y="365.0269">Crops</text><text fill="#000000" font-family="Sans-Serif" font-size="13" lengthAdjust="spacing" textLength="4.1323" x="611.2104" y="365.0269">&#160;</text><text fill="#000000" font-family="Sans-Serif" font-size="13" lengthAdjust="spacing" textLength="51.27" x="615.3427" y="365.0269">yielding</text><text fill="#000000" font-family="Sans-Serif" font-size="13" lengthAdjust="spacing" textLength="4.1323" x="666.6127" y="365.0269">&#160;</text><text fill="#000000" font-family="Sans-Serif" font-size="13" lengthAdjust="spacing" textLength="39.7236" x="670.7451" y="365.0269">edible</text><text fill="#000000" font-family="Sans-Serif" font-size="13" lengthAdjust="spacing" textLength="4.1323" x="710.4687" y="365.0269">&#160;</text><text fill="#000000" font-family="Sans-Serif" font-size="13" lengthAdjust="spacing" textLength="21.9502" x="714.601" y="365.0269">oils</text><text fill="#000000" font-family="Sans-Serif" font-size="13" lengthAdjust="spacing" textLength="58.4683" x="596.4426" y="380.1597">mustard,</text><text fill="#000000" font-family="Sans-Serif" font-size="13" lengthAdjust="spacing" textLength="4.1323" x="654.9108" y="380.1597">&#160;</text><text fill="#000000" font-family="Sans-Serif" font-size="13" lengthAdjust="spacing" textLength="54.8755" x="659.0432" y="380.1597">soybean</text></g><!--link Govt Policy to MSP--><g class="link" data-entity-1="Govt Policy" data-entity-2="MSP" data-source-line="39" data-uid="lnk10" id="link_Govt Policy_MSP"><path codeLine="39" d="M714.37,134.49 C770.96,134.49 855.68,134.49 855.68,134.49 C855.68,134.49 855.68,192.93 855.68,225.66" fill="none" id="Govt Policy-to-MSP" style="stroke:#FFFFFF;stroke-width:1.5;"/><polygon fill="#FFFFFF" points="855.68,231.66,859.68,222.66,855.68,226.66,851.68,222.66,855.68,231.66" style="stroke:#FFFFFF;stroke-width:1.5;"/></g><!--link Govt Policy to Procurement--><g class="link" data-entity-1="Govt Policy" data-entity-2="Procurement" data-source-line="40" data-uid="lnk11" id="link_Govt Policy_Procurement"><path codeLine="40" d="M664.68,152.8 C664.68,185.54 664.68,250.49 664.68,250.49 C664.68,250.49 547.68,250.49 473.2,250.49" fill="none" id="Govt Policy-to-Procurement" style="stroke:#FFFFFF;stroke-width:1.5;"/><polygon fill="#FFFFFF" points="467.2,250.49,476.2,254.49,472.2,250.49,476.2,246.49,467.2,250.49" style="stroke:#FFFFFF;stroke-width:1.5;"/></g><!--link MSP to Market Price--><g class="link" data-entity-1="MSP" data-entity-2="Market Price" data-source-line="41" data-uid="lnk12" id="link_MSP_Market Price"><path codeLine="41" d="M855.68,268.67 C855.68,290.81 855.68,321.73 855.68,343.81" fill="none" id="MSP-to-Market Price" style="stroke:#FFFFFF;stroke-width:1.5;stroke-dasharray:7.0,7.0;"/><polygon fill="#FFFFFF" points="855.68,349.81,859.68,340.81,855.68,344.81,851.68,340.81,855.68,349.81" style="stroke:#FFFFFF;stroke-width:1.5;"/></g><!--link MSP to Stabilize Income--><g class="link" data-entity-1="MSP" data-entity-2="Stabilize Income" data-source-line="42" data-uid="lnk13" id="link_MSP_Stabilize Income"><path codeLine="42" d="M880.71,256.49 C898.76,256.49 919.94,256.49 919.94,256.49 C919.94,256.49 919.94,368.49 919.94,368.49 C919.94,368.49 931.56,368.49 952.48,368.49" fill="none" id="MSP-to-Stabilize Income" style="stroke:#FFFFFF;stroke-width:1.5;"/><polygon fill="#FFFFFF" points="958.48,368.49,949.48,364.49,953.48,368.49,949.48,372.49,958.48,368.49" style="stroke:#FFFFFF;stroke-width:1.5;"/></g><!--link Procurement to Cereals--><g class="link" data-entity-1="Procurement" data-entity-2="Cereals" data-source-line="43" data-uid="lnk14" id="link_Procurement_Cereals"><path codeLine="43" d="M356.06,256.49 C333.25,256.49 312.09,256.49 312.09,256.49 C312.09,256.49 312.09,368.49 312.09,368.49 C312.09,368.49 295.4,368.49 274.12,368.49" fill="none" id="Procurement-to-Cereals" style="stroke:#FFFFFF;stroke-width:1.5;"/><polygon fill="#FFFFFF" points="268.12,368.49,277.12,372.49,273.12,368.49,277.12,364.49,268.12,368.49" style="stroke:#FFFFFF;stroke-width:1.5;"/></g><!--link Procurement to Pulses--><g class="link" data-entity-1="Procurement" data-entity-2="Pulses" data-source-line="44" data-uid="lnk15" id="link_Procurement_Pulses"><path codeLine="44" d="M369.2,268.67 C369.2,290.81 369.2,321.73 369.2,343.81" fill="none" id="Procurement-to-Pulses" style="stroke:#FFFFFF;stroke-width:1.5;"/><polygon fill="#FFFFFF" points="369.2,349.81,373.2,340.81,369.2,344.81,365.2,340.81,369.2,349.81" style="stroke:#FFFFFF;stroke-width:1.5;"/></g><!--link Procurement to Oil-Seeds--><g class="link" data-entity-1="Procurement" data-entity-2="Oil-Seeds" data-source-line="45" data-uid="lnk16" id="link_Procurement_Oil-Seeds"><path codeLine="45" d="M449.23,268.67 C449.23,290.81 449.23,321.73 449.23,343.81" fill="none" id="Procurement-to-Oil-Seeds" style="stroke:#FFFFFF;stroke-width:1.5;"/><polygon fill="#FFFFFF" points="449.23,349.81,453.23,340.81,449.23,344.81,445.23,340.81,449.23,349.81" style="stroke:#FFFFFF;stroke-width:1.5;"/></g><!--SRC=[ZPHBRzim3CVl_XH4UzW6f8yz-heKSDDaABQkHLDWPrcYRIrw69BSpFlqe-mqjLDddGy1Gb9_aZzIOahPbPQ_fIaIlvIcOevfo1XV5ixMHaojiWxsFxTVBq99Ww6f4AmBfUqvZ1NeiOAJuvxHCRECnhE-KQFthC1KoS9eD04u_Q3hHGZCMQt28_uE_uWoDk2LTGBTkjWlxRSTiTtIV9wU7FVhIPspgywvAcN0RTTZAVdIKD7myV2avrmvLlsK8fJmQQ2thdvkJVZ1DCBUWXb_i40dyxsjujwAMTVj33fAqdFuaWcxek51pfJ7yUnTJvaY0YDvnxqEUM2cKFyJqeVVaKlUmLVxXAwRMCg3j0QEuDvPJloIpKdOex00zrP9tkp1_iNv_EhYlE-_NToFsgDKxJ3gl_WfxOnROxNaS6E4v2nOvobncldW60ymjOPZ5GOPc5iYrU0aHv8wFvlEPbTHAYt8H0XhnnGTrDeA6II-fJT5XpIB5wb-rJKDQTnr9nND7OKVr72N_Q8G-OG3Q8l0Cgda7wGkkTMnxDdfx7IUnYFNcDFTX0TKB6BtfQnyCkHyS73PaHspzyac7V_3myijJcj7U-1LDSbmEctGCvKntvhAcEk5IcnjGT035ZJTkBnGqKAsmKdxDzWAR3vSgGJWeLOqCsO4-FLnWWdWgPUiWMApfWbII1HAEZadYpAqWYqfW5jffAurBEggebUl8m7loVk1lDUMij11oAqZi-veLMrCNMsBAymxxG5jwDyQxgYVgdQyP7InOPCsvc1gnHeFjL5IqtqJs_AP3S7ghlZ1s21UnfhskLNtg5HyEzegoNTZSbKZRRI8Q3mbLCsHG4tmTjDvFNw0RzY0VLxTI8IU9wVHHV2frBuroJQSfjAU3yrEHflT8GY1LIegMW65Oz94nLM9B4oWRM8tYESj0_XEUANo4yYGNji9LCYY38qYe3JWBK77tGttTX9WIXmzD1ALY2HHo8pgioHFJbrJSqvCIBA9kJQQVm40]--></g></svg>