<svg xmlns="http://www.w3.org/2000/svg" xmlns:xlink="http://www.w3.org/1999/xlink" contentStyleType="text/css" data-diagram-type="CLASS" height="485px" preserveAspectRatio="none" style="width:743px;height:485px;background:#333333;" version="1.1" viewBox="0 0 743 485" width="743px" zoomAndPan="magnify"><defs/><g><rect fill="#333333" height="485" style="stroke:none;stroke-width:1;" width="743" x="0" y="0"/><!--entity Chabahar Port--><g class="entity" data-entity="Chabahar Port" data-source-line="23" data-uid="ent0002" id="entity_Chabahar Port"><rect fill="#87CEEB" height="36.2969" rx="10" ry="10" style="stroke:#FFFFFF;stroke-width:0.5;" width="120.6045" x="282.63" y="7.98"/><text fill="#000000" font-family="Sans-Serif" font-size="14" lengthAdjust="spacing" textLength="67.9014" x="292.63" y="30.9751">Chabahar</text><text fill="#000000" font-family="Sans-Serif" font-size="14" lengthAdjust="spacing" textLength="4.4502" x="360.5314" y="30.9751">&#160;</text><text fill="#000000" font-family="Sans-Serif" font-size="14" lengthAdjust="spacing" textLength="28.2529" x="364.9816" y="30.9751">Port</text></g><!--entity India's Trade--><g class="entity" data-entity="India's Trade" data-source-line="24" data-uid="ent0003" id="entity_India's Trade"><rect fill="#87CEEB" height="36.2969" rx="10" ry="10" style="stroke:#FFFFFF;stroke-width:0.5;" width="110.3369" x="303.77" y="224.55"/><text fill="#000000" font-family="Sans-Serif" font-size="14" lengthAdjust="spacing" textLength="45.5" x="313.77" y="247.5451">India's</text><text fill="#000000" font-family="Sans-Serif" font-size="14" lengthAdjust="spacing" textLength="4.4502" x="359.27" y="247.5451">&#160;</text><text fill="#000000" font-family="Sans-Serif" font-size="14" lengthAdjust="spacing" textLength="40.3867" x="363.7202" y="247.5451">Trade</text></g><!--entity Geopolitical Influence--><g class="entity" data-entity="Geopolitical Influence" data-source-line="25" data-uid="ent0004" id="entity_Geopolitical Influence"><rect fill="#87CEEB" height="36.2969" rx="10" ry="10" style="stroke:#FFFFFF;stroke-width:0.5;" width="171.7441" x="566.06" y="334.81"/><text fill="#000000" font-family="Sans-Serif" font-size="14" lengthAdjust="spacing" textLength="82.8037" x="576.06" y="357.8051">Geopolitical</text><text fill="#000000" font-family="Sans-Serif" font-size="14" lengthAdjust="spacing" textLength="4.4502" x="658.8637" y="357.8051">&#160;</text><text fill="#000000" font-family="Sans-Serif" font-size="14" lengthAdjust="spacing" textLength="64.4902" x="663.3139" y="357.8051">Influence</text></g><!--entity Pakistan's Isolation--><g class="entity" data-entity="Pakistan's Isolation" data-source-line="26" data-uid="ent0005" id="entity_Pakistan's Isolation"><rect fill="#87CEEB" height="36.2969" rx="10" ry="10" style="stroke:#FFFFFF;stroke-width:0.5;" width="154.1211" x="25.88" y="443.09"/><text fill="#000000" font-family="Sans-Serif" font-size="14" lengthAdjust="spacing" textLength="70.3965" x="35.88" y="466.0851">Pakistan's</text><text fill="#000000" font-family="Sans-Serif" font-size="14" lengthAdjust="spacing" textLength="4.4502" x="106.2765" y="466.0851">&#160;</text><text fill="#000000" font-family="Sans-Serif" font-size="14" lengthAdjust="spacing" textLength="59.2744" x="110.7267" y="466.0851">Isolation</text></g><!--entity Central Asian Trade Routes--><g class="entity" data-entity="Central Asian Trade Routes" data-source-line="27" data-uid="ent0006" id="entity_Central Asian Trade Routes"><rect fill="#87CEEB" height="36.2969" rx="10" ry="10" style="stroke:#FFFFFF;stroke-width:0.5;" width="211.4883" x="268.19" y="116.27"/><text fill="#000000" font-family="Sans-Serif" font-size="14" lengthAdjust="spacing" textLength="50.9756" x="278.19" y="139.2651">Central</text><text fill="#000000" font-family="Sans-Serif" font-size="14" lengthAdjust="spacing" textLength="4.4502" x="329.1656" y="139.2651">&#160;</text><text fill="#000000" font-family="Sans-Serif" font-size="14" lengthAdjust="spacing" textLength="38.2129" x="333.6158" y="139.2651">Asian</text><text fill="#000000" font-family="Sans-Serif" font-size="14" lengthAdjust="spacing" textLength="4.4502" x="371.8287" y="139.2651">&#160;</text><text fill="#000000" font-family="Sans-Serif" font-size="14" lengthAdjust="spacing" textLength="40.3867" x="376.2789" y="139.2651">Trade</text><text fill="#000000" font-family="Sans-Serif" font-size="14" lengthAdjust="spacing" textLength="4.4502" x="416.6656" y="139.2651">&#160;</text><text fill="#000000" font-family="Sans-Serif" font-size="14" lengthAdjust="spacing" textLength="48.5625" x="421.1158" y="139.2651">Routes</text></g><!--entity Access to Afghanistan--><g class="entity" data-entity="Access to Afghanistan" data-source-line="28" data-uid="ent0007" id="entity_Access to Afghanistan"><rect fill="#E6E6FA" height="36.2969" rx="10" ry="10" style="stroke:#FFFFFF;stroke-width:0.5;" width="174.9707" x="43.45" y="116.27"/><text fill="#000000" font-family="Sans-Serif" font-size="14" lengthAdjust="spacing" textLength="48.1729" x="53.45" y="139.2651">Access</text><text fill="#000000" font-family="Sans-Serif" font-size="14" lengthAdjust="spacing" textLength="4.4502" x="101.6229" y="139.2651">&#160;</text><text fill="#000000" font-family="Sans-Serif" font-size="14" lengthAdjust="spacing" textLength="14.0547" x="106.073" y="139.2651">to</text><text fill="#000000" font-family="Sans-Serif" font-size="14" lengthAdjust="spacing" textLength="4.4502" x="120.1277" y="139.2651">&#160;</text><text fill="#000000" font-family="Sans-Serif" font-size="14" lengthAdjust="spacing" textLength="83.8428" x="124.5779" y="139.2651">Afghanistan</text></g><g class="entity" data-entity="GMN16" data-source-line="46" data-uid="ent0017" id="entity_GMN16"><path d="M452.99,16 L452.99,22.39 L403.69,26.39 L452.99,30.39 L452.99,36.2656 A10,10 0 0 0 462.99,46.2656 L646.8787,46.2656 A10,10 0 0 0 656.8787,36.2656 L656.8787,16 L646.8787,6 L462.99,6 A10,10 0 0 0 452.99,16" fill="#FFA500" style="stroke:#444444;stroke-width:0.5;"/><path d="M646.8787,6 L646.8787,11 A5,5 0 0 0 651.8787,16 L656.8787,16 L646.8787,6" fill="#FFA500" style="stroke:#444444;stroke-width:0.5;"/><text fill="#000000" font-family="Sans-Serif" font-size="13" lengthAdjust="spacing" textLength="24.2163" x="458.99" y="23.0669">Key</text><text fill="#000000" font-family="Sans-Serif" font-size="13" lengthAdjust="spacing" textLength="4.1323" x="483.2063" y="23.0669">&#160;</text><text fill="#000000" font-family="Sans-Serif" font-size="13" lengthAdjust="spacing" textLength="89.0195" x="487.3386" y="23.0669">infrastructure</text><text fill="#000000" font-family="Sans-Serif" font-size="13" lengthAdjust="spacing" textLength="4.1323" x="576.3582" y="23.0669">&#160;</text><text fill="#000000" font-family="Sans-Serif" font-size="13" lengthAdjust="spacing" textLength="45.4048" x="580.4905" y="23.0669">project</text><text fill="#000000" font-family="Sans-Serif" font-size="13" lengthAdjust="spacing" textLength="4.1323" x="625.8953" y="23.0669">&#160;</text><text fill="#000000" font-family="Sans-Serif" font-size="13" lengthAdjust="spacing" textLength="11.8511" x="630.0276" y="23.0669">in</text><text fill="#000000" font-family="Sans-Serif" font-size="13" lengthAdjust="spacing" textLength="25.3843" x="537.7422" y="38.1997">Iran</text></g><g class="entity" data-entity="GMN19" data-source-line="50" data-uid="ent0020" id="entity_GMN19"><path d="M24,232.56 L24,252.8256 A10,10 0 0 0 34,262.8256 L227.8735,262.8256 A10,10 0 0 0 237.8735,252.8256 L237.8735,232.56 L227.8735,222.56 L134.94,222.56 L130.94,152.78 L126.94,222.56 L34,222.56 A10,10 0 0 0 24,232.56" fill="#FFA500" style="stroke:#444444;stroke-width:0.5;"/><path d="M227.8735,222.56 L227.8735,227.56 A5,5 0 0 0 232.8735,232.56 L237.8735,232.56 L227.8735,222.56" fill="#FFA500" style="stroke:#444444;stroke-width:0.5;"/><text fill="#000000" font-family="Sans-Serif" font-size="13" lengthAdjust="spacing" textLength="50.4639" x="30" y="239.6269">Primary</text><text fill="#000000" font-family="Sans-Serif" font-size="13" lengthAdjust="spacing" textLength="4.1323" x="80.4639" y="239.6269">&#160;</text><text fill="#000000" font-family="Sans-Serif" font-size="13" lengthAdjust="spacing" textLength="69.8877" x="84.5962" y="239.6269">motivation</text><text fill="#000000" font-family="Sans-Serif" font-size="13" lengthAdjust="spacing" textLength="4.1323" x="154.4839" y="239.6269">&#160;</text><text fill="#000000" font-family="Sans-Serif" font-size="13" lengthAdjust="spacing" textLength="17.875" x="158.6162" y="239.6269">for</text><text fill="#000000" font-family="Sans-Serif" font-size="13" lengthAdjust="spacing" textLength="4.1323" x="176.4912" y="239.6269">&#160;</text><text fill="#000000" font-family="Sans-Serif" font-size="13" lengthAdjust="spacing" textLength="42.25" x="180.6235" y="239.6269">India's</text><text fill="#000000" font-family="Sans-Serif" font-size="13" lengthAdjust="spacing" textLength="80.7993" x="86.0371" y="254.7597">involvement</text></g><g class="entity" data-entity="GMN22" data-source-line="54" data-uid="ent0023" id="entity_GMN22"><path d="M333.74,342.83 L333.74,363.0956 A10,10 0 0 0 343.74,373.0956 L506.1419,373.0956 A10,10 0 0 0 516.1419,363.0956 L516.1419,357.39 L565.8,353.39 L516.1419,349.39 L516.1419,342.83 L506.1419,332.83 L343.74,332.83 A10,10 0 0 0 333.74,342.83" fill="#FFA500" style="stroke:#444444;stroke-width:0.5;"/><path d="M506.1419,332.83 L506.1419,337.83 A5,5 0 0 0 511.1419,342.83 L516.1419,342.83 L506.1419,332.83" fill="#FFA500" style="stroke:#444444;stroke-width:0.5;"/><text fill="#000000" font-family="Sans-Serif" font-size="13" lengthAdjust="spacing" textLength="58.7666" x="339.74" y="349.8969">Strategic</text><text fill="#000000" font-family="Sans-Serif" font-size="13" lengthAdjust="spacing" textLength="4.1323" x="398.5066" y="349.8969">&#160;</text><text fill="#000000" font-family="Sans-Serif" font-size="13" lengthAdjust="spacing" textLength="57.0527" x="402.6389" y="349.8969">outcome</text><text fill="#000000" font-family="Sans-Serif" font-size="13" lengthAdjust="spacing" textLength="4.1323" x="459.6917" y="349.8969">&#160;</text><text fill="#000000" font-family="Sans-Serif" font-size="13" lengthAdjust="spacing" textLength="11.8511" x="463.824" y="349.8969">in</text><text fill="#000000" font-family="Sans-Serif" font-size="13" lengthAdjust="spacing" textLength="4.1323" x="475.6751" y="349.8969">&#160;</text><text fill="#000000" font-family="Sans-Serif" font-size="13" lengthAdjust="spacing" textLength="21.3345" x="479.8074" y="349.8969">the</text><text fill="#000000" font-family="Sans-Serif" font-size="13" lengthAdjust="spacing" textLength="41.3994" x="399.7412" y="365.0297">region</text></g><g class="entity" data-entity="GMN25" data-source-line="58" data-uid="ent0026" id="entity_GMN25"><path d="M93.67,342.83 L93.67,363.0956 A10,10 0 0 0 103.67,373.0956 L132.83,373.0956 L136.83,442.86 L140.83,373.0956 L274.2096,373.0956 A10,10 0 0 0 284.2096,363.0956 L284.2096,342.83 L274.2096,332.83 L103.67,332.83 A10,10 0 0 0 93.67,342.83" fill="#FFA500" style="stroke:#444444;stroke-width:0.5;"/><path d="M274.2096,332.83 L274.2096,337.83 A5,5 0 0 0 279.2096,342.83 L284.2096,342.83 L274.2096,332.83" fill="#FFA500" style="stroke:#444444;stroke-width:0.5;"/><text fill="#000000" font-family="Sans-Serif" font-size="13" lengthAdjust="spacing" textLength="57.4146" x="99.67" y="349.8969">Potential</text><text fill="#000000" font-family="Sans-Serif" font-size="13" lengthAdjust="spacing" textLength="4.1323" x="157.0846" y="349.8969">&#160;</text><text fill="#000000" font-family="Sans-Serif" font-size="13" lengthAdjust="spacing" textLength="85.9854" x="161.2169" y="349.8969">consequence</text><text fill="#000000" font-family="Sans-Serif" font-size="13" lengthAdjust="spacing" textLength="4.1323" x="247.2022" y="349.8969">&#160;</text><text fill="#000000" font-family="Sans-Serif" font-size="13" lengthAdjust="spacing" textLength="17.875" x="251.3346" y="349.8969">for</text><text fill="#000000" font-family="Sans-Serif" font-size="13" lengthAdjust="spacing" textLength="55.0215" x="156.929" y="365.0297">Pakistan</text></g><!--link Chabahar Port to Access to Afghanistan--><g class="link" data-entity-1="Chabahar Port" data-entity-2="Access to Afghanistan" data-source-line="31" data-uid="lnk8" id="link_Chabahar Port_Access to Afghanistan"><path codeLine="31" d="M282.19,26.39 C219.54,26.39 130.94,26.39 130.94,26.39 C130.94,26.39 130.94,79.27 130.94,110.09" fill="none" id="Chabahar Port-to-Access to Afghanistan" style="stroke:#FFFFFF;stroke-width:1.5;"/><polygon fill="#FFFFFF" points="130.94,116.09,134.94,107.09,130.94,111.09,126.94,107.09,130.94,116.09" style="stroke:#FFFFFF;stroke-width:1.5;"/></g><!--link Chabahar Port to Geopolitical Influence--><g class="link" data-entity-1="Chabahar Port" data-entity-2="Geopolitical Influence" data-source-line="32" data-uid="lnk9" id="link_Chabahar Port_Geopolitical Influence"><path codeLine="32" d="M342.94,44.53 C342.94,60.61 342.94,81.39 342.94,81.39 C342.94,81.39 626.61,81.39 626.61,81.39 C626.61,81.39 626.61,267.83 626.61,328.72" fill="none" id="Chabahar Port-to-Geopolitical Influence" style="stroke:#FFFFFF;stroke-width:1.5;"/><polygon fill="#FFFFFF" points="626.61,334.72,630.61,325.72,626.61,329.72,622.61,325.72,626.61,334.72" style="stroke:#FFFFFF;stroke-width:1.5;"/></g><!--link Access to Afghanistan to India's Trade--><g class="link" data-entity-1="Access to Afghanistan" data-entity-2="India's Trade" data-source-line="34" data-uid="lnk10" id="link_Access to Afghanistan_India's Trade"><path codeLine="34" d="M218.7,135.39 C238.11,135.39 253.03,135.39 253.03,135.39 C253.03,135.39 253.03,243.39 253.03,243.39 C253.03,243.39 271.88,243.39 297.5,243.39" fill="none" id="Access to Afghanistan-to-India's Trade" style="stroke:#FFFFFF;stroke-width:1.5;"/><polygon fill="#FFFFFF" points="303.5,243.39,294.5,239.39,298.5,243.39,294.5,247.39,303.5,243.39" style="stroke:#FFFFFF;stroke-width:1.5;"/></g><!--link Access to Afghanistan to Pakistan's Isolation--><g class="link" data-entity-1="Access to Afghanistan" data-entity-2="Pakistan's Isolation" data-source-line="35" data-uid="lnk11" id="link_Access to Afghanistan_Pakistan's Isolation"><path codeLine="35" d="M43.15,135.39 C22.31,135.39 6,135.39 6,135.39 C6,135.39 6,461.39 6,461.39 C6,461.39 8.1,461.39 19.62,461.39" fill="none" id="Access to Afghanistan-to-Pakistan's Isolation" style="stroke:#FFFFFF;stroke-width:1.5;"/><polygon fill="#FFFFFF" points="25.62,461.39,16.62,457.39,20.62,461.39,16.62,465.39,25.62,461.39" style="stroke:#FFFFFF;stroke-width:1.5;"/></g><!--link Central Asian Trade Routes to India's Trade--><g class="link" data-entity-1="Central Asian Trade Routes" data-entity-2="India's Trade" data-source-line="37" data-uid="lnk12" id="link_Central Asian Trade Routes_India's Trade"><path codeLine="37" d="M358.94,152.78 C358.94,172.69 358.94,198.29 358.94,218.24" fill="none" id="Central Asian Trade Routes-to-India's Trade" style="stroke:#FFFFFF;stroke-width:1.5;"/><polygon fill="#FFFFFF" points="358.94,224.24,362.94,215.24,358.94,219.24,354.94,215.24,358.94,224.24" style="stroke:#FFFFFF;stroke-width:1.5;"/></g><!--link India's Trade to Geopolitical Influence--><g class="link" data-entity-1="India's Trade" data-entity-2="Geopolitical Influence" data-source-line="39" data-uid="lnk13" id="link_India's Trade_Geopolitical Influence"><path codeLine="39" d="M414.6,243.39 C484.76,243.39 596.34,243.39 596.34,243.39 C596.34,243.39 596.34,297.11 596.34,328.37" fill="none" id="India's Trade-to-Geopolitical Influence" style="stroke:#FFFFFF;stroke-width:1.5;"/><polygon fill="#FFFFFF" points="596.34,334.37,600.34,325.37,596.34,329.37,592.34,325.37,596.34,334.37" style="stroke:#FFFFFF;stroke-width:1.5;"/></g><!--link India's Trade to Pakistan's Isolation--><g class="link" data-entity-1="India's Trade" data-entity-2="Pakistan's Isolation" data-source-line="40" data-uid="lnk14" id="link_India's Trade_Pakistan's Isolation"><path codeLine="40" d="M318.75,261.2 C318.75,312.95 318.75,455.39 318.75,455.39 C318.75,455.39 248.17,455.39 186.24,455.39" fill="none" id="India's Trade-to-Pakistan's Isolation" style="stroke:#FFFFFF;stroke-width:1.5;"/><polygon fill="#FFFFFF" points="180.24,455.39,189.24,459.39,185.24,455.39,189.24,451.39,180.24,455.39" style="stroke:#FFFFFF;stroke-width:1.5;"/></g><!--link Geopolitical Influence to Pakistan's Isolation--><g class="link" data-entity-1="Geopolitical Influence" data-entity-2="Pakistan's Isolation" data-source-line="42" data-uid="lnk15" id="link_Geopolitical Influence_Pakistan's Isolation"><path codeLine="42" d="M651.94,371.6 C651.94,404.03 651.94,467.39 651.94,467.39 C651.94,467.39 337.76,467.39 186.43,467.39" fill="none" id="Geopolitical Influence-to-Pakistan's Isolation" style="stroke:#FFFFFF;stroke-width:1.5;"/><polygon fill="#FFFFFF" points="180.43,467.39,189.43,471.39,185.43,467.39,189.43,463.39,180.43,467.39" style="stroke:#FFFFFF;stroke-width:1.5;"/></g><!--SRC=[ZLHDRzim3BtxLn3feUqXG_VHTjXXW9CbGx2X3Pe2FJCoRMkHHK-Ia_RVZxRRmlNiR3uOCFdq-FX46etXGw4VjSqYlzEsH8S5R57jCiULJUPisC79n-Rf88os59vA0dOXvqx2SaAUIhYyw0GTsbqTlEu62_8UCugDpcn1De2I5xaE8g4KAnFkwJ4SGLaED6ENa7iM-wbv-eX-IyjbV7dHrHCxnuSsUSXre7xgFjTgPqKql7ztsKaU79OFEWavV7Z3zwn-oJRSO44msQ3rqmqvdKvwulw5UTRjB3afqadu71C-oEL1YiRJSFMsfwqH1mRg3cSTgO0sC_y3wPhVEXUTmi9GVLt-2yHR7nog07EsYihWuMncAZe7j0dSRdy9ZTwJH7_YdgmmdKUlr32PvxZ571siPT8cSFBvUhvOpBg8bKqqddguTvZG8E8xSSb61wtGmCgcKbsK34BNkDDUFeHlvTbWq6m7WNDfpWbTx3NQjZRSSHN83y9ZfUh92GnnckLecoA2N5mjhfPnRTWTjTLyhajnxPkkJyCSAz-4uMmZBIJmK1lS3kHvr7TdElqwLceOE-9C58q9RawzTVmuTj1GuJ_ctr2Hg7_FH_KFWiUaZ8t7iKEdi17vWJAju4Os2TQo7St4GofhC4E3mX7LImPEPta0Jll3707ye2VGDdKeArAfK3c2qd6z4XA6bVmt8rc9PbUZbcpB8N3Hi8rSDC3QwGBT4nGiczLEJotgnHDjzspsZTW-kw6qLJfcB7JwbjjIB3yjKHfoQLE2_9VUm6L3EEoZQ1MG3LggA9bz-jtKQUI-d7Xb_0C0]--></g></svg>