<svg xmlns="http://www.w3.org/2000/svg" xmlns:xlink="http://www.w3.org/1999/xlink" contentStyleType="text/css" data-diagram-type="CLASS" height="433px" preserveAspectRatio="none" style="width:1188px;height:433px;background:#333333;" version="1.1" viewBox="0 0 1188 433" width="1188px" zoomAndPan="magnify"><defs/><g><rect fill="#333333" height="433" style="stroke:none;stroke-width:1;" width="1188" x="0" y="0"/><!--entity Mission Indradhanush--><g class="entity" data-entity="Mission Indradhanush" data-source-line="23" data-uid="ent0002" id="entity_Mission Indradhanush"><rect fill="#87CEEB" height="36.2969" rx="10" ry="10" style="stroke:#FFFFFF;stroke-width:0.5;" width="172.8105" x="7" y="15.55"/><text fill="#000000" font-family="Sans-Serif" font-size="14" lengthAdjust="spacing" textLength="51.8848" x="17" y="38.5451">Mission</text><text fill="#000000" font-family="Sans-Serif" font-size="14" lengthAdjust="spacing" textLength="4.4502" x="68.8848" y="38.5451">&#160;</text><text fill="#000000" font-family="Sans-Serif" font-size="14" lengthAdjust="spacing" textLength="96.4756" x="73.335" y="38.5451">Indradhanush</text></g><!--entity Immunization Programs--><g class="entity" data-entity="Immunization Programs" data-source-line="24" data-uid="ent0003" id="entity_Immunization Programs"><rect fill="#87CEEB" height="36.2969" rx="10" ry="10" style="stroke:#FFFFFF;stroke-width:0.5;" width="187.1523" x="116.83" y="140.95"/><text fill="#000000" font-family="Sans-Serif" font-size="14" lengthAdjust="spacing" textLength="95.7852" x="126.83" y="163.9451">Immunization</text><text fill="#000000" font-family="Sans-Serif" font-size="14" lengthAdjust="spacing" textLength="4.4502" x="222.6152" y="163.9451">&#160;</text><text fill="#000000" font-family="Sans-Serif" font-size="14" lengthAdjust="spacing" textLength="66.917" x="227.0654" y="163.9451">Programs</text></g><!--entity Target Diseases--><g class="entity" data-entity="Target Diseases" data-source-line="25" data-uid="ent0004" id="entity_Target Diseases"><rect fill="#87CEEB" height="36.2969" rx="10" ry="10" style="stroke:#FFFFFF;stroke-width:0.5;" width="132.6836" x="319.06" y="258.78"/><text fill="#000000" font-family="Sans-Serif" font-size="14" lengthAdjust="spacing" textLength="45.876" x="329.06" y="281.7751">Target</text><text fill="#000000" font-family="Sans-Serif" font-size="14" lengthAdjust="spacing" textLength="4.4502" x="374.936" y="281.7751">&#160;</text><text fill="#000000" font-family="Sans-Serif" font-size="14" lengthAdjust="spacing" textLength="62.3574" x="379.3862" y="281.7751">Diseases</text></g><!--entity Vaccine Administration--><g class="entity" data-entity="Vaccine Administration" data-source-line="26" data-uid="ent0005" id="entity_Vaccine Administration"><rect fill="#98FB98" height="36.2969" rx="10" ry="10" style="stroke:#FFFFFF;stroke-width:0.5;" width="182.0664" x="662.37" y="140.95"/><text fill="#000000" font-family="Sans-Serif" font-size="14" lengthAdjust="spacing" textLength="54.9268" x="672.37" y="163.9451">Vaccine</text><text fill="#000000" font-family="Sans-Serif" font-size="14" lengthAdjust="spacing" textLength="4.4502" x="727.2968" y="163.9451">&#160;</text><text fill="#000000" font-family="Sans-Serif" font-size="14" lengthAdjust="spacing" textLength="102.6895" x="731.747" y="163.9451">Administration</text></g><!--entity Beneficiary Groups--><g class="entity" data-entity="Beneficiary Groups" data-source-line="27" data-uid="ent0006" id="entity_Beneficiary Groups"><rect fill="#F5DEB3" height="36.2969" rx="10" ry="10" style="stroke:#FFFFFF;stroke-width:0.5;" width="153.4033" x="676.7" y="258.78"/><text fill="#000000" font-family="Sans-Serif" font-size="14" lengthAdjust="spacing" textLength="78.7295" x="686.7" y="281.7751">Beneficiary</text><text fill="#000000" font-family="Sans-Serif" font-size="14" lengthAdjust="spacing" textLength="4.4502" x="765.4295" y="281.7751">&#160;</text><text fill="#000000" font-family="Sans-Serif" font-size="14" lengthAdjust="spacing" textLength="50.2236" x="769.8797" y="281.7751">Groups</text></g><!--entity Healthcare Infrastructure--><g class="entity" data-entity="Healthcare Infrastructure" data-source-line="28" data-uid="ent0007" id="entity_Healthcare Infrastructure"><rect fill="#98FB98" height="36.2969" rx="10" ry="10" style="stroke:#FFFFFF;stroke-width:0.5;" width="197.1738" x="713.82" y="15.55"/><text fill="#000000" font-family="Sans-Serif" font-size="14" lengthAdjust="spacing" textLength="76.6172" x="723.82" y="38.5451">Healthcare</text><text fill="#000000" font-family="Sans-Serif" font-size="14" lengthAdjust="spacing" textLength="4.4502" x="800.4372" y="38.5451">&#160;</text><text fill="#000000" font-family="Sans-Serif" font-size="14" lengthAdjust="spacing" textLength="96.1064" x="804.8874" y="38.5451">Infrastructure</text></g><g class="entity" data-entity="GMN14" data-source-line="40" data-uid="ent0015" id="entity_GMN14"><path d="M230.2,16 L230.2,30.46 L180.21,34.46 L230.2,38.46 L230.2,51.3984 A10,10 0 0 0 240.2,61.3984 L414.618,61.3984 A10,10 0 0 0 424.618,51.3984 L424.618,16 L414.618,6 L240.2,6 A10,10 0 0 0 230.2,16" fill="#FFA500" style="stroke:#444444;stroke-width:0.5;"/><path d="M414.618,6 L414.618,11 A5,5 0 0 0 419.618,16 L424.618,16 L414.618,6" fill="#FFA500" style="stroke:#444444;stroke-width:0.5;"/><text fill="#000000" font-family="Sans-Serif" font-size="13" lengthAdjust="spacing" textLength="24.2163" x="236.2" y="23.0669">Key</text><text fill="#000000" font-family="Sans-Serif" font-size="13" lengthAdjust="spacing" textLength="4.1323" x="260.4163" y="23.0669">&#160;</text><text fill="#000000" font-family="Sans-Serif" font-size="13" lengthAdjust="spacing" textLength="39.1143" x="264.5486" y="23.0669">public</text><text fill="#000000" font-family="Sans-Serif" font-size="13" lengthAdjust="spacing" textLength="4.1323" x="303.6629" y="23.0669">&#160;</text><text fill="#000000" font-family="Sans-Serif" font-size="13" lengthAdjust="spacing" textLength="41.1519" x="307.7952" y="23.0669">health</text><text fill="#000000" font-family="Sans-Serif" font-size="13" lengthAdjust="spacing" textLength="4.1323" x="348.9471" y="23.0669">&#160;</text><text fill="#000000" font-family="Sans-Serif" font-size="13" lengthAdjust="spacing" textLength="56.5386" x="353.0794" y="23.0669">initiative</text><text fill="#000000" font-family="Sans-Serif" font-size="13" lengthAdjust="spacing" textLength="62.7021" x="255.0145" y="38.1997">Targeting</text><text fill="#000000" font-family="Sans-Serif" font-size="13" lengthAdjust="spacing" textLength="4.1323" x="317.7166" y="38.1997">&#160;</text><text fill="#000000" font-family="Sans-Serif" font-size="13" lengthAdjust="spacing" textLength="68.9546" x="321.8489" y="38.1997">vulnerable</text><text fill="#000000" font-family="Sans-Serif" font-size="13" lengthAdjust="spacing" textLength="75.9497" x="284.9341" y="53.3325">populations</text></g><g class="entity" data-entity="GMN17" data-source-line="45" data-uid="ent0018" id="entity_GMN17"><path d="M354.46,141.4 L354.46,155.46 L304.43,159.46 L354.46,163.46 L354.46,176.7984 A10,10 0 0 0 364.46,186.7984 L544.356,186.7984 A10,10 0 0 0 554.356,176.7984 L554.356,141.4 L544.356,131.4 L364.46,131.4 A10,10 0 0 0 354.46,141.4" fill="#FFA500" style="stroke:#444444;stroke-width:0.5;"/><path d="M544.356,131.4 L544.356,136.4 A5,5 0 0 0 549.356,141.4 L554.356,141.4 L544.356,131.4" fill="#FFA500" style="stroke:#444444;stroke-width:0.5;"/><text fill="#000000" font-family="Sans-Serif" font-size="13" lengthAdjust="spacing" textLength="38.4351" x="368.9246" y="148.4669">Broad</text><text fill="#000000" font-family="Sans-Serif" font-size="13" lengthAdjust="spacing" textLength="4.1323" x="407.3597" y="148.4669">&#160;</text><text fill="#000000" font-family="Sans-Serif" font-size="13" lengthAdjust="spacing" textLength="57.4526" x="411.492" y="148.4669">category</text><text fill="#000000" font-family="Sans-Serif" font-size="13" lengthAdjust="spacing" textLength="4.1323" x="468.9446" y="148.4669">&#160;</text><text fill="#000000" font-family="Sans-Serif" font-size="13" lengthAdjust="spacing" textLength="12.5303" x="473.0769" y="148.4669">of</text><text fill="#000000" font-family="Sans-Serif" font-size="13" lengthAdjust="spacing" textLength="4.1323" x="485.6072" y="148.4669">&#160;</text><text fill="#000000" font-family="Sans-Serif" font-size="13" lengthAdjust="spacing" textLength="41.1519" x="489.7395" y="148.4669">health</text><text fill="#000000" font-family="Sans-Serif" font-size="13" lengthAdjust="spacing" textLength="42.3198" x="428.7481" y="163.5997">efforts</text><text fill="#000000" font-family="Sans-Serif" font-size="13" lengthAdjust="spacing" textLength="66.5806" x="360.46" y="178.7325">Protecting</text><text fill="#000000" font-family="Sans-Serif" font-size="13" lengthAdjust="spacing" textLength="4.1323" x="427.0406" y="178.7325">&#160;</text><text fill="#000000" font-family="Sans-Serif" font-size="13" lengthAdjust="spacing" textLength="47.9058" x="431.1729" y="178.7325">against</text><text fill="#000000" font-family="Sans-Serif" font-size="13" lengthAdjust="spacing" textLength="4.1323" x="479.0787" y="178.7325">&#160;</text><text fill="#000000" font-family="Sans-Serif" font-size="13" lengthAdjust="spacing" textLength="56.145" x="483.211" y="178.7325">diseases</text></g><g class="entity" data-entity="GMN20" data-source-line="50" data-uid="ent0021" id="entity_GMN20"><path d="M960.93,23.57 L960.93,43.8356 A10,10 0 0 0 970.93,53.8356 L1167.8758,53.8356 A10,10 0 0 0 1177.8758,43.8356 L1177.8758,23.57 L1167.8758,13.57 L970.93,13.57 A10,10 0 0 0 960.93,23.57" fill="#FFA500" style="stroke:#444444;stroke-width:0.5;"/><path d="M1167.8758,13.57 L1167.8758,18.57 A5,5 0 0 0 1172.8758,23.57 L1177.8758,23.57 L1167.8758,13.57" fill="#FFA500" style="stroke:#444444;stroke-width:1;"/><text fill="#000000" font-family="Sans-Serif" font-size="13" lengthAdjust="spacing" textLength="49.8291" x="966.93" y="30.6369">Process</text><text fill="#000000" font-family="Sans-Serif" font-size="13" lengthAdjust="spacing" textLength="4.1323" x="1016.7591" y="30.6369">&#160;</text><text fill="#000000" font-family="Sans-Serif" font-size="13" lengthAdjust="spacing" textLength="12.5303" x="1020.8914" y="30.6369">of</text><text fill="#000000" font-family="Sans-Serif" font-size="13" lengthAdjust="spacing" textLength="4.1323" x="1033.4217" y="30.6369">&#160;</text><text fill="#000000" font-family="Sans-Serif" font-size="13" lengthAdjust="spacing" textLength="64.6128" x="1037.554" y="30.6369">delivering</text><text fill="#000000" font-family="Sans-Serif" font-size="13" lengthAdjust="spacing" textLength="4.1323" x="1102.1668" y="30.6369">&#160;</text><text fill="#000000" font-family="Sans-Serif" font-size="13" lengthAdjust="spacing" textLength="56.5767" x="1106.2991" y="30.6369">vaccines</text><text fill="#000000" font-family="Sans-Serif" font-size="13" lengthAdjust="spacing" textLength="45.4683" x="986.9791" y="45.7697">Critical</text><text fill="#000000" font-family="Sans-Serif" font-size="13" lengthAdjust="spacing" textLength="4.1323" x="1032.4473" y="45.7697">&#160;</text><text fill="#000000" font-family="Sans-Serif" font-size="13" lengthAdjust="spacing" textLength="73.9946" x="1036.5797" y="45.7697">operational</text><text fill="#000000" font-family="Sans-Serif" font-size="13" lengthAdjust="spacing" textLength="4.1323" x="1110.5743" y="45.7697">&#160;</text><text fill="#000000" font-family="Sans-Serif" font-size="13" lengthAdjust="spacing" textLength="28.1201" x="1114.7066" y="45.7697">step</text></g><g class="entity" data-entity="GMN23" data-source-line="55" data-uid="ent0024" id="entity_GMN23"><path d="M289.98,377.06 L289.98,412.4584 A10,10 0 0 0 299.98,422.4584 L470.8306,422.4584 A10,10 0 0 0 480.8306,412.4584 L480.8306,377.06 L470.8306,367.06 L389.41,367.06 L385.41,295.34 L381.41,367.06 L299.98,367.06 A10,10 0 0 0 289.98,377.06" fill="#FFA500" style="stroke:#444444;stroke-width:0.5;"/><path d="M470.8306,367.06 L470.8306,372.06 A5,5 0 0 0 475.8306,377.06 L480.8306,377.06 L470.8306,367.06" fill="#FFA500" style="stroke:#444444;stroke-width:0.5;"/><text fill="#000000" font-family="Sans-Serif" font-size="13" lengthAdjust="spacing" textLength="50.5972" x="295.98" y="384.1269">Specific</text><text fill="#000000" font-family="Sans-Serif" font-size="13" lengthAdjust="spacing" textLength="4.1323" x="346.5772" y="384.1269">&#160;</text><text fill="#000000" font-family="Sans-Serif" font-size="13" lengthAdjust="spacing" textLength="41.1519" x="350.7095" y="384.1269">health</text><text fill="#000000" font-family="Sans-Serif" font-size="13" lengthAdjust="spacing" textLength="4.1323" x="391.8613" y="384.1269">&#160;</text><text fill="#000000" font-family="Sans-Serif" font-size="13" lengthAdjust="spacing" textLength="69.8369" x="395.9937" y="384.1269">challenges</text><text fill="#000000" font-family="Sans-Serif" font-size="13" lengthAdjust="spacing" textLength="67.6089" x="347.1008" y="399.2597">addressed</text><text fill="#000000" font-family="Sans-Serif" font-size="13" lengthAdjust="spacing" textLength="28.647" x="305.2381" y="414.3925">e.g.,</text><text fill="#000000" font-family="Sans-Serif" font-size="13" lengthAdjust="spacing" textLength="4.1323" x="333.885" y="414.3925">&#160;</text><text fill="#000000" font-family="Sans-Serif" font-size="13" lengthAdjust="spacing" textLength="57.916" x="338.0174" y="414.3925">measles,</text><text fill="#000000" font-family="Sans-Serif" font-size="13" lengthAdjust="spacing" textLength="4.1323" x="395.9334" y="414.3925">&#160;</text><text fill="#000000" font-family="Sans-Serif" font-size="13" lengthAdjust="spacing" textLength="35.5151" x="400.0657" y="414.3925">polio,</text><text fill="#000000" font-family="Sans-Serif" font-size="13" lengthAdjust="spacing" textLength="4.1323" x="435.5808" y="414.3925">&#160;</text><text fill="#000000" font-family="Sans-Serif" font-size="13" lengthAdjust="spacing" textLength="16.8594" x="439.7132" y="414.3925">TB</text></g><g class="entity" data-entity="GMN26" data-source-line="60" data-uid="ent0027" id="entity_GMN26"><path d="M879.85,266.8 L879.85,273.46 L830.35,277.46 L879.85,281.46 L879.85,287.0656 A10,10 0 0 0 889.85,297.0656 L1088.954,297.0656 A10,10 0 0 0 1098.954,287.0656 L1098.954,266.8 L1088.954,256.8 L889.85,256.8 A10,10 0 0 0 879.85,266.8" fill="#FFA500" style="stroke:#444444;stroke-width:0.5;"/><path d="M1088.954,256.8 L1088.954,261.8 A5,5 0 0 0 1093.954,266.8 L1098.954,266.8 L1088.954,256.8" fill="#FFA500" style="stroke:#444444;stroke-width:0.5;"/><text fill="#000000" font-family="Sans-Serif" font-size="13" lengthAdjust="spacing" textLength="50.4639" x="886.8815" y="273.8669">Primary</text><text fill="#000000" font-family="Sans-Serif" font-size="13" lengthAdjust="spacing" textLength="4.1323" x="937.3454" y="273.8669">&#160;</text><text fill="#000000" font-family="Sans-Serif" font-size="13" lengthAdjust="spacing" textLength="64.0732" x="941.4777" y="273.8669">recipients</text><text fill="#000000" font-family="Sans-Serif" font-size="13" lengthAdjust="spacing" textLength="4.1323" x="1005.5509" y="273.8669">&#160;</text><text fill="#000000" font-family="Sans-Serif" font-size="13" lengthAdjust="spacing" textLength="12.5303" x="1009.6833" y="273.8669">of</text><text fill="#000000" font-family="Sans-Serif" font-size="13" lengthAdjust="spacing" textLength="4.1323" x="1022.2135" y="273.8669">&#160;</text><text fill="#000000" font-family="Sans-Serif" font-size="13" lengthAdjust="spacing" textLength="56.5767" x="1026.3458" y="273.8669">vaccines</text><text fill="#000000" font-family="Sans-Serif" font-size="13" lengthAdjust="spacing" textLength="54.374" x="885.85" y="288.9997">Children</text><text fill="#000000" font-family="Sans-Serif" font-size="13" lengthAdjust="spacing" textLength="4.1323" x="940.224" y="288.9997">&#160;</text><text fill="#000000" font-family="Sans-Serif" font-size="13" lengthAdjust="spacing" textLength="24.4575" x="944.3563" y="288.9997">and</text><text fill="#000000" font-family="Sans-Serif" font-size="13" lengthAdjust="spacing" textLength="4.1323" x="968.8139" y="288.9997">&#160;</text><text fill="#000000" font-family="Sans-Serif" font-size="13" lengthAdjust="spacing" textLength="59.3887" x="972.9462" y="288.9997">pregnant</text><text fill="#000000" font-family="Sans-Serif" font-size="13" lengthAdjust="spacing" textLength="4.1323" x="1032.3349" y="288.9997">&#160;</text><text fill="#000000" font-family="Sans-Serif" font-size="13" lengthAdjust="spacing" textLength="47.4868" x="1036.4672" y="288.9997">women</text></g><g class="entity" data-entity="GMN29" data-source-line="65" data-uid="ent0030" id="entity_GMN29"><path d="M474.95,16 L474.95,51.3984 A10,10 0 0 0 484.95,61.3984 L653.8582,61.3984 A10,10 0 0 0 663.8582,51.3984 L663.8582,38.46 L713.61,34.46 L663.8582,30.46 L663.8582,16 L653.8582,6 L484.95,6 A10,10 0 0 0 474.95,16" fill="#FFA500" style="stroke:#444444;stroke-width:0.5;"/><path d="M653.8582,6 L653.8582,11 A5,5 0 0 0 658.8582,16 L663.8582,16 L653.8582,6" fill="#FFA500" style="stroke:#444444;stroke-width:0.5;"/><text fill="#000000" font-family="Sans-Serif" font-size="13" lengthAdjust="spacing" textLength="48.4771" x="480.95" y="23.0669">System</text><text fill="#000000" font-family="Sans-Serif" font-size="13" lengthAdjust="spacing" textLength="4.1323" x="529.4271" y="23.0669">&#160;</text><text fill="#000000" font-family="Sans-Serif" font-size="13" lengthAdjust="spacing" textLength="70.0146" x="533.5594" y="23.0669">supporting</text><text fill="#000000" font-family="Sans-Serif" font-size="13" lengthAdjust="spacing" textLength="4.1323" x="603.574" y="23.0669">&#160;</text><text fill="#000000" font-family="Sans-Serif" font-size="13" lengthAdjust="spacing" textLength="41.1519" x="607.7063" y="23.0669">health</text><text fill="#000000" font-family="Sans-Serif" font-size="13" lengthAdjust="spacing" textLength="53.3394" x="538.2344" y="38.1997">services</text><text fill="#000000" font-family="Sans-Serif" font-size="13" lengthAdjust="spacing" textLength="51.0542" x="484.2413" y="53.3325">Enables</text><text fill="#000000" font-family="Sans-Serif" font-size="13" lengthAdjust="spacing" textLength="4.1323" x="535.2955" y="53.3325">&#160;</text><text fill="#000000" font-family="Sans-Serif" font-size="13" lengthAdjust="spacing" textLength="49.8037" x="539.4278" y="53.3325">vaccine</text><text fill="#000000" font-family="Sans-Serif" font-size="13" lengthAdjust="spacing" textLength="4.1323" x="589.2315" y="53.3325">&#160;</text><text fill="#000000" font-family="Sans-Serif" font-size="13" lengthAdjust="spacing" textLength="52.2031" x="593.3638" y="53.3325">delivery</text></g><!--link Mission Indradhanush to Immunization Programs--><g class="link" data-entity-1="Mission Indradhanush" data-entity-2="Immunization Programs" data-source-line="31" data-uid="lnk8" id="link_Mission Indradhanush_Immunization Programs"><path codeLine="31" d="M137.82,52.2 C137.82,75.91 137.82,110.77 137.82,134.52" fill="none" id="Mission Indradhanush-to-Immunization Programs" style="stroke:#FFFFFF;stroke-width:1.5;stroke-dasharray:7.0,7.0;"/><polygon fill="#FFFFFF" points="137.82,140.52,141.82,131.52,137.82,135.52,133.82,131.52,137.82,140.52" style="stroke:#FFFFFF;stroke-width:1.5;"/></g><!--link Immunization Programs to Target Diseases--><g class="link" data-entity-1="Immunization Programs" data-entity-2="Target Diseases" data-source-line="32" data-uid="lnk9" id="link_Immunization Programs_Target Diseases"><path codeLine="32" d="M296.98,177.59 C296.98,210.88 296.98,277.46 296.98,277.46 C296.98,277.46 300.28,277.46 312.84,277.46" fill="none" id="Immunization Programs-to-Target Diseases" style="stroke:#FFFFFF;stroke-width:1.5;"/><polygon fill="#FFFFFF" points="318.84,277.46,309.84,273.46,313.84,277.46,309.84,281.46,318.84,277.46" style="stroke:#FFFFFF;stroke-width:1.5;"/></g><!--link Vaccine Administration to Target Diseases--><g class="link" data-entity-1="Vaccine Administration" data-entity-2="Target Diseases" data-source-line="33" data-uid="lnk10" id="link_Vaccine Administration_Target Diseases"><path codeLine="33" d="M669.54,177.59 C669.54,210.88 669.54,277.46 669.54,277.46 C669.54,277.46 542,277.46 458.02,277.46" fill="none" id="Vaccine Administration-to-Target Diseases" style="stroke:#FFFFFF;stroke-width:1.5;"/><polygon fill="#FFFFFF" points="452.02,277.46,461.02,281.46,457.02,277.46,461.02,273.46,452.02,277.46" style="stroke:#FFFFFF;stroke-width:1.5;"/></g><!--link Vaccine Administration to Beneficiary Groups--><g class="link" data-entity-1="Vaccine Administration" data-entity-2="Beneficiary Groups" data-source-line="34" data-uid="lnk11" id="link_Vaccine Administration_Beneficiary Groups"><path codeLine="34" d="M753.41,177.51 C753.41,199.64 753.41,230.57 753.41,252.65" fill="none" id="Vaccine Administration-to-Beneficiary Groups" style="stroke:#FFFFFF;stroke-width:1.5;"/><polygon fill="#FFFFFF" points="753.41,258.65,757.41,249.65,753.41,253.65,749.41,249.65,753.41,258.65" style="stroke:#FFFFFF;stroke-width:1.5;"/></g><!--link Healthcare Infrastructure to Vaccine Administration--><g class="link" data-entity-1="Healthcare Infrastructure" data-entity-2="Vaccine Administration" data-source-line="35" data-uid="lnk12" id="link_Healthcare Infrastructure_Vaccine Administration"><path codeLine="35" d="M779.13,52.2 C779.13,75.91 779.13,110.77 779.13,134.52" fill="none" id="Healthcare Infrastructure-to-Vaccine Administration" style="stroke:#FFFFFF;stroke-width:1.5;stroke-dasharray:7.0,7.0;"/><polygon fill="#FFFFFF" points="779.13,140.52,783.13,131.52,779.13,135.52,775.13,131.52,779.13,140.52" style="stroke:#FFFFFF;stroke-width:1.5;"/></g><!--link Mission Indradhanush to Vaccine Administration--><g class="link" data-entity-1="Mission Indradhanush" data-entity-2="Vaccine Administration" data-source-line="36" data-uid="lnk13" id="link_Mission Indradhanush_Vaccine Administration"><path codeLine="36" d="M158.82,52.19 C158.82,70.7 158.82,96.46 158.82,96.46 C158.82,96.46 688.84,96.46 688.84,96.46 C688.84,96.46 688.84,116.17 688.84,134.64" fill="none" id="Mission Indradhanush-to-Vaccine Administration" style="stroke:#008000;stroke-width:1.5;"/><polygon fill="#008000" points="688.84,140.64,692.84,131.64,688.84,135.64,684.84,131.64,688.84,140.64" style="stroke:#008000;stroke-width:1.5;"/></g><!--link GMN20 to Vaccine Administration--><g class="link" data-entity-1="GMN20" data-entity-2="Vaccine Administration" data-source-line="50" data-uid="lnk22" id="link_GMN20_Vaccine Administration"><path d="M1029.94,54.18 C1029.94,89.82 1029.94,159.46 1029.94,159.46 C1029.94,159.46 925.27,159.46 844.72,159.46" fill="none" id="GMN20-Vaccine Administration" style="stroke:#FFFFFF;stroke-width:1.5;stroke-dasharray:7.0,7.0;"/></g><!--SRC=[bLN1Rjim3BtxAuZsi4iJTEk2jeSMID9aAuOLmnfiXs47Hg9j8R8aI7BJxEj7sMdZfN6t-H04uZCVtoD5ezPsNQb7POeih9HnwB629OfLuMrjvDHgw-7uh7aw2AqCnOqZi3wMjXCmLb8W1wFJpg57iqg7vzt3YaB0WiPQ5QOY4q7m3_aEGbAEjOuBUeole8oDDB5UajyM-xvvzX7xakRpyUYqMy_OUxjkW-jIHTeFBKebLeQBXhV3KIUuzkY-AnbBUFT7lctrSslY7LO4H_Temk2UlCgFzehx6sPRjpVacQGJ22LAk-RcGOuwq67sLjDIimC7U0z7FOc8fj3_0kcQtpgNlO4Rodb4OAOfTIrapsWu-gn2KDR0hP4UPOcc3kKH75-SJsUpIHTuMrMrKRym9lGNRmkc3GUH2_G5HRXHWJ3GOSmt52ALD9QLCYf4t-HbwEN5V79vqOLEo73vGg7Vm0SstwMCyz7DR7BMXNqarB4Kw8crv1uvPorYxMcNTEV4Lz8DOIYL2rcF2SFXTP_ihC-EmU3wfG5Phzohg_-2DzaF-96zfhwHqPEnJ_hWnt7XYSpFmIllifrZAU6EPpT0plCsvV7azG1e94nGen6KfSa6hueoWirxnYq3-4GRSFLIAm5b8mMOAYfcUY0EjnQbg_LGQxvukEIME-lgRHipOif4bRM4clAMhwTz01DlKOB0I8Lb8ncxvQMSfV0TWGIFF5-95GjK9aIGsnxjyqNh6he-gvfa8gqhHadIhCetQbfyOfjwrYjGWtNKliR_GoItpxMqCTggeNinEG3tZeJATpQA4hKcKt2BK4hF9P1a60sBuGblVGoQmWbRgPKzWSLadspNkKDZbsIfAftmHLHEfUMIm5rPfT9CQvgXS9uAW_pTM5jUHBrDwn_c9733fl2ohPtZFYKJjqe3-GSb6jAPIGCIdkfuSdpppFWR]--></g></svg>